<?xml version="1.0" encoding="utf-8"?>
<!-- Generator: Adobe Illustrator 24.3.0, SVG Export Plug-In . SVG Version: 6.00 Build 0)  -->
<svg version="1.1" id="Layer_1" xmlns="http://www.w3.org/2000/svg" xmlns:xlink="http://www.w3.org/1999/xlink" x="0px" y="0px"
	 viewBox="0 0 200 139.9" style="enable-background:new 0 0 200 139.9;" xml:space="preserve">
<style type="text/css">
	.st0{fill:#F15A28;}
	.st1{fill:none;stroke:#FFFFFF;stroke-width:2;stroke-miterlimit:10;}
	.st2{fill:#FFFFFF;}
	.st3{fill:#FFFFFF;stroke:#FBD0CC;stroke-miterlimit:10;}
	.st4{display:none;}
	.st5{display:inline;}
	.st6{filter:url(#Adobe_OpacityMaskFilter);}
	.st7{mask:url(#SVGID_1_);}
	.st8{fill:#F8ADA8;}
</style>
<g>
	<g>
		<path class="st0" d="M173.5,95.1c0.5-0.1,0.9-0.2,1.2-0.1c4.6,1.8,9.4,3.4,13.1,6.8c3.8,3.5,3.9,6.7,0.4,10.4
			c-3.3,3.4-7.6,5.2-11.9,6.9c-8.9,3.4-18.1,5.4-27.5,6.9c-18.4,3.1-37,4.1-55.7,3.9c-12.5-0.1-24.9-0.6-37.3-2.3
			c-12-1.6-23.9-3.7-35.4-7.8c-4.9-1.8-9.4-4.2-13.1-7.9c-3.2-3.3-3.1-6.6,0.1-9.9c3.1-3,8.8-5.9,13.7-6.7c-0.7,2.1-1.4,4.1-2.1,6
			c-1.4,3.4-0.7,5.9,2.3,8.1c6.6,4.7,14.2,7.1,21.9,8.7c14.1,3,28.2,4.8,42.6,5.3c22,0.7,43.8-0.8,65.5-4.9
			c6.9-1.3,13.5-3.3,19.8-6.5c1.4-0.7,2.8-1.8,3.8-3c1.9-2.1,2.2-4.5,1-7.2C175.2,99.7,174.4,97.4,173.5,95.1z"/>
		<g>
			<path class="st0" d="M174.2,101.4c-0.7-1.8-1.4-3.7-1.6-5.6c-1-8.4-3.1-16.6-6.9-24.1c-12-23.7-31.3-37.5-57.4-41.9
				c-1.9-0.3-3.7-1-5.5-1.6c-1.5-0.5-2-2-1.7-3.2c0.2-0.9,1.4-1.6,2.3-2.2c0.4-0.3,1-0.3,1.5-0.5c3.8-1.2,4.7-4.2,2.2-7.2
				c-3.8-4.7-11.8-5.6-16.4-1.7c-1.2,1.1-2.1,2.7-2.8,4.2c-0.8,1.5-0.2,2.9,1.2,3.7c1.4,0.9,3.1,1.4,4.6,2.1
				c0.4,0.2,0.9,0.5,1.1,0.9c0.9,1.5,0.4,3.3-1.4,3.9c-2.5,0.9-5.1,1.7-7.7,2.1c-14.6,2.4-27.3,8.6-38.2,18.5
				C32.9,61.8,24.9,78.2,22.8,97.5c-0.1,0.9-0.5,1.9-1,2.7c-1.8,3-1.3,6,1.7,7.9c2.7,1.7,5.5,3.3,8.4,4.5c5.6,2.2,11.4,3.6,17.3,4.7
				l0,0c0,0,0.1,0,0.1,0c0,0,0,0,0.1,0c16.2,3.2,30.3,4.4,41.3,4.8c10.7,0.4,25.7,0.9,44.9-2.7c1.3-0.2,2.4-0.5,3.5-0.7
				c0.1,0,0.1,0,0.2,0c0.2,0,0.4-0.1,0.6-0.1c0.7-0.1,1.3-0.3,1.8-0.4c7.5-1.6,14.9-3.1,22.4-4.8c3.3-0.7,6.3-2.3,8.7-4.8
				C175.1,106.4,175.4,104.4,174.2,101.4z M91.5,14.5c2.1-2.1,4.7-2.8,7.6-2C96.6,13.2,94.1,13.8,91.5,14.5z M24.2,99.7
				c2.4,2.2,4.9,4.5,7.1,6.7C28.3,106.4,23.9,102.8,24.2,99.7z M27.5,98.1c-1.8-0.8-2.5-1.9-2.2-4c0.7-5.9,2.3-11.7,4.6-17.1
				c5.6-13.3,14.2-24.1,25.9-32.6c0.2-0.1,0.4-0.2,0.6-0.3C39.3,58.1,30,76.3,27.5,98.1z M167.9,106.2c-2.5,2.1-5.4,3.2-8.5,3.8
				c-1.6,0.3-2.1-0.2-2.2-2.2c-0.3-3.7-0.5-7.4-0.7-11.1c-0.6-11.7-3.2-22.8-8.3-33.3c-6.9-14.3-17.9-23.8-32.7-29.3
				c-1.3-0.5-2.5-0.9-3.8-1.4c0-0.2,7.8,1.9,11.6,3.4c22.1,8.7,36.4,24.7,43.1,47.4c1.8,6,2.4,12.3,3.5,18.5
				C170.1,103.6,169.3,105,167.9,106.2z"/>
		</g>
	</g>
</g>
<ellipse class="st1" cx="95.2" cy="88.4" rx="21.2" ry="21.6"/>
<g>
	<path class="st2" d="M84.8,104.7c-0.4-0.3-0.8-0.5-1.2-0.8c-3-2.2-5.2-5.1-6.5-8.6c-0.1-0.2-0.1-0.3,0-0.5c0.8-1.6,2-2.9,3.3-4.2
		c2.4-2.2,5.1-4,8-5.5c0,0,0.1,0,0.2-0.1C85.6,91.3,83.9,97.8,84.8,104.7z"/>
	<path class="st2" d="M98.4,81.7c-1-0.5-2.1-1-3.1-1.4c-2.9-1.2-5.8-2-8.9-2.4c-1.9-0.3-3.8-0.4-5.7-0.2c-0.6,0.1-1.3,0.1-1.9,0.2
		c0.1-0.1,0.1-0.2,0.1-0.2c2.3-3.5,5.4-5.9,9.2-7.5c0.2-0.1,0.4-0.1,0.5,0c1.6,0.9,3,2,4.2,3.4c2.2,2.4,4,5.1,5.4,8
		C98.4,81.7,98.4,81.7,98.4,81.7z"/>
	<path class="st2" d="M101.8,91.6c0.1-0.1,0.1-0.2,0.1-0.3c1.7-3.4,2.9-6.9,3.5-10.6c0.3-1.9,0.5-3.9,0.4-5.8c0-0.9-0.2-1.7-0.3-2.6
		c0-0.1,0-0.2,0-0.3c0.4,0.3,0.8,0.6,1.2,0.9c3,2.2,5.1,5.1,6.5,8.6c0.1,0.2,0.1,0.3,0,0.5c-0.9,1.7-2.1,3-3.5,4.3
		c-2.3,2.2-5,3.9-7.8,5.3C101.9,91.5,101.9,91.6,101.8,91.6z"/>
	<path class="st2" d="M111.6,98.8c-0.6,0.8-1.1,1.5-1.8,2.3c-2.1,2.4-4.7,4.2-7.6,5.4c-0.2,0.1-0.3,0.1-0.5,0c-1.6-0.9-3-2-4.2-3.4
		c-2.2-2.4-4-5-5.4-7.9c0-0.1-0.1-0.1-0.1-0.2c3.1,1.6,6.2,2.7,9.6,3.4C104.8,99,108.1,99.3,111.6,98.8
		C111.5,98.8,111.6,98.8,111.6,98.8z"/>
	<path class="st2" d="M92.8,81.4c-0.8,0.3-1.6,0.6-2.4,0.9c-3.9,1.6-7.5,3.7-10.7,6.5c-1.3,1.1-2.4,2.3-3.4,3.7c0,0-0.1,0.1-0.1,0.2
		c-0.1-0.4-0.2-0.7-0.2-1.1c-0.6-3.8-0.2-7.5,1.4-11c0.1-0.2,0.2-0.3,0.4-0.4c1.8-0.5,3.7-0.7,5.5-0.6c3.1,0.1,6.2,0.8,9.2,1.8
		C92.7,81.3,92.7,81.4,92.8,81.4z"/>
	<path class="st2" d="M99.4,107.3c-0.7,0.1-1.3,0.2-1.9,0.3c-1.4,0.2-2.8,0.2-4.1,0.1c-2.1-0.2-4.2-0.7-6.2-1.6
		c-0.1,0-0.2-0.2-0.2-0.3c-0.3-1-0.5-2.1-0.6-3.2c-0.3-4,0.5-7.9,1.8-11.8c0,0,0-0.1,0-0.1C90.5,97.2,93.8,103,99.4,107.3z"/>
	<path class="st2" d="M114.1,84.1c0.1,0.6,0.2,1.3,0.3,1.9c0.2,1.4,0.2,2.8,0.1,4.2c-0.2,2.1-0.7,4.1-1.6,6.1c0,0.1-0.2,0.2-0.3,0.2
		c-1,0.3-2,0.5-3.1,0.6c-4.1,0.3-8-0.5-11.8-1.8c0,0-0.1,0-0.1,0C104.1,93.1,109.8,89.7,114.1,84.1z"/>
	<path class="st2" d="M102.1,86c-0.3-0.8-0.6-1.6-0.9-2.4c-1.7-4.3-4-8.1-7.2-11.5c-0.9-1-1.9-1.8-3-2.6c0,0-0.1,0-0.1-0.1
		c0.4-0.1,0.7-0.2,1.1-0.2c3.8-0.6,7.5-0.2,11,1.4c0.2,0.1,0.3,0.2,0.4,0.4c0.6,1.8,0.7,3.7,0.6,5.7c-0.1,3.1-0.8,6.1-1.8,9.1
		C102.2,85.8,102.2,85.9,102.1,86z"/>
</g>
<path class="st3" d="M118.3,77.8H67.5c-2.8,0-5.1-2.3-5.1-5.1V62.1c0-2.8,2.3-5.1,5.1-5.1h50.8c2.8,0,5.1,2.3,5.1,5.1v10.6
	C123.4,75.5,121.1,77.8,118.3,77.8z"/>
<g>
	<path class="st0" d="M69.9,61.5v10.3h9.7v2.6H67.3V61.5H69.9z"/>
	<path class="st0" d="M82.8,61.5h2.6v12.9h-2.6V61.5z"/>
	<path class="st0" d="M88.4,61.5h2.9l4.4,10.2l4.4-10.2h2.9l-5.5,12.9h-3.4L88.4,61.5z"/>
	<path class="st0" d="M104.7,67.1c0-3.5,2.4-5.6,5.9-5.6h6.3v2.6h-6.3c-1.9,0-3.2,0.9-3.3,2.7h8.3v2.4h-8.3c0.2,1.8,1.5,2.7,3.3,2.7
		h6.3v2.6h-6.3c-3.5,0-5.9-2.1-5.9-5.6V67.1z"/>
</g>
<g class="st4">
	
		<image style="display:inline;overflow:visible;opacity:0.15;" width="320" height="316" xlink:href="471DDD96.png"  transform="matrix(0.24 0 0 0.24 64.08 41.1208)">
	</image>
	<g class="st5">
		<defs>
			<filter id="Adobe_OpacityMaskFilter" filterUnits="userSpaceOnUse" x="83.5" y="59.6" width="37.9" height="37.4">
				<feFlood  style="flood-color:white;flood-opacity:1" result="back"/>
				<feBlend  in="SourceGraphic" in2="back" mode="normal"/>
			</filter>
		</defs>
		<mask maskUnits="userSpaceOnUse" x="83.5" y="59.6" width="37.9" height="37.4" id="SVGID_1_">
			<g class="st6">
				
					<image style="overflow:visible;" width="176" height="174" xlink:href="471DDD9A.jpg"  transform="matrix(0.24 0 0 0.24 81.36 57.4408)">
				</image>
			</g>
		</mask>
		<g class="st7">
			<g>
				
					<image style="overflow:visible;" width="158" height="156" xlink:href="471DDD9A.png"  transform="matrix(0.24 0 0 0.24 83.52 59.6009)">
				</image>
			</g>
			<g>
				<path class="st0" d="M99.4,74c0.7,1,1.3,2,2,3c0.1,0.2,0.3,0.4,0.4,0.6c0.1,0.1,0.2,0.1,0.2,0.2c0-0.1,0.1-0.2,0.1-0.2
					c0.1-0.9,0.2-1.8,0.3-2.7c0.1-1,0.2-2.1,0.4-3.1c0,0.1,0,0.3,0,0.4c0,1.8,0,3.6,0,5.4c0,0.1,0.1,0.2,0.1,0.3
					c0.1-0.1,0.2-0.1,0.3-0.2c0.9-1,1.8-1.9,2.7-2.9c0,0,0.1-0.1,0.1-0.1c-0.3,0.3-0.5,0.7-0.8,1c-0.6,0.8-1.2,1.5-1.8,2.3
					c-0.1,0.1-0.1,0.2-0.1,0.2c0.1,0,0.2,0.1,0.3,0c1.8-0.4,3.6-0.8,5.3-1.2c0.1,0,0.2,0,0.3,0c-0.6,0.2-1.1,0.4-1.7,0.5
					c-1.2,0.4-2.5,0.8-3.7,1.2c-0.1,0-0.2,0.1-0.3,0.2c0.1,0.1,0.2,0.2,0.3,0.3c1.2,0.6,2.5,1.2,3.7,1.8c0,0,0.1,0,0.1,0.1
					c-1.5-0.5-2.9-1.1-4.3-1.6c0,0,0,0.1-0.1,0.1c1,1.7,2,3.4,3,5.1c0,0,0,0-0.1,0c-0.2-0.2-0.3-0.4-0.5-0.7c-1-1.3-1.9-2.7-2.9-4
					c-0.1-0.1-0.2-0.2-0.3-0.1c-0.2,1.5-0.4,3.1-0.6,4.7c0,0,0,0,0,0c0.1-1.6,0.1-3.1,0.2-4.7c0,0-0.1,0-0.1,0
					c-1.4,1.5-2.7,3.1-4.1,4.6c0,0,0,0,0,0c0.3-0.5,0.7-1,1-1.4c0.8-1.1,1.6-2.2,2.4-3.3c0,0,0.1-0.1,0.1-0.1c0-0.1,0-0.2,0-0.2
					c0,0-0.1-0.1-0.2-0.1c-1.4,0.2-2.7,0.5-4.1,0.8c-0.1,0-0.1,0-0.2,0c0.8-0.2,1.7-0.5,2.5-0.7c0.6-0.2,1.1-0.3,1.7-0.5
					c0.1,0,0.1-0.1,0.2-0.1c-0.1-0.1-0.1-0.1-0.2-0.2c-1.8-0.8-3.5-1.5-5.3-2.3c0,0-0.1,0-0.1-0.1c0.6,0.2,1.2,0.4,1.7,0.6
					c1.3,0.4,2.5,0.8,3.8,1.2c0.1,0,0.2,0,0.3,0c0,0,0-0.2,0-0.3c-0.6-1.2-1.3-2.4-1.9-3.6C99.4,74.2,99.4,74.1,99.4,74
					C99.4,74.1,99.4,74.1,99.4,74z"/>
			</g>
		</g>
	</g>
</g>
<path class="st8" d="M102.1,74.8c0.4,0.7,0.9,1.3,1.3,2c0.1,0.1,0.2,0.3,0.3,0.4c0,0.1,0.1,0.1,0.2,0.1c0-0.1,0.1-0.1,0.1-0.2
	c0.1-0.6,0.1-1.2,0.2-1.8c0.1-0.7,0.1-1.4,0.2-2.1c0,0.1,0,0.2,0,0.3c0,1.2,0,2.4,0,3.6c0,0.1,0.1,0.1,0.1,0.2
	c0.1,0,0.1-0.1,0.2-0.1c0.6-0.6,1.2-1.3,1.8-1.9c0,0,0,0,0.1,0c-0.2,0.2-0.4,0.4-0.5,0.7c-0.4,0.5-0.8,1-1.2,1.5c0,0,0,0.1-0.1,0.2
	c0.1,0,0.1,0,0.2,0c1.2-0.3,2.4-0.5,3.6-0.8c0.1,0,0.1,0,0.2,0c-0.4,0.1-0.8,0.2-1.1,0.4c-0.8,0.3-1.7,0.5-2.5,0.8
	c-0.1,0-0.1,0.1-0.2,0.1c0.1,0.1,0.1,0.1,0.2,0.2c0.8,0.4,1.7,0.8,2.5,1.2c0,0,0.1,0,0.1,0.1c-1-0.3-1.9-0.7-2.9-1c0,0,0,0,0,0.1
	c0.7,1.2,1.4,2.3,2,3.5c0,0,0,0,0,0c-0.1-0.1-0.2-0.3-0.3-0.4c-0.6-0.9-1.3-1.8-1.9-2.7c-0.1-0.1-0.1-0.1-0.2-0.1
	c-0.1,1-0.3,2.1-0.4,3.1c0,0,0,0,0,0c0-1.1,0.1-2.1,0.1-3.2c0,0,0,0-0.1,0c-0.9,1-1.8,2.1-2.7,3.1c0,0,0,0,0,0
	c0.2-0.3,0.5-0.6,0.7-1c0.5-0.7,1.1-1.5,1.6-2.2c0,0,0.1-0.1,0.1-0.1c0,0,0-0.1,0-0.2c0,0-0.1,0-0.1,0c-0.9,0.2-1.8,0.3-2.8,0.5
	c0,0-0.1,0-0.1,0c0.6-0.2,1.1-0.3,1.7-0.5c0.4-0.1,0.7-0.2,1.1-0.3c0,0,0.1-0.1,0.1-0.1c0,0-0.1-0.1-0.1-0.1c-1.2-0.5-2.4-1-3.6-1.5
	c0,0,0,0,0-0.1c0.4,0.1,0.8,0.3,1.2,0.4c0.8,0.3,1.7,0.6,2.5,0.8c0.1,0,0.2,0,0.2,0c0,0,0-0.1,0-0.2c-0.4-0.8-0.9-1.6-1.3-2.4
	C102.1,74.9,102.1,74.8,102.1,74.8C102.1,74.8,102.1,74.8,102.1,74.8z"/>
</svg>
