<?xml version="1.0" encoding="utf-8"?>
<!-- Generator: Adobe Illustrator 24.3.0, SVG Export Plug-In . SVG Version: 6.00 Build 0)  -->
<svg version="1.1" id="Layer_1" xmlns="http://www.w3.org/2000/svg" xmlns:xlink="http://www.w3.org/1999/xlink" x="0px" y="0px"
	 viewBox="0 0 1946.6 500" style="enable-background:new 0 0 1946.6 500;" xml:space="preserve">
<style type="text/css">
	.st0{fill:#F26839;}
	.st1{fill:none;stroke:#FFFFFF;stroke-width:2;stroke-miterlimit:10;}
	.st2{fill:#FFFFFF;}
	.st3{fill:#FFFFFF;stroke:#FBD0CC;stroke-width:2;stroke-miterlimit:10;}
	.st4{fill:#F15A28;}
	.st5{fill:#F15A28;stroke:#E74A25;stroke-width:3;stroke-miterlimit:10;}
	.st6{fill:#F8ADA8;}
</style>
<g>
	<g>
		<path class="st0" d="M598.6,335.7c1.8-0.3,3.1-0.8,3.9-0.5c15.7,6,31.7,11.5,44.5,23.1c12.9,11.8,13.3,22.8,1.3,35.4
			c-11.2,11.7-25.6,17.7-40.2,23.4c-30.1,11.6-61.4,18.2-93.1,23.5c-62.4,10.3-125.2,14-188.4,13.3c-42.2-0.4-84.3-2.2-126.2-7.7
			c-40.6-5.3-80.9-12.4-119.6-26.5c-16.5-6-31.8-14.1-44.3-26.8c-10.9-11.2-10.7-22.4,0.4-33.4c10.3-10.2,29.8-19.9,46.3-22.8
			c-2.5,7-4.6,13.7-7.2,20.2c-4.6,11.6-2.2,20.1,7.9,27.3c22.3,15.9,47.9,24,74.3,29.6c47.6,10.1,95.6,16.3,144.3,17.8
			c74.5,2.3,148.4-2.9,221.7-16.6c23.3-4.4,45.8-11,66.9-21.9c4.8-2.5,9.3-6.2,13-10.2c6.5-7.1,7.4-15.3,3.5-24.3
			C604.3,351.3,601.7,343.7,598.6,335.7z"/>
		<g>
			<path class="st0" d="M601,357.2c-2.5-6-4.6-12.4-5.3-18.8c-3.4-28.5-10.3-56-23.2-81.6c-40.5-80.3-105.8-127-194.4-141.7
				c-6.4-1.1-12.6-3.3-18.7-5.5c-5-1.7-6.8-6.7-5.9-10.8c0.6-3,4.8-5.3,7.6-7.6c1.3-1,3.3-1.1,4.9-1.7c12.8-4,15.9-14.1,7.5-24.5
				c-12.7-15.8-39.9-19-55.4-5.9c-4.2,3.6-7,9-9.6,14.1c-2.6,5-0.5,9.9,3.9,12.6c4.8,3,10.4,4.7,15.5,7.2c1.5,0.7,3.1,1.7,3.9,3
				c3.1,5,1.2,11-4.9,13.2c-8.5,3-17.2,5.8-26.1,7.3c-49.2,8.2-92.5,29-129.2,62.5c-48.6,44.3-75.7,99.8-82.8,165.1
				c-0.3,3.1-1.6,6.4-3.2,9.1c-6,10.3-4.4,20.3,5.7,26.8c9.1,5.8,18.6,11.3,28.5,15.3c18.9,7.5,38.6,12.2,58.5,16l0,0
				c0.2,0,0.3,0.1,0.5,0.1c0.1,0,0.2,0,0.2,0c55,10.8,102.7,15,139.8,16.3c36.1,1.3,86.9,2.9,152-9c4.3-0.8,8.3-1.6,11.8-2.3
				c0.2,0,0.4-0.1,0.6-0.1c0.6-0.1,1.3-0.3,1.9-0.4c2.3-0.5,4.3-0.9,6.2-1.3c25.3-5.4,50.6-10.6,75.8-16.2
				c11.3-2.5,21.3-7.9,29.6-16.3C604.2,374.2,605.1,367.2,601,357.2z M321.3,63.1c7.1-7.1,15.8-9.3,25.7-6.9
				C338.4,58.6,329.8,60.8,321.3,63.1z M93.5,351.5c8,7.5,16.5,15.3,24.2,22.5C107.4,374.2,92.4,361.8,93.5,351.5z M104.5,346
				c-6-2.6-8.4-6.5-7.6-13.5c2.4-20.1,7.8-39.4,15.6-58c18.8-44.9,48.2-81.7,87.5-110.4c0.6-0.4,1.2-0.8,1.9-1.1
				C144.6,210.7,113,272.1,104.5,346z M579.9,373.3c-8.3,7.2-18.2,10.8-28.8,12.8c-5.4,1-7.2-0.8-7.6-7.3
				c-0.9-12.5-1.7-25.1-2.3-37.6c-2-39.4-11-77-28.1-112.8c-23.2-48.5-60.7-80.6-110.7-99c-4.3-1.6-8.6-3.2-12.9-4.8
				c0.2-0.6,26.5,6.4,39.1,11.4c74.9,29.5,123.2,83.5,145.8,160.3c6,20.2,8,41.6,11.7,62.5C587.3,364.7,584.5,369.3,579.9,373.3z"/>
		</g>
	</g>
</g>
<ellipse class="st1" cx="333.7" cy="313" rx="71.7" ry="73.2"/>
<g>
	<path class="st2" d="M298.5,368.5c-1.3-0.9-2.7-1.8-4-2.8c-10.1-7.6-17.5-17.3-22.1-29c-0.2-0.6-0.2-1.1,0.1-1.7
		c2.9-5.4,6.8-10,11.2-14.1c8-7.6,17.2-13.6,27-18.5c0.2-0.1,0.3-0.1,0.6-0.2C301.1,323,295.4,344.8,298.5,368.5z"/>
	<path class="st2" d="M344.6,290.6c-3.5-1.6-6.9-3.2-10.5-4.7c-9.7-4-19.8-6.7-30.2-8.1c-6.4-0.9-12.8-1.2-19.2-0.7
		c-2.2,0.2-4.3,0.5-6.5,0.8c0.2-0.3,0.3-0.6,0.5-0.8c7.8-11.7,18.2-20.1,31.2-25.3c0.7-0.3,1.2-0.2,1.8,0.1
		c5.4,2.9,10.1,6.9,14.3,11.3c7.5,8,13.5,17.1,18.4,26.9C344.5,290.3,344.6,290.4,344.6,290.6z"/>
	<path class="st2" d="M355.9,324c0.2-0.4,0.3-0.7,0.5-1c5.9-11.4,9.7-23.4,11.9-36c1.1-6.5,1.7-13,1.5-19.6
		c-0.1-2.9-0.6-5.9-0.9-8.8c0-0.3-0.1-0.6-0.1-1.2c1.5,1.1,2.9,1.9,4.2,2.9c10.1,7.6,17.4,17.2,22,29c0.3,0.7,0.2,1.2-0.1,1.7
		c-3,5.6-7.1,10.3-11.7,14.6c-7.9,7.3-16.8,13.2-26.4,18C356.5,323.8,356.3,323.8,355.9,324z"/>
	<path class="st2" d="M389.2,348.4c-2,2.5-3.8,5.2-6,7.6c-7.1,8.2-15.8,14.3-25.9,18.2c-0.7,0.3-1.2,0.2-1.7-0.1
		c-5.5-2.9-10.1-6.9-14.3-11.4c-7.5-8-13.4-17-18.3-26.8c-0.1-0.2-0.2-0.4-0.4-0.8c10.4,5.5,21.1,9.2,32.3,11.5
		c11.2,2.3,22.6,3.3,34,1.4C389,348.2,389.1,348.3,389.2,348.4z"/>
	<path class="st2" d="M325.7,289.5c-2.7,1-5.4,1.9-8,2.9c-13.3,5.3-25.4,12.5-36.2,21.9c-4.3,3.8-8.1,7.9-11.4,12.6
		c-0.1,0.2-0.2,0.3-0.5,0.6c-0.3-1.3-0.6-2.5-0.7-3.7c-2-12.9-0.5-25.3,4.7-37.3c0.3-0.7,0.7-1.1,1.5-1.3c6.1-1.8,12.4-2.3,18.7-2
		c10.7,0.4,21,2.6,31.1,5.9C325.1,289.2,325.3,289.3,325.7,289.5z"/>
	<path class="st2" d="M348.1,377.1c-2.2,0.4-4.3,0.7-6.4,1c-4.7,0.6-9.3,0.6-14,0.2c-7.3-0.7-14.2-2.5-20.8-5.5
		c-0.3-0.1-0.6-0.5-0.7-0.9c-1.2-3.5-1.8-7.1-2-10.8c-0.9-13.7,1.7-26.9,6-39.8c0-0.1,0.1-0.2,0.1-0.3
		C317.7,343.1,329.1,362.6,348.1,377.1z"/>
	<path class="st2" d="M397.8,298.6c0.3,2.2,0.7,4.2,1,6.4c0.6,4.8,0.6,9.5,0.2,14.3c-0.7,7.2-2.5,14-5.5,20.6
		c-0.2,0.4-0.6,0.7-1,0.8c-3.4,1.1-6.9,1.7-10.4,1.9c-13.8,0.9-27-1.6-40-5.9c-0.1,0-0.2-0.1-0.3-0.1
		C363.8,329,383.3,317.6,397.8,298.6z"/>
	<path class="st2" d="M357.2,305c-1-2.8-1.9-5.5-3-8.2c-5.8-14.4-13.7-27.5-24.4-38.8c-3.1-3.2-6.5-6.2-10.1-8.7
		c-0.1-0.1-0.2-0.2-0.5-0.4c1.3-0.3,2.5-0.5,3.7-0.7c12.9-2,25.4-0.5,37.4,4.7c0.7,0.3,1,0.7,1.2,1.4c1.9,6.3,2.3,12.7,2,19.1
		c-0.5,10.6-2.6,20.8-6,30.8C357.4,304.5,357.3,304.7,357.2,305z"/>
</g>
<path class="st3" d="M421,277.2H230.8c-4.4,0-8-3.6-8-8v-54.1c0-4.4,3.6-8,8-8H421c4.4,0,8,3.6,8,8v54.1
	C429,273.6,425.4,277.2,421,277.2z"/>
<g>
	<path class="st4" d="M248.1,222v35h32.7v8.8h-41.4V222H248.1z"/>
	<path class="st4" d="M291.6,222h8.8v43.8h-8.8V222z"/>
	<path class="st4" d="M310.6,222h9.7l14.8,34.6l14.8-34.6h9.7l-18.7,43.8h-11.7L310.6,222z"/>
	<path class="st4" d="M366,241c0-12,8.2-19,20.1-19h21.3v8.8h-21.3c-6.3,0-10.8,3.1-11.3,9h28.2v8.2h-28.2c0.5,6,5,9,11.3,9h21.3
		v8.8h-21.3c-12,0-20.1-7-20.1-19V241z"/>
</g>
<g>
	<g>
		<path d="M755.6,125.4h39.9l89.6,121.1V125.4h32.4v161.9h-39.9L788,166.2v121.1h-32.4V125.4z"/>
		<path d="M998.5,288.4c-36.9,0-61.5-25.7-61.5-62.6c0-36.9,24.6-62.6,61.5-62.6h32.4c36.9,0,61.5,25.7,61.5,62.6
			c0,36.9-24.6,62.6-61.5,62.6H998.5z M998.5,195.6c-17.5,0-29.1,12.7-29.1,30.2c0,17.5,11.7,30.2,29.1,30.2h32.4
			c17.5,0,29.1-12.7,29.1-30.2c0-17.5-11.7-30.2-29.1-30.2H998.5z"/>
		<path d="M1250,164.3v32.4h-101.5c-5.4,0-8.6,2.6-8.6,7.6s3.2,8.6,8.6,8.6h64.8c23.3,0,38.9,13.4,38.9,36.7
			c0,23.3-15.5,37.8-38.9,37.8h-101.5V255h101.5c5.4,0,8.6-2.6,8.6-7.6c0-5-3.2-8.6-8.6-8.6h-64.8c-23.3,0-38.9-13.4-38.9-36.7
			s15.5-37.8,38.9-37.8H1250z"/>
		<path d="M1271.5,125.4h32.4v49.6c6.7-7.6,17.7-11.9,35.4-11.9h13.2c36.9,0,61.5,25.7,61.5,62.6v61.5h-32.4v-61.5
			c0-17.5-11.7-30.2-29.1-30.2h-19.4c-17.5,0-29.1,12.7-29.1,30.2v61.5h-32.4V125.4z"/>
		<path d="M1495.8,255h48.8v32.4h-48.8c-38,0-61.3-23.3-61.3-61.3v-89.8h32.4v28.1h64.8v28.1h-64.8V226
			C1466.9,246.1,1475.7,255,1495.8,255z"/>
		<path d="M1616.9,288.4c-36.9,0-61.5-25.7-61.5-62.6c0-36.9,24.6-62.6,61.5-62.6h32.4c36.9,0,61.5,25.7,61.5,62.6
			c0,36.9-24.6,62.6-61.5,62.6H1616.9z M1616.9,195.6c-17.5,0-29.1,12.7-29.1,30.2c0,17.5,11.7,30.2,29.1,30.2h32.4
			c17.5,0,29.1-12.7,29.1-30.2c0-17.5-11.7-30.2-29.1-30.2H1616.9z"/>
		<path d="M1762.6,125.4v112l63.5-73.2h43.2l-53.5,61.7l54.8,61.3h-43.4l-32.8-36.7l-31.7,36.7h-32.4V125.4H1762.6z"/>
	</g>
</g>
<g>
	<g>
		<path d="M758.6,348.7h34c8.9,0,13.3,7.1,13.3,15.1c0,7.6-4,14.1-12.1,14.7l12.9,14.5h-11.9L782,378.6h-14.5v14.5h-8.9V348.7z
			 M767.4,357.6v12.7h25.1c3.5,0,4.4-3.8,4.4-6.5c0-2.7-0.9-6.2-4.4-6.2H767.4z"/>
		<path d="M849.9,348.7l18.9,44.3h-9.8l-3.3-7.7h-23.5l-3.3,7.7h-9.8l18.9-44.3H849.9z M852.2,377.1l-8.2-19.3l-8.2,19.3H852.2z"/>
		<path d="M882.1,348.7h26.3c13.3,0,22.2,8.9,22.2,22.2s-8.9,22.2-22.2,22.2h-26.3V348.7z M908.5,384.2c8,0,13.3-5.3,13.3-13.3
			s-5.3-13.3-13.3-13.3H891v26.6H908.5z"/>
		<path d="M944.8,348.7h8.9v44.3h-8.9V348.7z"/>
		<path d="M967.9,368c0-12.1,8.3-19.2,20.4-19.2h20.7v8.9h-20.7c-6.8,0-11.5,3.5-11.5,10.3v5.9c0,6.8,4.7,10.3,11.5,10.3h20.7v8.9
			h-20.7c-12.1,0-20.4-7.1-20.4-19.2V368z"/>
		<path d="M1052.1,348.7l18.9,44.3h-9.8l-3.3-7.7h-23.5l-3.3,7.7h-9.8l18.9-44.3H1052.1z M1054.4,377.1l-8.2-19.3l-8.2,19.3H1054.4z
			"/>
		<path d="M1093.2,348.7v35.5h33.1v8.9h-42v-44.3H1093.2z"/>
		<path d="M1183.1,357.6h-19.5v-8.9h47.9v8.9H1192v35.5h-8.9V357.6z"/>
		<path d="M1225.4,348.7h34c8.9,0,13.3,7.1,13.3,15.1c0,7.6-4,14.1-12.1,14.7l12.9,14.5h-11.9l-12.9-14.5h-14.5v14.5h-8.9V348.7z
			 M1234.2,357.6v12.7h25.1c3.5,0,4.4-3.8,4.4-6.5c0-2.7-0.9-6.2-4.4-6.2H1234.2z"/>
		<path d="M1316.7,348.7l18.9,44.3h-9.8l-3.3-7.7H1299l-3.3,7.7h-9.8l18.9-44.3H1316.7z M1319,377.1l-8.2-19.3l-8.2,19.3H1319z"/>
		<path d="M1348.9,348.7h10.9l24.5,33.2v-33.2h8.9v44.3h-10.9l-24.5-33.2v33.2h-8.9V348.7z"/>
		<path d="M1416.3,362c0,2.7,1.8,4.4,4.4,4.4h19.9c8,0,13.3,5.3,13.3,13.3s-5.3,13.3-13.3,13.3h-32.6v-8.9h32.6
			c2.7,0,4.4-1.8,4.4-4.4s-1.8-4.4-4.4-4.4h-19.9c-8,0-13.3-5.3-13.3-13.3s5.3-13.3,13.3-13.3h32.6v8.9h-32.6
			C1418.1,357.6,1416.3,359.4,1416.3,362z"/>
		<path d="M1468.2,348.7h34c8.9,0,13.3,7.1,13.3,15.1s-4.4,15.1-13.3,15.1h-25.1v14.2h-8.9V348.7z M1477.1,357.6V370h25.1
			c3.5,0,4.4-3.5,4.4-6.2c0-2.7-0.9-6.2-4.4-6.2H1477.1z"/>
		<path d="M1551.3,348.7l18.9,44.3h-9.8l-3.3-7.7h-23.5l-3.3,7.7h-9.8l18.9-44.3H1551.3z M1553.6,377.1l-8.2-19.3l-8.2,19.3H1553.6z
			"/>
		<path d="M1583.5,348.7h34c8.9,0,13.3,7.1,13.3,15.1c0,7.6-4,14.1-12.1,14.7l12.9,14.5h-11.9l-12.9-14.5h-14.5v14.5h-8.9V348.7z
			 M1592.4,357.6v12.7h25.1c3.5,0,4.4-3.8,4.4-6.5c0-2.7-0.9-6.2-4.4-6.2H1592.4z"/>
		<path d="M1644.4,368c0-12.1,8.3-19.2,20.4-19.2h21.6v8.9h-21.6c-6.4,0-10.9,3.1-11.5,9.2h28.6v8.3h-28.6c0.5,6,5.1,9.2,11.5,9.2
			h21.6v8.9h-21.6c-12.1,0-20.4-7.1-20.4-19.2V368z"/>
		<path d="M1700.3,348.7h10.9l24.5,33.2v-33.2h8.9v44.3h-10.9l-24.5-33.2v33.2h-8.9V348.7z"/>
		<path d="M1758.8,368c0-12.1,8.3-19.2,20.4-19.2h20.7v8.9h-20.7c-6.8,0-11.5,3.5-11.5,10.3v5.9c0,6.8,4.7,10.3,11.5,10.3h20.7v8.9
			h-20.7c-12.1,0-20.4-7.1-20.4-19.2V368z"/>
		<path d="M1812.3,348.7h10.5l13.4,19.6l13.4-19.6h10.5l-19.5,28.3v16h-8.9v-16L1812.3,348.7z"/>
	</g>
</g>
<line class="st5" x1="758.6" y1="321" x2="1860.2" y2="321"/>
<path class="st6" d="M356.5,265.1c1.6,2.3,3.1,4.7,4.7,7c0.3,0.5,0.6,1,1,1.4c0.1,0.2,0.4,0.3,0.5,0.4c0.1-0.2,0.2-0.4,0.2-0.6
	c0.2-2.2,0.4-4.3,0.6-6.5c0.2-2.5,0.5-4.9,0.8-7.4c0,0.3,0,0.6,0,0.9c0,4.3,0,8.6,0,12.9c0,0.3,0.2,0.5,0.3,0.8
	c0.2-0.1,0.5-0.2,0.7-0.4c2.2-2.3,4.3-4.5,6.5-6.8c0.1-0.1,0.2-0.2,0.3-0.2c-0.6,0.8-1.2,1.6-1.9,2.4c-1.4,1.8-2.8,3.6-4.2,5.4
	c-0.1,0.2-0.2,0.4-0.2,0.6c0.2,0,0.5,0.1,0.7,0.1c4.2-0.9,8.4-1.9,12.7-2.8c0.2,0,0.4-0.1,0.6,0c-1.3,0.4-2.7,0.9-4,1.3
	c-2.9,0.9-5.9,1.9-8.8,2.8c-0.3,0.1-0.5,0.3-0.7,0.5c0.2,0.2,0.4,0.5,0.7,0.6c2.9,1.4,5.8,2.8,8.8,4.2c0.1,0,0.2,0.1,0.3,0.2
	c-3.5-1.2-6.8-2.5-10.3-3.7c0,0.1-0.1,0.2-0.1,0.2c2.4,4.1,4.8,8.1,7.2,12.2c0,0-0.1,0.1-0.1,0.1c-0.4-0.5-0.8-1.1-1.2-1.6
	c-2.3-3.1-4.5-6.3-6.8-9.4c-0.2-0.3-0.4-0.5-0.8-0.3c-0.5,3.7-1,7.4-1.4,11c0,0-0.1,0-0.1,0c0.1-3.7,0.3-7.5,0.4-11.2
	c-0.1,0-0.2,0-0.2-0.1c-3.2,3.7-6.5,7.3-9.7,11c0,0-0.1-0.1-0.1-0.1c0.8-1.1,1.7-2.3,2.5-3.4c1.9-2.6,3.8-5.1,5.7-7.7
	c0.1-0.1,0.2-0.2,0.2-0.3c0-0.2,0.1-0.4,0-0.5c-0.1-0.1-0.3-0.2-0.5-0.1c-3.2,0.6-6.5,1.2-9.7,1.8c-0.2,0-0.3,0-0.5,0
	c2-0.6,3.9-1.1,5.9-1.7c1.3-0.4,2.6-0.7,3.9-1.1c0.2,0,0.3-0.2,0.5-0.3c-0.1-0.1-0.3-0.3-0.4-0.4c-4.2-1.8-8.4-3.6-12.6-5.5
	c-0.1,0-0.1-0.1-0.2-0.2c1.4,0.5,2.7,0.9,4.1,1.4c3,1,6,2,8.9,2.9c0.2,0.1,0.6,0,0.7-0.1c0.1-0.1,0-0.5-0.1-0.7
	c-1.5-2.9-3.1-5.7-4.6-8.5C356.6,265.5,356.5,265.3,356.5,265.1C356.5,265.2,356.5,265.1,356.5,265.1z"/>
</svg>
