<?xml version="1.0" encoding="utf-8"?>
<!-- Generator: Adobe Illustrator 24.3.0, SVG Export Plug-In . SVG Version: 6.00 Build 0)  -->
<svg version="1.1" id="Layer_1" xmlns="http://www.w3.org/2000/svg" xmlns:xlink="http://www.w3.org/1999/xlink" x="0px" y="0px"
	 viewBox="0 0 781.7 179.4" style="enable-background:new 0 0 781.7 179.4;" xml:space="preserve">
<style type="text/css">
	.st0{fill:#2C2C2C;}
	.st1{fill:#D8E162;}
</style>
<g>
	<path class="st0" d="M440.9,17.7c7.8,0,15.3,0,23.3,0c0,26,0,52,0,78.9c1.6-1.3,2.6-1.8,3.3-2.6c12.4-12.6,24.6-25.3,37.1-37.7
		c1.9-1.8,5-3.2,7.6-3.3c7.7-0.4,15.5-0.2,23.8-0.2c-17.6,17.8-34.7,34.9-52,52.4c18.9,16.8,37.6,33.3,57.3,50.9
		c-11.2,0-21,0.2-30.8-0.2c-2-0.1-4-2.6-5.8-4.2c-12.6-11.4-25.1-22.8-37.6-34.2c-0.6-0.5-1.3-1-2.6-1.9c0,13.8,0,26.8,0,40.2
		c-8,0-15.6,0-23.7,0C440.9,110,440.9,64.1,440.9,17.7z"/>
	<path class="st0" d="M301,158.8c-32.9-0.3-52.8-24.6-51.2-57.8c0.9-17.9,7.1-33.2,22.7-43.1c26.8-17.1,75.1-8.5,79.5,38.9
		c0.8,9.2,0,19-2.6,27.9C343.1,146.4,324.2,159,301,158.8z M329.2,104.3c-0.4-3.4-0.7-6.9-1.3-10.3c-2.3-13.1-11.8-22.3-23.6-22.8
		c-15.5-0.7-25.4,6.2-29.1,20.5c-2.2,8.4-2.2,16.9,0,25.3c3.7,14,13.5,21.2,28.1,20.5c13-0.6,22.4-9.2,24.7-22.8
		C328.5,111.3,328.7,107.8,329.2,104.3z"/>
	<path class="st0" d="M623.8,53.2c8.3,0,15.8,0,23.8,0c0,2.2,0,4.1,0,5.9c0,14.9-0.1,29.7-0.1,44.6c0,3.8,0.1,7.7,0.3,11.5
		c0.9,14.2,8.6,22.2,21.7,22.8c13.9,0.6,24.8-7.4,26.4-20.8c1.2-9.7,1-19.5,1.1-29.3c0.2-11.2,0.1-22.4,0.2-33.6
		c0-0.3,0.3-0.6,0.6-1.2c7.3,0,14.8,0,22.6,0c0,34.1,0,68.1,0,102.5c-7.5,0-14.9,0-22.9,0c0-8.3,0-16.7,0-25.2
		c-0.4-0.1-0.7-0.2-1.1-0.3c-0.7,1.6-1.4,3.1-2,4.7c-7.8,19.2-26.6,28.5-46.1,22.2c-15.3-4.9-21.5-17.3-23.4-31.9
		c-1.4-11.2-1.1-22.6-1.2-34C623.7,78.7,623.8,66.1,623.8,53.2z"/>
	<path class="st1" d="M86.5,116c1.6-2.1,2.9-3.7,4.1-5.4c9.4-14,22.5-22.2,39.2-24.3c4.3-0.6,5.5-2.2,5.5-6.3
		c-0.2-19.6-0.1-39.1-0.1-58.7c0-1.9-0.3-4.2,0.6-5.6c1.1-1.8,3.6-4.1,5.1-3.9c2,0.3,3.8,2.7,5.5,4.4c0.5,0.5,0.2,1.7,0.2,2.6
		c0,25.5,0.5,51-0.2,76.5c-0.9,37.9-28,62.5-65.8,60.8c-21.5-1-45.8-20.8-51.5-42.5c-1.4-5.2-2.3-10.6-2.4-16
		c-0.3-25.7-0.1-51.4-0.1-77.1c0-1.7-0.4-3.9,0.5-5.1c1.3-1.7,3.6-3.8,5.3-3.7c1.7,0.1,3.6,2.5,4.8,4.3c0.7,1,0.3,2.7,0.3,4.1
		c0.2,19.9,0.5,39.8,0.6,59.8c0,4,1,5.8,5.4,6.3c17.7,2.3,31.2,11.5,40.6,26.6C84.7,113.7,85.4,114.5,86.5,116z M92.9,142.8
		c0.8,0.3,1.1,0.5,1.4,0.5c18.3-0.5,40.7-24.3,40.3-42.7c-0.1-3.4-2.2-3.9-4.6-2.9c-6.6,2.6-13.9,4.4-19.4,8.5
		C98.6,115.1,91.9,127.4,92.9,142.8z M80,142.4c2.2-25-23.4-46.5-41.2-44.2C36.8,117.9,61.4,144.5,80,142.4z"/>
	<path class="st0" d="M248.9,72.1c-10.7,0-21,0-31.9,0c0,28,0,55.7,0,83.7c-8.2,0-15.8,0-24.1,0c0-27.6,0-55.3,0-83.6
		c-5.2,0-9.8,0-14.7,0c0-6.5,0-12.4,0-18.9c4.6,0,9.2,0,13.9,0c0.6-5.4,0.8-10.3,1.8-15c3.4-16.4,15.4-26.2,33.4-26.9
		c6.1-0.3,12.2,0.5,18.2,1.2c1.3,0.2,3.3,2.1,3.4,3.4c0.4,5.2,0.2,10.4,0.2,15.1c-5.8,0-11.1-0.2-16.4,0
		c-12.5,0.6-18.7,8.5-16.5,21.7c10.7,0,21.5,0,32.6,0C248.9,59.4,248.9,65.4,248.9,72.1z"/>
	<path class="st0" d="M580.7,53c11,0,21.8,0,32.9,0c0,6.5,0,12.5,0,19.1c-10.4,0-20.8,0-31.9,0c0,28.2,0,55.9,0,83.8
		c-8.3,0-15.9,0-23.9,0c0-27.8,0-55.3,0-83.5c-5,0-9.6,0-14.5,0c0-6.6,0-12.6,0-19.1c4.6,0,9,0,13.9,0c0.4-4.2,0.5-7.9,1.1-11.6
		c3.2-19.1,14.4-29.2,33.7-30.2c6.1-0.3,12.2,0.5,18.2,1.2c1.3,0.1,3.2,2.2,3.3,3.4c0.4,5.2,0.2,10.4,0.2,15.9
		c-5.1-0.3-9.7-0.9-14.3-0.8C585.7,31.3,579.7,38.1,580.7,53z"/>
	<path class="st0" d="M757.6,155.9c-7.9,0-15.4,0-23.2,0c0-46,0-91.8,0-138c7.6,0,15.2,0,23.2,0C757.6,63.7,757.6,109.5,757.6,155.9
		z"/>
	<path class="st0" d="M363.6,155.8c0-33.6,0-66.6,0-99.6c0-0.8,0.1-1.7,0.2-2.9c7.8,0,15.3,0,23.4,0c0,9.5,0,18.8,0,28.2
		c4-8.4,7.8-16.5,15.5-22.2c8-5.9,17-6.8,26.8-6.2c0,7.2,0,14.4,0,21.7c-6.8,0.5-13.6,0.6-20.3,1.6c-13.5,2.1-20.9,10.1-21.3,23.7
		c-0.5,16.4-0.3,32.8-0.4,49.2c0,2.1,0,4.1,0,6.5C379.4,155.8,371.8,155.8,363.6,155.8z"/>
	<path class="st1" d="M86.4,76.6c-9.8,7.1-17.7,7.7-25.4,2.3c-4.2-3-6.7-7.1-6.8-12.4c-0.3-15.4-0.5-30.7-0.7-46.1
		c0-1.2-0.4-2.8,0.2-3.6c1.6-2,3.4-4.8,5.5-5.1c3.2-0.5,5.4,2.1,5.5,5.6c0.1,4,0.1,8,0.1,12.1c0,9.3,0,18.5,0,27.8
		c0,2.6-0.2,5.6,0.9,7.7c1.3,2.5,3.9,5.8,6,5.9c2.6,0.1,5.7-2.4,7.7-4.6c1.3-1.4,1.1-4.3,1.1-6.5c0.1-12.8,0-25.5,0.1-38.3
		c0-1.7-0.3-3.8,0.5-5.1c1.3-1.9,3.7-4.7,5.1-4.4c2.1,0.4,5,2.8,5.5,4.9c0.9,3.8,0.4,8,0.4,12c0,10-0.2,19.9-0.2,29.9
		c0,1.9,0.2,3.8,0.7,5.7c1.1,4.4,4.9,7.5,8.6,6.8c4.4-0.9,6.4-3.9,6.4-8.3c0.1-13.6,0.2-27.3,0.3-40.9c0-1.7,0-3.5,0.2-5.2
		c0.4-3.1,2-5.3,5.5-5.1c3.5,0.2,5.4,2.2,5.5,5.7c0.1,3,0.1,5.9,0.1,8.9c0,12.2-0.1,24.5,0,36.7c0.1,7.9-2.9,13.9-10,17.6
		c-7.3,3.8-14.1,2.8-20.6-2.1C88.1,77.6,87.3,77.2,86.4,76.6z"/>
</g>
</svg>
