<?xml version="1.0" encoding="utf-8"?>
<!-- Generator: Adobe Illustrator 24.3.0, SVG Export Plug-In . SVG Version: 6.00 Build 0)  -->
<svg version="1.1" id="Layer_1" xmlns="http://www.w3.org/2000/svg" xmlns:xlink="http://www.w3.org/1999/xlink" x="0px" y="0px"
	 viewBox="0 0 781.7 179.4" style="enable-background:new 0 0 781.7 179.4;" xml:space="preserve">
<style type="text/css">
	.st0{fill:#EF4129;}
</style>
<g>
	<path class="st0" d="M87.1,127.2c11.1,0,20.9,0,30.7,0c5.7,0,9.1-2.6,9.2-6.9c0.1-4.4-3.2-7.1-9-7.1c-11.3,0-22.7-0.1-34,0.1
		c-3.1,0.1-5-0.7-5.7-3.9c-1.2-5.5-2.6-10.9-4-17.1c6,0,11.1,0.1,16.2,0c5.5-0.1,9-3.1,8.9-7.4c-0.1-4-3.6-6.7-8.9-6.8
		c-5.1,0-10.2,0-15.9,0c3.8-28.4,17.7-49.1,42.7-61.2C169.2-8.2,228.5,31.6,225.7,89c-0.9,18.2-7.6,33.9-19.8,47.3
		c-2.4,2.7-2.8,4.3,0,6.9c4,3.5,7.7,7.4,11.3,11.3c1.3,1.3,2,3.2,3,4.8c-2,0.6-3.9,1.6-5.9,1.6c-11.7,0.2-23.3,0.2-35,0.1
		c-12.8-0.1-25.7,0.4-38.4-0.9C118.5,157.8,101.1,146.4,87.1,127.2z M155.5,84C155.5,84,155.5,84,155.5,84c-7.8,0-15.6,0-23.4,0.1
		c-4.8,0-8.3,2.9-8.3,6.7c-0.1,3.9,3.3,7.2,8,7.2c15.5,0.1,30.9,0.2,46.4,0c5,0,7.9-3,7.9-7.2c0-4.3-2.9-6.8-8-6.8
		C170.4,83.9,163,84,155.5,84z M127.4,59.6C127.4,59.6,127.4,59.6,127.4,59.6c4.3,0,8.6,0.1,12.9-0.1c4.1-0.2,7.3-3.4,7-6.9
		c-0.4-4.2-2.8-6.7-7.2-6.8c-8.5-0.1-16.9-0.1-25.4,0c-4.3,0.1-6.8,2.6-7.2,6.7c-0.4,3.8,2.9,6.9,7.4,7
		C119.1,59.7,123.2,59.6,127.4,59.6z"/>
	<path d="M330.4,115.2c3,5.1,5.8,9.7,9.1,15.2c-5.1,0-9.6,0.5-13.8-0.2c-1.8-0.3-3.5-3.1-4.6-5.2c-1.7-3.3-3.7-4.2-7.5-3.4
		c-20.4,4.2-40.6-7.9-46.6-27.6c-6.2-20.1,3.3-41.1,22.3-49.4c18.6-8.1,41.6-1.3,52,15.4c10.8,17.4,6.9,40.1-9.2,53.6
		C331.6,114.1,331.1,114.6,330.4,115.2z M322.6,103.4c11-9,13.3-25.5,5.8-37.2c-7.1-10.9-21.8-14.8-34-9
		c-12.1,5.8-17.9,20.7-13.2,34c4.5,12.8,16.6,20.1,29.8,17.3c-3.6-6.2-7.1-12.2-10.5-17.9C312.9,86.3,318.9,92.9,322.6,103.4z"/>
	<path d="M582.3,42.1c1,0.3,1.8,1.3,1.9,2.3c0.1,1.2-0.7,2.3-1.9,2.7c-5,2.2-11.6,4.7-13.7,6.5c-2.1,1.9-1.6,6.6-2.5,10.8
		c5.4,0,9.6,0,14.1,0c0,2.8,0,5,0,7.8c-4.2,0-8.4,0-13.3,0c0,16.4,0,32.3,0,48.6c-2.8,0-5.1,0-7.9,0c0-15.8,0-31.7,0-48.3
		c-4.1,0-7.7,0-11.6,0c0-2.7,0-4.8,0-8.5c-7.6,8.3-14.3,15.5-21.1,22.9c7.1,11.2,14,22.3,21.6,34.3c-5.3,0-9.8,0.2-14.3-0.1
		c-1.2-0.1-2.6-1.8-3.5-3c-4.7-7.2-9.3-14.5-14.8-23.1c-2.6,4.7-5.6,8.1-6.6,12.1c-1.1,4.2-0.2,8.9-0.2,13.8c-4.6,0-8.9,0-13.6,0
		c0-26.4,0-52.6,0-79.2c4.3,0,8.6,0,13.5,0c0,14.4,0,28.9,0,42.6c6.1-5.6,12.5-11.1,18.5-17c2.3-2.3,4.5-3.4,7.8-3.3
		c7.8,0.2,15.6,0.1,24,0.1c0-7.5,0.5-15.2,8.3-19.6C571.6,41.8,576.4,40.5,582.3,42.1z"/>
	<path d="M353.6,64.2c4.8,0,8.9,0,13.7,0c0,8.1,0,16,0,24c0,3,0,6,0,9c0.1,7.9,4,12.3,11.1,12.4c7.3,0.1,11.9-4.5,11.9-12.3
		c0.1-10,0-20,0-30c0-0.8,0.1-1.6,0.2-2.8c4.5,0,8.8,0,13.5,0c0,18.8,0,37.5,0,56.5c-4.3,0-8.4,0-12.6,0c-0.1-1.6-0.3-3-0.3-3.5
		c-5.1,1.6-10.3,4.4-15.7,4.7c-12,0.8-20.9-6.7-21.6-18.6C353,90.6,353.6,77.6,353.6,64.2z"/>
	<path d="M770.2,120.9c-2.5,0-4.8,0-7.4,0c-0.1-2.5-0.3-4.7-0.4-7.9c-6.2,6.6-13.3,9.7-21.9,9.2c-8.5-0.5-15.4-4-20.5-10.8
		c-9-12.1-7.6-30.5,3-40.7c10.5-10.1,25.9-9.8,39.4,1.4c0-10.5,0-20.5,0-30.7c2.9,0,5.2,0,7.8,0C770.2,67.9,770.2,94.1,770.2,120.9z
		 M762.6,92.7c-0.1-12-9.2-21.5-20.4-21.4c-11.1,0.1-19.6,9.5-19.6,21.5c0,12.3,8.6,21.6,20,21.6
		C753.8,114.4,762.7,104.8,762.6,92.7z"/>
	<path d="M488.5,105.5c-4.9,12.3-17.8,19-31.2,16.6c-14.7-2.7-24.6-14.6-24.7-29.6c0-14.7,9.6-26.6,23.7-29.2
		c14.4-2.7,27.2,3.6,32.2,16.2c-3.8,1.7-7.7,3.4-11.4,5.1c-6.9-8.7-12.4-11.1-19.6-8.5c-6.9,2.5-10.4,8.6-10.2,17.6
		c0.2,7.3,4.5,13.5,10.7,15.3c7.5,2.2,12.9-0.3,19-8.8C480.7,101.9,484.5,103.6,488.5,105.5z"/>
	<path d="M613.8,63.3c16.6,0,28.4,12.4,28.3,29.5c-0.1,16.7-12.7,29.5-28.8,29.4c-16.4-0.1-28.8-13.1-28.7-30.1
		C584.8,75.5,597.1,63.3,613.8,63.3z M633.6,92.7c0-12.2-8.6-21.4-20.1-21.4c-11.5,0-20.1,9.2-20.2,21.4c0,12,8.9,21.6,20.2,21.6
		C624.6,114.4,633.5,104.8,633.6,92.7z"/>
	<path d="M706.6,92.9c0,16.8-12.3,29.4-28.6,29.3c-16.4-0.1-28.5-12.9-28.4-30.2c0-16.7,12.3-28.9,29-28.8
		C695.2,63.4,706.6,75.5,706.6,92.9z M678.6,71.3c-11.6-0.1-20.5,9-20.7,21c-0.2,12.2,9,22.1,20.4,22c11.2,0,20.3-9.8,20.2-21.7
		C698.4,80.8,689.6,71.3,678.6,71.3z"/>
	<path d="M412.9,120.8c0-18.8,0-37.4,0-56.4c4.4,0,8.8,0,13.4,0c0,18.8,0,37.4,0,56.4C422,120.8,417.8,120.8,412.9,120.8z"/>
	<path class="st0" d="M40.4,114.4c7.3,0,14.7,0.1,22-0.1c3.6-0.1,5.4,1,5,4.8c-0.1,1.5-0.1,3,0,4.5c0.2,2.9-1.2,4.3-4.1,4.3
		c-15.1,0-30.3,0-45.4,0c-3.1,0-4.5-1.6-4.3-4.7c0.1-1.3,0.1-2.7,0-4c-0.3-3.7,1.2-5.1,4.9-5C25.8,114.5,33.1,114.4,40.4,114.4z"/>
	<path class="st0" d="M63.8,152.3c-4.8,0-9.6-0.1-14.4,0c-3.7,0.1-5.1-1.5-4.8-5.1c0.1-1.5-0.5-3.2,0.1-4.4c0.8-1.6,2.4-3.8,3.8-3.8
		c10.1-0.3,20.3-0.2,30.4-0.2c3.4,0,4.8,1.5,4.5,4.9c-0.1,1.5-0.1,3,0,4.5c0.2,2.9-1.1,4.2-4.1,4.2C74.1,152.2,69,152.3,63.8,152.3z
		"/>
	<path class="st0" d="M43.5,92c-1.7,0-3.3,0-5,0c-7.8,0-7.6,0-7.8-7.6c-0.1-4.4,1.2-6.5,5.9-6.1c5,0.3,10,0.2,14.9,0
		c3.3-0.1,5.1,1.1,4.8,4.6c-0.1,1.3-0.1,2.7,0,4c0.3,3.5-1.2,5.3-4.9,5.1C48.8,91.9,46.2,92,43.5,92z"/>
	<path d="M413,43c4.3,0,8.5,0,13.2,0c0,4.5,0,9.1,0,14c-4.2,0-8.5,0-13.2,0C413,52.4,413,47.9,413,43z"/>
</g>
</svg>
