<?xml version="1.0" encoding="utf-8"?>
<!-- Generator: Adobe Illustrator 24.3.0, SVG Export Plug-In . SVG Version: 6.00 Build 0)  -->
<svg version="1.1" id="Layer_1" xmlns="http://www.w3.org/2000/svg" xmlns:xlink="http://www.w3.org/1999/xlink" x="0px" y="0px"
	 viewBox="0 0 781.7 179.4" style="enable-background:new 0 0 781.7 179.4;" xml:space="preserve">
<style type="text/css">
	.st0{fill:#020202;}
	.st1{fill:#010101;}
	.st2{fill:#E02629;}
</style>
<g>
	<path class="st0" d="M305.2,131.4c-39-0.2-71.1-28.8-75.4-67.4c-0.7-6.3,1.4-8.7,7.8-8.8c1.5,0,3.1,0,4.6,0c10,0,10,0,12.3,10
		c5.4,23.5,21.8,38.5,45.8,41.9c11.5,1.6,15.9-3.1,13.5-14.6c-1.8-8.5-4.6-16.7-3.9-25.6c1.8-21.7,19.7-35.3,41.5-31.4
		c18.5,3.3,30.9,23.7,26.1,42.9C369.7,109.3,339.3,131.6,305.2,131.4z"/>
	<path class="st1" d="M160.8,46.1c9.9-6.1,20-8.4,30.9-5.8c17,4,27.4,16.4,27.9,33.9c0.4,15.9,0.1,31.9,0.1,47.8
		c0,0.9,0.2,1.9-0.1,2.6c-4.3,8.7-12.3,4.1-18.6,4.8c-4.4,0.5-7.2-2.2-7.2-7.2c0.1-14.2,0-28.4-0.1-42.6c-0.1-11.4-6.1-18-16.2-17.8
		c-10,0.1-16.5,7-16.6,17.8c-0.1,13.3,0,26.6,0,40c0,8.8-1.2,9.9-9.6,10c-16,0.1-16,0.1-16.1-16.3c0-31,0-62-0.1-93
		c0-5.7,1.6-9.1,8-10.3c20.4-3.9,17.9-3.4,17.8,14.5C160.8,31.4,160.8,38.4,160.8,46.1z"/>
	<path class="st1" d="M413,48.8c13.5-11.3,28-12.4,42.9-5.4c11.1,5.2,17.3,14.9,18,26.9c0.9,17.4,0.5,34.9,0.5,52.4
		c0,1.1,0,2.4-0.6,3.1c-5.5,6.6-12.9,3.5-19.5,3.3c-5.1-0.1-5.5-4.5-5.5-8.7c0.1-12.9,0.2-25.8,0-38.6c-0.1-12-4.1-17.9-12.9-19.8
		c-9.6-2.1-19.1,4.2-19.6,14.1c-0.7,14.4-0.3,28.8-0.4,43.2c-0.1,8.8-1.4,10.1-10.3,10.3c-15.6,0.2-15.6,0.2-15.6-15.3
		c0-21.6,0-43.2,0.1-64.8c0-7.3,1.5-8.8,8.8-8.8C405,40.7,412.2,38.8,413,48.8z"/>
	<path class="st0" d="M700.4,95.1c6.1-15.2,11.7-29.3,17.3-43.4c4.2-10.5,11.4-14.3,21.8-10.8c5.1,1.7,5.3,5.6,3.4,10.1
		c-9,20.5-17.9,41-26.8,61.5c-4.3,10-8.5,20-13.2,29.8c-8.1,16.8-24.9,23.8-40.6,17.2c-6.7-2.8-7.5-5.8-4.5-15
		c1.9-5.7,5.4-6.3,10.7-4.7c7.1,2.2,10.2,0.2,13.7-6.2c4.2-7.6,5-14.3,0.7-22.8c-9.7-19.2-17.9-39.1-26.7-58.8
		c-3.4-7.5-1.1-11.4,6.9-11.4c18.5-0.1,15.1-1.2,21.5,14.3C689.8,67.9,694.8,80.9,700.4,95.1z"/>
	<path class="st0" d="M613.3,47.7c8.9-8.4,19.3-10.2,30.8-7.1c4.7,1.3,6.3,4.2,5.4,8.8c-0.4,2.1-0.9,4.2-1.5,6.3
		c-2,7.1-4.2,8.4-11.4,6.9c-12.5-2.6-20.7,3.8-21,16.9c-0.3,13.7-0.3,27.5,0,41.2c0.1,6.2-2.6,8.7-8.6,8.7c-17,0.1-17.9,1-17.6-16.8
		c0.3-20.3,0-40.6,0.1-60.9c0-4.5-0.8-9.7,5.3-11.1C604.5,38.6,610.3,40.8,613.3,47.7z"/>
	<g>
		<path class="st1" d="M570.7,41.2c-5.3-0.7-12-3-15.6,2.7c-2.1,3.3-3.3,2.8-5.7,1.3c-8.1-5.1-17-6.4-26.3-5.8
			c-21.7,1.4-38.4,19.6-38.4,41.8c0.1,21.7,17.1,39.5,38.6,40.9c9.8,0.6,18.9-1.4,27.5-6.4c1.3,17.4-6.3,25.8-22.8,25.7
			c-9.1-0.1-16.9-3.5-23.6-9.6c-5.9-5.4-9-5.5-13.3-0.9c-6.9,7.3-7,10.4-0.9,16.4c13.7,13.3,30.5,16.3,48.5,13.5
			c24-3.7,36.3-18.8,36.4-43.2c0.1-22.5,0-45,0-67.4C575.1,46.3,575.3,41.8,570.7,41.2z M531.1,102.4c-13.1,0.1-21.8-8.3-21.9-21.5
			c-0.1-12.5,8.8-21.7,21.1-21.7c12.3-0.1,21.9,9,22.2,21C552.8,92.7,543.7,102.2,531.1,102.4z"/>
	</g>
	<path class="st2" d="M333.5,70.4c-0.6-4.8,1.3-9,6.4-11c3.8-1.5,7.6-1.4,11,1.4c4.6,3.7,5.1,8.9,3.4,13.6
		c-2.4,6.9-6.1,13.4-11.8,18.4c-2.3,1.9-4.3,2.9-5-1C336.4,84.9,333.2,78.3,333.5,70.4z"/>
	<g>
		<path class="st1" d="M105.5,104.8c-1.1,0.7-2.1,1.6-3.2,2.2c-14.8,8.6-31.7,4.2-37.5-10.3c5.2,0.4,10.1,0.8,15.1,1
			c10.8,0.5,21.4-0.8,31-6.1c16.8-9.1,19.2-30.1,4.6-42.6c-10-8.6-22.2-10.5-34.9-9.7C41.5,41.8,26.8,81,42.1,108.8
			c9.8,17.8,32.4,26.7,53.8,21.9c8.8-2,17.3-4.6,24-11c2.2-2.1,4.8-4.2,3.9-7.7C121.7,103.8,112.5,100.3,105.5,104.8z M62.9,79.2
			c-1.6-3.5,1.3-7.4,3.4-10.7c5.7-8.7,18.5-12.1,27.6-7.4c4.2,2.2,6.5,5.7,6.5,10.4c0,4.8-3.2,7.3-7.4,8.9c-5.4,2-11.1,1.4-18.7,1.1
			c0.6,0-0.7,0-2-0.1C69.1,81.2,64.3,82.3,62.9,79.2z"/>
	</g>
</g>
</svg>
