<?xml version="1.0" encoding="utf-8"?>
<!-- Generator: Adobe Illustrator 24.3.0, SVG Export Plug-In . SVG Version: 6.00 Build 0)  -->
<svg version="1.1" id="Layer_1" xmlns="http://www.w3.org/2000/svg" xmlns:xlink="http://www.w3.org/1999/xlink" x="0px" y="0px"
	 viewBox="0 0 222.6 179.4" style="enable-background:new 0 0 222.6 179.4;" xml:space="preserve">
<style type="text/css">
	.st0{fill:#CE4338;}
	.st1{fill:#010101;}
	.st2{fill:#CF4338;}
	.st3{fill:#030404;}
	.st4{fill:#030202;}
	.st5{fill:#050505;}
	.st6{fill:#060606;}
	.st7{fill:#050303;}
	.st8{fill:#CF4439;}
	.st9{fill:#070707;}
	.st10{fill:#D0443A;}
	.st11{fill:#CF4539;}
	.st12{fill:#080808;}
	.st13{fill:#D0473C;}
	.st14{fill:#D1473C;}
	.st15{fill:#0E0F0F;}
	.st16{fill:#FFFFFF;}
</style>
<g>
	<path class="st0" d="M121.3,73.2c1.1-1.5,1.4-3.2,1.7-5c0.1-1-0.2-1.1-1.1-1.1c-2.4,0.2-4.8,0.5-7.2,0.2c-3.3-0.5-5.6-2.8-5.4-5.8
		c0.1-1.4,0.7-2.5,1.5-3.7c2-2.9,4.7-5.3,7.3-7.7c2.3-2,4.4-4.2,6.8-6.2c-1.5,0.1-3,0.3-4.5,0.4c-1.3,0.2-2.7,0.2-4,0.1
		c-2.6-0.3-3.7-2.2-2.6-4.6c0.4-1,1-1.9,1.7-2.7c2.3-2.6,3.2-6.1,5.4-8.9c0.4-0.5-0.1-0.7-0.4-1c-2.7-2.9-3.3-6.5-1.7-10.1
		c0.5-1,1.1-1.8,2.2-2.4c0.9-0.4,1.7-0.8,2.5-1.4c0.8-0.6,1.3-1.4,2-2.2c-0.1,1.4-0.7,2.4-1.5,3.3c-2.7,3.2-2.6,6.2,0.3,9.2
		c0.4,0.4,0.8,0.8,1.3,1.2c2.2,1.9,2.6,4.2,1.1,6.7c-1,1.8-2.5,3.1-4.2,4.8c2-0.2,3.6-0.4,5.2-0.7c2.1-0.3,4.3-0.7,6.4-1
		c1-0.2,2.1-0.2,3.1,0.1c2,0.6,2.8,2.5,1.7,4.2c-0.2,0.4-0.5,0.8-0.8,1.1c-4.3,4.4-8,9.4-12.8,13.4c-1.9,1.6-3.3,3.6-4.9,5.7
		c2.6-0.3,5-0.8,7.4-0.6c2.1,0.1,3.6,1.3,4.1,3.2c0.3,1.3-0.2,2.4-0.8,3.4c-1.2,2.3-2.1,4.7-2.2,7.4c0.4,1.6,0,3-0.8,4.3
		c-0.5,0.8-1.2,1.5-1.9,2.4c1.3,0.2,2.6,0.1,3.8,0.2c10.8,1.2,19.2,10.1,20.5,20.8c1,8.1-1.1,15.3-6.9,21.1
		c-5.3,5.3-11.9,7.3-19.3,6.6c-11.7-1.1-19.9-10.6-20.9-21.2c-0.2-1.9-0.3-3.8,0-5.7c0.1-0.8-0.1-1.3-1-1.6
		c-2.9-0.9-3.9-2.5-3.4-5.5c0.2-1,0.1-1.8-1-2.2c-0.6-0.3-1.2-0.5-1.8-0.8c-1.7-0.8-2.6-2.2-2.8-4c-0.1-0.5-0.1-1.1-0.1-1.6
		c0.2-2.1,0-4.1-2.1-5.3c-0.3-0.2-0.5-0.7-0.7-1c-0.3-0.6-0.2-1.1,0.3-1.6c0.5-0.4,1.1-0.5,1.5-0.2c0.9,0.7,2,0.9,3.1,1.3
		c2,0.8,3,2.5,2.9,4.6c-0.2,2.5,0.1,2.9,2.5,3.3c3-0.3,5.5,1.7,5.4,4.4c0,0.6-0.3,1.1-0.5,1.7c0.6-1.6,1.6-3,2.7-4.4
		c0.9-1.1,0.8-1.5-0.3-2.4c-1-0.8-2.1-1.5-3.3-2c-0.5-0.2-1-0.3-1.4-0.8c-1-0.6-2-1.1-2.9-1.8c-3-2.2-3.9-5-2.8-8.6
		c0.3-0.9,0.6-1.7,0.9-2.7c-1.4,0.2-2.6,0.7-3.8,1.1c-1.6,0.5-3.3,0.9-5,1c-4.6,0.4-7.1-2.9-5.4-7.2c0.8-1.9,2.1-3.5,3.3-5.1
		c3.1-3.9,6.7-7.2,10.2-10.7c0.3-0.3,0.7-0.5,0.9-1.1c-2.6,0.2-5.1,0.7-7.7,0.2c-2.2-0.4-3.1-2.1-2-4.1c1-1.7,2.5-2.9,4-4.1
		c1.3-1,2.7-1.9,3.8-3.1c0,0-0.1-0.1-0.1-0.1c-3.8-3-4-4.6-1.1-8.4c1.9-2.4,3-5.3,4.4-8c0.1-0.2,0.3-0.5,0.5-1.1
		c0.3,3.2-0.2,5.9-0.8,8.6c-0.2,0.8-0.5,1.7-0.8,2.5c-0.3,0.7-0.2,1.2,0.5,1.7c0.7,0.4,1.3,0.9,1.9,1.5c1.5,1.4,1.7,2.8,0.7,4.6
		c-0.4,0.7-0.9,1.3-1.4,2.1c1.4-0.3,2.6-0.6,3.9-0.9c0.8-0.2,1.6-0.2,2.5-0.2c3.2,0.2,4.9,3,3.6,5.9c-0.8,1.9-2.2,3.4-3.6,4.9
		c-3,3.2-6.6,5.7-9.8,8.7c-1.5,1.4-2.9,2.9-4.2,4.9c1.8-0.5,3.2-0.8,4.7-1.2c1.7-0.4,3.3-0.8,5.1-0.7c2.1,0.1,3,1,3.1,3.1
		c0.1,2-0.1,4-0.7,5.9c-0.2,0.8-0.4,1.6-0.6,2.4c-0.5,2.1-0.4,2.3,1.5,3.2c1,0.5,1.9,1,3,1.3c2.2,0.3,3.7,1.5,5.1,3.2
		c0.4,0.4,0.6,1.4,1.4,0.9c0.9-0.5,2.3-0.4,2.4-2C118.4,77.3,119.4,75.1,121.3,73.2z"/>
	<path class="st1" d="M98,91.9c1.6-0.1,1.6,0,1.4,1.4c-0.1,0.3-0.2,0.6-0.2,1c-0.5,2.6,0.6,4.4,3.2,4.9c1.3,0.2,1.3,0.9,1.2,1.8
		c-0.6,4.9,0.1,9.5,2.3,13.9c3.7,7.5,9.8,11.8,18.2,12.9c11.8,1.5,23.5-5.9,25.9-19.4c2.3-13.2-5.3-25.7-18.7-28.3
		c-1.8-0.4-3.7-0.4-6-0.3c2.1-2.2,3.7-4.3,3.6-7.1c14.8,0.9,26.7,11.6,28.9,26.3c2.5,16.2-7.6,32-24,35.4
		c-18.9,3.9-34.1-7.7-37.6-24.6C95,103.7,95.7,97.7,98,91.9z"/>
	<path class="st2" d="M78.7,15.2c0.1,3.9-1.4,6.7-3.2,9.2c-3.7,4.9-8.6,8.5-14.1,11.1c-1,0.5-2,0.7-3.2,0.6
		c-1.3-0.1-2.5-1.2-2.9-2.3c-0.3-1.1,0.2-2.3,1.4-3.1c0.7-0.5,1.6-0.8,2.4-1.1c4.7-1.6,8.5-4.4,11.6-8.2c0.9-1.2,1.7-2.5,2.1-4
		c0.6-2.4-0.8-4-3.2-3.8c-6.3,0.6-17.4,6.9-19.3,17c-0.6,3.1,0.5,5.7,1.8,8.4c1.9,3.8,4.6,7.1,7,10.5c1.1,1.6,2.1,3.2,2.9,4.9
		c2.5,5,1.7,10.1-2.6,13.7c-6.5,5.5-13.9,6.7-21.8,3.7c-4.6-1.7-7.3-5.3-7.4-10.3c-0.2-5.3,3.5-10.4,9.7-10c1.2,0.1,2,0.7,2.4,1.9
		c0.4,1.1,0.1,2.2-0.9,2.9c-0.6,0.4-1.2,0.7-1.9,1c-3.7,1.9-3.9,6.5-0.4,8.7c2.4,1.5,5.1,1.7,7.8,1.4c3.1-0.4,5.8-1.5,8-3.8
		c2-2,2.4-4.6,1.1-7.1c-2.2-4.2-5-8.1-7.6-12c-1.7-2.6-3.4-5.2-4-8.3c-1.1-5,0-9.7,2.9-14c4.7-7.1,11.3-11.8,19.7-13.9
		c1.8-0.5,3.7-0.5,5.6-0.2C76.4,9,78.7,11.7,78.7,15.2z"/>
	<path class="st1" d="M27.1,116.4c0.9,1.4,1.9,2.8,3.2,4c3.5,3.3,8.6,3.7,12,0.9c3.8-3.1,3.5-9.1-0.5-11.9c-2.3-1.5-4.8-2.4-7.3-3.4
		c-3.2-1.3-6.3-2.7-8.6-5.4c-6.9-7.9-2.5-20.9,7.7-23.2c7.4-1.7,14.2,0.8,18.5,6.8c0.5,0.7,0.5,1.1-0.1,1.6
		c-1.4,1.4-2.8,2.8-4.3,4.3c-1.4-2.1-3-3.9-5.1-5c-2.5-1.4-5.1-1.8-7.8-0.7c-4.9,1.9-6,8.4-2,11.7c2,1.7,4.4,2.5,6.7,3.5
		c1.9,0.8,3.8,1.5,5.6,2.4c5.6,2.9,8.3,8.2,7.7,14.6c-0.6,5.9-4.8,11.1-10.5,12.9c-7.7,2.3-15.7-0.6-20.5-7.3
		c-0.5-0.6-0.1-0.9,0.2-1.2C23.6,119.6,25.4,118,27.1,116.4z"/>
	<path class="st1" d="M180.9,107.6c0,6.9,0,13.7,0,20.6c0,1-0.2,1.3-1.2,1.2c-1.8-0.2-3.6-0.1-5.4,0c-0.9,0-1.2-0.2-1.2-1.2
		c0-13.7,0-27.4,0.1-41.1c0-1.2-0.3-1.4-1.4-1.4c-3.8,0.1-7.7,0-11.5,0c-0.8,0-1.1-0.1-1-1c0.1-1.7,0.1-3.5,0.1-5.3c0-0.8,0.2-1,1-1
		c6,0,12,0,17.9,0c4.8,0,9.6,0,14.4,0c0.8,0,1.1,0.2,1,1c-0.1,1.8-0.1,3.6,0,5.4c0,0.7-0.2,0.9-0.9,0.9c-3.6,0-7.3,0-10.9,0
		c-0.8,0-1,0.2-1,1C181,93.7,180.9,100.7,180.9,107.6z"/>
	<path class="st2" d="M66.9,69c0.2-2.8,1.1-5.8,2.2-8.7c2.1-5.6,4.5-11.1,7.7-16.2c0.5-0.8,1.1-1.7,1.9-2.3c1-0.7,2.1-0.7,3,0
		c0.9,0.8,1,1.6,0.4,2.8c-3.5,6.9-7,13.8-8.8,21.4c-0.3,1.3-0.5,2.6-0.9,3.9c-0.5,2-1.5,3-3.1,2.8C67.8,72.6,66.9,71.2,66.9,69z"/>
	<path class="st3" d="M121.3,149.3c0.6-1.4,1.2-2.6,1.8-3.8c0.2-0.4,0.5-0.8,0.7-1.2c0.3-0.4,0.7-0.6,1.2-0.4
		c0.5,0.2,0.4,0.6,0.4,1.1c-0.3,2.5,0.2,5,0.9,7.4c0.1,0.3,0.2,0.6,0.3,0.8c0.2,0.4,0.4,0.8,0.8,0.8c0.5,0,0.8-0.4,1-0.8
		c0.8-1.7,1.2-3.5,1.3-5.3c0.1-1.5,0.1-3.1-0.4-4.6c-0.4-1-0.6-2.2-2.1-1.2c-0.2,0.1-0.6,0.1-0.7-0.3c-0.1-0.4,0-0.6,0.3-0.9
		c1-0.9,2.4-0.7,3.2,0.6c0.7,1.1,1.1,2.3,1.2,3.6c0.1,2.6-0.3,5.2-1.2,7.7c-0.4,1.2-1,2.5-2.5,2.4c-1.5,0-2-1.3-2.4-2.5
		c-0.7-1.9-1-3.9-1.1-5.9c-0.5,0-0.5,0.4-0.6,0.7c-1,2.2-1.9,4.5-2.2,7c-0.1,0.5-0.2,1.1-1,1c-0.7-0.1-0.5-0.7-0.5-1.2
		c0-2.9,0.3-5.8-0.2-8.6c-0.1-0.4-0.1-0.9-0.4-1c-0.4-0.1-0.6,0.4-0.8,0.7c-0.4,0.5-0.7,1.1-1.1,1.7c-0.2,0.3-0.6,0.5-1,0.3
		c-0.4-0.3-0.4-0.6-0.2-1c0.6-1.1,1.4-2.1,2.4-2.8c0.8-0.5,1.5-0.2,2,0.6c0.5,0.9,0.5,2,0.6,3C121.2,147.9,121.2,148.5,121.3,149.3z
		"/>
	<path class="st2" d="M54.7,139c0.8-0.1,1.5,0.2,1.8,1.1c0.4,1,0.4,2-0.2,3c-0.2,0.4-0.6,0.4-1,0.2c-0.4-0.2-0.6-0.6-0.6-1
		c0-1.7-0.3-1.8-1.6-0.9c-1.7,1.1-3.3,2.5-4.4,4.2c-0.6,1-0.5,1.4,0.6,1.7c1.4,0.4,2.9,0.6,4.2,1c2.8,0.8,3.5,3.2,1.5,5.4
		c-1.2,1.4-2.7,2.3-4.6,2.1c-2.1-0.2-3.3-1.9-2.7-3.6c0.2-0.5,0.4-0.9,0.9-0.8c0.5,0.1,0.7,0.6,0.6,1.1c-0.3,1.1,0.4,1.3,1.2,1.4
		c1.4,0,2.6-0.6,3.4-1.7c0.8-1,0.5-1.8-0.8-2.1c-1.6-0.4-3.2-0.7-4.7-1.1c-1.8-0.5-2.3-1.3-1.9-3.1C47.4,142.8,51.9,139,54.7,139z"
		/>
	<path class="st2" d="M79.5,35.3c0.4-2.8,1.7-5,4.1-6.5c1.1-0.7,2.4-0.6,3.4,0.1c1,0.8,1.3,2,1,3.2c-0.5,2.4-1.8,4.4-3.8,5.8
		c-1.1,0.8-2.3,0.9-3.4,0.3C79.7,37.7,79.5,36.6,79.5,35.3z"/>
	<path class="st4" d="M121.3,73.2c-0.4,0.6-0.8,1.3-1.2,1.9c-1,1.5-1.5,3.2-1.5,4.9c0,0.9-0.3,1.4-1.1,1.6c-0.7,0.2-1.5,1-2.1,0.9
		c-0.7-0.1-1-1.1-1.5-1.7c-1.2-1.4-2.8-2.1-4.5-2.9C113,75.4,116.9,73.8,121.3,73.2z"/>
	<path class="st5" d="M143.7,149.4c-0.7,1.3-1,2.4-1.7,3.4c-0.3,0.4-0.6,0.9-1.1,1.1c-0.8,0.3-1.4,0.3-1.6-0.7
		c-0.1-0.3-0.2-0.7-0.1-1c0.2-2,0.6-3.9,1.3-5.7c0.2-0.5,0.4-1.1,1.2-0.8c0.7,0.3,0.4,0.8,0.2,1.3c-0.8,1.7-1.3,3.5-1.3,5.4
		c1.2-1.8,2.5-3.6,2.6-5.8c0-0.5-0.1-1.1,0.6-1.2c0.7-0.1,0.8,0.5,0.9,1.1c0.3,2.6,1.1,5.1,0.5,7.8c-0.4,1.6-0.8,3.2-1.8,4.5
		c-0.9,1.1-2.1,1.6-3.4,1.2c-1.4-0.4-2.2-1.5-2.6-2.8c-0.1-0.4-0.2-0.9,0.3-1.1c0.6-0.2,0.6,0.4,0.7,0.8c0.4,1,0.8,1.9,2,2
		c1.2,0.1,1.9-0.7,2.4-1.6C144.1,154.9,144.1,152.3,143.7,149.4z"/>
	<path class="st2" d="M64.9,152.8c1-0.2,1.9-0.5,2.9-0.7c1-0.2,1.9-0.1,2.8,0.4c0.6,0.3,0.8,0.8,0.8,1.4c0,0.3,0,0.7-0.4,0.8
		c-0.3,0.1-0.7,0-0.9-0.3c-0.3-1.1-1.2-0.8-1.9-0.7c-1.3,0.3-2.5,0.8-3.8,1.2c-0.6,0.2-1.2,0.6-1.7-0.1c-0.5-0.7-0.8-1.6-0.1-2.4
		c1.2-1.4,2.6-2.6,4-3.8c0.5-0.4,1-0.8,1.7-1.4c-1.4-0.1-2.6,0.3-3.7,0.6c-0.7,0.2-1.2,0.1-1.4-0.5c-0.3-0.8,0.2-1.3,0.9-1.4
		c1.9-0.3,3.9-0.6,5.8-0.4c1.1,0.1,1.4,1.1,0.7,2c-0.7,0.9-1.6,1.5-2.5,2.3c-1.1,0.9-2.2,1.9-3.3,2.8
		C64.8,152.7,64.9,152.7,64.9,152.8z"/>
	<path class="st2" d="M78.4,147.3c-1.4-0.1-2.5,0.3-3.7,0.6c-0.7,0.2-1.2,0.1-1.4-0.5c-0.3-0.8,0.3-1.3,0.9-1.4
		c1.9-0.3,3.9-0.7,5.8-0.4c1.1,0.1,1.4,1.1,0.7,1.9c-0.7,0.8-1.5,1.4-2.3,2.1c-1.2,1-2.3,2-3.4,3.2c1-0.2,2-0.5,2.9-0.7
		c1-0.2,1.9-0.1,2.8,0.4c0.6,0.4,0.9,0.9,0.9,1.6c0,0.3-0.1,0.6-0.4,0.7c-0.3,0.1-0.8,0-0.9-0.3c-0.4-1.2-1.4-0.8-2.1-0.6
		c-1.3,0.3-2.5,0.8-3.7,1.1c-0.5,0.2-1.2,0.6-1.6-0.1c-0.4-0.7-0.8-1.4-0.3-2.2c0.6-0.8,1.3-1.5,2.1-2.2
		C75.8,149.5,77,148.4,78.4,147.3z"/>
	<path class="st2" d="M94.8,148c0.4-0.5,0.8-1,1.1-1.5c0.4-0.6,1-0.9,1.7-0.7c0.7,0.2,1,0.8,1.1,1.4c0.2,1.2,0.3,2.5,0.4,3.7
		c0,0.4,0.1,0.8,0.2,1.2c0.1,0.4,0,1,0.9,0.7c0.7-0.2,0.9,0.4,0.6,1.1c-0.4,0.9-1.7,1-2.4,0.1c-0.7-0.8-0.9-1.9-1-2.9
		c-0.1-1.1-0.2-2.1-0.4-3.5c-1.3,1.9-2.3,3.7-3,5.6c-0.1,0.3-0.2,0.6-0.3,0.8c-0.2,0.6-0.4,1.2-1.2,1c-0.8-0.2-0.6-0.8-0.6-1.4
		c0.3-2,0.5-4,0.7-6c0.1-0.7,0-1.7,1.1-1.6c1,0.1,0.8,1,0.8,1.7C94.7,147.8,94.8,147.8,94.8,148z"/>
	<path class="st6" d="M170,143.1c0,3.3,0.3,6.5,0,9.6c1.1-0.2,2.2-0.5,3.2-0.6c1.1-0.1,2.1,0.2,3,1c0.4,0.4,0.5,0.8,0.5,1.4
		c-0.1,0.3-0.3,0.5-0.6,0.5c-0.3,0-0.5,0-0.5-0.4c0-0.8-0.6-0.9-1.2-1c-1.6-0.2-3.1,0.1-4.5,0.7c-0.5,0.2-1.1,0.4-1.6,0.7
		c-0.5,0.2-1,0.6-1.4,0c-0.4-0.6,0.2-1,0.6-1.3c1.1-0.6,1.2-1.7,1.3-2.7c0.1-2.3,0.2-4.6-0.1-6.9c-0.2-1.3,0.4-2.2,1.4-2.3
		c0.9-0.1,2.5,1.2,2.5,2.1c0,0.4,0,0.7-0.4,0.8c-0.3,0.1-0.6,0-0.9-0.3C170.8,144.1,170.7,143.6,170,143.1z"/>
	<path class="st7" d="M103.5,83c2.1,0.8,4.2,1.6,5.7,3.5c0.2,0.2,0.7,0.5,0.3,0.9c-1.7,1.9-3,4.1-4.1,6.5c-0.2-0.9,0.2-1.3,0.4-1.9
		c0.7-2.2-0.1-3.9-2.2-4.7c-0.8-0.3-1.7-0.5-2.6-0.8C101.6,85.3,102.7,84.3,103.5,83z"/>
	<path class="st5" d="M24.5,142.8c0.1,1.4-0.4,2.8-0.5,4.3c-0.1,2,0.1,4,0.4,6c0.1,0.5,0.2,1.1,0.9,1.2c0.4,0.1,0.5,0.3,0.4,0.7
		c-0.1,0.4-0.5,0.5-0.8,0.4c-1.1-0.1-1.4-1-1.7-1.8c-0.6-1.9-0.6-3.8-0.5-5.7c0.1-1.5,0.2-3,0.3-4.6c-1.1,0.3-2,1-2.9,1.4
		c-0.5,0.2-1.1,0.6-1.5-0.1c-0.3-0.7,0.3-1,0.8-1.2c2.6-1.3,5.2-2.3,8.1-1.9c0.8,0.1,1.6,0.3,1.8,1.2c0.2,0.6,0,1.3-0.6,1.4
		c-0.8,0.2-0.6-0.4-0.5-0.9c0.1-0.4-0.4-0.5-0.7-0.5C26.4,142.6,25.5,142.5,24.5,142.8z"/>
	<path class="st5" d="M35.2,153.9c-1,1-1.7,0.8-2.2-0.4c-0.4-1.2-0.5-2.4-0.6-3.7c0-0.4,0.1-0.8-0.4-1.2c-1.2,1.7-1.7,3.6-2.1,5.5
		c-0.1,0.5,0,1.2-0.8,1.1c-0.7-0.1-0.5-0.8-0.5-1.2c-0.2-3.6,0.4-7.2,1.1-10.7c0.1-0.6,0.1-1.7,1.1-1.5c0.9,0.2,0.3,1.1,0.2,1.7
		c-0.4,1.8-0.8,3.7-0.9,5.8c0.5-0.7,0.8-1.2,1.2-1.7c0.8-0.9,1.7-0.7,2.1,0.4c0.4,1.1,0.5,2.4,0.5,3.6c0,0.8,0.1,1.6,1.2,1.5
		C35.4,153.5,35.3,153.7,35.2,153.9z"/>
	<path class="st8" d="M82.7,149c0.1-2.7,0.1-5.5,0.7-8.2c0.1-0.6,0.1-1.5,1.1-1.3c1,0.2,0.7,1.1,0.6,1.7c-0.6,3.3-0.7,6.7-0.6,10.1
		c0,0.6,0.1,1.2,0.3,1.7c0.1,0.5,0.2,1.1,1,0.8c0.4-0.2,0.7,0.2,0.8,0.6c0.2,0.5-0.1,0.7-0.5,0.9c-0.8,0.5-1.7,0.3-2.4-0.6
		c-0.7-1-0.9-2.1-1-3.3C82.6,150.6,82.7,149.8,82.7,149z"/>
	<path class="st9" d="M158.4,150.8c-0.6,0-1.1,0.8-1.5,0c-0.3-0.7,0.3-1.1,0.8-1.3c0.5-0.2,0.7-0.6,0.7-1.1c0.1-1.1,0.3-2.2,0.4-3.3
		c0.1-0.7,0.4-1.4,0.7-2.1c0.5-0.9,1.2-1.4,2.3-1.1c0.8,0.2,1.4,1.7,1.2,2.5c-0.1,0.3-0.2,0.7-0.6,0.7c-0.4,0-0.4-0.4-0.5-0.7
		c-0.2-0.6-0.1-1.5-0.8-1.4c-0.6,0-0.7,0.9-0.9,1.5c-0.2,0.8-0.4,1.6-0.4,2.5c0,0.8-0.5,1.9,1.1,1.7c0.3,0,0.6,0.4,0.7,0.8
		c0.1,0.3,0,0.5-0.1,0.7c-0.2,0.3-0.4,0-0.6-0.1c-1.1-0.5-1.4-0.4-1.3,0.8c0,1.1,0.1,2.2,0.2,3.2c0,0.6-0.1,1.2-0.8,1.2
		c-0.7,0-0.7-0.6-0.7-1.1C158.4,153,158.4,152,158.4,150.8z"/>
	<path class="st5" d="M180.3,150.8c-0.5,0-1.1,0.7-1.4-0.1c-0.3-0.7,0.3-1,0.8-1.2c0.7-0.3,0.9-0.7,0.9-1.5c0.1-1.8,0.2-3.6,1.1-5.2
		c0.5-0.9,1.2-1.4,2.3-1.1c0.8,0.2,1.4,1.6,1.2,2.5c-0.1,0.3-0.1,0.7-0.5,0.7c-0.4,0-0.4-0.3-0.5-0.6c-0.1-0.6-0.1-1.5-0.8-1.5
		c-0.7,0-0.8,0.9-0.9,1.5c-0.2,0.8-0.3,1.7-0.4,2.6c-0.1,0.8-0.5,1.8,1,1.6c0.4,0,0.7,0.3,0.8,0.8c0.1,0.2,0.1,0.5-0.1,0.7
		c-0.2,0.2-0.5,0.1-0.6-0.1c-0.3-0.4-0.7-0.4-1.1-0.2c-0.5,0.3-0.3,0.7-0.3,1.1c0.1,1.1,0.1,2.2,0.2,3.4c0,0.5-0.1,0.9-0.6,0.9
		c-0.6,0-0.7-0.4-0.7-0.9C180.4,153.1,180.5,152,180.3,150.8z"/>
	<path class="st10" d="M57.5,150.5c0-1.3,0.2-2.6,0.6-3.8c0.2-0.6,0.5-1.3,1.3-1c0.8,0.2,0.7,0.9,0.5,1.6c-0.6,1.9-0.8,3.7-0.4,5.7
		c0.1,0.4,0,1.2,0.9,0.6c0.3-0.2,0.5,0.1,0.7,0.3c0.2,0.4,0.1,0.7-0.1,1c-0.6,0.8-1.8,0.7-2.4-0.3C57.6,153.3,57.5,151.9,57.5,150.5
		z"/>
	<path class="st11" d="M87.2,150.6c0.2-1.3,0.2-2.7,0.6-4c0.2-0.6,0.5-1.2,1.2-1c0.8,0.2,0.8,0.9,0.6,1.5c-0.6,1.9-0.9,3.8-0.4,5.8
		c0.1,0.3,0.1,1,0.7,0.6c0.4-0.2,0.6-0.1,0.8,0.2c0.2,0.4,0.2,0.7-0.1,1c-0.6,0.8-1.9,0.7-2.5-0.3C87.4,153.3,87.3,152,87.2,150.6z"
		/>
	<path class="st2" d="M190.6,148.8c0.1-1.6,0.2-3.5,0.7-5.3c0.1-0.4,0.2-1.1,0.9-0.9c0.7,0.2,0.6,0.8,0.4,1.3
		c-0.6,2.1-0.7,4.3-0.6,6.4c0,0.6,0.2,1.1,0.6,1.6c0.2,0.3,0.5,0.5,0.2,0.8c-0.3,0.3-0.7,0.1-1-0.2c-0.8-0.7-1-1.7-1.1-2.7
		C190.6,149.6,190.6,149.3,190.6,148.8z"/>
	<path class="st12" d="M176.4,151c0.1-0.9,0.2-1.8,0.4-2.7c0.1-0.6,0.2-1.5,1.1-1.3c0.9,0.2,0.4,1,0.3,1.6c-0.3,1.4-0.6,2.8-0.2,4.2
		c0.1,0.5,0,1.2,0.9,0.7c0.2-0.1,0.4,0.1,0.4,0.3c0.1,0.3,0,0.5-0.1,0.7c-0.5,0.7-1.4,0.6-1.9-0.3
		C176.6,153.3,176.4,152.2,176.4,151z"/>
	<path class="st13" d="M60.1,142.5c0,0.7-0.3,1-1,1c-0.6,0-0.9-0.4-0.9-1c0-0.6,0.2-1.1,0.9-1.1C59.9,141.5,60.1,141.9,60.1,142.5z"
		/>
	<path class="st14" d="M89.8,142.5c-0.1,0.6-0.3,1-1,1c-0.6,0-0.9-0.4-0.9-1c0-0.6,0.2-1.1,0.9-1.1
		C89.6,141.4,89.8,141.9,89.8,142.5z"/>
	<path class="st2" d="M192,155.2c-0.5,0-0.8-0.2-0.8-0.7c0-0.6,0.3-0.7,0.8-0.7c0.4,0,0.8,0.1,0.9,0.7
		C192.9,154.9,192.4,155.1,192,155.2z"/>
	<path class="st15" d="M177.9,145.1c-0.5,0-0.8-0.3-0.8-0.8c0-0.4,0.2-0.8,0.7-0.8c0.5,0,0.6,0.3,0.7,0.7
		C178.5,144.7,178.4,145.1,177.9,145.1z"/>
	<path class="st16" d="M123.2,27.7c-4.7-4.2-5.2-9.9-1.1-12.4c-2.2,3.8-1.8,6.2,1.3,9.4c0.3,0.3,0.6,0.6,0.9,0.9
		c2.3,2,2.4,3.6,0.7,6.1c-0.9,1.3-2,2.3-3.2,3.4c-0.6,0.6-1.2,1.1-1.8,1.7c-0.3,0.3-0.9,0.6-0.6,1.1c0.2,0.4,0.8,0.2,1.2,0.2
		c2.8-0.4,5.6-0.8,8.4-1.1c2-0.3,4-0.9,6.1-0.9c0.6,0,1.2,0,1.7,0.1c1.1,0.3,1.5,1.2,0.9,2.2c-0.2,0.4-0.6,0.7-0.9,1.1
		c-4.5,5.1-9.1,10.1-14.1,14.8c-2.1,2-3.7,4.4-5.5,6.9c3-0.4,5.8-0.7,8.6-1.1c0.3,0,0.7-0.1,1-0.1c3.4-0.1,4.7,2.1,3,4.9
		c-1.7,2.7-2.3,5.7-2.5,8.8c-0.1,1.3-0.5,2.3-1.4,3.1c-1.7,1.6-2.1,3.4-1.7,5.7c0.9,5.8,1.5,11.6,2.2,17.4c0,0.3,0,0.7,0,1.4
		c-0.5-1.4-1-2.4-1.4-3.5c-1.8-4.9-3.8-9.7-4.9-14.8c-0.6-2.9-0.2-5.6,1.6-8c1.7-2.3,2.6-4.9,2.6-7.8c0-1.1-0.4-1.5-1.5-1.5
		c-2.3,0.1-4.6,0.2-6.9,0.3c-1.1,0-2.2-0.3-3.2-0.8c-2.1-1.1-2.8-3.2-1.7-5.3c1.3-2.4,3.2-4.4,5.2-6.2c3.8-3.7,7.9-7.1,11.9-10.5
		c0.4-0.3,0.8-0.6,1-1.2c-3.4,0.4-6.7,0.7-10,1.1c-1,0.1-2.1,0.2-3.1-0.1c-1.2-0.3-1.6-1-1.2-2.1c0.3-0.9,0.7-1.6,1.3-2.3
		c1.6-2,2.9-4.3,4-6.6C121,30.3,122,28.9,123.2,27.7z"/>
	<path class="st16" d="M102.9,46.1c-3.4,0.5-6.5,1-9.7,1c-1,0-2.4,0.3-2.9-0.9c-0.5-1.3,0.6-2.1,1.4-2.9c2-2,4.5-3.6,6.7-5.4
		c0.8-0.7,0.8-1.1,0-1.6c-0.6-0.4-1.2-0.8-1.7-1.3c-1.6-1.4-1.8-2.6-0.8-4.4c0.8-1.3,1.7-2.6,2.5-3.9c0.6-1.2,1.1-2.4,1.7-3.6
		c-0.4,2.6-1,5.1-2.2,7.4c-0.5,1-0.3,1.8,0.5,2.4c0.6,0.5,1.3,1,1.9,1.6c1.4,1.2,1.5,2.1,0.5,3.7c-1.1,1.7-2.7,3-4.1,4.4
		c-0.4,0.3-0.8,0.6-1,1.2c1.3-0.1,2.5-0.6,3.6-1.1c1.9-0.8,3.9-1.3,5.9-1.7c0.6-0.1,1.2-0.2,1.7-0.2c2.5,0,3.7,2,2.7,4.2
		c-1,2.1-2.6,3.9-4.3,5.5c-2.9,2.6-5.9,5.1-8.9,7.8c-2.2,1.9-4,4.1-5.2,6.8c-0.1,0.3-0.2,0.5-0.4,1c2.3-0.6,4.5-1.3,6.7-1.8
		c1.8-0.5,3.6-0.9,5.4-0.9c1.5,0,1.8,0.4,2,1.8c0.2,2.1-0.2,4.2-0.8,6.2c-0.3,1-0.6,2.1-0.7,3.2c-0.2,1.3,0.3,2.1,1.3,2.7
		c1.3,0.9,2.8,1.5,4.3,2c2.6,0.9,4.3,2.6,5.5,4.9c2.8,5.4,5.7,10.8,8.5,16.2c0.1,0.2,0.4,0.4,0.2,0.8c-1.3-1.6-2.6-3.1-3.8-4.6
		c-2.9-3.4-5.8-6.8-8.6-10.3c-1.6-2-3.7-3.3-6-4.2c-1-0.4-2-0.9-2.9-1.5c-3-2.1-3.8-4.4-2.7-7.8c0.4-1.2,0.8-2.4,1.3-3.6
		c0.4-0.9,0-1-0.8-0.8c-2,0.6-4.1,1.2-6.1,1.8c-1.6,0.5-3.2,0.8-4.9,0.7c-2.5-0.2-3.7-1.9-3.2-4.3c0.3-1.2,0.8-2.2,1.5-3.2
		c2.5-3.8,5.7-7,8.9-10.1C98.2,50.9,100.6,48.8,102.9,46.1z"/>
	<path class="st16" d="M92,78.8c1,0.4,2,0.8,3,1.1c1.4,0.5,2.2,1.6,1.9,3c-0.6,3.9,1.2,4.6,4.2,5.2c0.2,0,0.3,0.1,0.5,0.1
		c3.2,0.8,3.6,1.5,2.4,4.5c-0.5,1.2-0.1,2,1.1,2.5c1.2,0.4,2.4,0.4,3.7,0c2.7-1.1,4.9-0.4,6.2,2.3c0.7,1.5,2.3,2.4,3.9,3.7
		c-2.3-0.7-4.3-1.3-6.3-2c-2.3-0.8-4.7-1.3-7.1-1.1c-0.4,0-0.8,0-1.1,0c-3.5-0.1-4.3-1.1-3.7-4.5c0.4-2.3,0.2-2.6-2.2-3.1
		c-2.7-0.5-3.9-1.9-3.9-4.7c0-0.5,0-1.1,0-1.6c0.1-1.8-0.3-3.5-2-4.6C92.4,79.5,92.1,79.3,92,78.8z"/>
	<g>
		<path class="st1" d="M76.7,78.6c-5.1-0.4-10.3-0.1-15.4-0.2c-1,0-1.3,0.2-1.3,1.3c0,8,0,16,0,24.1c0,8.1,0,16.3,0,24.4
			c0,0.9,0.2,1.2,1.2,1.2c1.8-0.1,3.6-0.1,5.4,0c1,0.1,1.1-0.2,1.1-1c0-5.8,0-11.6,0-17.4c0-1.7,0-1.7,1.7-1.6
			c3.8,0.2,7.6,0,11.2-1.2c9.9-3.1,14.1-14.2,8.7-22.9C86.4,80.6,81.8,79,76.7,78.6z M78.3,101.6c-3.2,1.1-6.5,1-9.9,0.7
			c-0.7-0.1-0.8-0.4-0.8-1.1c0-2.5,0-5,0-7.5c0-2.5,0-4.9,0-7.4c0-0.8,0.1-1.1,1-1.1c3,0.2,6.1-0.3,9.1,0.5c3.9,1.1,5.8,3.5,5.9,7.6
			C83.8,97.4,81.9,100.3,78.3,101.6z"/>
		<path class="st2" d="M154.1,54.2c-1.1-0.5-2-0.1-2.7,0.7c-0.3,0.3-0.5,0.8-0.8,1.1c-1,1.9-2,3.7-3.3,5.5c-0.8,1.1-1.6,2.2-2.8,2.8
			c-1.1,0.6-1.7,0.2-1.5-1c0.6-4.3,1.5-8.3,5-11.6c8.2-7.5,14.6-16.4,19.7-26.2c1.8-3.4,3.5-7,3.8-10.9c0.2-1.9-0.3-3.6-1.9-4.8
			c-1.6-1.2-3.4-1-5.1-0.1c-0.9,0.5-1.7,1-2.5,1.7c-2.2,1.9-3.9,4.2-5.5,6.6c-7.5,11.2-12.9,23.3-17,36.1c-1.1,3.5-2.2,7-2.3,10.7
			c0,0.7-0.1,1.3,0,2c0.4,2.8,2.8,4.7,5.6,4.3c1.3-0.2,2.5-0.8,3.5-1.6c3.8-3.2,6.4-7.3,8.4-11.8c0.2-0.4,0.2-0.8,0.3-1.2
			C155.2,55.6,155.1,54.7,154.1,54.2z M152.6,35.2c2.6-5.4,5.2-10.8,8.8-15.7c0.9-1.2,1.8-2.4,3-3.3c0.3-0.2,0.7-0.5,1.1-0.3
			c0.5,0.3,0.4,0.8,0.3,1.2c-0.6,2.9-1.9,5.6-3.3,8.2c-3.6,6.6-7.6,13-12.8,18.5c-0.3,0.3-0.6,0.6-0.9,0.8
			C149.7,41.3,151.1,38.3,152.6,35.2z"/>
		<path class="st2" d="M182.7,54.7c-0.8-0.4-1.4-0.1-2,0.5c-2.2,2.2-4.3,4.4-6.6,6.6c-2,1.9-4.3,3.3-7.2,3.5
			c-2.1,0.2-3.8-0.8-4.4-2.5c-0.2-0.7-0.1-1,0.6-1.2c5.1-1.7,8.9-5.1,11.9-9.5c1.3-1.9,2.2-4,2.5-6.3c0.4-3.4-2.1-5.7-5.5-5.2
			c-1.5,0.2-2.9,0.9-4.1,1.7c-2.2,1.4-4,3.3-5.7,5.3c-3.5,4.2-5.9,8.9-5.9,14.5c0,0.4,0,0.8,0,1.1c0.2,4,2.6,7.2,6.3,8
			c2.3,0.5,4.6,0.2,6.7-0.8c5.4-2.4,9.6-6.2,13.1-11c0.6-0.8,1-1.7,1.1-2.6C183.8,55.9,183.5,55.2,182.7,54.7z M170.1,47.2
			c0.1-0.1,0.3-0.2,0.4-0.3c0.5-0.2,1-0.6,1.5-0.1c0.4,0.4,0.2,0.9,0,1.4c-1.7,3.9-4.6,6.6-8.5,8.3
			C164.9,52.9,166.9,49.6,170.1,47.2z"/>
	</g>
	<g>
		<path class="st5" d="M189.6,150.1c-0.6-0.3-0.6,0.3-0.8,0.6c-0.7,1.1-1.5,2.1-2.7,2.7c-0.3,0.1-0.7,0.2-0.9-0.1
			c-0.4-0.6-0.2-1.2,0-1.8c0.1-0.2-0.1-0.4,0.4-0.4c2-0.1,3.4-1.6,3.5-3.7c0-0.6,0-1.2-0.6-1.5c-0.6-0.3-1.1,0-1.5,0.3
			c-1.8,1.6-2.9,3.6-3.3,6c0,1,0.1,1.9,1.1,2.4c0.9,0.5,1.8,0.2,2.6-0.3c1.2-0.7,2-1.8,2.4-3.1C189.9,150.8,190.2,150.4,189.6,150.1
			z M187.8,147.3c-0.2,1.2-0.7,2.1-2,2.8C186.3,148.8,187,148,187.8,147.3z"/>
	</g>
	<g>
		<path class="st2" d="M109.8,146.7c0.4-1,0.2-2.1-0.7-2.7c-0.8-0.7-1.7-0.2-2.5,0.4c-0.2,0.2-0.5,0.4-0.7,0.6
			c-1.4,1.5-2.6,3.2-3.5,5c-0.4,0.8-0.6,1.6-0.6,2.5c0.1,1.7,1.4,2.4,2.9,1.5c0.9-0.5,1.5-1.3,2-2.2c0.5-0.8,1-1.6,1.7-2.7
			c0.3,2.2,0.3,4.2,0.1,6.1c-0.2,1.5-0.5,3-1.4,4.2c-1.1,1.5-2.5,1.5-3.5-0.1c-0.4-0.6-0.5-1.2-0.6-1.9c0-0.5-0.1-1-0.8-0.9
			c-0.5,0.1-0.6,0.5-0.6,0.9c-0.2,1.8,1.2,4.1,2.9,4.7c1.6,0.6,3-0.2,4.2-2.1c0.2-0.4,0.4-0.7,0.6-1.1c1.5-3.6,1.5-7.3,0.5-11
			C109.7,147.5,109.7,147.2,109.8,146.7z M107.5,148.1c-1.2,1.5-2.1,3.2-3.8,4.4c0.6-2.8,2.2-5.1,4.4-7.2
			C108.4,146.5,108.1,147.3,107.5,148.1z"/>
		<path class="st5" d="M137.1,152.9c0-1.9,0.4-3.6,0.6-5.2c0.1-0.7,0.1-1.3-0.5-1.8c-0.6-0.4-1.2-0.1-1.6,0.3
			c-2.3,1.8-3.9,4.1-4.6,6.9c-0.2,0.7-0.2,1.4,0.5,1.8c0.7,0.4,1.3-0.1,1.8-0.4c1-0.6,1.5-1.7,2.6-2.5c-0.1,0.6,0.1,1,0.3,1.4
			c0.5,0.8,1.5,0.9,2.1,0.3c0.3-0.4,0.6-0.8,0.2-1.2C138,151.9,137.7,152.4,137.1,152.9z M132.2,153.7c0.7-2.6,2.2-4.5,4.1-6.3
			C136.1,150.3,134.1,152,132.2,153.7z"/>
		<path class="st5" d="M41.3,150.1c-0.6-0.3-0.6,0.3-0.8,0.7c-0.7,1.1-1.5,2.1-2.7,2.7c-0.4,0.2-1,0.3-1-0.4c0-0.6-0.2-1.8,0.5-1.8
			c2.4,0.1,2.9-1.7,3.5-3.2c0.3-0.7,0.3-1.5-0.5-2c-0.8-0.5-1.4,0.1-1.9,0.5c-0.5,0.4-0.8,0.9-1.2,1.4c-1.2,1.6-1.7,3.4-1.9,5.4
			c0,0.2,0,0.4,0,0.6c0.1,0,0.2-0.2,0.4,0c1.2,1.1,2,1.2,3.3,0.4c1.2-0.7,2-1.8,2.5-3.1C41.6,150.9,41.8,150.4,41.3,150.1z
			 M39.4,147.3c-0.2,1.2-0.7,2.1-2.1,2.9C38,148.9,38.6,148.1,39.4,147.3z"/>
		<path class="st5" d="M156.4,147.2c-0.3-0.7-0.8-1.1-1.6-1c-1.1,0.3-2.2,0.7-2.7,1.8c-0.6,1.3-1.1,2.6-1,4.4c0,0,0,0.5,0.1,0.9
			c0.3,1.3,1.5,1.8,2.6,1.2C155.7,153.6,157.3,149.2,156.4,147.2z M155.4,148.9c-0.3,1.4-0.8,3-2,4.2c-0.2,0.2-0.4,0.4-0.8,0.4
			c-0.4-0.1-0.3-0.5-0.4-0.7c-0.3-2,0.8-3.6,1.9-5.1c0.2-0.2,0.5-0.5,0.8-0.3C155.4,147.7,155.4,148.3,155.4,148.9z"/>
	</g>
</g>
</svg>
