<?xml version="1.0" encoding="utf-8"?>
<!-- Generator: Adobe Illustrator 24.3.0, SVG Export Plug-In . SVG Version: 6.00 Build 0)  -->
<svg version="1.1" id="Layer_1" xmlns="http://www.w3.org/2000/svg" xmlns:xlink="http://www.w3.org/1999/xlink" x="0px" y="0px"
	 viewBox="0 0 654.6 179.4" style="enable-background:new 0 0 654.6 179.4;" xml:space="preserve">
<style type="text/css">
	.st0{fill:#205D37;}
	.st1{fill:#F5BA3C;}
	.st2{fill:#1B5D38;}
</style>
<g>
	<path class="st0" d="M292.9,20.3c-2.9,6.7-4.8,12.3-7.8,17.3c-1,1.6-4.7,2.3-7.1,2.3c-13.8,0.4-13.9,0.3-13.8,13.9
		c0,23.3,0,46.5,0.2,69.8c0,4.8-1.3,6.6-6.4,6.6c-13.5,0-13.5,0.2-13.5-13.2c0-23.1-0.2-46.1,0.2-69.2c0.1-6.3-2.2-8.1-8.1-7.8
		c-7.2,0.4-14.4,0-21.6,0.1c-3.4,0.1-4.8-1.1-5-4.7c-0.7-15.1-0.8-15.1,14.2-15.1c20.3,0,40.6,0,60.9,0
		C287.1,20.3,289.2,20.3,292.9,20.3z"/>
	<path class="st1" d="M296.4,69.1c6.9,0,12.7,0,18.9,0c0.2,1.3,0.5,2.7,0.5,4.1c0,16.9-0.1,33.8,0.1,50.7c0,4.3-1.4,6-5.8,5.9
		c-16.9-0.2-13.6,1.8-13.9-13.6c-0.3-13.9-0.1-27.9,0-41.9C296.1,72.6,296.3,70.8,296.4,69.1z"/>
	<path class="st1" d="M105.8,41.2c0.3,3.9,0.8,8.5,0.8,13c0,1.8-0.8,3.9-1.8,5.4c-0.5,0.6-3.4,0.5-3.9-0.2c-1-1.5-1.5-3.6-1.4-5.4
		c0-4.4,0.5-8.7,0.8-12.7c-4.9-3.4-11.7,3.5-15.6-5.1c4.2-0.7,8.1-1.1,11.7-2.2c1.5-0.4,2.6-2.3,3.9-3.5c-1.6-0.8-3.2-2.4-4.7-2.3
		c-4.4,0.3-8.7,1.6-13.1,2c-1.9,0.2-4-0.8-6-1.3c0-1,0-2,0-2.9c6.4-1.4,12.9-2.6,19.3-4.2c1.7-0.4,2.9-2.4,4.4-3.7
		c-1.7-0.9-3.4-2.2-5.2-2.5c-2.1-0.3-4.4,0.3-7.3,0.5c3.1-8.6,9.8-6.9,15.2-6.9c5.4,0,12.1-1.9,15.2,6.7c-4.1-0.2-7.6-0.4-11.2-0.7
		c-1.9,4.1-1.5,6.2,3.6,6.8c6.4,0.8,12.7,2.3,19,3.6c0.1,0.9,0.2,1.8,0.3,2.7c-2.1,0.6-4.3,1.9-6.3,1.8c-4.4-0.3-8.7-1.6-13.1-2
		c-1.4-0.1-2.9,1.3-4.3,2c1.3,1.3,2.3,3.2,3.8,3.7c3.5,1.1,7.2,1.5,11.3,2.2C117.4,44.4,111,38.3,105.8,41.2z"/>
	<path class="st1" d="M306.9,20.1c3.1,7.7,6.5,15.3,9.3,23.1c1.8,5.1-0.2,10.2-4.6,12.7c-2.8,1.6-7.5,1.6-10.5,0.3
		c-5-2.1-6.8-7.3-5.3-12.3c2.4-8.1,5.9-15.9,9-23.9C305.4,20.1,306.2,20.1,306.9,20.1z"/>
	<path class="st1" d="M38.4,83.3c0.9-6-6-10.7-1.3-16.7c5.1,5.5,2.5,17.7,14,16.3c-2.5-9.1-4.9-17.7-7-26.4
		c-0.2-0.9,1.1-2.1,1.7-3.1c5.6,12.1,10.8,23.2,16,34.3c-5.1,2.8-33.4,1-37.3-3.8C29.6,83.7,34,83.5,38.4,83.3z"/>
	<path class="st1" d="M166.2,83.1c5.2,0.4,9.6,0.8,14.6,1.2c-3.3,4.1-30.4,6.2-37.2,3.7c5.2-11.1,10.4-22.2,16.2-34.7
		c0.5,2.8,1.8,5.4,1.3,7.4c-2,7.3-4.5,14.3-7,21.9c12.5,1.7,8.9-11.1,16.1-16.8c-0.4,4-0.4,6.5-0.9,9
		C168.6,77.4,167.5,79.8,166.2,83.1z"/>
	<path class="st1" d="M35.5,106c13.4,1,26.3-5,39.5,3.3C64.6,113.2,39.5,111.3,35.5,106z"/>
	<path class="st1" d="M169.4,109.1c-11.8,3.4-24,1.7-37.1,0.6c1.5-1.5,3.1-4.2,4.6-4.3c10.8-0.1,21.6,0.4,32.4,0.7
		C169.3,107,169.4,108.1,169.4,109.1z"/>
	<path class="st1" d="M30.5,94.4c11.2,0,22.5-0.1,33.7,0.1c1.4,0,2.7,1.9,4.1,2.9c-1.5,1-3,2.9-4.4,2.9c-9.9-0.1-19.7-0.4-29.6-0.9
		c-1.4-0.1-2.8-1.4-4.2-2.2C30.2,96.2,30.4,95.3,30.5,94.4z"/>
	<path class="st1" d="M175.4,97.3c-1.4,0.7-2.8,2-4.3,2c-9.6,0.5-19.3,0.9-29,1c-1.5,0-3.1-1.8-4.6-2.7c1.5-1.1,3-3,4.5-3
		c10.9-0.3,21.8-0.1,32.7-0.1C174.9,95.4,175.1,96.3,175.4,97.3z"/>
	<g>
		<g>
			<path class="st0" d="M607.3,20.1c-49.3,0-98.5-0.6-147.8-0.6c-45.3,0-90.5,0.5-135.8,0.8c-1.4,0-2.7,0.5-4.4,0.8
				c0.8,2.1,1.5,3.6,1.9,5.2c2.5,9.9,7.2,16.3,18.9,13.8c3.8-0.8,5.1,1.6,5.1,5.3c-0.2,8.7,0,17.3,0,26c0,19,0,38,0,57.8
				c4.8,0.5,8.8,0.8,12.7,1.4c6,0.9,8.6-1.2,7.9-7.5c-1.4-11.7,0.2-22.5,9.9-31c3.2-2.9,5.2-3.5,8.4-0.8c8.5,7,13.9,15.8,16.4,26.4
				c3,13,3,13,16,12.9c7.3,0,7.9-0.7,6.8-8.2c-2.8-18.9-10.3-35.3-25.5-47.3c-3.6-2.8-3.6-5-0.8-8.2c6.6-7.7,13-15.6,19.6-23.3
				c0.9-1.1,2.3-2.3,3.5-2.4c5.8-0.2,11.7-0.1,17.8-0.1c0.1,2.7,0.3,4.6,0.3,6.5c0,23.1-0.1,46.1-0.1,69.2c0,13.9,0.1,13.5,13.7,14
				c6.8,0.3,8.7-2.3,7.8-8.4c-1.7-11.7,1.1-21.9,9.4-30.7c3.1-3.3,5.5-4,9-1.2c9.3,7.4,15,17.1,17.5,28.6c2.3,10.8,2.2,10.8,13,10.7
				c0.4,0,0.9-0.1,1.3,0c5.4,0.8,7-1.6,6.3-6.9c-2.4-18.8-9.9-34.9-24.8-47c-4.5-3.6-4.6-6.2-0.9-10.2c4.9-5.3,9.9-10.5,13.8-16.5
				c4.8-7.5,10.8-10,19.6-9.5c6.3,0.4,8.3,1.8,8.2,8.3c-0.4,25.4-0.2,50.8,0,76.1c0,1.9,2.1,5.3,3.2,5.3c5.5,0,10.9-0.9,16.3-1.7
				c0.3,0,0.2-2.4,0.2-3.6c0-5.9,0.3-11.9-0.1-17.8c-0.3-4.9,1.2-6.9,6.4-6.7c9.1,0.3,18.2,0.3,27.3,0c5.3-0.2,6.9,2.2,5.9,6.9
				c-1.6,7.5-3.5,15-5.4,23.2c4.3,0,8.7-0.4,13,0.1c6.3,0.8,8.4-2.3,9.8-7.8c6.7-28,1.2-53.2-17.1-75.5c-1.4-1.6-2.6-3.4-5-6.6
				c6.9,0,11.9,0.1,16.9,0c12.8-0.2,11.4,2.1,11.7-12C615.1,22.2,613.6,20.1,607.3,20.1z M367,69.2c-0.4-0.2-0.9-0.4-1.3-0.6
				c0-7.9-0.2-15.9,0.2-23.8c0.1-1.3,2.4-3.4,3.8-3.5c6.5-0.4,13-0.2,21-0.2C382.2,51.2,374.6,60.2,367,69.2z M461.1,69
				c-0.6-0.1-1.1-0.3-1.7-0.4c0-8.1-0.1-16.2,0.1-24.3c0-1,1.6-2.8,2.5-2.9c7.2-0.7,14.4-1.1,21.6-1.6c0.3,0.7,0.7,1.4,1,2.1
				C476.8,50.9,469,60,461.1,69z M582.8,80.1c-8.8,0-17.7,0.2-26.5-0.1c-1.5-0.1-4.3-2-4.3-3.1c-0.3-10.7-0.2-21.4-0.2-33
				c9.8,1.9,16.7,7.2,22.4,13.5c4.6,5,8,11.3,11.7,17.1C588,77.8,587.4,80.1,582.8,80.1z"/>
		</g>
	</g>
	<g>
		<g>
			<path class="st1" d="M138.3,45.7c-2.9,0.6-5.8,1.1-8.7,1.8c-8.5,2.1-12.4,6-13,14.8c-0.6,9.3-0.1,18.6-0.7,27.9
				c-0.1,2.2-2.6,5.8-4.4,6.1c-5.3,1-10.8,0.9-16.2,0.6c-4.4-0.2-6.4-2.8-6.1-7.7c0.4-8.7,0.8-17.4-0.1-26c-0.5-4.4-2.6-10-5.9-12.6
				c-6.8-5.2-15.5-5.4-25.6-6c2.1,7.6,2,15.8,6.1,19.9c4.2,4.2,12.4,4.3,20.2,6.6c0,6.7,0.1,14.7,0,22.7c-0.1,6.7,2.4,11.9,8.2,15.3
				c1.2,0.7,2.1,1.7,3.3,2.6c-6.1,4.6-9.7,5.5-23.6,6.8c-1.7,0.2-3.3,2.1-5,3.2c1.8,0.9,3.6,2.4,5.5,2.5c3.7,0.2,7.4-0.4,11-0.7
				c2.2,11.5,3.4,12.4,14.9,12.4c2.5,0,5.1,0,7.6,0c13.2,0.1,13.4-0.1,16.9-12.4c4.2,0.3,8.4,0.7,12.6,0.6c1.2,0,2.3-1.8,3.5-2.7
				c-1.1-1-2.1-2.4-3.4-2.9c-1.5-0.5-3.4,0.1-5-0.3c-6.8-1.5-13.6-3.1-21.5-5c13.1-12,13.1-12,13.2-28.6c0-1.5,0-3,0-4.4
				c0.1-11.4,0.1-11.7,11.4-11.3c6.2,0.2,9.5-2.6,11-8.2c0.7-2.4,1.3-4.9,1.7-7.4C147.8,44.2,147.5,44,138.3,45.7z M65.9,52.3
				c11.7-0.1,15.6,2.2,17.6,10C71.2,65.8,66.9,63.5,65.9,52.3z M112.1,119.8c2.8,2.1,4.6,4.1,3.3,7c-0.7,1.6-3.6,2.6-5.7,3.1
				c-2.2,0.5-4.6,0.1-6.9,0.1c0,0,0-0.1,0-0.1c-2.9,0-6,0.4-8.8-0.2c-1.6-0.3-3.7-2.1-4-3.5c-0.3-1.6,0.7-4.3,2-5.1
				C98.3,117.1,104.7,114.1,112.1,119.8z M93,102.9c6.5,0,12.6,0,18.3,0C105.8,109.5,103.5,109.6,93,102.9z M122.8,62.8
				c0-7.3,3.7-9.8,16.6-10.9C139.9,63.3,138.4,64.2,122.8,62.8z"/>
		</g>
	</g>
	<g>
		<g>
			<path class="st2" d="M268.5,162.8v-13h3v13H268.5z"/>
			<path class="st2" d="M283.9,162.8v-13h2.5l7.6,9.3h-1.2v-9.3h3v13h-2.5l-7.7-9.3h1.2v9.3H283.9z"/>
			<path class="st2" d="M308.1,162.8v-13h5.9c1.4,0,2.6,0.3,3.7,0.8c1.1,0.5,1.9,1.3,2.5,2.2c0.6,1,0.9,2.1,0.9,3.4
				c0,1.3-0.3,2.4-0.9,3.4c-0.6,1-1.4,1.7-2.5,2.3c-1.1,0.5-2.3,0.8-3.7,0.8H308.1z M311.1,160.3h2.7c0.9,0,1.6-0.2,2.2-0.5
				c0.6-0.3,1.1-0.8,1.5-1.4c0.4-0.6,0.5-1.3,0.5-2.1c0-0.8-0.2-1.5-0.5-2.1c-0.4-0.6-0.8-1.1-1.5-1.4c-0.6-0.3-1.4-0.5-2.2-0.5
				h-2.7V160.3z"/>
			<path class="st2" d="M332.6,162.8v-13h3v13H332.6z"/>
			<path class="st2" d="M346.2,162.8l5.8-13h3l5.8,13h-3.1l-4.7-11.4h1.2l-4.8,11.4H346.2z M349.1,160l0.8-2.3h6.7l0.8,2.3H349.1z"
				/>
			<path class="st2" d="M371.4,162.8v-13h2.5l7.6,9.3h-1.2v-9.3h3v13h-2.5l-7.7-9.3h1.2v9.3H371.4z"/>
			<path class="st2" d="M410.1,162.8v-13h3v13H410.1z M412.8,159.8l-0.2-3.5l6.2-6.5h3.3l-5.6,6l-1.7,1.8L412.8,159.8z M418.9,162.8
				l-4.6-5.6l2-2.1l6.1,7.8H418.9z"/>
			<path class="st2" d="M433,162.8v-13h3v13H433z"/>
			<path class="st2" d="M451,162.8v-10.5h-4.1v-2.4h11.3v2.4H454v10.5H451z"/>
			<path class="st2" d="M475.1,163c-1,0-1.9-0.2-2.8-0.5c-0.9-0.3-1.6-0.8-2.2-1.4c-0.6-0.6-1.1-1.3-1.5-2.1
				c-0.4-0.8-0.5-1.7-0.5-2.7c0-1,0.2-1.9,0.5-2.7c0.4-0.8,0.8-1.5,1.5-2.1c0.6-0.6,1.4-1.1,2.2-1.4c0.9-0.3,1.8-0.5,2.8-0.5
				c1.1,0,2.1,0.2,3,0.6c0.9,0.4,1.7,1,2.3,1.7l-1.9,1.8c-0.4-0.5-0.9-0.9-1.5-1.1c-0.5-0.3-1.1-0.4-1.8-0.4c-0.6,0-1.2,0.1-1.7,0.3
				c-0.5,0.2-0.9,0.5-1.3,0.9c-0.4,0.4-0.7,0.8-0.9,1.3c-0.2,0.5-0.3,1.1-0.3,1.7c0,0.6,0.1,1.2,0.3,1.7c0.2,0.5,0.5,0.9,0.9,1.3
				c0.4,0.4,0.8,0.7,1.3,0.9s1.1,0.3,1.7,0.3c0.6,0,1.2-0.1,1.8-0.4c0.5-0.3,1-0.6,1.5-1.2l1.9,1.8c-0.6,0.8-1.4,1.3-2.3,1.7
				C477.2,162.8,476.2,163,475.1,163z"/>
			<path class="st2" d="M491.5,162.8v-13h3v13H491.5z M494.3,157.5v-2.5h6.3v2.5H494.3z M500.4,162.8v-13h3v13H500.4z"/>
			<path class="st2" d="M515.7,162.8v-13h9.8v2.4h-6.8v8.1h7.1v2.4H515.7z M518.5,157.4V155h6.2v2.3H518.5z"/>
			<path class="st2" d="M537.4,162.8v-13h2.5l7.6,9.3h-1.2v-9.3h3v13h-2.5l-7.7-9.3h1.2v9.3H537.4z"/>
		</g>
	</g>
</g>
</svg>
