<?xml version="1.0" encoding="utf-8"?>
<!-- Generator: Adobe Illustrator 24.3.0, SVG Export Plug-In . SVG Version: 6.00 Build 0)  -->
<svg version="1.1" id="Layer_1" xmlns="http://www.w3.org/2000/svg" xmlns:xlink="http://www.w3.org/1999/xlink" x="0px" y="0px"
	 viewBox="0 0 463 179.4" style="enable-background:new 0 0 463 179.4;" xml:space="preserve">
<style type="text/css">
	.st0{fill:#E7CFAE;}
	.st1{fill:#EF3B24;}
	.st2{fill:#EAA522;}
	.st3{fill:#E1A728;}
	.st4{fill:#DFA627;}
	.st5{fill:#DBA82C;}
	.st6{fill:#DDA729;}
	.st7{fill:#E1A928;}
	.st8{fill:#DFA929;}
	.st9{fill:#DFA829;}
	.st10{fill:#DEA82A;}
	.st11{fill:#E2A828;}
	.st12{fill:#D9AB2E;}
	.st13{fill:#E3A928;}
	.st14{fill:#D9AB2D;}
	.st15{fill:#E6AA26;}
	.st16{fill:#D3A534;}
	.st17{fill:#E0A92A;}
	.st18{fill:#E3A828;}
	.st19{fill:#E2A928;}
	.st20{fill:#E1A828;}
	.st21{fill:#DFA928;}
</style>
<g>
	<path class="st0" d="M29.7,32.5c8.7,2,16.8,3.7,24.8,5.7c2.4,0.6,2.8-0.1,3.4-2.1c2.4-8.2,5.1-16.4,7.5-24.5c0.6-2.1,1.4-3,3.8-2.8
		c3.9,0.3,7.9,0.3,11.8,0c2.8-0.2,2.8,0.8,2.1,3.1c-3,9.3-5.7,18.8-8.7,28.1c-0.8,2.3-0.3,2.8,2,3.3c7,1.5,14,3.1,21,4.8
		c2,0.5,2.6,0.1,3.1-1.8c3.5-11.7,7.2-23.1,10.7-34.8c0.6-2.1,1.3-2.8,3.5-2.7c4.6,0.2,9.3,0.1,14.3,0.1c-2.9,9.6-5.7,18.9-8.7,28.3
		c-1.3,4.3-2.6,8.7-4,12.9c-0.6,1.8-0.6,2.4,1.6,2.8c9.9,2.1,19.6,4.5,29.5,6.6c2.1,0.4,2.2,1.2,1.7,2.9
		c-5.1,17.1-10.2,34.1-15.2,51.2c-0.6,1.9-1.4,2.6-3.3,2.5c-3.9-0.2-7.6-0.2-11.5,0c-2.6,0.1-3.1-0.5-2.3-3.1
		c3.9-12.5,7.4-25,11.1-37.5c0.8-2.5,0.7-3.6-2.3-4c-4.1-0.6-8.1-1.6-12.2-2.7c-2-0.5-2.7-0.3-3.3,1.8c-4.3,14.3-8.8,28.5-13.1,42.8
		c-0.7,2.2-1.5,2.9-3.8,2.8c-3.7-0.2-7.5-0.2-11.1,0c-2.5,0.1-2.9-0.4-2.1-2.9c4.7-15,9.3-30.1,14.1-45c0.9-3.1,0.6-3.9-2.7-4.5
		c-6.5-1.1-12.9-2.8-19.3-4.5c-2.4-0.6-3.3-0.1-4.1,2.4c-5.1,17.1-10.5,34-15.5,51.1c-0.8,2.6-1.8,3.9-4.7,3.5
		c-3.8-0.3-7.6-0.3-11.5-0.1c-2.1,0.1-2.5-0.4-1.9-2.5c5.7-18.4,11.4-36.8,17.1-55.3c0.8-2.6,0.9-3.7-2.3-4.2
		c-5.8-0.9-11.5-2.7-17.2-3.9c-1.6-0.3-2.1-0.9-2-2.5C29.8,42.7,29.7,37.8,29.7,32.5z"/>
	<path class="st1" d="M210,73c3.1-9.9,5.9-19.1,8.8-28.4c3.3-10.9,6.6-21.7,9.9-32.6c0.6-1.8,1.5-2.9,3.8-2.8
		c3.9,0.2,7.6,0.1,11.5,0c2.6-0.1,3,1,2.3,3.3c-3.9,12-7.7,24.1-11.5,36.1c-5,15.7-9.8,31.4-14.7,47.1c-1.9,6-3.9,11.9-5.7,17.9
		c-0.5,1.7-1.5,2.5-3.3,2.5c-3.9-0.1-7.9-0.1-11.8,0c-2.1,0.1-2.7-0.9-2.8-2.8c-2-19.5-4-39-6-58.4c-0.1-0.9-0.3-1.7-0.5-2.8
		c-1.4,0.8-1.5,2-1.8,3c-6.2,19.5-12.3,39.1-18.4,58.6c-0.6,1.8-1.5,2.6-3.5,2.5c-3.7-0.2-7.5-0.2-11.1,0c-2.3,0.1-2.7-0.7-2.1-2.9
		c3.6-11.5,7.1-23.1,10.6-34.5c6.9-22.1,13.7-44.3,20.5-66.4c0.7-2.3,1.7-3.4,4.4-3.3c3.9,0.3,7.6,0.2,11.5,0
		c2.4-0.1,3.4,0.6,3.6,3.3c1.8,19.9,3.8,39.7,5.7,59.6C209.3,71.9,209.4,72,210,73z"/>
	<path class="st1" d="M396.4,86.1c1.7-5.4,3.3-10.4,4.9-15.4c2.7-9,5.6-17.9,8.2-26.9c0.5-1.6,1.3-2.3,2.9-2.3c4,0.1,8.1,0.1,12.2,0
		c2.1-0.1,2.6,0.7,2,2.7c-2.5,8.1-4.8,16.2-7.4,24.3c-4.5,14.6-9.2,29.1-13.6,43.8c-0.7,2.4-1.8,3.2-4.1,3.1
		c-3.6-0.1-7.2-0.2-10.8,0c-2.7,0.2-3.8-1.1-4.5-3.3c-3.3-11.1-6.6-22.2-10.1-33.2c-0.9-2.7-1.1-5.7-3.3-8.5
		c-1.7,5.2-3.3,10.1-4.9,15.1c-2.9,9.3-5.8,18.8-8.7,28.2c-0.5,1.7-1.5,2.4-3.3,2.4c-3.9-0.1-7.6-0.1-11.5,0c-2.1,0.1-2.7-0.5-2-2.7
		c3.1-9.9,6-20,9.1-29.9c4-12.9,8.1-25.9,12.1-38.8c0.7-2.4,1.8-3.2,4.1-3.1c3.7,0.1,7.5,0.2,11.1-0.1c2.3-0.1,3.3,0.9,3.9,3
		c3.9,12.6,7.7,25.3,11.6,37.9C394.8,83.5,395.1,84.7,396.4,86.1z"/>
	<path class="st2" d="M161,37.3c-3.9-0.3-4.1,0-2.7,3.4c0.4,1.1,1.5,2.5,0,3.3c-1.3,0.8-2.1-0.6-2.8-1.4c-2.8-2.6-3.3-2.4-4.3,1.5
		c-0.3,1.1-0.3,2.7-1.7,2.6c-1.4-0.1-1.5-1.6-1.6-2.7c-0.8-3.9-1-3.9-4.1-1.5c-0.9,0.7-1.5,2.1-2.9,1.2c-1.5-1-0.3-2.3,0.2-3.3
		c1.5-3.5,1.3-3.9-2.6-3.6c-1.1,0.1-2.6,0.6-3.1-0.8c-0.5-1.5,1-1.8,2-2.4c3.5-2.1,3.5-2.4-0.1-4.6c-0.9-0.5-2.2-0.9-1.8-2.1
		c0.4-1.5,1.6-1.1,2.9-0.9c4.2,0.6,4.4,0.3,2.8-3.9c-0.3-0.9-1-2.1,0.1-2.8c1.1-0.8,1.9,0.3,2.7,0.9c3.3,2.9,3.3,2.9,4.5-1.5
		c0.3-0.9,0.3-2.2,1.8-2.1c1.4,0.1,1.4,1.4,1.6,2.4c0.9,4.2,1,4.3,4.2,1.6c0.9-0.7,1.7-1.9,2.9-0.9c1.1,0.9,0.3,1.9-0.2,2.8
		c-1.7,3.9-1.6,4,2.8,3.9c0.9,0,2.2-0.5,2.7,0.9c0.3,1.4-0.9,1.7-1.7,2.2c-3.9,2.3-3.9,2.4-0.1,4.7c0.9,0.5,2.2,0.9,1.8,2.2
		C163.7,38.1,162.1,37.3,161,37.3z"/>
	<path class="st3" d="M369.2,145c-1.7,5-3.5,10-5.1,15c-0.3,1-0.7,1.6-1.9,1.6c-1.2,0-1.5-0.7-1.9-1.6c-1-3.2-2.1-6.3-3.6-10.3
		c-1.3,3.7-2.3,6.5-3.3,9.4c-0.3,1-0.4,2.3-2,2.5c-1.6,0.1-1.8-1.1-2.2-2.2c-1.7-4.8-3.3-9.6-5-14.3c2.4-1,3.3,0,3.9,2.1
		c0.9,3.1,2,6.1,3.2,9.9c1.3-3.9,2.3-6.9,3.3-9.9c0.3-1,0.3-2.3,2-2.4c1.7-0.1,1.7,1.3,2.1,2.3c1,3.1,2.1,6.2,3.1,9.3
		c3.3-3.3,1.2-9.8,6.3-11.7C368.5,144.7,368.8,144.9,369.2,145z"/>
	<path class="st4" d="M40.8,152.6c1.5-2.2,2.7-4.2,3.9-6.2c0.7-1.2,1.6-1.9,3.1-1.7c1.8,0.3,1.1,1.8,1.1,2.7c0.1,3.7,0.1,7.5,0,11.1
		c0,1,0.8,2.8-1.4,2.9c-2.5,0.1-1.5-2-1.5-3.1c-0.2-2.5-0.1-5-0.1-8.5c-2.1,2.9-3.6,5-5.3,7.5c-1.6-2.3-3.2-4.4-4.9-6.9
		c-0.9,2.9-0.3,5.7-0.4,8.3c-0.1,1.1,0.6,2.8-1.5,2.7c-1.9,0-1.5-1.5-1.5-2.6c-0.1-3.9-0.1-7.9,0-11.8c0-0.9-0.4-2.2,1.2-2.4
		c1.2-0.2,2.2,0,2.9,1.2C37.7,148.1,39.2,150.2,40.8,152.6z"/>
	<path class="st5" d="M200.9,161.6c-6.3,0-6.3,0-6.3-6.4c0-2.7,0.1-5.3,0-8c-0.1-1.7,0.4-2.6,2.3-2.5c2.7,0.1,5.3,0,8,0
		c1,0,2.2-0.2,2.1,1.5c-0.1,1.6-1.4,1.2-2.3,1.3c-1.6,0.1-3.3,0.1-4.9,0c-1.7-0.1-2.1,0.7-2.1,2.2c0,1.8,0.8,2.2,2.3,2.1
		c1.3-0.1,2.6-0.1,3.9,0c0.9,0.1,2.2-0.4,2.3,1.3c0.1,1.7-1.2,1.4-2.1,1.4c-1.3,0.1-2.6,0.1-3.9,0c-1.7-0.2-2.5,0.4-2.5,2.3
		c0,2.1,0.9,2.3,2.6,2.2c1.7-0.1,3.5,0,5.2,0c0.9,0,1.9,0.1,1.9,1.5c0,1.5-1.1,1.2-2,1.3C204,161.7,202.4,161.6,200.9,161.6z"/>
	<path class="st6" d="M175.1,153.3c0-2.3,0-4.6,0-6.9c0-1.2,0.5-1.6,1.7-1.6c1.1,0,1.3,0.7,1.4,1.6c0,0.4,0.1,0.9,0,1.4
		c-0.4,3.1,0.6,3.9,3.9,4.1c3.9,0.2,4.5-1.5,4.1-4.6c-0.1-1-0.5-2.5,1.5-2.5c1.9,0,1.5,1.5,1.5,2.5c0.1,4,0,8.1,0,12.2
		c0,1,0.2,2.1-1.5,2.1c-1.6,0-1.4-1.2-1.5-2.2c0-0.8-0.1-1.6,0-2.4c0.3-2.1-0.8-2.7-2.7-2.5c-0.8,0.1-1.6,0.1-2.4,0
		c-2.1-0.3-3.1,0.4-3.1,2.8c0,1.4,1.5,4.1-1.4,4.2c-3.1,0-1.2-2.8-1.5-4.4C174.8,155.9,175.1,154.6,175.1,153.3L175.1,153.3z"/>
	<path class="st7" d="M281.6,144.5c1.3,0,2.6,0.1,3.7,0.8c0.7,0.4,2.1,0.5,1.5,1.9c-0.4,1.1-1.3,1.5-2.5,0.8c-0.9-0.5-2-0.8-3-0.9
		c-1.1-0.1-2.4,0.2-2.7,1.6c-0.3,1.5,0.6,2.1,1.9,2.5c1.5,0.4,2.9,0.8,4.3,1.4c2.1,0.8,3.2,2.3,3,4.5c-0.2,2.2-1.4,3.7-3.4,4.3
		c-3,0.9-5.7,0.3-8.3-1.3c-0.7-0.4-1.4-0.9-0.6-1.9c0.5-0.6,1-1.2,2-0.5c1.5,1,3.3,1.9,5.2,1.5c1.1-0.3,2.1-0.7,2.1-2
		c0.1-1-0.7-1.7-1.6-2c-1-0.3-2-0.6-3-0.9c-2.7-0.8-5.1-2-4.7-5.4C275.7,146.1,278.1,144.4,281.6,144.5z"/>
	<path class="st8" d="M298,144.5c1.5,0,2.7,0.2,4,0.9c0.8,0.4,1.9,0.7,1.1,2c-0.5,0.9-1.2,1.3-2.2,0.6c-1.1-0.7-2.3-1-3.6-0.9
		c-1.1,0.1-2.1,0.5-2.4,1.7c-0.3,1.3,0.6,1.9,1.6,2.2c1.3,0.4,2.7,0.8,3.9,1.2c2.3,0.8,3.9,2.1,3.7,4.8c-0.3,2.7-1.8,4.1-4.4,4.6
		c-2.4,0.4-4.6,0-6.7-1.1c-0.7-0.4-2.2-0.6-1.4-2.1c0.7-1.2,1.6-1,2.7-0.3c1.3,0.9,2.7,1.4,4.3,1.2c1.2-0.2,2.3-0.6,2.4-2.1
		c0.1-1.4-0.8-1.8-1.9-2.1c-1-0.3-2-0.6-3-0.9c-2.8-0.9-5-2.2-4.3-5.7C292.7,145.2,295.1,144.5,298,144.5z"/>
	<path class="st3" d="M317.1,153.9c0-7.4,6.6-11.5,12.8-8.7c1,0.4,2.7,0.8,2,2.5c-0.8,1.7-1.9,0.8-3.1,0.2c-2.7-1.3-5.3-1.1-7.1,1.5
		c-1.7,2.4-1.7,5.1-0.1,7.5c1.6,2.5,4.6,3,7.6,1.3c1.2-0.7,2.1-1.1,2.8,0.3c0.8,1.5-0.7,1.7-1.5,2.2c-2.8,1.8-5.8,1.9-8.9,0.3
		C318.5,159.3,317.2,156.6,317.1,153.9z"/>
	<path class="st9" d="M219.9,153.1c0.1-6.8,6.7-10.9,12.8-7.8c0.9,0.4,2.5,0.8,1.9,2.3c-0.7,1.7-1.9,0.9-3.1,0.3
		c-3.7-1.7-7-0.4-8.2,3c-1.2,3.3,0.8,7.1,4.1,8c1.9,0.5,3.4-0.2,4.9-1.2c1-0.7,1.6-0.5,2.3,0.3c0.9,1.2-0.2,1.6-0.9,2.1
		c-2.9,2-6,2.3-9.2,0.8C221.4,159.5,219.9,156.8,219.9,153.1z"/>
	<path class="st10" d="M387.7,144.9c5.5-1,4.8,4.8,7.9,6.5c3-1.4,2.4-7.4,8.1-6.5c-1.2,1.9-2.1,3.5-3.3,4.9c-2.2,2.9-3.9,6-3.3,9.9
		c0.2,0.9,0.2,2-1.2,2c-1,0-2.1-0.2-1.9-1.4c0.9-5.8-3.1-9.6-5.7-14C388,145.8,387.9,145.4,387.7,144.9z"/>
	<path class="st11" d="M129.8,144.9c5.7-0.9,5,4.9,8,6.5c3-1.5,2.6-7,8.1-6.8c-1.5,2.3-2.5,4.3-3.8,6c-1.9,2.5-3.2,5.1-2.7,8.3
		c0.2,1,0.5,2.5-1.4,2.6c-1.9,0.1-1.8-1.3-1.5-2.4c0.8-3.9-1.7-6.5-3.5-9.4C131.9,148.2,130.9,146.7,129.8,144.9z"/>
	<path class="st12" d="M164.2,144.7c1.6,0,3.3,0,4.9,0c0.9,0,1.6,0.1,1.6,1.3c0,1-0.5,1.6-1.5,1.5c-4.2-0.9-4,1.9-3.9,4.7
		c0.1,2.6,0,5.1,0,7.6c0,1-0.2,1.8-1.5,1.8c-1.4,0-1.5-0.8-1.5-1.8c0-3.3-0.1-6.5,0-9.8c0.1-2-0.5-2.7-2.6-2.6
		c-1,0.1-2.9,0.8-2.8-1.4c0.1-2.1,1.9-1.2,3-1.3C161.5,144.6,162.8,144.7,164.2,144.7L164.2,144.7z"/>
	<path class="st13" d="M239.7,153.3c0-1.6-0.2-3.3,0.1-4.9c0.2-1.3-1.1-3.4,1.3-3.6c2.7-0.1,1.4,2.1,1.5,3.4c0.2,2,0,3.9,0.1,5.9
		c0.1,5.2-0.7,4.6,4.5,4.7c1,0,2.1,0,3.2,0.1c0.9,0,1.2,0.4,1.2,1.3c0,0.9-0.3,1.4-1.2,1.4c-3.2,0-6.3,0-9.4,0
		c-1.4,0-1.2-1.1-1.2-2.1C239.6,157.4,239.7,155.3,239.7,153.3z"/>
	<path class="st14" d="M54.8,152.8c0-2.1,0-4.2,0-6.3c0-1,0.2-1.8,1.5-1.8c1.4,0,1.5,0.8,1.5,1.8c0,4.4,0,8.8,0,13.2
		c0,1-0.2,1.8-1.5,1.8c-1.4,0-1.5-0.8-1.5-1.8C54.8,157.5,54.8,155.1,54.8,152.8L54.8,152.8z"/>
	<path class="st15" d="M312.1,153.1c0,2.2,0,4.4,0,6.6c0,1-0.2,1.8-1.5,1.8c-1.4,0-1.5-0.8-1.5-1.8c0-4.4,0-8.8,0-13.2
		c0-1,0.2-1.8,1.5-1.8c1.4,0,1.5,0.8,1.5,1.8C312.1,148.7,312.1,151,312.1,153.1z"/>
	<path class="st16" d="M86.5,155.7c-1.1,0-2,0.1-2.7,0c-0.9-0.1-0.9-0.9-0.9-1.6c0-0.7,0.3-1.1,0.9-1.2c0.8-0.1,1.6-0.3,2.4-0.1
		c1.3,0.3,3.5-1,3.6,1.4C89.9,157,87.3,155.1,86.5,155.7z"/>
	<g>
		<path class="st1" d="M253.7,47.4c-14.7,9.2-24,32.4-20,50.1c1.8,7.8,5.2,14.5,13.3,17.3c8.9,3.1,16.2-0.7,22.5-6.4
			c10.9-10,15.8-22.9,16.3-37.4c0-3.8-0.4-7.4-1.4-11.1C280.6,44.8,266.9,39.1,253.7,47.4z M260.9,90.8c-3.9,2.4-8.3,0.7-9.9-3.5
			c-2.1-5.7,0.9-14.9,6-18.3c2.2-1.5,4.5-2.3,7.2-0.9c3.5,1.9,3.9,5.2,4.3,8.7C267.9,82.4,266.2,87.5,260.9,90.8z"/>
		<path class="st1" d="M340.2,53.7c-2-3.9-4.9-7-9.1-8.7c-7.7-3.2-14.7-1.1-20.8,3.7c-13,10-18.3,23.9-19.1,39.9
			c-0.3,4,0.5,7.9,1.5,11.7c3.5,13.7,16.4,19.5,28.7,12.7c9.9-5.5,15.9-14.4,19.5-24.9C345,76.7,346,65,340.2,53.7z M322.7,87.7
			c-2.7,3.7-6.3,5-9.3,3.9c-3.3-1.2-5.1-4.6-5-9.2c0.2-5.1,2.1-9.5,6-12.9c4.9-4.3,10.4-2.2,11.7,4.1
			C327.3,78.9,325.9,83.5,322.7,87.7z"/>
	</g>
	<g>
		<path class="st17" d="M66,144.8c-5.4,0.3-1.3,4.8-2.6,7c-0.2,0.3,0,0.9,0,1.4c0,9.4,0,9.4,8.1,8.3c4.5-0.7,7.5-4.5,7.1-9.2
			C78.2,146.8,74.1,144.2,66,144.8z M71.7,158.6c-4.4,1.2-5.3,0.3-5.3-5.5c0-0.3-0.1-0.5,0-0.7c0.8-1.6-1.9-4.7,2.1-5
			c3.8-0.3,6.3,1.4,6.9,4.3C76,155.1,74.6,157.8,71.7,158.6z"/>
		<path class="st18" d="M96.8,144.8c-4.3,0.6-0.9,4.5-2.1,6.8c-0.2,0.3,0,0.9,0,1.4l0,0c0,2.2,0,4.4,0,6.6c0,1.2,0.2,2.1,1.6,2
			c2.4-0.1,4.9,0.1,7.3-0.3c4.3-0.9,7-5.2,6.3-9.4C108.9,146.4,104.4,143.8,96.8,144.8z M105,157.5c-1.8,1.7-4.1,1.6-6.3,1.3
			c-2.1-0.3-0.8-2.3-1.1-3.5c-0.2-0.7,0-1.4,0-2.1c0-0.3-0.1-0.5,0-0.7c0.5-1.6-1.4-4.3,1.4-4.9c2.8-0.6,5.7-0.1,7.1,2.9
			C107.3,152.9,107,155.4,105,157.5z"/>
		<path class="st19" d="M123.1,146.2c-0.9-2.2-2.9-2.4-3.9-0.6c-2.6,5.1-4.6,10.4-6.9,15.6c2,0.5,3.2,0.4,3.6-1.5
			c0.5-2.1,2.1-2.6,3.9-2.3c2.2,0.3,5.1-1.1,6,2.4c0.5,1.7,1.7,2,3.8,1.4C127.4,156.1,125.3,151.1,123.1,146.2z M122.8,154.7
			c-0.4,0.8-3.3,0.9-3.8,0c-1.4-2.2,1.4-3.7,1.8-5.8C121.9,151,123.9,152.7,122.8,154.7z"/>
	</g>
	<g>
		<path class="st20" d="M265.4,146.5c-0.4-0.9-0.6-2-2.1-2c-1.5,0-2,0.9-2.5,2c-1.9,4.2-3.8,8.5-5.6,12.8c-0.3,0.7-1.4,1.7,0.2,2.1
			c1,0.3,1.8,0.1,2.5-1.2c2.2-4.1,7.6-4,10.3,0.1c0.5,0.8,0.9,1.3,1.9,1.2c1.9,0.1,1.4-0.9,0.9-2
			C269.3,155.2,267.4,150.9,265.4,146.5z M265.1,154.8c-0.3,0.8-3.6,0.8-4-0.1c-1-2.1,1.1-3.9,2-6.6
			C264.1,151,266.1,152.8,265.1,154.8z"/>
		<path class="st21" d="M386.5,159.2c-1.8-4.4-3.8-8.7-5.7-13c-0.3-0.9-0.7-1.6-1.9-1.6c-1.3,0-1.8,0.5-2.3,1.6
			c-2.1,5-4.3,9.9-6.5,14.9c1.9,0.8,3,0.6,3.7-1.4c0.3-0.9,0.6-2.4,1.9-2.1c2.9,0.4,6.9-2.1,8.4,2.9c0.3,1.3,1.7,1.4,2.7,0.9
			C388,160.8,386.7,159.8,386.5,159.2z M380.7,154.7c-0.3,0.5-3.3,0.7-3.8,0.1c-1.5-2.1,1.4-3.7,1.6-5.8
			C379.5,150.9,381.6,152.5,380.7,154.7z"/>
	</g>
</g>
</svg>
