<?xml version="1.0" encoding="utf-8"?>
<!-- Generator: Adobe Illustrator 24.3.0, SVG Export Plug-In . SVG Version: 6.00 Build 0)  -->
<svg version="1.1" id="Layer_1" xmlns="http://www.w3.org/2000/svg" xmlns:xlink="http://www.w3.org/1999/xlink" x="0px" y="0px"
	 viewBox="0 0 243.1 179.4" style="enable-background:new 0 0 243.1 179.4;" xml:space="preserve">
<style type="text/css">
	.st0{fill:#EF4F23;}
</style>
<path class="st0" d="M99.9,49.5C103.6,60.4,103,70.3,95,79c0.4-3.5,0.5-6.9-0.4-10.3c-0.9-3.4-2.6-6.4-5.3-8.7c0,1.7,0.1,3.3,0,4.9
	C89,68,87.8,70.8,85.7,73c-4.4,4.5-5.1,9.9-4.1,15.8c0.4,2.3,1.1,4.6,1.7,7.1c-0.9-0.3-1.9-0.5-2.8-0.9c-6.8-2.9-10.8-8.3-12.8-15.1
	c-2.1-7.1-1.3-13.8,2.7-20.2c4.3-6.8,5.5-14.3,3.9-22.2c-0.1-0.3-0.1-0.5-0.2-1.1c6.6,3.8,6.5,9.9,6.4,16.4
	c5.2-6.5,8.7-13.4,10.1-21.3c1.4-8,0.5-15.7-2.9-23.4c12.5,4.2,18.1,13.4,20.4,25.8c3.8-4.2,3.3-9,3.2-13.9c1.7,0.9,3,2,4,3.4
	c2.4,3.3,3.5,7.1,3.6,11.1c0,3.9-0.4,7.8-0.7,11.6c0,0.3,0,0.6-0.1,1.4c4.1-3.5,4.9-8.1,6.2-12.7c0.5,0.4,1,0.6,1.4,1
	c5.5,4.7,8.3,10.8,8.9,17.9c0.9,9.7-1.1,18.9-6.9,26.9c-4,5.5-9.2,9.3-15.5,11.7c-1.2,0.5-1.8,0.1-2.2-0.9c-0.9-2.1-1-4.2-0.6-6.4
	c0.6-3.5,1.5-6.9,2.1-10.4c1.9-9.8-1.8-18.7-9.8-23.9C101.2,50.2,100.5,49.9,99.9,49.5z"/>
<path d="M61.4,158.9c0-11.9,0-23.7,0-35.5c-2.5,0.2-5.1,0.4-7.7,0.6c-0.1,12.1-0.3,24.2-0.4,36.5c-2.5,0.5-4.9,1-7.6,1.5
	c0.2-12.7,0.3-25.3,0.5-37.9c-3.2,0.3-6.3,0.6-8.9,2.3c-2,1.3-2.7,3.1-1.9,5.6c0.8,2.3,1.8,4.5,2.8,6.9c-2.1,1.5-4.3,3.1-6.6,4.8
	c-1.3-4.6-2.2-9-1.4-13.6c1-5.5,4.7-8.5,9.8-9.8c4.4-1.2,8.9-1.1,13.4-1c3,0,6-0.2,8.9-0.6c2.7-0.3,5.1-1.5,6.9-4.1
	c0,6.1,0,11.8,0,17.9c0.5-0.5,0.7-0.8,0.9-1.1c1.3-1.7,2.9-3.1,5-3.9c3-1.1,5.8-0.2,6.9,2.8c0.8,2,1.1,4.2,1.2,6.3
	c0.3,4.2,0.3,8.3,0.4,12.5c0,0.4,0,0.8,0.1,1.2c0.3,1.3,1.3,1.8,2.3,1c1.2-0.9,2.2-2,3.1-3.2c0.2-0.2-0.1-0.9-0.2-1.3
	c-2.6-7.3-1.9-14.2,3.1-20.3c1.5-1.9,3.5-3.1,5.9-3.7c4.2-1,7.7,1.5,8.1,5.8c0.4,4.8-1.6,8.5-5.8,10.8c-1.5,0.9-3.3,1.4-5.2,2.1
	c0.5,2.2,1.5,4.3,3.7,5.5c2.1,1.1,4.2,0.8,6.2-0.5c2.1-1.4,3.5-3.4,4.5-5.6c0.7-1.4,0.7-1.4,2.4-1.5c-1.4,7.1-6.6,12-13.8,12.8
	c-2.8,0.3-5.2-0.4-7.1-2.4c-1.2,1.2-2.3,2.4-3.6,3.4c-1.6,1.3-3.4,2-5.5,2c-3.2,0-5.6-1.9-5.8-5.1c-0.3-4.1-0.3-8.1-0.4-12.2
	c0-1.8,0-3.5-0.2-5.3c-0.1-0.6-0.5-1.5-1-1.7c-0.4-0.2-1.3,0.2-1.8,0.6c-2.1,2-3.6,4.3-3.6,7.5c0.1,5.7,0,11.4,0,17.1
	c0,1.1-0.3,1.6-1.4,1.7C65.5,158,63.5,158.5,61.4,158.9z M94.3,138.4c6.6-0.7,8.3-8.1,6.8-12c-0.4-1-1.1-1.2-2-0.8
	c-0.5,0.2-1,0.6-1.4,1C94.8,130,94.4,134.1,94.3,138.4z"/>
<path d="M137.6,55c-0.9-3.7-1.7-7.3-2.5-10.9c8,1.6,15.4,4.8,22.5,9.2c2.2-2.5,3.3-5.4,2.1-8.5c-2.4-6-0.4-10.9,3.4-15.4
	c5.7-6.8,11.6-13.5,17.5-20.3c1.1-1.2,2.1-1.4,3-0.6c0.9,0.8,0.9,1.9-0.1,3.1c-5,5.8-10,11.6-15,17.4c-0.2,0.2-0.4,0.4-0.5,0.6
	c-0.7,1-0.7,2.1,0.2,2.8c0.9,0.8,1.9,0.7,2.8-0.2c2.2-2.5,4.4-5.1,6.6-7.6c3-3.5,6-7,9.1-10.5c0.5-0.5,1.4-0.9,2.1-0.8
	c0.6,0.1,1.4,0.9,1.5,1.5c0.1,0.7-0.3,1.6-0.8,2.1c-5,5.9-10,11.7-15.1,17.5c-0.6,0.7-1.1,1.5-0.7,2.4c0.6,1.5,2.3,1.7,3.5,0.3
	c2.7-3.1,5.5-6.3,8.2-9.5c2.4-2.8,4.8-5.6,7.2-8.3c1-1.2,2.1-1.4,3.1-0.6c1,0.8,1,2,0,3.2c-5,5.8-10,11.6-15,17.4
	c-0.1,0.2-0.3,0.3-0.4,0.5c-0.8,1.1-0.8,2.1,0.1,2.9c0.9,0.8,2,0.7,2.9-0.3c1.7-1.9,3.4-3.9,5.1-5.9c3.5-4,6.9-8,10.4-12
	c0.5-0.6,1.5-1,2.2-1c1.6,0.2,2,1.9,0.9,3.3c-2.9,3.4-5.8,6.7-8.7,10.1c-2.8,3.3-5.7,6.6-8.5,9.9c-2.7,3-5.7,5.7-9.9,6.3
	c-1.5,0.2-3.1,0-4.6-0.2c-3.3-0.5-6.1,0.4-8.5,2.9c11,8.3,18.9,18.9,23.5,31.8C173.8,69.8,158.1,58.8,137.6,55z"/>
<path d="M204.9,90.5c0,3.3,0,6.5,0,9.6c0,8.3-0.1,16.7-0.2,25c0,0.1,0,0.3,0,0.4c0.2,2.1,1.3,2.7,3.1,1.5c1.8-1.3,2.9-3.1,3.7-5.1
	c0.1-0.2,0.2-0.4,0.2-0.6c0.1-1.5,0.9-2,2.5-1.9c-0.2,0.8-0.3,1.5-0.6,2.3c-1.2,3.7-3.3,6.7-6.7,8.6c-3.9,2.2-7,1.2-9-2.9
	c-0.7,0.9-1.2,2-2,2.7c-1.4,1.2-2.7,2.5-4.4,3.4c-3.4,1.7-6.1,0.7-8.1-2.9c-0.4,0.5-0.7,0.9-1.1,1.4c-1.9,2.4-4.1,4.4-7.2,5
	c-3.1,0.6-5.6-0.6-6.7-3.6c-0.6-1.6-0.9-3.3-0.9-5c-0.1-6.2,0.1-12.3,0.1-18.5c0-0.1,0.1-0.3,0.1-0.5c2.4-0.5,4.9-1,7.5-1.5
	c0,0.7,0.1,1.2,0.1,1.8c0,6.7-0.1,13.4-0.1,20.1c0,1.3-0.2,2.8,1.2,3.3c1.4,0.6,2.5-0.6,3.4-1.5c1.8-1.8,2.8-3.8,2.8-6.6
	c-0.1-9.6,0-19.2,0-28.8c0-0.4,0-0.7,0-1.2c2.5-0.5,4.9-1,7.5-1.5c0,0.6,0,1.1,0,1.7c-0.1,10.5-0.2,20.9-0.3,31.4
	c0,0.9,0,1.9,0.2,2.8c0.3,1.2,1.2,1.7,2.2,1c2.8-1.7,4.7-4.2,4.8-7.4c0.2-9.9,0.1-19.8,0.1-29.6c0-0.9,0.2-1.3,1.1-1.4
	C200.6,91.4,202.7,90.9,204.9,90.5z"/>
<path d="M138.7,121.7c0,7.5,0.1,14.9,0,22.3c-0.1,6.7-4.3,12.1-10.2,13.7c-5.2,1.4-10.6-0.6-13.3-4.9c1.5-1.8,3-3.6,4.5-5.4
	c0.6,0.9,1.2,1.8,1.8,2.7c0.2,0.2,0.3,0.4,0.5,0.6c1.5,1.6,3.2,2.8,5.5,2.2c2.2-0.5,3.2-2.5,3.4-4.5c0.4-4.4,0.5-8.8,0.7-13.4
	c-1.8,1-3.2,1.9-4.6,2.6c-2.6,1.3-5.4,1.7-8.2,1.2c-2.8-0.4-5.3-1.6-7-4c-4.5-6.5-5.5-13.5-2.5-20.9c3-7.2,11.7-11.7,19.4-10.4
	c5.2,0.8,8.1,5.1,7.1,10.3c-0.2,0.9-0.4,1.7-0.7,2.8c-2.3-1-4.5-2-6.7-2.9c0.2-1.5,0.6-2.8,0.6-4.2c0.1-2.2-1.4-3.5-3.6-3.1
	c-3.6,0.7-6,3.1-7.5,6.2c-2.8,6-2.7,12.1,0,18.1c1.9,4.1,5.9,5.1,9.8,2.8c0.1,0,0.1-0.1,0.2-0.1c2.2-1.3,3.5-2.8,3.2-5.6
	c-0.3-2.9,0-3,2.7-4C135.6,122.9,137.1,122.3,138.7,121.7z"/>
<path d="M151.5,112.4c0,1.9,0,3.7,0,5.4c0.1,0.1,0.2,0.2,0.2,0.3c2.7-7,7.4-9.2,14.5-6.7c-1.5,1.8-2.9,3.5-4.3,5.2
	c-3.3-1-5.3-0.5-7.3,2.2c-1.9,2.5-3.2,5.2-3.1,8.6c0.2,4.2,0.1,8.4,0.1,12.6c0,0.4-0.4,1.1-0.7,1.2c-2.3,0.5-4.6,0.9-7,1.4
	c-0.1-0.4-0.1-0.6-0.1-0.9c0-8.8,0.1-17.6,0.1-26.3c0-1.1,0.2-1.7,1.5-1.9C147.3,113.4,149.3,112.9,151.5,112.4z"/>
<path class="st0" d="M172.2,94.9c1.1,0.3,3.2,0.8,5.1,1.6c1.6,0.7,1.8,1.9,0.6,3.3c-2.5,2.7-5.6,4.3-9.3,4.2c-0.9,0-2-0.6-2.7-1.2
	c-1.2-1.1-2.3-1.4-3.8-0.9c-5.7,1.7-11.4,3.3-17,4.9c-1.7,0.5-2.9,0.1-3.5-1.2c-0.9-1.8,0.2-3.6,2.4-3.8c2.5-0.3,5-0.4,7.6-0.6
	c3.6-0.3,7.1-0.5,10.7-0.9c0.9-0.1,2.1-0.7,2.4-1.4C165.8,95.4,168.4,95.1,172.2,94.9z"/>
</svg>
