<?xml version="1.0" encoding="utf-8"?>
<!-- Generator: Adobe Illustrator 24.3.0, SVG Export Plug-In . SVG Version: 6.00 Build 0)  -->
<svg version="1.1" id="Layer_1" xmlns="http://www.w3.org/2000/svg" xmlns:xlink="http://www.w3.org/1999/xlink" x="0px" y="0px"
	 viewBox="0 0 514.7 179.4" style="enable-background:new 0 0 514.7 179.4;" xml:space="preserve">
<style type="text/css">
	.st0{fill:#2D2D2D;}
	.st1{fill:#EC8824;}
</style>
<g>
	<path class="st0" d="M313.3,59.3c-13.8,5.6-16,16.5-16.6,28.5c-0.3,5,0.7,7.5,6.4,6.5c3.9-0.7,8-0.6,12-0.4
		c14.2,0.7,23.4,8.4,24.9,22.6c1.3,12.3,0.7,24.8,1.2,37.2c0.3,6.9-3.8,7.8-9.2,7.9c-6.1,0.1-7.1-3.4-7.2-8.5
		c-0.2-13.2-0.7-26.4-1.5-39.6c-0.5-8-3.2-15.8-12.4-16.5c-10-0.7-12.6,8.4-13.5,15.5c-1.5,12.3-1,24.8-1,37.2
		c0,6.3,0.4,12-8.8,12.1c-9.1,0.1-7.8-5.7-7.8-11.3c0.1-20.8-0.5-41.7,0.3-62.5C280.9,66.7,293.1,56.2,313.3,59.3z"/>
	<path class="st0" d="M448.7,136.6c0,5.2-0.3,10.4,0.1,15.6c0.5,6.6-2,9.5-8.8,9.5c-6.8,0-7.7-3.6-7.7-9.2
		c0.1-11.6-0.4-23.2-0.5-34.9c0-4.9-1.2-9.5-3.3-13.9c-1.9-4.1-4.7-7.3-10-7.4c-5.8-0.2-8.9,3.3-10.9,7.8c-4,9.1-3.5,18.8-3.5,28.4
		c0,7.2-0.1,14.4,0,21.6c0,5.8-3.2,7.5-8.4,7.4c-5.3-0.1-8.2-1.5-8.1-7.6c0.3-12-0.6-24.1,0.3-36.1c1.1-16.4,12.4-25.3,30.5-25.3
		c17.9,0,28.8,9.2,30,25.8c0.4,6,0.1,12,0.1,18C448.6,136.6,448.7,136.6,448.7,136.6z"/>
	<path class="st0" d="M224.4,128.5c-0.6,7.2-0.1,14.4,2.8,21.2c2,4.7,5.5,8.4,10.6,8.7c5.1,0.3,8.9-3.1,11-7.8
		c1-2.2,1.3-4.9,2.8-6.5c4-4.5,9.4-5.1,14-1.8c5.3,3.8-0.2,7.2-2.1,9.7c-7.3,9.5-24.5,12.6-38.8,7.6c-12.2-4.3-16.9-13.7-17.2-25.9
		c-0.1-4.4-0.2-8.8,0.1-13.2c0.7-12.4,6.5-21.3,18.4-25.3c13-4.4,30.9-0.5,37.7,8.4c2,2.7,7.2,6.3,1.9,9.8c-4,2.7-9.2,2.4-13.4-1
		c-0.6-0.5-0.7-1.4-1.1-2.1c-3-6.5-5.8-15-14.7-12.8c-9.5,2.3-10.9,11.8-11.9,20.3C224.1,121.2,224.4,124.9,224.4,128.5z"/>
	<path class="st0" d="M203.3,159.7c-18.3,2.7-29.9-5.4-30.9-22.7c-1.3-21.5-0.4-43.1-0.7-64.7c-0.1-6.3,3.5-6.8,8.5-7
		c6.2-0.2,8.4,1.9,8.3,8.3c-0.3,19.6-0.1,39.1-0.1,58.7C188.4,143.9,189.7,154.8,203.3,159.7z"/>
	<path class="st1" d="M418.5,8c10.3,12.6,24.4,19.1,38.3,26.2c14.2,7.3,18.6,16.2,15.2,28.8c-2.7,10.2-12.3,16.3-26.3,16.4
		c-18.4,0.1-36.8,0.1-55.1,0.1c-13.7-0.1-23.7-7.2-26.1-18.3c-2.4-11,3-20.6,15.3-26.7C393.7,27.6,407.9,21.1,418.5,8z"/>
	<path class="st0" d="M462.8,127.2c0-8.8,0.3-17.6-0.1-26.4c-0.3-6.6,3.7-7.2,8.4-7c4.3,0.1,8.8,0,8.7,6.8c-0.3,18-0.3,36-0.1,54
		c0.1,6.2-3,7.3-8.2,7.1c-4.7-0.2-8.9-0.5-8.7-6.9C463,145.6,462.8,136.4,462.8,127.2z"/>
	<path class="st0" d="M372,128.6c0,8-0.1,16,0,24c0.1,5.1,0.1,9.6-7.3,9.1c-5.9-0.3-10-1-9.8-8.5c0.4-17.2,0.4-34.4,0-51.6
		c-0.1-6.8,3.5-8.1,8.9-8.2c6-0.1,8.5,2.5,8.2,8.8C371.7,111,372,119.8,372,128.6z"/>
	<g>
		<path class="st0" d="M87.1,79.7c-2.8-15.5-14.7-23.1-32.6-20.4c13.4,5.1,16.2,14.7,16.6,26.1c0.3,7.3-0.9,9.3-8.8,8.8
			C41.7,93,31.1,99.4,28,114.5c-1.9,9-2,18.3,0.6,27.3c4.1,14.3,14.2,20.5,31.5,19.7c14.9-0.8,25.2-8.4,27.2-22.2
			C90.2,119.5,90.7,99.4,87.1,79.7z M68.1,150.3c-1.6,4.3-5.1,6.8-10.1,7c-5.7,0.2-8.8-3.2-10.7-7.8c-2.9-7.1-3.8-14.5-3.4-22.2
			c-0.4-8,0.1-16,3.8-23.2c2-3.9,4.9-7.4,10-7.4c5,0,8.4,2.8,10.1,7.1C74,119.2,73.8,134.9,68.1,150.3z"/>
	</g>
	<g>
		<path class="st0" d="M160.6,140c0-9.6,0.4-16-0.1-22.4c-0.8-12.2-7.7-20.5-19.4-22.7c-13.4-2.6-27.2-3.2-37.7,8.6
			c-1.2,1.3-2.2,3.6-1.9,5.3c0.4,3.1,3.6,2.7,5.8,2.8c4.4,0.2,8.9,0.2,10.7-5.2c2.1-6.4,6.6-10.1,13.5-9.2
			c6.5,0.9,8.6,6.6,10.5,11.9c2.1,6,1.5,10.4-6.7,8.3c-6.5-1.7-12.8,0-19,1.2c-9.8,2-16.6,7.3-17.1,18.4
			c-0.5,11.4,3.8,19.2,15.1,22.6c7.8,2.4,15.9,3,23.7,1.5c7.3-1.4,16.4,4.9,21.4-2C163.7,153.1,160.2,144.3,160.6,140z M130.4,157.9
			c-9.4,0-14.4-6.9-14.3-19.5c0.1-11.8,5.1-18,14.4-18c9.4,0,14.8,7.2,14.6,19.2C144.9,150.9,139.2,157.9,130.4,157.9z"/>
	</g>
	<path class="st1" d="M370.7,59.3c0-14.1,3-18.8,17.1-22.2c10.5-2.6,16.3-11.9,25.8-16c6.4-2.7,11.2-4,15.4,2.3
		c7.2,10.5,20.8,10.6,29.6,19.1c4.8,4.7,10.7,9.2,9.4,15.3c-1.4,6.6-5.9,12.6-14.2,14.7c-10.8,2.7-21,2.5-31.9,1
		c-12.6-1.7-25.6-0.5-38.4-1.3C376.6,71.7,369.6,69.9,370.7,59.3z"/>
</g>
</svg>
