<?xml version="1.0" encoding="utf-8"?>
<!-- Generator: Adobe Illustrator 24.3.0, SVG Export Plug-In . SVG Version: 6.00 Build 0)  -->
<svg version="1.1" id="Layer_1" xmlns="http://www.w3.org/2000/svg" xmlns:xlink="http://www.w3.org/1999/xlink" x="0px" y="0px"
	 viewBox="0 0 299.2 179.4" style="enable-background:new 0 0 299.2 179.4;" xml:space="preserve">
<style type="text/css">
	.st0{fill:#EF4A23;}
	.st1{fill:#353535;}
</style>
<g>
	<path class="st0" d="M84,80.7c1.2-6.9,3.2-13.7,5.1-20.4c0.5-1.7,1.7-2.5,3.3-3.2c3.5-1.5,6.6-3.4,9.2-6.2
		c2.9-3.1,3.8-6.8,2.3-10.7c-1.6-4.6-4.9-7.9-9.5-9.7c-1.8-0.7-1.9,0.9-2.2,2c-0.8,2.3-1.1,4.9-2.8,6.8c-1.7-0.8-1.1-2.2-1.2-3.2
		c-0.2-3.9-0.5-7.7-1.6-11.4c-2.7-9-13.3-12.8-21-7.6c-2.2,1.5-3.4,3.1-2.2,6c1,2.6,1.5,5.4,1.1,8.2c-0.1,0.9-0.4,2.1-1.5,2.1
		c-0.8,0-1.2-0.9-1.5-1.7c-1.5-3.9-3.6-7.4-6.7-10.3c-5.2-4.8-10.9-4-14.9,1.9c-2.9,4.4-3.1,9.2-2.1,14.2c0.6,2.7,2.4,3.9,5.1,4.2
		c5,0.5,6.3,1.7,6.3,6.3c0,9.8-2.5,19.2-4.7,28.7c-0.4,1.9-2.3,2.9-4.1,3.6c-1.3,0.5-2.6,1-3.8,0.1c-1.4-1-0.6-2.4-0.4-3.7
		c1.7-7.7,3.4-15.3,5.3-23c0.6-2.3,0.2-3.5-2.1-4.7c-8.4-4.3-11.9-11.2-10.5-20C30.6,20,38.3,11.4,46.3,10c4.1-0.7,8,0.1,11.3,2.8
		c1.7,1.4,2.7,1.1,4.3-0.2c11.4-9,26.5-4.2,30.6,9.6c0.5,1.6,1.1,2.2,2.8,2.5c8.8,1.4,15.2,9,15.8,18.5c0.5,7.9-4.7,14.4-13.6,16.9
		c-1.2,0.4-2.7,0.3-3.3,1.8C91,69,87.9,76.1,84.8,83.2C82.9,82.9,83.9,81.7,84,80.7z"/>
	<path class="st0" d="M123.4,77.9c0-1.7,0-3.4,0-5.2c0-1,0.3-1.9,1.4-2c1.2-0.1,1.7,0.8,1.6,1.8c-0.3,2.4,0.6,2.8,2.8,2.2
		c2-0.5,3.8,0.6,4.1,2.8c0.3,2.2,0.2,4.5,0.1,6.7c0,0.8-0.5,1.5-1.5,1.5c-1,0-1.4-0.7-1.5-1.5c-0.1-1.6,0-3.2-0.1-4.8
		c0-1.1-0.2-2.3-1.6-2.3c-1.5-0.1-2.1,0.9-2.3,2.2c-0.1,1.2-0.1,2.4-0.1,3.6c-0.1,1.1,0.2,2.7-1.4,2.8c-1.8,0.1-1.5-1.5-1.6-2.6
		C123.4,81.3,123.4,79.6,123.4,77.9C123.4,77.9,123.4,77.9,123.4,77.9z"/>
	<path class="st0" d="M116.1,70.6c0.9,0,1.9,0,2.8,0c1.3,0.1,3.1-0.4,3.3,1.2c0.2,1.9-1.7,1.6-2.9,1.7c-1.9,0-1.6,1.4-1.6,2.5
		c0,2.5,0,5,0,7.6c0,1.2-0.4,2.2-1.8,2.1c-1.2-0.1-1.4-1-1.4-2c0-1.6,0.1-3.2,0-4.8c-0.1-2.4,1.4-6-3.5-5.5c-0.6,0.1-1.2-0.7-1-1.4
		c0.1-0.7,0.7-1.1,1.4-1.2C112.9,70.7,114.5,70.7,116.1,70.6C116.1,70.7,116.1,70.7,116.1,70.6z"/>
	<path class="st0" d="M84,80.7c0.3,0.8,0.5,1.7,0.8,2.5c-0.3,2.1-1.4,3.9-2.8,6.3C82.1,86,83.1,83.4,84,80.7z"/>
	<g>
		<path class="st1" d="M280.4,84.1c-0.5-0.6-1.2-1.1-2-0.3c-3.3,4-8.1,2.6-12.2,3.3c-2.8,0.5-4.1-0.2-3.2-3.5c0.8-2.7-0.6-5-3.6-5.7
			c-3.2-0.7-4.1,1.1-4.4,3.9c-0.3,3.5-1.9,4.9-5.8,4.2c-4-0.7-8.3-0.7-12.3,0.6c-4,1.3-6,4.8-5,8.3c0.2,0.8,0.5,1.6,1.4,1.7
			c0.9,0.1,1.1-0.6,1.2-1.3c0.5-2.4,2.5-3,4.5-3.4c3.9-0.8,7.9-0.9,12.3-0.6c-2.2,5.2-4.5,9.9-6.2,14.9c-2.2,6.3-5.3,11.9-9.9,16.7
			c-2,2-4,3.9-6.9,4.6c-1.4,0.4-2.6,0.4-3.6-0.9c-1.9-2.7-0.5-8,2.6-9.4c5.4-2.4,9.8-6,11.9-11.7c1.9-4.9-0.6-7.9-5.7-7.4
			c-3.2,0.3-5.8,1.7-8.2,3.8c-3.4,3-5.5,6.8-7.2,10.9c-2.2,5-5.4,9.5-9.1,13.5c-0.8,0.8-1.7,1.6-2.8,0.9c-1-0.6-0.4-1.7-0.1-2.5
			c0.8-1.8,1.6-3.6,2.5-5.4c2.2-4.7,4.6-9.4,4.4-14.8c-0.1-2.4-0.6-4.6-2.9-5.7c-2.3-1.1-4.4-0.2-6.3,1.3c-2.6,2-4.5,4.7-7,7.9
			c-0.2-3.9,0.7-7.7-2.8-9.3c-4.4-2-6.9,2.1-10,4.3c-0.6-1.2-1.1-2.3-1.8-3.2c-1.2-1.5-2.9-1.6-4.7-1.4c-1,0.2-1.5,0.6-1.7,1.8
			c-1.3,7.2-4.9,13.5-8.8,19.5c-1.5,2.2-3.2,4.3-4.9,6.3c-0.7,0.8-1.5,1.9-2.6,1.3c-1.6-0.8-0.4-2.2,0-3.1c1.4-3,3-5.9,4.5-8.9
			c1.8-3.6,3.9-7.1,4.2-11.1c0.4-4.8-2.7-7-7.1-5.2c-5.4,2.2-5.5,2.1-5.8-3.4c-0.1-2.2-0.9-4-3.3-4.2c-2.4-0.2-3.6,1.4-4.1,3.6
			c-0.6,2.2,0.1,4,1.6,5.4c1.4,1.3,1.7,2.3,1,4.1c-2.7,6.9-5.9,13.4-10.6,19.2c-0.9,1.1-1.9,2.2-2.9,3.2c-0.6,0.6-1.3,1-2.1,0.4
			c-0.6-0.5-0.4-1.3-0.2-1.8c0.7-1.7,1.5-3.4,2.3-5.1c2-4.1,4.1-8.1,6-12.2c1-2.1,1.4-4.4,0.8-6.6c-0.6-2.2-2.3-3.2-4.5-3.2
			c-1.3,0-2.7-0.1-3.1,1.8c-1.7,9.3-6.4,17.1-12.1,24.4c-1.1,1.4-2.4,4-4.2,2.8c-1.8-1.2,0.3-3.3,1-4.9c2.4-5.3,5.9-10.2,7.4-15.9
			c0.6-2.1,0.9-4.2-0.4-6.1c-1.2-1.8-2.9-2.2-4.9-1.9c-1.1,0.1-2,0.5-2,1.9c-0.1,4-2.5,7.2-3.8,10.8c-0.7,1.9-2.2,2.9-4.1,3.5
			c-2.1,0.7-3.6,0.9-3-2.3c0.4-2-0.2-3.9-2.8-3.9c-2.3,0-3.3,1.6-3.5,3.6c-0.1,1-0.1,2.4,0.5,3c1.7,1.8,0.9,3.3-0.1,4.9
			c-1.1,1.7-2.1,3.4-3.3,5c-1,1.3-2,3.2-4.1,2.5c-2.3-0.7-2.3-2.8-2.1-4.7c0.8-8,4-14.8,9.5-20.6c0.6-0.6,1.3-1.3,2.6-0.9
			c0.3,1.3-1.2,3.2,1.1,4c1.1,0.4,1.9,0.1,2.4-0.8c0.9-1.8,0.2-3.4-0.9-4.8c-1-1.3-2.4-1.7-3.9-1.7c-2.9,0-5.5,0.9-7.8,2.6
			c-5.7,4.1-9.4,9.8-10.1,16.6c-0.5,5.4-3,6.9-7.6,7.1c-0.3,0-0.5,0-0.8,0.1c-2.6,0.8-2.7-0.4-2.1-2.4c1.4-5,2.1-10.2,2.8-15.3
			c0.4-3-0.8-4.1-3.7-4.1c-4,0.1-7.3,0.9-9.7,4.9c-4.3,7.1-9.4,13.6-16.2,18.6c-2.5,1.9-5.5,3.5-8.5,1.8c-3.2-1.7-3.1-5.3-2.5-8.2
			c2.4-12.1,7.5-23,16.3-31.8c2-2,4.7-3.8,7.5-1.7c2.9,2.2,2.4,5.4,1,8.4c-1.6,3.5-1.3,4.3,2.5,4.9c4.2,0.8,6.5-1.8,5.9-6.5
			c-1-7.4-9.3-12.7-16.8-10.8c-13.8,3.6-29.6,27.2-27.6,41.3c0,0.1,0,0.3,0,0.4c1.2,6.9,6.9,10.8,13.8,9.3c4.1-0.9,7.6-3.1,10.9-5.6
			c5.3-3.9,9.1-9.2,13.9-14.8c-0.6,5.6-1.9,10-3.3,14.4c-0.4,1.4-1.7,1.5-2.8,1.9c-4.4,1.6-8.8,3-13.1,4.9
			c-6,2.7-11.7,5.9-15.5,11.6c-2.8,4.2-4.1,8.8-1.2,13.5c2.4,4,7.4,5.2,13.3,3.7c14.6-3.8,23.5-14.1,28.4-27.5
			c2.4-6.6,6.3-8.6,12.4-9c1.7-0.1,2.5,0.2,3.5,1.6c3,4.3,7.2,4.8,11.4,1.8c3-2.1,5.4-5,6.7-8.3c1.6-4.1,4.7-4.2,8.1-4.3
			c-0.4,2.4-1,4.5-1.1,6.6c-0.2,2.8-0.3,5.9,2.8,7.3c3.1,1.4,5.2-0.7,7.4-2.5c1.7-1.4,2.5-3.6,4.7-4.7c0.3,3.1,0.1,6.2,3.4,7.4
			c3.3,1.1,5.6-1.1,7.6-3.3c5.5-5.8,9.6-12.5,12.3-19.9c1.5-4.3,3.8-5.5,8.2-4.4c-1.7,4.2-3.5,8.3-5.1,12.5
			c-1.3,3.2-2.2,6.6-1.9,10.1c0.5,5.1,4.3,6.9,8.4,3.9c1.8-1.3,3.3-3,5.4-4.8c0.2,2.2,0.5,4,1.9,5.4c0.9,0.9,2.1,1.2,3.3,0.9
			c1-0.2,1.4-0.9,1.6-1.9c2-9.2,6.7-17,12.3-24.3c1.1-1.5,2.7-4.2,4.6-2.9c1.8,1.2-0.2,3.6-1,5.3c-2.6,5.4-5.8,10.5-7.4,16.4
			c-0.6,2.2-0.5,4.2,1,6c1.3,1.5,3,1.6,4.8,1.4c2-0.3,1.4-1.9,1.7-3.1c2.8-9.6,8.2-17.8,14.7-25.3c0.6-0.7,1.5-1.3,2.5-0.8
			c1,0.6,0.7,1.7,0.3,2.5c-0.9,2.1-2,4.1-2.9,6.1c-2.1,4.7-4.5,9.4-4.1,14.8c0.1,2.3,1,4.2,3,5.3c2.2,1.1,4.1,0.1,5.9-1.4
			c2.5-2.1,5-4.2,7.1-5.9c2.1,7.9,8.8,10.3,16.3,5c2.3-1.7,4.4-3.7,6.8-5.7c0.1,3.4-0.2,6.9,3.4,8.2c3.6,1.3,6-1.5,8.2-3.8
			c4-4.3,7-9.3,9.6-14.6c0.4-0.9,1.3-2.1-0.2-2.7c-1.1-0.4-1.5,0.8-1.9,1.6c-2.1,4.3-4.7,8.4-7.7,12.1c-1.2,1.5-2.4,4.4-4.3,3.4
			c-2-1-0.1-3.6,0.6-5.2c4.3-9.7,8.8-19.4,13.1-29.1c0.7-1.6,1.9-1.6,3.2-1.7c4.5-0.4,9-0.8,13.3-2.3c1.4-0.5,2.8-1,3.8-2.2
			C281.2,85.9,281.1,84.9,280.4,84.1z M233.1,102.9c0.9-1,2.1-2.3,3.4-1.3c1.2,0.9,0.6,2.5,0.1,3.7c-1.9,4.5-5.1,7.6-10.5,9.8
			C228,110,230.1,106.2,233.1,102.9z M45.9,154.9c-2,1.3-4.1,2.4-6.5,3.1c-5.3,1.5-8.1-1.1-6.9-6.4c0.7-3.4,2.6-6.1,5.2-8.3
			c6.8-5.8,15.1-8.7,24.4-11.8C58.4,141.3,54.1,149.5,45.9,154.9z"/>
		<path class="st0" d="M55.3,65.7c-1.2,5.3,1.7,7.9,6.9,6.4c2.3-0.7,4.5-1.7,6.5-3.1c8.2-5.4,12.5-13.6,16.2-23.5
			c-9.3,3.1-17.6,5.9-24.4,11.8C57.9,59.6,56,62.3,55.3,65.7z"/>
	</g>
	<g>
		<path class="st0" d="M142.6,81c1.1-0.1,2.6,0.4,3.1-1.1c0.6-1.5-0.1-2.9-1.2-4c-1-1-2.2-1.5-3.6-1.4c-2.8-0.1-4.6,1.2-5.3,3.9
			c-0.7,2.7-0.2,5.1,2.3,6.6c2.2,1.3,4.6,1.2,6.7-0.3c0.8-0.5,1.5-1.3,0.8-2.3c-0.7-1-1.4,0-2,0.4c-1.3,0.8-2.6,1.6-4,0.4
			c-0.5-0.4-1.2-1.2-0.6-1.7C139.9,80.5,141.3,81.1,142.6,81z M140.7,76.7c1,0,1.9,0.4,2,1.5c0.2,1.6-1.2,0.9-1.9,1.1
			c-0.7-0.3-2.1,0.5-2-1C138.8,77.3,139.7,76.7,140.7,76.7z"/>
	</g>
	<g>
		<path class="st0" d="M99.5,146.7c-2.1,0-2.5,1.6-2.5,3.3c0,1.5,0.4,3,2.2,3.1c2.1,0.1,2.6-1.3,2.7-3.2
			C101.9,148.4,101.6,146.8,99.5,146.7z"/>
		<path class="st0" d="M180.7,150.8c0-6.2-0.3-6.4-6.3-5.5c-0.8,0.1-1.2-0.3-1.8-0.5c-6.1-1.8-7.9-0.5-7.7,5.7
			c0.1,1.7-1.3,4.8,1.6,4.8c2.5,0,1.2-3,1.5-4.6c0.3-1.4-0.6-3.8,1.9-3.6c2.1,0.1,1.2,2.2,1.4,3.6c0.3,1.7-1,4.7,1.3,4.8
			c3,0.1,1.4-3,1.8-4.7c0.3-1.5-0.4-3.8,1.9-3.6c2,0.1,1.1,2.3,1.4,3.6c0.4,1.7-1.1,4.7,1.3,4.7
			C181.9,155.4,180.1,152.2,180.7,150.8z"/>
		<path class="st0" d="M149.5,149.8c-1.3-0.8-1.8,0.3-2.4,1.3c-1.7,2.5-3.9,2.8-6,0.6c-1.6-1.7-1.2-6.5,0.6-7.8
			c2.3-1.6,4.2-1,5.7,1.3c0.4,0.7,1.1,1.3,2,0.7c1-0.6,0.9-1.6,0.4-2.4c-1.3-2.1-3.1-3.2-4.7-3.2c-5-0.1-8.1,3-8.2,7.3
			c-0.2,4.4,2.5,7.8,6.4,8.2c2.6,0.2,4.8-0.6,6.2-2.8C150.1,152,151,150.7,149.5,149.8z"/>
		<path class="st0" d="M92.2,140.5c-5.7-2-9,0.2-9,6.1c0,0.4,0,0.8,0,1.2c0,1.5-0.1,2.9,0,4.4c0.1,1.3-0.6,3.4,1.7,3.3
			c1.8-0.1,1.4-1.9,1.5-3.1c0.1-1.5-0.6-3.3,2.1-3.3c1.4,0,3.9,0.9,3.8-1.3c-0.1-2-2.6-1-4.1-1.1c-1.3-0.1-1.9-0.5-1.8-1.9
			c0-1.2,0.7-1.6,1.7-1.6c1.3,0,2.6,0,4-0.1c0.7,0,1.2-0.5,1.3-1.3C93.5,141,92.8,140.8,92.2,140.5z"/>
		<path class="st0" d="M199.8,144.3c-2.1,0.3-4.4,0.8-3.7,3.9c1.8,0.7,2.3-1.5,3.7-1.7c0.9-0.2,2-0.3,2.4,0.7
			c0.6,1.4-0.7,1.4-1.5,1.6c-1.3,0.4-2.5,0.6-3.8,0.8c0,0,0,0,0,0c0,0,0,0,0,0c-2.2,2.1-2.4,4.2,0.5,5.7c2.5,1.3,5.2-1.5,7.8,0
			c0,0,0.6-0.6,0.6-0.9c-0.1-2.6,0-5.4-0.6-7.9C204.4,144.1,201.9,144.1,199.8,144.3z M199.9,153.6c-0.9,0.1-1.6-0.5-1.5-1.4
			c0.2-1.6,1.7-1.4,2.8-1.7c0.7-0.2,1.3,0.1,1.2,1.1C202.1,152.9,201.2,153.6,199.9,153.6z"/>
		<path class="st0" d="M228.8,144.6c-1.3-0.5-1.6,0.6-2,1.3c-0.8,1.6-0.9,3.6-2.4,5.4c-0.8-2.1-1.4-3.9-2.1-5.6
			c-0.3-0.8-0.8-1.5-1.8-1.2c-1,0.4-1.3,1.2-0.9,2.3c0.9,2.2,1.9,4.4,2.7,6.7c0.6,1.7,1.1,3.5-1.6,3.9c-0.7,0.1-1.4,0.3-1.3,1.1
			c0.1,1,1,1.2,1.7,1.3c1.6,0.2,3.1-0.2,3.7-1.7c1.7-3.8,3.1-7.6,4.6-11.5C229.8,145.9,229.8,145,228.8,144.6z"/>
		<path class="st0" d="M157.3,144.3c-3.4,0-5.6,2.5-5.4,6c0.1,3.2,2.5,5.6,5.6,5.5c3.2-0.1,5.7-2.8,5.5-6.1
			C162.9,146.6,160.4,144.2,157.3,144.3z M157.4,153.3c-1.9,0-2.3-1.4-2.4-3c0-1.7,0.2-3.2,2.3-3.6c2,0.2,2.6,1.5,2.6,3.3
			C159.9,151.7,159.4,153.2,157.4,153.3z"/>
		<path class="st0" d="M99.7,144.3c-3.1-0.1-5.6,2.3-5.8,5.4c-0.2,3.2,2.4,6.1,5.5,6.1c3.2,0,5.6-2.2,5.7-5.4
			C105.3,146.9,103,144.4,99.7,144.3z M99.3,153.2c-1.9-0.1-2.3-1.6-2.2-3.1c0-1.7,0.4-3.4,2.5-3.3c2,0,2.4,1.7,2.5,3.2
			C101.9,151.9,101.4,153.3,99.3,153.2z"/>
		<path class="st0" d="M111.7,144.3c-3.1,0.1-5.4,2.5-5.4,5.8c0,3.2,2.4,5.6,5.5,5.7c3.2,0.1,5.9-2.5,5.8-5.8
			C117.6,146.8,114.9,144.2,111.7,144.3z M111.7,153.2c-1.9-0.2-2.2-1.6-2.2-3.2c0-1.8,0.5-3.3,2.5-3.3c2.1,0,2.3,1.8,2.5,3.1
			C114.3,151.9,113.8,153.4,111.7,153.2z"/>
		<path class="st0" d="M217,145.7c-1.7-2.4-4-1.3-6.1-0.5c-0.2,0.1-0.4-0.3-0.7-0.4c-1.7-0.9-2.1,0.2-2.3,1.5c-0.1,1.2,0,2.4,0,3.6
			c0,0,0,0,0,0c0,1.1,0,2.1,0,3.2c0,1,0,2.4,1.4,2.4c1.4,0,1.6-1.2,1.6-2.3c0-1.3,0-2.7,0.1-4c0.1-1.4,0.7-2.4,2.1-2.4
			c1.4,0,1.5,1.2,1.5,2.3c0,1.5,0,2.9,0.1,4.4c0,1,0.4,1.9,1.6,1.9c1.2,0,1.5-1,1.4-2C217.7,150.9,218.6,148.1,217,145.7z"/>
		<path class="st0" d="M189.9,144.4c-5.6-1.1-7.1,0.2-7.1,6c0,1.5-0.1,2.9,0,4.4c0.2,1.7-1,4.6,1.4,4.7c2.7,0.1,0.6-3.1,1.9-4.6
			c0.5,0.2,1.1,0.4,1.7,0.6c3.3,0.9,5-0.8,5.8-3.7C194.5,148.1,192.9,145,189.9,144.4z M188.7,153.3c-1.9,0-2.3-1.4-2.4-3
			c0-1.7,0.2-3.2,2.3-3.6c2,0.2,2.6,1.5,2.6,3.3C191.3,151.7,190.8,153.2,188.7,153.3z"/>
		<g>
			<path class="st0" d="M129.6,150.5c0.1-0.8,0-1.6,0-2.4c0,0,0,0,0,0c0-2,0-4,0-6c0-0.9-0.3-1.6-1.2-1.8c-0.4-0.1-1.3,0.4-1.3,0.7
				c0.2,3.8-2.2,3.6-4.9,3.5c-1.1,0-2.2,0.9-2.8,2.1c-1.3,2.4-1.1,4.8,0.3,7.1c2.4,3.8,6,0.9,9,1.3
				C130.2,155.3,129.4,152.2,129.6,150.5z M123.9,153.3c-1.9-0.2-2.2-1.6-2.2-3.2c0-1.8,0.5-3.3,2.5-3.3c2.1,0,2.3,1.8,2.5,3.1
				C126.5,151.9,126,153.5,123.9,153.3z"/>
		</g>
	</g>
</g>
</svg>
