<?xml version="1.0" encoding="utf-8"?>
<!-- Generator: Adobe Illustrator 24.3.0, SVG Export Plug-In . SVG Version: 6.00 Build 0)  -->
<svg version="1.1" id="Layer_1" xmlns="http://www.w3.org/2000/svg" xmlns:xlink="http://www.w3.org/1999/xlink" x="0px" y="0px"
	 viewBox="0 0 585.2 179.4" style="enable-background:new 0 0 585.2 179.4;" xml:space="preserve">
<style type="text/css">
	.st0{fill:#343434;}
</style>
<g>
	<path class="st0" d="M92,62.5c-2.9-0.4-5.5-0.7-8.1-1.2c-0.4-0.1-0.9-0.8-1-1.3c-0.9-3.9-1.9-7.7-2.6-11.6
		c-0.4-2.1-1.5-3.6-3.2-4.8c-4.7-3.2-9.9-4.3-15.4-3.8c-10.6,1-16.9,7.3-19.7,17.1c-2.8,9.9-2.5,19.8,1.1,29.5
		c4.5,12.1,15.3,18.9,28.3,18.3c7.6-0.3,14.2-3.1,20.5-7.2c0.5-0.3,0.9-0.6,1.6-1c1,2.3,2.1,4.4,3,6.6c0.2,0.5-0.5,1.4-1,1.9
		c-4.6,4.4-10,7.4-15.9,9.4c-11.9,4.1-23.9,3.8-35.6-0.6c-12.3-4.6-19.9-13.5-22.9-26.2c-2.8-12-1.3-23.7,4.5-34.5
		c6.9-12.8,17.9-19.9,32.1-22.1c10.2-1.6,20.2-0.9,30,2.6c2,0.7,4.2,1.6,5.8,3c1.9,1.7,0.4,4.1,0.3,6.1C93.2,49.3,92.5,55.7,92,62.5
		z"/>
	<path class="st0" d="M380.6,103.8c2.9,1,5.6,2,8.4,2.9c1.1,0.3,1.5,0.9,1.3,2c-0.3,1.8-0.4,3.7-0.8,5.5c-0.1,0.5-0.8,1.2-1.2,1.2
		c-9.5,0-18.9,0-28.4,0c0,0-0.1-0.1-0.1-0.1c0-2.3-0.2-4.7,0.1-7c0.1-0.9,1.3-1.9,2.3-2.5c2-1.2,2.5-2.9,2.4-5.1
		c-0.2-5.8,0-11.6-0.1-17.4c0-1.7-0.1-3.5-0.3-5.2c-0.7-5.9-5-9.1-10.9-8.1c-1.3,0.2-2.6,0.6-3.7,1.1c-3,1.3-5,3-4.8,7.1
		c0.4,8.5,0.1,17,0.1,25.7c2.6,1,5.1,2,7.7,2.8c1,0.3,1.4,0.8,1.2,1.9c-0.4,1.9-0.7,3.9-1.1,5.9c-0.1,0.4-0.7,1-1.1,1
		c-11.1,0-22.3,0-33.4,0c-0.1,0-0.2-0.1-0.4-0.2c0.2-2.1,0.4-4.3,0.8-6.4c0.1-0.6,0.8-1.4,1.4-1.6c2.8-1.2,5.6-2.3,8.5-3.4
		c0-8.2,0-16.2,0-24.3c0-2.7-0.1-5.4,0-8c0-1.1-0.4-1.6-1.4-2.1c-2.5-1.1-5-2.2-7.5-3.4c-0.5-0.2-1-1.1-0.9-1.6
		c0.2-2,0.4-4.1,0.9-6.1c0.1-0.5,0.9-1.1,1.5-1.1c5.9-0.7,11.9-1.2,17.8-1.8c1-0.1,2-0.2,3-0.3c2.2-0.2,3.5,1.2,3.1,3.4
		c-0.3,2.1-0.6,4.1-1,6.2c0.2,0.1,0.3,0.2,0.5,0.3c0.7-0.7,1.4-1.4,2.1-2.1c3.7-3.5,7.6-6.7,12.7-7.9c6.5-1.4,12.6-1,17.3,4.4
		c3.4,3.8,4.1,8.5,4.2,13.4c0.1,9.6,0,19.3,0,29C380.6,102.3,380.6,102.9,380.6,103.8z"/>
	<path class="st0" d="M135.9,67.2c0.5-3.2,0.9-6.1,1.4-9c0.1-0.5,0.8-1.2,1.4-1.2c6.5-0.8,13.1-1.5,19.6-2.2c1.4-0.1,3.5,2,3.6,3.6
		c0.1,2.2,0,4.4,0,6.5c0,10.2,0,20.4,0,30.6c0,6.2,1.3,8,7.2,9.9c1.1,0.3,2.1,0.6,3.4,1c-0.4,2.6-0.7,5.3-1.1,7.9
		c-0.1,0.3-0.4,0.8-0.8,0.9c-5.2,1.9-10.6,3-16.1,2.1c-5.2-0.9-7.6-3.7-8.2-8.9c0-0.4-0.1-0.8-0.3-1.7c-0.6,0.7-1,1.1-1.3,1.5
		c-5.8,7.7-13.5,10.5-22.8,8.9c-5.6-1-9.1-4.4-10.4-9.9c-0.7-3-1.1-6.1-1.1-9.2c-0.1-8.5-0.1-16.9,0-25.4c0-1.3-0.4-2-1.5-2.7
		c-2.1-1.2-4.2-2.5-6.2-3.8c-0.5-0.3-0.9-1.2-0.8-1.7c0.3-2.2,0.8-4.3,1.1-6.4c0.2-1,0.6-1.5,1.7-1.5c6.2-0.4,12.4-0.8,18.6-1.2
		c2-0.1,4,1.9,4,3.9c0,10.3-0.1,20.5,0,30.8c0,2.3,0.4,4.6,1,6.8c0.9,3.5,3.3,5.2,6.9,5.1c1.8-0.1,3.6-0.4,5.2-1
		c3.2-1.2,5-3.1,4.8-7c-0.4-6.9-0.1-13.9-0.1-20.9c0-1.1-0.3-1.6-1.3-2C141.2,69.5,138.6,68.3,135.9,67.2z"/>
	<path class="st0" d="M413.9,88.5c-0.8,8.2,5.5,15.4,13.9,16.1c4.9,0.4,9.8-0.5,17.4-3.2c0.4,2.3,0.9,4.5,1.1,6.8
		c0.1,0.6-0.5,1.5-1,2c-4.7,4.2-10.4,6.2-16.5,7.1c-7.4,1.1-14.5,0.3-20.8-4.2c-6.1-4.4-9.4-10.5-10.6-17.8
		c-1.5-8.6-1.1-17.1,3.1-25.1c4.6-8.7,11.5-14.6,21.4-16.3c11.5-2,20.3,4.3,22.6,15.8c1.2,5.7,0.4,11.4-0.5,17c-0.1,0.4-1,1-1.6,1
		c-3.9,0.2-7.7,0.2-11.6,0.3c-5.2,0.1-10.4,0.2-15.7,0.4C414.7,88.3,414.3,88.4,413.9,88.5z M429,79.6c0.2-1.4,0.4-2.5,0.4-3.6
		c0-2.9-0.2-5.7-1.8-8.3c-2-3.3-6.5-4-9.2-1.4c-4.2,4-4.7,9.3-5,14.8C418.8,80.6,423.8,80.1,429,79.6z"/>
	<path class="st0" d="M458.8,142c34.4,0,68.7,0,103.1,0c0.7,0,1.4,0,2.1,0c2.5,0.2,4.2,2.1,4.2,4.4c0,2.3-1.8,4-4.4,4.2
		c-0.6,0-1.1,0-1.7,0c-69,0-138,0-207.1,0c-0.6,0-1.1,0-1.7,0c-2.3-0.2-4.2-2-4.2-4.2c-0.1-2.2,1.7-4.1,4-4.4
		c0.7-0.1,1.5-0.1,2.2-0.1C389.9,142,424.4,142,458.8,142z"/>
	<path class="st0" d="M231.3,95c1.5,3.1,2.5,5.9,4,8.3c3.2,5.2,7.9,6.9,13.3,5.1c3.6-1.2,4.9-5.1,2.2-7.8c-1.8-1.8-4.1-3.2-6.3-4.5
		c-3.9-2.4-8.1-4.4-12-6.8c-4.3-2.7-7.8-6.3-9.2-11.3c-2.1-7.7,1.4-16.1,8.6-20.8c5.4-3.5,11.5-4.3,17.7-3.5
		c3.5,0.4,6.9,1.4,10.2,2.7c3.7,1.5,5.7,4.6,5.6,8.7c-0.1,4.2-2.3,7.1-6,8.9c-4.4,2.2-5,1.8-6.5-2.7c-0.6-2-1.3-4-2.4-5.8
		c-1.9-3.1-5.8-4.6-9.2-3.8c-4.6,1-6.6,6.3-3.3,9.6c2.1,2.2,4.9,3.8,7.5,5.4c4.1,2.5,8.4,4.6,12.4,7.1c4.2,2.7,7.5,6.2,8.7,11.3
		c1.7,7.2-0.9,14-7.3,18c-10.5,6.5-21.5,6.6-32.5,1c-1.4-0.7-2.7-1.8-3.7-3c-4-4.5-2.9-11.2,2.4-14C227.3,96.1,229.4,95.7,231.3,95z
		"/>
	<path class="st0" d="M533.2,91c3.1-3.1,6.1-6.2,9.1-9.2c2.8-2.8,6.2-3.7,9.9-2.4c3.8,1.3,5.9,4.1,6.3,8c0.3,2.8-0.5,5.3-2.5,7.3
		c-6.3,6.4-12.7,12.7-19,19c-1.9,1.9-4.3,2.7-7,2.7c-20.5,0-41.1,0-61.6,0c-2.7,0-3.9-1.2-3.9-3.9c0-7.9,0-15.8,0-23.7
		c0-2.7,1.2-3.8,3.9-3.8c3.2,0,6.5,0.1,9.7,0c0.8,0,1.8-0.4,2.4-1c8.4-8.3,21.3-8.8,30.2-0.9c1.5,1.4,3.1,2.1,5.2,2
		c2.5-0.2,5.1,0,7.7,0c4-0.1,7.1,1.6,9,5.1C532.7,90.5,532.9,90.7,533.2,91z M483.7,110.1c0.7,0.1,1.1,0.1,1.4,0.1
		c14.8,0,29.6,0,44.4-0.1c1.2,0,2.7-0.7,3.6-1.6c5-4.8,9.9-9.8,14.8-14.7c1.1-1.1,2.4-2.1,3.2-3.4c0.6-0.9,0.8-2.3,0.5-3.2
		c-0.2-0.8-1.5-1.7-2.3-1.7c-1,0-2.2,0.7-3,1.4c-5.1,5-10.2,10-15.2,15.2c-1.3,1.4-2.7,2-4.6,1.9c-4.7-0.1-9.5-0.1-14.2,0
		c-1.2,0-2.5,0.7-3.4,1.4c-1.6,1.3-3.3,1.6-4.7,0.4c-1.4-1.3-1.5-3.2-0.1-4.8c1.9-2.2,4.3-3.3,7.2-3.3c4.2,0,8.3,0,12.5-0.1
		c2,0,3.3-1.4,3.3-3.1c-0.1-1.7-1.5-2.9-3.4-2.9c-2.6,0-5.2-0.2-7.8,0c-3.8,0.3-6.8-1.1-9.6-3.6c-6.1-5.6-15.4-5.1-21.2,0.7
		c-1,1-1.5,2-1.4,3.4c0.1,2.6,0,5.2,0,7.8C483.7,103.3,483.7,106.6,483.7,110.1z M471.1,91.6c0,6.2,0,12.3,0,18.4c2.1,0,4.1,0,6.1,0
		c0-6.2,0-12.3,0-18.4C475.1,91.6,473.2,91.6,471.1,91.6z"/>
	<path class="st0" d="M464.4,66.5c3.2-23.2,16.1-37.5,38.6-43.5c-1.5-4.7-0.5-8.8,3.9-11.6c3.3-2.1,6.9-2.1,10.2,0.2
		c4.1,2.8,4.8,6.8,3.6,11.6c10.4,2.2,19.3,7.2,26.3,15.2c7,8,10.8,17.3,11.7,28.1c1.1,0,2.1,0,3.2,0c1.8,0.1,3,1.3,3.1,3.1
		c0,1.9-1.1,3.2-3,3.3c-0.6,0-1.1,0-1.7,0c-32.4,0-64.7,0-97.1,0c-0.4,0-0.7,0-1.1,0c-2.1-0.1-3.6-1.4-3.5-3.3
		c0-1.9,1.5-3.1,3.6-3.1C462.7,66.5,463.5,66.5,464.4,66.5z M551.9,66.4c-1.2-19.1-17.2-37.1-39.3-37.6
		c-23.5-0.5-40.5,19.2-41.4,37.6C498.1,66.4,524.9,66.4,551.9,66.4z M514.7,19.3c0-1.6-1.4-2.9-3-2.9c-1.6,0-3,1.4-3,3
		c0,1.6,1.5,3.1,3.2,3C513.5,22.4,514.8,21,514.7,19.3z"/>
	<path class="st0" d="M300.2,103.7c3.3,0.9,6.4,1.8,9.4,2.8c0.5,0.2,1.2,0.8,1.2,1.2c-0.1,2.5-0.4,5-0.6,7.7c-12.4,0-24.7,0-37.3,0
		c0.2-2.7,0.4-5.4,0.7-8.1c0-0.3,0.7-0.7,1.2-0.9c2.9-0.9,5.8-1.8,8.8-2.7c0-0.5,0.1-1.1,0.1-1.6c0-10.1,0-20.2,0-30.2
		c0-1.2-0.3-1.9-1.5-2.5c-2.4-1.2-4.8-2.7-7.2-3.9c-1-0.5-1.3-1.2-1.1-2.2c0.4-1.9,0.6-3.9,1.1-5.8c0.1-0.5,0.9-1.2,1.4-1.3
		c6.6-0.6,13.1-1,19.7-1.5c1.8-0.1,3.9,2.2,3.9,4.3c0,14.1,0,28.2,0,42.4C300.2,102,300.2,102.8,300.2,103.7z"/>
	<path class="st0" d="M213.2,115.4c-12.4,0-24.7,0-37.2,0c0.2-2.7,0.3-5.3,0.6-7.9c0-0.4,0.7-0.9,1.2-1.1c2.5-0.8,5-1.5,7.5-2.2
		c1.1-0.3,1.6-0.7,1.6-2c-0.1-10.1-0.1-20.3,0-30.4c0-1.2-0.4-1.8-1.4-2.3c-2.5-1.3-5-2.7-7.5-4.1c-0.8-0.4-1.1-0.9-0.9-1.9
		c0.4-1.8,0.7-3.7,1-5.5c0.2-1.3,0.6-1.9,2.1-1.9c6.2-0.3,12.4-0.9,18.6-1.3c2.3-0.2,4.4,1.7,4.4,4.1c0,14.2,0,28.5,0,42.7
		c0,1.7,0.4,2.4,2.1,2.8c2.5,0.6,5,1.3,7.5,2.2c0.5,0.2,1.2,0.9,1.2,1.4C213.8,110.4,213.5,112.8,213.2,115.4z"/>
	<path class="st0" d="M194,47.1c-1.9-0.4-3.8-0.6-5.6-1.1c-3.6-1.2-6-4.5-6-8.4c-0.1-3.7,1.8-6.3,5.1-7.8c5.4-2.3,10.7-2.2,15.6,1.3
		c4.4,3.1,4.4,9.5,0.3,12.9C200.9,46,198.1,46.8,194,47.1z"/>
	<path class="st0" d="M290.8,47.3c-2.3-0.7-4.7-1-6.8-2c-3.2-1.6-4.7-4.5-4.7-8.1c0.1-3.5,1.9-5.9,5-7.3c4.7-2.2,9.6-2.2,14.2,0.2
		c6.2,3.2,6.4,11.1,0.5,14.8C296.7,46.3,294.5,46.9,290.8,47.3z"/>
	<path class="st0" d="M79.6,142.7c0.9-0.5,1.6-1,2.4-1.4c0.4,0.8,1,1.5,1,2.3c0.1,3.5,0.1,7.1,0,10.6c0,5.6-3.8,8.6-9.2,7.4
		c-1-0.2-1.9-0.5-2.8-1c-0.4-0.3-0.5-1.1-0.8-1.6c0.6-0.2,1.2-0.6,1.8-0.5c1.3,0.1,2.5,0.7,3.8,0.8c3,0.1,4.4-1.5,4.3-4.2
		c-1.8,0.5-3.6,1.3-5.4,1.4c-2,0.1-3.8-1.1-5-2.9c-2.2-3.2-1.8-7.9,0.8-10.5C73.1,140.5,76.5,140.5,79.6,142.7z M80.3,148.7
		c0-3-1.9-5.1-4.5-5.1c-2.7,0-4.7,2.2-4.7,5.2c0,3,2,5.2,4.7,5.2C78.5,153.9,80.3,151.9,80.3,148.7z"/>
	<path class="st0" d="M156.4,148.6c0,2.1,0.1,3.9-0.1,5.7c-0.1,0.7-0.8,1.3-1.2,1.9c-0.5-0.6-1.5-1.2-1.5-1.9
		c-0.1-5.3-0.1-10.6-0.1-15.9c0-1.5,0.7-2.1,2.2-2.1c2.1,0.1,4.1,0,6.2,0c3.2,0,5.2,1.2,6.1,3.6c1,2.6,0.3,4.9-1.8,6.8
		c0.6,2,1.1,3.8,1.7,5.5c0.2,0.6,0.6,1.2,0.8,1.8c0.2,0.5,0.4,1.5,0.2,1.6c-0.5,0.3-1.3,0.5-1.8,0.3c-1.7-0.7-1.9-2.4-2.1-3.9
		c-0.4-3.1-0.7-3.4-3.8-3.4C159.7,148.6,158.2,148.6,156.4,148.6z M156.5,146.1c2.2,0,4.3,0.1,6.4,0c1.6-0.1,2.6-1.8,2.6-3.8
		c0-1.8-1-3-2.6-3.1c-2.1-0.1-4.2,0-6.4,0C156.5,141.5,156.5,143.7,156.5,146.1z"/>
	<path class="st0" d="M25.4,139.1c0,2,0,3.7,0,5.6c2.1,0,4,0,6,0c1,0,2.2-0.1,2.2,1.4c0,1.5-1.2,1.4-2.2,1.4c-2,0-3.9,0-6,0
		c0,2.1,0,3.9,0,6.1c2.2,0,4.4,0,6.6,0c0.6,0,1.2-0.2,1.7,0.1c0.5,0.3,0.9,0.9,1.3,1.3c-0.5,0.4-0.9,1.2-1.4,1.2
		c-3.3,0.1-6.6,0.1-9.9,0c-0.5,0-1.3-1-1.3-1.6c-0.1-5.5-0.1-10.9,0-16.4c0-1.1,0.7-1.7,1.8-1.7c3,0,6.1-0.1,9.1,0.1
		c0.6,0,1.1,0.9,1.7,1.3c-0.6,0.4-1.1,1.2-1.7,1.2C30.7,139.2,28.1,139.1,25.4,139.1z"/>
	<path class="st0" d="M233.6,142.5c0.9-0.5,1.7-0.8,2.4-1.2c0.3,0.8,0.9,1.6,1,2.4c0.1,3.4,0.1,6.7,0,10.1c0,0.8-0.6,1.6-0.9,2.4
		c-0.8-0.3-1.5-0.7-2.5-1.1c-3.4,2.1-6.7,2-9-0.7c-2.5-2.9-2.5-8-0.1-10.9C226.9,140.6,230.2,140.4,233.6,142.5z M225.5,148.8
		c0,3.1,1.8,5.2,4.4,5.2c2.6,0,4.5-2.1,4.5-5.1c0-2.8-2-5.2-4.5-5.2C227.3,143.6,225.5,145.7,225.5,148.8z"/>
	<path class="st0" d="M99.5,142.5c1-0.5,1.7-0.8,2.4-1.2c0.4,0.8,1,1.5,1.1,2.3c0.1,3.5,0.1,7,0,10.5c0,0.7-0.5,1.8-1.1,2.1
		c-0.4,0.2-1.3-0.5-2.4-1c-1.2,0.9-3,2.1-5.2,1.3c-1.4-0.5-2.9-1.2-3.9-2.3c-2.6-2.9-2.3-8,0.2-10.8C93,140.6,96.2,140.4,99.5,142.5
		z M91.4,148.8c0,3.1,1.8,5.2,4.4,5.2c2.6,0,4.5-2.1,4.6-5.1c0-2.8-2-5.2-4.5-5.2C93.2,143.6,91.4,145.7,91.4,148.8z"/>
	<path class="st0" d="M286.7,142.5c0.9-0.5,1.7-0.8,2.4-1.2c0.3,0.8,0.9,1.6,1,2.4c0.1,3.4,0.1,6.7,0,10.1c0,0.8-0.6,1.6-0.9,2.4
		c-0.8-0.4-1.5-0.7-2.5-1.1c-3.3,2.1-6.5,2-8.9-0.6c-2.6-2.9-2.7-8-0.2-11C280,140.7,283.2,140.4,286.7,142.5z M278.5,148.8
		c0,3.1,1.8,5.1,4.4,5.1c2.6,0,4.5-2.2,4.5-5.1c0-2.8-2-5.2-4.5-5.2C280.4,143.6,278.5,145.8,278.5,148.8z"/>
	<path class="st0" d="M177,149.5c0,3.4,3.5,5.4,6.7,4.1c0.4-0.2,0.7-0.5,1.1-0.6c0.7-0.1,1.4-0.1,2.1-0.2c-0.3,0.7-0.3,1.7-0.8,2.2
		c-3.8,3.2-10,1.5-11.7-3.2c-2-5.7,2.1-11.3,7.6-10.5c3.1,0.4,5.8,3.5,5.9,6.6c0,1.3-0.6,1.8-1.9,1.7
		C183.1,149.5,180.1,149.5,177,149.5z M185,147.2c-0.4-2.3-1.7-3.5-3.8-3.6c-2.1-0.1-3.6,1.2-4.1,3.5c0.3,0,0.6,0.1,0.9,0.1
		C180.3,147.2,182.6,147.2,185,147.2z"/>
	<path class="st0" d="M52.4,149.5c0.2,4,4.8,5.6,7.6,3.6c0.2-0.1,0.4-0.4,0.6-0.4c0.6,0,1.2,0,1.9,0c-0.2,0.7-0.1,1.5-0.5,1.9
		c-2.6,2.6-7.9,2.3-10.5-0.5c-2.2-2.3-2.6-6.4-1-9.4c1.4-2.7,4.1-4.1,7.1-3.6c2.9,0.4,5.4,3.1,5.8,6c0.2,1.6-0.3,2.3-2,2.3
		C58.4,149.5,55.5,149.5,52.4,149.5z M60.4,147.1c-0.2-2.2-1.8-3.6-4-3.5c-2.1,0-3.6,1.4-3.8,3.5C55.2,147.1,57.8,147.1,60.4,147.1z
		"/>
	<path class="st0" d="M112.9,142.8c0.8-0.4,1.8-1.2,2.8-1.5c3.6-1,6.3,1,6.6,4.9c0.2,2.7,0.1,5.5,0,8.2c0,0.6-0.8,1.2-1.2,1.8
		c-0.5-0.6-1.4-1.1-1.5-1.7c-0.2-2.3-0.1-4.7-0.1-7.1c0-2.6-0.9-3.8-3-3.8c-2.2,0-4,1.5-4.1,3.7c-0.1,2.2,0,4.4,0,6.5
		c0,1,0.2,2.3-1.4,2.3c-1.4,0-1.3-1.2-1.3-2.2c0-3.5-0.1-7,0.1-10.4c0-0.7,0.7-1.4,1.1-2.1C111.5,141.9,112.2,142.3,112.9,142.8z"/>
	<path class="st0" d="M300.1,142.9c1.1-1.2,2.8-2,5-1.8c2.2,0.3,3.8,1.5,4,3.7c0.3,3.3,0.3,6.6,0.2,9.9c0,0.5-0.9,1-1.3,1.5
		c-0.5-0.5-1.3-1.1-1.4-1.7c-0.2-2.4-0.1-4.9-0.1-7.3c0-2.5-0.9-3.6-3-3.7c-2.2-0.1-4,1.5-4.1,3.7c-0.1,2.2,0,4.5,0,6.7
		c0,1,0,2.1-1.4,2.2c-1.3,0-1.3-1.1-1.3-2c0-3.5-0.1-7.1,0-10.6c0-0.7,0.7-1.4,1.1-2.1C298.6,141.9,299.2,142.3,300.1,142.9z"/>
	<path class="st0" d="M255.8,147.2c0,1.2,0,2.4,0,3.5c-0.1,3.4-2.2,5.5-5.8,5.8c-3.5,0.2-6.2-1.8-6.5-5c-0.2-2.8-0.2-5.7,0-8.6
		c0-0.5,0.8-1,1.3-1.5c0.5,0.6,1.3,1.1,1.3,1.7c0.2,2.4,0,4.7,0.1,7.1c0.1,2.6,1.2,3.7,3.4,3.8c2.3,0,3.5-1.2,3.6-3.6
		c0.1-2.3,0-4.6,0-6.9c0-1,0.2-2,1.4-2c1.3,0,1.3,1,1.3,2C255.8,144.8,255.8,146,255.8,147.2z"/>
	<path class="st0" d="M198.5,157.1c-1.7-0.9-3.5-1.7-5.1-2.8c-0.4-0.2-0.2-1.2-0.3-1.9c0.7,0,1.4,0,2,0.2c1.3,0.5,2.5,1.4,3.8,1.7
		c1.1,0.2,2.5-0.1,2.7-1.6c0.3-1.5-0.9-1.9-2-2.3c-1.3-0.5-2.6-0.8-3.9-1.3c-1.5-0.7-2.5-1.8-2.4-3.6c0-1.8,1-2.9,2.4-3.7
		c2.2-1.1,5.8-0.7,7.3,1c0.4,0.4,0.3,1.3,0.5,1.9c-0.7,0-1.3,0-2-0.1c-1.2-0.3-2.4-0.9-3.6-1c-0.6,0-1.7,0.7-1.8,1.3
		c-0.1,0.5,0.6,1.5,1.2,1.9c0.8,0.5,1.8,0.7,2.8,1c3.2,1,4.4,2.5,4.1,4.9c-0.3,2.2-2.6,3.8-5.5,3.8
		C198.7,156.7,198.6,156.9,198.5,157.1z"/>
	<path class="st0" d="M129.7,144.7c-0.7-0.6-1.4-1.3-2.1-1.9c0.8-0.5,1.5-1,2.3-1.6c1-0.7-0.4-3.2,1.9-3.2c2.2,0,1,2.3,1.5,3.4
		c1,0.8,3.2-0.8,3.2,1.4c0,2-2,1-3.3,1.6c0,2.7,0,5.6,0.1,8.5c0,0.3,1,0.6,1.5,0.8c0.5,0.2,1,0.5,1.5,0.7c-0.3,0.5-0.5,1.3-1,1.5
		c-2.3,1.2-4.7-0.4-4.8-3c-0.1-2.8,0-5.7,0-8.5C130.1,144.5,129.9,144.6,129.7,144.7z"/>
	<path class="st0" d="M210.9,144.7c-0.7-0.6-1.5-1.2-2.2-1.9c0.7-0.5,1.5-1.1,2.2-1.6c0.2,0.1,0.3,0.3,0.5,0.4
		c0-0.7-0.1-1.5,0.1-2.1c0.2-0.6,0.8-1,1.3-1.5c0.5,0.5,1.1,0.9,1.4,1.4c0.2,0.6,0.1,1.3,0.1,1.9c1.1,1,3.5-0.6,3.4,1.7
		c0,0.6-1.9,1.1-3.3,1.9c0,2.2-0.1,5,0.1,7.8c0,0.4,0.9,0.8,1.5,1.1c0.5,0.3,1,0.5,1.5,0.8c-0.4,0.5-0.6,1.2-1.1,1.5
		c-2.4,1.1-4.7-0.5-4.7-3.2c-0.1-2.8,0-5.6,0-8.4C211.2,144.5,211.1,144.6,210.9,144.7z"/>
	<path class="st0" d="M320.3,144.9c0,2.2,0,4.9,0,7.5c0,1,0.5,1.4,1.5,1.4c0.5,0,1,0.5,1.6,0.7c-0.4,0.5-0.7,1.3-1.3,1.5
		c-2.4,0.9-4.5-0.6-4.6-3.2c-0.1-2.8,0-5.6,0-8.4c-1-0.7-3,0.1-2.7-1.8c0.1-0.6,1.4-0.9,2.2-1.4c0.1,0.1,0.3,0.2,0.4,0.3
		c0-0.5,0.1-1.1,0.1-1.6c0-1,0.1-2,1.3-2c1.4,0,1.4,1.1,1.5,2.1c0,0.4,0,0.9,0.1,1.3c1,0.9,3.4-0.7,3.3,1.6
		C323.6,143.5,321.8,144.1,320.3,144.9z"/>
	<path class="st0" d="M41.1,145.6c0-2.6,0-5.2,0-7.8c0-1.1,0-2.3,1.4-2.3c1.4,0,1.3,1.2,1.3,2.2c0,5.5,0,11,0,16.4
		c0,1,0,2.2-1.4,2.1c-1.4,0-1.3-1.2-1.4-2.2C41.1,151.2,41.1,148.4,41.1,145.6z"/>
	<path class="st0" d="M265.7,142.8c1.3-0.5,2.7-1.2,4.2-1.6c0.5-0.1,1.3,0.4,1.7,0.8c0.2,0.2,0.1,1.2-0.1,1.3
		c-0.5,0.3-1.2,0.5-1.8,0.4c-2.2-0.3-4.1,1.2-4.3,3.8c-0.1,2.2-0.1,4.4-0.1,6.5c0,1,0,2.2-1.4,2.2c-1.5,0-1.5-1.2-1.5-2.3
		c0-3.4-0.1-6.7,0.1-10.1c0-0.8,0.8-1.6,1.2-2.4C264.4,141.9,265.1,142.4,265.7,142.8z"/>
</g>
</svg>
