<?xml version="1.0" encoding="utf-8"?>
<!-- Generator: Adobe Illustrator 24.3.0, SVG Export Plug-In . SVG Version: 6.00 Build 0)  -->
<svg version="1.1" id="Layer_1" xmlns="http://www.w3.org/2000/svg" xmlns:xlink="http://www.w3.org/1999/xlink" x="0px" y="0px"
	 viewBox="0 0 422.8 179.4" style="enable-background:new 0 0 422.8 179.4;" xml:space="preserve">
<style type="text/css">
	.st0{fill:#414143;}
	.st1{fill:#424244;}
	.st2{fill:#E92328;}
	.st3{fill:#434343;}
	.st4{fill:#434344;}
	.st5{fill:#EA242A;}
	.st6{fill:#E9272B;}
	.st7{fill:#464646;}
	.st8{fill:#454444;}
	.st9{fill:#E9262B;}
	.st10{fill:#E92429;}
	.st11{fill:#4A4949;}
	.st12{fill:#EB2027;}
	.st13{fill:#EA2128;}
	.st14{fill:#EA2228;}
	.st15{fill:#454445;}
	.st16{fill:#E82E30;}
	.st17{fill:#E82E2F;}
	.st18{fill:#E82B2F;}
	.st19{fill:#E72C31;}
	.st20{fill:#E43535;}
	.st21{fill:#E7524E;}
</style>
<g>
	<path class="st0" d="M121.8,6.8c36.9,0,68.3,27.8,72.9,64.4c0.3,2.1-0.4,2.2-2.1,2.4c-3.5,0.4-5.1-0.4-5.9-4.4
		C181.4,40,159,18.4,129.9,14.7c-10.5-1.3-21-0.3-31.1,3.6c-2.7,1-6.6-1.7-6.6-4.6c0-1.4,1.3-1.2,2.2-1.6
		C103.1,8.4,112.3,6.8,121.8,6.8z"/>
	<path class="st1" d="M96.3,149.8c-6.2-1.9-11.5-4.8-16.4-8.3c-18.4-12.9-29.1-30.4-31.6-52.8c-0.2-1.4-1.2-3.7,1.8-3.4
		c2.1,0.2,5-1.4,5.5,2.9c3.3,24.6,16.4,42.2,38.6,52.9c1.7,0.8,2.3,1.7,2.1,3.4C96.2,146.2,96.3,147.8,96.3,149.8z"/>
	<path class="st2" d="M377.8,104.3c3.8-3.1,6.3-5.9,8.8-8.7c0.6-0.7,1.1-1.9,2.4-0.9c1.1,0.9,1.1,1.7,0.1,2.8
		c-4.1,4.7-8.1,9.4-13.4,12.8c-4.3,2.8-9.7,2.2-13.4-1.2c-0.7-0.7-1.1-1.4-0.8-2.3c0.3-1,1-0.8,1.8-0.9c5.1-0.3,6.4-1.8,5.8-6.8
		c-0.2-2-0.8-3.9-1.3-6.4c-1.9,2.4-3.4,4.2-5,6c-0.7,0.8-1.4,2-2.8,0.9c-1.4-1.1-0.7-2,0.1-2.9c3.6-4.1,6-8.6,6.8-14.2
		c0.6-3.9,1.4-4,4.7-2c2.6,1.6,4.4,3.3,4.3,6.8c-0.1,2.5,1,4.9,1.6,7.4C378.4,97.7,378.7,100.6,377.8,104.3z"/>
	<path class="st3" d="M121.6,18.4c29.8,0,55.6,21.2,61.1,50.5c0,0.2,0.2,0.5,0.1,0.7c-0.4,1.3,1.6,3.3-0.8,3.8
		c-2.3,0.4-1.9-1.8-2.2-3.2c-4.1-24.9-25.3-45.1-50.3-48.3c-9.5-1.2-18.7-0.2-27.7,2.9c-1.2,0.4-2.7,1.6-3.4-0.5
		c-0.9-2.4,1.4-1.9,2.4-2.3C107.4,19.5,114.4,18.4,121.6,18.4z"/>
	<path class="st4" d="M96.1,137.5c-20.8-10.2-32.8-26.4-36.3-48.8c-0.2-1-1.3-3,1.2-3.1c2-0.1,1.6,1.5,1.8,2.7
		c3,19.9,13.3,34.8,30.8,44.6C96.2,134.2,96.2,134.1,96.1,137.5z"/>
	<path class="st5" d="M141.7,164c16.2-4.3,31.5-8.4,46.7-12.6c1.8-0.5,2.8,0.1,2.7,1.9c0,1.4,1.7,3.5-1.2,3.9
		c-15.3,2.4-30.6,4.7-45.9,7C143.6,164.3,143.2,164.1,141.7,164z"/>
	<path class="st6" d="M348.2,133.4c-10.2,1.9-20.3,3.7-30.5,5.6c-2.4,0.4-4.7,0.9-7.1,1.4c-1.2,0.2-2.3,0.3-2.8-1.1
		c-0.5-1.3-1.7-2.8-1.4-3.8c0.5-1.3,2.5-0.8,3.8-0.9c11.2-0.6,22.3-1.2,33.5-1.8c1.5-0.1,3,0,4.5,0
		C348.1,133,348.1,133.2,348.2,133.4z"/>
	<path class="st7" d="M245.5,141c-2.6,0.3-4.5,0.5-6.4,0.7c-1.1,0.2-1.6-0.3-1.9-1.3c-0.3-1.4,0.6-1.4,1.5-1.5
		c2.9-0.4,5.8-0.8,8.6-1.3c2.3-0.4,2.8,0.5,1.8,2.5c-2,3.8-4,7.5-6.3,11.7c2.6-0.3,4.7-0.5,6.8-0.7c0.9-0.1,1.8,0,1.9,1.3
		c0.1,1.3-0.8,1.5-1.6,1.6c-2.9,0.4-5.8,0.7-8.7,1.1c-2.6,0.3-2.9-0.8-1.8-2.8C241.4,148.7,243.3,145.2,245.5,141z"/>
	<path class="st8" d="M264.9,148.7c2.4,0.6,4.3-0.3,6.3-0.5c0.9-0.1,1.8-0.1,2,1.1c0.2,1.3-0.5,1.8-1.7,1.9c-2.9,0.3-5.8,0.6-8.7,1
		c-2.6,0.4-2.6-0.8-1.7-2.6c1.9-3.7,3.9-7.3,5.9-11.1c-2.2-0.6-4,0.1-5.9,0.3c-0.9,0.1-1.8,0.4-2-1c-0.2-1.3,0.3-1.8,1.6-1.9
		c2.9-0.3,5.8-0.6,8.7-1c2.5-0.4,2.3,0.7,1.4,2.3C268.9,141,267,144.8,264.9,148.7z"/>
	<path class="st9" d="M350.2,70.5c-0.5,0.8-0.7,1.5-1.2,2.1c-2.3,2.9-4.7,5.6-6.9,8.6c-1.3,1.8-2.4,1-3.8,0.2c-1.8-1.1-0.6-2,0-3.1
		c1.6-3,3.2-6,4.9-9c0.6-1,0.6-2.8,2.5-2C347.4,68,348.9,69.1,350.2,70.5z"/>
	<path class="st5" d="M260.7,86.9c0.1-3.6,2.4-7.9,4.3-7.5c2.3,0.5,5.4,0.5,5.9,3.6c0.5,3.1-2.6,7.9-4.4,7.9
		C263.5,90.9,260.6,89,260.7,86.9z"/>
	<path class="st10" d="M315.7,80.8c0.3-5,2.6-8.9,4.5-8.3c2.3,0.6,6.1,0.5,5.5,4.1c-0.5,2.7,0,7-4.4,7.2
		C319.1,83.8,315.8,83.5,315.7,80.8z"/>
	<path class="st11" d="M223.9,143.9c0.4-1.2-1.4-3.1,1.2-3.3c2.2-0.1,1.7,1.8,1.9,3c0.6,3.6,1,7.3,1.4,10.9c0.1,1,0.4,2-1.2,2.2
		c-1.4,0.2-1.7-0.4-1.8-1.6C225,151.3,224.4,147.5,223.9,143.9z"/>
	<g>
		<path class="st12" d="M329.4,102.4c-2.4-1.9-2.8,1.6-4,2.6c-2.8,2.4-4.8,5.6-9,8c1.3-5.8,2.3-10.5,3.4-15.3
			c0.7-3.2-1.3-5.9-5.3-6.6c-3.4-0.6-2.9,2.7-3,4.1c-0.7,8.2-6,13.5-11.5,18.6c-0.6,0.5-1.2,1.4-2.6,0.6c1-4.4,1.8-9,3.2-13.5
			c1-3.3-0.2-5-3-6.4c-2.8-1.4-5.2-1.8-7.4,1.1c-2,2.6-4.1,5-6.2,7.5c1.5-4.2-1-5.6-4.2-6.6c-0.8-0.3-1.7-0.5-2.5-0.9
			c-1.6-0.9-2.3-0.1-2.6,1.4c-0.7,3.5-1.5,6.9-2.2,10.4c-1.3,6-6.2,8.7-10.8,13c0.5-5.8,2-10.2,3-14.8c0.8-3.9-0.9-6.7-5.3-7.3
			c-3.3-0.4-2,3-3.1,4.6c-0.3,0.4-0.3,1-0.3,1.5c-0.8,8.6-7.4,12.9-13.2,17.7c-1.3,1-2.7,1.4-2.9-0.9c-0.4-6.4-1.5-12.8,3.3-18.5
			c5.2-6.2,9.1-13.2,12.9-20.3c2.6-4.9,5-10,6-15.6c0.6-3.5-1.8-4.7-4-6.2c-2.1-1.5-4-1.1-5.9,0.4c-3,2.4-5.6,5.2-7.8,8.3
			c-8.5,12-13.4,25.4-14.4,40c-0.3,5.3-2.6,8.7-6.3,11.8c-0.6,0.5-1.1,1.1-1.7,1.5c-1.6,1.2-3.1,3.7-5,2.9c-2-0.9-1.1-3.7-1.1-5.6
			c0.2-4.1-0.8-8.5,2-12.1c5.7-7.3,10.6-15.2,14.9-23.5c2-4,3.9-8,4.9-12.4c0.5-2.2,1.2-4.6-1.2-6.7c-4.2-3.5-5.8-3.7-9.8,0
			c-11.9,11.4-17.6,25.9-20.2,41.8c-0.6,3.7,0.2,8.2-1.5,11.2c-3.4,5.9-8.5,10.5-15.4,12.2c-1.5,0.4-3.3,0.8-4.1-1.5
			c-0.8-2.2,0.8-2.9,2.2-3.8c3.8-2.4,7.5-4.8,10.6-8.1c1.9-2.1,3.9-4.2,2.1-7.4c-1.8-3.3-5.9-5.3-9.3-4.4c-8.5,2.4-13.7,8-15.8,16.5
			c-1.2,4.8-4.8,6.9-8.8,10c0-8.5,2.2-15.7,3.5-23c0.7-4.2,2.8-5.8,6.8-5.6c3.4,0.1,5.9-1.3,6.4-5.1c-2.8-0.7-5.3,0.5-7.9,0.8
			c-2.5,0.3-2.6-0.3-1.9-2.3c1.6-4.9,3-9.9,4.5-14.9c-6.6,1-11.6,5.4-13.7,11.1c-1.4,3.9-0.8,9.6-7.6,9.4c-1.4,0-2,1.7-1.8,2.9
			c0.2,1.6,1.6,0.5,2.5,0.5c1,0.1,2,0,3.2,0c-1.6,8.1-3.7,15.9-4.7,24c-0.5,3.8,1.2,5.6,3.9,7.4c3,2,5.5,1.3,7.9-0.8
			c1.9-1.7,3.8-3.4,5.7-5.1c0.6-0.6,0.9-1.4,2-0.3c7.5,6.8,11.4,7,20,1.5c3.6-2.4,6.7-5.4,10-8.5c0.2,0.4,0.4,0.7,0.6,1
			c4.4,7.7,10.2,8.7,16.6,2.8c2.3-2.1,4.4-4.5,6.7-6.8c0.9,1.8,1.9,3.1,3.1,4.2c5.1,4.8,7.9,4.9,13.1,0.4c2.5-2.1,4.7-4.5,7.1-6.7
			c-0.9,3.7,0.7,5.8,4,7.2c2.9,1.2,5-0.2,6.9-1.8c2.5-2.1,4.8-4.5,7.8-7.3c0,1.2-0.1,1.7,0,2.2c0.5,3.8,3.8,4.4,6.6,5.1
			c3,0.8,2.6-2.1,3.1-3.7c2.4-6.8,5.3-13.4,10.4-19.9c-1,5.6-1.8,10.4-2.8,15c-0.5,2.4,0.3,3.9,2.3,5c2.5,1.6,5,1.8,7.4-0.3
			c3.2-2.8,6.3-5.7,10.1-9.2c-1.1,3.6-0.7,5.9,2.3,7.4c3,1.5,5.3,0.7,7.7-1.3c3.6-2.9,6.8-6.2,9.6-9.8
			C328.8,105.9,332,104.5,329.4,102.4z M255.8,65.1c-1.9,10.7-7.2,20-12.9,29C245.6,83.7,248.5,73.4,255.8,65.1z M231.9,68.2
			c-2,10.7-7.1,20.1-12.8,28.9C221.7,86.6,224.8,76.4,231.9,68.2z M189.8,111.7c0.6-0.8,1.2-2,2.4-1.4c1.3,0.6,0.8,2.1,0.5,3
			c-1.1,3.3-3.6,5.7-6.9,8.5C186.7,117.6,187.7,114.4,189.8,111.7z"/>
		<path class="st13" d="M159.3,76.2c-1.2-1.5,0.4-2,1.1-2.6c3.8-3.3,7.6-6.5,11.4-9.8c-5.4,1.6-10.6,3.6-15.7,5.9
			c-1.8,0.8-2.8,0.5-4.3-0.9c-1.7-1.6-1.5-2.8-0.5-4.6c3.3-6.4,6.5-12.9,9.7-19.3c-4.7,4.2-9.1,8.4-12.9,13.2
			c-2.8,3.6-5.6,4.8-9.9,3.2c-1.4-0.5-2-0.8-2.1-2.4c-0.2-5.8-0.5-11.7-0.7-17.5c-0.2-3.4,0-6.7-1.1-10.7c-1.5,8.5-3.1,16.4-4,24.3
			c-0.5,4.6-2,7.3-6.7,8.9c-3.1,1.1-4.6,0.9-6.6-1.5c-6.6-7.6-13.4-15-20.5-22.8c-0.1,1.9,0.9,2.8,1.5,3.9
			c3.8,6.3,7.7,12.5,11.6,18.8c1.5,2.4,3.9,4.7,4,7.2c0.1,2.6-3.6,4-4.9,6.4c-1.4,2.4-3.3,3-6,2.7c-6.3-0.6-12.7-0.9-19-1.3
			c-2.9-0.1-5.8,0-8.7,0c8.2,2.6,16.4,4.6,24.5,6.9c1.4,0.4,3.8-0.3,3.8,2.1c0,2.6,0.1,5.3-3.4,6.3c-3.4,1-6.5,2.8-9.7,4.3
			c-3.5,1.6-7,3.3-10.6,4.9c7.1-0.7,14-1.9,20.9-3c1.4-0.2,3.1-1.1,4,0.9c0.9,1.9,1.5,3.5-0.2,5.5c-4,4.7-7.7,9.8-11.5,14.7
			c0.2,0.2,0.3,0.3,0.5,0.5c1.8-1.2,3.5-2.4,5.3-3.6c1.9-1.3,3.8-2.5,5.7-3.9c1.7-1.3,2.5-1.8,3.8,0.7c2.2,4.2,7,8.7,13.9,6.8
			c4.4-1.2,9-1.7,13.4-2.9c3.4-0.9,3.1,0.7,2.3,2.8c-2.6,7.1-7.9,11.7-14.3,15.1c-5.9,3.2-12.3,5-20.1,5.7c3,2.8,5.4,5,7.7,7.3
			c1.8,1.8,3.7,2,5.9,1.3c10.1-3,18.3-8.7,24.6-17.1c2.2-2.9,3.7-6.1,4.3-9.7c1.3-7.5-5.6-14.1-12.9-12.6c-4.2,0.9-8.5,1.7-12.7,2.7
			c-2.7,0.6-3.8-0.1-2.9-3c1.4-4.5,3.1-8.9,5.8-12.8c6.6-9.6,14.7-17.4,26.3-21c2.9-0.9,3.9-0.1,3,2.9c-1.6,5.7-4.7,10.7-8,15.5
			c-3.4,5-3.3,4.8,1.6,8.6c2.5,2,3.8,1.3,5.5-0.8c3.9-5.1,6.6-10.8,8.3-17C160.6,82.3,161.6,79.1,159.3,76.2z M107.9,102.7
			c-4.6-8.5-0.9-20.4,9.4-29.7c10.4-9.4,22.4-11.4,31.6-5.1C127.4,70.6,116,84.7,107.9,102.7z"/>
		<path class="st14" d="M108.2,70.7C96.4,50.2,84.6,29.7,72.9,9.2c-1.2-2.1-2.2-1.5-3.5-0.6C47.8,22.4,35.6,41.8,33.6,67.5
			c-0.2,2.1,0.2,2.8,2.5,2.8c24.1,0.6,48.3,1.3,72.6,1.9C108.5,71.6,108.4,71.1,108.2,70.7z M46,61.4c-0.2,1.4-0.8,2.1-2.4,1.7
			c-1.8,0.2-2.3-0.6-2-2.5c3.3-17.1,11.7-31,25.5-41.6c1-0.8,1.9-1.6,3,0.1c1.2,1.8,0.4,2.6-1,3.6C58.3,31.3,51,42.2,47.2,55.5
			C46.7,57.4,46.3,59.4,46,61.4z M51.1,63.4c-2,0-2.3-0.8-2-2.6c3-14.6,10.3-26.6,22.2-35.8c1-0.8,1.6-0.9,2.4,0.4
			C81,38.3,88.4,51.1,96.1,64.5C80.5,64.1,65.8,63.7,51.1,63.4z"/>
		<path class="st15" d="M291.2,133.9c-0.5-0.8-1-1.6-2.4-1.4c-1.5,0.2-2.2,1-2.6,2.3c-1.3,4.2-2.6,8.5-3.9,12.7
			c-0.2,0.7-1,1.8,0.4,2.2c1,0.3,1.8,0,2.5-1.2c2-3.4,7.7-4.1,10.5-1.3c0.8,0.8,1.5,0.9,2.3,0.7c0.5-0.1,0.9-0.4,0.9-1.1
			c-0.1-0.3-0.3-0.6-0.5-0.9C296.1,141.9,293.6,137.9,291.2,133.9z M287.2,143.1c0-2.4,0.9-4.3,1.7-6.9c1.8,2.1,2.8,3.9,3.8,6.3
			C290.8,142.7,289.2,142.9,287.2,143.1z"/>
		<path class="st4" d="M208.3,142.8c-1.9,0-3.8,0.6-5.6,0.6c-2.5,0-3.1,1-2.6,2.3c0.7,4.8,1.2,8.7,1.7,12.6c0.2,1.4,0.8,1.6,2,1.4
			c1.3-0.2,1.3-1.1,1-1.9c-1.2-3.2,0.9-3.3,3-3.5c0.5,0,1,0,1.5-0.1c3.2-0.7,5.1-3.1,4.8-6.2C214,144.8,211.7,142.8,208.3,142.8z
			 M206.1,151.9c-3,0.6-2.3-1.8-2.6-3.4c-0.6-3.4,2-2.4,3.4-2.6c2.5-0.3,4.3,0.1,4.3,2.7C211.2,151.9,208.2,151.5,206.1,151.9z"/>
	</g>
	<path class="st16" d="M116.3,85.1c-1.8,1.4-2.1,4.3-4.5,4.7c-0.8,0.1-3.1-0.1-2.7-1.8c0.5-2.1,0.8-4.8,3.3-5.4
		C113.5,82.2,115.3,83.5,116.3,85.1z"/>
	<path class="st17" d="M122.8,77.7c-1.1-1.4-2.3-2.7-3.2-4.2c-0.3-0.5,4.8-4.2,5.3-3.8c1.2,1.1,1.7,2.9,1.6,4.3
		C126.5,76,124.3,76.5,122.8,77.7z"/>
	<path class="st18" d="M121,79.3c-0.8,1.4-1.9,3.2-3.4,3.1c-1.5-0.1-4.1-1.1-3.9-2.7c0.2-1.8,2-4,3.8-4.2
		C119,75.4,120,77.7,121,79.3z"/>
	<path class="st19" d="M134.6,69.2c-0.5,2-3.2,2.6-5.2,3.3c-1.2,0.4-1.8-2-1.6-3.1c0.5-3,3.4-2.3,5.4-2.9
		C134.6,66,134.7,67.4,134.6,69.2z"/>
	<path class="st20" d="M107.9,97.2c0-1.5,0-3,0-4.5c0-1.1,0.5-1.6,1.7-1.2c0.9,0.3,1.7,0.6,1.1,1.8c-0.7,1.4-1.5,2.8-2.2,4.2
		C108.3,97.3,108.1,97.2,107.9,97.2z"/>
	<path class="st21" d="M142.7,67.1c-1.3,0.4-2.6,0.8-3.9,1.2c-0.9,0.3-1.8,0.7-1.9-0.8c-0.1-1.3,0.3-2,1.7-1.8
		c1.4,0.2,2.7,0.5,4.1,0.7C142.7,66.7,142.7,66.9,142.7,67.1z"/>
</g>
</svg>
