<?xml version="1.0" encoding="utf-8"?>
<!-- Generator: Adobe Illustrator 24.3.0, SVG Export Plug-In . SVG Version: 6.00 Build 0)  -->
<svg version="1.1" id="Layer_1" xmlns="http://www.w3.org/2000/svg" xmlns:xlink="http://www.w3.org/1999/xlink" x="0px" y="0px"
	 viewBox="0 0 585.2 179.4" style="enable-background:new 0 0 585.2 179.4;" xml:space="preserve">
<style type="text/css">
	.st0{fill:#814B31;}
	.st1{fill:#696969;}
</style>
<g>
	<path class="st0" d="M51.4,9c6.2,4,12.6,7.7,18.5,12.1c6.6,4.9,7.9,10.4,4.3,17.7c-4.1,8.3-9.1,16.2-13.5,24.3
		c-2,3.7-3.8,7.5-5.2,11.4c-2.1,5.9-0.1,9.3,6.1,9.6c9.6,0.4,19.3,0.4,28.9,0.1c16.2-0.6,32.5-1.7,48.7-2.3
		c3.7-0.1,7.5,0.4,11.2,1.1c5.4,1,9.1,5.4,9.1,11c0,3.2-0.5,6.6-1.5,9.7c-4.5,14.6-13.3,26.4-24.7,36.3c-1.5,1.3-3,2.5-4.4,4
		c-0.6,0.7-1,1.8-1,2.8c-0.1,4.3,0,8.7,0,13.3c-4.2-1.5-8.2-3-12.1-4.5c-2-0.8-3.8-0.7-5.8,0.3c-8.6,4.3-17.5,7.1-27.3,6.7
		c-9.6-0.4-17.3-4.5-23.2-12.1c-1.1-1.4-2.7-2.5-4.3-3.3c-2.9-1.5-5.5-3.2-7.1-6.2c7.7,6.1,16.8,6,25.8,6.5
		c13.2,0.7,26.4,0.9,39.2,4.9c4.2,1.3,8.3,2.8,12.5,4.2c0-4.1,0.2-8-0.1-11.9c-0.1-2.2,0.6-3.4,2.4-4.6c6.9-4.7,11.2-11.2,13.1-19.3
		c2.1-8.7-0.5-16.4-6.2-23.1c-11.7-13.8-33.2-17.2-47.6-7.6c-4.8,3.2-8.6,7.3-11.5,12.2c-4.2,7.1-8.1,14.5-12.2,21.7
		c-1,1.7-2,3.4-3.1,5c3.7,2.7,11.9,2.8,15.7-1.1c3.1-3.1,5.8-6.7,8.3-10.4c3.5-5.4,6.3-11.2,11.9-15c7-4.8,15.2-4.8,21.5,0
		c6.8,5.3,9.8,14.3,6.7,21.7c-1.1,2.7-3.5,4.8-5.2,7.3c-0.7,0.9-1.4,2-1.5,3.1c-0.4,3.2-0.4,6.4-0.6,9.7c-4.1-1.1-8.1-2.7-12.2-3.3
		c-8.8-1.4-17.7-2.2-26.6-3.3c-9.9-1.2-20-2-28.8-7.5c-2.5-1.5-4.8-3.4-6.8-5.6c1.6,0.8,3.3,1.7,5.5,2.9c-0.5-1.6-0.9-2.6-1.2-3.6
		c-3.1-11-6.2-22-9.1-33c-2-7.7-0.4-15,4-21.5c4.1-6.1,8.8-11.9,13.1-18c2.9-4.2,5.8-8.4,8.1-12.9c3.9-7.8,2.3-15.2-3.6-21.4
		c-2.6-2.7-5.6-5-8.4-7.5C51.1,9.4,51.2,9.2,51.4,9z M118.8,116.8c-10.3,0.7-20.6,1.3-30.9,1.9c-1.8,0.1-3.3,0.7-3.2,2.7
		c0.1,2.1,1.8,2.6,3.7,2.5c10.2-0.6,20.5-1.3,30.7-1.9c1.9-0.1,3.8-0.5,3.7-2.8C122.7,117,120.7,116.7,118.8,116.8z M102.3,131
		C102.3,131,102.3,131,102.3,131c3.5-0.2,6.9-0.3,10.4-0.6c1.9-0.1,3.8-0.5,3.8-2.8c-0.1-2.5-2.1-2.5-3.9-2.4
		c-6.6,0.4-13.1,0.8-19.7,1.1c-1.8,0.1-3.6,0.4-3.6,2.6c0,2.3,1.8,2.8,3.8,2.7C96,131.4,99.2,131.2,102.3,131z M113.6,109.1
		C113.6,109.1,113.6,109.1,113.6,109.1c-6,0.4-11.9,0.8-17.9,1.1c-1.8,0.1-3.3,0.7-3.2,2.8c0.1,2.2,1.7,2.6,3.6,2.5
		c2.9-0.2,5.9-0.3,8.8-0.5c4.2-0.3,8.4-0.4,12.5-1c0.9-0.1,2.4-1.7,2.2-2.3c-0.2-1-1.4-2.1-2.4-2.5
		C116.2,108.7,114.8,109.1,113.6,109.1z"/>
	<path class="st0" d="M296.4,112.8c-1.9-0.2-3.3-0.3-4.9-0.5c0-2.1,0-4.3,0-6.7c1.4-0.2,2.9-0.4,4.6-0.6c1.3-5.6-1.2-12.8,5.1-16.2
		c3.5-1.9,8.1-1.6,12.6-2.3c0,3.3,0,5.4,0,7.6c-6.7,1-8.3,2.8-7.4,8.8c0.1,0.9,1.6,2.2,2.5,2.3c3.2,0.3,6.4,0.1,9.9,0.1
		c1.3-5.9-1.1-13.3,5.4-16.6c3.5-1.8,8.1-1.4,12.6-2c0,3.2,0,5.4,0,7.5c-7.6,1-8.3,2.1-7.2,11c3,0,6,0,9.3,0c0,2.6,0,4.8,0,7.3
		c-3.1,0-6.2,0-9.7,0c0,14.9,0,29.3,0,44c-3.5,0-6.5,0-10,0c0-14.6,0-29.1,0-43.8c-4.4,0-8.3,0-12.8,0c0,14.5,0,29,0,43.7
		c-3.5,0-6.5,0-10,0C296.4,141.8,296.4,127.4,296.4,112.8z"/>
	<path class="st0" d="M238.8,131.2c3.1,0,6,0,9.5,0c0.3,7.1-0.4,13.9-4.4,20c-5.4,8.3-26.5,9.3-31.4-3.1c-1.3-3.2-2.6-6.7-2.7-10
		c-0.2-12.4-0.7-24.9,0.5-37.2c1.4-14.5,13.9-21.3,27.3-15.6c3.2,1.3,6.3,4.4,7.8,7.5c2,4.1,2.4,9,3.7,14.1c-4.1,0-7.3,0-10.4,0
		c-0.4-3.1-0.5-6.1-1.1-8.9c-1-4.3-3.8-6.2-8.1-6.3c-4.5-0.1-7.8,2-9,6c-0.5,1.6-0.8,3.3-0.8,5c-0.1,11.5-0.1,23.1,0,34.6
		c0,2.4,0.7,4.9,1.7,7.1c1.6,3.8,4.8,5.2,8.8,4.9c3.9-0.3,6.3-2.6,7.1-6.1C238.2,139.3,238.3,135.4,238.8,131.2z"/>
	<path class="st1" d="M453.5,106.7c-4,0-6.9,0-10.1,0c-0.1-2.3-0.1-4.5-0.4-6.7c-0.6-5.3-3.5-8.2-8.3-8.6c-5-0.4-8.7,2.2-9.9,7.3
		c-0.4,1.6-0.6,3.3-0.6,5c0,11.1-0.1,22.3,0.1,33.4c0,2.4,0.7,4.9,1.6,7.1c1.6,3.7,4.6,5.4,8.7,5.2c4.1-0.3,6.9-2.6,7.7-6.5
		c0.8-3.6,0.9-7.4,1.4-11.4c2.8,0,5.8,0,9.3,0c0.1,6.3-0.3,12.5-3.6,18.2c-2.8,4.8-7.3,6.7-12.6,7.2c-11.7,1.2-18.8-3.6-21-13.6
		c-0.5-2.4-1.2-4.8-1.2-7.3c0-11.6-0.3-23.3,0.7-34.9c1.1-14.5,14.1-21.6,27.5-15.9c3.9,1.7,6.8,4.5,8,8.5
		C451.9,97.9,452.5,102.1,453.5,106.7z"/>
	<path class="st0" d="M86.7,23c10.2,3.7,14.9,13.2,10.4,22.7c-3,6.1-7.5,11.4-11.5,17c-2.5,3.5-5.6,6.5-8,10
		c-2.5,3.6-1.5,5.7,2.8,6.1c3.1,0.3,6.2,0.1,9.3,0.4c-7.2,1.5-14.4,3.4-21.8,2.2c-4.5-0.7-6.1-3.2-3.9-7.1c2.6-4.6,5.6-9.1,9-13.2
		c4.6-5.4,9.8-10.4,14.8-15.5c0.9-1,1.9-1.9,2.7-2.9c4.6-5.7,4.4-11.3-0.6-16.6C88.8,25,87.8,24.1,86.7,23z"/>
	<path class="st1" d="M469.4,156.4c-3.3,0-6,0-8.9,0c0-23.9,0-47.7,0-71.7c2.9,0,5.7,0,9.1,0c0,8.4,0,16.8,0,26.2
		c1.6-1.1,2.3-1.7,3.2-2.1c2.6-1.3,5.1-3.2,7.9-3.8c6.1-1.4,9.7,1.8,9.8,8.1c0.1,13.5,0,27,0,40.4c0,0.9-0.1,1.8-0.2,2.8
		c-3,0-5.7,0-8.9,0c-0.1-1.6-0.2-3.1-0.2-4.6c0-10.8,0-21.5,0-32.3c0-5.5-1-7.1-4.4-7.1c-4.3,0-7,2.8-7,7.3c0,10.6,0,21.3,0,31.9
		C469.6,153.1,469.5,154.6,469.4,156.4z"/>
	<path class="st0" d="M254.1,131.1c0.4-5.4,0.3-10.9,1.3-16.2c1.5-7.5,6.3-10.5,15-10.4c7.8,0.1,13.1,3.6,13.7,10.9
		c0.8,9.9,1,19.9,0.2,29.8c-0.7,8.7-6.5,12.6-15.5,12.2c-8.6-0.4-13.5-5.1-14.1-13.9c-0.3-4.1,0-8.3,0-12.4
		C254.4,131.1,254.3,131.1,254.1,131.1z M274.9,131C274.9,131,274.9,131,274.9,131c0-4.3,0.1-8.6-0.1-12.8c-0.1-3-1.5-5.4-4.8-5.6
		c-3.6-0.2-5.3,2.1-5.4,5.3c-0.2,8.7-0.2,17.3,0,26c0.1,3.2,1.7,5.5,5.3,5.4c3.6-0.1,4.8-2.7,5-5.8C275,139.3,274.9,135.1,274.9,131
		z"/>
	<path class="st1" d="M507.4,120c-3.1,0-6,0-8.8,0c-0.8-7.3,3-12.9,10-14.8c7.9-2.1,15.7,1.1,18.2,7.8c1,2.7,1.5,5.8,1.5,8.7
		c0.2,7,0.1,14,0.1,21c0,4.4,0,8.8,0,13.5c-2.2,0-5.1,0-8.2,0c-0.5-2.1-1-4.3-1.6-7.3c-1,1.3-1.6,2-2,2.8c-2.2,3.8-5.4,6-9.9,5.4
		c-4.1-0.5-7.7-4.6-8.3-9.2c-1.1-7.3,1.2-13.4,7.6-17.4c2.9-1.9,6.2-3.2,9.4-4.7c3.4-1.5,4.4-4.1,3.2-9.3c-0.7-2.8-2.3-4.8-5.3-4.7
		c-3.9,0.1-5.1,3-5.5,6.3C507.5,118.7,507.5,119.2,507.4,120z M518.6,131.3c-0.3-0.2-0.6-0.5-0.9-0.7c-2.6,2.1-5.9,3.8-7.7,6.4
		c-1.5,2.1-2,5.4-1.9,8.2c0,2.7,2.4,4.8,5.1,4c2.1-0.6,5-2.7,5.3-4.5C519.2,140.4,518.6,135.8,518.6,131.3z"/>
	<path class="st0" d="M402.4,130.7c-6.7,0-13.3,0-20.6,0c0.3,5,0.3,9.6,0.9,14.1c0.3,2.6,2,4.6,5.1,4.4c3.2-0.2,4.4-2.3,4.8-5.2
		c0.2-1.5,0.4-3.1,0.6-4.9c3.1,0,6.1,0,9.1,0c1.9,12.8-7.7,21.2-19.9,17.5c-4.4-1.3-7.1-4.5-8.2-8.7c-2.9-11.2-3.1-22.6-0.3-33.8
		c1.7-6.9,6.4-9.8,14-9.7c7.2,0.1,11.3,3.2,13.2,10.2c0.6,2.1,1.2,4.3,1.3,6.4C402.6,124.1,402.4,127,402.4,130.7z M381.8,125.7
		c4,0,7.3,0,11.1,0c-0.3-3.2-0.1-6.3-1-8.9c-0.6-1.7-3-4-4.3-3.9c-1.7,0.1-4,2.2-4.7,4C381.9,119.4,382.1,122.4,381.8,125.7z"/>
	<path class="st0" d="M369.6,130.6c-6.8,0-12.3,0.1-17.9,0c-2.7-0.1-3.8,0.8-3.5,3.6c0.3,3.3,0.2,6.7,0.7,10.1
		c0.4,2.9,1.9,5.2,5.3,5c3.5-0.2,4.4-2.7,4.8-5.6c0.2-1.4,0.2-2.8,0.3-4.4c3.2,0,6.3,0,9.3,0c2.1,12.8-8.2,21.6-20.3,17.5
		c-4.2-1.4-6.8-4.5-7.8-8.5c-2.8-11.2-3.1-22.6-0.2-33.8c1.8-7.1,6.3-9.8,14-9.7c7.1,0.1,11.6,3.3,13.2,10.2
		C368.6,119.7,368.9,124.9,369.6,130.6z M347.9,125.5c4.3,0,7.7,0,11.5,0c-0.5-3.5-0.5-6.7-1.5-9.5c-0.5-1.4-2.8-3.3-4.1-3.2
		c-1.6,0.1-3.9,1.8-4.4,3.4C348.4,118.9,348.4,122.1,347.9,125.5z"/>
	<path class="st0" d="M149.3,126.8c3-3.4,5.3-7.2,9.7-9c2.7-1.1,5.1-3,7.2-5c4.3-4,4.7-8.3,0.9-12.8c-2.6-3.1-4.9-6-5.3-10.3
		c-0.1-1.7-1.6-3.3-2.5-5.2c5.1,1.8,9.9,4.1,14.2,7.3c9.3,6.9,9.6,14.2,1,21.9c-7.1,6.3-15.6,10-24.3,13.2
		C150,126.9,149.7,126.8,149.3,126.8z"/>
	<path class="st1" d="M537.3,112.6c-2-0.2-3.4-0.3-5-0.5c0-2.1,0-4.1,0-6.1c5-1.3,5-1.3,5-7.1c0-3.7,0-7.5,0-11.9
		c2.6,0,5.1-0.3,7.4,0.2c0.9,0.2,2,2.1,2.1,3.2c0.2,4.8,0.1,9.5,0.1,14.7c2.7,0.2,5,0.3,7.6,0.5c0,2.1,0,4.2,0,6.5
		c-2.4,0.1-4.7,0.2-7.6,0.4c0,2.4,0,4.7,0,7c0,7.4-0.1,14.8,0,22.1c0.1,6.9,0.8,7.6,7.7,7.8c0,2.1,0,4.3,0,6.4
		c-9.8,4.1-17.1-0.4-17.2-10.8c-0.1-9.3,0-18.6,0-28C537.3,115.8,537.3,114.4,537.3,112.6z"/>
</g>
</svg>
