<?xml version="1.0" encoding="utf-8"?>
<!-- Generator: Adobe Illustrator 24.3.0, SVG Export Plug-In . SVG Version: 6.00 Build 0)  -->
<svg version="1.1" id="Layer_1" xmlns="http://www.w3.org/2000/svg" xmlns:xlink="http://www.w3.org/1999/xlink" x="0px" y="0px"
	 viewBox="0 0 500 500" style="enable-background:new 0 0 500 500;" xml:space="preserve">
<style type="text/css">
	.st0{fill:#F15A28;}
</style>
<g>
	<path class="st0" d="M258.7,380.9c-9.4-2.6-18.7-4.2-27.1-7.8c-13.4-5.7-26.3-12.6-39.3-19.3c-6.3-3.3-9.2-8.6-8.5-16.1
		c1.6-16-2.6-30.4-12.9-42.8c-10.4-12.5-23.1-21.3-39.9-21.9c-19.1-0.7-32.5,13.1-32,32.3c0.7,25.5,22.7,50.9,47.8,55.1
		c0.7,0.1,1.3,0.4,2,0.3c12-1.9,21.1,3.8,30.7,10.1c20.5,13.4,43.5,19.2,67.7,21.5c33.6,3.2,65.7-2,96.3-15.8
		c36.4-16.4,63.9-42.7,83.7-77.2c0.7-1.2,1.4-2.3,2.1-3.4c0.3-0.4,0.6-0.7,1-1.1c0.5,0.2,0.9,0.4,1.4,0.5
		c-4.6,12.1-8.3,24.7-14,36.2c-26.8,54-69.9,88.4-128.9,99.8c-63,12.1-118.6-4.9-164.8-50.4c-27.6-27.2-44-60.2-50.6-98.1
		c-4.4-24.9-2.9-49.7,2.7-74.4c0.8-3.5,2.3-4.8,6.1-4.6c52.1,1.7,95.7,22,130.8,60.4c26.3,28.8,41.1,63,45.7,101.6
		C259.2,370.4,258.7,375,258.7,380.9z"/>
	<path class="st0" d="M298,353.6c-7.8-11.7-13.2-23.7-17-36.5c-8.3-28-2-53.9,12.6-77.8c11.2-18.5,24.2-35.9,36.5-53.7
		c11.8-17,22.7-34.5,28.7-54.5c2.1-7,3.3-14.2,4.9-21.2c28.1,21.2,60.9,70.8,55.1,129.8c-5.4,55.4-42,101.2-99.5,122
		c5-14.1,9.8-27.1,14.4-40.1c4.4-12.6,12.2-20.9,25.7-23.8c7.7-1.6,12.3-6.8,15-14.5c6.5-18.7,13.5-37.2,20.5-55.7
		c1.4-3.8,2.1-7.6-2.5-9.2c-4.2-1.5-5.8,2.6-7.1,5.5c-7.7,17.1-15.2,34.3-22.9,51.5c-0.8,1.8-1.5,3.9-2.9,5.2
		c-1.4,1.4-3.6,2.1-5.4,3.1c-0.8-2.5-2.9-5.3-2.3-7.3c1.7-5.7,4.5-11.1,6.9-16.5c6-13.5,11.9-27.1,18-40.6c1.5-3.3,2.7-6.5-1.5-8.5
		c-4.2-2-6.6,0.7-8.2,4.1c-7.7,17.3-15.3,34.7-23,52c-0.8,1.8-1.7,3.6-2.7,5.3c-1.5,2.6-4.1,4.2-6.6,2.3c-1.4-1.1-2.3-4.6-1.6-6.3
		c3.7-9.4,7.9-18.6,12.1-27.9c3.9-8.8,7.9-17.6,11.8-26.4c0.5-1.1,0.8-2.2,1.2-3.3c1.2-2.9,2.1-6-1.4-7.9c-3.8-2.1-6.1,0.7-7.6,3.5
		c-8.5,16-16.8,32.1-25.2,48.2c-0.2,0.3-0.2,0.6-0.4,0.9c-7.3,10-7.2,19.9-1,30.6c3.6,6.3,4.3,14,0.9,20.8
		c-7.4,15-15.5,29.7-23.4,44.5C299.9,351.9,299.1,352.4,298,353.6z"/>
	<path class="st0" d="M237.4,72.3c-0.1,19.5,6.4,36.5,14.7,53c5.3,10.5,11,20.9,16.1,31.5c6.9,14.2,11.9,29,9.8,45.2
		c-2.1,16-9.5,29.4-21.1,41.7c-8.4-26.8-16.5-52.9-24.7-78.9c-0.4,0.1-0.9,0.2-1.3,0.3c3.2,25.9,6.3,51.7,9.5,77.8
		c-21.4-4.3-48.5-42.7-52-73.6C183.5,126.5,208.4,89.4,237.4,72.3z"/>
	<path class="st0" d="M169.8,173.2c-0.6,2.7-1.7,8.3-3.3,13.6c-0.4,1.2-2.9,2.5-4.3,2.3c-27.5-3.4-45.9-33.6-36.8-60
		c1.8-5.1,4.9-4.9,8.9-4C154.6,130.2,169.8,149.5,169.8,173.2z"/>
	<path class="st0" d="M325.2,115.1c-0.9,16.9-9.5,31.2-26.8,40c-2.6,1.3-4,1-5.8-1.3c-17-22.2-7.1-58.9,18.7-69.1
		c2.7-1.1,4.2-0.6,5.7,1.9C321.9,94.6,325.2,103.2,325.2,115.1z"/>
	<path class="st0" d="M148.2,349.4c-21.2-3.7-37.7-21.7-37.1-41c4.9,7.4,9.4,16.2,15.8,23.3C133.3,338.9,141.7,344.2,148.2,349.4z"
		/>
</g>
</svg>
