<?xml version="1.0" encoding="utf-8"?>
<!-- Generator: Adobe Illustrator 24.3.0, SVG Export Plug-In . SVG Version: 6.00 Build 0)  -->
<svg version="1.1" id="_x37_7" xmlns="http://www.w3.org/2000/svg" xmlns:xlink="http://www.w3.org/1999/xlink" x="0px" y="0px"
	 viewBox="0 0 2300 1800" style="enable-background:new 0 0 2300 1800;" xml:space="preserve">
<style type="text/css">
	.st0{opacity:0.5;}
	.st1{opacity:0.5;fill:#FAE7D8;enable-background:new    ;}
	.st2{opacity:0.3;}
	.st3{fill:#F4D1B6;}
	.st4{fill:#FAE7D8;}
	.st5{fill:#FDF2E9;}
	.st6{opacity:0.6;}
	.st7{fill:#EFC4A3;}
	.st8{fill:url(#SVGID_3_);}
	.st9{fill:url(#SVGID_4_);}
	.st10{fill:url(#SVGID_5_);}
	.st11{clip-path:url(#SVGID_8_);}
	.st12{filter:url(#Adobe_OpacityMaskFilter);}
	.st13{clip-path:url(#SVGID_9_);}
	.st14{clip-path:url(#SVGID_13_);}
	.st15{clip-path:url(#SVGID_14_);fill:url(#SVGID_15_);}
	.st16{clip-path:url(#SVGID_9_);mask:url(#SVGID_10_);fill:url(#SVGID_16_);}
	.st17{fill:url(#SVGID_17_);}
	.st18{fill:url(#SVGID_18_);}
	.st19{fill:url(#SVGID_19_);}
	.st20{fill:url(#SVGID_20_);}
	.st21{fill:url(#SVGID_21_);}
	.st22{fill:url(#SVGID_22_);}
	.st23{fill:url(#SVGID_23_);}
	.st24{fill:url(#SVGID_24_);}
	.st25{fill:url(#SVGID_25_);}
	.st26{fill:url(#SVGID_26_);}
	.st27{fill:url(#SVGID_27_);}
	.st28{fill:#2B2D31;}
	.st29{fill:url(#SVGID_28_);}
	.st30{fill:url(#SVGID_29_);}
	.st31{fill:#E37D21;}
	.st32{fill:url(#SVGID_30_);}
	.st33{fill:url(#SVGID_31_);}
	.st34{fill:url(#SVGID_32_);}
	.st35{fill:url(#SVGID_33_);}
	.st36{fill:url(#SVGID_34_);}
	.st37{opacity:0.3;fill:url(#SVGID_35_);enable-background:new    ;}
	.st38{fill:url(#SVGID_36_);}
	.st39{fill:#ED9145;}
	.st40{fill:#3A3C3F;}
	.st41{fill:url(#SVGID_37_);}
	.st42{fill:url(#SVGID_38_);}
	.st43{fill:url(#SVGID_39_);}
	.st44{fill:#F1D2F9;}
	.st45{fill:url(#SVGID_40_);}
	.st46{fill:url(#SVGID_41_);}
	.st47{fill:url(#SVGID_42_);}
	.st48{fill:url(#SVGID_43_);}
	.st49{fill:url(#SVGID_44_);}
	.st50{fill:url(#SVGID_45_);}
	.st51{fill:url(#SVGID_46_);}
	.st52{opacity:0.3;fill:url(#SVGID_47_);enable-background:new    ;}
	.st53{fill:url(#SVGID_48_);}
	.st54{fill:url(#SVGID_49_);}
	.st55{fill:url(#SVGID_50_);}
	.st56{fill:url(#SVGID_51_);}
	.st57{fill:url(#SVGID_52_);}
	.st58{fill:url(#SVGID_53_);}
	.st59{opacity:0.5;fill:url(#SVGID_54_);enable-background:new    ;}
	.st60{fill:url(#SVGID_55_);}
	.st61{fill:url(#SVGID_56_);}
	.st62{fill:url(#SVGID_57_);}
	.st63{opacity:0.5;fill:#EFC4A3;}
</style>
<g id="_x32__1_">
	<g id="_x32_">
		<g>
			<g>
				<g class="st0">
					<g>
						<g>
							<path class="st1" d="M1987.1,1663.5c43.5,36.9-1664,36.9-1620.4,0C323.2,1626.6,2030.7,1626.6,1987.1,1663.5z"/>
						</g>
					</g>
					<g class="st2">
						<path class="st3" d="M1922.1,922.6c-16.6,970.8-1473.6,970.6-1490.1,0C448.6-48.2,1905.6-48,1922.1,922.6z"/>
						<path class="st4" d="M1030.6,1227.3c-9.7,568.8-863.4,568.7-873.1,0C167.3,658.4,1021,658.5,1030.6,1227.3z"/>
						<path class="st4" d="M1323.2,1227.3c9.7,568.8,863.4,568.7,873.1,0C2186.5,658.4,1332.9,658.5,1323.2,1227.3z"/>
						<path class="st5" d="M1598.1,786.7c6.7,389.7,591.5,389.6,598.2,0C2189.6,397,1604.7,397,1598.1,786.7z"/>
						<path class="st5" d="M755.7,786.7c-6.7,389.7-591.5,389.6-598.2,0C164.3,397,749.1,397,755.7,786.7z"/>
					</g>
				</g>
				<g>
					<g>
						<g class="st6">
							<g>
								<g>
									<path class="st7" d="M559.8,1067.2c-5.3-1.8-11.2-6.4-22.8-12.3c-39.6-21.7-39.7-22.1-40.3-24.5c-0.3-1-0.1-2.2,0.4-3.1
										c3.7-5.5,25,5.7,33.2,6.8c-17.2-11.8-148-74.7-138-83.2c0.7-2.4,5.2-2.2,8.2-0.2c26.8,12.4,55.3,25.9,85.8,40.1
										c-51.5-30.7-115.4-62.4-159.1-92.3c0.1-14.4,30.3,7.2,42.6,11.7c37.6,19,90.5,47.1,131.8,68.4
										c-27.9-18.2-168.5-86.7-156.7-91.6c4.9-5.3,11.3,2.5,18.4,4.9c32.6,16.7,66.6,34.5,106,54.5
										c-30.7-18.6-95.4-50.6-111.3-66.4c-1.3-4.8,5-6,7.3-4.3c37.7,17,82.2,40.9,123.6,61.3c-28-17.1-86.1-45.7-104.2-60.5
										c-4.2-17.8,66.7,25.4,78.8,29.1c-20.1-11.4-69-37.5-65.1-40.2c-1-5.4,4.4-6.3,8.4-3.6c36.2,17.4,74.1,36.5,116.2,56.4
										c-9-4.8-18.2-9.8-26.9-14.5c-71.3-38.2-79.4-43.4-80.5-47.1c-0.6-3.3,1.2-6.4,6.1-4.6c30.2,13.5,61.1,28.1,95.1,43.5
										c-26.4-15-55.1-31.1-79-44.8c-5.4-3.2-5.9-3.3-4.7-7.3c5.3-8.4,61.9,25.2,76.9,30.4c-18.8-11.6-40.4-19.6-53.8-30.9
										c-3.4-15.9,55.5,16.9,66.1,19.3c-14-8.9-45.7-23.1-53-31.3c-1.9-14.8,44.1,11.1,53.5,13c-8.6-4.8-19.9-11-26.5-14.7
										c-11.2-6.9-10.7-4.3-9.8-10.2c3.3-6.6,43.7,15.8,57.8,19.5c-3.7-2-7.3-4-10.5-5.7C510.6,820,510.6,820,510,818
										c-1.4-12.8,31.1,4.3,39.4,5.3c-27.1-14.9-27.1-15-27.7-17.1c-2.1-11.6,27.8,2.3,35.6,2.5c-9.6-5.8-9.2-3.8-8.2-9.2
										c1.1-1.9,1.2-2.1,17.3-3c-8.5-5.4-2.1-7.8,8.1-12.9c-0.2-0.3-0.4-0.7-0.5-1.2l3.8-1l0.5,0.3l0,0l-0.5-0.3l2.1-3.3
										c10.4,5.3,7.9,8.2-5.1,14.1c5.1,3.1,10.9,4.8,8.3,9.3c-3.5,4-11.8,1.7-17.4,2.8c19.3,11.5,18.6,7.9,17.8,14.9
										c-6.1,5.6-23.5-3.2-32.7-4c1.2,0.6,2.3,1.3,3.4,1.9c30.5,16.8,30.5,16.9,31.1,19.1c1.8,12.7-30.9-4.7-39-5.6
										c37.6,20.5,37.8,21.4,38.5,23.7c1,13.6-30.6-5.3-40.7-7.5c32.3,18.1,32.5,18.7,33.1,20.8c1.1,4.7-4.3,6-7.3,4
										c-16.9-6.7-34.9-14.3-54.2-22.1c63,36.9,61.1,30.3,61,39.6c-4.1,7.3-49.4-18.1-61.5-21.4c9,5,18.1,10,26.5,14.8
										c37,22.2,36,18.4,35.5,26.4c-5,7.9-53.9-22-68.4-27c14.8,9.8,78.3,40.5,69.2,44.4c-3.7,8.5-70.9-28.5-85-33.1
										c2.4,1.3,4.7,2.5,7,3.8c69.5,37.3,76.8,41.9,77.8,45.6c1.3,5.7-5.7,6.2-9.3,4.3c-23.4-8.6-54-24.1-80.2-36.5
										c9,4.9,17.7,9.6,25.3,13.8c55.3,30,55.4,30.2,56.1,32.7c0.3,1,0.1,2.1-0.4,3c-6.2,6.4-22.1-6.4-33.6-10.3
										c-17.4-8.2-41.9-20.2-64-31.1C494.4,932,569,971,573.5,978.2c0.6,14.6-33-8.6-45.7-13c-23.8-11.6-54.9-27.3-84-42
										c27.2,15.3,71,39.8,118.4,66c4.2,2.2,4.9,3.3,3.7,6.6c-7,7.2-30.4-9.4-41.2-13c41.5,25.5,40.3,21.2,40,30.1
										c-6.5,7.1-28.3-9.4-41.9-14.6c-23.6-11.9-58-29.9-87.3-45.3c41.3,24.8,90.9,48.8,124.9,72.5c-0.3,10.1-11.3,1.9-17.8-0.3
										c-21.4-9.5-52.6-24.1-77.1-35.5c12.8,7,25.7,14.1,36.9,20.2c59.3,32.4,59.3,32.6,60,35.1c1,11.9-24.4-2-32-2.6
										C545.2,1051.5,575.1,1062.7,559.8,1067.2z M605.3,954.9c-0.3,0.6-0.5,1.1-0.6,1.7C604.8,956,605,955.4,605.3,954.9z
										 M605.3,954.9C605.3,954.9,605.3,954.9,605.3,954.9C605.3,954.9,605.3,954.9,605.3,954.9z M633.1,608l2.9,1.7L633.1,608
										L633.1,608z"/>
								</g>
							</g>
							<g>
								<g>
									<path class="st7" d="M1113.4,534.4c-2.3,1.3-6.7,1.4-7.1-2.1c-1.6-1.4,7.2-7.9,10.3-10.8c-17.8,1.5-15.5,3.6-18.4-1.4
										c1.1-5.7,11.3-6.6,16.5-10.1c-14.6,1.1-12.6,2.9-15.3-1.9c1-5.9,15.9-8.3,21.9-12.3c-7.3-0.3-29.5,6.1-29.7-0.2
										c1-7.2,26.3-10.1,35.1-14.2c-11.7,0.7-44.2,7.8-41.4,1.6c-0.3-6.3,32.5-9.8,41.3-13.5c-25.5,2-51,8.2-50.6,1.6
										c0.1-7.4,47.8-12.4,58.7-16.5c-15,0.9-45.1,6.7-55.1,5c-9.1-9.4,42.1-13.9,50.9-17.5c-53.4,6.7-59.4,6.6-61.6,4.9
										c-3.3-2.9-0.1-6.3,3.5-6.4c27.3-5.3,55.5-10.1,87.3-16.4c-8.2,1.1-16.8,2.2-24.8,3.3c-63.2,8.4-70.2,8.8-72.7,6.8
										c-3.2-3.2-0.4-6.2,4.2-6.5c28.5-5.6,58.9-11,91.3-17.3c-31.5,2.5-76.8,10.3-103.7,10.3c-13.8-11.1,88.3-19.5,100.7-23.5
										c-35.8,3.2-69.9,10.6-99.4,11.1c-13.2-10.9,83.2-19.6,95.9-23.7c-42,4.3-110.5,14.2-107.6,10.9
										c-12-11.5,72.4-18.3,84.3-21.9c-7.5,0.9-14.8,1.7-21.6,2.5c-68,8-68,8-69.6,6.7c-3.2-3,0.2-6.2,3.6-6.1
										c49.7-7.2,129.6-17.9,185.4-27.8c-27.3-0.3-188.1,28.6-189.5,19c1.3-9.7,65.2-14.4,81.1-18.8
										c-70.2,8.7-106.9,14.6-88.1,2.5c21.3-4.8,46-9.7,69.5-15c-13.8,1.2-74.2,10.1-71.2,7.4c-6.2-7.6,17.1-10.7,22.4-14.1
										c-7.9,0.4-27.9,4.1-30.7,2.3c-2.1-1.9-1.4-7.3-2.3-11.1c-3.9,0.6-8.1,0.9-8.2-0.1l2-2.5l3.2-0.3c-0.2-1.8-1.9-3-3.3-2.9
										c13.4-2,12.1-1.5,13.4,10.9c6.2,0.7,55.6-9.4,53.9-2.4c-0.8,6.1-18.6,8.2-24.8,11.8c2.8-0.3,5.7-0.7,8.6-1.1
										c67.8-8.4,72-8.3,74-6.6c9.4,10.1-45.7,15.4-54.3,19.1c9.1-1.1,18.7-2.3,27.9-3.4c85.6-10.5,90-10.5,92.2-8.7
										c12.2,10.2-63.5,15.5-74.9,19.3c25.9-2.9,125.3-17.2,129.8-11.9c8.6,10.5-32.5,12.2-40.8,15c25.4-1.5,23.1-3.5,26.3,1.7
										c-0.8,6.3-10.7,4.1-17.6,6.3c-33.4,5.2-72.2,10.9-110.9,17.2c104.7-11.9,120.9-15,119.4-9.1c-1.3,7-15,5.2-23.9,8
										c-14.8,2.6-38.7,6.6-58.3,9.9c62.7-7.4,69.6-6.9,71.7-5.2c3.8,4.5-0.7,6.6-7.5,7.7c-20.9,4.1-42.9,7.3-69.1,11.5
										c10.1-1.1,19.9-2.2,28.9-3.1c38.6-4.1,38.6-4,40.1-2.9c12.7,9.2-62.7,17.2-72,20.6c56.1-6.1,58.4-10.1,63-3.1
										c-1.2,9.2-49.2,13.1-62.1,17.2c34.7-3.9,45.4-7.5,45.3-1.9c-1.2,8.2-45,12.2-57,16.4c48.3-5.4,48.4-5.3,49.9-4.1
										c9.5,9.4-46,14.9-54.8,18.7c9-0.2,27.3-4.8,38.8-3.6c6.7,8.9-22.8,11.1-30,14.5c20.4-1.5,18.3-3.4,21.3,1.6
										c-1.1,7.1-23.9,9.4-32.7,13.4c4.7-0.2,16.7-2.7,17.9-0.9c6,6.9-15.4,10.9-20.1,14.5c13.8-1.1,11.6-3,14.2,1.7
										c-0.9,5.7-11.3,7-16.2,10.3c8.4-0.7,7.4-1.6,9.2,2.3c0.2,2,0.2,2-13.4,13.7c-0.5,0.4-0.9,0.8-1.4,1.2
										C1114.8,532.8,1114.3,533.8,1113.4,534.4z M1181.7,496.3c-0.9,1.5-0.4,3.3,0.7,4.1C1181.3,499.5,1180.9,497.7,1181.7,496.3
										z M1234.6,269.9C1234.6,269.9,1234.6,269.9,1234.6,269.9C1234.6,269.9,1234.6,269.9,1234.6,269.9z"/>
								</g>
							</g>
							<g>
								<g>
									<path class="st7" d="M1859.8,1419.1c-41.7-15.2-84.3-41.2-130.2-63.5c23,12.9,51.9,29,87.9,48.9c10.7,6.5,10.1,3.9,9.2,9.4
										c-6.7,7.4-37-12.9-50.6-17.8c9.4,6.8,11.1,6,9.8,11.5c-5.4,8.7-71-30.7-87.3-36.7c10.4,6.6,40.9,21.6,42.4,25.5
										c0,8.7-9.1,2.9-14.5,1c-13.2-5.4-34.6-14.8-50.3-21.6c27.3,16,26.2,11.6,25.6,18.8c-4.5,6.4-34.6-11.5-44.6-14.2
										c9.1,5.1,9.2,5.4,9.6,6.8c2.2,13-37.7-7.4-45.7-8.4c-1.7,9.6-10.5-0.6-17.1-3c-13.7-7.4-13.7-7.5-14.3-9.4
										c-2.8-12.5,32.9,6.7,40.5,7.6c-34.7-20.4-33.6-16-33.1-23.7c2.8-6.5,37.7,14,47.3,16.5c-33.8-19.9-32.8-16-32.3-23.6
										c1.6-7.4,58.3,23.6,70.4,27.1c-14.3-8.9-60.2-32.4-63.2-37.5c0.1-12.4,21.5,3.1,31,6.2c21.4,10.1,52.4,25.6,77,37.6
										c-20.2-12-105.3-55.9-98.9-56.1c-0.3-1-0.1-2,0.4-2.9c4.6-5,10.2,2.1,16.8,4.2c28.7,14.6,58.7,30.1,93.4,47.5
										c-8.9-5-18-10.1-26.8-15c-77.1-43.5-77.6-45.3-78.2-47.6c-0.1-6.9,4.5-5.6,13.2-1.3c39.1,18.9,88.1,44.9,131.5,66.9
										c-34.7-20.9-102.3-54.7-126.7-73.2c-4-17.4,66.6,26.2,78.4,29.9c-10.2-5.6-20.1-11.1-29.1-16.2
										c-42.8-24.2-43.5-26.5-44.2-28.8c-0.9-5.4,4.2-6.1,8.4-3.3c40.5,19.8,85.5,43.1,131.8,65.3c-13.3-7.2-28-15.1-41.5-22.3
										c-78.1-41.9-88.8-48.5-90-52.5c-0.3-1.1-0.2-2.2,0.4-3.1c4.2-5,10.6,2.1,16.9,3.9c27.4,12.9,58.6,27.7,90.5,42.5
										c-29.7-18.1-75.7-40.4-99.4-57.7c-4.6-17.7,72.6,28.4,84.8,32.1c-25.2-15.2-50.7-25.3-69.4-39.4
										c-3.4-15.7,57.9,18.9,68.7,21.5c-17.2-10.7-53.9-27.6-64.2-37.5c-2.1-14.6,45.5,12.4,54.8,14.4
										c-11.2-6.2-25.9-14.4-35.1-19.5c-12-7.4-11.7-4.9-10.7-10.6c2.4-6.7,45.7,17.1,59.6,20.9c-12.6-7.4-47.8-24.6-44.6-25.9
										c-1.3-12.3,29.1,4,38.6,5.5c-1.2-0.6-2.3-1.3-3.4-1.9c-30.9-17-30.9-17.1-31.5-19.2c-1.7-11,25.7,1.7,33.2,1.7
										c-9.5-5.8-18-7.7-14.9-12.6c0.9-1.6,1-1.7,14.4-4.1c-11.5-5.8-10.3-6.5-2-17.4c-2-1.2-2.4-1.5-2.8-2.9l3.6-1l1.3,0.8l0,0
										l-1.3-0.8l2-3.1c10,4.6,6.4,7-0.3,16.1c4.3,3.3,16.7,6.8,13.3,11.9c1,1.5-10.1,3.2-14.5,4c20.8,11.3,25.8,14.4,25.1,15.6
										c2.4,10.6-22.1,0.4-30.8-0.4c3,1.6,6,3.3,8.8,4.9c33.6,18.5,33.6,18.6,34.2,20.8c1.8,12.2-30.2-4.8-38-5.7
										c49.2,28.5,47.8,23.1,47.6,32c-6,6.2-28.3-7.8-39.8-10.9c44.2,26.2,42.6,20.7,42.4,29.1c-2.7,7-51.2-19.6-62.9-22.7
										c64,36.2,77.8,41.6,73.3,46.4c-4.4,7-50.4-19.4-62.9-22.9c72,41.4,74.7,38.6,74.4,48.1c-5.1,7.7-56.3-23.9-71.3-29.2
										c15.1,8.6,30.3,17.1,43.4,24.7c38,21.7,38.1,21.8,38.6,23.9c-0.4,9.8-11.3,1.8-17.7-0.2c-20.1-8.7-50.2-22.9-73.4-33.7
										c5,2.7,9.9,5.3,14.7,7.9c77.3,41.4,85.9,46.9,87,50.7c0.3,1.1,0.2,2.2-0.4,3.1c-5.9,9.6-80.4-33.9-97.2-40.3
										c30.5,17.3,107.2,56.5,100.5,56.9c0.3,1,0.1,2-0.4,2.9c-6,6.3-23.7-7.5-35.5-11.6c-18.7-9.1-45-22.3-68.7-34.2
										c26.9,16.1,112,60.8,119.1,69.6C1864.2,1416.6,1862.3,1419.2,1859.8,1419.1z M1526.2,1485.8c-0.2,0.4-0.4,0.8-0.4,1.2
										C1525.9,1486.6,1526,1486.2,1526.2,1485.8z"/>
								</g>
							</g>
						</g>
						<g class="st0">
							<g>
								<path class="st7" d="M456.7,1457.6c-168.3-3-168.3-251,0-253.9C625,1206.7,625,1454.7,456.7,1457.6z M456.7,1250.8
									c-105.9,1.9-105.9,157.9,0,159.8C562.6,1408.7,562.5,1252.7,456.7,1250.8z"/>
							</g>
							<g>
								<path class="st7" d="M1704.7,742.9c-115-2.1-115-171.4,0-173.5C1819.7,571.5,1819.7,740.9,1704.7,742.9z M1704.7,601.6
									c-72.3,1.3-72.3,107.8,0,109.1C1777,709.4,1777,602.9,1704.7,601.6z"/>
							</g>
							<g>
								<path class="st7" d="M2004.8,1129.9c-76.7-1.4-76.6-114.3,0-115.6C2081.5,1015.6,2081.5,1128.6,2004.8,1129.9z
									 M2004.8,1035.7c-48.2,0.9-48.2,71.9,0,72.7C2053,1107.6,2053,1036.6,2004.8,1035.7z"/>
							</g>
						</g>
					</g>
				</g>
			</g>
			<g>
				<g>
					<g>
						<linearGradient id="SVGID_3_" gradientUnits="userSpaceOnUse" x1="1176.7817" y1="1663.4979" x2="1176.7817" y2="1386.5239">
							<stop  offset="0" style="stop-color:#EFC4A3"/>
							<stop  offset="1" style="stop-color:#E37D21"/>
						</linearGradient>
						<rect x="1099.8" y="1386.5" class="st8" width="153.9" height="277"/>
						<linearGradient id="SVGID_4_" gradientUnits="userSpaceOnUse" x1="1176.7808" y1="1663.4999" x2="1176.7808" y2="1570.0593">
							<stop  offset="0" style="stop-color:#EFC4A3"/>
							<stop  offset="1" style="stop-color:#E37D21"/>
						</linearGradient>
						<path class="st9" d="M1342.1,1663.5h-330.5c-6.5,0-11.8-5.3-11.8-11.8v-69.8c0-6.5,5.3-11.8,11.8-11.8h330.5
							c6.5,0,11.8,5.3,11.8,11.8v69.8C1353.9,1658.2,1348.6,1663.5,1342.1,1663.5z"/>
					</g>
				</g>
				<linearGradient id="SVGID_5_" gradientUnits="userSpaceOnUse" x1="1176.9242" y1="1403.9598" x2="1176.9242" y2="480.0392">
					<stop  offset="0" style="stop-color:#EFC4A3"/>
					<stop  offset="1" style="stop-color:#E37D21"/>
				</linearGradient>
				<path class="st10" d="M1255.6,1400.6c-206.5,16.4-416.1-21-427.9-270.5c9.6-231.3-79.3-636.1,270.5-646.8
					c206.5-16.4,416.1,21,427.8,270.5C1516.5,985.1,1605.4,1390,1255.6,1400.6z"/>
				<g>
					<g>
						<defs>
							<polygon id="SVGID_6_" points="-2143.4,5.9 -2141.5,5.9 -2143.4,7.8 							"/>
						</defs>
						<defs>
							<polygon id="SVGID_7_" points="-2147.4,2 -2149.3,2 -2147.4,0 							"/>
						</defs>
						<clipPath id="SVGID_8_">
							<use xlink:href="#SVGID_6_"  style="overflow:visible;"/>
						</clipPath>
						<clipPath id="SVGID_9_" class="st11">
							<use xlink:href="#SVGID_7_"  style="overflow:visible;"/>
						</clipPath>
						<defs>
							<filter id="Adobe_OpacityMaskFilter" filterUnits="userSpaceOnUse" x="891.8" y="567.5" width="570.3" height="749.1">
								<feColorMatrix  type="matrix" values="1 0 0 0 0  0 1 0 0 0  0 0 1 0 0  0 0 0 1 0"/>
							</filter>
						</defs>
						<mask maskUnits="userSpaceOnUse" x="891.8" y="567.5" width="570.3" height="749.1" id="SVGID_10_">
							<g class="st12">
								<g>
									<defs>
										<polygon id="SVGID_11_" points="-2143.4,5.9 -2141.5,5.9 -2143.4,7.8 										"/>
									</defs>
									<defs>
										<polygon id="SVGID_12_" points="-2147.4,2 -2149.3,2 -2147.4,0 										"/>
									</defs>
									<clipPath id="SVGID_13_" class="st13">
										<use xlink:href="#SVGID_11_"  style="overflow:visible;"/>
									</clipPath>
									<clipPath id="SVGID_14_" class="st14">
										<use xlink:href="#SVGID_12_"  style="overflow:visible;"/>
									</clipPath>
									
										<linearGradient id="SVGID_15_" gradientUnits="userSpaceOnUse" x1="1051.6556" y1="558.1149" x2="1287.6239" y2="1123.0103" gradientTransform="matrix(1 0 0 -1 0 1800)">
										<stop  offset="0" style="stop-color:#FFFFFF"/>
										<stop  offset="1" style="stop-color:#CCCCCC"/>
									</linearGradient>
									<path class="st15" d="M1241.2,1316.5h-128.5c-122,0-220.9-98.9-220.9-220.9V788.3c0-122,98.9-220.9,220.9-220.9h128.5
										c122,0,220.9,98.9,220.9,220.9v307.4C1462.1,1217.7,1363.2,1316.5,1241.2,1316.5z"/>
								</g>
							</g>
						</mask>
						
							<linearGradient id="SVGID_16_" gradientUnits="userSpaceOnUse" x1="1051.6556" y1="558.1149" x2="1287.6239" y2="1123.0103" gradientTransform="matrix(1 0 0 -1 0 1800)">
							<stop  offset="0" style="stop-color:#FFFFFF"/>
							<stop  offset="1" style="stop-color:#CCCCCC"/>
						</linearGradient>
						<path class="st16" d="M1241.2,1316.5h-128.5c-122,0-220.9-98.9-220.9-220.9V788.3c0-122,98.9-220.9,220.9-220.9h128.5
							c122,0,220.9,98.9,220.9,220.9v307.4C1462.1,1217.7,1363.2,1316.5,1241.2,1316.5z"/>
					</g>
				</g>
				
					<linearGradient id="SVGID_17_" gradientUnits="userSpaceOnUse" x1="1052.5483" y1="560.2505" x2="1286.8359" y2="1121.1223" gradientTransform="matrix(1 0 0 -1 0 1800)">
					<stop  offset="0" style="stop-color:#DBD0FF"/>
					<stop  offset="1" style="stop-color:#FFFFFF"/>
				</linearGradient>
				<path class="st17" d="M1241.2,1316.5c-168.6,13.4-339.8-17.2-349.4-220.9c7.8-188.9-64.8-519.5,220.9-528.2
					c168.6-13.4,339.8,17.2,349.4,220.9C1454.3,977.2,1526.8,1307.8,1241.2,1316.5z"/>
				<g>
					<g>
						<g>
							
								<linearGradient id="SVGID_18_" gradientUnits="userSpaceOnUse" x1="734.4616" y1="74.7633" x2="1280.7267" y2="836.1204" gradientTransform="matrix(1 0 0 -1 0 1800)">
								<stop  offset="0" style="stop-color:#EFC4A3"/>
								<stop  offset="1" style="stop-color:#E37D21"/>
							</linearGradient>
							<path class="st18" d="M1300.7,841.1h193.1v-58.5h-193.1c-16.2,0-29.2,13.1-29.2,29.2C1271.5,828.1,1284.6,841.1,1300.7,841.1
								z"/>
							
								<linearGradient id="SVGID_19_" gradientUnits="userSpaceOnUse" x1="858.5456" y1="-12.4841" x2="1404.8107" y2="748.8734" gradientTransform="matrix(1 0 0 -1 0 1800)">
								<stop  offset="0" style="stop-color:#EFC4A3"/>
								<stop  offset="1" style="stop-color:#E37D21"/>
							</linearGradient>
							<path class="st19" d="M1300.7,1042.8h193.1v58.5h-193.1c-16.2,0-29.2-13.1-29.2-29.2
								C1271.5,1055.9,1284.6,1042.8,1300.7,1042.8z"/>
							
								<linearGradient id="SVGID_20_" gradientUnits="userSpaceOnUse" x1="796.761" y1="31.4642" x2="1342.821" y2="792.5357" gradientTransform="matrix(1 0 0 -1 0 1800)">
								<stop  offset="0" style="stop-color:#EFC4A3"/>
								<stop  offset="1" style="stop-color:#E37D21"/>
							</linearGradient>
							<path class="st20" d="M1301,971.2h192.8v-58.5H1301c-16.3,0-29.5,13.1-29.5,29.2l0,0C1271.5,958.2,1284.7,971.2,1301,971.2z"
								/>
						</g>
						<g>
							
								<linearGradient id="SVGID_21_" gradientUnits="userSpaceOnUse" x1="453.2199" y1="276.0861" x2="999.485" y2="1037.4435" gradientTransform="matrix(1 0 0 -1 0 1800)">
								<stop  offset="0" style="stop-color:#EFC4A3"/>
								<stop  offset="1" style="stop-color:#E37D21"/>
							</linearGradient>
							<path class="st21" d="M1053.1,841.1H860v-58.5h193.1c16.2,0,29.2,13.1,29.2,29.2C1082.4,828.1,1069.3,841.1,1053.1,841.1z"/>
							
								<linearGradient id="SVGID_22_" gradientUnits="userSpaceOnUse" x1="577.3045" y1="188.8405" x2="1123.5696" y2="950.1979" gradientTransform="matrix(1 0 0 -1 0 1800)">
								<stop  offset="0" style="stop-color:#EFC4A3"/>
								<stop  offset="1" style="stop-color:#E37D21"/>
							</linearGradient>
							<path class="st22" d="M1053.1,1042.8H860v58.5h193.1c16.2,0,29.2-13.1,29.2-29.2C1082.4,1055.9,1069.3,1042.8,1053.1,1042.8z
								"/>
							
								<linearGradient id="SVGID_23_" gradientUnits="userSpaceOnUse" x1="515.3974" y1="232.6848" x2="1061.4569" y2="993.7558" gradientTransform="matrix(1 0 0 -1 0 1800)">
								<stop  offset="0" style="stop-color:#EFC4A3"/>
								<stop  offset="1" style="stop-color:#E37D21"/>
							</linearGradient>
							<path class="st23" d="M1052.9,971.2H860v-58.5h192.8c16.3,0,29.5,13.1,29.5,29.2l0,0C1082.4,958.2,1069.2,971.2,1052.9,971.2
								z"/>
						</g>
						<g>
							
								<linearGradient id="SVGID_24_" gradientUnits="userSpaceOnUse" x1="744.0029" y1="75.0227" x2="1287.194" y2="832.0956" gradientTransform="matrix(1 0 0 -1 0 1800)">
								<stop  offset="0" style="stop-color:#EFC4A3"/>
								<stop  offset="1" style="stop-color:#E37D21"/>
							</linearGradient>
							<path class="st24" d="M1207.7,1018.4V1215c0,16.9-13.9,30.5-30.8,30.5c-17,0-30.8-13.7-30.8-30.5v-196.5
								C1165.1,1025.9,1188.8,1025.8,1207.7,1018.4z"/>
							
								<linearGradient id="SVGID_25_" gradientUnits="userSpaceOnUse" x1="571.824" y1="197.9928" x2="1115.0356" y2="955.0944" gradientTransform="matrix(1 0 0 -1 0 1800)">
								<stop  offset="0" style="stop-color:#EFC4A3"/>
								<stop  offset="1" style="stop-color:#E37D21"/>
							</linearGradient>
							<path class="st25" d="M1207.7,669v189c-18.9-7.5-42.6-7.5-61.6-0.1V669c0-16.9,13.9-30.5,30.8-30.5
								C1193.9,638.5,1207.7,652.2,1207.7,669z"/>
							
								<linearGradient id="SVGID_26_" gradientUnits="userSpaceOnUse" x1="654.7305" y1="134.2009" x2="1200.2043" y2="894.4557" gradientTransform="matrix(1 0 0 -1 0 1800)">
								<stop  offset="0" style="stop-color:#EFC4A3"/>
								<stop  offset="1" style="stop-color:#E37D21"/>
							</linearGradient>
							<path class="st26" d="M1227.7,938.2c-1.1,66.4-100.8,66.4-101.9,0C1126.9,871.8,1226.6,871.8,1227.7,938.2z"/>
						</g>
					</g>
				</g>
			</g>
		</g>
		<g>
			<g>
				<g>
					
						<linearGradient id="SVGID_27_" gradientUnits="userSpaceOnUse" x1="2700.1914" y1="197.0344" x2="2688.1599" y2="154.9235" gradientTransform="matrix(-0.9988 -4.830000e-02 4.830000e-02 -0.9988 4098.1016 1944.397)">
						<stop  offset="0" style="stop-color:#F0877E"/>
						<stop  offset="1" style="stop-color:#FABEB2"/>
					</linearGradient>
					<path class="st27" d="M1400.7,1631.8c0,0,0.2,12.3-0.1,18.5c-0.1,2.7,28.8,15.9,35-2.6l-3.9-14.8l-24-8.5L1400.7,1631.8z"/>
				</g>
				<path class="st28" d="M1342.9,1681.5c67.6,3.3,98.9-2.2,98.9-2.2c1.6-18.5-6.2-31.6-6.2-31.6c-15.3,18.4-49.2-10-72.7,2.1
					C1350.1,1654.1,1342.6,1669,1342.9,1681.5z"/>
			</g>
			<g>
				<g>
					
						<linearGradient id="SVGID_28_" gradientUnits="userSpaceOnUse" x1="2705.4526" y1="47.3606" x2="2693.4346" y2="5.2977" gradientTransform="matrix(-0.9242 -0.3818 0.3818 -0.9242 3784.1509 2637.2732)">
						<stop  offset="0" style="stop-color:#F0877E"/>
						<stop  offset="1" style="stop-color:#FABEB2"/>
					</linearGradient>
					<path class="st29" d="M1287.6,1571c0,0-4,11.6-6.3,17.4c-1,2.5,21.7,24.6,33.8,9.2l1.3-15.2l-19.7-16L1287.6,1571z"/>
				</g>
				<path class="st28" d="M1216.3,1598.5c62.5,25.7,93.9,30.9,93.9,30.9c7.8-16.9,4.9-31.8,4.9-31.8c-20.7,12.2-42.9-25.8-69.2-22.3
					C1232.3,1575.1,1220.2,1586.6,1216.3,1598.5z"/>
			</g>
			<g>
				
					<linearGradient id="SVGID_29_" gradientUnits="userSpaceOnUse" x1="2553.843" y1="-211.3879" x2="2426.4036" y2="-217.5148" gradientTransform="matrix(0.7558 0.6548 0.6548 -0.7558 -393.0057 -667.6478)">
					<stop  offset="0" style="stop-color:#F0877E"/>
					<stop  offset="1" style="stop-color:#FABEB2"/>
				</linearGradient>
				<path class="st30" d="M1317.7,1124.9c0.2,0.1,0.3,0.1,0.3,0.1c0,0-0.1,0-0.1,0c3.6,2,7.3,4,10.9,5.9c11-8.3,13.4-22.8,13.9-23.1
					c-3.9-1.4-7.3-2.5-9.8-3.4c-3.8-4.8-2.9-10.7-5.2-16.2c-2.5-4.6,1.7-8,1-9.5c-0.6-1.5-1.3-1.5-4,0.8
					c-3.1,0.4-3.1,24.2-11.3,16.3l-6.8-9.1c0,0-1.8-6.6-3.3-12.5c-10.4-22-2.5,19.5,0.9,21.8c-4.6-2.6-4.9-4.7-10.7-12.8
					c-17.3-17,4.2,18.8,8.2,20c-4.5-1.8-5.3-4-12-11c-17.3-13.4,2.1,12.6,7.4,16c-2.5-2-16.9-12.3-11-2.9
					c4.2,5.1,15.2,14.6,19.1,15.4c3.7,0.4,8.5,3.5,12.5,4.3C1317.8,1124.9,1317.8,1124.9,1317.7,1124.9z"/>
				<path class="st31" d="M1530.2,1109.7c-7.6,43.3-41.5,68.2-82.7,80.5c-18.5,6.1-34-3-49-12.9c-25-16.5-51.8-31.3-75.6-49.6
					c0,0,10.9-7.4,14.8-21.9c31.3,12.3,92.5,35.8,93.7,36.2c16.8-1.5,49.9-32.8,66.7-49.6
					C1511.4,1078.9,1534.4,1091.2,1530.2,1109.7z"/>
			</g>
			<g>
				<g>
					
						<linearGradient id="SVGID_30_" gradientUnits="userSpaceOnUse" x1="1651.5042" y1="456.6846" x2="1716.7925" y2="209.6476" gradientTransform="matrix(1 0 0 -1 0 1800)">
						<stop  offset="0" style="stop-color:#8B5A00"/>
						<stop  offset="1" style="stop-color:#FFA32E"/>
					</linearGradient>
					<polygon class="st32" points="1654.4,1394.8 1730.4,1636.2 1739.6,1636.2 1669.6,1384.1 					"/>
					
						<linearGradient id="SVGID_31_" gradientUnits="userSpaceOnUse" x1="1584.1143" y1="439.0289" x2="1649.4027" y2="191.992" gradientTransform="matrix(1 0 0 -1 0 1800)">
						<stop  offset="0" style="stop-color:#8B5A00"/>
						<stop  offset="1" style="stop-color:#FFA32E"/>
					</linearGradient>
					<polygon class="st33" points="1582.3,1394.8 1658.3,1636.2 1667.6,1636.2 1597.5,1384.1 					"/>
					
						<linearGradient id="SVGID_32_" gradientUnits="userSpaceOnUse" x1="1428.8723" y1="398.2415" x2="1494.0835" y2="151.4967" gradientTransform="matrix(1 0 0 -1 0 1800)">
						<stop  offset="0" style="stop-color:#8B5A00"/>
						<stop  offset="1" style="stop-color:#FFA32E"/>
					</linearGradient>
					<polygon class="st34" points="1501.6,1394.8 1425.5,1636.2 1416.3,1636.2 1486.4,1384.1 					"/>
					
						<linearGradient id="SVGID_33_" gradientUnits="userSpaceOnUse" x1="1528.9043" y1="343.1637" x2="1435.072" y2="653.7811" gradientTransform="matrix(-1 0 0 -1 3080.8669 1800)">
						<stop  offset="0" style="stop-color:#8B5A00"/>
						<stop  offset="1" style="stop-color:#FFA32E"/>
					</linearGradient>
					<path class="st35" d="M1495.8,1422.3h157c19.4,0,36-13.9,39.1-32.9l29.2-174.7c4.1-23.3-14.4-45.9-39.1-45.8h-121.1
						c-16.6,0-31.5,10.2-37.2,25.7l-65.1,174.7C1449,1395,1468.2,1422.3,1495.8,1422.3z"/>
					
						<linearGradient id="SVGID_34_" gradientUnits="userSpaceOnUse" x1="1643.8035" y1="377.703" x2="1549.7189" y2="689.1556" gradientTransform="matrix(-1 0 0 -1 3080.8669 1800)">
						<stop  offset="0" style="stop-color:#8B5A00"/>
						<stop  offset="1" style="stop-color:#FFA32E"/>
					</linearGradient>
					<path class="st36" d="M1516.2,1383.4c-22.5,0.1-176.2-36.8-163.1,45.9l172.1-8.7L1516.2,1383.4z"/>
				</g>
				
					<linearGradient id="SVGID_35_" gradientUnits="userSpaceOnUse" x1="1536.5128" y1="483.2693" x2="1360.2416" y2="549.1106" gradientTransform="matrix(-1 0 0 -1 3080.8669 1800)">
					<stop  offset="0" style="stop-color:#8B5A00"/>
					<stop  offset="1" style="stop-color:#FFA32E"/>
				</linearGradient>
				<path class="st37" d="M1564.9,1190.5c0,0,12.5,213.4,12.6,214.8c102.7-4,80.3,19.7,111.7-104.4c32.2-145.3,14.2-120.9-113.6-122
					L1564.9,1190.5z"/>
			</g>
			
				<linearGradient id="SVGID_36_" gradientUnits="userSpaceOnUse" x1="1530.0585" y1="781.0513" x2="1539.0875" y2="714.462" gradientTransform="matrix(-1 0 0 -1 3080.8669 1800)">
				<stop  offset="0" style="stop-color:#F0877E"/>
				<stop  offset="1" style="stop-color:#FABEB2"/>
			</linearGradient>
			<path class="st38" d="M1529.9,1023c0,0,9.2,51.1-12.6,55c0,0,27,28.5,52.5-10.4c0,0-5.1-26.6,0-47.5L1529.9,1023z"/>
			<path class="st28" d="M1357.7,1465.4c13.4,75.5,42.9,170.8,42.9,170.8c17.9,3.4,32.6,0,32.6,0s-9.8-60,0-114.9
				c9.8-54.9-10.2-92-10.2-92c5.9-13.9,64.3-16.5,113.9-20.7c-47.3-4.5-151-40.5-164.8-24.6
				C1372.1,1384,1378.6,1420.3,1357.7,1465.4z"/>
			<g>
				<g>
					<path class="st28" d="M1357.7,1465.4c20.8-45.1,14.4-81.4,14.4-81.4c19.7-19,136,32,185.7,22.6c23.3-2.5,42.1-5.9,48.1-11.8
						c19.5-19.4-4.6-88.4-4.6-88.4l-41-30.6c-4.8,4.3-37.3,33.5-42.9,38.6c0,0-159,19.6-165.6,80.9
						C1349.9,1412,1352.7,1437.3,1357.7,1465.4z"/>
					<path class="st28" d="M1286.4,1574c16,8.8,31,10,31,10c-1.6,2.1,15.1-76.3,40.4-118.5c-5-28.1-7.8-53.4-6-70
						c6.5-61.4,165.6-80.9,165.6-80.9l35.1-31.5l-2-2.8l-52.9,23.5c0,0-157.4-30.1-182.7,26.3
						C1289.6,1386.3,1286.4,1574,1286.4,1574z"/>
				</g>
			</g>
			<path class="st39" d="M1626.1,1176c-4,48.1-25.4,134.6-24.9,130.4c-39.1,13.6-84.3,13.9-116.8-2.2c5.2-39.8-1.6-88.2-5.9-127
				c-2.4-19.9-6.4-34.7-3.1-53.7c1.1-16.1,12-21.5,31.2-38.9c7.9-4.5,21.5-14.4,21.3-15.7c-1.3,3.2-2,16.3,8.5,14.9
				c23.5-0.9,33.3-16.3,33.3-16.3c18.1-0.4,53.8,26.3,53.8,26.3C1629.7,1114.6,1629.3,1144.8,1626.1,1176z"/>
			<g>
				<path class="st40" d="M1486.7,952.9c7.6-17.6,64.3-59.1,96.1-7.1c0,0,16.8-2.2,20.8,23.9c4,26-25.7,64.8-25.7,64.8l-21.8-63.6
					L1486.7,952.9z"/>
				
					<linearGradient id="SVGID_37_" gradientUnits="userSpaceOnUse" x1="6234.9321" y1="-156.9101" x2="6247.0356" y2="-269.4738" gradientTransform="matrix(-0.9561 7.000000e-03 2.310000e-02 -0.8599 7510.6616 762.8809)">
					<stop  offset="0" style="stop-color:#F0877E"/>
					<stop  offset="1" style="stop-color:#FABEB2"/>
				</linearGradient>
				<path class="st41" d="M1489.2,976.8c14.4,27.9-9.7,67.1,34.7,90.7c11.5-3,60.6-13.5,57.8-56.4c1.1-7.5,11.8-12.1,6.1-23.8
					c-5.7-11.7-10.7-3.4-10.7-3.4s-2-9.3-4.2-17C1570.6,959.2,1489.2,976.8,1489.2,976.8z"/>
				<path class="st40" d="M1578.3,995.6c0,0-7,31.6-10.8,33.6c-14.1-5.7,0.6-43.3-21.9-49.1c-13.2-3.4-49.5,39.3-99.3,11.1
					c14.8,3.7,29-13,33.1-25.3C1499,909.1,1591.6,938.7,1578.3,995.6z"/>
			</g>
			
				<linearGradient id="SVGID_38_" gradientUnits="userSpaceOnUse" x1="1548.1068" y1="318.5775" x2="1350.5076" y2="392.3853" gradientTransform="matrix(1 0 0 -1 0 1800)">
				<stop  offset="0" style="stop-color:#3600A2"/>
				<stop  offset="1" style="stop-color:#42008B"/>
			</linearGradient>
			<path class="st42" d="M1536.9,1408.6c-30.6,2.5-64.5,4.5-87.4,8.9c-76.2-30.8-46.1-6.3-89,62.5c-1-4.9-1.9-9.8-2.7-14.6
				c20.8-45.1,14.4-81.4,14.4-81.4C1385.9,1368.1,1489.5,1404.1,1536.9,1408.6z"/>
			<path class="st40" d="M1536.9,1408.6c-30.6,2.5-64.5,4.5-87.4,8.9c-76.2-30.8-46.1-6.3-89,62.5c-1-4.9-1.9-9.8-2.7-14.6
				c20.8-45.1,14.4-81.4,14.4-81.4C1385.9,1368.1,1489.5,1404.1,1536.9,1408.6z"/>
			<path class="st39" d="M1626.1,1176c-4.6-16.1-11.3-16.8-13.8,0.3c-4.4,6.5-23.8,22.7-108.1,18.5c0,0,43.7,10.6,78.9,4.3
				c31.2-2.6,20.7,32.4,16.1,50.9c-17.7,0.9-96.6,5.1-105.2,9.9c-9.1,5-7.5,18.8-7.7,27.4c10.4,1.1,63.2,6.6,88.4,10.6
				c-34.9,13-70.7,13.7-90.2,3.1c14.5,14.5,54.7,24,116.9,5.4c0,0,15.5-57,23.1-115.3c2.3,6,5,12.3,7.8,18.4
				C1632.1,1209.5,1630.1,1189.6,1626.1,1176z"/>
			<g>
				<path class="st31" d="M1660.5,1175.6c0.7,32.5-1.6,89.7-9.5,105.1c-11.8,30.3-133.5,5.7-164,4c5.9-13.9,6.9-24.8,6.9-24.8
					c20-0.8,102-4.5,119.2-5c-14.2-40.8,6.2-158.4,6.2-158.4s0.7,1,1.8,2.7l2.5-5.3C1623.7,1091.3,1668.1,1129.4,1660.5,1175.6z"/>
				
					<linearGradient id="SVGID_39_" gradientUnits="userSpaceOnUse" x1="1665.2166" y1="533.8445" x2="1458.6062" y2="525.7736" gradientTransform="matrix(1 0 0 -1 0 1800)">
					<stop  offset="0" style="stop-color:#F0877E"/>
					<stop  offset="1" style="stop-color:#FABEB2"/>
				</linearGradient>
				<path class="st43" d="M1493.8,1259.9c0,0-0.9,10.9-6.9,24.8c0,0-48.8,7.1-48.2-3.1c0.6-9.8,35-13.3,38-13.5
					c-1.4,0.1-9.1,0.7-2.6-2.9C1481.3,1261.2,1493.8,1259.9,1493.8,1259.9z"/>
			</g>
			<path class="st44" d="M1569.3,1065.7c0,0,5.7,0.3,6.8,3.2c1.2,2.9-13.5,32.6-19.7,35.3c-6.1,2.7-20.3-21-20.3-21
				S1563.7,1077.6,1569.3,1065.7z"/>
			<path class="st44" d="M1528.6,1067.2c-12.7,5.3-8,56.4,7.6,15.9C1536.2,1083.2,1525.4,1081.5,1528.6,1067.2z"/>
		</g>
		<g>
			<path class="st31" d="M845.8,1126.5c0,0,40.4,62.5,40.4,80.7s-26.2,29.3-26.2,29.3L845.8,1126.5z"/>
			<g>
				<g>
					
						<linearGradient id="SVGID_40_" gradientUnits="userSpaceOnUse" x1="-1040.7999" y1="377.9413" x2="-1052.8317" y2="335.8302" gradientTransform="matrix(0.9988 -4.830000e-02 -4.830000e-02 -0.9988 2000.9861 1944.397)">
						<stop  offset="0" style="stop-color:#F0877E"/>
						<stop  offset="1" style="stop-color:#FABEB2"/>
					</linearGradient>
					<path class="st45" d="M953.1,1631.8c0,0-0.2,12.3,0.1,18.5c0.1,2.7-28.8,15.9-35-2.6l3.9-14.8l24-8.5L953.1,1631.8z"/>
				</g>
				<path class="st28" d="M1010.9,1681.5c-67.6,3.3-98.9-2.2-98.9-2.2c-1.6-18.5,6.2-31.6,6.2-31.6c15.3,18.4,49.2-10,72.7,2.1
					C1003.8,1654.1,1011.3,1669,1010.9,1681.5z"/>
			</g>
			<g>
				<g>
					
						<linearGradient id="SVGID_41_" gradientUnits="userSpaceOnUse" x1="-756.1878" y1="1477.4125" x2="-768.2057" y2="1435.3499" gradientTransform="matrix(0.9242 -0.3818 -0.3818 -0.9242 2314.937 2637.2732)">
						<stop  offset="0" style="stop-color:#F0877E"/>
						<stop  offset="1" style="stop-color:#FABEB2"/>
					</linearGradient>
					<path class="st46" d="M1066.2,1571c0,0,4,11.6,6.3,17.4c1,2.5-21.7,24.6-33.8,9.2l-1.4-15.2l19.7-16L1066.2,1571z"/>
				</g>
				<path class="st28" d="M1137.5,1598.5c-62.5,25.7-93.9,30.9-93.9,30.9c-7.8-16.9-4.9-31.8-4.9-31.8
					c20.7,12.2,42.9-25.8,69.2-22.3C1121.5,1575.1,1133.6,1586.6,1137.5,1598.5z"/>
			</g>
			<g>
				<g>
					
						<linearGradient id="SVGID_42_" gradientUnits="userSpaceOnUse" x1="5396.7441" y1="456.6845" x2="5462.0327" y2="209.6475" gradientTransform="matrix(-1 0 0 -1 6099.0879 1800)">
						<stop  offset="0" style="stop-color:#8B5A00"/>
						<stop  offset="1" style="stop-color:#FFA32E"/>
					</linearGradient>
					<polygon class="st47" points="699.5,1394.8 623.4,1636.2 614.2,1636.2 684.3,1384.1 					"/>
					
						<linearGradient id="SVGID_43_" gradientUnits="userSpaceOnUse" x1="5329.355" y1="439.0289" x2="5394.6436" y2="191.9921" gradientTransform="matrix(-1 0 0 -1 6099.0879 1800)">
						<stop  offset="0" style="stop-color:#8B5A00"/>
						<stop  offset="1" style="stop-color:#FFA32E"/>
					</linearGradient>
					<polygon class="st48" points="771.5,1394.8 695.5,1636.2 686.3,1636.2 756.3,1384.1 					"/>
					
						<linearGradient id="SVGID_44_" gradientUnits="userSpaceOnUse" x1="5174.1133" y1="398.2416" x2="5239.3247" y2="151.4968" gradientTransform="matrix(-1 0 0 -1 6099.0879 1800)">
						<stop  offset="0" style="stop-color:#8B5A00"/>
						<stop  offset="1" style="stop-color:#FFA32E"/>
					</linearGradient>
					<polygon class="st49" points="852.3,1394.8 928.3,1636.2 937.5,1636.2 867.5,1384.1 					"/>
					
						<linearGradient id="SVGID_45_" gradientUnits="userSpaceOnUse" x1="-2216.3357" y1="343.1638" x2="-2310.1682" y2="653.7812" gradientTransform="matrix(1 0 0 -1 3018.2209 1800)">
						<stop  offset="0" style="stop-color:#8B5A00"/>
						<stop  offset="1" style="stop-color:#FFA32E"/>
					</linearGradient>
					<path class="st50" d="M858.1,1422.3h-157c-19.4,0-36-13.9-39.1-32.9l-29.2-174.7c-4.1-23.3,14.4-45.9,39.1-45.8h121.1
						c16.6,0,31.5,10.2,37.2,25.7l65.1,174.7C904.9,1395,885.7,1422.3,858.1,1422.3z"/>
					
						<linearGradient id="SVGID_46_" gradientUnits="userSpaceOnUse" x1="-2101.4358" y1="377.7034" x2="-2195.5203" y2="689.156" gradientTransform="matrix(1 0 0 -1 3018.2209 1800)">
						<stop  offset="0" style="stop-color:#8B5A00"/>
						<stop  offset="1" style="stop-color:#FFA32E"/>
					</linearGradient>
					<path class="st51" d="M837.7,1383.4c22.5,0.1,176.2-36.8,163.1,45.9l-172.1-8.7L837.7,1383.4z"/>
				</g>
				
					<linearGradient id="SVGID_47_" gradientUnits="userSpaceOnUse" x1="-2208.7273" y1="483.2695" x2="-2384.9978" y2="549.1105" gradientTransform="matrix(1 0 0 -1 3018.2209 1800)">
					<stop  offset="0" style="stop-color:#8B5A00"/>
					<stop  offset="1" style="stop-color:#FFA32E"/>
				</linearGradient>
				<path class="st52" d="M789,1190.5c0,0-12.5,213.4-12.6,214.8c-102.7-4-80.3,19.7-111.7-104.4c-32.2-145.3-14.2-120.9,113.6-122
					L789,1190.5z"/>
			</g>
			<path class="st28" d="M996.1,1465.4c-13.4,75.5-42.9,170.8-42.9,170.8c-17.9,3.4-32.6,0-32.6,0s9.8-60,0-114.9
				c-9.8-54.9,10.2-92,10.2-92c-5.9-13.9-64.3-16.5-113.9-20.7c47.3-4.5,151-40.5,164.8-24.6C981.8,1384,975.3,1420.3,996.1,1465.4z
				"/>
			<g>
				<path class="st28" d="M996.1,1465.4c-20.8-45.1-14.4-81.4-14.4-81.4c-19.7-19-136,32-185.7,22.6c-23.3-2.5-42.1-5.9-48.1-11.8
					c-19.5-19.4,4.6-88.4,4.6-88.4l41-30.6c4.8,4.3,37.3,33.5,42.9,38.6c0,0,159,19.6,165.6,80.9
					C1003.9,1412,1001.1,1437.3,996.1,1465.4z"/>
				<path class="st28" d="M1067.5,1574c-16,8.8-31,10-31,10c1.6,2.1-15.1-76.3-40.4-118.5c5-28.1,7.8-53.4,6-70
					c-6.5-61.4-165.6-80.9-165.6-80.9l-35.1-31.5l2-2.8l54.6,26.6c0,0,155.6-33.1,180.9,23.3C1064.3,1386.3,1067.5,1574,1067.5,1574
					z"/>
			</g>
			
				<linearGradient id="SVGID_48_" gradientUnits="userSpaceOnUse" x1="5293.3477" y1="318.5775" x2="5095.748" y2="392.3854" gradientTransform="matrix(-1 0 0 -1 6099.0879 1800)">
				<stop  offset="0" style="stop-color:#3600A2"/>
				<stop  offset="1" style="stop-color:#42008B"/>
			</linearGradient>
			<path class="st53" d="M817,1408.6c30.6,2.5,64.5,4.5,87.4,8.9c76.2-30.8,46.1-6.3,89,62.5c1-4.9,1.9-9.8,2.7-14.6
				c-20.8-45.1-14.4-81.4-14.4-81.4C967.9,1368.1,864.3,1404.1,817,1408.6z"/>
			<path class="st40" d="M817,1408.6c30.6,2.5,64.5,4.5,87.4,8.9c76.2-30.8,46.1-6.3,89,62.5c1-4.9,1.9-9.8,2.7-14.6
				c-20.8-45.1-14.4-81.4-14.4-81.4C967.9,1368.1,864.3,1404.1,817,1408.6z"/>
			<path class="st40" d="M756.4,950.1c50.2-16.6,92.1,13.6,92.2,65.9c0,11.3,0.5,76.6-16.6,77.3c-14.7,0.6-15.4-19.1-96.3-5.9
				c-36.5,6-50-32.1-34.2-61.1C722.3,1000.6,722.1,962.3,756.4,950.1z"/>
			<g>
				
					<linearGradient id="SVGID_49_" gradientUnits="userSpaceOnUse" x1="793.1921" y1="804.0378" x2="795.3638" y2="761.9063" gradientTransform="matrix(0.9997 -2.570000e-02 -2.570000e-02 -0.9997 21.8697 1879.1011)">
					<stop  offset="0" style="stop-color:#F0877E"/>
					<stop  offset="1" style="stop-color:#FABEB2"/>
				</linearGradient>
				<path class="st54" d="M809.6,1051.6c0,0-3.8,45.8,10.8,51.2c0,0-21.8,24.5-45.7-10c0,0,4-24.2-1.1-42.9L809.6,1051.6z"/>
				
					<linearGradient id="SVGID_50_" gradientUnits="userSpaceOnUse" x1="674.1379" y1="741.4753" x2="684.3246" y2="646.7394" gradientTransform="matrix(0.953 -7.740000e-02 -9.890000e-02 -0.8545 212.1954 1662.4862)">
					<stop  offset="0" style="stop-color:#F0877E"/>
					<stop  offset="1" style="stop-color:#FABEB2"/>
				</linearGradient>
				<path class="st55" d="M831.4,1002.2c-9.9,23.8,13,56-22.3,78.5c-9.6-1.4-52.1-7.1-52.7-43c-1.5-6.2-10.8-9.3-6.9-19.5
					c3.9-10.2,8.7-3.7,8.7-3.7s0.9-7.9,2.3-14.5C761.9,993.4,831.4,1002.2,831.4,1002.2z"/>
			</g>
			<path class="st39" d="M869.9,1176.8c0.4,15.8-9.4,28.2-10.8,43.5c0,0,0,0,0,0c-2.8,27.4-5.5,61-1,86.3c0.8,4-63.9,22.3-106.4,4.7
				c-11.3-39.1-21.2-81.8-26.3-122.6c-1-28.6-11.1-65.3,11-78.1c10.8-7.4,27.7-17.8,38.3-17.8c0,0,9.3,13.8,30.8,14.1
				c12.6-0.3,7.4-13.8,6.8-15c7.4,12,24.9,12.8,33.5,23.3C852.7,1136.1,867.2,1154.8,869.9,1176.8z"/>
			
				<linearGradient id="SVGID_51_" gradientUnits="userSpaceOnUse" x1="826.2786" y1="552.0726" x2="854.9257" y2="777.3434" gradientTransform="matrix(0.9997 -2.570000e-02 -2.570000e-02 -0.9997 21.8697 1879.1011)">
				<stop  offset="0" style="stop-color:#6F45FF"/>
				<stop  offset="1" style="stop-color:#FF73D9"/>
			</linearGradient>
			<path class="st56" d="M845.8,1114.6c0.2,0.5,6.2,15.7,11.6,28.5C853.7,1131.3,849.4,1119.5,845.8,1114.6z"/>
			
				<linearGradient id="SVGID_52_" gradientUnits="userSpaceOnUse" x1="823.9211" y1="552.0584" x2="852.6428" y2="777.9144" gradientTransform="matrix(0.9997 -2.570000e-02 -2.570000e-02 -0.9997 21.8697 1879.1011)">
				<stop  offset="0" style="stop-color:#6F45FF"/>
				<stop  offset="1" style="stop-color:#FF73D9"/>
			</linearGradient>
			<path class="st57" d="M843.2,1199c-0.2,0.1-0.9,0.3-2.1,0.6C842,1199.4,842.7,1199.2,843.2,1199z"/>
			<path class="st44" d="M774.9,1090.8c0,0-5.2,0.2-6.3,3c-1.1,2.7,12.5,30.1,18.1,32.5c5.7,2.5,18.7-19.4,18.7-19.4
				S780.1,1101.8,774.9,1090.8z"/>
			<path class="st44" d="M812.5,1092.2c11.6,4.7,7.5,52.1-7,14.7C805.5,1106.9,815.4,1105.4,812.5,1092.2z"/>
			<path class="st40" d="M831.4,1002.2c0,0-18.2,40.3-75.2,12.8c-56.9-27.4,38.3-29.6,38.3-29.6L831.4,1002.2z"/>
			<path class="st39" d="M858.1,1306.7c0.8,4-63.9,22.3-106.4,4.7c-9.6-36.2-21.7-76.8-24.2-114.6c3.5,2.4,11.5,0.5,16.7-9.5
				c17.7-56.5,17.7-29.7,16.6,11.8c-0.3,6.8-0.7,13.1-1,17.6c-1.2,17.3,48.8,5.5,48.8,5.5l48.1,27.1c0,0.8-0.1,1.7-0.1,2.5
				c-34.5,1.6-85.2,17-109.7,27.2C758,1311.3,778.3,1320.1,858.1,1306.7z"/>
			<g>
				<g>
					
						<linearGradient id="SVGID_53_" gradientUnits="userSpaceOnUse" x1="838.46" y1="666.5409" x2="811.8054" y2="565.2531" gradientTransform="matrix(0.9997 -2.570000e-02 -2.570000e-02 -0.9997 21.8697 1879.1011)">
						<stop  offset="0" style="stop-color:#2EC7FF"/>
						<stop  offset="1" style="stop-color:#0063B9"/>
					</linearGradient>
					<path class="st58" d="M802.7,1252c0.7,0.7,1.7,1.2,2.8,1.1l57.4-6c1.5-0.2,2.7-1.2,3-2.7l16.2-79.1c0.5-2.3-1.5-4.3-3.7-4
						c-0.4-0.1-2.5,0.4-3,0.3l-60.1,6.2c-1.6,0.2-2.8,1.4-3,2.9l-10.2,76.1l-0.3,2C801.6,1249.9,801.9,1251.2,802.7,1252z"/>
					
						<linearGradient id="SVGID_54_" gradientUnits="userSpaceOnUse" x1="850.928" y1="678.2569" x2="815.313" y2="573.1929" gradientTransform="matrix(0.9997 -2.570000e-02 -2.570000e-02 -0.9997 21.8697 1879.1011)">
						<stop  offset="0" style="stop-color:#00D0E7"/>
						<stop  offset="1" style="stop-color:#00B0D0"/>
					</linearGradient>
					<path class="st59" d="M802.5,1250.3l8.3-0.9c-1.9,0-2.3-2.6-1.5-3.2c0.4-0.5,20.2-25.9,19.9-25.6c0.1-0.4,3.4-15.9,3.4-15.9
						s5.3,10.9,3.6,17.7c-1.7,6.8,20-21.5,20-21.5s-0.4,16.7-8.6,24l15.9-13.1c0,0-3.4,10.3-12.4,16.1c5.7-2.9,14.1-7.2,14.1-7.2
						s-4.9,8.5-11.6,12l7.7-1.4c-0.9,6.2-18.8,14.7-29.6,15.8l28.1-2.9c5.4,0.3,17.5-78.7,19.2-83c8.9-3.1-14.8,81.6-13.2,83.1
						c2.6,4.7-59.2,7.5-60.4,8.6c-1.8,0.2-3.4-1.1-3.7-2.8C802,1250.3,802.3,1250.3,802.5,1250.3z"/>
				</g>
				<g>
					<g>
						
							<linearGradient id="SVGID_55_" gradientUnits="userSpaceOnUse" x1="4098.9067" y1="-660.1772" x2="4083.2844" y2="-706.1748" gradientTransform="matrix(-5.340000e-02 0.9986 -0.9986 -5.340000e-02 365.7534 -2898.0752)">
							<stop  offset="0" style="stop-color:#F0877E"/>
							<stop  offset="1" style="stop-color:#FABEB2"/>
						</linearGradient>
						<path class="st60" d="M831.6,1243.8c-0.2,0-0.2,0.1-0.2,0.1c0,0,0,0,0.1,0c-3.4,1.2-6.8,2.4-10.3,3.5
							c1.2-13.9-8.2-21.6-8.6-21.9c3.6-0.6,6.6-1.2,8.9-1.5c4-3.6,4.1-8.8,6.8-13.2c2.8-3.6-0.3-7.1,0.5-8.3
							c0.7-1.2,1.3-1.1,3.4,1.2c2.6,0.8-0.8,21.3,7.4,15.7l7.2-6.8c0,0,2.5-5.4,4.7-10.3c2.1-4.9,6.5-7.4,5-1.3
							c-1.3,5.5-5.9,16.4-9,20c4.4-1.5,4.9-3.3,11.1-9.5c17.2-12.1-6.3,15.5-10,16.1c4.2-0.9,5.1-2.7,11.9-7.8
							c16.7-8.9-3.5,10.5-8.7,12.7c2.5-1.3,16.3-8.2,9.9-0.9c-4.4,3.8-15.2,10.4-18.7,10.5c-3.2-0.2-7.9,1.8-11.4,1.9
							C831.5,1243.8,831.5,1243.8,831.6,1243.8z"/>
						
							<linearGradient id="SVGID_56_" gradientUnits="userSpaceOnUse" x1="4110.8345" y1="-686.2855" x2="4111.1548" y2="-686.0853" gradientTransform="matrix(-5.340000e-02 0.9986 -0.9986 -5.340000e-02 365.7534 -2898.0752)">
							<stop  offset="0" style="stop-color:#F0877E"/>
							<stop  offset="1" style="stop-color:#FABEB2"/>
						</linearGradient>
						<path class="st61" d="M831.6,1243.8c-0.1,0-0.1,0-0.2,0.1c0,0-0.1,0-0.1,0C831.3,1243.8,831.4,1243.8,831.6,1243.8z"/>
						
							<linearGradient id="SVGID_57_" gradientUnits="userSpaceOnUse" x1="4109.3306" y1="-687.2246" x2="4111.4624" y2="-685.8932" gradientTransform="matrix(-5.340000e-02 0.9986 -0.9986 -5.340000e-02 365.7534 -2898.0752)">
							<stop  offset="0" style="stop-color:#F0877E"/>
							<stop  offset="1" style="stop-color:#FABEB2"/>
						</linearGradient>
						<path class="st62" d="M831.6,1243.8c-0.1,0-0.1,0-0.2,0.1c0,0-0.1,0-0.1,0C831.3,1243.8,831.4,1243.8,831.6,1243.8z"/>
					</g>
					<path class="st31" d="M711.5,1244.2c0.9,22,5.8,30.6,27,26.7c28.4-6.1,55.3-14.8,82.7-23.5c1.2-13.9-8.2-21.6-8.6-21.9
						C781.8,1230.8,740.5,1238.9,711.5,1244.2z"/>
				</g>
				<path class="st31" d="M756.7,1183.4c-3.1,24.5-14.5,48.2-13.6,73.1c-3.3,1.1-23.4,8.1-27.1,9.4c-9-25.8-8.4-125.4,9.9-146
					C760.9,1081.7,760.2,1164.9,756.7,1183.4z"/>
			</g>
		</g>
	</g>
	<path class="st63" d="M805.6,1624.7c7.9,15.4-304.7,24.7-297.7,8.8C500,1618.2,812.6,1608.9,805.6,1624.7z"/>
	<path class="st63" d="M1548.2,1624.7c-7.9,15.4,304.7,24.7,297.7,8.8C1853.9,1618.2,1541.2,1608.9,1548.2,1624.7z"/>
</g>
</svg>
