<?xml version="1.0" encoding="utf-8"?>
<!-- Generator: Adobe Illustrator 24.3.0, SVG Export Plug-In . SVG Version: 6.00 Build 0)  -->
<svg version="1.1" xmlns="http://www.w3.org/2000/svg" xmlns:xlink="http://www.w3.org/1999/xlink" x="0px" y="0px"
	 viewBox="0 0 500 500" style="enable-background:new 0 0 500 500;" xml:space="preserve">
<style type="text/css">
	.st0{opacity:0.1;fill:#E27C20;}
	.st1{opacity:0.3;fill:#ECAF7B;}
	.st2{opacity:0.5;fill:#EFC4A3;}
	.st3{fill:#E37D21;}
	.st4{fill:#EFC4A3;}
	.st5{fill:#FFFFFF;}
	.st6{fill:#1C83FF;}
	.st7{fill:#D89360;}
	.st8{fill:#2B2D31;}
	.st9{fill:#EBAD7C;}
	.st10{fill:#E37D20;}
	.st11{fill:#8E9BBB;}
	.st12{fill:#FF9D8C;}
	.st13{fill:#223A7A;}
	.st14{fill:#DEE1EB;}
	.st15{fill:#562907;}
	.st16{fill:#EBAF7B;}
	.st17{opacity:0.5;}
	.st18{fill:#6B3305;}
	.st19{fill:#22232B;}
	.st20{fill:#D9DEE8;}
	.st21{fill:#3A3C3F;}
	.st22{fill:#BDC4D7;}
	.st23{fill:#212227;}
	.st24{fill:#ECAF7B;}
	.st25{fill:#FF5F42;}
	.st26{font-family:'SansSerifCollection';}
	.st27{font-size:13.3328px;}
</style>
<g id="BACKGROUND">
	<path class="st0" d="M90.5,444.3c0,0-60.7-43.2-78.2-116.8C-5.2,254,21.5,164.8,72.1,119.7c50.6-45.1,141.6-14.7,182.1,23
		s40.5,37.7,40.5,37.7s38.6,21.1,89.2,19.3c50.6-1.8,95.6,67.1,107.6,121.4c12,54.3-16.6,126-16.6,126L90.5,444.3z"/>
	<path class="st1" d="M62.9,455.4c0,0-42.3-23-53.3-76.3S46.3,277,50.9,250.3c4.6-26.7-5.5-59.8,36.8-85.5
		c42.3-25.7,117.7-16.6,146.2-23c28.5-6.4,61.6-50.6,118.6-40.5c57,10.1,112.2,40.5,114.9,106.7c2.8,66.2-18.4,68,2.8,103.9
		c21.1,35.9,29.4,60.7,19.3,97.5c-10.1,36.8-31.3,46.9-31.3,46.9L62.9,455.4z"/>
	<path class="st2" d="M151.2,443.4c-2.6-2.8-41.2-80,1.8-150.8c43-70.8,150.9-62.5,193.8-34.9s64,63.4,68.4,101.1
		c4.4,37.7-24.6,96.5-24.6,96.5L151.2,443.4z"/>
</g>
<g id="OBJECTS">
	<g>
		<g>
			<path class="st3" d="M454.3,313.4h-50.7c-2.8,0-5-2.2-5-5v-25.9c0-2.8,2.2-5,5-5h50.7c2.8,0,5,2.2,5,5v25.9
				C459.3,311.1,457.1,313.4,454.3,313.4z"/>
			<polygon class="st3" points="429,327.4 436.8,308.8 421.1,308.8 			"/>
		</g>
		<g>
			<g>
				<g>
					<polygon class="st4" points="428.8,289.3 443,289.3 443,291.4 449.9,287.4 443,283.3 443,285.4 428.8,285.4 					"/>
				</g>
				<g>
					<polygon class="st5" points="449.9,297.5 435.8,297.5 435.8,295.4 428.8,299.4 435.8,303.4 435.8,301.3 449.9,301.3 					"/>
				</g>
			</g>
			<g>
				<g>
					<path class="st4" d="M420.1,301.1l-0.7,0.2c0,0-2.1-2.4-3.2-5c-1.1-2.6-1.1-5.8-1.1-5.8l0.5-0.2l-3-7.2c-0.5,0.4-1,1-1.5,1.7
						c-1.7,2.9-1.5,7.3,0.2,11.6c1.7,4.3,3.5,8.1,6.9,10.6c2,1.4,3.7,1.7,5,1.5L420.1,301.1z"/>
					<path class="st4" d="M422.2,300.3l-0.9,0.3l3.1,7.4c0.3-0.1,0.7-0.3,0.9-0.4c0.8-0.4,1.1-1.4,0.8-2.2l-1.6-4
						C424.2,300.4,423.1,299.9,422.2,300.3z"/>
					<path class="st4" d="M414.9,281.9c-0.4,0.1-0.8,0.3-1.2,0.6l3.1,7.3l1-0.4c0.9-0.4,1.3-1.4,1-2.3l-1.6-4.1
						C416.8,282,415.8,281.5,414.9,281.9z"/>
				</g>
			</g>
		</g>
	</g>
	<g>
		<path class="st6" d="M136.8,431v-82.8c0,0-0.9-22.3,10.8-28.7c11.7-6.4,61.1-3,61.1-3V431H136.8z"/>
	</g>
	<g>
		<g>
			<g>
				<path class="st7" d="M224.2,239.1c0,0-3,25.1-4.1,27.1c-1.1,2.1-1.1,2.1-1.1,2.1l-5.7,3.9c0,0,11,15.6,24.6,18.2
					c13.6,2.5,12.4-5.5,12.4-5.5l-2.1-4.4l2.8-23.9C250.9,256.5,226.3,245.3,224.2,239.1z"/>
			</g>
		</g>
		<path class="st8" d="M206.1,274.2l9-3.9c0,0,5.7,9.4,19.1,14.9s13.6,2.3,14.3,0c0.7-2.3-0.2-4.8-0.2-4.8l1-8l5.3,1.8L273,423.9
			l-47.6,2.3L206.1,274.2z"/>
		<g>
			<g>
				<path class="st3" d="M250,272.5c0,0,3.2,7.4,6.2,24.9s5.7,46.9,6.4,67.1c0.7,20.2,1.1,66.4,1.1,66.4s59.3,0,60,0
					s4.8-22.8,4.8-22.8s-26.2-22.5-27.6-26.1c-0.9-2.5-0.5-47.9-4.4-68.8c-3.9-20.9-9-25.1-19.5-30.3
					C266.2,277.6,250,272.5,250,272.5z"/>
			</g>
		</g>
		<g>
			<g>
				<path class="st9" d="M281.2,404.7c-0.3,0-0.6-0.2-0.6-0.6c0-1.6-0.3-25-0.6-47.6c-0.3-22.6-0.6-45.9-0.6-47.6
					c0-0.3,0.2-0.6,0.6-0.6s0.6,0.2,0.6,0.6c0,1.6,0.3,25,0.6,47.6c0.3,22.6,0.6,45.9,0.6,47.6C281.8,404.4,281.6,404.7,281.2,404.7
					z"/>
			</g>
		</g>
		<g>
			<g>
				<path class="st10" d="M161.7,399l-0.5,32h69.9c0,0,3-27.1,1.8-29.7C231.8,398.8,161.7,399,161.7,399z"/>
			</g>
		</g>
		<g>
			<path class="st11" d="M239.5,265.5c2.8,2.3,6.7,4.1,9.8,5.3l1.6-14.2c0,0-18.5-8.5-24.7-14.8
				C227.5,248.9,230.7,258.4,239.5,265.5z"/>
		</g>
		<g>
			<g>
				<path class="st7" d="M272.5,192.4c0,0,4.8,8.3,5.7,18.4c0.9,10.1,0,36.1-8.3,47.1c-8.3,11-25.5,7.8-33.3,1.1
					c-7.2-6.1-14.3-12.9-16.1-26.2c-1.8-13.3,3.9-38.6,20.2-43.9C257.1,183.7,272.5,192.4,272.5,192.4z"/>
			</g>
		</g>
		<g>
			<g>
				<path class="st12" d="M293.3,416.5c0,0-0.8,0-2,0c-0.3,0-0.6,0-0.9,0c-1.2,0-2.6-0.1-4.1-0.1c-0.3,0-0.7,0-1,0
					c-1.4,0-2.7,0.1-3.8,0.1h0c-0.2,0-0.6,0-0.9,0c-0.1,0-0.3,0-0.4,0c-0.7-0.1-0.8-0.3-1.5-0.6c-0.9-0.4-13.6-3.2-23.8-3.2
					c-10.3,0-19.5,0.7-21-0.5c-1.5-1.3-2.4-14.2,6.3-15l10.8,4.1c0,0,24.6-2.9,33.6,3.7C293.5,411.6,293.3,416.5,293.3,416.5z"/>
			</g>
			<g>
				<g>
					<path class="st13" d="M281.3,416.4c-0.2,0-0.6,0-0.9,0c-0.2-0.4-0.7-1-0.9-1.3c-2.8-2.8-9.5-4.7-11.9-5.3
						c-0.2-0.1-0.4-0.3-0.3-0.5c0-0.2,0.3-0.4,0.5-0.3c3.5,0.9,11.1,3,13.2,6.6C281,415.9,281.2,416.2,281.3,416.4z"/>
				</g>
			</g>
			<g>
				<g>
					<path class="st13" d="M286.2,416.4c-0.3,0-0.7,0-1,0c-3-5.5-8-7.1-14.1-9.1l-0.4-0.1c-0.2-0.1-0.3-0.3-0.3-0.5
						c0.1-0.2,0.3-0.3,0.5-0.3l0.4,0.1C277.8,408.6,283,410.2,286.2,416.4z"/>
				</g>
			</g>
			<g>
				<g>
					<path class="st13" d="M291.2,416.5c-0.3,0-0.6,0-0.9,0c-1.8-3.9-7.9-10.3-16-11.8c-0.2,0-0.4-0.3-0.3-0.5
						c0-0.2,0.3-0.4,0.5-0.3C282.7,405.4,289.4,412.2,291.2,416.5z"/>
				</g>
			</g>
		</g>
		<g>
			<g>
				<path class="st8" d="M226.1,221.5c0,0,5.1-2.4,8.6-9.2c3.6-6.8,3.1-12.9,3.1-12.9s6.4-1,16.1,1.8c9.7,2.9,21.1,6.8,30.8,1.3
					c9.7-5.5,9.7-14.4,4.9-18c-5.3-4.1-15.7-1.6-15.7-1.6s4-3.9,1.8-6.2c-2.2-2.3-10.1,0.7-10.1,0.7s-9.7-7.7-27.9-6.8
					c-18.3,0.9-27,13.7-28,27.9c-1,14.3,4.1,28.5,4.1,28.5L226.1,221.5z"/>
			</g>
		</g>
		<g>
			<g>
				<path class="st11" d="M263.2,224.9c-1,2.6-1,5.5-1.3,8.2c-0.2,2.1-0.6,4.6,1.3,6c0.9,0.7,5.3,2.5,3,4c-0.9,0.6-2.3,0.4-3.3,0.4
					c-0.7,0-1.3-0.1-2-0.1c-0.7-0.1-1.4-0.3-2.1-0.3c-0.4,0-0.6,0.6-0.2,0.8c1.2,0.7,2.9,1,4.2,1c1.4,0.1,2.3,0,3.5-0.6
					c0.7-0.4,1.5-0.9,1.6-1.8c0.1-1-0.6-1.9-1.4-2.5c-0.9-0.6-1.9-0.9-2.8-1.6c-1.2-0.9-1.1-2.3-1-3.7c0.2-3.3,1-6.5,1.2-9.7
					C264,224.5,263.3,224.5,263.2,224.9L263.2,224.9z"/>
			</g>
		</g>
		<g>
			<g>
				<path class="st8" d="M272.6,232.6c-0.3,1.9-1.8,3.3-3.1,3.1c-1.4-0.2-2.2-2-1.9-4c0.3-1.9,1.8-3.3,3.1-3.1
					C272,228.9,272.9,230.6,272.6,232.6z"/>
			</g>
		</g>
		<g>
			<g>
				<path class="st8" d="M255,231c-0.3,2.1-1.8,3.6-3.3,3.4c-1.5-0.2-2.5-2.1-2.2-4.2c0.3-2.1,1.8-3.6,3.3-3.4
					C254.3,227.1,255.3,228.9,255,231z"/>
			</g>
		</g>
		<g>
			<g>
				<g>
					<path class="st8" d="M268.5,224.6c1.1,0.2,2.2,0,3.2,0.1c0.3,0,0.5,0.1,0.8,0.1c0.2,0-0.3-0.1-0.1,0c0.1,0,0.1,0,0.2,0
						c0.1,0,0.3,0.1,0.4,0.1c0.2,0.1,0.5,0.1,0.7,0.2c0.2,0,0.4,0.1,0.7,0.1c0.1,0,0.2,0,0.4,0c-0.1,0-0.1,0-0.2,0c0,0,0.4,0,0.4,0
						c0.6-0.1,1-0.9,0.8-1.5c0-0.2-0.1-0.3-0.2-0.5c0-0.1-0.1-0.1-0.1-0.2c0,0,0.1,0.1,0.1,0.1c0-0.1-0.1-0.1-0.1-0.2
						c-0.1-0.1-0.1-0.2-0.2-0.2c-0.1-0.1-0.2-0.1-0.3-0.2c-0.3-0.2-0.7-0.3-1-0.4c-0.6-0.2-1.3-0.2-2-0.3c-0.7,0-1.3,0.1-2,0.2
						c-0.6,0.1-1.2,0.3-1.7,0.6c-0.4,0.3-0.6,0.6-0.5,1.1C267.7,224.1,268,224.5,268.5,224.6L268.5,224.6z"/>
				</g>
			</g>
		</g>
		<g>
			<g>
				<g>
					<path class="st8" d="M256.2,221.5c-0.1-0.1-0.3-0.2-0.4-0.2c-0.1-0.1-0.5-0.2-0.2-0.1c-0.1-0.1-0.2-0.1-0.3-0.2
						c-0.4-0.2-0.9-0.4-1.4-0.5c-1-0.3-2.2-0.3-3.2-0.2c-1.1,0.1-2.2,0.4-3.2,1c-0.1,0.1-0.3,0.2-0.4,0.3c-0.1,0.1-0.2,0.2-0.2,0.3
						c0,0,0-0.1,0.1-0.1c-0.3,0.2-0.5,0.6-0.5,0.9c0,0.4,0.2,0.7,0.5,0.8c0.4,0.2,0.7,0.1,1.1,0c-0.2,0-0.4,0-0.6,0
						c0.3,0,0.5,0.1,0.9,0c0,0,0.3-0.1,0.1,0c-0.2,0,0.3,0,0.4,0c0.1,0,0.4,0,0,0c0.1,0,0.1,0,0.2,0c0.2,0,0.3,0,0.5-0.1
						c0.8-0.1,1.5-0.1,2.3-0.1c0.7,0,1.4,0,2.1,0c0.3,0,0.6,0,0.9,0c0.2,0,0.1,0,0,0c0.1,0,0.1,0,0.2,0c0.1,0,0.2,0.1,0.4,0.1
						c0.5,0.2,1.1-0.2,1.3-0.6C256.8,222.3,256.7,221.8,256.2,221.5L256.2,221.5z"/>
				</g>
			</g>
		</g>
		<g>
			<g>
				<path class="st8" d="M261.7,253.5c1.1-2.1,3-3.7,5.2-4.7c-1.9-0.2-11-1-13.3,0.3c-2.6,1.5,0.5,7.3,5.8,7.6c0.6,0,1.1,0,1.6-0.1
					C260.9,255.5,261.2,254.4,261.7,253.5z"/>
			</g>
		</g>
		<g>
			<path class="st14" d="M219.6,241.1c0,0,0.9,3.6,6.2,7.7c5.3,4.1,12.9,7.2,12.9,7.2l0.6-2.7c0,0-7.9-3.4-11.6-7.2
				c-3.7-3.8-4.1-5.9-4.1-5.9L219.6,241.1z"/>
		</g>
		<g>
			<g>
				<path class="st8" d="M240.3,251.3c4.3-0.2,6.6,3.2,6.9,5.3c0.3,2.2-1.7,4.6-6.5,2.5C234.8,256.5,236.1,251.5,240.3,251.3z"/>
			</g>
		</g>
		<g>
			<g>
				<path class="st4" d="M223,214.8c0,0,1.8-13.2,10.7-22.2c16.9-17.1,31.3-16.1,31.3-16.1s-0.1-2.4-5.5-4.3
					c-5.1-1.7-7.4-0.8-7.4-0.8s-13.9,1.1-25.6,14.1c-11.7,13-13,29.5-13,29.5L223,214.8z"/>
			</g>
		</g>
		<g>
			<g>
				<g>
					<path class="st15" d="M221.7,213.2c-11.1-1.9-17.2,6.8-17.7,15.5c-0.5,8.7,5.9,15.4,14.4,14.7
						C237.5,241.9,235.3,215.5,221.7,213.2z"/>
				</g>
			</g>
			<g>
				<g>
					<path class="st4" d="M216.2,234.9c-2.9,0-5.4-1.5-6.8-4.1c-1.5-2.8-1.4-6.2,0.3-8.7c0.1-0.2,0.4-0.2,0.6-0.1
						c0.2,0.1,0.2,0.4,0.1,0.6c-1.5,2.3-1.6,5.3-0.3,7.8c1.3,2.4,3.6,3.7,6.3,3.6c2.5-0.1,4.7-1.2,6-3.3c1.6-2.3,1.9-5.5,0.9-8.2
						c-1-2.6-3.7-4.4-6.2-4.1c-0.2,0-0.4-0.1-0.5-0.4c0-0.2,0.1-0.4,0.4-0.5c2.9-0.4,5.9,1.6,7.1,4.6c1.1,2.9,0.7,6.4-1,8.9
						c-1.5,2.3-3.9,3.6-6.7,3.6C216.4,234.9,216.3,234.9,216.2,234.9z"/>
				</g>
			</g>
		</g>
		<g>
			<g>
				<path class="st3" d="M208.1,271c0,0-33.6,8.3-45.3,21.6c-11.7,13.3-17.2,79.1-17.5,91.3c-0.2,12.2,8.3,17.2,13.3,20.7
					c5.1,3.4,27.4,9.7,45.3,10.6s34.9,0,34.9,0s-0.1-3.9,2.7-9.7c2.6-5.3,5.8-6.4,5.8-6.4l-15.4-5.5c0,0-2.7-48.3-6.9-71.7
					C220.3,294.9,208.1,271,208.1,271z"/>
			</g>
		</g>
		<g>
			<g>
				<path class="st9" d="M263.8,385.8c-0.1,0-0.2,0-0.2,0c-0.3-0.1-0.4-0.5-0.3-0.7c3.1-7.1,6.4-21,8.2-30.8l0.2-0.8
					c0.6-2.9,1.2-6.4-0.1-8.9c-0.7-1.3-2.3-4-3.8-6.6c-1.6-2.7-3.1-5.3-3.5-6.1c-0.8-1.5,1.7-5.5,5.4-11c1-1.5,1.9-2.8,2.4-3.6
					c1.3-2.3,0.4-4.4-0.6-6.8l-0.3-0.8c-0.9-2.3-2-4.5-3-6.7c-0.4-0.9-0.8-1.8-1.2-2.7c-0.5-1.2-1.1-2.4-1.6-3.6
					c-3.2-7.2-6.6-14.7-10.9-22c-0.2-0.3-0.1-0.6,0.2-0.8c0.3-0.2,0.6-0.1,0.8,0.2c4.3,7.3,7.7,14.8,11,22.1
					c0.5,1.2,1.1,2.4,1.6,3.6c0.4,0.9,0.8,1.8,1.2,2.7c1,2.2,2.1,4.5,3,6.7l0.3,0.8c1,2.5,2.1,5,0.5,7.8c-0.5,0.9-1.4,2.2-2.4,3.7
					c-1.9,2.9-5.9,8.8-5.4,9.9c0.4,0.8,1.9,3.3,3.5,6c1.5,2.6,3.1,5.4,3.8,6.6c1.6,2.8,0.8,6.6,0.3,9.7l-0.2,0.8
					c-0.7,3.6-4.2,21.8-8.3,31C264.2,385.7,264,385.8,263.8,385.8z"/>
			</g>
		</g>
		<g>
			<g>
				<path class="st9" d="M231,387.8c-0.1,0-0.3-0.1-0.4-0.2c-2.6-2.6-15.2-24.4-16.1-28.5c-0.5-2.2,0.8-7.9,2-13.5
					c1-4.3,2-8.7,1.7-9.9c-0.4-1.8-3.6-4.4-6.8-7c-3.8-3.1-7.7-6.3-8.4-9.1c-0.9-3.3-0.1-23.6,0.4-37.1c0.2-4.8,0.3-8.7,0.3-10
					c0-0.3,0.2-0.6,0.6-0.6c0,0,0,0,0,0c0.3,0,0.6,0.2,0.6,0.6c0,1.4-0.1,5.2-0.3,10.1c-0.5,12.6-1.2,33.7-0.4,36.8
					c0.7,2.5,4.6,5.7,8,8.5c3.4,2.8,6.6,5.4,7.1,7.6c0.3,1.4-0.6,5.6-1.7,10.4c-1.2,5.1-2.5,11-2,13c0.9,4,13.3,25.4,15.9,28
					c0.2,0.2,0.2,0.6,0,0.8C231.3,387.7,231.2,387.8,231,387.8z"/>
			</g>
		</g>
		<g>
			<g>
				<path class="st9" d="M185.9,378.2C185.8,378.2,185.8,378.2,185.9,378.2c-0.4,0-0.6-0.3-0.6-0.6c0.4-2.9,6.8-60.4,7.1-64.9
					c0-0.3,0.3-0.5,0.6-0.5c0.3,0,0.5,0.3,0.5,0.6c-0.3,4.4-6.7,62-7.1,64.9C186.4,378,186.1,378.2,185.9,378.2z"/>
			</g>
		</g>
		<g>
			<g>
				<path class="st9" d="M231.6,393.9c-0.1,0-0.1,0-0.2,0c-1.4-0.6-7.7-2.7-15.6-5.3c-16-5.4-37.8-12.7-42-14.9
					c-0.3-0.1-0.4-0.5-0.2-0.7c0.1-0.3,0.5-0.4,0.7-0.2c4.1,2.1,26.8,9.8,41.8,14.8c7.9,2.7,14.2,4.8,15.6,5.4
					c0.3,0.1,0.4,0.4,0.3,0.7C232,393.7,231.8,393.9,231.6,393.9z"/>
			</g>
		</g>
		<g>
			<g>
				<path class="st16" d="M223.9,416.8c-14,0-41.3-2.5-61.9-9.8c-0.3-0.1-0.4-0.4-0.3-0.7c0.1-0.3,0.4-0.4,0.7-0.3
					c26.1,9.2,62.7,10.8,69.5,9.3c0.3-0.1,0.6,0.1,0.7,0.4c0.1,0.3-0.1,0.6-0.4,0.7C230.6,416.6,227.7,416.8,223.9,416.8z"/>
			</g>
		</g>
	</g>
	<g>
		<g>
			<g>
				<path class="st4" d="M63.2,278.8c4.4,3.8,9.9,6.3,13.7,10.7c1.5,1.7,2.9,3.6,4.3,5.4c1,1.3,3.7,3.5,4.2,5.2c0.2,0.7,0.2-0.3,0-1
					c0,0,0-0.1,0-0.1c-0.4-3.4-0.7-6.8-0.8-10.2c-0.1-3.4,0.1-6.8-0.1-10.2c-0.3-4.8-1.8-9.4-5.7-12.4c-1.9-1.5-4.4-2.4-6.1-4
					c-1.7-1.5-1-3.3,0-5c0.9-1.6,2-3.2,2.4-5.1c0.4-2.1-0.4-4.3-1.5-6.1c-2.3-3.8-7.3-8.1-12.1-7.5c-4,0.5-4.4,5.1-4.4,8.3
					c0.1,3.1,0.4,6.2,0.4,9.3c0,3.2-0.5,6.3-0.6,9.5C56.7,271.1,59.2,275.3,63.2,278.8z"/>
				<path class="st4" d="M103.7,328.5c1.2-2.9,2.6-5.6,4.3-8.2c2.3-3.6,5-7.1,6.5-11.2c1.6-4.1,1.4-8.5,1.5-12.9
					c0.1-3.2,1.1-6.4,0.8-9.6c-0.1-1.5-1-4-3-3.8c-1.5,0.2-2.5,2.1-3.1,3.3c-1,2.1-1.8,4.4-2.5,6.7c-0.3,0.9-0.6,1.8-1,2.6
					c-0.2,0.5-0.9,1.7-1.6,1.5c-1.1-0.3-0.1-4.9,0.1-5.7c0.8-4.1,2.1-7.9,2.3-12.1c0.3-6.1-0.2-13.4-6.2-16.8
					c-1.6-0.9-3.5-1.4-5-0.1c-1.5,1.3-1.9,3.5-2.1,5.4c-0.7,5.7,0.7,11,2.5,16.3c1.5,4.4,3.3,8.9,3.4,13.6c0.1,4.5-2.2,8.5-3.3,12.8
					c-1.8,6.8-1.4,10.4-1.4,12.6c0,2.8,0.1,5.5,0.3,8.2c0.2,2.5,0.4,5.1,0.7,7.6c0.1,0.5,0.1,1,0.2,1.6c-1-2.3-1.3-5-2.1-7.4
					c-1.4-4.2-3.1-8.3-4.5-12.5c-1.1-3.5-2.2-7-3.7-10.3c-1.4-3.1-3.1-6.4-5.7-8.7c-1.6-1.4-3.5-2.2-5.6-2.2c-1.4,0-2.6,0.5-3.9,0.8
					c-1.6,0.4-2.8,0.3-4.2-0.7c-4.3-3.3-5.6-9.2-8.8-13.4c-2.4-3.1-8-8.4-12.1-5c-2.2,1.8-2.8,5.3-2.7,8c0.1,3.3,1.6,6.4,3.3,9.2
					c1.9,3,4.2,5.6,5.9,8.7c1,1.8,1.2,3.5,1,5.6c-0.2,1.9-0.3,3.8,0.3,5.6c2,5.6,8.1,4.8,12.9,4.9c3.3,0.1,6.9,0.6,10.1,1.7
					c3.7,1.2,6.1,3.6,7.4,7.2c0.9,2.6,1.5,5.6,3.2,7.8c0.8,1,2,1.8,3.2,2.4c1.9,0.8,7.5,1.2,7.6,0.7c0.1-1.7,1-3.6,1.5-5.2
					C101.3,334.5,102.5,331.5,103.7,328.5z"/>
				<path class="st4" d="M130.1,327.5c-0.5-3.2-0.4-6.7-1.9-9.6c-0.1-0.2-0.4-0.3-0.6-0.2c-1.1,0.6-1.1,2.3-1.2,3.4
					c-0.1,1.8,0,3.6-0.3,5.3c-0.4,3.1-1.1,6.3-2.2,9.2c-1.3,3.3-3.6,5.2-6.9,6.2c-2.1,0.7-4.3,1.2-6.1,2.7c-1.6,1.3-2.7,3-3.5,4.9
					c-2.2,5-3.3,10.6-4.3,16c-0.7,3.6-1.3,7.2-2.1,10.8c-0.9,3.6-1.8,7.1-2.3,10.8c-0.1,0.2-0.2,0.4-0.3,0.6
					c-0.2,0.5,0.6,0.8,0.9,0.4c3.5-5.3,7.7-10.1,13.4-13c2.6-1.3,6-1.6,8.2-3.7c1.6-1.6,1.9-4,1.6-6.1c-0.3-2.8-1.7-5.1-3.1-7.6
					c-0.8-1.3-1.7-2.7-1.4-4.3c0.3-1.5,1.6-2.6,2.8-3.4c2.4-1.5,5.2-2.1,7.1-4.3c1.8-2,2.8-4.4,3-7.1
					C131.2,334.8,130.6,331,130.1,327.5z"/>
				<path class="st4" d="M83,345.8c-3-3.9-6.7-7.3-10.9-10.1c-2.2-1.5-7.4-4.4-8.5,0c-0.6,2.5,1.9,5,3.5,6.6
					c2.5,2.4,5.3,4.4,7.4,7.2c-2.6,0.8-5.2,1-7.5,2.7c-2.6,2.1-3.8,6.1-1.2,8.7c1.3,1.3,3,2,4.5,2.8c2.1,1,4.2,1.9,6.3,2.8
					c4.6,1.9,9.2,3.8,13.1,7c4,3.2,7.7,8.6,8,13.8c0,0.5-0.2,0,0.1-0.2c0.2,0.1,0.7-0.1,0.7-0.4c-0.1-7.7-1.5-15-4.6-22.1
					C91.1,358.1,87.4,351.5,83,345.8z"/>
			</g>
			<g class="st17">
				<path class="st18" d="M72.5,274.1c1.7,3.5,3.4,6.9,5.3,10.3c1.8,3.3,3.6,6.5,4.9,10c1.7,4.3,3.4,8.5,5.1,12.8
					c1.8,4.4,3.4,8.9,4.7,13.6c2.5,9,4.4,18.3,5.4,27.6c0.5,4.7,0.7,9.5,0.6,14.2c-0.1,3.7-0.5,7.4-0.9,11.1
					c-0.4,3.8-0.6,7.7-0.3,11.6c0.3,3.2,0.8,7.1,3.3,9.4c0.5,0.5,1.2-0.1,0.9-0.7c-3-6.1-2.8-12.8-2.2-19.4c0.3-3.7,0.7-7.3,0.9-11
					c0.2-4.7,0-9.3-0.5-14c-0.9-9.1-2.7-18.2-5-27c-1.2-4.5-2.7-9-4.4-13.4c-1.7-4.4-3.7-8.6-5.4-13c-3-8-7.7-15-11.8-22.4
					C72.9,273.4,72.3,273.7,72.5,274.1L72.5,274.1z"/>
			</g>
			<g class="st17">
				<path class="st18" d="M98.1,339.2c0.5-5.8,1-11.4,2.9-16.9c0.9-2.6,2-5.1,2.9-7.7c0.7-2.1,1.8-5.1,1.3-7.4
					c-0.1-0.3-0.4-0.2-0.5,0c-0.4,1.3-0.3,2.7-0.6,4.1c-0.3,1.3-0.6,2.6-1,3.8c-0.9,2.7-2,5.2-2.9,7.9c-1.9,5.1-2.8,10.7-2.4,16.2
					C97.7,339.5,98.1,339.5,98.1,339.2L98.1,339.2z"/>
			</g>
			<g class="st17">
				<path class="st18" d="M64.5,305.9c2.3,5.6,9.2,5.9,14.3,7.1c3.6,0.9,6.3,3.3,8.2,6.4c2.1,3.4,3.5,7.4,4.7,11.2c0,0,0.1,0,0.1,0
					c-1.4-6.7-3.4-14.7-10.3-17.8c-5.5-2.5-12.8-1.2-16.3-7.2C64.9,305.3,64.4,305.5,64.5,305.9L64.5,305.9z"/>
			</g>
			<g class="st17">
				<path class="st18" d="M80.1,356c4,3.3,7.6,7.1,10.5,11.3c1.4,2,2.7,4.2,3.8,6.3c1.3,2.4,2.1,4.8,3.1,7.3
					c0.1,0.2,0.4,0.2,0.4-0.1c-0.6-5.2-3.9-9.7-6.5-14.1c-1.4-2.3-3.1-4.1-4.9-6c-1.9-1.9-3.8-3.8-6.1-5.4
					C80.2,355.3,79.8,355.7,80.1,356L80.1,356z"/>
			</g>
			<g class="st17">
				<path class="st18" d="M111.7,349.8c-1.9,1.1-2,4.1-2,6c-0.1,3.7,0.8,7.2-0.8,10.7c-1.5,3.2-3.8,5.9-5.7,8.8
					c-1.7,2.8-3.4,6.3-3.4,9.7c0,0.2,0.3,0.3,0.4,0.1c0.7-1.5,0.9-3.2,1.4-4.8c0.6-1.8,1.3-3.4,2.4-5c1.8-2.8,4-5.3,5.4-8.2
					c1.5-3.1,1.3-6.2,1.2-9.6c-0.1-2.2-0.3-5.6,1.5-7.2C112.4,350.1,112,349.6,111.7,349.8L111.7,349.8z"/>
			</g>
		</g>
		<path class="st15" d="M98.9,385.4c-7.7-0.1-22.4-0.2-22.4-0.2l3.6,27c0.8,6.1,6,10.6,12.1,10.6h6.3h0.6h6.3
			c6.1,0,11.3-4.5,12.1-10.6l3.6-27C121.3,385.2,106.6,385.3,98.9,385.4z"/>
	</g>
	<g>
		<g>
			<g>
				<g>
					<polygon class="st19" points="471.2,335.8 427.3,422.9 299.2,423.8 338.7,334.6 					"/>
				</g>
			</g>
			<g>
				<path class="st20" d="M214.2,423.3l0-7h82.9l38.2-83.7h132.6l3.3,3.2H341.7L302,423.2C302,423.2,214.2,423,214.2,423.3z"/>
			</g>
			<g>
				<path class="st20" d="M404.7,383.9c-1.4,4.3-9.3,7.7-17.5,7.5c-8.2-0.2-13.8-3.9-12.3-8.2c1.4-4.3,9.3-7.7,17.5-7.5
					C400.7,375.8,406.2,379.5,404.7,383.9z"/>
			</g>
		</g>
		<g>
			<path class="st5" d="M302,423.7c-0.1,0-0.2,0-0.2,0c-0.3-0.1-0.4-0.5-0.3-0.7l39.8-87.7h129.9c0.3,0,0.6,0.2,0.6,0.6
				c0,0.3-0.2,0.6-0.6,0.6H342l-39.5,87C302.4,423.6,302.2,423.7,302,423.7z"/>
		</g>
	</g>
	<g>
		<g>
			<rect x="56" y="429.9" class="st19" width="152.4" height="33.8"/>
			<rect x="207.5" y="429.9" class="st21" width="274.2" height="33.8"/>
		</g>
		<polygon class="st22" points="208.4,429.9 207.5,429.9 56,429.9 56,436.1 207.5,436.1 208.4,436.1 481.7,436.1 481.7,429.9 		"/>
		<rect x="48.6" y="423.2" class="st23" width="166.4" height="8.3"/>
		<rect x="214.2" y="423.2" class="st21" width="274.2" height="8.3"/>
	</g>
	<g>
		<path class="st3" d="M170.5,245.9h-55c-3,0-5.4-2.4-5.4-5.4v-28.1c0-3,2.4-5.4,5.4-5.4h55c3,0,5.4,2.4,5.4,5.4v28.1
			C175.9,243.5,173.5,245.9,170.5,245.9z"/>
		<polygon class="st10" points="191.3,226.4 171.1,217.9 171.1,235 		"/>
		<g>
			<circle class="st5" cx="130.2" cy="226.4" r="3.7"/>
			<circle class="st5" cx="143" cy="226.4" r="3.7"/>
			<circle class="st5" cx="155.8" cy="226.4" r="3.7"/>
		</g>
	</g>
	<g>
		<g>
			<path class="st3" d="M443.8,124.3H319.6c-8,0-14.4,6.5-14.4,14.4v58.9c0,8,6.5,14.4,14.4,14.4h11.1c0.3,5.3-0.5,13.3-4.9,23.4
				c14.3-6.6,22.6-16.6,26.9-23.4h91.1c8,0,14.4-6.5,14.4-14.4v-58.9C458.3,130.8,451.8,124.3,443.8,124.3z"/>
			<path class="st5" d="M390.8,152.4h-61.6c-1.7,0-3.1-1.4-3.1-3.1l0,0c0-1.7,1.4-3.1,3.1-3.1h61.6c1.7,0,3.1,1.4,3.1,3.1l0,0
				C393.9,151.1,392.5,152.4,390.8,152.4z"/>
			<path class="st5" d="M435,170.3H328c-1,0-1.9-0.8-1.9-1.9l0,0c0-1,0.8-1.9,1.9-1.9h107c1,0,1.9,0.8,1.9,1.9l0,0
				C436.9,169.4,436,170.3,435,170.3z"/>
			<path class="st5" d="M435,180.7H328c-1,0-1.9-0.8-1.9-1.9l0,0c0-1,0.8-1.9,1.9-1.9h107c1,0,1.9,0.8,1.9,1.9l0,0
				C436.9,179.9,436,180.7,435,180.7z"/>
			<path class="st5" d="M411.7,191.8H328c-1,0-1.9-0.8-1.9-1.9l0,0c0-1,0.8-1.9,1.9-1.9h83.6c1,0,1.9,0.8,1.9,1.9l0,0
				C413.5,191,412.7,191.8,411.7,191.8z"/>
			<path class="st5" d="M434.2,152.4h-29.4c-1.7,0-3.1-1.4-3.1-3.1l0,0c0-1.7,1.4-3.1,3.1-3.1h29.4c1.7,0,3.1,1.4,3.1,3.1l0,0
				C437.2,151.1,435.9,152.4,434.2,152.4z"/>
		</g>
	</g>
	<g>
		<path class="st3" d="M360.3,287.9h-33.8c-1.1,0-2-0.9-2-2v-23.2c0-1.1,0.9-2,2-2h33.8c1.1,0,2,0.9,2,2v23.2
			C362.3,287,361.4,287.9,360.3,287.9z"/>
		<g>
			<g>
				<g>
					<path class="st24" d="M343.6,278.4c-0.2,0-0.4-0.1-0.5-0.2l-18.2-15c-0.4-0.3-0.4-0.8-0.1-1.2c0.3-0.4,0.8-0.4,1.2-0.1
						l17.6,14.5l17.2-14.9c0.3-0.3,0.9-0.3,1.2,0.1c0.3,0.3,0.3,0.9-0.1,1.2l-17.7,15.4C344,278.3,343.8,278.4,343.6,278.4z"/>
				</g>
				<g>
					<path class="st24" d="M325.5,287.3c-0.2,0-0.4-0.1-0.6-0.2c-0.3-0.3-0.3-0.8,0-1.2l12.7-13.4c0.3-0.3,0.8-0.3,1.2,0
						c0.3,0.3,0.3,0.8,0,1.2l-12.7,13.4C325.9,287.2,325.7,287.3,325.5,287.3z"/>
				</g>
				<g>
					<path class="st24" d="M361.3,286.8c-0.2,0-0.4-0.1-0.6-0.2l-12.7-12.7c-0.3-0.3-0.3-0.9,0-1.2c0.3-0.3,0.9-0.3,1.2,0l12.7,12.7
						c0.3,0.3,0.3,0.9,0,1.2C361.8,286.7,361.5,286.8,361.3,286.8z"/>
				</g>
			</g>
		</g>
		<g>
			<g>
				<circle class="st25" cx="364" cy="259.9" r="11.1"/>
			</g>
			<text transform="matrix(1 0 0 1 356.2076 264.5618)" class="st5 st26 st27">85</text>
		</g>
	</g>
	<g>
		<g>
			<path class="st3" d="M476.5,255.8h-66c-2.2,0-4-1.8-4-4v-11.1c0-2.2,1.8-4,4-4h66c2.2,0,4,1.8,4,4v11.1
				C480.5,254,478.7,255.8,476.5,255.8z"/>
		</g>
		<g>
			<path class="st5" d="M415.6,251.2c-0.3,0-0.5-0.1-0.7-0.3c-0.2-0.2-0.3-0.5-0.2-0.8l0.3-2.5c0-0.1,0-0.1,0-0.1c0,0-0.1,0-0.2,0
				l-2,1.5c-0.3,0.2-0.5,0.3-0.8,0.2c-0.3-0.1-0.5-0.2-0.7-0.5c-0.2-0.3-0.2-0.6-0.1-0.9c0.1-0.2,0.3-0.4,0.6-0.5l2.3-1
				c0.1,0,0.1-0.1,0.1-0.1c0,0,0-0.1-0.1-0.1l-2.3-1c-0.3-0.1-0.5-0.3-0.6-0.6c-0.1-0.3-0.1-0.5,0.1-0.8c0.2-0.3,0.4-0.4,0.7-0.5
				c0.3-0.1,0.5,0,0.8,0.2l2,1.5c0.1,0,0.1,0.1,0.2,0c0,0,0.1-0.1,0-0.1l-0.3-2.5c0-0.3,0.1-0.6,0.3-0.8c0.2-0.2,0.4-0.3,0.8-0.3
				c0.3,0,0.5,0.1,0.7,0.3c0.2,0.2,0.3,0.5,0.2,0.8l-0.3,2.5c0,0.1,0,0.1,0,0.1c0,0,0.1,0,0.2,0l2-1.5c0.2-0.2,0.5-0.3,0.8-0.2
				c0.3,0.1,0.5,0.2,0.6,0.5c0.2,0.3,0.2,0.6,0.1,0.9c-0.1,0.2-0.3,0.4-0.6,0.5l-2.3,1c-0.1,0-0.1,0.1-0.1,0.1c0,0,0,0.1,0.1,0.1
				l2.3,1c0.3,0.1,0.5,0.3,0.6,0.6c0.1,0.3,0.1,0.5-0.1,0.8c-0.1,0.3-0.4,0.4-0.6,0.5c-0.3,0.1-0.5,0-0.8-0.2l-2-1.5
				c-0.1,0-0.1-0.1-0.2,0c0,0-0.1,0.1,0,0.1l0.3,2.5c0,0.3,0,0.6-0.2,0.8C416.2,251.1,415.9,251.2,415.6,251.2z"/>
		</g>
		<g>
			<path class="st5" d="M429.1,251.2c-0.3,0-0.5-0.1-0.7-0.3c-0.2-0.2-0.3-0.5-0.2-0.8l0.3-2.5c0-0.1,0-0.1,0-0.1c0,0-0.1,0-0.2,0
				l-2,1.5c-0.3,0.2-0.5,0.3-0.8,0.2c-0.3-0.1-0.5-0.2-0.7-0.5c-0.2-0.3-0.2-0.6-0.1-0.9c0.1-0.2,0.3-0.4,0.6-0.5l2.3-1
				c0.1,0,0.1-0.1,0.1-0.1c0,0,0-0.1-0.1-0.1l-2.3-1c-0.3-0.1-0.5-0.3-0.6-0.6c-0.1-0.3-0.1-0.5,0.1-0.8c0.2-0.3,0.4-0.4,0.7-0.5
				c0.3-0.1,0.5,0,0.8,0.2l2,1.5c0.1,0,0.1,0.1,0.2,0c0,0,0.1-0.1,0-0.1l-0.3-2.5c0-0.3,0.1-0.6,0.3-0.8c0.2-0.2,0.4-0.3,0.8-0.3
				c0.3,0,0.5,0.1,0.7,0.3c0.2,0.2,0.3,0.5,0.2,0.8l-0.3,2.5c0,0.1,0,0.1,0,0.1c0,0,0.1,0,0.2,0l2-1.5c0.2-0.2,0.5-0.3,0.8-0.2
				c0.3,0.1,0.5,0.2,0.6,0.5c0.2,0.3,0.2,0.6,0.1,0.9c-0.1,0.2-0.3,0.4-0.6,0.5l-2.3,1c-0.1,0-0.1,0.1-0.1,0.1c0,0,0,0.1,0.1,0.1
				l2.3,1c0.3,0.1,0.5,0.3,0.6,0.6c0.1,0.3,0.1,0.5-0.1,0.8c-0.1,0.3-0.4,0.4-0.6,0.5c-0.3,0.1-0.5,0-0.8-0.2l-2-1.5
				c-0.1,0-0.1-0.1-0.2,0c0,0-0.1,0.1,0,0.1l0.3,2.5c0,0.3,0,0.6-0.2,0.8C429.6,251.1,429.4,251.2,429.1,251.2z"/>
		</g>
		<g>
			<path class="st5" d="M442.5,251.2c-0.3,0-0.5-0.1-0.7-0.3c-0.2-0.2-0.3-0.5-0.2-0.8l0.3-2.5c0-0.1,0-0.1,0-0.1c0,0-0.1,0-0.2,0
				l-2,1.5c-0.3,0.2-0.5,0.3-0.8,0.2c-0.3-0.1-0.5-0.2-0.7-0.5c-0.2-0.3-0.2-0.6-0.1-0.9c0.1-0.2,0.3-0.4,0.6-0.5l2.3-1
				c0.1,0,0.1-0.1,0.1-0.1c0,0,0-0.1-0.1-0.1l-2.3-1c-0.3-0.1-0.5-0.3-0.6-0.6c-0.1-0.3-0.1-0.5,0.1-0.8c0.2-0.3,0.4-0.4,0.7-0.5
				c0.3-0.1,0.5,0,0.8,0.2l2,1.5c0.1,0,0.1,0.1,0.2,0c0,0,0.1-0.1,0-0.1l-0.3-2.5c0-0.3,0.1-0.6,0.3-0.8c0.2-0.2,0.4-0.3,0.8-0.3
				c0.3,0,0.5,0.1,0.7,0.3c0.2,0.2,0.3,0.5,0.2,0.8l-0.3,2.5c0,0.1,0,0.1,0,0.1c0,0,0.1,0,0.2,0l2-1.5c0.2-0.2,0.5-0.3,0.8-0.2
				c0.3,0.1,0.5,0.2,0.6,0.5c0.2,0.3,0.2,0.6,0.1,0.9c-0.1,0.2-0.3,0.4-0.6,0.5l-2.3,1c-0.1,0-0.1,0.1-0.1,0.1c0,0,0,0.1,0.1,0.1
				l2.3,1c0.3,0.1,0.5,0.3,0.6,0.6c0.1,0.3,0.1,0.5-0.1,0.8c-0.1,0.3-0.4,0.4-0.6,0.5c-0.3,0.1-0.5,0-0.8-0.2l-2-1.5
				c-0.1,0-0.1-0.1-0.2,0c0,0-0.1,0.1,0,0.1l0.3,2.5c0,0.3,0,0.6-0.2,0.8C443.1,251.1,442.8,251.2,442.5,251.2z"/>
		</g>
		<g>
			<path class="st5" d="M456,251.2c-0.3,0-0.5-0.1-0.7-0.3c-0.2-0.2-0.3-0.5-0.2-0.8l0.3-2.5c0-0.1,0-0.1,0-0.1c0,0-0.1,0-0.2,0
				l-2,1.5c-0.3,0.2-0.5,0.3-0.8,0.2c-0.3-0.1-0.5-0.2-0.7-0.5c-0.2-0.3-0.2-0.6-0.1-0.9c0.1-0.2,0.3-0.4,0.6-0.5l2.3-1
				c0.1,0,0.1-0.1,0.1-0.1c0,0,0-0.1-0.1-0.1l-2.3-1c-0.3-0.1-0.5-0.3-0.6-0.6c-0.1-0.3-0.1-0.5,0.1-0.8c0.2-0.3,0.4-0.4,0.7-0.5
				c0.3-0.1,0.5,0,0.8,0.2l2,1.5c0.1,0,0.1,0.1,0.2,0c0,0,0.1-0.1,0-0.1l-0.3-2.5c0-0.3,0.1-0.6,0.3-0.8c0.2-0.2,0.4-0.3,0.8-0.3
				c0.3,0,0.5,0.1,0.7,0.3c0.2,0.2,0.3,0.5,0.2,0.8l-0.3,2.5c0,0.1,0,0.1,0,0.1c0,0,0.1,0,0.2,0l2-1.5c0.2-0.2,0.5-0.3,0.8-0.2
				c0.3,0.1,0.5,0.2,0.6,0.5c0.2,0.3,0.2,0.6,0.1,0.9c-0.1,0.2-0.3,0.4-0.6,0.5l-2.3,1c-0.1,0-0.1,0.1-0.1,0.1c0,0,0,0.1,0.1,0.1
				l2.3,1c0.3,0.1,0.5,0.3,0.6,0.6c0.1,0.3,0.1,0.5-0.1,0.8c-0.1,0.3-0.4,0.4-0.6,0.5c-0.3,0.1-0.5,0-0.8-0.2l-2-1.5
				c-0.1,0-0.1-0.1-0.2,0c0,0-0.1,0.1,0,0.1l0.3,2.5c0,0.3,0,0.6-0.2,0.8C456.6,251.1,456.3,251.2,456,251.2z"/>
		</g>
		<g>
			<path class="st4" d="M469.5,251.2c-0.3,0-0.5-0.1-0.7-0.3c-0.2-0.2-0.3-0.5-0.2-0.8l0.3-2.5c0-0.1,0-0.1,0-0.1c0,0-0.1,0-0.2,0
				l-2,1.5c-0.3,0.2-0.5,0.3-0.8,0.2c-0.3-0.1-0.5-0.2-0.7-0.5c-0.2-0.3-0.2-0.6-0.1-0.9c0.1-0.2,0.3-0.4,0.6-0.5l2.3-1
				c0.1,0,0.1-0.1,0.1-0.1c0,0,0-0.1-0.1-0.1l-2.3-1c-0.3-0.1-0.5-0.3-0.6-0.6c-0.1-0.3-0.1-0.5,0.1-0.8c0.2-0.3,0.4-0.4,0.7-0.5
				c0.3-0.1,0.5,0,0.8,0.2l2,1.5c0.1,0,0.1,0.1,0.2,0c0,0,0.1-0.1,0-0.1l-0.3-2.5c0-0.3,0.1-0.6,0.3-0.8c0.2-0.2,0.4-0.3,0.8-0.3
				c0.3,0,0.5,0.1,0.7,0.3c0.2,0.2,0.3,0.5,0.2,0.8l-0.3,2.5c0,0.1,0,0.1,0,0.1c0,0,0.1,0,0.2,0l2-1.5c0.2-0.2,0.5-0.3,0.8-0.2
				c0.3,0.1,0.5,0.2,0.6,0.5c0.2,0.3,0.2,0.6,0.1,0.9c-0.1,0.2-0.3,0.4-0.6,0.5l-2.3,1c-0.1,0-0.1,0.1-0.1,0.1c0,0,0,0.1,0.1,0.1
				l2.3,1c0.3,0.1,0.5,0.3,0.6,0.6c0.1,0.3,0.1,0.5-0.1,0.8c-0.1,0.3-0.4,0.4-0.6,0.5c-0.3,0.1-0.5,0-0.8-0.2l-2-1.5
				c-0.1,0-0.1-0.1-0.2,0c0,0-0.1,0.1,0,0.1l0.3,2.5c0,0.3,0,0.6-0.2,0.8C470,251.1,469.8,251.2,469.5,251.2z"/>
		</g>
	</g>
</g>
</svg>
