<?xml version="1.0" encoding="utf-8"?>
<!-- Generator: Adobe Illustrator 24.3.0, SVG Export Plug-In . SVG Version: 6.00 Build 0)  -->
<svg version="1.1" id="Layer_1" xmlns="http://www.w3.org/2000/svg" xmlns:xlink="http://www.w3.org/1999/xlink" x="0px" y="0px"
	 viewBox="0 0 500 500" style="enable-background:new 0 0 500 500;" xml:space="preserve">
<style type="text/css">
	.st0{fill:#FFFFFF;}
</style>
<g>
	<path class="st0" d="M191.3,427.9c-0.7-0.3-1.3-0.8-2-1c-11.4-3.1-18.1-11.6-18.2-23.5c-0.1-11.5,0-23.1,0-34.6
		c0-6.3,0-12.7,0-19.7c-6.4,0-12-0.1-17.7,0c-7.6,0.1-13.9-2.7-18.9-8.3c-3.8-4.3-6-9.4-6-15.2c0-52.7,0-105.5,0-158.2
		c0-1,0.1-2,0.2-3.4c1.5-0.1,2.9-0.2,4.2-0.2c69.2,0,138.4,0,207.6-0.1c3.8,0,4.7,1.1,4.7,4.8c-0.1,51.7-0.3,103.4,0,155.1
		c0.1,15.9-12.9,26.6-26,25.6c-6-0.4-12.1-0.1-18.7-0.1c0,1.9,0,3.4,0,4.9c0,15.9,0,31.9,0,47.8c0,13.4-6.4,21.7-19.5,25.2
		c-0.5,0.1-0.8,0.5-1.3,0.8c-2.1,0-4.1,0-6.2,0c-0.6-0.3-1.1-0.8-1.7-0.8c-10.5-1.6-19.6-12.4-19.2-24.3c0.5-16.4-0.1-32.9,0-49.3
		c0-3.4-1-4.5-4.4-4.4c-6.3,0.3-12.7,0.1-19,0.1c-3.3,0-6.6,0-10.3,0c0,2.2,0,3.7,0,5.2c0,16.2,0,32.4,0,48.6
		c0,11.9-7.3,21.1-18.7,24c-0.7,0.2-1.4,0.6-2,1C196,427.9,193.7,427.9,191.3,427.9z"/>
	<path class="st0" d="M287.6,67.7c33.5,19.5,52.6,48,57,86.7c-72,0-143.4,0-215.7,0C133,116.1,152,88,184.8,68.2
		c-0.8-1.5-1.4-2.9-2.2-4.3c-5.3-9.2-10.6-18.4-15.9-27.6c-0.5-0.9-1.3-1.8-1.4-2.7c-0.1-0.8,0.3-2.2,0.9-2.6c0.6-0.3,2,0.2,2.6,0.8
		c1,1,1.6,2.4,2.3,3.6c5.4,9.3,10.8,18.5,16.1,27.9c1.2,2.2,2.3,3,4.8,1.8c17.4-8.2,35.8-10.8,54.8-9.3c11.6,0.9,22.9,3.9,33.6,8.7
		c0.9,0.4,1.9,0.8,3.2,1.4c0.8-1.2,1.5-2.3,2.2-3.5c5.3-9.2,10.6-18.4,15.9-27.5c0.6-1,1-2.2,1.9-2.9c0.8-0.6,2-0.6,3-0.9
		c0.1,1,0.7,2.3,0.3,3c-2.9,5.5-6.1,10.8-9.2,16.2C294.4,55.8,291.1,61.5,287.6,67.7z M185.4,96.2c-5.7,0-10.4,4.8-10.3,10.4
		c0.1,5.5,5.1,10.4,10.6,10.4c5.5-0.1,10.3-5.1,10.3-10.6C195.9,100.7,191.2,96.1,185.4,96.2z M285.4,96.2
		c-5.8,0-10.3,4.5-10.3,10.3c0,5.6,4.8,10.5,10.3,10.5c5.4,0,10.4-5,10.4-10.5C295.8,100.7,291.2,96.2,285.4,96.2z"/>
	<path class="st0" d="M118,209.4c0,26,0,52,0,78.1c0,11.3-7.4,20.9-17.8,23.6c-15.5,4-29.9-6.8-30.1-22.9
		c-0.2-18.4-0.4-36.8-0.5-55.1c-0.1-16.2-0.1-32.4,0-48.6c0-11.9,9.2-22.6,20.4-23.8c12.9-1.4,23.7,5.6,26.8,17.8
		c0.6,2.5,0.7,5.1,0.7,7.7c0.1,7.8,0,15.5,0,23.3C117.7,209.4,117.8,209.4,118,209.4z"/>
	<path class="st0" d="M355.7,268.3c0-27.8,0-55.7,0-83.5c0-11.4,7.2-20.7,18.2-23.6c14.2-3.8,28.6,6.4,29.6,21.1
		c0.1,0.8,0.1,1.6,0.1,2.3c0.2,34.4,0.4,68.9,0.5,103.3c0,11.8-9.1,22.3-20.4,23.8c-12.3,1.7-23.4-5.5-26.7-17.5
		c-0.6-2.3-0.7-4.9-0.8-7.3c-0.1-6.2,0-12.4,0-18.7C356,268.3,355.9,268.3,355.7,268.3z"/>
</g>
</svg>
