<?xml version="1.0" encoding="utf-8"?>
<!-- Generator: Adobe Illustrator 24.3.0, SVG Export Plug-In . SVG Version: 6.00 Build 0)  -->
<svg version="1.1" id="Layer_1" xmlns="http://www.w3.org/2000/svg" xmlns:xlink="http://www.w3.org/1999/xlink" x="0px" y="0px"
	 viewBox="0 0 500 500" style="enable-background:new 0 0 500 500;" xml:space="preserve">
<style type="text/css">
	.st0{fill:#FFFFFF;}
</style>
<g>
	<path class="st0" d="M333.2,463.8c-2.6,0-5.1,0-7.7,0c-15.3-4.8-30.4-10.7-46.1-14c-11.8-2.5-24.8-3.7-36.5-1.5
		c-16.9,3.2-33.1,10.1-49.7,15.4c-4.5,0-8.9,0-13.4,0c-20.8-5.8-34.9-20.3-47.4-36.7c-42.6-56.2-65.2-118.7-55.8-189.9
		c4.4-33.4,20.3-61.6,48.5-81.4c33.4-23.5,68.6-22.2,104.1-5.5c14.9,7,28.7,7,43.9,0.5c22.3-9.4,45.3-17,70.4-13
		c28.8,4.6,53.3,16.1,70.3,41.9c-32.7,20.8-48.9,49.9-46,88.6c2.9,38.5,23.8,64.7,57.7,81c-9.6,28.7-23.9,53.3-41,76.5
		C371.5,444,356.9,459.9,333.2,463.8z"/>
	<path class="st0" d="M335.2,32.6c4.7,53-38.1,102.9-85.8,98.9c-1.5-15.4,1.7-30.1,8.4-43.9c13.7-28.1,36.4-45.2,66.4-53.1
		c1.8-0.5,3.5-1.2,5.2-1.9C331.3,32.6,333.2,32.6,335.2,32.6z"/>
</g>
</svg>
