<?xml version="1.0" encoding="utf-8"?>
<!-- Generator: Adobe Illustrator 24.3.0, SVG Export Plug-In . SVG Version: 6.00 Build 0)  -->
<svg version="1.1" id="Layer_1" xmlns="http://www.w3.org/2000/svg" xmlns:xlink="http://www.w3.org/1999/xlink" x="0px" y="0px"
	 viewBox="0 0 500 500" style="enable-background:new 0 0 500 500;" xml:space="preserve">
<style type="text/css">
	.st0{fill:#FFFFFF;}
</style>
<g>
	<path class="st0" d="M306.6,449.6c-72.2-2.7-128.8-37.1-176.3-88.9c-38.1-41.6-62.3-89.5-67-146.8c-3.1-38.2,11.4-67.5,40-90.5
		c28.3-22.8,68.5-15.3,87.5,15.5c5.3,8.7,10.3,17.6,14.7,26.8c11,23,5.6,43.9-9.3,63.1c-13.4,17.3-14.6,28-3.9,47.2
		c11.5,20.6,27.8,36.6,49.1,47c14.3,7,27.5,6.5,40.6-4.6c24.1-20.5,44.9-21.8,73.2-6.6c5.8,3.1,11.8,6.1,17.5,9.5
		c30.1,18,39.3,54.8,19.3,83.7C371.7,434.2,343.9,451.5,306.6,449.6z"/>
	<path class="st0" d="M462.3,239.6c-4.5,3.8-9.3,10.9-15.6,12.6c-8.9,2.3-13.3-5.4-17-13.3c-10.8-23-19.8-47.6-34.6-67.9
		c-30.7-42.3-70.2-74.5-122.2-88.6c-8.9-2.4-15.1-8.7-12.5-18.7c2.7-10.3,10.6-13.6,20.8-11c32.3,8.3,60.6,24.3,86.2,45.2
		c40.5,33.1,72.3,72.6,89.3,122.8C458.6,225.6,459.8,230.8,462.3,239.6z"/>
	<path class="st0" d="M387.1,234.1c-4.1,4.2-7.6,10.1-12.7,12.5c-7.9,3.7-14.9-0.3-18.4-8.2c-11-24.5-28.6-43.7-48.9-60.3
		c-9.8-8-21-14.6-32-21c-8.5-4.9-12.9-11.1-9.2-20.6c3.9-9.9,12.6-11.3,21-7.6c10,4.4,20,9.8,28.7,16.4c25,18.7,46.7,40.8,62.4,68.1
		C381.3,219.1,383.3,225.4,387.1,234.1z"/>
</g>
</svg>
