<?xml version="1.0" encoding="utf-8"?>
<!-- Generator: Adobe Illustrator 24.3.0, SVG Export Plug-In . SVG Version: 6.00 Build 0)  -->
<svg version="1.1" id="Layer_1" xmlns="http://www.w3.org/2000/svg" xmlns:xlink="http://www.w3.org/1999/xlink" x="0px" y="0px"
	 viewBox="0 0 500 500" style="enable-background:new 0 0 500 500;" xml:space="preserve">
<style type="text/css">
	.st0{fill:#FFFFFF;}
</style>
<g>
	<path class="st0" d="M247.4,44.6c86.8,0.1,151.2,58.4,157.4,139.2c1.3,17.5-2.3,36.5-8.2,53.2c-23.1,65.4-60.1,122.3-112,168.9
		c-24.5,22-36.5,22.4-61.4,0.3c-54.7-48.5-94.1-108-115-177.9C84.7,149.7,136.6,66.6,217.5,48.7C229.2,46.1,241.3,45.4,247.4,44.6z
		 M253.5,67c-9.6,1.3-19.4,2-28.9,3.9c-64.2,13.3-111.7,79.4-96.9,139.8c17.8,72.3,58.4,131.6,113.8,181.1
		c8.5,7.6,15.7,7.4,24.3-0.1c47.3-41.1,80.5-92,104.1-149.4c5.1-12.3,9.4-25.5,10.7-38.6C387.9,129.2,330,67.9,253.5,67z"/>
	<path class="st0" d="M254.2,256c-39.2,0.4-70.6-30.2-70.8-68.9c-0.2-36.1,31.7-66.7,69.8-67.1c39.1-0.4,70.7,30.4,70.7,69
		C323.9,225.5,292.6,255.6,254.2,256z M253.4,233c26.4,0.1,46.7-19.2,46.7-44.4c0-25.6-19.8-45.1-46-45.3
		c-26.3-0.1-46.5,19.1-46.7,44.5C207.2,213.3,227.2,232.9,253.4,233z"/>
</g>
</svg>
