<?xml version="1.0" encoding="utf-8"?>
<!-- Generator: Adobe Illustrator 24.3.0, SVG Export Plug-In . SVG Version: 6.00 Build 0)  -->
<svg version="1.1" id="Layer_1" xmlns="http://www.w3.org/2000/svg" xmlns:xlink="http://www.w3.org/1999/xlink" x="0px" y="0px"
	 viewBox="0 0 500 500" style="enable-background:new 0 0 500 500;" xml:space="preserve">
<style type="text/css">
	.st0{fill:#FFFFFF;}
</style>
<g>
	<path class="st0" d="M65.8,192.7c41,34.7,79.8,67.7,118.7,100.6c8.6,7.2,17,14.6,25.7,21.7c34.1,27.5,74.2,27.8,108-0.4
		c47.5-39.6,94.5-79.9,143-121c0.4,4,1.1,7,1.1,9.9c0.1,63.2,0.1,126.3,0,189.5c0,23.2-14.1,37.3-37.1,37.3
		c-107.6,0.1-215.2,0.1-322.8,0c-20.6,0-36.2-13.7-36.4-32.9C65.5,330.1,65.8,262.8,65.8,192.7z"/>
	<path class="st0" d="M264.4,103.7c53.2,0,106.4,0,159.5,0c24.7,0,39.1,14.4,38.1,38.6c-0.2,4.6-2.9,10.4-6.4,13.5
		C400,203.7,344,251.4,288,298.9c-15,12.8-32.7,12.9-47.6,0.3c-56.4-47.8-112.4-96-168.8-143.7c-9.3-7.9-6.5-17.5-4.5-26.3
		c3.6-15.9,17.7-25.5,35.3-25.5C156.4,103.6,210.4,103.7,264.4,103.7z"/>
</g>
</svg>
