<?xml version="1.0" encoding="utf-8"?>
<!-- Generator: Adobe Illustrator 24.3.0, SVG Export Plug-In . SVG Version: 6.00 Build 0)  -->
<svg version="1.1" xmlns="http://www.w3.org/2000/svg" xmlns:xlink="http://www.w3.org/1999/xlink" x="0px" y="0px"
	 viewBox="0 0 500 500" style="enable-background:new 0 0 500 500;" xml:space="preserve">
<style type="text/css">
	.st0{opacity:0.1;}
	.st1{fill:#DFB363;}
	.st2{fill:#F9EADD;}
	.st3{fill:#202020;}
	.st4{opacity:0.5;fill:#E1CFBF;}
	.st5{fill:#EDBA8F;}
	.st6{fill:#686868;}
	.st7{fill:#D28448;}
	.st8{enable-background:new    ;}
</style>
<g id="BACKGROUND">
</g>
<g id="OBJECTS">
	<g class="st0">
		<g>
			<g>
				<g>
					<circle class="st1" cx="341.1" cy="217.5" r="2.2"/>
					<circle class="st1" cx="341.1" cy="169.5" r="2.2"/>
					<circle class="st1" cx="341.1" cy="241.4" r="2.2"/>
					<path class="st1" d="M343.3,193.5c0,1.2-1,2.2-2.2,2.2c-1.2,0-2.2-1-2.2-2.2c0-1.2,1-2.2,2.2-2.2
						C342.3,191.3,343.3,192.3,343.3,193.5z"/>
					<circle class="st1" cx="341.1" cy="121.6" r="2.2"/>
					<circle class="st1" cx="341.1" cy="145.5" r="2.2"/>
					<path class="st1" d="M343.3,97.6c0,1.2-1,2.2-2.2,2.2c-1.2,0-2.2-1-2.2-2.2c0-1.2,1-2.2,2.2-2.2
						C342.3,95.4,343.3,96.4,343.3,97.6z"/>
					<path class="st1" d="M343.3,265.4c0,1.2-1,2.2-2.2,2.2c-1.2,0-2.2-1-2.2-2.2s1-2.2,2.2-2.2
						C342.3,263.2,343.3,264.2,343.3,265.4z"/>
					<circle class="st1" cx="341.1" cy="73.6" r="2.2"/>
					<path class="st1" d="M361.2,133.6c0,1.2-1,2.2-2.2,2.2s-2.2-1-2.2-2.2s1-2.2,2.2-2.2S361.2,132.4,361.2,133.6z"/>
					<path class="st1" d="M361.2,253.4c0,1.2-1,2.2-2.2,2.2s-2.2-1-2.2-2.2s1-2.2,2.2-2.2S361.2,252.2,361.2,253.4z"/>
					<path class="st1" d="M361.2,85.6c0,1.2-1,2.2-2.2,2.2s-2.2-1-2.2-2.2c0-1.2,1-2.2,2.2-2.2S361.2,84.4,361.2,85.6z"/>
					<path class="st1" d="M361.2,229.4c0,1.2-1,2.2-2.2,2.2s-2.2-1-2.2-2.2s1-2.2,2.2-2.2S361.2,228.2,361.2,229.4z"/>
					<path class="st1" d="M361.2,205.5c0,1.2-1,2.2-2.2,2.2s-2.2-1-2.2-2.2s1-2.2,2.2-2.2S361.2,204.3,361.2,205.5z"/>
					<path class="st1" d="M361.2,181.5c0,1.2-1,2.2-2.2,2.2s-2.2-1-2.2-2.2c0-1.2,1-2.2,2.2-2.2S361.2,180.3,361.2,181.5z"/>
					<path class="st1" d="M361.2,157.5c0,1.2-1,2.2-2.2,2.2s-2.2-1-2.2-2.2s1-2.2,2.2-2.2S361.2,156.3,361.2,157.5z"/>
					<path class="st1" d="M361.2,109.6c0,1.2-1,2.2-2.2,2.2s-2.2-1-2.2-2.2c0-1.2,1-2.2,2.2-2.2S361.2,108.4,361.2,109.6z"/>
					<path class="st1" d="M379.2,265.4c0,1.2-1,2.2-2.2,2.2c-1.2,0-2.2-1-2.2-2.2s1-2.2,2.2-2.2
						C378.2,263.2,379.2,264.2,379.2,265.4z"/>
					<path class="st1" d="M379.2,97.6c0,1.2-1,2.2-2.2,2.2c-1.2,0-2.2-1-2.2-2.2c0-1.2,1-2.2,2.2-2.2
						C378.2,95.4,379.2,96.4,379.2,97.6z"/>
					<path class="st1" d="M379.2,73.6c0,1.2-1,2.2-2.2,2.2c-1.2,0-2.2-1-2.2-2.2c0-1.2,1-2.2,2.2-2.2
						C378.2,71.4,379.2,72.4,379.2,73.6z"/>
					<path class="st1" d="M379.2,169.5c0,1.2-1,2.2-2.2,2.2c-1.2,0-2.2-1-2.2-2.2c0-1.2,1-2.2,2.2-2.2
						C378.2,167.3,379.2,168.3,379.2,169.5z"/>
					<path class="st1" d="M379.2,193.5c0,1.2-1,2.2-2.2,2.2c-1.2,0-2.2-1-2.2-2.2c0-1.2,1-2.2,2.2-2.2
						C378.2,191.3,379.2,192.3,379.2,193.5z"/>
					<path class="st1" d="M379.2,145.5c0,1.2-1,2.2-2.2,2.2c-1.2,0-2.2-1-2.2-2.2s1-2.2,2.2-2.2
						C378.2,143.4,379.2,144.3,379.2,145.5z"/>
					<path class="st1" d="M379.2,121.6c0,1.2-1,2.2-2.2,2.2c-1.2,0-2.2-1-2.2-2.2c0-1.2,1-2.2,2.2-2.2
						C378.2,119.4,379.2,120.4,379.2,121.6z"/>
					<path class="st1" d="M379.2,241.4c0,1.2-1,2.2-2.2,2.2c-1.2,0-2.2-1-2.2-2.2s1-2.2,2.2-2.2
						C378.2,239.2,379.2,240.2,379.2,241.4z"/>
					<path class="st1" d="M379.2,217.5c0,1.2-1,2.2-2.2,2.2c-1.2,0-2.2-1-2.2-2.2s1-2.2,2.2-2.2
						C378.2,215.3,379.2,216.3,379.2,217.5z"/>
					<circle class="st1" cx="395" cy="253.4" r="2.2"/>
					<path class="st1" d="M397.2,181.5c0,1.2-1,2.2-2.2,2.2s-2.2-1-2.2-2.2c0-1.2,1-2.2,2.2-2.2S397.2,180.3,397.2,181.5z"/>
					<circle class="st1" cx="395" cy="229.4" r="2.2"/>
					<path class="st1" d="M397.2,205.5c0,1.2-1,2.2-2.2,2.2s-2.2-1-2.2-2.2s1-2.2,2.2-2.2S397.2,204.3,397.2,205.5z"/>
					<circle class="st1" cx="413" cy="169.5" r="2.2"/>
					<circle class="st1" cx="413" cy="145.5" r="2.2"/>
					<path class="st1" d="M397.2,109.6c0,1.2-1,2.2-2.2,2.2s-2.2-1-2.2-2.2c0-1.2,1-2.2,2.2-2.2S397.2,108.4,397.2,109.6z"/>
					<circle class="st1" cx="413" cy="241.4" r="2.2"/>
					<circle class="st1" cx="395" cy="157.5" r="2.2"/>
					<circle class="st1" cx="395" cy="133.6" r="2.2"/>
					<path class="st1" d="M415.2,265.4c0,1.2-1,2.2-2.2,2.2s-2.2-1-2.2-2.2s1-2.2,2.2-2.2S415.2,264.2,415.2,265.4z"/>
					<path class="st1" d="M397.2,85.6c0,1.2-1,2.2-2.2,2.2s-2.2-1-2.2-2.2c0-1.2,1-2.2,2.2-2.2S397.2,84.4,397.2,85.6z"/>
					<circle class="st1" cx="413" cy="217.5" r="2.2"/>
					<path class="st1" d="M415.2,193.5c0,1.2-1,2.2-2.2,2.2s-2.2-1-2.2-2.2c0-1.2,1-2.2,2.2-2.2S415.2,192.3,415.2,193.5z"/>
					<path class="st1" d="M433.2,253.4c0,1.2-1,2.2-2.2,2.2c-1.2,0-2.2-1-2.2-2.2s1-2.2,2.2-2.2
						C432.2,251.2,433.2,252.2,433.2,253.4z"/>
					<circle class="st1" cx="413" cy="121.6" r="2.2"/>
					<circle class="st1" cx="413" cy="73.6" r="2.2"/>
					<path class="st1" d="M415.2,97.6c0,1.2-1,2.2-2.2,2.2s-2.2-1-2.2-2.2c0-1.2,1-2.2,2.2-2.2S415.2,96.4,415.2,97.6z"/>
					<path class="st1" d="M433.2,229.4c0,1.2-1,2.2-2.2,2.2c-1.2,0-2.2-1-2.2-2.2s1-2.2,2.2-2.2
						C432.2,227.3,433.2,228.2,433.2,229.4z"/>
					<path class="st1" d="M433.2,85.6c0,1.2-1,2.2-2.2,2.2c-1.2,0-2.2-1-2.2-2.2c0-1.2,1-2.2,2.2-2.2
						C432.2,83.4,433.2,84.4,433.2,85.6z"/>
					<path class="st1" d="M433.2,205.5c0,1.2-1,2.2-2.2,2.2c-1.2,0-2.2-1-2.2-2.2s1-2.2,2.2-2.2
						C432.2,203.3,433.2,204.3,433.2,205.5z"/>
					<path class="st1" d="M433.2,181.5c0,1.2-1,2.2-2.2,2.2c-1.2,0-2.2-1-2.2-2.2c0-1.2,1-2.2,2.2-2.2
						C432.2,179.3,433.2,180.3,433.2,181.5z"/>
					<path class="st1" d="M433.2,133.6c0,1.2-1,2.2-2.2,2.2c-1.2,0-2.2-1-2.2-2.2s1-2.2,2.2-2.2
						C432.2,131.4,433.2,132.4,433.2,133.6z"/>
					<path class="st1" d="M433.2,109.6c0,1.2-1,2.2-2.2,2.2c-1.2,0-2.2-1-2.2-2.2c0-1.2,1-2.2,2.2-2.2
						C432.2,107.4,433.2,108.4,433.2,109.6z"/>
					<path class="st1" d="M433.2,157.5c0,1.2-1,2.2-2.2,2.2c-1.2,0-2.2-1-2.2-2.2s1-2.2,2.2-2.2
						C432.2,155.3,433.2,156.3,433.2,157.5z"/>
					<path class="st1" d="M451.1,193.5c0,1.2-1,2.2-2.2,2.2c-1.2,0-2.2-1-2.2-2.2c0-1.2,1-2.2,2.2-2.2
						C450.1,191.3,451.1,192.3,451.1,193.5z"/>
					<circle class="st1" cx="448.9" cy="241.4" r="2.2"/>
					<circle class="st1" cx="448.9" cy="169.5" r="2.2"/>
					<circle class="st1" cx="448.9" cy="73.6" r="2.2"/>
					<circle class="st1" cx="448.9" cy="145.5" r="2.2"/>
					<path class="st1" d="M451.1,265.4c0,1.2-1,2.2-2.2,2.2c-1.2,0-2.2-1-2.2-2.2s1-2.2,2.2-2.2
						C450.1,263.2,451.1,264.2,451.1,265.4z"/>
					<circle class="st1" cx="448.9" cy="217.5" r="2.2"/>
					<circle class="st1" cx="448.9" cy="121.6" r="2.2"/>
					<path class="st1" d="M451.1,97.6c0,1.2-1,2.2-2.2,2.2c-1.2,0-2.2-1-2.2-2.2c0-1.2,1-2.2,2.2-2.2
						C450.1,95.4,451.1,96.4,451.1,97.6z"/>
				</g>
			</g>
		</g>
	</g>
	<g>
		<rect x="279" y="310.4" class="st2" width="170.5" height="104.3"/>
		<g>
			<g>
				<path class="st3" d="M311.1,291.9c0,5.3-3.6,9.7-8.5,11c-0.9,0.2-1.8,0.3-2.8,0.3c-1.2,0-2.1-0.9-2.1-2.1c0-1.2,0.9-2.1,2.1-2.1
					c0.9,0,1.8-0.2,2.5-0.5c2.7-1,4.6-3.6,4.6-6.6c0-0.3,0-0.6,0-0.8c-0.4-3.5-3.4-6.3-7.1-6.3c-3.6,0-6.7,2.8-7.1,6.3h-1.5
					c-0.9,0-1.9,0.1-2.8,0.3c0.3-6,5.2-10.8,11.3-10.8c6,0,10.8,4.6,11.3,10.5C311.1,291.3,311.1,291.6,311.1,291.9z"/>
			</g>
			<path class="st3" d="M373.4,291.9c0,5.3-3.6,9.7-8.5,10.9c-0.9,0.2-1.9,0.4-2.8,0.4c-1.2,0-2.1-0.9-2.1-2.1
				c0-1.2,0.9-2.1,2.1-2.1c0.9,0,1.8-0.2,2.6-0.5c2.7-1,4.5-3.6,4.5-6.6c0-0.3,0-0.6,0-0.8c-0.4-3.5-3.4-6.3-7.1-6.3
				c-3.6,0-6.7,2.8-7.1,6.3h-4.2c0.4-5.8,5.3-10.5,11.3-10.5c6,0,10.8,4.6,11.3,10.5C373.3,291.3,373.4,291.6,373.4,291.9z"/>
			<path class="st1" d="M449.5,303.3v7.1H279v-7.1c0-5.8,4.1-10.7,9.6-12c0.9-0.2,1.8-0.3,2.8-0.3h15.6c0,0.3,0,0.5,0,0.8
				c0,3-1.9,5.6-4.6,6.6c-0.8-1.4-2.3-2.3-4.1-2.3c-2.6,0-4.7,2.1-4.7,4.7c0,2.6,2.1,4.7,4.7,4.7c1.9,0,3.6-1.2,4.3-2.8
				c4.9-1.2,8.5-5.7,8.5-11c0-0.3,0-0.6,0-0.8H338c0,0.3,0,0.5,0,0.8c0,3.2-2.1,5.9-5,6.8c-0.8-1.5-2.4-2.5-4.2-2.5
				c-2.6,0-4.7,2.1-4.7,4.7c0,2.6,2.1,4.7,4.7,4.7c1.9,0,3.5-1.1,4.3-2.7c5.2-1,9.1-5.6,9.1-11.1c0-0.3,0-0.6,0-0.8h26.9
				c0,0.3,0,0.5,0,0.8c0,3-1.9,5.6-4.5,6.6c-0.8-1.4-2.3-2.3-4.1-2.3c-2.6,0-4.7,2.1-4.7,4.7c0,2.6,2.1,4.7,4.7,4.7
				c1.9,0,3.6-1.2,4.3-2.8c4.9-1.3,8.5-5.7,8.5-10.9c0-0.3,0-0.6,0-0.8h26.9c0,0.3,0,0.5,0,0.8c0,3.2-2.1,5.9-5,6.8
				c-0.8-1.5-2.4-2.5-4.1-2.5c-2.6,0-4.7,2.1-4.7,4.7c0,2.6,2.1,4.7,4.7,4.7c1.9,0,3.5-1.1,4.3-2.7c5.1-1.1,9-5.6,9-11.1
				c0-0.3,0-0.6,0-0.8h26.9c0,0.3,0,0.5,0,0.8c0,3.1-2,5.8-4.8,6.7c-0.8-1.4-2.4-2.4-4.1-2.4c-2.6,0-4.7,2.1-4.7,4.7
				c0,2.6,2.1,4.7,4.7,4.7c1.9,0,3.5-1.1,4.3-2.7c5-1.1,8.8-5.6,8.8-11c0-0.3,0-0.6,0-0.8h1.7C444,291,449.5,296.6,449.5,303.3z"/>
		</g>
		<path class="st2" d="M302.6,302.8c-0.7,1.6-2.4,2.8-4.3,2.8c-2.6,0-4.7-2.1-4.7-4.7c0-2.6,2.1-4.7,4.7-4.7c1.7,0,3.2,0.9,4.1,2.3
			c-0.8,0.3-1.6,0.5-2.5,0.5c-1.2,0-2.1,0.9-2.1,2.1c0,1.2,0.9,2.1,2.1,2.1C300.8,303.2,301.7,303,302.6,302.8z"/>
		<path class="st2" d="M333.2,302.9c-0.8,1.6-2.4,2.7-4.3,2.7c-2.6,0-4.7-2.1-4.7-4.7c0-2.6,2.1-4.7,4.7-4.7c1.8,0,3.4,1,4.2,2.5
			c-0.7,0.2-1.4,0.3-2.2,0.3c-1.2,0-2.1,0.9-2.1,2.1c0,1.2,0.9,2.1,2.1,2.1C331.7,303.2,332.5,303.1,333.2,302.9z"/>
		<path class="st3" d="M342.2,291.9c0,5.5-3.9,10-9.1,11.1c-0.7,0.2-1.5,0.2-2.2,0.2c-1.2,0-2.1-0.9-2.1-2.1c0-1.2,0.9-2.1,2.1-2.1
			c0.8,0,1.5-0.1,2.2-0.3c2.9-0.9,5-3.6,5-6.8c0-0.3,0-0.6,0-0.8c-0.4-3.5-3.4-6.3-7.1-6.3c-3.6,0-6.7,2.8-7.1,6.3h-4.2
			c0.4-5.8,5.3-10.5,11.3-10.5c6,0,10.8,4.6,11.3,10.5C342.2,291.3,342.2,291.6,342.2,291.9z"/>
		<path class="st2" d="M364.9,302.8c-0.7,1.6-2.4,2.8-4.3,2.8c-2.6,0-4.7-2.1-4.7-4.7c0-2.6,2.1-4.7,4.7-4.7c1.7,0,3.2,0.9,4.1,2.3
			c-0.8,0.3-1.7,0.5-2.6,0.5c-1.2,0-2.1,0.9-2.1,2.1c0,1.2,0.9,2.1,2.1,2.1C363,303.2,364,303,364.9,302.8z"/>
		<path class="st2" d="M395.4,302.9c-0.8,1.6-2.4,2.7-4.3,2.7c-2.6,0-4.7-2.1-4.7-4.7c0-2.6,2.1-4.7,4.7-4.7c1.8,0,3.3,1,4.1,2.5
			c0,0,0,0,0,0c-0.7,0.2-1.4,0.3-2.2,0.3c-1.2,0-2.1,0.9-2.1,2.1c0,1.2,0.9,2.1,2.1,2.1C393.9,303.2,394.7,303.1,395.4,302.9z"/>
		<path class="st3" d="M404.5,291.9c0,5.5-3.9,10-9,11.1c-0.7,0.1-1.5,0.2-2.3,0.2c-1.2,0-2.1-0.9-2.1-2.1c0-1.2,0.9-2.1,2.1-2.1
			c0.8,0,1.5-0.1,2.2-0.3c0,0,0,0,0,0c2.9-0.9,5-3.6,5-6.8c0-0.3,0-0.6,0-0.8c-0.4-3.5-3.4-6.3-7.1-6.3s-6.7,2.8-7.1,6.3h-4.2
			c0.4-5.8,5.3-10.5,11.3-10.5s10.8,4.6,11.3,10.5C404.4,291.3,404.5,291.6,404.5,291.9z"/>
		<path class="st3" d="M435.6,291.9c0,5.4-3.8,9.9-8.8,11c-0.8,0.2-1.6,0.3-2.5,0.3c-1.2,0-2.1-0.9-2.1-2.1c0-1.2,0.9-2.1,2.1-2.1
			c0.8,0,1.6-0.1,2.3-0.4c2.8-1,4.8-3.6,4.8-6.7c0-0.3,0-0.6,0-0.8c-0.4-3.5-3.4-6.3-7.1-6.3s-6.7,2.8-7.1,6.3H413
			c0.4-5.8,5.3-10.5,11.3-10.5s10.8,4.6,11.3,10.5C435.6,291.3,435.6,291.6,435.6,291.9z"/>
		<path class="st2" d="M426.8,302.9c-0.7,1.6-2.4,2.7-4.3,2.7c-2.6,0-4.7-2.1-4.7-4.7c0-2.6,2.1-4.7,4.7-4.7c1.8,0,3.3,1,4.1,2.4
			c-0.7,0.3-1.5,0.4-2.3,0.4c-1.2,0-2.1,0.9-2.1,2.1c0,1.2,0.9,2.1,2.1,2.1C425.1,303.2,426,303.1,426.8,302.9z"/>
		<g>
			<path class="st3" d="M449.5,415.2H279c-0.3,0-0.5-0.2-0.5-0.5V310.4c0-0.3,0.2-0.5,0.5-0.5h170.5c0.3,0,0.5,0.2,0.5,0.5v104.3
				C450,415,449.8,415.2,449.5,415.2z M279.5,414.2H449V310.9H279.5V414.2z"/>
		</g>
		<g>
			<g>
				<g>
					<path class="st3" d="M299.8,303.7c-1.4,0-2.6-1.2-2.6-2.6c0-1.4,1.2-2.6,2.6-2.6c0.8,0,1.6-0.2,2.4-0.4c2.5-1,4.3-3.5,4.3-6.2
						c0-0.3,0-0.5,0-0.8c-0.4-3.4-3.2-5.9-6.6-5.9c-3.4,0-6.2,2.5-6.6,5.9c0,0.3-0.2,0.4-0.5,0.4h-1.5c-0.9,0-1.8,0.1-2.6,0.3
						c-0.1,0-0.3,0-0.4-0.1c-0.1-0.1-0.2-0.3-0.2-0.4c0.3-6.3,5.5-11.3,11.8-11.3c6.2,0,11.3,4.8,11.8,10.9c0,0.3,0,0.6,0,0.9
						c0,5.4-3.7,10.1-8.9,11.4C301.8,303.5,300.8,303.7,299.8,303.7z M299.8,284.2c3.9,0,7.1,2.9,7.6,6.7c0,0.3,0.1,0.6,0.1,0.9
						c0,3.1-2,6-4.9,7.1c-0.9,0.3-1.8,0.5-2.7,0.5c-0.9,0-1.6,0.7-1.6,1.6c0,0.9,0.7,1.6,1.6,1.6c0.9,0,1.8-0.1,2.7-0.3
						c4.8-1.2,8.1-5.5,8.1-10.5c0-0.3,0-0.5,0-0.8c-0.4-5.6-5.1-10-10.8-10c-5.6,0-10.2,4.2-10.7,9.7c0.7-0.1,1.5-0.2,2.2-0.2h1
						C293,286.9,296.1,284.2,299.8,284.2z"/>
				</g>
			</g>
			<g>
				<path class="st3" d="M362.1,303.7c-1.4,0-2.6-1.2-2.6-2.6c0-1.4,1.2-2.6,2.6-2.6c0.8,0,1.6-0.2,2.4-0.5c2.5-1,4.2-3.5,4.2-6.2
					c0-0.3,0-0.5,0-0.8c-0.4-3.4-3.2-5.9-6.6-5.9c-3.4,0-6.2,2.5-6.6,5.9c0,0.3-0.2,0.4-0.5,0.4h-4.2c-0.1,0-0.3-0.1-0.4-0.2
					c-0.1-0.1-0.1-0.2-0.1-0.4c0.4-6.1,5.6-10.9,11.8-10.9c6.2,0,11.3,4.8,11.8,10.9c0,0.3,0,0.6,0,0.9c0,5.4-3.6,10.1-8.8,11.4
					C364,303.5,363.1,303.7,362.1,303.7z M362.1,284.2c3.9,0,7.1,2.9,7.6,6.7c0,0.3,0.1,0.6,0.1,0.9c0,3.1-2,6-4.9,7.1
					c-0.9,0.3-1.8,0.5-2.8,0.5c-0.9,0-1.6,0.7-1.6,1.6c0,0.9,0.7,1.6,1.6,1.6c0.9,0,1.8-0.1,2.7-0.3c4.8-1.2,8.1-5.5,8.1-10.5
					c0-0.3,0-0.5,0-0.8c-0.4-5.6-5.1-10-10.8-10c-5.5,0-10.1,4.1-10.7,9.5h3.2C355.2,286.9,358.3,284.2,362.1,284.2z"/>
			</g>
			<g>
				<path class="st3" d="M449.5,310.9H279c-0.3,0-0.5-0.2-0.5-0.5v-7.1c0-6,4.1-11.1,9.9-12.5c0.9-0.2,1.9-0.3,2.9-0.3h15.6
					c0.2,0,0.5,0.2,0.5,0.4c0,0.3,0.1,0.6,0.1,0.9c0,3.1-2,6-4.9,7.1c-0.2,0.1-0.5,0-0.6-0.2c-0.7-1.3-2.1-2.1-3.6-2.1
					c-2.3,0-4.2,1.9-4.2,4.2c0,2.3,1.9,4.2,4.2,4.2c1.7,0,3.2-1,3.8-2.5c0.1-0.1,0.2-0.2,0.3-0.3c4.8-1.2,8.1-5.5,8.1-10.5
					c0-0.3,0-0.5,0-0.8c0-0.1,0-0.3,0.1-0.4c0.1-0.1,0.2-0.2,0.4-0.2H338c0.2,0,0.5,0.2,0.5,0.4c0,0.3,0.1,0.6,0.1,0.9
					c0,3.3-2.1,6.3-5.3,7.3c-0.2,0.1-0.5,0-0.6-0.2c-0.8-1.4-2.2-2.2-3.7-2.2c-2.3,0-4.2,1.9-4.2,4.2c0,2.3,1.9,4.2,4.2,4.2
					c1.6,0,3.1-0.9,3.8-2.4c0.1-0.1,0.2-0.2,0.4-0.3c5-1,8.7-5.5,8.7-10.6c0-0.3,0-0.5,0-0.8c0-0.1,0-0.3,0.1-0.4
					c0.1-0.1,0.2-0.2,0.4-0.2h26.9c0.2,0,0.5,0.2,0.5,0.4c0,0.3,0.1,0.6,0.1,0.9c0,3.1-2,6-4.9,7.1c-0.2,0.1-0.5,0-0.6-0.2
					c-0.7-1.3-2.1-2.1-3.6-2.1c-2.3,0-4.2,1.9-4.2,4.2c0,2.3,1.9,4.2,4.2,4.2c1.7,0,3.2-1,3.8-2.5c0.1-0.1,0.2-0.2,0.3-0.3
					c4.8-1.2,8.1-5.5,8.1-10.5c0-0.3,0-0.5,0-0.8c0-0.1,0-0.3,0.1-0.4c0.1-0.1,0.2-0.2,0.4-0.2h26.9c0.2,0,0.5,0.2,0.5,0.4
					c0,0.3,0.1,0.6,0.1,0.9c0,3.3-2.1,6.2-5.3,7.3c-0.2,0.1-0.5,0-0.6-0.2c-0.7-1.4-2.2-2.2-3.7-2.2c-2.3,0-4.2,1.9-4.2,4.2
					c0,2.3,1.9,4.2,4.2,4.2c1.6,0,3.1-0.9,3.8-2.4c0.1-0.1,0.2-0.2,0.4-0.3c5-1,8.6-5.5,8.6-10.6c0-0.3,0-0.5,0-0.8
					c0-0.1,0-0.3,0.1-0.4c0.1-0.1,0.2-0.2,0.4-0.2h26.9c0.2,0,0.5,0.2,0.5,0.4c0,0.3,0.1,0.6,0.1,0.9c0,3.3-2.1,6.1-5.1,7.2
					c-0.2,0.1-0.5,0-0.6-0.2c-0.7-1.3-2.1-2.2-3.7-2.2c-2.3,0-4.2,1.9-4.2,4.2c0,2.3,1.9,4.2,4.2,4.2c1.6,0,3.1-1,3.8-2.4
					c0.1-0.1,0.2-0.2,0.3-0.3c4.9-1.1,8.4-5.5,8.4-10.5c0-0.3,0-0.5,0-0.8c0-0.1,0-0.3,0.1-0.4c0.1-0.1,0.2-0.2,0.4-0.2h1.7
					c7.1,0,12.8,5.7,12.8,12.8v7.1C450,310.7,449.8,310.9,449.5,310.9z M279.5,309.9H449v-6.6c0-6.5-5.3-11.8-11.8-11.8h-1.1
					c0,0.1,0,0.2,0,0.3c0,5.4-3.8,10.2-9,11.5c-0.9,1.7-2.7,2.8-4.6,2.8c-2.9,0-5.2-2.3-5.2-5.2c0-2.9,2.3-5.2,5.2-5.2
					c1.8,0,3.4,0.9,4.3,2.3c2.5-1,4.1-3.4,4.1-6.1c0-0.1,0-0.2,0-0.3H405c0,0.1,0,0.2,0,0.3c0,5.5-3.8,10.3-9.2,11.5
					c-0.9,1.7-2.7,2.7-4.6,2.7c-2.9,0-5.2-2.3-5.2-5.2c0-2.9,2.3-5.2,5.2-5.2c1.8,0,3.4,0.9,4.4,2.4c2.6-1,4.2-3.4,4.2-6.2
					c0-0.1,0-0.2,0-0.3h-25.9c0,0.1,0,0.2,0,0.3c0,5.3-3.5,9.9-8.6,11.4c-0.9,1.8-2.7,2.9-4.7,2.9c-2.9,0-5.2-2.3-5.2-5.2
					c0-2.9,2.3-5.2,5.2-5.2c1.7,0,3.3,0.8,4.3,2.2c2.3-1.1,3.9-3.4,3.9-6c0-0.1,0-0.2,0-0.3h-25.9c0,0.1,0,0.2,0,0.3
					c0,5.5-3.9,10.3-9.2,11.5c-0.9,1.7-2.7,2.7-4.6,2.7c-2.9,0-5.2-2.3-5.2-5.2c0-2.9,2.3-5.2,5.2-5.2c1.8,0,3.4,0.9,4.4,2.4
					c2.5-1,4.3-3.5,4.3-6.2c0-0.1,0-0.2,0-0.3h-25.9c0,0.1,0,0.2,0,0.3c0,5.3-3.5,10-8.7,11.4c-0.9,1.7-2.7,2.9-4.7,2.9
					c-2.9,0-5.2-2.3-5.2-5.2c0-2.9,2.3-5.2,5.2-5.2c1.7,0,3.3,0.8,4.3,2.2c2.3-1.1,3.9-3.4,3.9-6c0-0.1,0-0.2,0-0.3h-15.1
					c-0.9,0-1.8,0.1-2.6,0.3c-5.4,1.2-9.2,6-9.2,11.5V309.9z"/>
			</g>
		</g>
		<g>
			<path class="st3" d="M298.3,306.1c-2.9,0-5.2-2.3-5.2-5.2c0-2.9,2.3-5.2,5.2-5.2c1.8,0,3.6,1,4.5,2.6c0.1,0.1,0.1,0.3,0,0.4
				c0,0.1-0.2,0.2-0.3,0.3c-0.9,0.3-1.8,0.5-2.7,0.5c-0.9,0-1.6,0.7-1.6,1.6c0,0.9,0.7,1.6,1.6,1.6c0.9,0,1.8-0.1,2.7-0.3
				c0.2,0,0.4,0,0.5,0.2c0.1,0.1,0.2,0.3,0.1,0.5C302.2,304.9,300.4,306.1,298.3,306.1z M298.3,296.7c-2.3,0-4.2,1.9-4.2,4.2
				c0,2.3,1.9,4.2,4.2,4.2c1.3,0,2.5-0.6,3.3-1.6c-0.6,0.1-1.2,0.1-1.8,0.1c-1.4,0-2.6-1.2-2.6-2.6c0-1.4,1.2-2.6,2.6-2.6
				c0.6,0,1.2-0.1,1.8-0.2C300.8,297.3,299.6,296.7,298.3,296.7z"/>
		</g>
		<g>
			<path class="st3" d="M328.9,306.1c-2.9,0-5.2-2.3-5.2-5.2c0-2.9,2.3-5.2,5.2-5.2c1.9,0,3.7,1,4.6,2.7c0.1,0.1,0.1,0.3,0,0.4
				c-0.1,0.1-0.2,0.2-0.3,0.3c-0.8,0.2-1.5,0.4-2.3,0.4c-0.9,0-1.6,0.7-1.6,1.6c0,0.9,0.7,1.6,1.6,1.6c0.7,0,1.5-0.1,2.1-0.2
				c0.2,0,0.4,0,0.5,0.2c0.1,0.1,0.1,0.4,0.1,0.5C332.8,305,330.9,306.1,328.9,306.1z M328.9,296.7c-2.3,0-4.2,1.9-4.2,4.2
				c0,2.3,1.9,4.2,4.2,4.2c1.3,0,2.5-0.6,3.2-1.5c-0.4,0-0.8,0.1-1.2,0.1c-1.4,0-2.6-1.2-2.6-2.6c0-1.4,1.2-2.6,2.6-2.6
				c0.5,0,0.9,0,1.4-0.1C331.5,297.3,330.3,296.7,328.9,296.7z"/>
		</g>
		<g>
			<path class="st3" d="M330.9,303.7c-1.4,0-2.6-1.2-2.6-2.6c0-1.4,1.2-2.6,2.6-2.6c0.7,0,1.4-0.1,2-0.3c2.7-0.9,4.6-3.5,4.6-6.3
				c0-0.3,0-0.5,0-0.8c-0.4-3.4-3.2-5.9-6.6-5.9c-3.4,0-6.2,2.5-6.6,5.9c0,0.3-0.2,0.4-0.5,0.4h-4.2c-0.1,0-0.3-0.1-0.4-0.2
				c-0.1-0.1-0.1-0.2-0.1-0.4c0.4-6.1,5.6-10.9,11.8-10.9s11.3,4.8,11.8,10.9c0,0.3,0,0.6,0,0.9c0,5.6-4,10.5-9.5,11.6
				C332.6,303.6,331.8,303.7,330.9,303.7z M330.9,284.2c3.9,0,7.1,2.9,7.6,6.7c0,0.3,0.1,0.6,0.1,0.9c0,3.3-2.1,6.3-5.3,7.3
				c-0.8,0.2-1.5,0.4-2.3,0.4c-0.9,0-1.6,0.7-1.6,1.6c0,0.9,0.7,1.6,1.6,1.6c0.7,0,1.5-0.1,2.1-0.2c5-1,8.7-5.5,8.7-10.6
				c0-0.3,0-0.5,0-0.8c-0.4-5.6-5.1-10-10.8-10c-5.5,0-10.1,4.1-10.7,9.5h3.2C324.1,286.9,327.2,284.2,330.9,284.2z"/>
		</g>
		<g>
			<path class="st3" d="M360.6,306.1c-2.9,0-5.2-2.3-5.2-5.2c0-2.9,2.3-5.2,5.2-5.2c1.8,0,3.6,1,4.5,2.6c0.1,0.1,0.1,0.3,0,0.4
				c0,0.1-0.2,0.2-0.3,0.3c-0.9,0.3-1.8,0.5-2.8,0.5c-0.9,0-1.6,0.7-1.6,1.6c0,0.9,0.7,1.6,1.6,1.6c0.9,0,1.8-0.1,2.7-0.3
				c0.2,0,0.4,0,0.5,0.2c0.1,0.1,0.2,0.3,0.1,0.5C364.5,304.9,362.6,306.1,360.6,306.1z M360.6,296.7c-2.3,0-4.2,1.9-4.2,4.2
				c0,2.3,1.9,4.2,4.2,4.2c1.3,0,2.5-0.6,3.3-1.6c-0.6,0.1-1.2,0.1-1.8,0.1c-1.4,0-2.6-1.2-2.6-2.6c0-1.4,1.2-2.6,2.6-2.6
				c0.6,0,1.2-0.1,1.8-0.2C363.1,297.3,361.9,296.7,360.6,296.7z"/>
		</g>
		<g>
			<path class="st3" d="M391.2,306.1c-2.9,0-5.2-2.3-5.2-5.2c0-2.9,2.3-5.2,5.2-5.2c1.9,0,3.7,1,4.6,2.7c0,0.1,0.1,0.2,0.1,0.2
				c0,0.2-0.1,0.4-0.3,0.5c-0.8,0.2-1.5,0.4-2.3,0.4c-0.9,0-1.6,0.7-1.6,1.6c0,0.9,0.7,1.6,1.6,1.6c0.7,0,1.4-0.1,2.2-0.2
				c0.2,0,0.4,0,0.5,0.2c0.1,0.1,0.1,0.4,0.1,0.5C395,305,393.2,306.1,391.2,306.1z M391.2,296.7c-2.3,0-4.2,1.9-4.2,4.2
				c0,2.3,1.9,4.2,4.2,4.2c1.3,0,2.5-0.6,3.2-1.5c-0.4,0-0.9,0.1-1.3,0.1c-1.4,0-2.6-1.2-2.6-2.6c0-1.4,1.2-2.6,2.6-2.6
				c0.5,0,0.9,0,1.4-0.1C393.8,297.3,392.5,296.7,391.2,296.7z"/>
		</g>
		<g>
			<path class="st3" d="M393.2,303.7c-1.4,0-2.6-1.2-2.6-2.6c0-1.4,1.2-2.6,2.6-2.6c0.6,0,1.3-0.1,1.9-0.3c0,0,0.1,0,0.1,0
				c2.8-0.9,4.6-3.4,4.6-6.3c0-0.3,0-0.5,0-0.8c-0.4-3.4-3.2-5.9-6.6-5.9c-3.4,0-6.2,2.5-6.6,5.9c0,0.3-0.2,0.4-0.5,0.4h-4.2
				c-0.1,0-0.3-0.1-0.4-0.2c-0.1-0.1-0.1-0.2-0.1-0.4c0.4-6.1,5.6-10.9,11.8-10.9c6.2,0,11.3,4.8,11.8,10.9c0,0.3,0,0.6,0,0.9
				c0,5.6-4,10.4-9.4,11.6C394.7,303.6,393.9,303.7,393.2,303.7z M395.6,299.1C395.5,299.1,395.5,299.1,395.6,299.1
				c-0.9,0.3-1.6,0.4-2.4,0.4c-0.9,0-1.6,0.7-1.6,1.6c0,0.9,0.7,1.6,1.6,1.6c0.7,0,1.4-0.1,2.2-0.2c5-1,8.6-5.5,8.6-10.6
				c0-0.3,0-0.5,0-0.8c-0.4-5.6-5.1-10-10.8-10c-5.5,0-10.1,4.1-10.7,9.5h3.2c0.6-3.6,3.8-6.3,7.5-6.3c3.9,0,7.1,2.9,7.6,6.7
				c0,0.3,0.1,0.6,0.1,0.9C400.8,295.2,398.7,298.1,395.6,299.1z"/>
		</g>
		<g>
			<path class="st3" d="M424.3,303.7c-1.4,0-2.6-1.2-2.6-2.6c0-1.4,1.2-2.6,2.6-2.6c0.8,0,1.5-0.1,2.2-0.4c2.7-0.9,4.5-3.4,4.5-6.3
				c0-0.3,0-0.5,0-0.8c-0.4-3.4-3.2-5.9-6.6-5.9c-3.4,0-6.2,2.5-6.6,5.9c0,0.3-0.2,0.4-0.5,0.4H413c-0.1,0-0.3-0.1-0.4-0.2
				c-0.1-0.1-0.1-0.2-0.1-0.4c0.4-6.1,5.6-10.9,11.8-10.9c6.2,0,11.3,4.8,11.8,10.9c0,0.3,0,0.6,0,0.9c0,5.5-3.9,10.3-9.2,11.5
				C426,303.6,425.1,303.7,424.3,303.7z M424.3,284.2c3.9,0,7.1,2.9,7.6,6.7c0,0.3,0.1,0.6,0.1,0.9c0,3.3-2.1,6.1-5.1,7.2
				c-0.8,0.3-1.6,0.4-2.5,0.4c-0.9,0-1.6,0.7-1.6,1.6c0,0.9,0.7,1.6,1.6,1.6c0.8,0,1.6-0.1,2.4-0.3c4.9-1.1,8.4-5.5,8.4-10.5
				c0-0.3,0-0.5,0-0.8c-0.4-5.6-5.1-10-10.8-10c-5.5,0-10.1,4.1-10.7,9.5h3.2C417.4,286.9,420.6,284.2,424.3,284.2z"/>
		</g>
		<g>
			<path class="st3" d="M422.5,306.1c-2.9,0-5.2-2.3-5.2-5.2c0-2.9,2.3-5.2,5.2-5.2c1.9,0,3.6,1,4.6,2.7c0.1,0.1,0.1,0.3,0,0.4
				c-0.1,0.1-0.2,0.2-0.3,0.3c-0.8,0.3-1.6,0.4-2.5,0.4c-0.9,0-1.6,0.7-1.6,1.6c0,0.9,0.7,1.6,1.6,1.6c0.8,0,1.6-0.1,2.4-0.3
				c0.2,0,0.4,0,0.5,0.2c0.1,0.1,0.1,0.4,0.1,0.5C426.4,304.9,424.5,306.1,422.5,306.1z M422.5,296.7c-2.3,0-4.2,1.9-4.2,4.2
				c0,2.3,1.9,4.2,4.2,4.2c1.3,0,2.5-0.6,3.3-1.5c-0.5,0.1-1,0.1-1.5,0.1c-1.4,0-2.6-1.2-2.6-2.6c0-1.4,1.2-2.6,2.6-2.6
				c0.5,0,1.1-0.1,1.5-0.2C425,297.3,423.8,296.7,422.5,296.7z"/>
		</g>
		<g>
			<path class="st3" d="M307.3,336.3h-19.9c-0.3,0-0.5-0.2-0.5-0.5v-19.9c0-0.3,0.2-0.5,0.5-0.5h19.9c0.3,0,0.5,0.2,0.5,0.5v19.9
				C307.8,336.1,307.6,336.3,307.3,336.3z M287.9,335.3h18.9v-18.9h-18.9V335.3z"/>
		</g>
		<g>
			<path class="st3" d="M334.3,336.3h-19.9c-0.3,0-0.5-0.2-0.5-0.5v-19.9c0-0.3,0.2-0.5,0.5-0.5h19.9c0.3,0,0.5,0.2,0.5,0.5v19.9
				C334.8,336.1,334.6,336.3,334.3,336.3z M314.9,335.3h18.9v-18.9h-18.9V335.3z"/>
		</g>
		<g>
			<path class="st3" d="M361.3,336.3h-19.9c-0.3,0-0.5-0.2-0.5-0.5v-19.9c0-0.3,0.2-0.5,0.5-0.5h19.9c0.3,0,0.5,0.2,0.5,0.5v19.9
				C361.8,336.1,361.6,336.3,361.3,336.3z M341.9,335.3h18.9v-18.9h-18.9V335.3z"/>
		</g>
		<g>
			<path class="st3" d="M388.3,336.3h-19.9c-0.3,0-0.5-0.2-0.5-0.5v-19.9c0-0.3,0.2-0.5,0.5-0.5h19.9c0.3,0,0.5,0.2,0.5,0.5v19.9
				C388.8,336.1,388.6,336.3,388.3,336.3z M368.9,335.3h18.9v-18.9h-18.9V335.3z"/>
		</g>
		<g>
			<path class="st3" d="M415.3,336.3h-19.9c-0.3,0-0.5-0.2-0.5-0.5v-19.9c0-0.3,0.2-0.5,0.5-0.5h19.9c0.3,0,0.5,0.2,0.5,0.5v19.9
				C415.8,336.1,415.6,336.3,415.3,336.3z M395.9,335.3h18.9v-18.9h-18.9V335.3z"/>
		</g>
		<rect x="422.4" y="315.9" class="st1" width="19.9" height="19.9"/>
		<g>
			<path class="st3" d="M442.4,336.3h-19.9c-0.3,0-0.5-0.2-0.5-0.5v-19.9c0-0.3,0.2-0.5,0.5-0.5h19.9c0.3,0,0.5,0.2,0.5,0.5v19.9
				C442.9,336.1,442.6,336.3,442.4,336.3z M422.9,335.3h18.9v-18.9h-18.9V335.3z"/>
		</g>
		<g>
			<path class="st3" d="M307.3,361h-19.9c-0.3,0-0.5-0.2-0.5-0.5v-19.9c0-0.3,0.2-0.5,0.5-0.5h19.9c0.3,0,0.5,0.2,0.5,0.5v19.9
				C307.8,360.7,307.6,361,307.3,361z M287.9,360h18.9v-18.9h-18.9V360z"/>
		</g>
		<g>
			<path class="st3" d="M334.3,361h-19.9c-0.3,0-0.5-0.2-0.5-0.5v-19.9c0-0.3,0.2-0.5,0.5-0.5h19.9c0.3,0,0.5,0.2,0.5,0.5v19.9
				C334.8,360.7,334.6,361,334.3,361z M314.9,360h18.9v-18.9h-18.9V360z"/>
		</g>
		<g>
			<path class="st3" d="M361.3,361h-19.9c-0.3,0-0.5-0.2-0.5-0.5v-19.9c0-0.3,0.2-0.5,0.5-0.5h19.9c0.3,0,0.5,0.2,0.5,0.5v19.9
				C361.8,360.7,361.6,361,361.3,361z M341.9,360h18.9v-18.9h-18.9V360z"/>
		</g>
		<g>
			<path class="st3" d="M388.3,361h-19.9c-0.3,0-0.5-0.2-0.5-0.5v-19.9c0-0.3,0.2-0.5,0.5-0.5h19.9c0.3,0,0.5,0.2,0.5,0.5v19.9
				C388.8,360.7,388.6,361,388.3,361z M368.9,360h18.9v-18.9h-18.9V360z"/>
		</g>
		<g>
			<path class="st3" d="M415.3,361h-19.9c-0.3,0-0.5-0.2-0.5-0.5v-19.9c0-0.3,0.2-0.5,0.5-0.5h19.9c0.3,0,0.5,0.2,0.5,0.5v19.9
				C415.8,360.7,415.6,361,415.3,361z M395.9,360h18.9v-18.9h-18.9V360z"/>
		</g>
		<g>
			<path class="st3" d="M442.4,361h-19.9c-0.3,0-0.5-0.2-0.5-0.5v-19.9c0-0.3,0.2-0.5,0.5-0.5h19.9c0.3,0,0.5,0.2,0.5,0.5v19.9
				C442.9,360.7,442.6,361,442.4,361z M422.9,360h18.9v-18.9h-18.9V360z"/>
		</g>
		<g>
			<path class="st3" d="M307.3,385.3h-19.9c-0.3,0-0.5-0.2-0.5-0.5v-19.9c0-0.3,0.2-0.5,0.5-0.5h19.9c0.3,0,0.5,0.2,0.5,0.5v19.9
				C307.8,385.1,307.6,385.3,307.3,385.3z M287.9,384.3h18.9v-18.9h-18.9V384.3z"/>
		</g>
		<g>
			<path class="st3" d="M334.3,385.3h-19.9c-0.3,0-0.5-0.2-0.5-0.5v-19.9c0-0.3,0.2-0.5,0.5-0.5h19.9c0.3,0,0.5,0.2,0.5,0.5v19.9
				C334.8,385.1,334.6,385.3,334.3,385.3z M314.9,384.3h18.9v-18.9h-18.9V384.3z"/>
		</g>
		<g>
			<path class="st3" d="M361.3,385.3h-19.9c-0.3,0-0.5-0.2-0.5-0.5v-19.9c0-0.3,0.2-0.5,0.5-0.5h19.9c0.3,0,0.5,0.2,0.5,0.5v19.9
				C361.8,385.1,361.6,385.3,361.3,385.3z M341.9,384.3h18.9v-18.9h-18.9V384.3z"/>
		</g>
		<g>
			<path class="st3" d="M388.3,385.3h-19.9c-0.3,0-0.5-0.2-0.5-0.5v-19.9c0-0.3,0.2-0.5,0.5-0.5h19.9c0.3,0,0.5,0.2,0.5,0.5v19.9
				C388.8,385.1,388.6,385.3,388.3,385.3z M368.9,384.3h18.9v-18.9h-18.9V384.3z"/>
		</g>
		<g>
			<path class="st3" d="M415.3,385.3h-19.9c-0.3,0-0.5-0.2-0.5-0.5v-19.9c0-0.3,0.2-0.5,0.5-0.5h19.9c0.3,0,0.5,0.2,0.5,0.5v19.9
				C415.8,385.1,415.6,385.3,415.3,385.3z M395.9,384.3h18.9v-18.9h-18.9V384.3z"/>
		</g>
		<g>
			<path class="st3" d="M442.4,385.3h-19.9c-0.3,0-0.5-0.2-0.5-0.5v-19.9c0-0.3,0.2-0.5,0.5-0.5h19.9c0.3,0,0.5,0.2,0.5,0.5v19.9
				C442.9,385.1,442.6,385.3,442.4,385.3z M422.9,384.3h18.9v-18.9h-18.9V384.3z"/>
		</g>
		<g>
			<path class="st3" d="M307.3,409.9h-19.9c-0.3,0-0.5-0.2-0.5-0.5v-19.9c0-0.3,0.2-0.5,0.5-0.5h19.9c0.3,0,0.5,0.2,0.5,0.5v19.9
				C307.8,409.7,307.6,409.9,307.3,409.9z M287.9,408.9h18.9V390h-18.9V408.9z"/>
		</g>
		<g>
			<path class="st3" d="M334.3,409.9h-19.9c-0.3,0-0.5-0.2-0.5-0.5v-19.9c0-0.3,0.2-0.5,0.5-0.5h19.9c0.3,0,0.5,0.2,0.5,0.5v19.9
				C334.8,409.7,334.6,409.9,334.3,409.9z M314.9,408.9h18.9V390h-18.9V408.9z"/>
		</g>
		<g>
			<path class="st3" d="M361.3,409.9h-19.9c-0.3,0-0.5-0.2-0.5-0.5v-19.9c0-0.3,0.2-0.5,0.5-0.5h19.9c0.3,0,0.5,0.2,0.5,0.5v19.9
				C361.8,409.7,361.6,409.9,361.3,409.9z M341.9,408.9h18.9V390h-18.9V408.9z"/>
		</g>
	</g>
	<ellipse class="st4" cx="254.9" cy="444.7" rx="201.8" ry="21.9"/>
	<g>
		<g>
			<path class="st1" d="M97.2,425.3c-1.8,3.9-1.1,8.3,1.4,11.5c-4.4-1.2-8.7-3-12.9-5.4c-4.9-2.8-6.7-8.9-4.4-14.1
				c2.9-6.4,5.8-12.8,8.6-19.2c0.2-0.5,0.5-1,0.8-1.4c3.7,4.1,7.9,7.7,12.5,11c0.8,0.6,1.1,1.6,0.7,2.5
				C101.8,415.2,99.5,420.3,97.2,425.3z"/>
		</g>
		<g>
			<path class="st1" d="M209.8,438c-1.6,0.2-3.3,0.3-4.9,0.4c-5.6,0.2-10.4-4-11.1-9.6c-0.2-1.3-0.3-2.6-0.5-3.9
				c4.1-0.7,8.1-1.6,12-2.8c1.2-0.3,2.5,0.4,2.6,1.7c0.6,4.3,1.2,8.6,1.7,12.9C209.6,437.2,209.7,437.6,209.8,438z"/>
		</g>
		<path class="st3" d="M137.4,293.7c0,0-9.9,3.7-24.3,4.8l-2.1-13.3l-4.1-25.9c-0.1-0.6-0.1-1.2,0-1.8l18,21.3L137.4,293.7z"/>
		<path class="st1" d="M249.6,425.3c2.3,5.1,0.5,11.2-4.4,14.1c-7.7,4.5-15.7,6.8-24.6,7.1c-5.2,0.2-9.7-3.4-10.9-8.3
			c-0.1-0.4-0.2-0.9-0.2-1.3c-0.5-4.3-1.1-8.6-1.7-12.9c-0.2-1.3-1.4-2-2.6-1.7c-3.9,1.1-7.9,2-12,2.8c-17,3.1-35.1,2.7-51.9-1
			c-1.2-0.3-2.3,0.5-2.5,1.7c-0.5,3.7-1,7.4-1.5,11.1c-0.7,5.6-5.5,9.8-11.1,9.6c-8.9-0.2-16.9-2.5-24.6-7.1c-1.2-0.7-2.2-1.6-3-2.6
			c-2.6-3.2-3.2-7.6-1.4-11.5c2.3-5,4.6-10,6.8-15c0.4-0.9,0.1-2-0.7-2.5c-4.6-3.2-8.8-6.9-12.5-11c-3.1-3.4-5.9-7.1-8.3-11.1
			c-2.7-4.5-7.7-7.2-13-6.9l-4.2,0.2c-9.9,0.4-18.1-7.5-18.1-17.4v-17.3c0-9.9,8.2-17.8,18.1-17.4c0.2,0,0.4,0,0.6,0
			c5.6,0,10.7-3.3,13.2-8.5c6.7-14.3,18-25.4,32-33.2l2.1,13.3c14.4-1,24.3-4.8,24.3-4.8l-12.6-15l-17.9-21.3
			c0.3-2.9,2.5-5.3,5.6-5.7c11-1.6,33.5-1.9,46.9,19.5c34.2-2.7,70.1,7.7,90.6,31.2c1.7,2,3.4,4.1,4.9,6.2
			c7.7,11,12.2,24.5,12.2,40.3c-0.1,23.6-10,41.8-25.5,54.7c-0.7,0.6-0.9,1.6-0.5,2.5c0,0,0,0,0,0
			C243.8,412.5,246.7,418.9,249.6,425.3z"/>
		<g>
			<g>
				<path class="st3" d="M98.6,437.3c0,0-0.1,0-0.1,0c-4.5-1.2-8.8-3-13-5.5c-5.1-3-7.1-9.3-4.6-14.7c2.7-5.8,5.5-12.1,8.6-19.2
					c0.3-0.6,0.5-1.1,0.8-1.5c0.1-0.1,0.2-0.2,0.4-0.2c0.2,0,0.3,0,0.4,0.2c3.6,3.9,7.8,7.6,12.4,10.9c1,0.7,1.4,2,0.9,3.2
					c-2.6,5.7-4.7,10.5-6.8,15.1l0,0c-1.7,3.6-1.1,7.9,1.3,11c0.1,0.2,0.1,0.4,0,0.6C98.9,437.2,98.8,437.3,98.6,437.3z M90.9,397.5
					c-0.1,0.3-0.3,0.5-0.4,0.8c-3.1,7.1-6,13.4-8.6,19.2c-2.3,4.9-0.5,10.7,4.2,13.4c3.7,2.2,7.5,3.8,11.4,5
					c-2-3.2-2.3-7.3-0.6-10.9l0,0c2.1-4.5,4.3-9.3,6.8-15c0.3-0.7,0.1-1.5-0.5-1.9C98.5,404.9,94.4,401.3,90.9,397.5z"/>
			</g>
		</g>
		<g>
			<g>
				<path class="st3" d="M204.5,438.9c-5.7,0-10.6-4.3-11.3-10.1c-0.2-1.3-0.3-2.6-0.5-3.9c0-0.3,0.1-0.5,0.4-0.6
					c4.1-0.7,8.2-1.7,12-2.7c0.7-0.2,1.5-0.1,2.1,0.3c0.6,0.4,1,1.1,1.1,1.8c0.5,3.5,1.1,8.2,1.7,12.9c0.1,0.4,0.1,0.8,0.2,1.2
					c0,0.1,0,0.3-0.1,0.4c-0.1,0.1-0.2,0.2-0.4,0.2c-1.7,0.2-3.3,0.3-5,0.4C204.7,438.9,204.6,438.9,204.5,438.9z M193.7,425.4
					c0.1,1.1,0.3,2.3,0.4,3.4c0.7,5.4,5.3,9.4,10.6,9.2c1.4,0,2.9-0.1,4.3-0.3c-0.1-0.3-0.1-0.5-0.1-0.8c-0.6-4.7-1.2-9.3-1.7-12.9
					c-0.1-0.5-0.3-0.8-0.7-1.1c-0.4-0.3-0.9-0.3-1.3-0.2C201.6,423.7,197.7,424.6,193.7,425.4z"/>
			</g>
		</g>
		<ellipse class="st3" cx="114.5" cy="331.5" rx="7.8" ry="9.6"/>
		<g>
			<path class="st3" d="M113.1,298.9c-0.2,0-0.5-0.2-0.5-0.4l-6.3-39.2c-0.1-0.6-0.1-1.3,0-1.9c0-0.2,0.2-0.4,0.4-0.4
				c0.2-0.1,0.4,0,0.5,0.2l30.6,36.3c0.1,0.1,0.1,0.3,0.1,0.4c0,0.2-0.2,0.3-0.3,0.3C137.5,294.2,127.5,297.9,113.1,298.9
				C113.2,298.9,113.2,298.9,113.1,298.9z M107.3,258.7c0,0.1,0,0.3,0,0.4l6.2,38.8c11.8-0.9,20.6-3.6,23-4.5L107.3,258.7z"/>
		</g>
		<g>
			<path class="st3" d="M126.5,446.9c-0.1,0-0.2,0-0.3,0c-9-0.3-17.1-2.6-24.8-7.1c-1.2-0.7-2.2-1.6-3.1-2.7
				c-2.7-3.4-3.3-8.1-1.5-12c2.1-4.5,4.3-9.3,6.8-15c0.3-0.7,0.1-1.5-0.5-1.9c-4.7-3.3-9-7-12.6-11c-3.2-3.5-6-7.2-8.4-11.1
				c-2.6-4.4-7.4-6.9-12.5-6.7l-4.2,0.2c-4.9,0.2-9.6-1.6-13.1-5c-3.5-3.4-5.5-8-5.5-12.9v-17.3c0-4.9,2-9.5,5.5-12.9
				c3.6-3.4,8.2-5.2,13.1-5c0.2,0,0.4,0,0.6,0c5.4,0,10.4-3.2,12.7-8.2c6.4-13.6,17.5-25.2,32.2-33.5c0.1-0.1,0.3-0.1,0.5,0
				c0.1,0.1,0.3,0.2,0.3,0.4l2,12.8c11.8-0.9,20.6-3.6,23-4.5l-30.1-35.7c-0.1-0.1-0.1-0.2-0.1-0.4c0.4-3.2,2.8-5.7,6-6.2
				c11.9-1.8,33.9-1.6,47.2,19.4c33.2-2.5,65.1,7.1,85.2,25.7c14.8,13.7,22.7,31.9,22.7,52.6c-0.1,22.1-8.9,41.1-25.6,55.1
				c-0.5,0.5-0.7,1.2-0.4,1.9c0,0,0,0,0,0h0c3.1,7,5.9,13.2,8.6,19.2c2.5,5.4,0.5,11.7-4.6,14.7c-7.8,4.5-15.9,6.9-24.8,7.1
				c-5.3,0.2-10.1-3.5-11.4-8.7c-0.1-0.5-0.2-0.9-0.3-1.3c-0.6-4.7-1.2-9.3-1.7-12.9c-0.1-0.5-0.3-0.8-0.7-1.1
				c-0.4-0.3-0.9-0.3-1.3-0.2c-3.8,1.1-7.9,2-12,2.8c-17.2,3.1-35.2,2.7-52.1-1c-0.4-0.1-0.9,0-1.3,0.2c-0.4,0.2-0.6,0.6-0.7,1.1
				c-0.5,3.7-1,7.4-1.5,11.1C137,442.6,132.2,446.9,126.5,446.9z M70.1,378.2c5.2,0,10.1,2.7,12.8,7.2c2.3,3.9,5.1,7.6,8.3,11
				c3.6,3.9,7.8,7.6,12.4,10.9c1,0.7,1.4,2,0.9,3.2c-2.6,5.7-4.7,10.5-6.8,15.1c-1.7,3.6-1.1,7.9,1.3,11c0.8,1,1.7,1.8,2.8,2.4
				c7.6,4.4,15.6,6.7,24.4,7c5.4,0.2,9.9-3.8,10.6-9.2c0.5-3.7,1-7.4,1.5-11.1c0.1-0.7,0.5-1.3,1.1-1.7c0.6-0.4,1.3-0.6,2-0.4
				c16.8,3.7,34.7,4.1,51.7,1c4.1-0.7,8.2-1.7,12-2.7c0.7-0.2,1.5-0.1,2.1,0.3c0.6,0.4,1,1.1,1.1,1.8c0.5,3.5,1.1,8.2,1.7,12.9
				c0.1,0.4,0.1,0.8,0.2,1.2c1.2,4.7,5.6,8.1,10.4,7.9c8.8-0.3,16.7-2.5,24.3-7c4.6-2.7,6.4-8.5,4.2-13.4l0,0
				c-2.7-5.9-5.5-12.2-8.6-19.1c0,0,0,0,0,0c-0.5-1.1-0.2-2.3,0.7-3.1c16.5-13.8,25.2-32.6,25.3-54.4c0-20.4-7.8-38.4-22.4-51.9
				c-20-18.5-51.7-27.9-84.7-25.4c-0.2,0-0.4-0.1-0.5-0.2c-13-20.8-34.6-21-46.4-19.2c-2.6,0.4-4.7,2.5-5.1,5.1l30.4,36.1
				c0.1,0.1,0.1,0.3,0.1,0.4c0,0.2-0.2,0.3-0.3,0.3c-0.1,0-10.1,3.8-24.4,4.8c-0.2,0-0.5-0.2-0.5-0.4l-2-12.6
				c-14.2,8.2-24.9,19.4-31.1,32.7c-2.5,5.3-7.8,8.8-13.6,8.8c-0.2,0-0.4,0-0.6,0c-4.6-0.2-9,1.5-12.4,4.7
				c-3.4,3.2-5.2,7.5-5.2,12.2v17.3c0,4.6,1.8,9,5.2,12.2c3.4,3.2,7.7,4.9,12.4,4.7l4.2-0.2C69.7,378.2,69.9,378.2,70.1,378.2z"/>
		</g>
		<g>
			<path class="st3" d="M61.8,373.1c-0.1,0-0.1,0-0.2,0c-0.3-0.1-0.4-0.4-0.3-0.6c7.9-20.4,0.1-39.5,0-39.7c-0.1-0.3,0-0.5,0.3-0.7
				c0.3-0.1,0.5,0,0.7,0.3c0.1,0.2,8,19.7,0,40.5C62.2,373,62,373.1,61.8,373.1z"/>
		</g>
		<path class="st3" d="M58.8,352.6c0,4-1.3,7.3-2.8,7.3c-1.6,0-2.8-3.2-2.8-7.3c0-4,1.3-7.3,2.8-7.3
			C57.5,345.3,58.8,348.5,58.8,352.6z"/>
		<g>
			<path class="st3" d="M223.3,289.4c-0.7,1.3-2,2.1-3.4,2.1c-0.6,0-1.1-0.1-1.7-0.4c-21.6-10.8-50.3-10.9-55.4-10.9
				c-0.8-2.4-1.9-5.3-2.7-7.1c0.5-0.3,1-0.4,1.6-0.4c1.4,0,34.4-1.1,59.9,11.7C223.5,285.3,224.2,287.5,223.3,289.4z"/>
		</g>
		<g>
			<path class="st3" d="M163.1,283c-0.3,0-0.5-0.2-0.5-0.5c-0.1-3-3.8-11.1-3.8-11.1c-0.1-0.3,0-0.5,0.2-0.7c0.3-0.1,0.5,0,0.7,0.2
				c0.2,0.3,3.8,8.4,3.9,11.5C163.7,282.7,163.4,283,163.1,283C163.2,283,163.1,283,163.1,283z"/>
		</g>
		<path class="st3" d="M268.3,277c-2.2-3.5-6.2-5.7-10.2-5.5c4,0.2,7.6,2.7,9.2,6c1.7,3.4,1.2,7.6-0.8,10.5c-0.7,1.1-1.7,2-2.9,2.6
			c-0.9-3.5-3-6.6-6.5-8.1c-6.9-2.6-11.9,5.3-6.6,10.4c2.2,1.8,4.9,2.6,7.5,2.4c-0.8,4-4.4,6.8-8.2,7.1c1.7,2,3.4,4.1,4.9,6.2
			c3-1.3,5.6-3.4,7.3-6.5c1.5-2.6,2.1-5.7,1.9-8.6c1.7-1,3.2-2.5,4.2-4.3C270.5,285.3,270.4,280.5,268.3,277z M253.2,290.1
			c-0.8-0.8-1-2.2-0.4-3c2-1.6,4.1,0.7,4.9,2.9c0.2,0.7,0.4,1.4,0.5,2C256.3,292,254.5,291.4,253.2,290.1z"/>
		<path class="st2" d="M251.3,315.7c-3.7-5.9-13-0.5-9.3,5.4c11.1,17.7,10.2,39.2-2,56.2c-4.1,5.6,5.3,11,9.3,5.4
			C263.5,362.9,264.2,336.4,251.3,315.7z"/>
	</g>
	<g>
		<path class="st1" d="M421.6,407.3L431,433l-46.3,17l-33.2,0c0-11.1,11.2-18.1,22.1-22.2l0,0c7.2-4.9,13.5-7.9,13.5-7.9
			L421.6,407.3z"/>
		<polygon class="st5" points="417.3,398 421.6,407.3 387.1,420 384.8,415.2 		"/>
		<path class="st5" d="M336.2,68.9c3.7,0.6,6.5,3.7,6.5,7.5c0,4.2-3.4,7.6-7.6,7.6c-0.6,0-1.1-0.1-1.7-0.2v19.7v2
			c0,0-5.7,5.4-15.4,5.4c-3.7,0-6.4-0.8-8.5-1.7c-0.9-0.7-1.8-1.3-2.8-1.8c-1.2-1-1.7-1.8-1.7-1.8l4.2-2l9.9-4.8h-9.9
			c-0.7,0-1.3,0-2-0.1c-6.9-1-12.3-7-12.3-14.1V58.5v-0.3H324c0,11.4,3.7,16,3.7,16c0.8-2.6,2.9-4.7,5.6-5.3
			c0.5-0.1,1.1-0.2,1.7-0.2C335.4,68.8,335.8,68.8,336.2,68.9z"/>
		<path class="st3" d="M327.7,74.3c0,0-3.7-4.6-3.7-16h-29.1v0.3c-0.2,0-0.3,0-0.5,0c-3.9,0-7.1-3.2-7.1-7.1c0-3,1.9-5.6,4.5-6.7
			c0.2-0.1,0.5-0.2,0.7-0.2c0-0.3-0.1-0.7-0.1-1c0-0.1,0-0.2,0-0.3c0.2-5.5,4.6-9.9,10.1-9.9c5.6,0,10.1,4.5,10.1,10.1
			c0,0.4,0,0.8-0.1,1.2l14.7,2.7c4.9,0.9,8.5,5.2,8.6,10.2l0.2,11.2c-0.4-0.1-0.8-0.1-1.2-0.1c-0.6,0-1.1,0.1-1.7,0.2
			C330.7,69.6,328.5,71.6,327.7,74.3z"/>
		<path class="st3" d="M417.3,398l-32.6,17.2l-7.1,3.8L324,317.4c-1.4-2.7-2.3-5.6-2.7-8.7l-1.5-12.9l-9.4-79.2
			c3,0.1,6.3,0.2,9.7,0.2c3,0,5.8-0.1,8.4-0.3c15.1-1,25.3-4.5,30.9-7.1l10.5,88.8l51.5,97.4L417.3,398z"/>
		<path class="st3" d="M279.2,212c4.7,1.5,14.9,3.9,31.2,4.7l9.4,79.2l-14.1,127l-1.9-0.2l-36.8-4.1l-10.6-1.2L279.2,212z"/>
		<path class="st3" d="M309.2,98.7h9.9l-9.9,4.8l-4.2,2l0.6-2l1.5-4.8l0-0.1C307.8,98.6,308.5,98.7,309.2,98.7z"/>
		<polygon class="st2" points="303.8,422.6 303.7,422.7 267,422.7 267,418.5 		"/>
		<path class="st1" d="M303.7,422.7V450h-82.7c0-23.3,45.9-27.3,45.9-27.3H303.7z"/>
		<path class="st1" d="M364.8,206.7c0,0-1.7,1.2-5.3,2.9c-5.6,2.6-15.8,6.1-30.9,7.1c-2.7,0.2-5.5,0.3-8.4,0.3
			c-3.5,0-6.7-0.1-9.7-0.2c-16.4-0.7-26.5-3.2-31.2-4.7c-2.1-0.6-3.1-1.1-3.1-1.1l0.7-4.6l0.8-5.7l2.3-16l0.8-5.7l0.8-5.9v-2.2
			l-14.2-7.9l-0.6-0.3l-0.5,0.3l-4.3,2.8c-0.1,0-0.2,0.1-0.2,0.1c-0.3,0.2-0.7,0.4-1,0.6c0,0,0,0,0,0c-0.8,0.4-1.5,0.7-2.3,1
			c-0.3,0.1-0.5,0.2-0.8,0.3c-0.9,0.3-1.8,0.4-2.7,0.5c-1,0.1-1.9,0.1-2.9,0.1h0c-0.3,0-0.7-0.1-1-0.1c-0.3,0-0.5-0.1-0.8-0.1
			c-0.2,0-0.4-0.1-0.6-0.1c-0.2,0-0.3-0.1-0.5-0.1c-0.2-0.1-0.5-0.1-0.7-0.2c0,0-0.1,0-0.1,0c-0.3-0.1-0.6-0.2-0.9-0.3
			c0,0,0,0-0.1,0c-0.3-0.1-0.6-0.2-0.9-0.4c0,0-0.1,0-0.1,0c-0.2-0.1-0.5-0.2-0.7-0.3c-0.2-0.1-0.5-0.3-0.8-0.4c0,0,0,0,0,0
			l-0.3-0.2l-4.9-2.9l-9.6-5.7l-3.3-1.9c4-2.3,7.7-5.2,10.9-8.4c0.3-0.3,0.6-0.6,0.9-0.9c2.9,1.3,5.9,2.3,9,3l4.9,1.1l4.8-8.7
			l2.5-4.5l0.6-1.2l3.6-6.4l-3-1.2l-0.2-0.5l12.1-7.9l8.8-5.7l8.9-5.8c1.8-1.2,3.7-1.9,5.7-2.3c0,0,0,0,0,0h0c0,0,0,0,0,0
			c2.9-1.4,6.2-2.2,9.6-2.3l-0.6,2c0,0,0.5,0.8,1.7,1.8c0.7,0.6,1.6,1.2,2.8,1.8c2,1,4.8,1.7,8.5,1.7c9.7,0,15.4-5.4,15.4-5.4v-2
			h4.4c8.3,0,15.7,4.1,20.3,10.4c0.1,0.2,0.2,0.3,0.3,0.5c0.1,0.2,0.2,0.4,0.4,0.5c0.1,0.2,0.2,0.3,0.3,0.5c0.8,1.3,1.5,2.7,2.1,4.2
			c1.1,2.8,1.7,5.8,1.7,8.9v56l0,0.1l1.4,16l0.5,5.7L364.8,206.7z"/>
		<path class="st1" d="M330.7,124.4c-2-1-4-2.1-5.9-3.1c-0.6-0.3-1.2,0.6-0.5,0.9c2,1,4,2.1,5.9,3.1
			C330.8,125.6,331.3,124.7,330.7,124.4z"/>
		<g>
			<path class="st2" d="M361.2,119.6h-88.5l8.8-5.7h76.7c0.1,0.2,0.2,0.3,0.3,0.5c0.1,0.2,0.2,0.4,0.4,0.5c0.1,0.2,0.2,0.3,0.3,0.5
				C359.9,116.8,360.6,118.2,361.2,119.6z"/>
			<polygon class="st2" points="362.9,135.6 362.9,141.3 257,141.3 259.5,136.8 260.1,135.6 			"/>
			<polygon class="st2" points="362.9,157.3 362.9,163 239.4,163 229.7,157.3 			"/>
			<polygon class="st2" points="362.9,184.6 279.9,184.6 280.7,178.9 362.9,178.9 362.9,184.5 			"/>
			<polygon class="st2" points="364.8,206.3 276.8,206.3 277.6,200.6 364.3,200.6 			"/>
		</g>
		<path class="st2" d="M240.9,122.2l0.2,0.1L240.9,122.2C240.9,122.2,240.9,122.2,240.9,122.2z"/>
		<g>
			<path class="st3" d="M351.5,450.5c-0.1,0-0.3-0.1-0.4-0.1c-0.1-0.1-0.1-0.2-0.1-0.4c0-12.5,14-19.5,22.4-22.6c0,0,0,0,0,0
				c7.1-4.8,13.4-7.8,13.5-7.8l34.5-12.7c0.1,0,0.3,0,0.4,0c0.1,0.1,0.2,0.2,0.3,0.3l9.4,25.6c0,0.1,0,0.3,0,0.4
				c-0.1,0.1-0.2,0.2-0.3,0.3l-46.3,17c-0.1,0-0.1,0-0.2,0L351.5,450.5z M373.6,428.4c-8,3-21.3,9.6-21.6,21.1l32.6,0l45.8-16.8
				l-9.1-24.7l-34,12.5c0,0-6.3,3-13.4,7.8C373.8,428.4,373.7,428.4,373.6,428.4z"/>
		</g>
		<g>
			<path class="st3" d="M387.1,420.5c-0.2,0-0.4-0.1-0.5-0.3l-2.3-4.9c-0.1-0.2,0-0.5,0.2-0.7l32.6-17.2c0.1-0.1,0.3-0.1,0.4,0
				c0.1,0,0.2,0.1,0.3,0.3l4.2,9.4c0.1,0.1,0.1,0.3,0,0.4c-0.1,0.1-0.2,0.2-0.3,0.3l-34.5,12.7C387.2,420.5,387.1,420.5,387.1,420.5
				z M385.4,415.4l1.9,4l33.6-12.3l-3.8-8.4L385.4,415.4z"/>
		</g>
		<g>
			<path class="st3" d="M320.1,217.4c-3.4,0-6.7-0.1-9.8-0.2c-16.5-0.8-26.7-3.3-31.3-4.7c-2.1-0.6-3.1-1.1-3.2-1.1
				c-0.2-0.1-0.3-0.3-0.3-0.5L281,173l0-2.1c0-0.2,0.1-0.3,0.2-0.4c0.2-0.1,0.3-0.1,0.5,0l31.2,17.3c2.4,1.3,5.1,2,7.9,2
				c0,0,0.1,0,0.1,0c6.3,0.2,12.1-3.4,14.7-9l17-35.7c0.1-0.2,0.4-0.4,0.7-0.2c0.2,0.1,0.4,0.4,0.2,0.7l-17,35.7
				c-2.9,6-9,9.7-15.7,9.6c-3,0.1-5.9-0.7-8.4-2.1L282,171.7v1.3l-5.4,37.5c0.5,0.2,1.4,0.5,2.7,0.9c4.6,1.4,14.7,3.9,31.1,4.7
				c5.7,0.3,12.1,0.3,18.1-0.1c14.8-1,24.9-4.4,30.8-7c2.7-1.2,4.4-2.3,5-2.7l-1.9-21.9l0-56c0-4.4-1.2-8.8-3.5-12.5
				c-0.1,0-0.2-0.1-0.3-0.2c-0.1-0.2-0.1-0.5,0.2-0.7l0.1-0.1c0.1-0.1,0.2-0.1,0.4-0.1c0.1,0,0.2,0.1,0.3,0.2
				c2.5,4,3.8,8.6,3.8,13.4v56l1.9,22.1c0,0.2-0.1,0.3-0.2,0.5c-0.1,0.1-1.8,1.3-5.4,2.9c-5.9,2.7-16.1,6.1-31.1,7.1
				C325.8,217.3,323,217.4,320.1,217.4z"/>
		</g>
		<g>
			<path class="st3" d="M321.3,190.8c-0.1,0-0.3,0-0.4,0c-3,0.1-5.9-0.7-8.4-2.1L250,153.9c-0.2-0.1-0.3-0.4-0.2-0.7l15.9-28.7
				c0.1-0.1,0.2-0.2,0.3-0.2c0.1,0,0.3,0,0.4,0l47.3,26.3l16.1-33.9c1.9-4.1,5.4-7.1,9.6-8.6c4.3-1.5,8.8-1.3,12.9,0.7
				c0,0,0,0,0.1,0c2.5,1.2,4.8,3.1,6.4,5.4c0.1,0.1,0.2,0.3,0.3,0.4l0.4,0.7c0.1,0.2,0.1,0.5-0.2,0.7c-0.2,0.1-0.5,0.1-0.7-0.2
				l-0.4-0.6c-0.1-0.1-0.2-0.2-0.3-0.4c-1.5-2.2-3.6-3.9-6-5c0,0,0,0-0.1,0c-3.8-1.8-8.1-2.1-12.1-0.6c-4,1.4-7.2,4.3-9.1,8.1
				l-16.4,34.4c-0.1,0.1-0.2,0.2-0.3,0.3c-0.1,0-0.3,0-0.4,0l-47.3-26.3l-15.4,27.8l62,34.5c2.4,1.3,5.1,2,7.9,2c0,0,0.1,0,0.1,0
				c6.3,0.2,12.1-3.4,14.7-9c0.1-0.2,0.4-0.4,0.7-0.2c0.2,0.1,0.4,0.4,0.2,0.7C333.7,187.1,327.8,190.8,321.3,190.8z"/>
		</g>
		<g>
			<path class="st3" d="M318,111.4c-3.3,0-6.2-0.6-8.7-1.8c0,0-0.1,0-0.1-0.1c-0.9-0.7-1.8-1.3-2.7-1.8c0,0-0.1,0-0.1-0.1
				c-1.2-1-1.8-1.9-1.8-1.9c-0.1-0.1-0.1-0.3-0.1-0.4c0-0.1,0.1-0.2,0.3-0.3l12.1-5.9h-7.8c-0.7,0-1.4,0-2.1-0.1
				c-7.2-1-12.7-7.3-12.7-14.6V58.2c0-0.3,0.2-0.5,0.5-0.5H324c0.3,0,0.5,0.2,0.5,0.5c0,8.5,2.1,13.2,3.1,14.9
				c1-2.4,3.1-4.1,5.7-4.7c0.9-0.2,2-0.3,3-0.1c4,0.6,6.9,4,6.9,8c0,4.5-3.6,8.1-8.1,8.1c-0.4,0-0.8,0-1.2-0.1v21.1
				c0,0.1-0.1,0.3-0.2,0.4C333.5,106.1,327.7,111.4,318,111.4z M309.8,108.7c2.3,1.1,5.1,1.7,8.2,1.7c8.5,0,13.9-4.3,14.9-5.1V83.8
				c0-0.2,0.1-0.3,0.2-0.4c0.1-0.1,0.3-0.1,0.4-0.1c0.5,0.1,1,0.2,1.6,0.2c3.9,0,7.1-3.2,7.1-7.1c0-3.5-2.5-6.5-6-7c0,0,0,0,0,0
				c-0.9-0.1-1.8-0.1-2.6,0.1c-2.5,0.6-4.5,2.5-5.3,4.9c-0.1,0.2-0.2,0.3-0.4,0.4c-0.2,0-0.4,0-0.5-0.2c-0.2-0.2-3.7-4.8-3.8-15.9
				h-28.1v25.7c0,6.8,5.1,12.7,11.8,13.6c0.6,0.1,1.3,0.1,1.9,0.1h9.9c0.2,0,0.4,0.2,0.5,0.4c0.1,0.2-0.1,0.5-0.3,0.6l-13.5,6.6
				c0.2,0.3,0.6,0.7,1.2,1.2C307.9,107.4,308.9,108,309.8,108.7z"/>
		</g>
		<g>
			<path class="st3" d="M327.7,74.8c-0.2,0-0.3-0.1-0.4-0.2c-0.2-0.2-3.7-4.8-3.8-15.9h-28.2c-0.1,0.2-0.2,0.3-0.4,0.3
				c-0.2,0-0.4,0-0.6,0c-4.2,0-7.6-3.4-7.6-7.6c0-3.2,1.9-6,4.9-7.1c0.1,0,0.2-0.1,0.4-0.1c0-0.2,0-0.4,0-0.6c0-0.1,0-0.2,0-0.3
				c0.2-5.8,4.8-10.3,10.6-10.3c5.9,0,10.6,4.8,10.6,10.6c0,0.3,0,0.5,0,0.8l14.3,2.7c5.2,1,9,5.5,9,10.7l0.2,11.2
				c0,0.1-0.1,0.3-0.2,0.4c-0.1,0.1-0.3,0.1-0.4,0.1c-0.9-0.1-1.8-0.1-2.6,0.1c-2.5,0.6-4.5,2.5-5.3,4.9
				C328.2,74.6,328,74.7,327.7,74.8C327.8,74.8,327.8,74.8,327.7,74.8z M294.9,57.7H324c0.3,0,0.5,0.2,0.5,0.5
				c0,8.5,2.1,13.2,3.1,14.9c1-2.4,3.1-4.1,5.7-4.7c0.8-0.2,1.6-0.3,2.4-0.2l-0.2-10.6c-0.1-4.8-3.5-8.9-8.2-9.7l-14.7-2.7
				c-0.3,0-0.4-0.3-0.4-0.5c0-0.4,0.1-0.8,0.1-1.2c0-5.3-4.3-9.6-9.6-9.6c-5.3,0-9.5,4.1-9.6,9.4c0,0.1,0,0.2,0,0.3
				c0,0.3,0,0.6,0.1,1c0,0.2-0.1,0.5-0.4,0.5c-0.2,0.1-0.4,0.1-0.7,0.2c-2.6,1-4.2,3.4-4.2,6.2c0,3.7,3,6.6,6.6,6.6c0,0,0,0,0.1,0
				C294.5,57.8,294.7,57.7,294.9,57.7z"/>
		</g>
		<g>
			<path class="st3" d="M313.9,151.9c-0.1,0-0.2,0-0.2-0.1l-32.4-18c-0.2-0.1-0.3-0.3-0.3-0.4v-4.8c0-0.3,0.2-0.5,0.5-0.5
				c0.3,0,0.5,0.2,0.5,0.5v4.5l31.6,17.6l16.1-33.9c1.9-4.1,5.4-7.1,9.6-8.6c4.3-1.5,8.8-1.3,12.9,0.7c0,0,0,0,0.1,0
				c0.1,0,0.1,0.1,0.2,0.1c-4.2-3.2-9.3-4.9-14.7-4.9h-3.9v1.5c0,0.1-0.1,0.3-0.2,0.4c-0.2,0.2-6,5.5-15.8,5.5
				c-3.3,0-6.2-0.6-8.7-1.8c-1.1-0.5-2.1-1.2-2.9-1.9c-1.2-1-1.7-1.9-1.8-1.9c-0.1-0.1-0.1-0.3-0.1-0.4l0.4-1.3
				c-3,0.2-5.9,0.9-8.7,2.2c0,0-0.1,0-0.1,0c-0.3,0.1-0.6-0.2-0.6-0.5c0-0.2,0.1-0.4,0.3-0.5c0,0,0.1,0,0.1,0c3-1.4,6.3-2.2,9.7-2.3
				c0.2,0,0.3,0.1,0.4,0.2c0.1,0.1,0.1,0.3,0.1,0.5l-0.6,1.8c0.2,0.3,0.7,0.8,1.4,1.5c0.8,0.7,1.7,1.3,2.7,1.7
				c2.3,1.1,5.1,1.7,8.2,1.7c8.5,0,13.9-4.3,14.9-5.1v-1.8c0-0.3,0.2-0.5,0.5-0.5h4.4c8.4,0,16.3,4.2,21,11.1
				c0.2,0.2,0.3,0.4,0.4,0.6l0.1,0.2c0.1,0.1,0.2,0.2,0.2,0.4c0.1,0.2,0.1,0.5-0.2,0.7l-0.1,0.1c-0.1,0.1-0.2,0.1-0.4,0.1
				c-0.1,0-0.2-0.1-0.3-0.2l-0.4-0.6c-0.1-0.1-0.2-0.2-0.3-0.4c-1.5-2.2-3.6-3.9-6-5c0,0,0,0-0.1,0c-3.8-1.8-8.1-2.1-12.1-0.6
				c-4,1.4-7.2,4.3-9.1,8.1l-16.4,34.4c-0.1,0.1-0.2,0.2-0.3,0.3C314,151.8,313.9,151.9,313.9,151.9z"/>
		</g>
		<g>
			<path class="st3" d="M305,106c-0.1,0-0.2,0-0.3-0.1c-0.2-0.1-0.2-0.3-0.2-0.5l2.1-6.9c0-0.3,0.3-0.5,0.6-0.4
				c0.6,0.1,1.3,0.1,1.9,0.1h9.9c0.2,0,0.4,0.2,0.5,0.4c0.1,0.2-0.1,0.5-0.3,0.6l-14.1,6.8C305.2,106,305.1,106,305,106z
				 M307.5,99.1l-1.7,5.5l11.1-5.4h-7.8C308.6,99.2,308.1,99.2,307.5,99.1z"/>
		</g>
		<polygon class="st5" points="303.8,422.6 303.7,422.7 267,422.7 267,418.5 		"/>
		<g>
			<path class="st3" d="M303.7,450.5h-82.7c-0.3,0-0.5-0.2-0.5-0.5c0-23.5,44.5-27.6,46.4-27.8l36.8,0c0.3,0,0.5,0.2,0.5,0.5V450
				C304.2,450.3,304,450.5,303.7,450.5z M221.6,449.5h81.7v-26.3H267C266.6,423.3,222.2,427.4,221.6,449.5z"/>
		</g>
		<g>
			<path class="st3" d="M252.9,168.8c-0.4,0-0.7,0-1.1,0c-0.4,0-0.8-0.1-1.1-0.1c-0.3,0-0.6-0.1-0.9-0.1l-0.6-0.1
				c-0.2,0-0.4-0.1-0.6-0.2c-0.2,0-0.5-0.1-0.7-0.2c0,0-0.1,0-0.2-0.1c-0.2-0.1-0.6-0.2-0.9-0.3l0,0c0,0,0,0,0,0v0
				c-0.3-0.1-0.6-0.2-0.9-0.4c0,0-0.1,0-0.1,0l0,0c-0.2-0.1-0.5-0.2-0.7-0.3c-0.2-0.1-0.5-0.3-0.8-0.4c0,0,0,0-0.1,0v0l-18.2-10.7
				c-0.2-0.1-0.2-0.3-0.2-0.4c0-0.2,0.1-0.3,0.2-0.4c4-2.3,7.6-5.1,10.8-8.3c0.2-0.2,0.5-0.5,0.7-0.7l0.2-0.2
				c0.1-0.2,0.4-0.2,0.6-0.1c2.9,1.3,5.9,2.3,8.9,2.9l0,0l4.9,1.1c0.2,0,0.3,0.1,0.3,0.3c0.1,0.1,0.1,0.3,0,0.4l-1.7,3l16,8.9
				c0.2,0.1,0.3,0.2,0.3,0.4c0,0.2-0.1,0.3-0.2,0.4l-4.8,3.1c0,0-0.1,0.1-0.1,0.1c-0.1,0-0.1,0.1-0.2,0.1c-0.3,0.2-0.6,0.4-0.9,0.5
				c0,0,0,0-0.1,0c-0.8,0.4-1.6,0.8-2.4,1c-0.3,0.1-0.6,0.2-0.8,0.3c-0.9,0.3-1.8,0.4-2.8,0.5C254.1,168.8,253.5,168.8,252.9,168.8z
				 M248.3,167.1c0.2,0.1,0.5,0.1,0.7,0.2c0.2,0.1,0.3,0.1,0.5,0.1l0.6,0.1c0.3,0.1,0.5,0.1,0.8,0.1c0.3,0,0.7,0.1,1,0.1
				c0.9,0.1,1.8,0,2.8-0.1c0.9-0.1,1.8-0.3,2.6-0.5c0.3-0.1,0.5-0.2,0.8-0.2c0.8-0.3,1.5-0.6,2.2-1c0,0,0,0,0,0
				c0.3-0.2,0.7-0.4,1-0.6c0,0,0.2-0.1,0.2-0.1c0,0,0.1-0.1,0.1-0.1l4.1-2.6l-15.7-8.7c-0.2-0.1-0.3-0.4-0.2-0.7l1.6-2.9l-4.2-0.9
				c-3-0.6-5.9-1.6-8.8-2.9c-0.2,0.2-0.4,0.5-0.7,0.7c-3,3.1-6.5,5.8-10.3,8.1l17.4,10.3c0,0,0,0,0.1,0c0.2,0.1,0.5,0.3,0.7,0.4
				c0.2,0.1,0.4,0.2,0.6,0.3c0,0,0,0,0,0c0,0,0.1,0,0.1,0c0.3,0.1,0.5,0.2,0.8,0.3c0,0,0,0,0,0c0,0,0,0,0,0c0.3,0.1,0.6,0.2,0.8,0.3
				l0,0.5L248.3,167.1z"/>
		</g>
		<g>
			<path class="st3" d="M281.5,133.9c-0.1,0-0.2,0-0.2-0.1l-14.9-8.3l-2.2,3.9c-0.1,0.2-0.4,0.3-0.6,0.2l-3-1.2
				c-0.1-0.1-0.2-0.1-0.3-0.3l-0.2-0.5c-0.1-0.2,0-0.5,0.2-0.6l29.8-19.4c1.8-1.2,3.8-2,5.9-2.4c0.3-0.1,0.5,0.1,0.6,0.4
				c0.1,0.3-0.1,0.5-0.4,0.6c-2,0.4-3.8,1.1-5.5,2.2l-24.3,15.8c0,0,0,0,0.1,0l14.6,8.1v-4c0-0.3,0.2-0.5,0.5-0.5
				c0.3,0,0.5,0.2,0.5,0.5v4.8c0,0.2-0.1,0.3-0.2,0.4C281.7,133.8,281.6,133.9,281.5,133.9z M261.2,127.6l2.2,0.9l2.1-3.7
				L261.2,127.6z"/>
		</g>
		<g>
			<path class="st3" d="M241.1,122.8c-0.1,0-0.2,0-0.3-0.1l-0.2-0.1c-0.2-0.1-0.2-0.3-0.2-0.4c0-0.1,0-0.2,0.1-0.2
				c0-0.1,0.1-0.2,0.2-0.2c0.2-0.1,0.4-0.1,0.5,0l0.2,0.1c0.2,0.2,0.3,0.5,0.1,0.7C241.4,122.7,241.3,122.8,241.1,122.8z"/>
		</g>
		<circle class="st3" cx="313.8" cy="71.5" r="2.7"/>
		<circle class="st3" cx="299.3" cy="71.5" r="2.7"/>
		<path class="st3" d="M298.5,63.2c0.8-0.1,1.9-0.2,2.5-0.3c1-0.1,2.1,0.2,2.3,1.3c0.2,0.9-0.3,2.2-1.3,2.3
			c-1.2,0.2-2.4,0.3-3.6,0.4c-1,0.1-1.9-0.9-1.9-1.9C296.6,64,297.4,63.3,298.5,63.2z"/>
		<path class="st3" d="M313.3,63.5c0.8,0.1,1.9,0.1,2.6,0.1c1,0,2,0.6,2.1,1.7c0.1,0.9-0.6,2.1-1.7,2.1c-1.2,0-2.4-0.1-3.6-0.1
			c-1-0.1-1.8-1.2-1.6-2.2C311.3,64.1,312.2,63.5,313.3,63.5z"/>
		<g>
			<path class="st3" d="M307.3,79.6c-0.1,0-0.1,0-0.2,0l-4.7-1.7c-0.1,0-0.2-0.2-0.3-0.3c-0.1-0.1,0-0.3,0-0.4l3.5-6.8
				c0.1-0.2,0.4-0.3,0.7-0.2c0.2,0.1,0.3,0.4,0.2,0.7l-3.3,6.3l4.1,1.5c0.3,0.1,0.4,0.4,0.3,0.6C307.7,79.5,307.5,79.6,307.3,79.6z"
				/>
		</g>
		<g>
			<path class="st3" d="M307.1,84.3c-0.4,0-0.8,0-1.3-0.1c-0.3,0-0.5-0.3-0.4-0.6c0-0.3,0.3-0.5,0.6-0.4c5.4,0.6,6.4-3,6.4-3.2
				c0.1-0.3,0.3-0.4,0.6-0.4c0.3,0.1,0.4,0.3,0.4,0.6C313.3,80.3,312.3,84.3,307.1,84.3z"/>
		</g>
		<g>
			<path class="st3" d="M333.6,81.6C333.6,81.6,333.5,81.6,333.6,81.6c-0.3,0-0.5-0.2-0.5-0.5c0.2-5.3,4.5-8.8,4.7-9
				c0.2-0.2,0.5-0.1,0.7,0.1c0.2,0.2,0.1,0.5-0.1,0.7c0,0-4.1,3.4-4.3,8.2C334,81.4,333.8,81.6,333.6,81.6z"/>
		</g>
		<g>
			<path class="st6" d="M319.8,296.4c-0.2,0-0.5-0.2-0.5-0.4l-9.4-79.2c0-0.3,0.2-0.5,0.4-0.6c0.3,0,0.5,0.2,0.6,0.4l9.4,79.2
				C320.3,296.1,320.1,296.3,319.8,296.4C319.8,296.4,319.8,296.4,319.8,296.4z"/>
		</g>
		<g>
			<path class="st6" d="M417.3,398.5c-0.2,0-0.4-0.1-0.4-0.3l-52.5-99.6c0-0.1,0-0.1-0.1-0.2L352.8,212c0-0.3,0.2-0.5,0.4-0.6
				c0.3,0,0.5,0.2,0.6,0.4l11.5,86.3l52.5,99.5c0.1,0.2,0,0.5-0.2,0.7C417.5,398.4,417.4,398.5,417.3,398.5z"/>
		</g>
		<g>
			<path class="st6" d="M411.8,401.4c-0.2,0-0.4-0.1-0.4-0.3l-52.8-101c0,0,0-0.1-0.1-0.2l-12.4-86c0-0.3,0.2-0.5,0.4-0.6
				c0.3,0,0.5,0.1,0.6,0.4l12.4,85.9l52.8,100.9c0.1,0.2,0,0.5-0.2,0.7C412,401.3,411.9,401.4,411.8,401.4z"/>
		</g>
		<g>
			<path class="st3" d="M383.7,445.1h-31.2c-0.3,0-0.5-0.2-0.5-0.5c0-0.3,0.2-0.5,0.5-0.5h31.1l45.4-16.6c0.3-0.1,0.5,0,0.6,0.3
				c0.1,0.3,0,0.5-0.3,0.6l-45.5,16.7C383.8,445.1,383.7,445.1,383.7,445.1z"/>
		</g>
		<g>
			<path class="st3" d="M303.7,445.2h-81.8c-0.3,0-0.5-0.2-0.5-0.5c0-0.3,0.2-0.5,0.5-0.5h81.8c0.3,0,0.5,0.2,0.5,0.5
				C304.2,445,304,445.2,303.7,445.2z"/>
		</g>
		<g>
			<path class="st3" d="M239.5,433.2C239.5,433.2,239.5,433.2,239.5,433.2c-3.5-0.4-6.5-3.1-7.4-6.4c-0.3-1.1-0.3-2.1,0-2.9
				c0.8-2,3.3-2.8,5.2-2.6c-0.1-2.4,0.5-4.9,1.7-7c1.4-2.4,3.5-4,5.7-4.2c1.6-0.2,3.3,0.4,4.8,1.5c1.2,0.9,2.2,2,3.2,3.7
				c0.6,1,1.2,2.1,1.6,3.1c0.8-0.5,1.6-0.7,2.5-0.8c1.1,0,2.3,0.3,3.3,1c2.4,1.6,3.5,4.7,2.8,7.5c-0.1,0.3-0.3,0.4-0.6,0.3
				c-0.3-0.1-0.4-0.3-0.3-0.6c0.6-2.3-0.3-5-2.4-6.4c-0.8-0.6-1.8-0.9-2.7-0.8c-0.7,0-1.5,0.3-2.2,0.7c0.8,2.3,0.9,4.6,0.5,6.7
				c-0.3,1.4-1,1.9-1.5,2c-0.7,0.2-1.5-0.1-2-0.8c-0.4-0.5-0.5-1.1-0.6-1.9c-0.1-1.6,0.2-3.2,1-4.5c0.4-0.8,0.9-1.4,1.6-1.9
				c-0.4-1.1-0.9-2.1-1.6-3.2c-1-1.6-1.9-2.6-2.9-3.4c-1.3-1-2.7-1.4-4.1-1.3c-1.8,0.2-3.7,1.6-4.9,3.7c-1.2,2-1.7,4.4-1.6,6.7
				c3.6,0.8,6.7,4,7.1,7.7c0.1,0.4,0.1,1-0.2,1.4c-0.6,0.8-1.8,0.6-2.7,0c-2.5-1.7-4.4-4.4-5-7.4c-0.1-0.3-0.1-0.5-0.1-0.8
				c-0.1,0-0.1,0-0.2,0c-1.6-0.1-3.6,0.4-4.2,2c-0.2,0.6-0.2,1.4,0,2.3c0.8,3,3.5,5.3,6.5,5.7c0.3,0,0.5,0.3,0.4,0.6
				C240,433,239.8,433.2,239.5,433.2z M238.5,422.5c0,0.1,0,0.3,0.1,0.4c0.6,2.8,2.2,5.3,4.6,6.8c0.4,0.3,1.1,0.5,1.3,0.2
				c0.1-0.2,0.1-0.5,0.1-0.7C244.1,426,241.6,423.3,238.5,422.5z M253.8,420c-0.4,0.4-0.7,0.8-1,1.4c-0.7,1.2-1,2.6-0.8,4
				c0.1,0.6,0.2,1.1,0.4,1.4c0.2,0.3,0.6,0.5,1,0.4c0.5-0.1,0.7-0.8,0.8-1.3C254.6,424,254.4,422,253.8,420z"/>
		</g>
		<g>
			<path class="st3" d="M364.8,436.9c-3.1,0-6.1-1.7-7.6-4.4c-0.6-1-0.8-2-0.7-2.8c0.2-2.2,2.4-3.5,4.4-3.9
				c-0.7-2.3-0.8-4.8-0.1-7.2c0.7-2.7,2.4-4.7,4.4-5.5c1.5-0.6,3.3-0.5,5,0.2c1.3,0.5,2.6,1.4,4,2.8c0.9,0.8,1.6,1.7,2.3,2.6
				c0.6-0.6,1.4-1.1,2.2-1.4c1-0.3,2.3-0.3,3.4,0.1c2.7,0.9,4.6,3.7,4.6,6.5c0,0.3-0.2,0.5-0.5,0.5c-0.3,0-0.5-0.2-0.5-0.5
				c0-2.4-1.6-4.8-3.9-5.6c-1-0.3-2-0.4-2.8-0.1c-0.7,0.2-1.4,0.6-1.9,1.2c1.3,2.1,2.1,4.2,2.2,6.4c0,1.2-0.3,1.9-0.9,2.4
				c-0.6,0.4-1.5,0.3-2.2-0.2c-0.6-0.5-0.9-1.2-1.1-1.7c-0.5-1.5-0.6-3.1-0.2-4.6c0.2-0.8,0.6-1.6,1-2.3c-0.7-0.9-1.4-1.8-2.3-2.7
				c-1.3-1.3-2.5-2.1-3.7-2.6c-1.5-0.6-3-0.7-4.3-0.2c-1.7,0.7-3.2,2.5-3.8,4.8c-0.6,2.2-0.5,4.7,0.2,6.8c3.7-0.1,7.5,2.2,8.9,5.6
				c0.2,0.4,0.3,0.9,0.1,1.4c-0.4,1-1.6,1-2.6,0.7c-2.9-1-5.3-3.1-6.7-5.9c-0.1-0.2-0.2-0.5-0.3-0.8c-0.1,0-0.1,0-0.2,0
				c-1.6,0.3-3.4,1.3-3.6,3c-0.1,0.7,0.1,1.4,0.6,2.2c1.5,2.7,4.7,4.2,7.7,3.8c0.3,0,0.5,0.2,0.6,0.4c0,0.3-0.2,0.5-0.4,0.6
				C365.5,436.9,365.1,436.9,364.8,436.9z M362.2,426.7c0.1,0.1,0.1,0.3,0.2,0.4c1.3,2.5,3.5,4.5,6.2,5.4c0.5,0.2,1.2,0.2,1.3-0.1
				c0.1-0.2,0-0.5-0.1-0.7C368.5,428.7,365.4,426.7,362.2,426.7z M376.4,420.4c-0.3,0.5-0.5,1-0.6,1.6c-0.3,1.3-0.3,2.8,0.2,4.1
				c0.2,0.6,0.5,1,0.8,1.2c0.3,0.2,0.7,0.3,1,0.2c0.4-0.3,0.5-0.9,0.5-1.5C378.1,424.1,377.5,422.2,376.4,420.4z"/>
		</g>
		<g>
			<path class="st3" d="M414.5,433.8c-0.3,0-0.5-0.2-0.5-0.5c-1.3-19.2,6.9-26.1,7.3-26.4c0.2-0.2,0.5-0.1,0.7,0.1
				c0.2,0.2,0.1,0.5-0.1,0.7c-0.1,0.1-8.2,6.9-6.9,25.5C415,433.5,414.8,433.8,414.5,433.8C414.5,433.8,414.5,433.8,414.5,433.8z"/>
		</g>
		<g>
			<path class="st3" d="M285.4,445.2C285.3,445.2,285.3,445.2,285.4,445.2c-0.3,0-0.5-0.3-0.5-0.6c3-20.3,18.7-22.4,18.8-22.4
				c0.3,0,0.5,0.2,0.6,0.4c0,0.3-0.2,0.5-0.4,0.6c-0.6,0.1-15.1,2-17.9,21.6C285.8,445.1,285.6,445.2,285.4,445.2z"/>
		</g>
		<circle class="st7" cx="319.6" cy="77.8" r="3.5"/>
		<g>
			<g>
				<g>
					<path class="st1" d="M213.2,78.5c-22.6,0-41.1,18.4-41.1,41.1c0,22.6,18.4,41.1,41.1,41.1c22.6,0,41.1-18.4,41.1-41.1
						C254.2,96.9,235.8,78.5,213.2,78.5z M213.2,152.9c-18.4,0-33.3-14.9-33.3-33.3c0-18.4,14.9-33.3,33.3-33.3
						c18.4,0,33.3,14.9,33.3,33.3C246.5,138,231.5,152.9,213.2,152.9z"/>
					
						<ellipse transform="matrix(9.918634e-02 -0.9951 0.9951 9.918634e-02 73.0228 319.8438)" class="st1" cx="213.2" cy="119.6" rx="33.3" ry="33.3"/>
				</g>
				<g>
					<g>
						<path class="st1" d="M227.8,129.2c0,3.5-1.1,6.3-3.3,8.4c-1.9,1.9-4.5,3.1-7.6,3.6v5.6h-6.7v-5.5c-3.2-0.5-5.9-1.8-8.1-3.8
							c-2.5-2.3-3.7-5.7-3.6-10l0-0.2l0.4-1.1h9.7v1.2c0,2.1,0.4,3.6,1.3,4.4c0.9,0.9,2,1.3,3.5,1.3c1.3,0,2.3-0.3,3-1
							c0.7-0.7,1-1.6,1-2.7s-0.3-2.1-1-2.8c-0.7-0.8-2-1.6-3.9-2.3c-4.2-1.5-7.3-3.3-9.4-5.2c-2.2-2-3.3-4.9-3.3-8.5
							c0-3.4,1.1-6.2,3.3-8.4c1.9-1.9,4.5-3.2,7.6-3.7v-6h6.7v6.2c3,0.6,5.4,2.1,7.3,4.2c2,2.4,3,5.5,3,9.3l0,0.3l-0.6,1h-9.6v-1.2
							c0-1.9-0.4-3.3-1.1-4.3c-0.7-0.9-1.5-1.3-2.7-1.3c-1.2,0-2.1,0.3-2.6,0.9c-0.6,0.7-0.9,1.6-0.9,2.8c0,1.1,0.3,2,0.9,2.7
							c0.5,0.5,1.6,1.3,4,2.3c4.1,1.6,7.3,3.4,9.3,5.3C226.7,122.8,227.8,125.6,227.8,129.2z"/>
					</g>
				</g>
			</g>
			<g>
				<g>
					<g>
						<g>
							<path class="st3" d="M213.2,161.2c-22.9,0-41.6-18.7-41.6-41.6c0-22.9,18.6-41.6,41.6-41.6s41.6,18.6,41.6,41.6
								C254.7,142.5,236.1,161.2,213.2,161.2z M213.2,79c-22.4,0-40.6,18.2-40.6,40.6c0,22.4,18.2,40.6,40.6,40.6
								s40.6-18.2,40.6-40.6C253.7,97.2,235.5,79,213.2,79z"/>
						</g>
						<g>
							<path class="st3" d="M213.2,153.4c-18.6,0-33.8-15.2-33.8-33.8c0-18.6,15.2-33.8,33.8-33.8c18.6,0,33.8,15.2,33.8,33.8
								C247,138.2,231.8,153.4,213.2,153.4z M213.2,86.8c-18.1,0-32.8,14.7-32.8,32.8s14.7,32.8,32.8,32.8s32.8-14.7,32.8-32.8
								S231.3,86.8,213.2,86.8z"/>
						</g>
					</g>
					<g>
						<path class="st3" d="M213.2,153.4c-18.6,0-33.8-15.2-33.8-33.8c0-18.6,15.2-33.8,33.8-33.8c18.6,0,33.8,15.2,33.8,33.8
							C247,138.2,231.8,153.4,213.2,153.4z M213.2,86.8c-18.1,0-32.8,14.7-32.8,32.8s14.7,32.8,32.8,32.8s32.8-14.7,32.8-32.8
							S231.3,86.8,213.2,86.8z"/>
					</g>
				</g>
				<g>
					<g>
						<g>
							<path class="st3" d="M216.9,147.3h-6.7c-0.3,0-0.5-0.2-0.5-0.5v-5.1c-3.1-0.6-5.8-1.9-7.9-3.9c-2.6-2.4-3.8-5.9-3.8-10.4
								l0-0.2c0-0.1,0-0.1,0-0.2l0.4-1.1c0.1-0.2,0.3-0.3,0.5-0.3h9.7c0.3,0,0.5,0.2,0.5,0.5v1.2c0,2,0.4,3.3,1.2,4
								c0.8,0.8,1.8,1.1,3.1,1.1c1.2,0,2.1-0.3,2.6-0.8c0.6-0.6,0.8-1.3,0.8-2.4c0-1.1-0.3-1.9-0.8-2.5c-0.7-0.7-1.9-1.5-3.7-2.2
								c-4.2-1.5-7.4-3.3-9.5-5.3c-2.3-2.1-3.5-5.1-3.5-8.9c0-3.5,1.2-6.4,3.4-8.7c1.9-1.9,4.4-3.2,7.4-3.7v-5.6
								c0-0.3,0.2-0.5,0.5-0.5h6.7c0.3,0,0.5,0.2,0.5,0.5v5.8c2.9,0.7,5.3,2.1,7.1,4.3c2.1,2.5,3.1,5.8,3.1,9.7l0,0.3
								c0,0.1,0,0.2-0.1,0.2l-0.6,1c-0.1,0.2-0.3,0.2-0.4,0.2h-9.6c-0.3,0-0.5-0.2-0.5-0.5v-1.2c0-1.8-0.3-3.1-1-4
								c-0.6-0.8-1.3-1.1-2.3-1.1c-1.1,0-1.8,0.3-2.2,0.8c-0.5,0.6-0.8,1.4-0.8,2.5c0,1,0.2,1.8,0.8,2.3c0.4,0.4,1.3,1.2,3.9,2.2
								c4.2,1.7,7.4,3.5,9.5,5.4c2.3,2.1,3.5,5.1,3.5,8.8c0,3.6-1.2,6.6-3.4,8.8c-1.9,1.9-4.4,3.1-7.4,3.6v5.1
								C217.4,147.1,217.2,147.3,216.9,147.3z M210.7,146.3h5.7v-5.1c0-0.2,0.2-0.5,0.4-0.5c3-0.5,5.5-1.6,7.3-3.4
								c2.1-2,3.1-4.7,3.1-8.1c0-3.4-1.1-6.1-3.1-8.1c-2-1.9-5.1-3.6-9.2-5.2c-2-0.8-3.5-1.7-4.2-2.4c-0.7-0.8-1-1.7-1-3
								c0-1.3,0.3-2.4,1-3.2c0.6-0.8,1.6-1.1,3-1.1c1.3,0,2.3,0.5,3.1,1.5c0.8,1,1.2,2.6,1.2,4.6v0.7h8.8l0.4-0.6l0-0.2
								c0-3.7-0.9-6.7-2.9-9c-1.7-2.1-4.1-3.5-7-4.1c-0.2,0-0.4-0.3-0.4-0.5v-5.7h-5.7v5.5c0,0.2-0.2,0.5-0.4,0.5
								c-3,0.5-5.4,1.7-7.3,3.5c-2.1,2.1-3.1,4.8-3.1,8c0,3.5,1.1,6.2,3.1,8.2c2,1.9,5.1,3.6,9.2,5.1c2,0.8,3.3,1.6,4.1,2.4
								c0.7,0.8,1.1,1.8,1.1,3.2c0,1.3-0.4,2.3-1.1,3.1c-0.8,0.8-1.9,1.1-3.3,1.1c-1.5,0-2.8-0.5-3.8-1.4c-1-0.9-1.5-2.5-1.5-4.8
								v-0.7h-8.9l-0.3,0.8c-0.1,4.2,1.1,7.4,3.4,9.6c2.1,1.9,4.7,3.2,7.8,3.7c0.2,0,0.4,0.2,0.4,0.5V146.3z"/>
						</g>
					</g>
				</g>
			</g>
		</g>
		<path class="st5" d="M247.9,103.5c1.4-0.3,2.8,0.5,3.4,1.8l0.8,1.9l8.5,20.2l0.2,0.5l3,1.2l-4.2,7.6l-7.3,13.2l-4.9-1.1
			c-3.1-0.7-6.1-1.7-9-3c-0.2-0.1-0.3-0.1-0.5-0.2c-0.5-0.2-1-0.5-1.6-0.8l-7.1-3.6l-7.9-4.1c-0.9-0.4-1.4-1.3-1.4-2.2
			c0-0.3,0-0.5,0.1-0.8c0.5-1.4,1.9-2,3.3-1.5l8.7,3.4l-15.4-9.5c-1-0.6-1.6-1.7-1.6-2.8c0-0.5,0.1-1,0.3-1.4
			c0.8-1.7,2.9-2.4,4.6-1.5l15.1,8.3l-16.8-11.4c-1.1-0.7-1.6-1.9-1.6-3.1c0-0.7,0.2-1.4,0.6-2c0.2-0.2,0.3-0.4,0.5-0.6
			c1.1-1.1,2.9-1.4,4.4-0.6l18.8,10.7l0.2,0.1l-0.2-0.1l-15.1-11.2c-0.9-0.7-1.4-1.7-1.4-2.8c0-0.6,0.2-1.3,0.5-1.9
			c1-1.6,3.1-2,4.7-1l12.8,7.9l5,3.1l-2.1-8.9c0-0.2-0.1-0.5-0.1-0.7C245.3,105.1,246.3,103.8,247.9,103.5z"/>
		<g>
			<path class="st3" d="M252.1,150.5c0,0-0.1,0-0.1,0l-4.9-1.1c-3.1-0.7-6.2-1.7-9.1-3c-0.1,0-0.2-0.1-0.4-0.2l-0.1-0.1
				c-0.5-0.2-1-0.5-1.5-0.7l-15.1-7.7c-1-0.5-1.6-1.6-1.6-2.7c0-0.4,0.1-0.7,0.2-1c0.3-0.8,0.8-1.4,1.6-1.7c0.8-0.4,1.6-0.4,2.4-0.1
				l3.7,1.4l-10.8-6.6c-1.1-0.7-1.8-1.9-1.8-3.2c0-0.6,0.1-1.1,0.4-1.6c0.4-0.9,1.3-1.7,2.3-2c1-0.3,2.1-0.2,3,0.3l6,3.3l-8.2-5.6
				c-1.1-0.8-1.8-2.1-1.8-3.5c0-0.8,0.2-1.6,0.7-2.3c0.2-0.2,0.3-0.5,0.6-0.7c1.3-1.3,3.4-1.6,5-0.7l11.8,6.7l-8.7-6.5
				c-1-0.7-1.6-1.9-1.6-3.2c0-0.8,0.2-1.5,0.6-2.1c1.2-1.8,3.6-2.3,5.4-1.2l16.8,10.4l-1.8-7.8c-0.1-0.3-0.1-0.6-0.1-0.8
				c0-1.7,1.2-3.2,3-3.5v0c1.7-0.3,3.3,0.6,4,2.1l0.8,1.9l8.6,20.5l2.8,1.2c0.1,0.1,0.2,0.2,0.3,0.3c0,0.1,0,0.3,0,0.4l-11.5,20.8
				C252.5,150.4,252.3,150.5,252.1,150.5z M222.4,133.1c-0.3,0-0.6,0.1-0.8,0.2c-0.5,0.2-0.9,0.6-1,1.2c-0.1,0.2-0.1,0.4-0.1,0.6
				c0,0.8,0.4,1.5,1.1,1.8l15,7.7c0.5,0.3,1,0.5,1.5,0.7l0.1,0.1c0.1,0.1,0.2,0.1,0.3,0.2c2.9,1.3,5.9,2.3,8.9,3l4.5,1l11.1-20
				l-2.4-1c-0.1-0.1-0.2-0.1-0.3-0.3l-0.2-0.5l-9.3-22.1c-0.5-1.1-1.7-1.8-2.9-1.5c0,0,0,0,0,0c-1.2,0.2-2.1,1.3-2.1,2.6
				c0,0.2,0,0.4,0.1,0.6l2.1,8.9c0,0.2,0,0.4-0.2,0.5c-0.2,0.1-0.4,0.1-0.6,0l-17.8-11c-1.4-0.8-3.1-0.5-4,0.9
				c-0.3,0.5-0.5,1-0.5,1.6c0,0.9,0.4,1.8,1.2,2.4l15.3,11.4c0.2,0.2,0.3,0.5,0.1,0.7c-0.1,0.2-0.4,0.3-0.7,0.2l-0.2-0.1L221.9,112
				c-1.2-0.7-2.8-0.5-3.8,0.5c-0.2,0.2-0.3,0.3-0.4,0.5c-0.3,0.5-0.5,1.1-0.5,1.7c0,1.1,0.5,2.1,1.4,2.6l16.8,11.4
				c0.2,0.2,0.3,0.4,0.1,0.7c-0.1,0.2-0.4,0.3-0.7,0.2l-15.1-8.3c-0.7-0.4-1.5-0.5-2.2-0.2c-0.7,0.2-1.3,0.8-1.7,1.5
				c-0.2,0.4-0.3,0.8-0.3,1.2c0,1,0.5,1.9,1.3,2.4l15.4,9.5c0.2,0.1,0.3,0.4,0.2,0.6c-0.1,0.2-0.4,0.3-0.6,0.2l-8.7-3.4
				C222.9,133.1,222.6,133.1,222.4,133.1z M247.9,103.5L247.9,103.5L247.9,103.5z"/>
		</g>
		<g>
			<path class="st3" d="M179.9,89.4c-0.1,0-0.3,0-0.4-0.1l-6.7-6.6c-0.2-0.2-0.2-0.5,0-0.7c0.2-0.2,0.5-0.2,0.7,0l6.7,6.6
				c0.2,0.2,0.2,0.5,0,0.7C180.1,89.3,180,89.4,179.9,89.4z"/>
		</g>
		<g>
			<path class="st3" d="M184.1,86.1c-0.2,0-0.3-0.1-0.4-0.3l-3.1-5.5c-0.1-0.2-0.1-0.5,0.2-0.7c0.2-0.1,0.5-0.1,0.7,0.2l3.1,5.5
				c0.1,0.2,0.1,0.5-0.2,0.7C184.3,86.1,184.2,86.1,184.1,86.1z"/>
		</g>
		<g>
			<path class="st3" d="M190.2,82.4c-0.2,0-0.4-0.1-0.5-0.3l-2.3-5.6c-0.1-0.3,0-0.5,0.3-0.7c0.3-0.1,0.5,0,0.7,0.3l2.3,5.6
				c0.1,0.3,0,0.5-0.3,0.7C190.4,82.4,190.3,82.4,190.2,82.4z"/>
		</g>
		<g>
			<path class="st3" d="M175.2,93.6c-0.1,0-0.2,0-0.3-0.1l-6.1-3.6c-0.2-0.1-0.3-0.4-0.2-0.7c0.1-0.2,0.4-0.3,0.7-0.2l6.1,3.6
				c0.2,0.1,0.3,0.4,0.2,0.7C175.5,93.5,175.3,93.6,175.2,93.6z"/>
		</g>
		<g>
			<path class="st3" d="M173,99c-0.1,0-0.1,0-0.2,0l-5-1.6c-0.3-0.1-0.4-0.4-0.3-0.6c0.1-0.3,0.4-0.4,0.6-0.3l5,1.6
				c0.3,0.1,0.4,0.4,0.3,0.6C173.4,98.8,173.2,99,173,99z"/>
		</g>
	</g>
	<g>
		<g>
			<g class="st8">
				<g>
					<path class="st3" d="M203.8,207.1l-3.1,5.5c-4,7.1-12.3,11.6-23.5,11.6c-19.7,0-40.9-14-47.2-31.2c-2.7-7.4-2.2-14.2,0.8-19.6
						l3.1-5.5c-3,5.4-3.5,12.2-0.8,19.6c6.3,17.2,27.5,31.2,47.2,31.2C191.4,218.7,199.8,214.2,203.8,207.1z"/>
				</g>
				<g>
					<path class="st1" d="M157.3,156.3c19.7,0,40.9,14,47.2,31.2c6.3,17.2-4.6,31.2-24.3,31.2c-19.7,0-40.9-14-47.2-31.2
						C126.7,170.3,137.6,156.3,157.3,156.3z M178.1,212.8c16,0,24.8-11.3,19.7-25.3c-5.1-13.9-22.3-25.3-38.3-25.3
						c-16,0-24.8,11.3-19.7,25.3C144.9,201.5,162.1,212.8,178.1,212.8"/>
				</g>
				<g>
					<path class="st1" d="M164.9,166.9l1.7,4.7c2.8,0.5,5.3,1.6,7.5,3.2c2.4,1.8,4.2,4.2,5.2,7.1l0.1,0.2l-0.2,0.7h-8.4l-0.3-0.9
						c-0.5-1.4-1.2-2.5-2.1-3.2c-0.8-0.7-1.7-1-2.7-1c-1.1,0-1.7,0.2-2,0.7c-0.3,0.5-0.3,1.2,0,2.2c0.3,0.9,0.8,1.5,1.5,2
						c0.6,0.4,1.7,1,4.2,1.8c4.1,1.2,7.3,2.6,9.6,4c2.5,1.5,4.2,3.7,5.2,6.4c1,2.6,0.8,4.8-0.5,6.4c-1.2,1.4-3,2.3-5.6,2.7l1.6,4.2
						h-5.8l-1.5-4.2c-2.9-0.4-5.6-1.3-8.1-2.9c-2.8-1.7-4.8-4.3-5.9-7.6l-0.1-0.2l0.1-0.8h8.5l0.3,0.9c0.6,1.6,1.4,2.7,2.4,3.3
						c1,0.6,2.1,1,3.4,1c1.2,0,1.9-0.2,2.3-0.7c0.4-0.5,0.4-1.2,0.1-2.1c-0.3-0.9-0.9-1.6-1.6-2.1c-0.8-0.6-2.2-1.2-4.1-1.7
						c-4-1.2-7.3-2.5-9.6-3.9c-2.5-1.5-4.2-3.7-5.3-6.5c-0.9-2.6-0.8-4.7,0.5-6.4c1.1-1.5,3-2.4,5.6-2.8l-1.7-4.6H164.9z"/>
				</g>
				<g>
					<path class="st1" d="M159.5,162.2c16,0,33.2,11.3,38.3,25.3c5.1,13.9-3.7,25.3-19.7,25.3c-16,0-33.2-11.3-38.3-25.3
						C134.6,173.6,143.5,162.2,159.5,162.2z M183.7,201.2c1.3-1.6,1.5-3.8,0.5-6.4c-1-2.7-2.8-4.9-5.2-6.4c-2.3-1.4-5.5-2.8-9.6-4
						c-2.4-0.7-3.6-1.4-4.2-1.8c-0.7-0.5-1.2-1.2-1.5-2c-0.3-0.9-0.3-1.6,0-2.2c0.3-0.5,1-0.7,2-0.7c1,0,1.9,0.3,2.7,1
						c0.9,0.7,1.6,1.8,2.1,3.2l0.3,0.9h8.4l0.2-0.7l-0.1-0.2c-1-2.9-2.8-5.3-5.2-7.1c-2.2-1.7-4.7-2.7-7.5-3.2l-1.7-4.7h-5.8
						l1.7,4.6c-2.6,0.4-4.4,1.3-5.6,2.8c-1.3,1.7-1.5,3.8-0.5,6.4c1,2.7,2.8,4.9,5.3,6.5c2.3,1.5,5.6,2.8,9.6,3.9
						c1.8,0.6,3.2,1.1,4.1,1.7c0.8,0.5,1.3,1.2,1.6,2.1c0.3,0.9,0.3,1.6-0.1,2.1c-0.4,0.5-1.2,0.7-2.3,0.7c-1.2,0-2.3-0.3-3.4-1
						c-1-0.6-1.8-1.8-2.4-3.3l-0.3-0.9h-8.5l-0.1,0.8l0.1,0.2c1.1,3.3,3.1,5.9,5.9,7.6c2.5,1.5,5.2,2.5,8.1,2.9l1.5,4.2h5.8
						l-1.6-4.2C180.6,203.6,182.5,202.7,183.7,201.2"/>
				</g>
			</g>
		</g>
		<g>
			<g class="st8">
				<g>
					<g>
						<path class="st3" d="M177.1,224.7c-19.9,0-41.3-14.1-47.7-31.5c-2.7-7.2-2.4-14.3,0.8-20l3.1-5.5c0.1-0.2,0.4-0.3,0.7-0.2
							c0.2,0.1,0.3,0.4,0.2,0.7c-3,5.4-3.3,12.2-0.7,19.2c6.3,17,27.2,30.9,46.7,30.9c10.6,0,19-4.1,23.1-11.3
							c0.1-0.2,0.4-0.3,0.7-0.2c0.2,0.1,0.3,0.4,0.2,0.7l0,0c0,0,0,0,0,0l-3.1,5.5C196.9,220.4,188.2,224.7,177.1,224.7z
							 M131.2,173.6L131.2,173.6c-3.1,5.5-3.3,12.3-0.8,19.2c6.3,17,27.2,30.9,46.7,30.9c10.6,0,19-4.1,23.1-11.3l0,0
							c-4.8,4.4-11.7,6.8-20,6.8c-19.9,0-41.3-14.1-47.7-31.5C130.8,182.8,130.3,178,131.2,173.6z"/>
					</g>
				</g>
				<g>
					<g>
						<path class="st3" d="M180.2,219.2c-19.9,0-41.3-14.1-47.7-31.5c-3-8-2.3-15.7,1.8-21.7c4.5-6.5,12.9-10.2,22.9-10.2
							c19.9,0,41.3,14.1,47.7,31.5c3,8,2.3,15.7-1.8,21.7C198.6,215.5,190.3,219.2,180.2,219.2z M157.3,156.8
							c-9.7,0-17.8,3.6-22.1,9.8c-3.9,5.7-4.5,13-1.7,20.7c6.3,17,27.2,30.9,46.7,30.9c9.7,0,17.8-3.6,22.1-9.8
							c3.9-5.7,4.6-13,1.7-20.8C197.8,170.7,176.8,156.8,157.3,156.8z"/>
					</g>
					<g>
						<path class="st3" d="M178.1,213.3c-16.2,0-33.6-11.5-38.8-25.6c-2.4-6.6-1.9-12.8,1.5-17.7c3.7-5.3,10.5-8.3,18.7-8.3
							c16.2,0,33.6,11.5,38.8,25.6c2.4,6.6,1.9,12.8-1.5,17.7C193.1,210.3,186.2,213.3,178.1,213.3z M159.5,162.7
							c-7.9,0-14.4,2.9-17.9,7.9c-3.2,4.6-3.7,10.5-1.4,16.7c5.1,13.8,22,25,37.8,25c7.8,0,14.4-2.9,17.8-7.9
							c3.2-4.6,3.7-10.5,1.4-16.7C192.2,173.9,175.3,162.7,159.5,162.7z"/>
					</g>
				</g>
				<g>
					<g>
						<path class="st3" d="M179.6,208.7h-5.8c-0.2,0-0.4-0.1-0.5-0.3l-1.4-3.9c-2.9-0.4-5.6-1.4-8-2.9c-2.9-1.8-5-4.4-6.1-7.9
							l-0.1-0.2c0-0.1,0-0.1,0-0.2l0.1-0.8c0-0.3,0.2-0.5,0.5-0.5h8.5c0.2,0,0.4,0.1,0.5,0.3l0.3,0.9c0.5,1.5,1.3,2.5,2.2,3.1
							c0.9,0.6,2,0.9,3.1,0.9c1,0,1.6-0.2,1.9-0.6c0.1-0.1,0.4-0.5,0-1.6c-0.3-0.8-0.8-1.4-1.4-1.9c-0.8-0.6-2.1-1.1-3.9-1.7
							c-4.1-1.2-7.4-2.5-9.7-4c-2.6-1.6-4.4-3.9-5.5-6.7c-1-2.7-0.8-5,0.6-6.8c1.1-1.5,2.9-2.4,5.3-2.9l-1.5-4
							c-0.1-0.2,0-0.3,0.1-0.5c0.1-0.1,0.2-0.2,0.4-0.2h5.8c0.2,0,0.4,0.1,0.5,0.3l1.6,4.4c2.8,0.5,5.3,1.6,7.4,3.3
							c2.5,1.9,4.3,4.3,5.4,7.3l0.1,0.2c0,0.1,0,0.2,0,0.3l-0.2,0.7c-0.1,0.2-0.3,0.4-0.5,0.4h-8.4c-0.2,0-0.4-0.1-0.5-0.3l-0.3-0.9
							c-0.5-1.3-1.2-2.3-2-3c-0.8-0.6-1.5-0.9-2.4-0.9c-0.9,0-1.4,0.2-1.6,0.5c-0.2,0.4-0.2,0.9,0.1,1.7c0.3,0.8,0.7,1.3,1.4,1.8
							c0.4,0.3,1.5,0.9,4,1.7c4.1,1.2,7.4,2.6,9.7,4.1c2.6,1.6,4.4,3.8,5.4,6.7c1,2.8,0.8,5.1-0.6,6.9c-1.1,1.4-2.9,2.3-5.3,2.8
							l1.3,3.7c0.1,0.2,0,0.3-0.1,0.5C179.9,208.6,179.8,208.7,179.6,208.7z M174.1,207.7h4.8l-1.3-3.6c-0.1-0.1,0-0.3,0-0.4
							c0.1-0.1,0.2-0.2,0.4-0.2c2.4-0.4,4.2-1.2,5.3-2.5c1.2-1.5,1.3-3.5,0.4-5.9c-1-2.6-2.6-4.7-5-6.2c-2.3-1.4-5.5-2.8-9.5-4
							c-2.5-0.8-3.7-1.4-4.3-1.8c-0.8-0.6-1.4-1.3-1.7-2.3c-0.4-1.1-0.4-1.9,0-2.6c0.4-0.6,1.2-1,2.5-1c1.1,0,2.1,0.3,3,1.1
							c1,0.8,1.7,2,2.3,3.5l0.2,0.6h7.6l0.1-0.2l0-0.1c-1-2.8-2.7-5.1-5-6.8c-2.1-1.6-4.6-2.7-7.3-3.1c-0.2,0-0.3-0.2-0.4-0.3
							l-1.6-4.3h-4.8l1.4,3.9c0.1,0.1,0,0.3,0,0.4c-0.1,0.1-0.2,0.2-0.4,0.2c-2.4,0.4-4.2,1.2-5.3,2.6c-1.2,1.5-1.3,3.5-0.5,5.9
							c1,2.6,2.7,4.7,5.1,6.2c2.3,1.4,5.5,2.7,9.5,3.9c1.9,0.6,3.3,1.2,4.2,1.8c0.8,0.6,1.4,1.4,1.8,2.4c0.4,1.1,0.3,1.9-0.2,2.6
							c-0.5,0.6-1.4,0.9-2.7,0.9c-1.3,0-2.5-0.3-3.6-1c-1.1-0.7-2-1.9-2.6-3.6l-0.2-0.6h-7.7l0,0.2l0,0.1c1.1,3.2,3,5.7,5.7,7.3
							c2.4,1.5,5,2.4,7.9,2.8c0.2,0,0.3,0.1,0.4,0.3L174.1,207.7z"/>
					</g>
				</g>
				<g>
					<g>
						<path class="st3" d="M178.1,213.3c-16.2,0-33.6-11.5-38.8-25.6c-2.4-6.6-1.9-12.8,1.5-17.7c3.7-5.3,10.5-8.3,18.7-8.3
							c16.2,0,33.6,11.5,38.8,25.6c2.4,6.6,1.9,12.8-1.5,17.7C193.1,210.3,186.2,213.3,178.1,213.3z M159.5,162.7
							c-7.9,0-14.4,2.9-17.9,7.9c-3.2,4.6-3.7,10.5-1.4,16.7c5.1,13.8,22,25,37.8,25c7.8,0,14.4-2.9,17.8-7.9
							c3.2-4.6,3.7-10.5,1.4-16.7C192.2,173.9,175.3,162.7,159.5,162.7z"/>
					</g>
					<g>
						<path class="st3" d="M179.6,208.7h-5.8c-0.2,0-0.4-0.1-0.5-0.3l-1.4-3.9c-2.9-0.4-5.6-1.4-8-2.9c-2.9-1.8-5-4.4-6.1-7.9
							l-0.1-0.2c0-0.1,0-0.1,0-0.2l0.1-0.8c0-0.3,0.2-0.5,0.5-0.5h8.5c0.2,0,0.4,0.1,0.5,0.3l0.3,0.9c0.5,1.5,1.3,2.5,2.2,3.1
							c0.9,0.6,2,0.9,3.1,0.9c1,0,1.6-0.2,1.9-0.6c0.1-0.1,0.4-0.5,0-1.6c-0.3-0.8-0.8-1.4-1.4-1.9c-0.8-0.6-2.1-1.1-3.9-1.7
							c-4.1-1.2-7.4-2.5-9.7-4c-2.6-1.6-4.4-3.9-5.5-6.7c-1-2.7-0.8-5,0.6-6.8c1.1-1.5,2.9-2.4,5.3-2.9l-1.5-4
							c-0.1-0.2,0-0.3,0.1-0.5c0.1-0.1,0.2-0.2,0.4-0.2h5.8c0.2,0,0.4,0.1,0.5,0.3l1.6,4.4c2.8,0.5,5.3,1.6,7.4,3.3
							c2.5,1.9,4.3,4.3,5.4,7.3l0.1,0.2c0,0.1,0,0.2,0,0.3l-0.2,0.7c-0.1,0.2-0.3,0.4-0.5,0.4h-8.4c-0.2,0-0.4-0.1-0.5-0.3l-0.3-0.9
							c-0.5-1.3-1.2-2.3-2-3c-0.8-0.6-1.5-0.9-2.4-0.9c-0.9,0-1.4,0.2-1.6,0.5c-0.2,0.4-0.2,0.9,0.1,1.7c0.3,0.8,0.7,1.3,1.4,1.8
							c0.4,0.3,1.5,0.9,4,1.7c4.1,1.2,7.4,2.6,9.7,4.1c2.6,1.6,4.4,3.8,5.4,6.7c1,2.8,0.8,5.1-0.6,6.9c0,0,0,0,0,0
							c-1.1,1.4-2.9,2.3-5.3,2.8l1.3,3.7c0.1,0.2,0,0.3-0.1,0.5C179.9,208.6,179.8,208.7,179.6,208.7z M174.1,207.7h4.8l-1.3-3.6
							c-0.1-0.1,0-0.3,0-0.4c0.1-0.1,0.2-0.2,0.4-0.2c2.4-0.4,4.2-1.2,5.3-2.5c1.2-1.5,1.3-3.5,0.4-5.9c-1-2.6-2.6-4.7-5-6.2
							c-2.3-1.4-5.5-2.8-9.5-4c-2.5-0.8-3.7-1.4-4.3-1.8c-0.8-0.6-1.4-1.3-1.7-2.3c-0.4-1.1-0.4-1.9,0-2.6c0.4-0.6,1.2-1,2.5-1
							c1.1,0,2.1,0.3,3,1.1c1,0.8,1.7,2,2.3,3.5l0.2,0.6h7.6l0.1-0.2l0-0.1c-1-2.8-2.7-5.1-5-6.8c-2.1-1.6-4.6-2.7-7.3-3.1
							c-0.2,0-0.3-0.2-0.4-0.3l-1.6-4.3h-4.8l1.4,3.9c0.1,0.1,0,0.3,0,0.4c-0.1,0.1-0.2,0.2-0.4,0.2c-2.4,0.4-4.2,1.2-5.3,2.6
							c-1.2,1.5-1.3,3.5-0.5,5.9c1,2.6,2.7,4.7,5.1,6.2c2.3,1.4,5.5,2.7,9.5,3.9c1.9,0.6,3.3,1.2,4.2,1.8c0.8,0.6,1.4,1.4,1.8,2.4
							c0.4,1.1,0.3,1.9-0.2,2.6c-0.5,0.6-1.4,0.9-2.7,0.9c-1.3,0-2.5-0.3-3.6-1c-1.1-0.7-2-1.9-2.6-3.6l-0.2-0.6h-7.7l0,0.2l0,0.1
							c1.1,3.2,3,5.7,5.7,7.3c2.4,1.5,5,2.4,7.9,2.8c0.2,0,0.3,0.1,0.4,0.3L174.1,207.7z M183.7,201.2L183.7,201.2L183.7,201.2z"/>
					</g>
				</g>
			</g>
		</g>
	</g>
	<g>
		<g>
			<g class="st8">
				<g>
					<path class="st1" d="M227.4,213.1c11.1,10.7,7.2,31.9-8.8,47.1c-7.9,7.6-17.3,12.3-26.1,13.9c-9,1.6-17.4-0.1-23-5.6
						c-11.1-10.7-7.2-31.9,8.8-47.2c7.9-7.6,17.3-12.3,26.1-13.8C213.4,206,221.8,207.7,227.4,213.1z M214.8,256.6
						c6.6-6.3,10.6-13.8,11.9-20.8c1.2-6.8-0.3-13.1-4.7-17.4c-4.6-4.4-11.4-5.8-18.7-4.5c-7.1,1.3-14.8,5.1-21.2,11.2
						c-6.6,6.3-10.6,13.8-11.9,20.8c-1.2,6.8,0.3,13.1,4.7,17.4c4.6,4.4,11.4,5.8,18.7,4.5C200.7,266.6,208.4,262.7,214.8,256.6"/>
				</g>
				<g>
					<path class="st1" d="M216.4,221.4l3.3,3.2l-4.3,4.2c1,1.9,1.2,4,0.6,6.3c-0.7,2.6-2.4,5.2-5.1,7.7l-0.2,0.2l-1,0.4l-4.7-4.5
						l0.8-0.8c1.3-1.3,2.1-2.4,2.5-3.4c0.3-0.9,0.2-1.6-0.4-2.1c-0.6-0.5-1.2-0.7-1.8-0.6c0,0-0.1,0-0.1,0c-0.8,0.2-1.6,0.7-2.4,1.5
						c-0.8,0.8-1.3,1.5-1.4,2.2c-0.1,0.6-0.2,1.6,0.3,3.5c0.9,3.1,1.2,5.8,0.8,8c-0.3,2.4-1.8,4.9-4.3,7.3c-2.4,2.3-4.9,3.7-7.4,4.1
						c-0.1,0-0.1,0-0.2,0c-2.3,0.3-4.4,0-6.2-1.2l-3.9,3.8l-3.3-3.2l3.9-3.7c-1.2-1.8-1.7-4-1.3-6.4c0.4-2.7,2.2-5.6,5.3-8.5
						l0.2-0.1l1-0.5l4.8,4.6l-0.8,0.8c-1.5,1.4-2.3,2.6-2.5,3.6c-0.2,1,0.1,1.8,0.8,2.5c0.7,0.6,1.4,0.9,2.2,0.8
						c0.8-0.1,1.6-0.6,2.4-1.4c0.8-0.8,1.3-1.6,1.5-2.4c0.2-0.9,0.1-2-0.3-3.4c-1-3-1.3-5.7-1-7.9c0.4-2.4,1.8-4.9,4.4-7.3
						c2.4-2.3,4.9-3.6,7.4-4.1c2.4-0.4,4.5,0,6.4,1.1L216.4,221.4z"/>
				</g>
				<g>
					<path class="st1" d="M221.9,218.4c4.4,4.3,5.9,10.6,4.7,17.4c-1.2,7-5.3,14.5-11.9,20.8c-6.4,6.1-14,10-21.2,11.2
						c-7.3,1.3-14.1-0.1-18.7-4.5c-4.4-4.3-5.9-10.6-4.7-17.4c1.2-7,5.3-14.5,11.9-20.8c6.4-6.1,14-10,21.2-11.2
						C210.5,212.6,217.3,214,221.9,218.4z M215.9,235c0.6-2.3,0.5-4.4-0.6-6.3l4.3-4.2l-3.3-3.2l-4.3,4.1c-1.9-1.1-4-1.5-6.3-1.1
						c-2.7,0.5-5.2,1.8-7.5,4.1c-2.6,2.5-4,4.9-4.4,7.3c-0.3,2.3,0,4.9,1,7.9c0.4,1.4,0.5,2.5,0.3,3.4c-0.2,0.8-0.7,1.6-1.5,2.4
						c-0.8,0.8-1.6,1.2-2.4,1.4c-0.8,0.1-1.5-0.1-2.2-0.7c-0.7-0.7-1-1.5-0.8-2.5c0.1-1,1-2.2,2.5-3.6l0.8-0.8l-4.8-4.6l-1,0.5
						l-0.2,0.1c-3.1,2.9-4.9,5.7-5.3,8.5c-0.4,2.4,0.1,4.5,1.3,6.4l-3.9,3.7l3.3,3.2l3.9-3.8c1.9,1.1,4,1.5,6.2,1.2
						c0.1,0,0.1,0,0.2,0c2.5-0.4,5-1.8,7.4-4.1c2.5-2.4,4-4.9,4.3-7.3c0.3-2.2,0-4.9-0.8-8c-0.5-1.8-0.5-2.9-0.3-3.5
						c0.2-0.7,0.6-1.5,1.4-2.2c0.9-0.8,1.6-1.3,2.4-1.5c0,0,0.1,0,0.1,0c0.7-0.1,1.3,0.1,1.8,0.6c0.6,0.5,0.7,1.2,0.4,2.1
						c-0.3,1-1.1,2.1-2.5,3.4l-0.8,0.8l4.7,4.5l1-0.4l0.2-0.2C213.5,240.2,215.2,237.6,215.9,235"/>
				</g>
				<g>
					<path class="st3" d="M228.4,214.3l4.2,4.7c9.8,11,5.6,31.3-9.9,46c-7.9,7.6-17.3,12.3-26.1,13.9c-9,1.6-17.4-0.1-23-5.6
						c-0.4-0.4-0.7-0.7-1.1-1.1l-4.2-4.7c0.3,0.4,0.7,0.8,1.1,1.1c5.6,5.4,14,7.1,23,5.6c8.8-1.6,18.2-6.3,26.1-13.9
						C234,245.5,238.2,225.3,228.4,214.3z"/>
				</g>
			</g>
		</g>
		<g>
			<g class="st8">
				<g>
					<g>
						<path class="st3" d="M186.2,275.2c-6.9,0-12.8-2.1-17.1-6.3c-4.2-4.1-6.5-9.8-6.5-16.4c0-10.5,5.7-22.3,15.3-31.4
							c7.7-7.4,17.1-12.3,26.3-14c9.6-1.7,17.9,0.3,23.5,5.7l0,0c4.2,4.1,6.5,9.8,6.5,16.4c0,10.5-5.7,22.3-15.3,31.4
							c-7.7,7.4-17.1,12.3-26.4,14C190.3,275,188.2,275.2,186.2,275.2z M210.7,207.5c-2,0-4.1,0.2-6.2,0.6
							c-9.1,1.6-18.3,6.5-25.8,13.7c-9.4,9-14.9,20.4-15,30.7c0,6.4,2.1,11.8,6.2,15.7c5.3,5.1,13.3,7,22.6,5.4
							c9.1-1.6,18.3-6.5,25.8-13.7c9.4-9,14.9-20.4,15-30.7c0-6.4-2.1-11.8-6.2-15.7l0,0C222.9,209.6,217.3,207.5,210.7,207.5z"/>
					</g>
					<g>
						<path class="st3" d="M188.5,268.8c-5.6,0-10.4-1.7-13.9-5.1c-4.4-4.3-6.1-10.6-4.9-17.9c1.3-7.4,5.6-14.9,12-21.1
							c6.3-6,13.9-10,21.4-11.4c7.8-1.4,14.6,0.3,19.1,4.6c4.4,4.3,6.1,10.6,4.9,17.9c-1.3,7.4-5.6,14.9-12,21.1
							c-6.3,6-13.9,10-21.4,11.4C191.9,268.7,190.2,268.8,188.5,268.8z M208.3,213.9c-1.6,0-3.3,0.2-5,0.5
							c-7.4,1.3-14.8,5.2-20.9,11.1c-6.3,6-10.5,13.3-11.7,20.6c-1.2,6.9,0.4,12.9,4.6,17c4.3,4.1,10.8,5.7,18.2,4.4
							c7.4-1.3,14.8-5.2,20.9-11.1l0,0c6.3-6,10.5-13.3,11.7-20.6c1.2-6.9-0.4-12.9-4.6-17C218.3,215.6,213.7,213.9,208.3,213.9z"/>
					</g>
				</g>
				<g>
					<g>
						<path class="st3" d="M181.1,261.5c-0.1,0-0.3,0-0.3-0.1l-3.3-3.2c-0.1-0.1-0.2-0.2-0.2-0.4c0-0.1,0.1-0.3,0.2-0.4l3.6-3.5
							c-1.1-1.9-1.5-4-1.1-6.4c0.4-2.8,2.2-5.8,5.4-8.7l0.2-0.1c0,0,0.1-0.1,0.1-0.1l1-0.5c0.2-0.1,0.4-0.1,0.6,0.1l4.8,4.6
							c0.1,0.1,0.2,0.2,0.2,0.4c0,0.1-0.1,0.3-0.2,0.4l-0.8,0.8c-1.7,1.7-2.2,2.7-2.3,3.3c-0.1,0.8,0.1,1.5,0.7,2.1
							c0.5,0.5,1.1,0.7,1.7,0.6c0.7-0.1,1.4-0.5,2.2-1.3c0.8-0.7,1.2-1.4,1.4-2.1c0.2-0.8,0.1-1.9-0.3-3.2c-1-3-1.3-5.8-1-8.1
							c0.4-2.5,1.9-5.1,4.5-7.6c2.4-2.3,5-3.7,7.7-4.2c2.4-0.4,4.5-0.1,6.4,1l4-3.8c0.2-0.2,0.5-0.2,0.7,0l3.3,3.2
							c0.1,0.1,0.2,0.2,0.2,0.4c0,0.1-0.1,0.3-0.2,0.4l-4.1,3.9c0.9,1.9,1.1,4,0.4,6.3c-0.7,2.7-2.5,5.3-5.3,7.9l-0.2,0.2
							c0,0-0.1,0.1-0.2,0.1l-1,0.4c-0.2,0.1-0.4,0-0.5-0.1l-4.7-4.5c-0.1-0.1-0.2-0.2-0.2-0.4c0-0.1,0.1-0.3,0.2-0.4l0.8-0.8
							c1.3-1.2,2-2.3,2.3-3.2c0.3-0.9,0-1.3-0.3-1.6c-0.4-0.4-0.9-0.6-1.4-0.5l-0.1,0c-0.7,0.2-1.4,0.6-2.2,1.4
							c-0.7,0.7-1.2,1.3-1.3,2c-0.1,0.4-0.2,1.4,0.3,3.2c0.9,3.1,1.2,5.9,0.8,8.2c-0.4,2.5-1.9,5.1-4.5,7.6c-2.5,2.3-5,3.8-7.6,4.2
							l-0.2,0c-2.3,0.3-4.3,0-6.2-1.1l-3.6,3.5C181.3,261.4,181.2,261.5,181.1,261.5z M178.5,257.8l2.6,2.5l3.6-3.4
							c0.2-0.2,0.4-0.2,0.6-0.1c1.8,1.1,3.8,1.5,5.9,1.1l0.1,0c2.5-0.4,4.9-1.8,7.2-4c2.4-2.3,3.8-4.7,4.2-7c0.3-2.2,0-4.8-0.8-7.8
							c-0.6-2-0.5-3.1-0.4-3.7c0.2-0.8,0.7-1.6,1.6-2.5c0.9-0.9,1.8-1.4,2.7-1.6l0.2,0c0.8-0.1,1.6,0.1,2.2,0.8
							c0.7,0.7,0.9,1.5,0.5,2.6c-0.3,1.1-1.2,2.3-2.6,3.6l-0.5,0.4l4.1,4l0.6-0.2l0.2-0.1c2.6-2.5,4.3-5,5-7.5
							c0.6-2.2,0.4-4.2-0.5-5.9c-0.1-0.2-0.1-0.4,0.1-0.6l4-3.8l-2.6-2.5l-3.9,3.7c-0.2,0.2-0.4,0.2-0.6,0.1c-1.8-1.1-3.8-1.4-6-1
							c-2.5,0.4-4.9,1.8-7.2,3.9c-2.5,2.4-3.9,4.7-4.2,7c-0.3,2.2,0,4.8,0.9,7.7c0.4,1.5,0.5,2.7,0.3,3.7c-0.2,0.9-0.7,1.7-1.7,2.6
							c-0.9,0.9-1.8,1.4-2.7,1.5c-1,0.2-1.8-0.1-2.6-0.9c-0.8-0.8-1.1-1.8-1-2.9c0.2-1.1,1-2.4,2.6-3.9l0.4-0.4l-4.1-4l-0.7,0.4
							c-3,2.8-4.7,5.6-5.1,8.2c-0.3,2.3,0.1,4.3,1.2,6c0.1,0.2,0.1,0.5-0.1,0.6L178.5,257.8z"/>
					</g>
				</g>
				<g>
					<g>
						<path class="st3" d="M188.5,268.8c-5.6,0-10.4-1.7-13.9-5.1c-4.4-4.3-6.1-10.6-4.9-17.9c1.3-7.4,5.6-14.9,12-21.1
							c6.3-6,13.9-10,21.4-11.4c7.8-1.4,14.6,0.3,19.1,4.6c0,0,0,0,0,0c4.4,4.3,6.1,10.6,4.9,17.9c-1.3,7.4-5.6,14.9-12,21.1
							c-6.3,6-13.9,10-21.4,11.4C191.9,268.7,190.2,268.8,188.5,268.8z M208.3,213.9c-1.6,0-3.3,0.2-5,0.5
							c-7.4,1.3-14.8,5.2-20.9,11.1c-6.3,6-10.5,13.3-11.7,20.6c-1.2,6.9,0.4,12.9,4.6,17c4.3,4.1,10.8,5.7,18.2,4.4
							c7.4-1.3,14.8-5.2,20.9-11.1c6.3-6,10.5-13.3,11.7-20.6c1.2-6.9-0.4-12.9-4.6-17C218.3,215.6,213.7,213.9,208.3,213.9z"/>
					</g>
					<g>
						<path class="st3" d="M181.1,261.5c-0.1,0-0.3,0-0.3-0.1l-3.3-3.2c-0.1-0.1-0.2-0.2-0.2-0.4c0-0.1,0.1-0.3,0.2-0.4l3.6-3.5
							c-1.1-1.9-1.5-4-1.1-6.4c0.4-2.8,2.2-5.8,5.4-8.7l0.2-0.1c0,0,0.1-0.1,0.1-0.1l1-0.5c0.2-0.1,0.4-0.1,0.6,0.1l4.8,4.6
							c0.1,0.1,0.2,0.2,0.2,0.4c0,0.1-0.1,0.3-0.2,0.4l-0.8,0.8c-1.7,1.7-2.2,2.7-2.3,3.3c-0.1,0.8,0.1,1.5,0.7,2.1
							c0.6,0.5,1.1,0.7,1.8,0.6c0.7-0.1,1.4-0.5,2.1-1.3c0.8-0.7,1.2-1.4,1.4-2.1c0.2-0.8,0.1-1.9-0.3-3.2c-1-3-1.3-5.8-1-8.1
							c0.4-2.5,1.9-5.1,4.5-7.6c2.4-2.3,5-3.7,7.8-4.2c2.3-0.4,4.4-0.1,6.3,1l4-3.8c0.2-0.2,0.5-0.2,0.7,0l3.3,3.2
							c0.1,0.1,0.2,0.2,0.2,0.4c0,0.1-0.1,0.3-0.2,0.4l-4.1,3.9c0.9,1.9,1.1,4,0.4,6.3l0,0c-0.7,2.7-2.5,5.3-5.3,7.9l-0.2,0.2
							c0,0-0.1,0.1-0.2,0.1l-1,0.4c-0.2,0.1-0.4,0-0.5-0.1l-4.7-4.5c-0.1-0.1-0.2-0.2-0.2-0.4c0-0.1,0.1-0.3,0.2-0.4l0.8-0.8
							c1.3-1.2,2-2.3,2.3-3.2c0.3-0.9,0-1.3-0.3-1.6c-0.4-0.4-0.9-0.6-1.4-0.5l-0.1,0c-0.7,0.2-1.4,0.6-2.2,1.4
							c-0.7,0.7-1.2,1.3-1.3,2c-0.1,0.4-0.2,1.4,0.3,3.2c0.9,3.1,1.2,5.9,0.8,8.2c-0.4,2.5-1.9,5.1-4.5,7.6c-2.5,2.3-5,3.8-7.6,4.2
							l-0.2,0c-2.3,0.3-4.3,0-6.2-1.1l-3.6,3.5C181.3,261.4,181.2,261.5,181.1,261.5z M178.5,257.8l2.6,2.5l3.6-3.4
							c0.2-0.2,0.4-0.2,0.6-0.1c1.8,1.1,3.8,1.5,5.9,1.1l0.1,0c2.5-0.4,4.9-1.8,7.2-4c2.4-2.3,3.8-4.7,4.2-7c0.3-2.2,0-4.8-0.8-7.8
							c-0.6-2-0.5-3.1-0.4-3.7c0.2-0.8,0.7-1.6,1.6-2.5c0.9-0.9,1.8-1.4,2.7-1.6l0.2,0c0.8-0.1,1.6,0.1,2.2,0.8
							c0.7,0.7,0.9,1.5,0.5,2.6c-0.3,1.1-1.2,2.3-2.6,3.6l-0.5,0.4l4.1,4l0.6-0.2l0.2-0.1c2.6-2.5,4.3-5,5-7.5l0,0
							c0.6-2.2,0.4-4.2-0.5-5.9c-0.1-0.2-0.1-0.4,0.1-0.6l4-3.8l-2.6-2.5l-3.9,3.7c-0.2,0.2-0.4,0.2-0.6,0.1c-1.8-1.1-3.8-1.4-6-1
							c-2.5,0.4-5,1.8-7.2,4c-2.5,2.4-3.9,4.7-4.2,7c-0.3,2.2,0,4.8,0.9,7.7c0.4,1.5,0.5,2.7,0.3,3.7c-0.2,0.9-0.7,1.7-1.7,2.6
							c-0.9,0.9-1.8,1.4-2.7,1.5c-1,0.2-1.8-0.1-2.6-0.9c-0.8-0.8-1.1-1.8-1-2.9c0.2-1.1,1-2.4,2.6-3.9l0.4-0.4l-4.1-4l-0.7,0.4
							c-3,2.8-4.7,5.6-5.1,8.2c-0.3,2.3,0.1,4.3,1.2,6c0.1,0.2,0.1,0.5-0.1,0.6L178.5,257.8z M215.9,235L215.9,235L215.9,235z"/>
					</g>
				</g>
				<g>
					<g>
						<path class="st3" d="M190.3,279.9c-6.9,0-12.8-2.1-17.1-6.3c-0.4-0.4-0.7-0.7-1.1-1.1l-4.2-4.7c0,0,0,0,0,0l0,0
							c-0.2-0.2-0.2-0.5,0-0.7c0.2-0.2,0.5-0.2,0.7,0l0,0l0,0c0.3,0.4,0.7,0.7,1,1.1c5.3,5.1,13.3,7,22.6,5.4
							c9.1-1.6,18.3-6.5,25.8-13.7c15.2-14.5,19.5-34.4,9.8-45.3c-0.2-0.2-0.2-0.5,0-0.7c0.2-0.2,0.5-0.2,0.7,0l4.2,4.7
							c10,11.3,5.7,31.8-9.9,46.7c-7.7,7.4-17.1,12.3-26.4,14C194.5,279.7,192.4,279.9,190.3,279.9z M173,271.9
							c0.3,0.4,0.7,0.7,1,1.1c5.3,5.1,13.3,7,22.6,5.4c9.1-1.6,18.3-6.5,25.8-13.7c15.2-14.5,19.5-34.4,9.9-45.3
							c5.1,11.7,0,28.6-13.3,41.4c-7.7,7.4-17.1,12.3-26.4,14C185,276,178.2,275,173,271.9z"/>
					</g>
				</g>
			</g>
		</g>
	</g>
	<g>
		<g>
			<g>
				<path class="st3" d="M115.5,161.1c-0.6,0-1-0.4-1-1v-13.2c0-0.6,0.4-1,1-1c0.6,0,1,0.4,1,1v13.2
					C116.5,160.6,116.1,161.1,115.5,161.1z"/>
			</g>
			<g>
				<path class="st3" d="M122.1,154.5H109c-0.6,0-1-0.4-1-1c0-0.6,0.4-1,1-1h13.2c0.6,0,1,0.4,1,1
					C123.1,154.1,122.7,154.5,122.1,154.5z"/>
			</g>
		</g>
		<g>
			<g>
				<path class="st3" d="M79.3,161.1c-0.6,0-1-0.4-1-1v-13.2c0-0.6,0.4-1,1-1c0.6,0,1,0.4,1,1v13.2
					C80.3,160.6,79.8,161.1,79.3,161.1z"/>
			</g>
			<g>
				<path class="st3" d="M85.9,154.5H72.7c-0.6,0-1-0.4-1-1c0-0.6,0.4-1,1-1h13.2c0.6,0,1,0.4,1,1C86.9,154.1,86.4,154.5,85.9,154.5
					z"/>
			</g>
		</g>
		<g>
			<g>
				<path class="st3" d="M97.4,181.4c-0.6,0-1-0.4-1-1v-13.2c0-0.6,0.4-1,1-1c0.6,0,1,0.4,1,1v13.2C98.4,181,98,181.4,97.4,181.4z"
					/>
			</g>
			<g>
				<path class="st3" d="M104,174.8H90.8c-0.6,0-1-0.4-1-1c0-0.6,0.4-1,1-1H104c0.6,0,1,0.4,1,1C105,174.4,104.5,174.8,104,174.8z"
					/>
			</g>
		</g>
	</g>
	<g>
		<g>
			<g>
				<path class="st3" d="M149,142.5h-3c-0.3,0-0.5-0.2-0.5-0.5v-2.1c-2.7-0.2-5.1-0.8-7.3-1.8c-0.2-0.1-0.3-0.4-0.3-0.6l1.5-4.9
					c0-0.1,0.1-0.3,0.3-0.3c0.1-0.1,0.3-0.1,0.4,0c0.9,0.5,1.9,0.8,3,1.1c0.9,0.2,1.7,0.4,2.4,0.4v-4l-0.2,0c-2.4-0.7-4.2-1.7-5.5-3
					c-1.3-1.4-2-3-2-4.9c0-2.1,0.7-3.8,2.2-5.1c1.4-1.2,3.2-2,5.5-2.3v-2.9c0-0.3,0.2-0.5,0.5-0.5h3c0.3,0,0.5,0.2,0.5,0.5v2.9
					c2.2,0.2,4.3,0.8,6.3,1.7c0.2,0.1,0.4,0.4,0.3,0.6l-1.9,4.8c-0.1,0.1-0.2,0.2-0.3,0.3c-0.1,0-0.3,0-0.4-0.1
					c-1-0.7-2.3-1.1-4-1.3l0,3.8c2.3,0.6,4.1,1.6,5.4,2.9c1.3,1.4,2,3,2,4.9c0,2.2-0.7,4-2.1,5.3c-1.3,1.2-3.1,2.1-5.3,2.4v2.2
					C149.5,142.3,149.3,142.5,149,142.5z M146.5,141.5h2v-2.2c0-0.3,0.2-0.5,0.4-0.5c2.3-0.3,4-1,5.2-2.2c1.2-1.2,1.8-2.7,1.8-4.6
					c0-1.6-0.6-3-1.7-4.2c-1.2-1.2-2.8-2.1-4.9-2.6l-0.4-0.1c-0.2-0.1-0.4-0.3-0.4-0.5v-4.8c0-0.1,0.1-0.3,0.2-0.4
					c0.1-0.1,0.2-0.1,0.4-0.1c1.8,0.2,3.3,0.6,4.4,1.3l1.5-3.8c-1.9-0.8-3.9-1.3-6-1.5c-0.3,0-0.5-0.2-0.5-0.5V112h-2v2.9
					c0,0.3-0.2,0.5-0.5,0.5c-2.3,0.2-4.1,0.9-5.4,2c-1.3,1.1-1.9,2.6-1.9,4.4c0,1.6,0.6,3,1.7,4.2c1.2,1.2,2.9,2.2,5.1,2.8l0.5,0.1
					c0.2,0.1,0.4,0.3,0.4,0.5v5c0,0.1-0.1,0.3-0.2,0.4c-0.1,0.1-0.2,0.1-0.4,0.1c-0.9-0.1-2-0.2-3.1-0.5c-0.9-0.2-1.8-0.5-2.7-0.9
					l-1.2,3.9c2.1,0.9,4.4,1.4,7,1.5c0.3,0,0.5,0.2,0.5,0.5V141.5z"/>
			</g>
			<g>
				<path class="st3" d="M146,124.3c-0.1,0-0.1,0-0.2,0c-0.8-0.3-1.3-0.6-1.6-1c-0.3-0.4-0.5-0.9-0.5-1.5c0-0.9,0.4-2,2.2-2.4
					c0.1,0,0.3,0,0.4,0.1c0.1,0.1,0.2,0.2,0.2,0.4v3.9c0,0.2-0.1,0.3-0.2,0.4C146.2,124.2,146.1,124.3,146,124.3z M145.5,120.6
					c-0.7,0.3-0.9,0.8-0.9,1.2c0,0.3,0.1,0.6,0.3,0.8c0.1,0.1,0.3,0.2,0.6,0.4V120.6z"/>
			</g>
			<g>
				<path class="st3" d="M149,134.7c-0.1,0-0.2,0-0.3-0.1c-0.1-0.1-0.2-0.2-0.2-0.4v-3.8c0-0.2,0.1-0.3,0.2-0.4
					c0.1-0.1,0.3-0.1,0.5-0.1c0.8,0.3,1.3,0.6,1.6,1c0.3,0.4,0.4,0.9,0.4,1.5c0,0.8-0.4,1.8-2,2.2
					C149.1,134.7,149.1,134.7,149,134.7z M149.5,131.2v2.3c0.6-0.3,0.7-0.7,0.7-1c0-0.4-0.1-0.7-0.2-0.9
					C149.9,131.5,149.8,131.3,149.5,131.2z"/>
			</g>
		</g>
		<g>
			<g>
				<path class="st3" d="M225.4,194.7h-3c-0.3,0-0.5-0.2-0.5-0.5v-2.1c-2.7-0.2-5.1-0.8-7.3-1.8c-0.2-0.1-0.3-0.4-0.3-0.6l1.5-4.9
					c0-0.1,0.1-0.3,0.3-0.3c0.1-0.1,0.3-0.1,0.4,0c0.9,0.5,1.9,0.8,3,1.1c0.9,0.2,1.7,0.4,2.4,0.4v-4l-0.2,0c-2.4-0.7-4.2-1.7-5.5-3
					c-1.3-1.4-2-3-2-4.9c0-2.1,0.7-3.8,2.2-5.1c1.4-1.2,3.2-2,5.5-2.3v-2.9c0-0.3,0.2-0.5,0.5-0.5h3c0.3,0,0.5,0.2,0.5,0.5v2.9
					c2.2,0.2,4.3,0.8,6.3,1.7c0.2,0.1,0.4,0.4,0.3,0.6l-1.9,4.8c-0.1,0.1-0.2,0.2-0.3,0.3c-0.1,0-0.3,0-0.4-0.1
					c-1-0.7-2.3-1.1-4-1.3l0,3.8c2.3,0.6,4.1,1.6,5.4,2.9c1.3,1.4,2,3,2,4.9c0,2.2-0.7,4-2.1,5.3c-1.3,1.2-3.1,2.1-5.3,2.4v2.2
					C225.9,194.5,225.7,194.7,225.4,194.7z M222.9,193.7h2v-2.2c0-0.3,0.2-0.5,0.4-0.5c2.3-0.3,4-1,5.2-2.2c1.2-1.2,1.8-2.7,1.8-4.6
					c0-1.6-0.6-3-1.7-4.2c-1.2-1.2-2.8-2.1-4.9-2.6l-0.4-0.1c-0.2-0.1-0.4-0.3-0.4-0.5v-4.8c0-0.1,0.1-0.3,0.2-0.4
					c0.1-0.1,0.2-0.1,0.4-0.1c1.8,0.2,3.3,0.6,4.4,1.3l1.5-3.8c-1.9-0.8-3.9-1.3-6-1.5c-0.3,0-0.5-0.2-0.5-0.5v-2.9h-2v2.9
					c0,0.3-0.2,0.5-0.5,0.5c-2.3,0.2-4.1,0.9-5.4,2c-1.3,1.1-1.9,2.6-1.9,4.4c0,1.6,0.6,3,1.7,4.2c1.2,1.2,2.9,2.2,5.1,2.8l0.5,0.1
					c0.2,0.1,0.4,0.3,0.4,0.5v5c0,0.1-0.1,0.3-0.2,0.4c-0.1,0.1-0.2,0.1-0.4,0.1c-0.9-0.1-2-0.2-3.1-0.5c-0.9-0.2-1.8-0.5-2.7-0.9
					l-1.2,3.9c2.1,0.9,4.4,1.4,7,1.5c0.3,0,0.5,0.2,0.5,0.5V193.7z"/>
			</g>
			<g>
				<path class="st3" d="M222.4,176.5c-0.1,0-0.1,0-0.2,0c-0.8-0.3-1.3-0.6-1.6-1c-0.3-0.4-0.5-0.9-0.5-1.5c0-0.9,0.4-2,2.2-2.4
					c0.1,0,0.3,0,0.4,0.1c0.1,0.1,0.2,0.2,0.2,0.4v3.9c0,0.2-0.1,0.3-0.2,0.4C222.6,176.4,222.5,176.5,222.4,176.5z M221.9,172.7
					c-0.7,0.3-0.9,0.8-0.9,1.2c0,0.3,0.1,0.6,0.3,0.8c0.1,0.1,0.3,0.2,0.6,0.4V172.7z"/>
			</g>
			<g>
				<path class="st3" d="M225.4,186.9c-0.1,0-0.2,0-0.3-0.1c-0.1-0.1-0.2-0.2-0.2-0.4v-3.8c0-0.2,0.1-0.3,0.2-0.4
					c0.1-0.1,0.3-0.1,0.5-0.1c0.8,0.3,1.3,0.6,1.6,1c0.3,0.4,0.4,0.9,0.4,1.5c0,0.8-0.4,1.8-2,2.2
					C225.5,186.9,225.4,186.9,225.4,186.9z M225.9,183.4v2.3c0.6-0.3,0.7-0.7,0.7-1c0-0.4-0.1-0.7-0.2-0.9
					C226.3,183.7,226.1,183.5,225.9,183.4z"/>
			</g>
		</g>
		<g>
			<g>
				<path class="st3" d="M122.1,235.9h-3c-0.3,0-0.5-0.2-0.5-0.5v-2.1c-2.7-0.2-5.1-0.8-7.3-1.8c-0.2-0.1-0.3-0.4-0.3-0.6l1.5-4.9
					c0-0.1,0.1-0.3,0.3-0.3c0.1-0.1,0.3-0.1,0.4,0c0.9,0.5,1.9,0.8,3,1.1c0.9,0.2,1.7,0.3,2.4,0.4v-4l-0.2,0c-2.4-0.7-4.2-1.7-5.5-3
					c-1.3-1.4-2-3-2-4.9c0-2.1,0.7-3.8,2.2-5.1c1.4-1.2,3.2-2,5.5-2.3v-2.9c0-0.3,0.2-0.5,0.5-0.5h3c0.3,0,0.5,0.2,0.5,0.5v2.9
					c2.2,0.2,4.3,0.8,6.3,1.7c0.2,0.1,0.4,0.4,0.3,0.6l-1.9,4.8c-0.1,0.1-0.2,0.2-0.3,0.3c-0.1,0-0.3,0-0.4-0.1
					c-1-0.7-2.3-1.1-4-1.3l0,3.8c2.3,0.6,4.1,1.6,5.4,2.9c1.3,1.4,2,3,2,4.9c0,2.2-0.7,4-2.1,5.3c-1.3,1.2-3.1,2.1-5.3,2.4v2.2
					C122.6,235.7,122.4,235.9,122.1,235.9z M119.6,234.9h2v-2.2c0-0.3,0.2-0.5,0.4-0.5c2.3-0.3,4-1,5.2-2.2c1.2-1.2,1.8-2.7,1.8-4.6
					c0-1.6-0.6-3-1.7-4.2c-1.2-1.2-2.8-2.1-4.9-2.6l-0.4-0.1c-0.2-0.1-0.4-0.3-0.4-0.5v-4.8c0-0.1,0.1-0.3,0.2-0.4
					c0.1-0.1,0.2-0.1,0.4-0.1c1.8,0.2,3.3,0.6,4.4,1.3l1.5-3.8c-1.9-0.8-3.9-1.3-6-1.5c-0.3,0-0.5-0.2-0.5-0.5v-2.9h-2v2.9
					c0,0.3-0.2,0.5-0.5,0.5c-2.3,0.2-4.1,0.9-5.4,2c-1.3,1.1-1.9,2.6-1.9,4.4c0,1.6,0.6,3,1.7,4.2c1.2,1.2,2.9,2.2,5.1,2.8l0.5,0.1
					c0.2,0.1,0.4,0.3,0.4,0.5v5c0,0.1-0.1,0.3-0.2,0.4c-0.1,0.1-0.2,0.1-0.4,0.1c-0.9-0.1-2-0.2-3.1-0.5c-0.9-0.2-1.8-0.5-2.7-0.9
					l-1.2,3.9c2.1,0.9,4.4,1.4,7,1.5c0.3,0,0.5,0.2,0.5,0.5V234.9z"/>
			</g>
			<g>
				<path class="st3" d="M119.1,217.7c-0.1,0-0.1,0-0.2,0c-0.8-0.3-1.3-0.6-1.6-1c-0.3-0.4-0.5-0.9-0.5-1.5c0-0.9,0.4-2,2.2-2.4
					c0.1,0,0.3,0,0.4,0.1c0.1,0.1,0.2,0.2,0.2,0.4v3.9c0,0.2-0.1,0.3-0.2,0.4C119.3,217.6,119.2,217.7,119.1,217.7z M118.6,214
					c-0.7,0.3-0.9,0.8-0.9,1.2c0,0.3,0.1,0.6,0.3,0.8c0.1,0.1,0.3,0.2,0.6,0.4V214z"/>
			</g>
			<g>
				<path class="st3" d="M122.1,228.1c-0.1,0-0.2,0-0.3-0.1c-0.1-0.1-0.2-0.2-0.2-0.4v-3.8c0-0.2,0.1-0.3,0.2-0.4
					c0.1-0.1,0.3-0.1,0.5-0.1c0.8,0.3,1.3,0.6,1.6,1c0.3,0.4,0.4,0.9,0.4,1.5c0,0.8-0.4,1.8-2,2.2
					C122.2,228.1,122.2,228.1,122.1,228.1z M122.6,224.6v2.3c0.6-0.3,0.7-0.7,0.7-1c0-0.4-0.1-0.7-0.2-0.9
					C123,224.9,122.9,224.8,122.6,224.6z"/>
			</g>
		</g>
	</g>
</g>
</svg>
