<?xml version="1.0" encoding="utf-8"?>
<!-- Generator: Adobe Illustrator 24.3.0, SVG Export Plug-In . SVG Version: 6.00 Build 0)  -->
<svg version="1.1" id="Слой_1" xmlns="http://www.w3.org/2000/svg" xmlns:xlink="http://www.w3.org/1999/xlink" x="0px" y="0px"
	 viewBox="0 0 2507.1 2000" style="enable-background:new 0 0 2507.1 2000;" xml:space="preserve">
<style type="text/css">
	.st0{fill:#74DAEE;}
	.st1{fill:#4A2C6A;}
	.st2{fill:#41B8E1;}
	.st3{fill:#FFDD71;}
	.st4{fill:#FFA22A;}
	.st5{fill:#4A2C76;}
	.st6{fill:#EE8914;}
	.st7{fill:#F4B66D;}
	.st8{fill:#F2A245;}
	.st9{fill:#F5B872;}
	.st10{fill:#FFCCB2;}
	.st11{fill:#FF4A1E;}
	.st12{fill:#FFFFFF;}
	.st13{fill:#6139BC;}
	.st14{fill:#FFB792;}
	.st15{fill:#EAEAEA;}
	.st16{fill:#FF9F23;}
	.st17{fill:#FF7042;}
	.st18{fill:#4CC7F0;}
	.st19{fill:#F2AC8C;}
	.st20{fill:#744DA5;}
	.st21{fill:url(#SVGID_1_);}
	.st22{fill:#F09833;}
	.st23{fill:#7C409C;}
	.st24{fill:#FCEBE3;}
	.st25{fill:#FFE07F;}
	.st26{fill:#FFB893;}
	.st27{fill:#C8D1CE;}
	.st28{fill:#E5E9E7;}
</style>
<g>
	<g>
		<g>
			<g>
				<g>
					<path class="st0" d="M290.8,1822.6c0,0-264-358-44.6-745.6c194.6-343.9,421.6-320.4,588-180.8c70.9,59.4,275.4,7.3,449.4-342.6
						c237.3-477.2,1059.8-187.8,909.9,546.4c-72.6,355.3,220.9,368.2,71.4,723.4L290.8,1822.6z"/>
					<path class="st1" d="M2380.8,1826.4H154.9c-1.2,0-2.2-1-2.2-2.2v-1.7c0-1.2,1-2.2,2.2-2.2h2225.9c1.2,0,2.2,1,2.2,2.2v1.7
						C2383,1825.4,2382,1826.4,2380.8,1826.4z"/>
				</g>
			</g>
			
				<ellipse transform="matrix(0.7471 -0.6647 0.6647 0.7471 -131.7514 731.9265)" class="st0" cx="896" cy="539.1" rx="270.8" ry="195"/>
			<path class="st0" d="M460.5,691.4c-30.7-34.5-35.5-80.4-10.6-102.5c24.9-22.1,69.9-12,100.6,22.5s35.5,80.4,10.6,102.5
				C536.2,735.9,491.2,725.9,460.5,691.4z"/>
			<path class="st0" d="M2173.4,552.5c-10.2-45.1,7.9-87.5,40.3-94.9c32.4-7.3,67,23.3,77.2,68.3s-7.9,87.5-40.3,94.9
				C2218.1,628.1,2183.6,597.5,2173.4,552.5z"/>
		</g>
	</g>
	<g>
		<g>
			<path class="st2" d="M1501.5,1674.9c0,0-49.3-57.5-3-94c0,0,33.8-20.4,61.3-18.8c0,0-39,65.4-26.4,72s38.2-76.1,38.2-76.1
				s76.9-7.5,101.6,4.4c0,0-65.7,53.8-51.9,57c13.8,3.2,84.8-49.6,84.8-49.6s71.5,12.2,67.7,55.8c-3.8,43.6-28.5,57.1-39.3,56
				c-10.8-1.2-74.2-25.4-75.6-16.5s36.8,37.9,63.5,39.2c0,0-50.4,55.6-84,39.6c-33.5-16.1-36.4-41.5-57.3-51
				c-20.9-9.5-38.7-9.5-30.1,0.2c8.6,9.7,46.4,19.2,58.4,40.3c12,21.1,22.7,35.4-12,30.2c-34.7-5.2-91.1-30.6-93.5-59.7
				C1501.5,1674.9,1501.5,1674.9,1501.5,1674.9z"/>
			<g>
				<path class="st2" d="M1738.8,1626.8c0,0-194.3-7.5-237.2,48.1c0,0-9.5,28.4-38.7,54.3l-4.6,12.4c0,0,33.7-35.5,45.7-37.7
					C1504,1704,1485.2,1635.1,1738.8,1626.8z"/>
				<path class="st2" d="M1462.8,1729.2c0,0-41.7,30.8-44.6,86l7.6,0.7c0,0,13.3-57,37.4-79.3
					C1487.3,1714.3,1462.8,1729.2,1462.8,1729.2z"/>
			</g>
		</g>
		<g>
			<path class="st3" d="M993.8,1205.2c0,0,75.4-42.2,40.2-99.5c0,0-28.1-35.2-58.3-44.2c0,0,16.1,85.4,0,87.4
				c-16.1,2-11.1-96.5-11.1-96.5s-79.4-38.2-110.6-35.2c0,0,49.3,83.4,33.2,81.4c-16.1-2-71.4-86.4-71.4-86.4s-81.4-15.1-94.5,33.2
				c-13.1,48.2,8,72.4,20.1,75.4c12.1,3,89.5,2,87.4,12.1c-2,10.1-54.3,26.1-83.4,17.1c0,0,32.2,79.4,74.4,75.4
				c42.2-4,55.3-30.2,81.4-32.2c26.1-2,45.2,5,32.2,12.1s-57.3,2.3-78.4,20.3c-21.1,17.9-38.2,29,1,37c39.2,8,109.6,3,123.6-27.1
				C993.8,1205.2,993.8,1205.2,993.8,1205.2z"/>
			<g>
				<path class="st2" d="M758.5,1060.5c0,0,211.1,68.4,235.2,144.7c0,0-1,34.2,20.1,73.4v15.1c0,0-22.1-51.3-34.2-58.3
					C979.7,1235.4,1026.9,1169,758.5,1060.5z"/>
				<path class="st2" d="M1013.9,1278.6c0,0,32.6,49.4,14,109.6l-8.4-2.2c0,0,8.1-66.3-8.9-99.6
					C993.5,1253,1013.9,1278.6,1013.9,1278.6z"/>
			</g>
		</g>
		<g>
			<path class="st3" d="M1453.9,1542.1c0,0-103.3-57.9-55.1-136.4c0,0,38.6-48.2,79.9-60.6c0,0-22,117.1,0,119.9
				c22,2.8,15.2-132.3,15.2-132.3s108.9-52.4,151.6-48.2c0,0-67.5,114.4-45.5,111.6c22-2.8,97.8-118.5,97.8-118.5
				s111.6-20.7,129.5,45.5c17.9,66.1-11,99.2-27.6,103.3c-16.5,4.1-122.6,2.8-119.9,16.5c2.8,13.8,74.4,35.8,114.4,23.4
				c0,0-44.1,108.9-102,103.3s-75.8-41.3-111.6-44.1s-62,6.9-44.1,16.5s78.5,3.2,107.5,27.8c28.9,24.6,52.4,39.8-1.4,50.8
				s-150.2,4.1-169.5-37.2C1453.9,1542.1,1453.9,1542.1,1453.9,1542.1z"/>
			<g>
				<path class="st2" d="M1776.4,1343.6c0,0-289.4,93.7-322.4,198.4c0,0,1.4,46.8-27.6,100.6v20.7c0,0,30.3-70.3,46.9-79.9
					C1473.2,1583.4,1408.5,1492.4,1776.4,1343.6z"/>
				<path class="st2" d="M1426.4,1642.6c0,0-44.6,67.8-19.2,150.3l11.5-3.1c0,0-11.1-90.9,12.2-136.6
					C1454.2,1607.6,1426.4,1642.6,1426.4,1642.6z"/>
			</g>
		</g>
		<g>
			<path class="st4" d="M482.3,1258.3c0,0-18,15,1.8,34c0,0-17,5.9-22.5,1.9c0,0,1.2,2.1,2.2,2.9c0,0-17.4,1.6-24.9-3.5
				c-7.5-5.1-7.8-94.7,41.3-87.3c0,0,40.9-5.3,39.7,42.4c-1.2,47.7,14.3,46.9,14.3,46.9s-4.2,2.4-6.3,2.5c0,0-3.1-1-3.8-2.6
				c0,0,0.7,2.6,1.6,3.4c0,0-16.7,2.5-25.4-3.4S480.4,1268.3,482.3,1258.3z"/>
			<path class="st5" d="M479.7,1282.7c0,0-14-13.3-19.8-26.3c-4.1-9.2-24.1-46.6,13.2-50.5c0,0,26.6-1.3,38.1,2.9
				c9.1,3.3,23.3,11.9,18.5,46.3l-0.6,11.4L479.7,1282.7z"/>
			<path class="st6" d="M437.1,1548.4c-1.6-39.3-5-73.4-9.2-97.3c-6.6-38-12.5-59.8-12.5-60.1c-0.9-3.3-13.4-16.9-41.2-16.4
				s-25.2,18.1-25.2,18.1l0,0c0,0.6,0.1,1.2,0.2,1.6c0.3,0.9,25.8,93.4,24.7,212.8c0,1.7-0.2,4.6-0.1,6.5c0,0,64.4,1.7,64.4,0
				C440.5,1603.2,439.4,1574.3,437.1,1548.4z"/>
			<path class="st7" d="M445.2,1606.6c0,1.7-0.9,3-2,3h0c-1.1,0-1.9-1.4-1.9-3H386c0,1.7-0.9,3-2,3h0c-1.1,0-2-1.4-1.9-3.1
				c0.3-34.2-1.6-66.1-4.6-94.3c-7.3-70.3-20.9-117.2-21.1-117.9c-0.1-0.4-0.2-1-0.2-1.6c0,0-2.6-17.7,25.2-18.1
				c27.8-0.4,40.3,13.1,41.2,16.4c0.1,0.2,3.4,12.5,7.8,34.8c1.5,7.4,3.1,15.8,4.7,25.3c4.1,23.8,7.6,58,9.2,97.3
				C446.6,1574.3,447.4,1596.2,445.2,1606.6z"/>
			<path class="st8" d="M378,1609.6h216.4c0,0-5-20.4-130.3-17.4C375.4,1594.4,378,1609.6,378,1609.6z"/>
			<g>
				<path class="st9" d="M360.4,1822.6c25.1-127,18.6-204.9,18.6-205.9c-0.1-2,3.5-3.7,5.5-3.8c2,0,10.6-0.6,11.6,1.1
					c1.3,2.2,6.4,98.2-31,208.6H360.4z"/>
			</g>
			<g>
				<path class="st9" d="M562.4,1822.6c-25.1-127-18.6-204.9-18.6-205.9c0.1-2-3.5-3.7-5.5-3.8c-2,0-10.6-0.6-11.6,1.1
					c-1.3,2.2-6.4,98.2,31,208.6H562.4z"/>
			</g>
			<g>
				<path class="st9" d="M602.5,1822.6c-25.1-127-18.6-204.9-18.6-205.9c0.1-2-3.5-3.7-5.5-3.8c-2,0-10.6-0.6-11.6,1.1
					c-1.3,2.2-6.4,98.2,31,208.6H602.5z"/>
			</g>
			<g>
				<path class="st9" d="M400.7,1822.6c25.1-127,18.6-204.9,18.6-205.9c-0.1-2,3.5-3.7,5.5-3.8c2,0,10.6-0.6,11.6,1.1
					c1.3,2.2,6.4,98.2-31,208.6H400.7z"/>
			</g>
			<path class="st6" d="M593.9,1616.1H378.8c-2.8,0-5.1-2.3-5.1-5.1v-1.6c0-2.8,2.3-5.1,5.1-5.1h215.1c2.8,0,5.1,2.3,5.1,5.1v1.6
				C599,1613.8,596.7,1616.1,593.9,1616.1z"/>
			<g>
				<path class="st10" d="M709,1828.1c-7.9,0-24.2,2-31.4-6.7c-7.2-8.7-22.6-13-24.6-15.8c-1.1-1.5,0.4-8.2,1.9-14l0,0
					c3.9-5.3-2.4-12.5-2.4-12.5l20.7,1.4c0,0,9.9,13.1,17.1,23.6c2.8,4,11.1,10,16.1,11.8c6.5,2.3,12.9,3.7,15.3,6.1
					C726,1826,716.9,1828.1,709,1828.1z"/>
				<path class="st11" d="M709,1828.1c-7.9,0-24.2,2-31.4-6.7c-7.2-8.7-22.6-13-24.6-15.8c-1.1-1.5-1.1-7.6,1.9-14l0,0
					c0,0,13,5.3,20.4,15.6c7.4,10.2,27,14.7,31.1,8.8c0,0,0,0,0.1-0.1c6.5,2.3,12.9,3.7,15.3,6.1C726,1826,716.9,1828.1,709,1828.1z
					"/>
				<polygon class="st12" points="653.1,1805.6 661,1822.6 666.3,1823.1 665.5,1808 				"/>
			</g>
			<path class="st5" d="M497.9,1505.3c0,0,115.2,35.7,140.1,56.3s42.1,225.1,42.1,225.1s-3,1.8-9,1.7c-5.6-0.1-17.5-5-17.5-5
				s-50.7-97.1-52.1-120.1c-1.4-23,2.2-42.8-7.7-44.7s-136.6-2.5-151.1-38.2c-14.5-35.7,5.4-66.5,5.4-66.5L497.9,1505.3z"/>
			<g>
				<path class="st10" d="M682.3,1828.1c-7.9,0-24.2,2-31.4-6.7c-7.2-8.7-22.6-13-24.6-15.8c-1.1-1.5,0.4-8.2,1.9-14l0,0
					c3.9-5.3-2.4-12.5-2.4-12.5l20.7,1.4c0,0,9.9,13.1,17.1,23.6c2.8,4,11.1,10,16.1,11.8c6.5,2.3,12.9,3.7,15.3,6.1
					C699.3,1826,690.2,1828.1,682.3,1828.1z"/>
				<path class="st11" d="M682.3,1828.1c-7.9,0-24.2,2-31.4-6.7c-7.2-8.7-22.6-13-24.6-15.8c-1.1-1.5-1.1-7.6,1.9-14l0,0
					c0,0,13,5.3,20.4,15.6c7.4,10.2,27,14.7,31.1,8.8c0,0,0,0,0.1-0.1c6.5,2.3,12.9,3.7,15.3,6.1
					C699.3,1826,690.2,1828.1,682.3,1828.1z"/>
				<polygon class="st11" points="626.3,1805.6 634.3,1822.6 639.6,1823.1 638.8,1808 				"/>
			</g>
			<path class="st13" d="M467.7,1516c0,0,118.7,24.9,143.5,45.5s42.1,225.1,42.1,225.1s-3,1.8-9,1.7c-5.6-0.1-17.5-5-17.5-5
				s-50.7-97.1-52.1-120.1c-1.4-23,2.2-42.8-7.7-44.7s-136.6-2.5-151.1-38.2s5.4-66.5,5.4-66.5L467.7,1516z"/>
			<path class="st10" d="M512.3,1324.6c0.1,0.1-13.8,7.3-24.3,4.4c-9.9-2.7-16.3-15.5-16.2-15.5c4.2-0.8,5.4-6.6,5.3-31.3l1.9,0.4
				l31.8,6.3c0,0-0.7,10-0.7,19.4C510,1316.2,510.5,1323.7,512.3,1324.6z"/>
			<path class="st14" d="M510.8,1288.9c0,0-0.7,10-0.7,19.4c-17.8-0.5-27.2-16.7-31.1-25.7L510.8,1288.9z"/>
			<path class="st10" d="M516.8,1297.8c0,0-42.1,0.7-42.1-25.5c0-26.2-5.5-43.8,21.4-45.4c26.9-1.6,32.1,8.4,34.3,17.2
				S527.7,1296.9,516.8,1297.8z"/>
			<path class="st15" d="M418.6,1437.8c-4.2-17.4,10-51.2,24.7-79.2c13.4-25.4,27.3-45.9,28.5-45.2c35.3,20.9,38.5,3.5,38.5,3.5l0,0
				c0,0,32.1,4.3,41.1,19.9c11.3,19.4,23.4,73.5,35.5,83.8c-1.9,5.7-1.1,8.7,0.9,15.7c0.4,1.5,0.9,2.9,1.4,4.3
				c1.8,4.9,4.1,9,6.1,12.5c-6.1,3.7-18,10.8-26.7,5.7c-13.3-7.8-23.7-31.5-29.6-41c0,0,0-0.1-0.1-0.1c-12.7,72,4.6,88.3-4.2,95.9
				c-9.2,8-22.4-3.8-51.5,8.8c-19,8.3-45.5,20.2-63.3,22.3c-9.3,1.1-16.3-0.5-18.6-6.8C394.8,1519.7,426.5,1471,418.6,1437.8z"/>
			<path class="st12" d="M507.4,1281.9c0,0,0.8,3.3,9.1,2.8c0,0,7-0.4,6.7-4.1C523.2,1280.6,516.5,1278,507.4,1281.9z"/>
			<path class="st15" d="M395.4,1463.4c9.4-13.2,19.3-20.3,25.7-23.8c-1.5-3.8,39.7-54.3,39.7-62.1c0-7.9,11-64,11-64
				s-34.3,2.1-46.2,18.7C410.8,1352.9,379.9,1432.6,395.4,1463.4z"/>
			<path class="st10" d="M421.1,1439.6l68.6,17.9l-6.4,11.6c0,0-83.4-0.6-87.9-5.7C391,1458.3,421.1,1439.6,421.1,1439.6z"/>
			<path class="st16" d="M539,1417.9c5.8,9.4,16.2,33.2,29.6,41c8.7,5.1,20.6-2,26.7-5.7c-2-3.5-4.2-7.5-6.1-12.5
				c-4.9,1.1-10.9,2.6-14.7,3.7C567,1446.7,539,1417.9,539,1417.9z"/>
			<g>
				<polygon class="st17" points="532,1408.5 495.3,1489.9 582.3,1498.2 616.5,1415.5 				"/>
				<path class="st11" d="M616.5,1415.5l40.6-25.8l-40.6,88.8l-34.2,19.7C584.1,1493.7,616.5,1415.5,616.5,1415.5z"/>
			</g>
			<path class="st10" d="M489.7,1457.5c0,0,12.7-5.6,15.9-8.4c2.1-1.8,1.9,0.8,1.7,1.5c-0.4,1.4-0.9,4.4-4.6,6.8
				C497.4,1460.9,489.7,1457.5,489.7,1457.5z"/>
			<path class="st5" d="M512.5,1217.5c0,0-13.4,37.7-32.7,43.8c-19.3,6.1-25.5-1.6-25.5-1.6s14.4-12.7,16.3-33.7
				C470.6,1225.9,502,1201.8,512.5,1217.5z"/>
			<path class="st5" d="M509.5,1220.4c0,0,9.9,7.1,12.7,14.3c2.7,7.3,4.6,22.4,9,21.7c0,0,8.3-23.7-3.2-36.2
				C515.8,1207,509.5,1220.4,509.5,1220.4z"/>
			<path class="st5" d="M511.3,1221.5c0,0-7.1,36.1-31.2,48.9c0,0,23.5-23.2,24.3-46.9C505.2,1199.9,511.3,1221.5,511.3,1221.5z"/>
			<path class="st5" d="M438.8,1293.7c7.5,5.1,24.9,3.5,24.9,3.5c-1-0.9-2.2-3-2.2-3c10.3,5.1,30.5-4.8,30.5-4.8
				c-17.9,0.1-17.9-25.8-12.3-28.1c-0.8-19.3,0.7-43.9,1.5-55c-0.8,0-1.2,0.1-1.2,0.1C431.1,1199,431.3,1288.6,438.8,1293.7z"/>
			<path class="st10" d="M489.7,1457.5c0,0,22.3-4.2,27.2-3.2c4.9,1.1,15.9,5.8,16.7,6.8s-3.2,1.6-6.1,0.4c-3.7-1.5-9.8-0.9-9.8-0.9
				s11.8,3.9,14.7,5.5c0.3,0.2,0.3,0.6,0,0.8c-0.8,0.5-2.7,0.7-5.3,0c-3.8-0.9-10.5-1.5-10.5-1.5l13.4,4.4c0.2,0.1,0.3,0.2,0.3,0.4
				c-0.1,0.7-1.3,1.2-4.5,1.1c-2.5-0.1-10.8-2.3-10.8-2.3l7.1,4.7c0,0-1.9,1.1-5.6-0.5c-2.5-1.1-10.1-3.9-12-3.7
				c-1.8,0.2-11.3,2.8-15.4,1.5s-5.9-1.9-5.9-1.9L489.7,1457.5z"/>
		</g>
		<g>
			<g>
				<path class="st16" d="M464.3,1822.6c2,0,3.6-1.4,4-3.3l19.5-110.6l28.1-159l7.8-44.5l-20-0.6l-3.5,25.8l-24.3,181.4l-14.4,107.5
					C461.2,1821.1,462.6,1822.6,464.3,1822.6z"/>
			</g>
			<path class="st6" d="M500.2,1530.5c12.9,5.7,15.6,19.2,15.6,19.2l7.8-44.5l-20-0.6L500.2,1530.5z"/>
			<g>
				<path class="st16" d="M961.4,1822.6c-2,0-3.6-1.4-4-3.3l-19.5-110.6l-28.1-159l-7.8-44.5l20-0.6l3.5,25.8l24.3,181.4l14.4,107.5
					C964.4,1821.1,963.1,1822.6,961.4,1822.6z"/>
			</g>
			<path class="st18" d="M925.4,1530.5c-12.9,5.7-15.6,19.2-15.6,19.2l-7.8-44.5l20-0.6L925.4,1530.5z"/>
			<path class="st16" d="M449.1,1522.7h515.6c5.7,0,10.3-4.6,10.3-10.3v-1.6c0-5.7-4.6-10.3-10.3-10.3H449.1
				c-5.7,0-10.3,4.6-10.3,10.3v1.6C438.8,1518.1,443.4,1522.7,449.1,1522.7z"/>
		</g>
		<path class="st19" d="M1521.1,1545.3h-97.7c-2.7,0-4.9-2.2-4.9-4.9l0,0c0-2.7,2.2-4.9,4.9-4.9h97.7c2.7,0,4.9,2.2,4.9,4.9l0,0
			C1526,1543.1,1523.8,1545.3,1521.1,1545.3z"/>
		<path class="st19" d="M1521.1,1564.6h-97.7c-2.7,0-4.9-2.2-4.9-4.9l0,0c0-2.7,2.2-4.9,4.9-4.9h97.7c2.7,0,4.9,2.2,4.9,4.9l0,0
			C1526,1562.3,1523.8,1564.6,1521.1,1564.6z"/>
		<g>
			<path class="st5" d="M1541.7,733.7v1058.1c0,16.3-13.2,29.7-29.4,30.2c-0.3,0-0.5,0-0.8,0H982.4c-16.6,0-30.2-13.6-30.2-30.2
				V733.7c0-16.6,13.6-30.2,30.2-30.2h529.1C1528.1,703.5,1541.7,717.1,1541.7,733.7z"/>
			<path class="st13" d="M1572.8,733.7v1058.1c0,16.6-13.6,30.2-30.2,30.2h-529.1c-16.6,0-30.2-13.6-30.2-30.2V733.7
				c0-16.6,13.6-30.2,30.2-30.2h529.1C1559.3,703.5,1572.8,717.1,1572.8,733.7z"/>
			<g>
				<path class="st5" d="M1364.5,745.8h-153.2c-3.3,0-6-2.7-6-6l0,0c0-3.3,2.7-6,6-6h153.2c3.3,0,6,2.7,6,6l0,0
					C1370.5,743.2,1367.8,745.8,1364.5,745.8z"/>
				<path class="st5" d="M1184.1,745.8L1184.1,745.8c-3.3,0-6-2.7-6-6l0,0c0-3.3,2.7-6,6-6l0,0c3.3,0,6,2.7,6,6l0,0
					C1190,743.2,1187.3,745.8,1184.1,745.8z"/>
			</g>
			<path class="st20" d="M1323.9,1760.2c0,10.6-4.3,20.1-11.1,27.1c-7,7-16.6,11.4-27.3,11.4c-21.2,0-38.5-17.2-38.5-38.5
				c0-13.7,7.1-25.6,17.8-32.5c6-3.8,13-6,20.6-6C1306.6,1721.7,1323.9,1738.9,1323.9,1760.2z"/>
			
				<linearGradient id="SVGID_1_" gradientUnits="userSpaceOnUse" x1="1018.6849" y1="762.395" x2="1541.389" y2="762.395" gradientTransform="matrix(1 0 0 -1 0 2000)">
				<stop  offset="0" style="stop-color:#FED747"/>
				<stop  offset="1" style="stop-color:#F94E43"/>
			</linearGradient>
			<rect x="1018.7" y="772.4" class="st21" width="522.7" height="930.4"/>
			<path class="st5" d="M1312.7,1787.2c-7,7-16.6,11.4-27.3,11.4c-21.2,0-38.5-17.2-38.5-38.5c0-13.7,7.1-25.6,17.8-32.5
				C1268.6,1744.1,1279.7,1771.5,1312.7,1787.2z"/>
		</g>
		<path class="st22" d="M1541.7,847.8v366h-497.9c-5.6,0-10.1-4.8-10.1-10.8V858.5c0-5.9,4.6-10.8,10.1-10.8H1541.7z"/>
		<path class="st22" d="M1399.7,1287.4v344.5c0,5.9-4.1,10.8-9.2,10.8h-371.8v-366h371.8C1395.6,1276.6,1399.7,1281.4,1399.7,1287.4
			z"/>
		<path class="st23" d="M1770.4,828.1v344.5c0,5.9-4.8,10.8-10.8,10.8h-697.6c-5.9,0-10.8-4.8-10.8-10.8V828.1
			c0-5.9,4.8-10.8,10.8-10.8h697.6C1765.6,817.3,1770.4,822.2,1770.4,828.1z"/>
		<path class="st24" d="M1770.4,828.1v344.5c0,5.9-5.6,10.8-12.5,10.8h-347v-366h347C1764.8,817.3,1770.4,822.2,1770.4,828.1z"/>
		<g>
			<g>
				<path class="st11" d="M1616.6,865H1486c-2.1,0-3.9-1.8-3.9-3.9l0,0c0-2.2,1.8-3.9,3.9-3.9h130.6c2.1,0,3.9,1.8,3.9,3.9l0,0
					C1620.5,863.2,1618.7,865,1616.6,865z"/>
			</g>
			<g>
				<path class="st11" d="M1616.6,880H1486c-2.1,0-3.9-1.8-3.9-3.9l0,0c0-2.2,1.8-3.9,3.9-3.9h130.6c2.1,0,3.9,1.8,3.9,3.9l0,0
					C1620.5,878.3,1618.7,880,1616.6,880z"/>
			</g>
			<path class="st11" d="M1462.5,865.8h-3.7c-2.4,0-4.4-2-4.4-4.4v-0.7c0-2.4,2-4.4,4.4-4.4h3.7c2.4,0,4.4,2,4.4,4.4v0.7
				C1467,863.8,1465,865.8,1462.5,865.8z"/>
		</g>
		<g>
			<g>
				<path class="st11" d="M1616.6,920.4H1486c-2.1,0-3.9-1.8-3.9-3.9l0,0c0-2.2,1.8-3.9,3.9-3.9h130.6c2.1,0,3.9,1.8,3.9,3.9l0,0
					C1620.5,918.7,1618.7,920.4,1616.6,920.4z"/>
			</g>
			<g>
				<path class="st11" d="M1616.6,935.5H1486c-2.1,0-3.9-1.8-3.9-3.9l0,0c0-2.2,1.8-3.9,3.9-3.9h130.6c2.1,0,3.9,1.8,3.9,3.9l0,0
					C1620.5,933.7,1618.7,935.5,1616.6,935.5z"/>
			</g>
			<path class="st11" d="M1462.5,921.3h-3.7c-2.4,0-4.4-2-4.4-4.4v-0.7c0-2.4,2-4.4,4.4-4.4h3.7c2.4,0,4.4,2,4.4,4.4v0.7
				C1467,919.3,1465,921.3,1462.5,921.3z"/>
		</g>
		<g>
			<g>
				<path class="st11" d="M1616.6,975.3H1486c-2.1,0-3.9-1.8-3.9-3.9l0,0c0-2.2,1.8-3.9,3.9-3.9h130.6c2.1,0,3.9,1.8,3.9,3.9l0,0
					C1620.5,973.5,1618.7,975.3,1616.6,975.3z"/>
			</g>
			<g>
				<path class="st11" d="M1616.6,990.3H1486c-2.1,0-3.9-1.8-3.9-3.9l0,0c0-2.2,1.8-3.9,3.9-3.9h130.6c2.1,0,3.9,1.8,3.9,3.9l0,0
					C1620.5,988.6,1618.7,990.3,1616.6,990.3z"/>
			</g>
			<path class="st11" d="M1462.5,976.1h-3.7c-2.4,0-4.4-2-4.4-4.4V971c0-2.4,2-4.4,4.4-4.4h3.7c2.4,0,4.4,2,4.4,4.4v0.7
				C1467,974.1,1465,976.1,1462.5,976.1z"/>
		</g>
		<g>
			<path class="st11" d="M1426,1251.1v344.5c0,5.9-4.9,10.8-10.8,10.8H717.7c-5.9,0-10.8-4.8-10.8-10.8v-344.5
				c0-5.9,4.8-10.8,10.8-10.8h697.5C1421.1,1240.4,1426,1245.2,1426,1251.1z"/>
			<path class="st25" d="M1426,1251.1v344.5c0,5.9-4.9,10.8-10.8,10.8H1105v-366h310.2C1421.1,1240.4,1426,1245.2,1426,1251.1z"/>
			<path class="st24" d="M800.5,1300.1c-21.4,0-38.7,17.3-38.7,38.7c0,21.4,17.3,38.7,38.7,38.7s38.7-17.3,38.7-38.7
				C839.1,1317.4,821.8,1300.1,800.5,1300.1z M827.2,1340h-26.8c-0.7,0-1.2-0.6-1.2-1.2V1310c0-0.7,0.6-1.2,1.2-1.2s1.2,0.6,1.2,1.2
				v27.6h25.6c0.7,0,1.2,0.6,1.2,1.2S827.9,1340,827.2,1340z"/>
			<path class="st24" d="M796.6,1449.8c-19.2,0-34.8,15.6-34.8,34.8s34.8,62,34.8,62s34.8-42.8,34.8-62S815.8,1449.8,796.6,1449.8z
				 M796.6,1500.6c-9,0-16.3-7.3-16.3-16.3s7.3-16.3,16.3-16.3s16.3,7.3,16.3,16.3S805.6,1500.6,796.6,1500.6z"/>
			<g>
				<path class="st24" d="M992.1,1471.3H865.4c-3.2,0-5.8-2.6-5.8-5.8l0,0c0-3.2,2.6-5.8,5.8-5.8h126.7c3.2,0,5.8,2.6,5.8,5.8l0,0
					C998,1468.6,995.3,1471.3,992.1,1471.3z"/>
			</g>
			<g>
				<path class="st24" d="M958.8,1493.6H865c-3,0-5.4-2.4-5.4-5.4v-0.8c0-3,2.4-5.4,5.4-5.4h93.8c3,0,5.4,2.4,5.4,5.4v0.8
					C964.2,1491.2,961.8,1493.6,958.8,1493.6z"/>
			</g>
			<g>
				<path class="st24" d="M992.1,1333.5H865.4c-3.2,0-5.8-2.6-5.8-5.8l0,0c0-3.2,2.6-5.8,5.8-5.8h126.7c3.2,0,5.8,2.6,5.8,5.8l0,0
					C998,1330.8,995.3,1333.5,992.1,1333.5z"/>
			</g>
			<g>
				<path class="st24" d="M958.8,1355.8H865c-3,0-5.4-2.4-5.4-5.4v-0.8c0-3,2.4-5.4,5.4-5.4h93.8c3,0,5.4,2.4,5.4,5.4v0.8
					C964.2,1353.4,961.8,1355.8,958.8,1355.8z"/>
			</g>
		</g>
		<polygon class="st20" points="1426,1405.3 1426,1346 1299.6,1293.9 1105,1333.9 1105,1414.1 1215.4,1459.1 1215.5,1459.2 
			1426,1405.4 		"/>
		<polygon class="st5" points="1215.2,1459.2 1215.2,1494.5 1105,1446.7 1105,1414.2 		"/>
		<polygon class="st13" points="1426,1405.3 1215.4,1459.1 1215.2,1459.2 1215.2,1494.5 1426,1437 1426,1405.4 		"/>
		<g>
			<path class="st10" d="M1694.5,951.3c-0.7-0.4-1.7-1-2.9-1.7h0l-18.9-15.4c0,0-2.4,1.4,0,4c0.3,0.3,0.7,0.8,1.2,1.3l-7.2-5.6
				c0,0-1.3,1.3-0.4,3.3c0.6,1.4,7.3,7.2,11.1,10.4c-2.3-1.1-5.5-3.5-10.3-8.4c-3-3-2,1.5-1.6,3.5c0.8,3.5,10.2,15.4,13.5,20.7
				c3.3,5.3,4.9,10.6,2.6,8.3c-2.3-2.3-14.8-10-16.2-8.3c-1.3,1.7,6.3,8.3,9.9,13.6s7.6,14.2,20.4,16.2c12.9,2,15.1-4.5,15.1-4.5
				S1700.4,955,1694.5,951.3z"/>
			<path class="st10" d="M2091.9,1272.6c0,0-3.1,30.5-6.6,36.2c-3.4,5.8-19.4,22.5-24.3,27.8c-0.3,0.4-3.5-2.4-1.1-6.5
				c9.7-16.4,7-12.4,3.6-23.2c-1.7-5.3-2.7,10-5.4,10.3c-2.7,0.4-1.8-16.1-1.9-21.2c-0.1-5,13.8-7.4,15.4-25.5
				C2072.7,1259,2091.9,1272.6,2091.9,1272.6z"/>
			<path class="st5" d="M1996.4,960.1c0,0-25.3,124.3-164.7,164.9c-43.5,12.7-142.4-130.6-142.4-130.6s3.5-13.2,25.2-10.2
				c0,0,96.2,63.7,108.4,70.6c10.8,6.1,81.5-79,113.7-92.7C1968.8,948.5,1996.4,960.1,1996.4,960.1z"/>
			<g>
				<path class="st5" d="M2162.8,1741.6c0,0,17.3,15.8,13.9,27c-3.4,11.2-19,18.7-21.1,32.4s-10.5,21.2-18.1,21.2s-36.2,0-36.2,0
					s-5.6-9.6,7.9-12.6c13.5-2.9,18.6-19,17.7-34c-0.8-14.9,1.3-34.9,1.3-34.9l28.7-6.6L2162.8,1741.6z"/>
				<path class="st5" d="M1950.6,1782.4c0,0,3.1,35.9-4.5,39.7l-97.2-0.2c0,0,0-11.2,15.6-13.7c15.6-2.5,43-11.6,47.7-32
					C1916.9,1755.8,1950.6,1782.4,1950.6,1782.4z"/>
				<path class="st17" d="M1868.6,1275.1c0,0,5.1,63,11.1,138.6c8.2,102.8,18,229.1,19,253c1.7,41.5,8.4,108,8.4,108
					s16,15.8,48.1,9.1c0,0,28.6-94.8,36.7-195.2c0.1-1.6,0.3-3.3,0.4-5c7.6-102.2,19.4-317.3,19.4-317.3L1868.6,1275.1z"/>
				<path class="st11" d="M1868.6,1275.1c0,0,5.1,63,11.1,138.6l112.3,174.9c0.1-1.6,0.3-3.3,0.4-5c7.6-102.2,19.4-317.3,19.4-317.3
					L1868.6,1275.1z"/>
				<path class="st17" d="M1892,1282.6c0,0,92.4,228,153.1,335.1c60.7,107.1,79.7,137,79.7,137s34.8-13.7,38-23
					c0,0-23.2-206.8-63.9-257.3c-23-28.5-50-114-51.2-143.9c-1.3-29.9-8.2-89.1-8.2-89.1L1892,1282.6z"/>
			</g>
			<path class="st10" d="M2013.5,931.2c0,0-62.5,30.2-98.5,19c0,0,8.9-11.2,24.4-19.5c-1.2-7.2-2.2-13.5-2.8-18.8
				c-1.5-12.3-1.5-19.2-1.5-19.2l24.1-19l22.9-18.1C1980.3,906.5,2013.5,931.2,2013.5,931.2z"/>
			<path class="st13" d="M2046.5,1253.1c0.1,3.8-8,8.2-11.6,9.8c-26.7,11.7-51.7,19.9-80,22.7c-33.4,3.4-72.9-4.1-86.5-3.8
				c-1.4,0-2.6-0.5-3.7-1.5c-1-0.7-1.7-40.9-1-91.6c0-2,0-4.1,0.1-6.1v-0.7c0.3-19.8,1-40.5,1.9-61.3c1.9-45.6,5.5-89.5,11.6-113.8
				c7.3-28.7,24-47.6,39.1-61.4l12.5-10.9c12.5,2.5,25.6,1.8,38.8-4.6c14.4-7,29.9-14.5,32.4-12.6c18.8,13.8,31.6,44.7,38.4,84.3
				c0,0.2,0.1,0.4,0.1,0.6c3.8,22.6,5.7,47.9,5.6,74.5c0,9.8-0.3,19.9-0.8,29.9c-2.8,45.1-0.9,85.3,0.9,113.1c0.4,5.5,0.7,10.5,1,15
				C2045.9,1242.6,2046.3,1248.8,2046.5,1253.1z"/>
			<path class="st5" d="M2044.3,1219.7c-103.6-119.6-39.3-206.5-39.3-206.5l33.7-10.9c3.8,22.6,5.7,47.9,5.6,74.5
				c0,9.8-0.3,19.9-0.8,29.9C2040.6,1151.7,2042.5,1191.9,2044.3,1219.7z"/>
			<path class="st26" d="M1982.5,875c0,0-15.8,28.8-45.9,36.8c-1.5-12.3-1.5-19.2-1.5-19.2l24.1-19L1982.5,875z"/>
			<path class="st10" d="M1924.1,891.8c0,0,59.6,9.8,65.2-26.9c5.6-36.7,17.1-60.1-20.8-67.9c-37.8-7.8-47.4,5.1-52.3,16.9
				C1911.4,825.7,1908.7,888.3,1924.1,891.8z"/>
			<path class="st5" d="M2011,792.6c0.5-0.6,1.8-1.1,4.6-1.3c0,0-2.2-1.4-5.2-1.5c-0.6-3.9-2.6-10.7-9.3-12.4c0,0,3.6,1.9,4,6
				c-7.7-7.9-24.2-13.7-69.9-10.1c-60.2,4.8-40.4,43.3-32.6,47.9c7.8,4.6,27.4-8,41.9-6.9c14.5,1.2,17.3,22.1,22.2,25
				c4.9,2.9,3-2.2,9.7-5.2c6.7-3,7.3,8,5.4,15.2c-1.9,7.2,7.2,16.7,7.2,16.7s0,0,9.3-10s18-52.2,13.8-61.2
				C2011.7,794.3,2011.4,793.5,2011,792.6z"/>
			<path class="st13" d="M2000.2,917.1c0,0,37.7,17.9,55.8,45.3c28.1,42.6,60.6,197.8,61.2,212.2c0.6,14.4-23.7,115.9-23.7,115.9
				s-24.7-1.6-31-14.1c0,0,4.9-104.3,1.8-111c-3.1-6.7-102.9-139.9-91.7-168.3C1983.7,968.7,2000.2,917.1,2000.2,917.1z"/>
			<path class="st10" d="M2085.3,1308.9l-17.9,29.9c0,0-2.1-0.9-1.8-3c0.3-2.1,5.5-18.3,5.5-18.3L2085.3,1308.9z"/>
			<path class="st10" d="M2067.4,1309.7c0,0-12.9,14.7-10,18l9.3-7.2L2067.4,1309.7z"/>
		</g>
		<path class="st2" d="M1262.2,1346.1c0,0-5.4-1-10.4,2C1251.8,1348,1258.6,1350.4,1262.2,1346.1z"/>
		<g>
			<path class="st24" d="M1253.5,1326.7c-42,3-80.1,5.5-106.8,14.3c-24.6,8.1-39.7,19-39.7,31c0,13.3,16.4,27.6,48.3,33.6
				c26.8,5.1,69,15.4,98.2,11.7c36.6-4.7,69.2-4,94.7-10.8l-11.8-4.3l-82.7-30.3l133.3,3.7l12.5,0.3c0.4-1.3,0.6-2.7,0.6-4
				c0-12.9-17.3-24.5-45-32.7C1328.7,1331.5,1292.8,1323.8,1253.5,1326.7z"/>
			<path class="st11" d="M1387,1375.7l-133.3-3.7l82.7,30.3c-8.2,1.9-17.2,3.4-26.8,4.7c-17,2.3-36.7,0.7-55.9,3.5
				c-31.8,4.6-61.2-6-84.8-8.7c-25.4-2.9-52-18.1-49.1-29.8c3-12.1,20.2-26.1,51-30.2c23.2-3.1,53.7-10.3,85-10.3
				c25.4,0,46.7,6.3,67.2,7.6c38.7,2.4,64.5,19,64.5,32.9C1387.6,1373.3,1387.4,1374.5,1387,1375.7z"/>
			<g>
				<ellipse class="st12" cx="1177.1" cy="1367.9" rx="6.3" ry="2.4"/>
				<path class="st12" d="M1221.4,1356.3c0,1.3-2.8,2.4-6.3,2.4c-3.5,0-6.3-1.1-6.3-2.4c0-1.3,2.8-2.4,6.3-2.4
					C1218.6,1353.9,1221.4,1355,1221.4,1356.3z"/>
				<path class="st12" d="M1197.9,1350c0,1.1-2.3,2-5.2,2c-2.9,0-5.2-0.9-5.2-2c0-1.1,2.3-2,5.2-2
					C1195.6,1348,1197.9,1348.9,1197.9,1350z"/>
				<path class="st12" d="M1244.6,1345.1c0,1.2-2.6,2.2-5.8,2.2c-3.2,0-5.8-1-5.8-2.2s2.6-2.2,5.8-2.2
					C1242,1342.9,1244.6,1343.9,1244.6,1345.1z"/>
				<path class="st12" d="M1244.6,1367.9c0,1.9-4.1,3.5-9.1,3.5c-5,0-9.1-1.6-9.1-3.5s4.1-3.5,9.1-3.5
					C1240.5,1364.4,1244.6,1365.9,1244.6,1367.9z"/>
				<path class="st12" d="M1264.3,1355.2c0,1.3-2.8,2.4-6.3,2.4c-3.5,0-6.3-1.1-6.3-2.4s2.8-2.4,6.3-2.4
					C1261.5,1352.8,1264.3,1353.9,1264.3,1355.2z"/>
				<path class="st12" d="M1293.3,1356.4c0,0.7-1.4,1.2-3.1,1.2s-3.1-0.5-3.1-1.2c0-0.7,1.4-1.2,3.1-1.2
					S1293.3,1355.7,1293.3,1356.4z"/>
				<path class="st12" d="M1280.2,1346.1c0,0.7-1.4,1.2-3.1,1.2s-3.1-0.5-3.1-1.2c0-0.7,1.4-1.2,3.1-1.2
					C1278.8,1344.9,1280.2,1345.4,1280.2,1346.1z"/>
				<path class="st12" d="M1244.6,1384.7c0,0.7-1.4,1.2-3.1,1.2s-3.1-0.5-3.1-1.2c0-0.7,1.4-1.2,3.1-1.2
					S1244.6,1384.1,1244.6,1384.7z"/>
				<path class="st12" d="M1266.1,1390.2c0,0.7-1.4,1.2-3.1,1.2s-3.1-0.5-3.1-1.2c0-0.7,1.4-1.2,3.1-1.2
					S1266.1,1389.5,1266.1,1390.2z"/>
				<path class="st12" d="M1218.6,1380.8c0,1.5-3.2,2.7-7.1,2.7c-3.9,0-7.1-1.2-7.1-2.7c0-1.5,3.2-2.7,7.1-2.7
					C1215.5,1378.1,1218.6,1379.3,1218.6,1380.8z"/>
				<path class="st2" d="M1178,1381.4c0,0-4.6-1.2-9.1,1.2C1168.9,1382.6,1174.8,1385,1178,1381.4z"/>
				<path class="st2" d="M1213.7,1364.3c0,0-6.3-1.6-12.4,1.6C1201.3,1365.9,1209.3,1369.1,1213.7,1364.3z"/>
				<path class="st2" d="M1281.5,1355.2c0,0-6.5,0-11.6,4.6C1269.9,1359.8,1278.4,1361,1281.5,1355.2z"/>
				<path class="st2" d="M1311.6,1358.7c0,0-5.5-3.4-12.3-2.3C1299.3,1356.4,1305.9,1361.9,1311.6,1358.7z"/>
				<path class="st2" d="M1263.4,1368.5c0,0-3.1-4.5-8.7-6C1254.7,1362.5,1257.9,1369,1263.4,1368.5z"/>
				<path class="st2" d="M1252.7,1375c0,0-5.5-0.4-10.1,3.2C1242.6,1378.1,1249.7,1379.6,1252.7,1375z"/>
				<path class="st2" d="M1257.8,1395.3c0,0-4.5-3.1-10.3-2.4C1247.6,1392.8,1252.9,1397.8,1257.8,1395.3z"/>
				<path class="st2" d="M1265.8,1381.7c0,0-5.5-0.2-10,3.5C1255.8,1385.1,1263,1386.4,1265.8,1381.7z"/>
				<path class="st2" d="M1240.8,1356.5c0,0-5.3-1.2-10.4,1.6C1230.3,1358.1,1237.1,1360.7,1240.8,1356.5z"/>
				<path class="st2" d="M1227.1,1350.6c0,0-4.1-3.7-9.9-3.6C1217.2,1346.9,1221.9,1352.4,1227.1,1350.6z"/>
				<path class="st27" d="M1186.5,1384.4L1186.5,1384.4c-6.2,1.6-9.2,4.7-6.9,7l0,0c1.8,1.7,5.8,1.4,10.2,0.4l2.3,2.2
					c0.3,0.3,1.2,0.4,2,0.2l4.4-1.1c0.8-0.2,1.2-0.6,0.9-0.9l-2.3-2.2c4.1-1.2,6.7-2.5,4.8-4.2l0,0
					C1199.6,1383.5,1192.6,1382.9,1186.5,1384.4z"/>
				<path class="st27" d="M1303.4,1344.2L1303.4,1344.2c5,1.3,7.5,3.8,5.6,5.7l0,0c-1.5,1.4-4.7,1.1-8.3,0.3l-1.9,1.8
					c-0.3,0.2-1,0.3-1.7,0.1l-3.6-0.9c-0.7-0.2-1-0.5-0.7-0.8l1.8-1.8c-3.4-1-5.4-2-3.9-3.5l0,0
					C1292.7,1343.5,1298.4,1343,1303.4,1344.2z"/>
				<path class="st27" d="M1231.8,1374.7L1231.8,1374.7c5,1.3,7.5,3.8,5.6,5.7l0,0c-1.5,1.4-4.7,1.1-8.3,0.3l-1.9,1.8
					c-0.3,0.2-1,0.3-1.7,0.1l-3.6-0.9c-0.7-0.2-1-0.5-0.7-0.8l1.8-1.8c-3.4-1-5.4-2-3.9-3.5l0,0
					C1221.1,1373.9,1226.8,1373.4,1231.8,1374.7z"/>
				<path class="st27" d="M1189.3,1355.2L1189.3,1355.2c-5,1.3-7.5,3.8-5.6,5.7l0,0c1.5,1.4,4.7,1.1,8.3,0.3l1.9,1.8
					c0.3,0.2,1,0.3,1.7,0.1l3.6-0.9c0.7-0.2,1-0.5,0.7-0.8l-1.8-1.8c3.4-1,5.4-2,3.9-3.5l0,0
					C1200,1354.4,1194.3,1353.9,1189.3,1355.2z"/>
			</g>
		</g>
		<g>
			<path class="st28" d="M1407.8,1371.9l-115-3.2l-15.7-4.4v3.9l89.8,32.8c27.1-7.1,45.3-17.4,48.6-29v-3.9L1407.8,1371.9z"/>
			<path class="st17" d="M1415.4,1368.2c-3.3,11.6-21.5,21.9-48.6,29l-40.7-14.9l-8.5-3.1c0,0,0,0,0,0l-40.6-14.9L1415.4,1368.2z"/>
			<g>
				<path class="st12" d="M1323.1,1371.4c0,1.3-2.8,2.4-6.3,2.4c-3.5,0-6.3-1.1-6.3-2.4c0-1.3,2.8-2.4,6.3-2.4
					C1320.3,1369,1323.1,1370.1,1323.1,1371.4z"/>
				<path class="st12" d="M1329.7,1380.1c0,1-1.4,1.8-3.6,2.2l-8.5-3.1c0.9-0.9,3.2-1.5,5.8-1.5
					C1326.9,1377.8,1329.7,1378.8,1329.7,1380.1z"/>
				<path class="st12" d="M1352.1,1380.7c0,0.7-1.4,1.2-3.1,1.2s-3.1-0.5-3.1-1.2c0-0.7,1.4-1.2,3.1-1.2
					C1350.7,1379.5,1352.1,1380,1352.1,1380.7z"/>
				<path class="st12" d="M1368.9,1373.8c0,0.7-1.4,1.2-3.1,1.2c-1.7,0-3.1-0.5-3.1-1.2c0-0.7,1.4-1.2,3.1-1.2
					C1367.5,1372.6,1368.9,1373.2,1368.9,1373.8z"/>
				<path class="st12" d="M1337.1,1372c0,0.7-1.4,1.2-3.1,1.2s-3.1-0.5-3.1-1.2c0-0.7,1.4-1.2,3.1-1.2
					C1335.7,1370.8,1337.1,1371.4,1337.1,1372z"/>
				<path class="st12" d="M1353.1,1369.9c0,1.1-2.3,2-5.2,2c-2.9,0-5.2-0.9-5.2-2s2.3-2,5.2-2
					C1350.8,1367.9,1353.1,1368.8,1353.1,1369.9z"/>
				<path class="st12" d="M1347.9,1376.3c0,0.7-1.6,1.3-3.5,1.3c-1.9,0-3.5-0.6-3.5-1.3c0-0.7,1.6-1.3,3.5-1.3
					C1346.4,1375,1347.9,1375.6,1347.9,1376.3z"/>
				<path class="st12" d="M1302.1,1369c0,0.5-1,0.9-2.3,0.9c-1.3,0-2.3-0.4-2.3-0.9c0-0.5,1-0.9,2.3-0.9
					C1301.1,1368.2,1302.1,1368.6,1302.1,1369z"/>
				<path class="st2" d="M1328.7,1372.2c0,0-4.5,0-8.1,3.2C1320.6,1375.4,1326.5,1376.2,1328.7,1372.2z"/>
				<path class="st2" d="M1380.6,1375.2c0,0-3.4-2.9-8.2-2.8C1372.4,1372.4,1376.3,1376.8,1380.6,1375.2z"/>
				<path class="st2" d="M1339.7,1380.1c0,0-3.5-2.8-8.3-2.5C1331.4,1377.6,1335.5,1381.9,1339.7,1380.1z"/>
				<path class="st2" d="M1366.8,1383c0,0-4.5-0.6-8.4,2.2C1358.4,1385.1,1364.2,1386.7,1366.8,1383z"/>
				<path class="st2" d="M1297.8,1366.3c0,0-3.9-0.9-7.6,1.2C1290.2,1367.6,1295.2,1369.4,1297.8,1366.3z"/>
			</g>
		</g>
		<g>
			<g>
				<path class="st28" d="M1132.8,854.7c-18.6,2.7-35.5,4.9-47.3,12.7c-10.9,7.2-17.6,16.8-17.6,27.5c0,11.8,7.3,24.4,21.4,29.8
					c11.9,4.5,30.6,13.7,43.5,10.4c16.2-4.1,30.7-3.6,42-9.5l-5.2-3.8l-36.6-26.8l59,3.3l5.5,0.3c0.2-1.2,0.3-2.4,0.3-3.6
					c0-11.4-7.6-21.6-19.9-28.9C1166.1,858.9,1150.2,852.1,1132.8,854.7z"/>
				<path class="st11" d="M1191.9,898l-59-3.3l36.6,26.8c-3.6,1.6-7.6,3.1-11.9,4.2c-7.5,2-16.3,0.6-24.8,3.1
					c-14.1,4.1-27.1-5.3-37.6-7.7c-11.2-2.6-23-16-21.7-26.4c1.3-10.7,8.9-23.1,22.6-26.8c10.3-2.7,23.8-9.1,37.6-9.1
					c11.2,0,20.7,5.6,29.8,6.7c17.1,2.1,28.6,16.8,28.6,29.1C1192.1,895.9,1192,897,1191.9,898z"/>
				<g>
					<path class="st12" d="M1101.7,891.1c0,1.2-1.2,2.1-2.8,2.1s-2.8-0.9-2.8-2.1c0-1.2,1.2-2.1,2.8-2.1S1101.7,889.9,1101.7,891.1z
						"/>
					<path class="st12" d="M1118.5,880.9c0,1.2-1.2,2.1-2.8,2.1s-2.8-1-2.8-2.1c0-1.2,1.2-2.1,2.8-2.1S1118.5,879.7,1118.5,880.9z"
						/>
					<path class="st12" d="M1108.1,875.3c0,1-1,1.7-2.3,1.7c-1.3,0-2.3-0.8-2.3-1.7c0-1,1-1.7,2.3-1.7
						C1107.1,873.5,1108.1,874.3,1108.1,875.3z"/>
					<path class="st12" d="M1128.8,870.9c0,1.1-1.1,1.9-2.5,1.9c-1.4,0-2.5-0.9-2.5-1.9s1.1-1.9,2.5-1.9
						C1127.7,869,1128.8,869.9,1128.8,870.9z"/>
					<path class="st12" d="M1128.8,891.1c0,1.7-1.8,3.1-4,3.1s-4-1.4-4-3.1s1.8-3.1,4-3.1S1128.8,889.4,1128.8,891.1z"/>
					<path class="st12" d="M1137.5,879.9c0,1.2-1.2,2.1-2.8,2.1c-1.5,0-2.8-1-2.8-2.1c0-1.2,1.2-2.1,2.8-2.1
						C1136.3,877.7,1137.5,878.7,1137.5,879.9z"/>
					<path class="st12" d="M1150.4,880.9c0,0.6-0.6,1.1-1.4,1.1c-0.8,0-1.4-0.5-1.4-1.1s0.6-1.1,1.4-1.1S1150.4,880.3,1150.4,880.9z
						"/>
					<path class="st12" d="M1144.6,871.8c0,0.6-0.6,1.1-1.4,1.1s-1.4-0.5-1.4-1.1s0.6-1.1,1.4-1.1S1144.6,871.2,1144.6,871.8z"/>
					<path class="st12" d="M1128.8,906c0,0.6-0.6,1.1-1.4,1.1c-0.8,0-1.4-0.5-1.4-1.1c0-0.6,0.6-1.1,1.4-1.1
						C1128.2,904.9,1128.8,905.4,1128.8,906z"/>
					<path class="st12" d="M1138.3,910.8c0,0.6-0.6,1.1-1.4,1.1c-0.8,0-1.4-0.5-1.4-1.1s0.6-1.1,1.4-1.1
						C1137.7,909.8,1138.3,910.2,1138.3,910.8z"/>
					<path class="st12" d="M1117.3,902.5c0,1.3-1.4,2.4-3.1,2.4c-1.7,0-3.1-1.1-3.1-2.4c0-1.3,1.4-2.4,3.1-2.4
						C1115.9,900.1,1117.3,901.2,1117.3,902.5z"/>
					<path class="st2" d="M1099.3,903.1c0,0-2.1-1-4.1,1.1C1095.3,904.2,1097.9,906.2,1099.3,903.1z"/>
					<path class="st2" d="M1115.1,888c0,0-2.8-1.4-5.5,1.4C1109.6,889.4,1113.2,892.2,1115.1,888z"/>
					<path class="st2" d="M1145.1,879.9c0,0-2.9,0-5.1,4.1C1140,884,1143.8,885,1145.1,879.9z"/>
					<path class="st2" d="M1158.5,883c0,0-2.4-3-5.4-2C1153,880.9,1155.9,885.8,1158.5,883z"/>
					<path class="st2" d="M1137.1,891.7c0,0-1.4-4-3.9-5.3C1133.3,886.4,1134.7,892.1,1137.1,891.7z"/>
					<path class="st2" d="M1132.4,897.4c0,0-2.4-0.3-4.5,2.8C1127.9,900.2,1131.1,901.5,1132.4,897.4z"/>
					<path class="st2" d="M1134.7,915.4c0,0-2-2.8-4.5-2.2C1130.1,913.2,1132.5,917.5,1134.7,915.4z"/>
					<path class="st2" d="M1138.2,903.3c0,0-2.4-0.2-4.4,3.1C1133.8,906.4,1136.9,907.5,1138.2,903.3z"/>
					<path class="st2" d="M1127.1,881.1c0,0-2.4-1.1-4.6,1.4C1122.5,882.5,1125.5,884.7,1127.1,881.1z"/>
					<path class="st2" d="M1121,875.8c0,0-1.8-3.2-4.4-3.2C1116.6,872.6,1118.7,877.4,1121,875.8z"/>
					<path class="st27" d="M1103.1,905.8L1103.1,905.8c-2.7,1.4-4.1,4.2-3,6.2l0,0c0.8,1.5,2.5,1.2,4.5,0.4l1,1.9
						c0.1,0.3,0.5,0.3,0.9,0.2l1.9-1c0.4-0.2,0.5-0.6,0.4-0.8l-1-1.9c1.8-1.1,3-2.2,2.1-3.8l0,0
						C1108.9,904.9,1105.8,904.4,1103.1,905.8z"/>
					<path class="st27" d="M1154.8,870.2L1154.8,870.2c2.2,1.1,3.3,3.4,2.5,5.1l0,0c-0.6,1.2-2.1,1-3.7,0.3l-0.8,1.6
						c-0.1,0.2-0.4,0.3-0.7,0.1l-1.6-0.8c-0.3-0.1-0.4-0.4-0.3-0.7l0.8-1.6c-1.5-0.9-2.4-1.8-1.7-3.1l0,0
						C1150.1,869.5,1152.6,869.1,1154.8,870.2z"/>
					<path class="st27" d="M1123.1,897.1L1123.1,897.1c2.2,1.1,3.3,3.4,2.5,5.1l0,0c-0.6,1.2-2.1,1-3.7,0.3l-0.8,1.6
						c-0.1,0.2-0.4,0.3-0.7,0.1l-1.6-0.8c-0.3-0.1-0.4-0.4-0.3-0.7l0.8-1.6c-1.5-0.9-2.4-1.8-1.7-3.1l0,0
						C1118.4,896.4,1120.9,896,1123.1,897.1z"/>
					<path class="st27" d="M1104.3,879.9L1104.3,879.9c-2.2,1.1-3.3,3.4-2.5,5.1l0,0c0.6,1.2,2.1,1,3.7,0.3l0.8,1.6
						c0.1,0.2,0.4,0.3,0.7,0.1l1.6-0.8c0.3-0.1,0.4-0.4,0.3-0.7l-0.8-1.6c1.5-0.9,2.4-1.8,1.7-3.1l0,0
						C1109.1,879.2,1106.5,878.8,1104.3,879.9z"/>
				</g>
			</g>
			<g>
				<path class="st28" d="M1201.1,894.7l-51-2.8l-7-3.9v3.5l39.8,29c12-6.3,20.1-15.4,21.5-25.7v-3.5L1201.1,894.7z"/>
				<path class="st17" d="M1204.4,891.4c-1.5,10.3-9.5,19.4-21.5,25.7l-18-13.2l-3.8-2.7c0,0,0,0,0,0l-18-13.1L1204.4,891.4z"/>
				<g>
					<path class="st12" d="M1163.6,894.3c0,1.2-1.2,2.1-2.8,2.1s-2.8-0.9-2.8-2.1s1.2-2.1,2.8-2.1S1163.6,893.1,1163.6,894.3z"/>
					<path class="st12" d="M1166.5,902c0,0.8-0.6,1.6-1.6,1.9l-3.8-2.7c0.4-0.8,1.4-1.3,2.6-1.3
						C1165.2,899.8,1166.5,900.8,1166.5,902z"/>
					<path class="st12" d="M1176.4,902.4c0,0.6-0.6,1.1-1.4,1.1s-1.4-0.5-1.4-1.1c0-0.6,0.6-1.1,1.4-1.1S1176.4,901.9,1176.4,902.4z
						"/>
					<path class="st12" d="M1183.8,896.4c0,0.6-0.6,1.1-1.4,1.1s-1.4-0.5-1.4-1.1c0-0.6,0.6-1.1,1.4-1.1S1183.8,895.8,1183.8,896.4z
						"/>
					<path class="st12" d="M1169.8,894.8c0,0.6-0.6,1.1-1.4,1.1c-0.8,0-1.4-0.5-1.4-1.1c0-0.6,0.6-1.1,1.4-1.1
						C1169.1,893.7,1169.8,894.2,1169.8,894.8z"/>
					<path class="st12" d="M1176.9,892.9c0,1-1,1.7-2.3,1.7c-1.3,0-2.3-0.8-2.3-1.7c0-1,1-1.7,2.3-1.7
						C1175.8,891.2,1176.9,891.9,1176.9,892.9z"/>
					<path class="st12" d="M1174.6,898.6c0,0.7-0.7,1.2-1.5,1.2c-0.9,0-1.5-0.5-1.5-1.2c0-0.7,0.7-1.2,1.5-1.2
						C1173.9,897.4,1174.6,897.9,1174.6,898.6z"/>
					<path class="st12" d="M1154.3,892.1c0,0.4-0.5,0.8-1,0.8c-0.6,0-1-0.3-1-0.8s0.5-0.8,1-0.8
						C1153.8,891.4,1154.3,891.7,1154.3,892.1z"/>
					<path class="st2" d="M1166,894.9c0,0-2,0-3.6,2.8C1162.5,897.8,1165.1,898.5,1166,894.9z"/>
					<path class="st2" d="M1189,897.6c0,0-1.5-2.6-3.6-2.5C1185.4,895.1,1187.1,899,1189,897.6z"/>
					<path class="st2" d="M1170.9,901.9c0,0-1.6-2.5-3.7-2.2C1167.2,899.7,1169,903.5,1170.9,901.9z"/>
					<path class="st2" d="M1182.9,904.5c0,0-2-0.5-3.7,1.9C1179.2,906.4,1181.8,907.7,1182.9,904.5z"/>
					<path class="st2" d="M1152.4,889.8c0,0-1.7-0.8-3.4,1.1C1149,890.8,1151.2,892.4,1152.4,889.8z"/>
				</g>
			</g>
		</g>
		<g>
			<g>
				<path class="st28" d="M1295.9,960.8c-18.6,2.7-35.5,4.9-47.3,12.7c-10.9,7.2-17.6,16.8-17.6,27.5c0,11.8,7.3,24.4,21.4,29.8
					c11.9,4.5,30.6,13.7,43.5,10.4c16.2-4.1,30.7-3.6,42-9.5l-5.2-3.8l-36.6-26.8l59,3.3l5.5,0.3c0.2-1.2,0.3-2.4,0.3-3.6
					c0-11.4-7.6-21.6-19.9-28.9C1329.2,965.1,1313.3,958.3,1295.9,960.8z"/>
				<path class="st11" d="M1355,1004.2l-59-3.3l36.6,26.8c-3.6,1.6-7.6,3.1-11.9,4.2c-7.5,2-16.3,0.6-24.8,3.1
					c-14.1,4.1-27.1-5.3-37.6-7.7c-11.2-2.6-23-16-21.7-26.4c1.3-10.7,8.9-23.1,22.6-26.8c10.3-2.7,23.8-9.1,37.6-9.1
					c11.2,0,20.7,5.6,29.8,6.7c17.1,2.1,28.6,16.8,28.6,29.1C1355.3,1002,1355.2,1003.1,1355,1004.2z"/>
				<g>
					<path class="st12" d="M1264.8,997.2c0,1.2-1.2,2.1-2.8,2.1c-1.5,0-2.8-1-2.8-2.1c0-1.2,1.2-2.1,2.8-2.1
						C1263.6,995.1,1264.8,996.1,1264.8,997.2z"/>
					<path class="st12" d="M1281.7,987c0,1.2-1.2,2.1-2.8,2.1s-2.8-1-2.8-2.1s1.2-2.1,2.8-2.1S1281.7,985.9,1281.7,987z"/>
					<path class="st12" d="M1271.3,981.4c0,1-1,1.7-2.3,1.7c-1.3,0-2.3-0.8-2.3-1.7c0-1,1-1.7,2.3-1.7
						C1270.2,979.7,1271.3,980.5,1271.3,981.4z"/>
					<path class="st12" d="M1291.9,977.1c0,1.1-1.1,1.9-2.5,1.9c-1.4,0-2.5-0.9-2.5-1.9c0-1.1,1.1-1.9,2.5-1.9
						C1290.8,975.1,1291.9,976,1291.9,977.1z"/>
					<path class="st12" d="M1291.9,997.2c0,1.7-1.8,3.1-4,3.1s-4-1.4-4-3.1c0-1.7,1.8-3.1,4-3.1S1291.9,995.5,1291.9,997.2z"/>
					<path class="st12" d="M1300.7,986c0,1.2-1.2,2.1-2.8,2.1s-2.8-1-2.8-2.1c0-1.2,1.2-2.1,2.8-2.1S1300.7,984.8,1300.7,986z"/>
					<path class="st12" d="M1313.5,987.1c0,0.6-0.6,1.1-1.4,1.1s-1.4-0.5-1.4-1.1c0-0.6,0.6-1.1,1.4-1.1S1313.5,986.5,1313.5,987.1z
						"/>
					<path class="st12" d="M1307.7,978c0,0.6-0.6,1.1-1.4,1.1c-0.8,0-1.4-0.5-1.4-1.1c0-0.6,0.6-1.1,1.4-1.1
						C1307.1,976.9,1307.7,977.4,1307.7,978z"/>
					<path class="st12" d="M1291.9,1012.1c0,0.6-0.6,1.1-1.4,1.1s-1.4-0.5-1.4-1.1c0-0.6,0.6-1.1,1.4-1.1
						S1291.9,1011.6,1291.9,1012.1z"/>
					<path class="st12" d="M1301.4,1017c0,0.6-0.6,1.1-1.4,1.1s-1.4-0.5-1.4-1.1s0.6-1.1,1.4-1.1S1301.4,1016.4,1301.4,1017z"/>
					<path class="st12" d="M1280.4,1008.7c0,1.3-1.4,2.4-3.1,2.4s-3.1-1.1-3.1-2.4c0-1.3,1.4-2.4,3.1-2.4
						S1280.4,1007.3,1280.4,1008.7z"/>
					<path class="st2" d="M1262.5,1009.2c0,0-2.1-1-4.1,1.1C1258.4,1010.3,1261,1012.4,1262.5,1009.2z"/>
					<path class="st2" d="M1278.3,994.1c0,0-2.8-1.4-5.5,1.4C1272.8,995.5,1276.3,998.4,1278.3,994.1z"/>
					<path class="st2" d="M1308.3,986c0,0-2.9,0-5.1,4.1C1303.1,990.1,1306.9,991.1,1308.3,986z"/>
					<path class="st2" d="M1321.6,989.1c0,0-2.4-3-5.4-2C1316.2,987.1,1319.1,991.9,1321.6,989.1z"/>
					<path class="st2" d="M1300.2,997.8c0,0-1.4-4-3.9-5.3C1296.4,992.5,1297.8,998.3,1300.2,997.8z"/>
					<path class="st2" d="M1295.5,1003.5c0,0-2.4-0.3-4.5,2.8C1291.1,1006.3,1294.2,1007.6,1295.5,1003.5z"/>
					<path class="st2" d="M1297.8,1021.5c0,0-2-2.8-4.5-2.2C1293.3,1019.3,1295.6,1023.7,1297.8,1021.5z"/>
					<path class="st2" d="M1301.3,1009.4c0,0-2.4-0.2-4.4,3.1C1296.9,1012.5,1300.1,1013.6,1301.3,1009.4z"/>
					<path class="st2" d="M1290.2,987.2c0,0-2.4-1.1-4.6,1.4C1285.6,988.6,1288.6,990.9,1290.2,987.2z"/>
					<path class="st2" d="M1284.2,981.9c0,0-1.8-3.2-4.4-3.2C1279.8,978.7,1281.9,983.6,1284.2,981.9z"/>
					<path class="st27" d="M1266.2,1011.9L1266.2,1011.9c-2.7,1.4-4.1,4.2-3,6.2l0,0c0.8,1.5,2.5,1.2,4.5,0.4l1,1.9
						c0.1,0.3,0.5,0.3,0.9,0.2l1.9-1c0.4-0.2,0.5-0.5,0.4-0.8l-1-1.9c1.8-1.1,3-2.2,2.1-3.8l0,0
						C1272,1011.1,1268.9,1010.5,1266.2,1011.9z"/>
					<path class="st27" d="M1318,976.3L1318,976.3c2.2,1.1,3.3,3.4,2.5,5.1l0,0c-0.6,1.2-2.1,1-3.7,0.3l-0.8,1.6
						c-0.1,0.2-0.4,0.3-0.7,0.1l-1.6-0.8c-0.3-0.1-0.4-0.4-0.3-0.7l0.8-1.6c-1.5-0.9-2.4-1.8-1.7-3.1l0,0
						C1313.2,975.6,1315.8,975.2,1318,976.3z"/>
					<path class="st27" d="M1286.3,1003.3L1286.3,1003.3c2.2,1.1,3.3,3.4,2.5,5.1l0,0c-0.6,1.2-2.1,1-3.7,0.3l-0.8,1.6
						c-0.1,0.2-0.4,0.3-0.7,0.1l-1.6-0.8c-0.3-0.1-0.4-0.4-0.3-0.7l0.8-1.6c-1.5-0.9-2.4-1.8-1.7-3.1l0,0
						C1281.5,1002.6,1284,1002.1,1286.3,1003.3z"/>
					<path class="st27" d="M1267.5,986L1267.5,986c-2.2,1.1-3.3,3.4-2.5,5.1l0,0c0.6,1.2,2.1,1,3.7,0.3l0.8,1.6
						c0.1,0.2,0.4,0.3,0.7,0.1l1.6-0.8c0.3-0.1,0.4-0.4,0.3-0.7l-0.8-1.6c1.5-0.9,2.4-1.8,1.7-3.1l0,0
						C1272.2,985.3,1269.7,984.9,1267.5,986z"/>
				</g>
			</g>
			<g>
				<path class="st28" d="M1364.2,1000.8l-51-2.8l-7-3.9v3.5l39.8,29c12-6.3,20.1-15.4,21.5-25.7v-3.5L1364.2,1000.8z"/>
				<path class="st17" d="M1367.6,997.5c-1.5,10.3-9.5,19.4-21.5,25.7l-18-13.2l-3.8-2.7c0,0,0,0,0,0l-18-13.1L1367.6,997.5z"/>
				<g>
					<path class="st12" d="M1326.7,1000.4c0,1.2-1.2,2.1-2.8,2.1c-1.5,0-2.8-0.9-2.8-2.1c0-1.2,1.2-2.1,2.8-2.1
						C1325.4,998.3,1326.7,999.2,1326.7,1000.4z"/>
					<path class="st12" d="M1329.6,1008.1c0,0.8-0.6,1.6-1.6,1.9l-3.8-2.7c0.4-0.8,1.4-1.3,2.6-1.3
						C1328.4,1006,1329.6,1006.9,1329.6,1008.1z"/>
					<path class="st12" d="M1339.5,1008.6c0,0.6-0.6,1.1-1.4,1.1c-0.8,0-1.4-0.5-1.4-1.1s0.6-1.1,1.4-1.1
						C1338.9,1007.5,1339.5,1008,1339.5,1008.6z"/>
					<path class="st12" d="M1347,1002.5c0,0.6-0.6,1.1-1.4,1.1s-1.4-0.5-1.4-1.1s0.6-1.1,1.4-1.1S1347,1001.9,1347,1002.5z"/>
					<path class="st12" d="M1332.9,1000.9c0,0.6-0.6,1.1-1.4,1.1s-1.4-0.5-1.4-1.1c0-0.6,0.6-1.1,1.4-1.1
						S1332.9,1000.3,1332.9,1000.9z"/>
					<path class="st12" d="M1340,999.1c0,1-1,1.7-2.3,1.7c-1.3,0-2.3-0.8-2.3-1.7c0-1,1-1.7,2.3-1.7
						C1339,997.3,1340,998.1,1340,999.1z"/>
					<path class="st12" d="M1337.7,1004.7c0,0.7-0.7,1.2-1.5,1.2c-0.9,0-1.5-0.5-1.5-1.2c0-0.7,0.7-1.2,1.5-1.2
						C1337,1003.5,1337.7,1004.1,1337.7,1004.7z"/>
					<path class="st12" d="M1317.4,998.3c0,0.4-0.5,0.8-1,0.8c-0.6,0-1-0.3-1-0.8c0-0.4,0.5-0.8,1-0.8
						C1317,997.5,1317.4,997.8,1317.4,998.3z"/>
					<path class="st2" d="M1329.2,1001.1c0,0-2,0-3.6,2.8C1325.6,1003.9,1328.2,1004.6,1329.2,1001.1z"/>
					<path class="st2" d="M1352.2,1003.7c0,0-1.5-2.6-3.6-2.5C1348.5,1001.3,1350.3,1005.2,1352.2,1003.7z"/>
					<path class="st2" d="M1334,1008.1c0,0-1.6-2.5-3.7-2.2C1330.4,1005.8,1332.2,1009.7,1334,1008.1z"/>
					<path class="st2" d="M1346.1,1010.6c0,0-2-0.5-3.7,1.9C1342.3,1012.5,1344.9,1013.9,1346.1,1010.6z"/>
					<path class="st2" d="M1315.5,995.9c0,0-1.7-0.8-3.4,1.1C1312.2,997,1314.3,998.6,1315.5,995.9z"/>
				</g>
			</g>
		</g>
		<g>
			<g>
				<path class="st28" d="M1132.8,1072.6c-18.6,2.7-35.5,4.9-47.3,12.7c-10.9,7.2-17.6,16.8-17.6,27.5c0,11.8,7.3,24.4,21.4,29.8
					c11.9,4.5,30.6,13.7,43.5,10.4c16.2-4.1,30.7-3.6,42-9.5l-5.2-3.8l-36.6-26.8l59,3.3l5.5,0.3c0.2-1.2,0.3-2.4,0.3-3.6
					c0-11.4-7.6-21.6-19.9-28.9C1166.1,1076.8,1150.2,1070.1,1132.8,1072.6z"/>
				<path class="st11" d="M1191.9,1115.9l-59-3.3l36.6,26.8c-3.6,1.6-7.6,3.1-11.9,4.2c-7.5,2-16.3,0.6-24.8,3.1
					c-14.1,4.1-27.1-5.3-37.6-7.7c-11.2-2.6-23-16-21.7-26.4c1.3-10.7,8.9-23.1,22.6-26.8c10.3-2.7,23.8-9.1,37.6-9.1
					c11.2,0,20.7,5.6,29.8,6.7c17.1,2.1,28.6,16.8,28.6,29.1C1192.1,1113.8,1192,1114.9,1191.9,1115.9z"/>
				<g>
					<path class="st12" d="M1101.7,1109c0,1.2-1.2,2.1-2.8,2.1s-2.8-0.9-2.8-2.1s1.2-2.1,2.8-2.1S1101.7,1107.8,1101.7,1109z"/>
					<path class="st12" d="M1118.5,1098.8c0,1.2-1.2,2.1-2.8,2.1s-2.8-0.9-2.8-2.1c0-1.2,1.2-2.1,2.8-2.1
						S1118.5,1097.6,1118.5,1098.8z"/>
					<path class="st12" d="M1108.1,1093.2c0,1-1,1.7-2.3,1.7c-1.3,0-2.3-0.8-2.3-1.7c0-1,1-1.7,2.3-1.7
						C1107.1,1091.4,1108.1,1092.2,1108.1,1093.2z"/>
					<path class="st12" d="M1128.8,1088.8c0,1.1-1.1,1.9-2.5,1.9c-1.4,0-2.5-0.9-2.5-1.9c0-1.1,1.1-1.9,2.5-1.9
						C1127.7,1086.9,1128.8,1087.8,1128.8,1088.8z"/>
					<path class="st12" d="M1128.8,1109c0,1.7-1.8,3.1-4,3.1s-4-1.4-4-3.1s1.8-3.1,4-3.1S1128.8,1107.3,1128.8,1109z"/>
					<path class="st12" d="M1137.5,1097.8c0,1.2-1.2,2.1-2.8,2.1c-1.5,0-2.8-0.9-2.8-2.1c0-1.2,1.2-2.1,2.8-2.1
						C1136.3,1095.7,1137.5,1096.6,1137.5,1097.8z"/>
					<path class="st12" d="M1150.4,1098.8c0,0.6-0.6,1.1-1.4,1.1c-0.8,0-1.4-0.5-1.4-1.1s0.6-1.1,1.4-1.1
						S1150.4,1098.2,1150.4,1098.8z"/>
					<path class="st12" d="M1144.6,1089.7c0,0.6-0.6,1.1-1.4,1.1s-1.4-0.5-1.4-1.1c0-0.6,0.6-1.1,1.4-1.1
						S1144.6,1089.1,1144.6,1089.7z"/>
					<path class="st12" d="M1128.8,1123.9c0,0.6-0.6,1.1-1.4,1.1c-0.8,0-1.4-0.5-1.4-1.1c0-0.6,0.6-1.1,1.4-1.1
						C1128.2,1122.8,1128.8,1123.3,1128.8,1123.9z"/>
					<path class="st12" d="M1138.3,1128.7c0,0.6-0.6,1.1-1.4,1.1c-0.8,0-1.4-0.5-1.4-1.1c0-0.6,0.6-1.1,1.4-1.1
						C1137.7,1127.7,1138.3,1128.1,1138.3,1128.7z"/>
					<path class="st12" d="M1117.3,1120.4c0,1.3-1.4,2.4-3.1,2.4c-1.7,0-3.1-1.1-3.1-2.4s1.4-2.4,3.1-2.4
						C1115.9,1118,1117.3,1119.1,1117.3,1120.4z"/>
					<path class="st2" d="M1099.3,1121c0,0-2.1-1-4.1,1.1C1095.3,1122.1,1097.9,1124.2,1099.3,1121z"/>
					<path class="st2" d="M1115.1,1105.9c0,0-2.8-1.4-5.5,1.4C1109.6,1107.3,1113.2,1110.1,1115.1,1105.9z"/>
					<path class="st2" d="M1145.1,1097.8c0,0-2.9,0-5.1,4.1C1140,1101.9,1143.8,1102.9,1145.1,1097.8z"/>
					<path class="st2" d="M1158.5,1100.9c0,0-2.4-3-5.4-2C1153,1098.9,1155.9,1103.7,1158.5,1100.9z"/>
					<path class="st2" d="M1137.1,1109.6c0,0-1.4-4-3.9-5.3C1133.3,1104.3,1134.7,1110,1137.1,1109.6z"/>
					<path class="st2" d="M1132.4,1115.3c0,0-2.4-0.3-4.5,2.8C1127.9,1118.1,1131.1,1119.4,1132.4,1115.3z"/>
					<path class="st2" d="M1134.7,1133.3c0,0-2-2.8-4.5-2.2C1130.1,1131.1,1132.5,1135.4,1134.7,1133.3z"/>
					<path class="st2" d="M1138.2,1121.2c0,0-2.4-0.2-4.4,3.1C1133.8,1124.3,1136.9,1125.4,1138.2,1121.2z"/>
					<path class="st2" d="M1127.1,1099c0,0-2.4-1.1-4.6,1.4C1122.5,1100.4,1125.5,1102.6,1127.1,1099z"/>
					<path class="st2" d="M1121,1093.7c0,0-1.8-3.2-4.4-3.2C1116.6,1090.5,1118.7,1095.3,1121,1093.7z"/>
					<path class="st27" d="M1103.1,1123.7L1103.1,1123.7c-2.7,1.4-4.1,4.2-3,6.2l0,0c0.8,1.5,2.5,1.2,4.5,0.4l1,1.9
						c0.1,0.3,0.5,0.3,0.9,0.2l1.9-1c0.4-0.2,0.5-0.6,0.4-0.8l-1-1.9c1.8-1.1,3-2.2,2.1-3.8l0,0
						C1108.9,1122.8,1105.8,1122.3,1103.1,1123.7z"/>
					<path class="st27" d="M1154.8,1088.1L1154.8,1088.1c2.2,1.1,3.3,3.4,2.5,5.1l0,0c-0.6,1.2-2.1,1-3.7,0.3l-0.8,1.6
						c-0.1,0.2-0.4,0.3-0.7,0.1l-1.6-0.8c-0.3-0.1-0.4-0.4-0.3-0.7l0.8-1.6c-1.5-0.9-2.4-1.8-1.7-3.1l0,0
						C1150.1,1087.4,1152.6,1087,1154.8,1088.1z"/>
					<path class="st27" d="M1123.1,1115L1123.1,1115c2.2,1.1,3.3,3.4,2.5,5.1l0,0c-0.6,1.2-2.1,1-3.7,0.3l-0.8,1.6
						c-0.1,0.2-0.4,0.3-0.7,0.1l-1.6-0.8c-0.3-0.1-0.4-0.4-0.3-0.7l0.8-1.6c-1.5-0.9-2.4-1.8-1.7-3.1l0,0
						C1118.4,1114.3,1120.9,1113.9,1123.1,1115z"/>
					<path class="st27" d="M1104.3,1097.8L1104.3,1097.8c-2.2,1.1-3.3,3.4-2.5,5.1l0,0c0.6,1.2,2.1,1,3.7,0.3l0.8,1.6
						c0.1,0.2,0.4,0.3,0.7,0.1l1.6-0.8c0.3-0.1,0.4-0.4,0.3-0.7l-0.8-1.6c1.5-0.9,2.4-1.8,1.7-3.1l0,0
						C1109.1,1097.1,1106.5,1096.7,1104.3,1097.8z"/>
				</g>
			</g>
			<g>
				<path class="st28" d="M1201.1,1112.6l-51-2.8l-7-3.9v3.5l39.8,29c12-6.3,20.1-15.4,21.5-25.7v-3.5L1201.1,1112.6z"/>
				<path class="st17" d="M1204.4,1109.3c-1.5,10.3-9.5,19.4-21.5,25.7l-18-13.2l-3.8-2.7c0,0,0,0,0,0l-18-13.1L1204.4,1109.3z"/>
				<g>
					<path class="st12" d="M1163.6,1112.2c0,1.2-1.2,2.1-2.8,2.1s-2.8-0.9-2.8-2.1c0-1.2,1.2-2.1,2.8-2.1S1163.6,1111,1163.6,1112.2
						z"/>
					<path class="st12" d="M1166.5,1119.9c0,0.8-0.6,1.6-1.6,1.9l-3.8-2.7c0.4-0.8,1.4-1.3,2.6-1.3
						C1165.2,1117.7,1166.5,1118.7,1166.5,1119.9z"/>
					<path class="st12" d="M1176.4,1120.3c0,0.6-0.6,1.1-1.4,1.1s-1.4-0.5-1.4-1.1c0-0.6,0.6-1.1,1.4-1.1
						S1176.4,1119.8,1176.4,1120.3z"/>
					<path class="st12" d="M1183.8,1114.3c0,0.6-0.6,1.1-1.4,1.1s-1.4-0.5-1.4-1.1s0.6-1.1,1.4-1.1S1183.8,1113.7,1183.8,1114.3z"/>
					<path class="st12" d="M1169.8,1112.7c0,0.6-0.6,1.1-1.4,1.1c-0.8,0-1.4-0.5-1.4-1.1s0.6-1.1,1.4-1.1
						C1169.1,1111.6,1169.8,1112.1,1169.8,1112.7z"/>
					<path class="st12" d="M1176.9,1110.8c0,1-1,1.7-2.3,1.7c-1.3,0-2.3-0.8-2.3-1.7c0-1,1-1.7,2.3-1.7
						C1175.8,1109.1,1176.9,1109.9,1176.9,1110.8z"/>
					<path class="st12" d="M1174.6,1116.5c0,0.7-0.7,1.2-1.5,1.2c-0.9,0-1.5-0.5-1.5-1.2s0.7-1.2,1.5-1.2
						C1173.9,1115.3,1174.6,1115.8,1174.6,1116.5z"/>
					<path class="st12" d="M1154.3,1110c0,0.4-0.5,0.8-1,0.8c-0.6,0-1-0.3-1-0.8s0.5-0.8,1-0.8
						C1153.8,1109.3,1154.3,1109.6,1154.3,1110z"/>
					<path class="st2" d="M1166,1112.8c0,0-2,0-3.6,2.8C1162.5,1115.7,1165.1,1116.4,1166,1112.8z"/>
					<path class="st2" d="M1189,1115.5c0,0-1.5-2.6-3.6-2.5C1185.4,1113,1187.1,1116.9,1189,1115.5z"/>
					<path class="st2" d="M1170.9,1119.8c0,0-1.6-2.5-3.7-2.2C1167.2,1117.6,1169,1121.4,1170.9,1119.8z"/>
					<path class="st2" d="M1182.9,1122.4c0,0-2-0.5-3.7,1.9C1179.2,1124.3,1181.8,1125.6,1182.9,1122.4z"/>
					<path class="st2" d="M1152.4,1107.7c0,0-1.7-0.8-3.4,1.1C1149,1108.7,1151.2,1110.3,1152.4,1107.7z"/>
				</g>
			</g>
		</g>
		<path class="st24" d="M1406.3,1367.9c0,0-8.1,3.9-10.3,8.7c-2.3,4.9-11.3,3.2-15.4,6.3c-4.1,3.1-8.2,12.3-19.3,12.2v2l4.5,1.7
			c0,0,30.2-8.4,34.3-11.7c4.1-3.3,14-11.8,14-11.8l1.4-7.3L1406.3,1367.9z"/>
		<path class="st19" d="M1231.5,1571.3h-87.8c-2,0-3.6-1.6-3.6-3.6l0,0c0-2,1.6-3.6,3.6-3.6h87.8c2,0,3.6,1.6,3.6,3.6l0,0
			C1235.1,1569.7,1233.5,1571.3,1231.5,1571.3z"/>
		<path class="st19" d="M1231.5,1554.5h-87.8c-2,0-3.6-1.6-3.6-3.6l0,0c0-2,1.6-3.6,3.6-3.6h87.8c2,0,3.6,1.6,3.6,3.6l0,0
			C1235.1,1552.9,1233.5,1554.5,1231.5,1554.5z"/>
		<g>
			<path class="st27" d="M1183,986.2H1081c-2.2,0-3.9-1.8-3.9-3.9l0,0c0-2.2,1.8-3.9,3.9-3.9H1183c2.2,0,3.9,1.8,3.9,3.9l0,0
				C1186.9,984.4,1185.1,986.2,1183,986.2z"/>
			<path class="st27" d="M1183,1002.2H1081c-2.2,0-3.9-1.8-3.9-3.9l0,0c0-2.2,1.8-3.9,3.9-3.9H1183c2.2,0,3.9,1.8,3.9,3.9l0,0
				C1186.9,1000.4,1185.1,1002.2,1183,1002.2z"/>
			<path class="st27" d="M1183,1018.2H1081c-2.2,0-3.9-1.8-3.9-3.9l0,0c0-2.2,1.8-3.9,3.9-3.9H1183c2.2,0,3.9,1.8,3.9,3.9l0,0
				C1186.9,1016.4,1185.1,1018.2,1183,1018.2z"/>
		</g>
		<g>
			<path class="st27" d="M1357.3,872h-101.9c-2.2,0-3.9-1.8-3.9-3.9l0,0c0-2.2,1.8-3.9,3.9-3.9h101.9c2.2,0,3.9,1.8,3.9,3.9l0,0
				C1361.2,870.2,1359.4,872,1357.3,872z"/>
			<path class="st27" d="M1357.3,888h-101.9c-2.2,0-3.9-1.8-3.9-3.9l0,0c0-2.2,1.8-3.9,3.9-3.9h101.9c2.2,0,3.9,1.8,3.9,3.9l0,0
				C1361.2,886.2,1359.4,888,1357.3,888z"/>
			<path class="st27" d="M1357.3,904h-101.9c-2.2,0-3.9-1.8-3.9-3.9l0,0c0-2.2,1.8-3.9,3.9-3.9h101.9c2.2,0,3.9,1.8,3.9,3.9l0,0
				C1361.2,902.2,1359.4,904,1357.3,904z"/>
		</g>
		<g>
			<path class="st27" d="M1357.3,1099h-101.9c-2.2,0-3.9-1.8-3.9-3.9l0,0c0-2.2,1.8-3.9,3.9-3.9h101.9c2.2,0,3.9,1.8,3.9,3.9l0,0
				C1361.2,1097.3,1359.4,1099,1357.3,1099z"/>
			<path class="st27" d="M1357.3,1115h-101.9c-2.2,0-3.9-1.8-3.9-3.9l0,0c0-2.2,1.8-3.9,3.9-3.9h101.9c2.2,0,3.9,1.8,3.9,3.9l0,0
				C1361.2,1113.3,1359.4,1115,1357.3,1115z"/>
			<path class="st27" d="M1357.3,1131h-101.9c-2.2,0-3.9-1.8-3.9-3.9l0,0c0-2.2,1.8-3.9,3.9-3.9h101.9c2.2,0,3.9,1.8,3.9,3.9l0,0
				C1361.2,1129.3,1359.4,1131,1357.3,1131z"/>
		</g>
		<path class="st11" d="M1636.1,1111.1h-97.6c-16.1,0-29.2-13.1-29.2-29.2l0,0c0-16.1,13.1-29.2,29.2-29.2h97.6
			c16.1,0,29.2,13.1,29.2,29.2l0,0C1665.3,1098,1652.2,1111.1,1636.1,1111.1z"/>
		<path class="st24" d="M1568.6,1073.5c0,0,18.5,25.9,18.5,25c-0.1-1,18.9-36.8,18.9-36.8l-21.8,21.2L1568.6,1073.5z"/>
		<polygon class="st24" points="1279.1,1430.6 1216.5,1445.8 1196.9,1437.4 1257.7,1423.4 		"/>
	</g>
</g>
</svg>
