<?xml version="1.0" encoding="utf-8"?>
<!-- Generator: Adobe Illustrator 24.3.0, SVG Export Plug-In . SVG Version: 6.00 Build 0)  -->
<svg version="1.1" id="Layer_1" xmlns="http://www.w3.org/2000/svg" xmlns:xlink="http://www.w3.org/1999/xlink" x="0px" y="0px"
	 viewBox="0 0 301 165" style="enable-background:new 0 0 301 165;" xml:space="preserve">
<style type="text/css">
	.st0{fill:#32082F;}
	.st1{fill:#FFF2E2;}
	.st2{opacity:0.5;}
	.st3{fill:#F4925D;}
	.st4{fill:#999A9A;}
	.st5{fill:#FFFFF8;}
	.st6{fill:#FFD7AB;}
	.st7{fill:#33353B;}
	.st8{fill:#44474F;}
	.st9{fill:#C97E67;}
	.st10{fill:#FFFFFF;}
	.st11{fill:#020202;}
	.st12{fill:#F2CC8F;}
	.st13{fill:#F9B170;}
	.st14{opacity:0.3;}
	.st15{fill:#EC865C;}
</style>
<g>
	<g>
		<g>
			<path class="st0" d="M154.7,200.9h97.5c4,0,7.3-3.2,7.4-7.2l4.8-165.4c0.1-4.2-3.2-7.6-7.4-7.6H150.4c-4.2,0-7.5,3.4-7.4,7.6
				l4.3,165.4C147.4,197.7,150.6,200.9,154.7,200.9z"/>
		</g>
	</g>
	<g>
		<path class="st1" d="M256.2,180.7l2.4-147.8c0.1-3.8-3-6.9-6.8-6.9h-97.7c-3.8,0-6.9,3.2-6.8,7l4.3,147.8c0.1,3.7,3.1,6.6,6.8,6.6
			h91C253.2,187.4,256.2,184.4,256.2,180.7z"/>
	</g>
	<g class="st2">
		<g>
			<path class="st3" d="M54.1,41.6c0.3-7.1,6.7-13,13.7-13c10,0,13.3,7.7,13.7,14.7c0.4,7.3-6,12.3-13.1,12.3
				C61.3,55.7,53.7,50.4,54.1,41.6z"/>
		</g>
		<g>
			<path class="st1" d="M56.6,42.4c0-5.6,5.6-11.6,11.2-11.8c8.3-0.3,11.7,8.2,11.7,13.8c0,5.6-5.8,9-11.4,9
				C62.4,53.3,56.6,48,56.6,42.4z"/>
		</g>
		<g>
			<path class="st3" d="M66.6,42.2c0.1-0.8,0.9-1.3,1.7-1.3c0.8,0,1.6,0.9,1.6,1.7c0,0.8-0.8,1.4-1.6,1.4
				C67.5,44,66.5,43.6,66.6,42.2z"/>
		</g>
		<g>
			<g>
				<path class="st3" d="M68.3,42.9h0.3c0.2,0,0.3-0.1,0.3-0.3c0-0.2,0.3-0.7,0.2-0.7l-0.2-0.3L68.5,34l0.3,0.2
					c0.1,0.1,0.3,0.2,0.4,0.1c0.1-0.1,0.2-0.3,0.1-0.4l-0.9-1.2c-0.1-0.1-0.2-0.1-0.3-0.1c-0.1,0-0.2,0.1-0.2,0.3l-0.5,9.7
					C67.5,42.7,68.1,42.9,68.3,42.9z"/>
			</g>
			<g>
				<path class="st3" d="M67.3,34.3c0.1,0,0.2,0,0.2-0.1l1.1-0.8c0.1-0.1,0-0.7-0.1-0.8c-0.1-0.1-0.3-0.1-0.4,0l-0.9,1.2
					c-0.1,0.1-0.1,0.3,0,0.4C67.2,34.2,67.2,34.3,67.3,34.3z"/>
			</g>
		</g>
		<g>
			<g>
				<path class="st3" d="M73.3,43.8c0.1,0,0.1,0,0.2-0.1l0.8-0.9c0.1-0.1,0.1-0.2,0.1-0.3c0-0.1-0.1-0.2-0.3-0.2h0L67.6,42
					c-0.2,0-0.2,0.5-0.2,0.6v0.3c0,0.2,0.1,0.3,0.3,0.3c0.2,0,0.5,0.1,0.5,0l-0.2-0.3l5.6,0l-0.4,0.4c-0.1,0.1-0.1,0.3,0,0.4
					C73.1,43.7,73.2,43.8,73.3,43.8z"/>
			</g>
			<g>
				<path class="st3" d="M74.1,42.9c0.1,0,0.1,0,0.2-0.1c0.1-0.1,0.1-0.3,0-0.4l-0.8-0.9c-0.1-0.1-0.3-0.1-0.4,0
					c-0.1,0.1-0.1,0.3,0,0.4l0.3,0.7C73.5,42.6,74,42.9,74.1,42.9z"/>
			</g>
		</g>
	</g>
	<g>
		<g>
			<path class="st4" d="M165.6,152.8l76-3c2.7-0.1,4.8-1.4,4.8-2.9v-13.8c0-1.6-2.2-2.9-5-2.9l-76.5-1c-2.9,0-5.3,1.3-5.2,2.9
				l0.5,17.9C160.2,151.6,162.7,152.9,165.6,152.8z"/>
		</g>
	</g>
	<g>
		<g>
			<path class="st4" d="M162.1,183.1l30.9-3c1.1-0.1,1.9-1.4,1.9-2.9v-13.8c0-1.6-0.9-2.9-2-2.9l-31.1-1c-1.2,0-2.2,1.3-2.1,2.9
				l0.2,17.9C159.9,181.9,160.9,183.2,162.1,183.1z"/>
		</g>
	</g>
	<g>
		<g>
			<path class="st4" d="M205.2,181.8l30.9-3c1.1-0.1,1.9-1.4,1.9-2.9v-13.8c0-1.6-0.9-2.9-2-2.9l-31.1-1c-1.2,0-2.2,1.3-2.1,2.9
				L203,179C203,180.7,204,182,205.2,181.8z"/>
		</g>
	</g>
	<g>
		<path class="st5" d="M120,84.9l76-5.3c2.7-0.2,4.8-2.4,4.8-5.1V50c0-2.8-2.2-5.1-5-5.1L119.2,43c-2.9-0.1-5.3,2.3-5.2,5.2
			l0.5,31.7C114.6,82.8,117.1,85.1,120,84.9z"/>
	</g>
	<g>
		<path class="st3" d="M120.5,122.3l74.5-3.5c2.3-0.1,4.1-1.9,4.3-4.2l1.2-20.5c0.2-2.6-1.9-4.8-4.5-4.8h-75.7c-2.5,0-4.5,2-4.5,4.5
			v24C115.8,120.4,117.9,122.4,120.5,122.3z"/>
	</g>
	<g>
		<g class="st2">
			<g>
				<g>
					<path class="st6" d="M170.9,65.8c4.7,0,9.6-0.8,14-2.5c0.3-0.1,0.4-0.4,0.3-0.6c-0.1-0.3-0.4-0.4-0.6-0.3
						c-7.4,2.7-15.9,3.2-22.8,1.2c-9.4-2.7-34-15.5-34.2-15.6c-0.2-0.1-0.5,0-0.7,0.2c-0.1,0.2,0,0.5,0.2,0.7
						c0.2,0.1,24.9,13,34.4,15.7C164.3,65.4,167.6,65.8,170.9,65.8z"/>
				</g>
			</g>
			<g>
				<g>
					<polygon class="st6" points="122.4,65.1 136.1,53.1 135.5,52.4 121.8,64.4 					"/>
				</g>
			</g>
			<g>
				<g>
					
						<rect x="128.6" y="67.2" transform="matrix(0.7327 -0.6805 0.6805 0.7327 -8.4385 113.8873)" class="st6" width="24.4" height="0.9"/>
				</g>
			</g>
			<g>
				<g>
					<polygon class="st6" points="139.2,69.4 139.6,68.6 125.9,61.2 125.5,62 					"/>
				</g>
			</g>
			<g>
				<g>
					
						<rect x="141.3" y="70.8" transform="matrix(0.7361 -0.6769 0.6769 0.7361 -8.0335 121.8568)" class="st6" width="21.9" height="0.9"/>
				</g>
			</g>
			<g>
				<g>
					<path class="st6" d="M172.4,78.9c0.2-0.4,5.6-9.6,0.9-15.8c-4.4-5.9-6.3-17-6.3-17.1l-0.9,0.1c0.1,0.5,1.9,11.4,6.4,17.5
						c4.3,5.7-0.9,14.7-1,14.8L172.4,78.9z"/>
				</g>
			</g>
		</g>
		<g>
			<g>
				<path class="st6" d="M166.1,56.7c0,0,4.5,5.3,3.4,6c-1.1,0.7-9.7-0.9-9.5-1.6C160.3,60.4,165.2,56.7,166.1,56.7z"/>
			</g>
		</g>
		<g>
			<g>
				<path class="st6" d="M150.9,75.4c0,0,8.6-9.2,9.9-8.9c1.3,0.3,8.5,0.8,10.4,0.8c1.9,0-1.4,11-2.4,11.4c-1,0.3-20.7,0-20.7,0
					L150.9,75.4z"/>
			</g>
		</g>
		<g>
			<g>
				<path class="st6" d="M161.5,56.4l-3.4,2.9c-0.7,0.6-1.9,0.7-2.8,0.2l-14.3-7.1c-0.7-0.4-0.9-1-0.6-1.5l1.7-2.3
					c0.5-0.7,1.9-0.9,2.9-0.5l15.9,6.5C162,55,162.2,55.8,161.5,56.4z"/>
			</g>
		</g>
		<g>
			<g>
				<path class="st6" d="M164.1,46.5c0,0,2,7.5,1,7.4c-1,0-16.9-6.4-16.8-7C148.4,46.2,164.1,46.5,164.1,46.5z"/>
			</g>
		</g>
		<g>
			<g>
				<path class="st6" d="M128.5,61c0,0,6.5-6.4,7.5-6c1,0.4,10.5,3.6,10,4.8c-0.5,1.2-6.1,7-7.4,6.6C137.3,66.1,127.7,61.4,128.5,61
					z"/>
			</g>
		</g>
		<g>
			<g>
				<path class="st6" d="M146.1,65.8c0,0,4.3-4.5,5-4.2c0.7,0.4,3.8,1.7,3.6,2.3c-0.1,0.6-4.7,5.3-5.4,5.1
					C148.6,68.7,145.7,66.3,146.1,65.8z"/>
			</g>
		</g>
		<g>
			<g>
				<path class="st6" d="M139.4,72.6c0,0,5-5.8,5.8-5.5c0.8,0.3,3.1,2.1,2.8,2.8s-3.6,4.4-4.3,4.3C143,74.1,139.4,72.6,139.4,72.6z"
					/>
			</g>
		</g>
		<g>
			<g>
				<path class="st6" d="M125.7,50.6c0,0,5.8,2.6,5.6,3.3c-0.2,0.7-9.5,8.3-10.3,8.2c-0.8-0.1-0.7-12.9,0.6-12.7
					C122.9,49.6,125.7,50.6,125.7,50.6z"/>
			</g>
		</g>
		<g>
			<g>
				<path class="st6" d="M130,48.1c0,0,6.2,3.8,7.3,2.7c1.1-1.1,2.1-4.6,0.6-4.8C136.5,45.8,126.5,45.1,130,48.1z"/>
			</g>
		</g>
		<g>
			<g>
				<path class="st6" d="M169.9,47.4c0,0,1.2,4.8,2.1,7.1c0.9,2.3,4.1,8.6,5.1,8.3s15-5.1,14.2-10.2c-0.8-5.1-2-6.6-5.4-6.6
					C182.4,46,168.8,45.1,169.9,47.4z"/>
			</g>
		</g>
		<g>
			<g>
				<path class="st6" d="M175.8,76.5c0,0,2.4-6.6,2.3-8.2s4-1.8,6.5-2.7c2.5-0.9,7.5-2.6,8,0.2c0.5,2.8-6.4,10.3-6.4,10.3
					s-0.2,2.5-2.8,2.6C180.8,78.9,175.3,77.9,175.8,76.5z"/>
			</g>
		</g>
	</g>
	<g>
		<g>
			<g>
				<path class="st3" d="M158.9,26.8c0,13,13.7,31.3,20.6,39.7c2,2.4,5.8,2.4,7.7,0c7.1-8.8,21.6-28.3,20.7-41.6
					c-0.9-13.5-7.5-23.7-21.1-24.5C170.1-0.7,158.9,13.3,158.9,26.8z M169.4,26.3c0.6-7.8,5.2-16.5,14.8-14.9
					c11.2,1.9,14.5,7.5,14.5,15.3s-5.8,13.4-13.6,13.7C174.4,40.9,168.7,35.8,169.4,26.3z"/>
			</g>
		</g>
		<g>
			<g>
				<path class="st7" d="M183,66.6c-3.5-4.3-8.7-10.9-12.9-18.1c-5.1-8.7-7.8-16-7.8-21.7c0-7.3,3.2-14.7,8.7-19.8
					c5.3-4.9,12.2-7.4,19.6-7l0,0c6.5,0.4,11.7,2.9,15.4,7.6c3.4,4.2,5.4,10.1,5.9,17.2c0.4,5.9-2.1,13.5-7.3,22.7
					c-4.4,7.6-9.7,14.6-13.4,19.1c-1,1.2-2.5,1.9-4,1.9c0,0,0,0,0,0C185.5,68.5,184,67.8,183,66.6z M190.5,0.5
					c-7.2-0.4-14.1,2-19.2,6.9c-5.3,5-8.5,12.3-8.5,19.4c0,5.6,2.6,12.9,7.7,21.5c4.3,7.2,9.4,13.8,12.9,18.1
					c0.9,1.1,2.3,1.7,3.7,1.7c0,0,0,0,0,0c1.4,0,2.8-0.7,3.7-1.8c6.5-8,21.5-28,20.6-41.5c-0.5-6.9-2.5-12.8-5.8-16.9
					C202,3.4,196.9,0.9,190.5,0.5L190.5,0.5z M176,36.7c-2.4-2.5-3.4-6-3.1-10.4c0.4-5.5,2.7-10.4,6-13c2.5-2,5.6-2.7,9-2.1
					c10.2,1.7,14.7,6.5,14.7,15.5c0,3.8-1.4,7.3-4,9.8c-2.5,2.5-6,3.9-9.9,4.1c-0.4,0-0.9,0-1.3,0C182.5,40.7,178.5,39.3,176,36.7z
					 M179.2,13.6c-3.2,2.5-5.4,7.3-5.9,12.7c-0.3,4.3,0.7,7.7,3,10.1c2.6,2.7,6.9,4,12.5,3.8h0c3.8-0.2,7.2-1.6,9.6-4
					c2.5-2.4,3.8-5.8,3.8-9.5c0-4.2-1-7.4-3-9.7c-2.3-2.7-6-4.5-11.3-5.4c-0.8-0.1-1.5-0.2-2.2-0.2
					C183.2,11.5,181.1,12.2,179.2,13.6z"/>
			</g>
		</g>
	</g>
	<g>
		<g>
			<g>
				<g>
					<path class="st8" d="M168.2,96c-3.2,0.2-4.8,2.6-5,5.9c-0.2,3.2,3.2,7.9,4.9,10c0.5,0.6,1.4,0.6,1.9,0c1.7-2,4.9-6.4,4.9-9.5
						C174.9,99.1,172.2,95.8,168.2,96z M168.6,105.6c-1.9-0.1-3.3-1.4-3.3-3.3c0-1.9,0.8-3.2,3.5-3.7c2.3-0.4,3.4,1.7,3.5,3.6
						C172.6,104.5,171.2,105.7,168.6,105.6z"/>
				</g>
			</g>
		</g>
		<g>
			<g>
				<g>
					<path class="st8" d="M168.2,112.4C168.2,112.4,168.2,112.4,168.2,112.4c-0.4,0-0.8-0.2-1-0.5c-1.6-1.9-5.2-6.8-5-10
						c0.2-3.6,2.1-5.8,5.1-6l0,0c1.8-0.1,3.4,0.5,4.7,1.7c1.3,1.2,2.1,3,2.1,4.8c0,3.1-3.1,7.3-5,9.6
						C168.9,112.2,168.6,112.4,168.2,112.4z M167.4,96.1c-2.9,0.2-4.7,2.3-5,5.8c-0.2,3.2,3.4,8,4.9,9.9c0.2,0.3,0.5,0.4,0.8,0.4
						c0,0,0,0,0,0c0.3,0,0.6-0.1,0.9-0.4c1.5-1.8,4.9-6.3,4.9-9.4c0-1.7-0.8-3.4-2-4.6c-0.8-0.8-2.2-1.6-4.2-1.6
						C167.6,96.1,167.5,96.1,167.4,96.1L167.4,96.1z M168.1,105.7c-0.1,0-0.2,0-0.3,0l0,0c-1.9-0.1-3.4-1.5-3.4-3.4
						c0-2.2,1.1-3.3,3.6-3.8c0.8-0.1,1.6,0,2.2,0.5c0.8,0.6,1.4,1.8,1.5,3.1c0.1,1.1-0.2,1.9-0.8,2.5
						C170.2,105.4,169.3,105.7,168.1,105.7z M168.5,98.7c-0.2,0-0.3,0-0.5,0c-2.3,0.4-3.4,1.5-3.4,3.6c0,1.8,1.3,3.1,3.2,3.2l0,0
						c0.1,0,0.2,0,0.3,0c1.2,0,2.1-0.3,2.7-0.9c0.5-0.6,0.8-1.4,0.7-2.4c-0.1-1.3-0.6-2.4-1.4-3C169.6,98.9,169.1,98.7,168.5,98.7z"
						/>
				</g>
			</g>
		</g>
	</g>
	<g>
		<g>
			<g>
				<path class="st8" d="M128.6,95.9c-5.8,0-7.6,4.4-7.9,8.5c-0.2,4.2,3.5,7.1,7.6,7.1c4.1,0,8.5-3,8.2-8.1
					C136.4,99.3,132.7,95.9,128.6,95.9z M128.5,110.1c-3.2,0-6.6-1.9-6.6-5.2c0-3.2,1.9-8.1,6.7-7.9c3.2,0.1,6.5,3.6,6.5,6.8
					C135.1,107,131.7,110.1,128.5,110.1z"/>
			</g>
		</g>
		<g>
			<g>
				<path class="st8" d="M129.3,103.7c0-0.4-0.5-0.7-1-0.7c-0.4,0-0.9,0.5-0.9,1c0,0.4,0.5,0.8,0.9,0.8
					C128.8,104.8,129.4,104.5,129.3,103.7z"/>
			</g>
		</g>
		<g>
			<g>
				<g>
					<path class="st8" d="M128.4,104.1h-0.2c-0.1,0-0.2-0.1-0.2-0.2c0-0.1-0.2-0.4-0.1-0.4l0.1-0.2l0.2-4.4l-0.2,0.1
						c-0.1,0.1-0.1,0.1-0.2,0c-0.1,0-0.1-0.1,0-0.2l0.5-0.7c0-0.1,0.1-0.1,0.2-0.1c0.1,0,0.1,0.1,0.1,0.2l0.3,5.6
						C128.8,104,128.5,104.1,128.4,104.1z"/>
				</g>
			</g>
			<g>
				<g>
					<path class="st8" d="M128.9,99.2c0,0-0.1,0-0.1-0.1l-0.6-0.4c-0.1-0.1,0-0.4,0.1-0.5c0.1-0.1,0.2,0,0.2,0l0.5,0.7
						c0.1,0.1,0,0.2,0,0.2C129,99.2,129,99.2,128.9,99.2z"/>
				</g>
			</g>
		</g>
		<g>
			<g>
				<g>
					<path class="st8" d="M125.5,104.6c0,0-0.1,0-0.1,0l-0.5-0.5c0,0-0.1-0.1,0-0.2c0-0.1,0.1-0.1,0.1-0.1h0l3.8-0.2
						c0.1,0,0.1,0.3,0.1,0.4v0.2c0,0.1-0.1,0.2-0.2,0.2c-0.1,0-0.3,0.1-0.3,0l0.1-0.2l-3.2,0l0.2,0.2c0.1,0.1,0.1,0.2,0,0.2
						C125.6,104.6,125.5,104.6,125.5,104.6z"/>
				</g>
			</g>
			<g>
				<g>
					<path class="st8" d="M125,104.1c0,0-0.1,0-0.1,0c-0.1-0.1-0.1-0.2,0-0.2l0.4-0.5c0.1-0.1,0.2-0.1,0.2,0c0.1,0.1,0.1,0.2,0,0.2
						l-0.2,0.4C125.4,104,125.1,104.1,125,104.1z"/>
				</g>
			</g>
		</g>
	</g>
	<g>
		<g>
			<path class="st8" d="M152.1,100.9l-11.9,0c-0.4,0-0.8-0.4-0.7-0.8l0,0c0.1-0.3,0.3-0.6,0.7-0.6h11.9c0.4,0,0.7,0.3,0.7,0.7l0,0
				C152.8,100.6,152.5,100.9,152.1,100.9z"/>
		</g>
		<g>
			<path class="st8" d="M152.1,107.4l-11.9,0c-0.4,0-0.8-0.4-0.7-0.8l0,0c0.1-0.3,0.3-0.6,0.7-0.6h11.9c0.4,0,0.7,0.3,0.7,0.7l0,0
				C152.8,107,152.5,107.4,152.1,107.4z"/>
		</g>
		<g>
			<path class="st8" d="M147,104.1l-7.1,0c-0.3,0-0.5-0.4-0.4-0.8l0,0c0-0.3,0.2-0.6,0.4-0.6h7.1c0.2,0,0.4,0.3,0.4,0.7l0,0
				C147.4,103.8,147.2,104.1,147,104.1z"/>
		</g>
		<g>
			<path class="st8" d="M156.7,104.1l-7.1,0c-0.3,0-0.5-0.4-0.4-0.8l0,0c0-0.3,0.2-0.6,0.4-0.6h7.1c0.2,0,0.4,0.3,0.4,0.7l0,0
				C157.1,103.8,156.9,104.1,156.7,104.1z"/>
		</g>
	</g>
	<g>
		<g>
			<path class="st8" d="M190,100.9l-11.9,0c-0.4,0-0.8-0.4-0.7-0.8l0,0c0.1-0.3,0.3-0.6,0.7-0.6H190c0.4,0,0.7,0.3,0.7,0.7l0,0
				C190.7,100.6,190.4,100.9,190,100.9z"/>
		</g>
		<g>
			<path class="st8" d="M190,107.4l-11.9,0c-0.4,0-0.8-0.4-0.7-0.8l0,0c0.1-0.3,0.3-0.6,0.7-0.6H190c0.4,0,0.7,0.3,0.7,0.7l0,0
				C190.7,107,190.4,107.4,190,107.4z"/>
		</g>
		<g>
			<path class="st8" d="M184.8,104.1l-7.1,0c-0.3,0-0.5-0.4-0.4-0.8l0,0c0-0.3,0.2-0.6,0.4-0.6h7.1c0.2,0,0.4,0.3,0.4,0.7l0,0
				C185.3,103.8,185.1,104.1,184.8,104.1z"/>
		</g>
		<g>
			<path class="st8" d="M194.5,104.1l-7.1,0c-0.3,0-0.5-0.4-0.4-0.8l0,0c0-0.3,0.2-0.6,0.4-0.6h7.1c0.2,0,0.4,0.3,0.4,0.7l0,0
				C194.9,103.8,194.7,104.1,194.5,104.1z"/>
		</g>
	</g>
	<g>
		<g>
			<g>
				<path class="st9" d="M204.6,74.7l-0.3,0.2c-0.5,0.2-1.1,0-1.3-0.5l-2.1-4.4c-0.2-0.5,0-1.1,0.5-1.3l0.3-0.2
					c0.5-0.2,1.1,0,1.3,0.5l2.1,4.4C205.3,73.9,205.1,74.4,204.6,74.7z"/>
			</g>
			<g>
				<path class="st9" d="M206.5,73.4l-0.4,0.2c-0.5,0.2-1,0-1.3-0.4l-2.2-4.7c-0.2-0.5,0-1,0.4-1.3l0.4-0.2c0.5-0.2,1,0,1.3,0.4
					l2.2,4.7C207.1,72.6,206.9,73.2,206.5,73.4z"/>
			</g>
			<g>
				<path class="st9" d="M209.1,77.5l-0.3-0.1c-0.6-0.1-1-0.8-0.9-1.4l1.4-6c0.1-0.6,1-1.5,1.6-1.4c1,0.2,1.1,1.4,1,2l-1.4,6
					C210.3,77.3,209.7,77.7,209.1,77.5z"/>
			</g>
			<g>
				<path class="st9" d="M208.5,72.6l-0.2,0.1c-0.5,0.3-1.2,0-1.4-0.5l-3.3-6.9c-0.3-0.5-0.6-1.8,0.4-2.2c0.7-0.3,1.4,1,1.9,1.8
					c0.8,1.6,3.2,6.2,3.2,6.2C209.3,71.7,209.1,72.3,208.5,72.6z"/>
			</g>
			<g>
				<path class="st9" d="M204.8,79.5c0,0-4.7-4.1-4.9-7.9c-0.1-1.3,5.8-4.1,7-3.2c1.2,0.9,3.7,6.5,3.7,6.5L204.8,79.5z"/>
			</g>
			<g>
				<path class="st9" d="M202.7,75.3l-0.5,0.2c-0.4,0.2-0.1,1.1-0.4,0.7c-2-2.6-2.6-5-2.6-5c-0.2-0.4,0-1.2,0.4-1.4l0.4-0.1
					c0.4-0.2,1,0.1,1.2,0.6l1.9,3.9C203.4,74.6,203.2,75.1,202.7,75.3z"/>
			</g>
		</g>
		<g>
			<path class="st1" d="M237.8,202.7c0,0-0.2,3.2-2.3,4c-2.2,0.8-8.4,1.5-6.2,3.6c1.3,1.2,7.6,0.6,9.4,0.7c1.8,0,3.4,0.9,4.8-0.3
				c1.5-1.3,0.2-7.8,0.2-7.8s-1.6,0.8-2.9,0.7C238.7,203.5,237.8,202.7,237.8,202.7z"/>
		</g>
		<g>
			<path class="st8" d="M222.2,122.7c0.4,6.6,1.2,15.1,2.7,25.6c2.8,19.9,6.1,40.1,7.8,49.7c0.6,3.4,3.4,6,6.8,6.3l1.8,0.1
				c3.7,0.2,6.8-2.8,6.6-6.6l-2.9-65l-0.3-10.3C244.7,122.4,221.5,111.9,222.2,122.7z"/>
		</g>
		<g>
			<path class="st1" d="M258.1,203.3c0,0-0.2,3.2-2.3,4c-2.2,0.8-8.4,1.5-6.2,3.6c1.3,1.2,7.6,0.6,9.4,0.7c1.8,0,3.4,0.9,4.8-0.3
				c1.5-1.3,0.2-7.8,0.2-7.8s-1.6,0.8-2.9,0.7C259.1,204,258.1,203.3,258.1,203.3z"/>
		</g>
		<g>
			<path class="st8" d="M242.2,106.9c0,0-0.8,14.3,3,42c2.8,19.9,6.1,40.1,7.8,49.7c0.6,3.4,3.4,6,6.8,6.3l1.8,0.1
				c3.7,0.2,6.8-2.8,6.6-6.6l-2.9-65l-0.6-21.4L242.2,106.9z"/>
		</g>
		<g>
			<path class="st7" d="M246.1,154.5c0-0.1,1.6-11.8,2.8-16c1.2-4.2,6.6-7.8,6.6-7.8l-0.2-0.2c-0.1,0-5.6,3.7-6.7,8
				c-1.2,4.2-2.8,16-2.8,16.1L246.1,154.5z"/>
		</g>
		<g>
			<path class="st9" d="M246.2,62.9l-1.4-4.3l-0.4-1.2l-2.4-7.3l-0.3,7.3l-0.2,4.4l-0.1,1.4c0,0.9-0.7,1.1-1.4,2
				c-0.3,0.3-2.3,2.3,0,3.2c2.8,1.1,7.9-0.6,9.9-2.8C249.7,65.4,246.6,64.2,246.2,62.9z"/>
		</g>
		<g>
			
				<ellipse transform="matrix(0.2116 -0.9774 0.9774 0.2116 139.4809 278.3091)" class="st9" cx="242.2" cy="52.7" rx="7.9" ry="7"/>
		</g>
		<g>
			<path class="st7" d="M238.3,50c-4,0.1-6-2-6-4c-0.1-2.6,1.7-4.8,3.7-3.9c2,0.9,1.2-1.4,3.1-1.6c3.6-0.5,4.3,1.9,7.3,2
				c3.9,0.2,8.4,6.2,5.1,10.6C251.4,53.2,241.5,49.9,238.3,50z"/>
		</g>
		<g>
			<path class="st7" d="M234.7,47.4c0,0,4.3,3.8,3.7,6c-0.6,2.2-0.4,3,2.1,4.2c2.5,1.2,0.3,3,3.6,3.2c3.3,0.1,7.4-3.5,7.4-9.6
				c0-3.4-2.1-5.6-2.1-5.6L234.7,47.4z"/>
		</g>
		<g>
			<path class="st9" d="M236.3,53.3c0.5-0.6,1.4-0.8,2-0.4c0.6,0.4,0.7,1.2,0.2,1.9c-0.5,0.6-1.4,0.8-2,0.4
				C235.9,54.8,235.8,54,236.3,53.3z"/>
		</g>
		<g>
			<path class="st7" d="M253,54.8C253,54.8,253.1,54.8,253,54.8c0.1,0,0.1-0.1,0.1-0.1c-0.2-0.9-1.1-1.4-1.1-1.4c0,0-0.1,0-0.1,0
				c0,0,0,0.1,0,0.1C251.9,53.5,252.7,53.9,253,54.8C253,54.8,253,54.8,253,54.8z"/>
		</g>
		<g>
			<path class="st7" d="M252,53C252,53,252,53,252,53c0.1,0,1.3-0.1,1.4-1c0-0.1,0-0.1-0.1-0.1c-0.1,0-0.1,0-0.1,0.1
				c-0.2,0.8-1.2,0.9-1.3,0.9C251.9,52.8,251.8,52.9,252,53C251.9,53,251.9,53,252,53z"/>
		</g>
		<g>
			<path class="st7" d="M236.6,42c0.1,0,0.3,0,0.4-0.1c0.5-0.4,0.6-1.4,0.6-1.4c0-0.1,0-0.1-0.1-0.1c-0.1,0-0.1,0-0.1,0.1
				c0,0-0.1,1-0.5,1.3c-0.1,0.1-0.3,0.1-0.4,0.1c-0.3-0.1-0.5-0.2-0.8-0.4c-0.4-0.3-0.9-0.6-1.8-0.3c-0.1,0-0.1,0.1-0.1,0.1
				c0,0.1,0.1,0.1,0.1,0.1c0.8-0.3,1.2,0,1.7,0.3c0.2,0.2,0.5,0.3,0.8,0.4C236.4,42,236.5,42,236.6,42z"/>
		</g>
		<g>
			<path class="st7" d="M246,42.2c0.1,0,0.3,0,0.5,0c0.1,0,0.1-0.1,0.1-0.1c0-0.1-0.1-0.1-0.1-0.1c-1.5,0.2-2.9-0.9-2.9-0.9
				c0,0-0.1,0-0.1,0c0,0,0,0.1,0,0.1C243.5,41.3,244.6,42.2,246,42.2z"/>
		</g>
		<g>
			<path class="st7" d="M237.4,55.5c0.3,0,0.9-0.1,1.4-0.9c0,0,0-0.1,0-0.1c0,0-0.1,0-0.1,0c-0.6,1.1-1.5,0.9-1.5,0.9
				c0,0-0.1,0-0.1,0c0,0,0,0.1,0,0.1C237.1,55.5,237.2,55.5,237.4,55.5z"/>
		</g>
		<g>
			<path class="st7" d="M222.2,122.7c0,0,29.1-1.6,42.9,1.7l0.2-3.9l-19.4-5.7l-15.6,0.4l-4.8,1l-3.4,5.2L222.2,122.7z"/>
		</g>
		<g>
			<path class="st3" d="M262.5,74.7c0,0-2.6-11-18.2-11c-27.3,0-19.7,22.3-22.2,57.7c0,0,17.6-3.8,43.1,1.3c0,0,2.5-19.2-0.7-35.4
				C263.6,83,263.8,78.4,262.5,74.7z"/>
		</g>
		<g>
			<path class="st3" d="M241.1,63.7c0,0-8.8,0.1-15.3,6.3s-14.9,14.6-16.7,19.5c-2.2,6,1.8,12,7,12.2c5.1,0.1,9.7-3.6,9.7-3.6
				L241.1,63.7z"/>
		</g>
		<g>
			<path class="st3" d="M280,96.1c-2.6-19-24.2-29.7-24.2-29.7l-4.6,23.8l9,2.9c4.6,1.5,6.5,7,3.7,11c-3.6,5.1-5.7,11.8-2,10.6
				C268.3,112.5,281.2,104.4,280,96.1z"/>
		</g>
		<g>
			<path class="st7" d="M266,114c0.8-13.9-1.7-28.2-1.7-28.3l-0.2,0c0,0.1,2.5,14.4,1.7,28.3L266,114z"/>
		</g>
		<g>
			<path class="st7" d="M222.8,100c5.2-3.1,11.9-11.1,12-11.2l-0.1-0.1c-0.1,0.1-6.8,8.1-11.9,11.1L222.8,100z"/>
		</g>
		<g>
			<path class="st3" d="M220.5,80.6c0,0-6.6-6.9-8.9-7.4c-2.3-0.5-15.7,3.2-1,25.4L220.5,80.6z"/>
		</g>
	</g>
	<g>
		<g>
			<path class="st10" d="M85.7,114.8c0.1,0.2,0.3,0.4,0.5,0.6c0.4,0.4,0.8,0.7,1.2,1.1c0.5,0.4,1,0.9,1.1,1.5
				c0.1,0.5-0.1,0.9,0.1,1.4c0.2,0.5,0.7,0.7,1.2,0.8c0.5,0.1,1.8,0.1,2.2,0.8c0.1,0.2,0.5,0.4,0.8,0.3c0.6-0.1,0.8-0.8,0.4-1.3
				c-0.2-0.3-0.5-0.6-0.7-0.9c-0.4-0.5-0.6-1.1-0.6-1.8c0-0.8,0.2-1.7-0.2-2.3c-0.3-0.4-0.7-0.6-1.1-0.9c-0.8-0.4-1.7-1-1.9-1.9
				c-0.1-0.4,0-0.8-0.3-1.1c-0.2-0.2-0.5-0.3-0.8-0.4c-0.3,0-0.6,0-0.7,0.2c-0.1,0.2,0,0.5-0.1,0.7c-0.1,0.7-0.8,1-1.2,1.6
				C85.5,113.8,85.4,114.4,85.7,114.8z M86.8,113.8c0.1-0.2,0.5-0.4,0.7-0.3c0.1,0,0.2,0.1,0.3,0.1c0.1,0.1,0.2,0.3,0.2,0.4
				c0.1,0.2,0.3,0.3,0.5,0.4c0.3,0.1,0.6,0.2,0.9,0.2c0.5,0,1.4,0.1,1.4,0.8c0,0.4-0.4,0.5-0.7,0.5c-0.5,0-0.9-0.2-1.3-0.4
				c-0.6-0.2-1.3-0.3-1.7-0.8C86.7,114.6,86.6,114.1,86.8,113.8z"/>
		</g>
		<g>
			<path class="st7" d="M97.4,122.4c0,0-1.2,8.7-2.1,8.8c-0.9,0.1-4.3,0.3-5.3,0c-1-0.3-1.6-8.9-1.3-9.1
				C88.9,121.8,97.7,121.4,97.4,122.4z"/>
		</g>
		<g>
			<g>
				<path class="st7" d="M88.9,127.6l0.4-0.8c-1.1-0.6-2.7-1.7-2.9-2.3c0-0.1,0-0.2,0.1-0.2c0.7-0.9,2.4,0.1,2.4,0.1l0.5-0.8
					c0,0-0.6-0.3-1.2-0.5c-1.3-0.3-1.9,0.2-2.3,0.6c-0.2,0.3-0.3,0.6-0.2,1C85.8,126,88.3,127.4,88.9,127.6z"/>
			</g>
		</g>
	</g>
	<g>
		<g>
			<g>
				<path class="st7" d="M27.7,204.5c0,0,8-41.4,9.3-42.6c1.2-1.2,3.2-0.1,2.5,2.2c-0.7,2.3-10,39.6-10.4,40.4
					C28.7,205.3,27.5,205.7,27.7,204.5z"/>
			</g>
			<g>
				<path class="st8" d="M79.1,150.4c0.1-7.4-18.2-29.5-27.7-32.3c-10.8-3.1-24.5-8.8-28.6,1.5s9.5,41.9,9.5,41.9s0.8,2.8,3.5,3.1
					c2.7,0.3,36.6,1.4,36.6,0C72.6,163.7,83.9,151.9,79.1,150.4z"/>
			</g>
		</g>
		<g>
			<path class="st9" d="M74,100.9c0,0,12.6,19.7,29.5,24.3l-3,6.8c0,0-21.4-2.9-33.6-23.6L74,100.9z"/>
		</g>
		<g>
			<path class="st8" d="M87.1,199.7c0,0-0.1,3.2,2,4.2c2.1,1,8.3,2.2,5.9,4.1c-1.4,1.1-7.7,0-9.5-0.1c-1.8-0.1-3.5,0.6-4.8-0.7
				c-1.4-1.4,0.4-7.8,0.4-7.8s1.5,0.9,2.9,0.9C86,200.3,87.1,199.7,87.1,199.7z"/>
		</g>
		<g>
			<path class="st8" d="M109,199.6c0,0-0.1,3.2,2,4.2c2.1,1,8.3,2.2,5.9,4.1c-1.4,1.1-7.7,0-9.5-0.1c-1.8-0.1-3.5,0.6-4.8-0.7
				c-1.4-1.4,0.4-7.8,0.4-7.8s1.5,0.9,2.9,0.9C108,200.3,109,199.6,109,199.6z"/>
		</g>
		<g>
			<g>
				<path class="st1" d="M111.3,194.4c-1.6-20.9-1.9-35-8.6-44c-7.2-9.9-26.6-16.9-34.1-17.4c-12.2-0.7-17.9,1.1-17.9,1.1
					c-9.2,19,5.2,21.6,15.8,22.1c0.4,0,0.7,0,1.1,0.1c6.4,0.4,17.8,2,22.2,8.4c3.4,5.1,5.8,12.1,6.8,30.4c0.2,3.5,3.1,6.2,6.7,6.1
					C103.2,201.2,111.9,201.9,111.3,194.4z"/>
			</g>
		</g>
		<g>
			<g>
				<path class="st1" d="M94,195.4c0.2-21,0.9-31.6-5.4-40.9c-4-6-10.1-10.5-18.1-13.4c-5.7-2.1-12.3-3.4-19.8-3.8
					c-12.2-0.7-17.7-2.2-17.7-2.2c-9.9,24.4,26.2,19.2,35.6,29.6c4.1,4.5,9.2,13.1,10.2,31.4c0.2,3.5,3.1,6.2,6.7,6.1
					C85.5,202.3,93.9,203.1,94,195.4z"/>
			</g>
		</g>
		<g>
			<path class="st11" d="M93.9,174.9l0.1,0c0-0.1-0.6-12.6-2.7-16.9c-2.7-5.5-10.3-11.3-18.3-13.7l0,0.1c7.9,2.4,15.6,8.1,18.2,13.6
				C93.3,162.3,93.9,174.7,93.9,174.9z"/>
		</g>
		<g>
			<g>
				<path class="st12" d="M41.7,96.4c0,0,5.2-8.9,17.2-6.1s16.8,14.9,17.7,44.3c0,0-11.1-0.4-40.2,9.2c-3.4,1.1-8.5,0.2-6.7-5.6
					C32.9,127.3,36.1,105.5,41.7,96.4z"/>
			</g>
		</g>
		<g>
			<g>
				<path class="st12" d="M31.1,98.9l9.7,2.5c0,0,21.5,6.4,27.5,6.4s8.5-4.4,8.5-4.4s-4.9-8.2-15-12.1c-1-0.4-2-0.7-3-1
					c-1.8-0.5-3.6-0.9-5.4-0.9C33.2,89.2,31.1,98.9,31.1,98.9z"/>
			</g>
		</g>
		<g>
			<path class="st7" d="M31.1,98.9c0,1,3,1.8,6.6,1.8c3.6,0,6.5-0.8,6.5-1.8c0-1-3-1.8-6.6-1.8C34,97,31.1,97.9,31.1,98.9z"/>
		</g>
		<g>
			<path class="st9" d="M48.7,89.5c1.3-0.3,2.2-1.2,2.6-2.4l1.3-3.9l0.4-1.1l2.2-6.7l0.2,6.7l0.1,4l0,1.2c0,0.9,0.1,2.1,1.1,2.5
				c0,0,1.3,2.2-0.2,2.8C53.9,93.4,48.7,89.5,48.7,89.5z"/>
		</g>
		<g>
			<path class="st7" d="M47.5,75c0,0,0.4,1.1-0.1,3.4c-0.6,3.4,3.3,4.4,4.2,3.4C51.7,81.6,51,76,51,76l-1.3-0.6L47.5,75z"/>
		</g>
		<g>
			<path class="st7" d="M52.6,83.1c0,0,0,0.1,0,0.1c0.4,2.1,2.8,2.9,2.8,2.9l0,0l-0.1-4c-0.7-0.2-1.8-0.4-2.3,0
				C52.7,82.2,52.5,82.6,52.6,83.1z"/>
		</g>
		<g>
			
				<ellipse transform="matrix(0.9955 -9.479965e-02 9.479965e-02 0.9955 -6.9908 5.6118)" class="st9" cx="55.6" cy="76.4" rx="6.3" ry="7.8"/>
		</g>
		<g>
			<path class="st7" d="M57.5,70.2c-0.2,0.3,1.2,4.1-6.1,5.8c-7.3,1.7-3.7-7.7,1.7-8.4c7.8-1,9.5,4.1,8.9,6.1
				C61.5,75.6,57.5,70.2,57.5,70.2z"/>
		</g>
		<g>
			<path class="st7" d="M45.6,66.4c0,0,3.5,1.9,1.2,4.2c-2.4,2.3-9.3,3.9-7,7.3c2.2,3.3,4.4,8.4,1,9.4c-3.4,1-5.6,0.9-6.7,3.8
				s-7.6,1.8-7.4-1.5c0.2-3.3-5.4-5.7-3.4-8.9s7.4-6.4,8.4-10.4C32.8,66.2,42.8,64.9,45.6,66.4z"/>
		</g>
		<g>
			<path class="st7" d="M52.1,74.7c0,0-2.7,3.5-1.4,6.6c0,0-1.9-1.7-2-2.5c-0.1-0.7,0.1-3.3,0.1-3.3L52.1,74.7z"/>
		</g>
		<g>
			<path class="st9" d="M50.2,78.1c0.8,0.6,1.8,0.6,2.2-0.1c0.5-0.6,0.2-1.7-0.6-2.3c-0.8-0.6-1.8-0.6-2.2,0.1
				C49.2,76.4,49.5,77.5,50.2,78.1z"/>
		</g>
		<g>
			<path class="st10" d="M28.6,92.6c0.9-0.4,1.3-0.9,1.5-1.5c0.2-0.9-0.4-1.7-1-2.6c-0.6-0.8-1.1-1.6-1.1-2.4c0.1-1,1.3-1.3,2.5-1.6
				c1.1-0.3,2.2-0.6,2.5-1.3c0.2-0.3,0.2-0.8,0-1.2c-0.2-0.5-0.4-1-0.6-1.5c-0.9-2-1.7-3.5,1.2-7.6c3.7-5.1,7.1-5.7,10.2-5.5
				c0.4,0,1.3,0.4,1.4,0.8c0,0.2-0.2,0.8-2.9,1.4c0,0-3.7,1.2-5.1,5.4c-0.7,2.2,0.8,4.4,2.1,6.1c0.9,1.2,1.6,2.2,1.5,2.9
				c0,0.3-0.2,0.5-0.5,0.7c-0.7,0.5-1.5,0.8-2.3,1.1c-2.1,0.8-4.1,1.5-4,5.3l0.3,0c-0.1-3.6,1.8-4.3,3.8-5c0.8-0.3,1.6-0.6,2.4-1.1
				c0.3-0.2,0.6-0.5,0.6-0.9c0.1-0.9-0.6-1.9-1.5-3.1c-1.3-1.8-2.8-3.8-2.1-5.9c1.4-4.1,4.9-5.2,4.9-5.3c2.1-0.5,3.1-1,3.1-1.7
				c-0.1-0.7-1.2-1.1-1.6-1.1c-3.2-0.2-6.7,0.4-10.4,5.6c-2.9,4.1-2.2,5.8-1.2,7.8c0.2,0.5,0.4,0.9,0.6,1.4c0.2,0.4,0.2,0.8,0,1
				c-0.3,0.6-1.4,0.9-2.4,1.2c-1.3,0.4-2.7,0.7-2.7,1.9c0,0.9,0.6,1.8,1.1,2.6c0.6,0.9,1.2,1.7,1,2.4c-0.1,0.5-0.6,0.9-1.3,1.3
				L28.6,92.6z"/>
		</g>
		<g>
			<path class="st10" d="M51.1,73.6c2.8-0.3,4-2.8,4.1-2.8L55,70.7c0,0-1.2,2.3-3.9,2.7L51.1,73.6z"/>
		</g>
		<g>
			<g>
				<path class="st10" d="M60.7,80.8c-1.4-0.1-2.5-1.6-2.3-3.3c0.1-0.9,0.5-1.7,1.1-2.3c0.5-0.4,1.1-0.6,1.7-0.6
					c1.4,0.1,2.5,1.6,2.3,3.3c-0.1,0.9-0.5,1.7-1.1,2.3c-0.4,0.3-0.8,0.5-1.3,0.6C61,80.8,60.9,80.8,60.7,80.8z M59.6,75.4
					c-0.6,0.5-1,1.3-1.1,2.1c-0.1,1.6,0.8,3,2.2,3.1c0.6,0.1,1.1-0.1,1.6-0.5c0.6-0.5,1-1.3,1.1-2.1c0.1-1.6-0.8-3-2.2-3.1
					c-0.1,0-0.3,0-0.4,0C60.4,74.9,60,75.1,59.6,75.4z"/>
			</g>
		</g>
		<g>
			<g>
				<path class="st10" d="M54.6,80.5c-1.4-0.1-2.5-1.6-2.3-3.3l0,0c0.1-0.9,0.5-1.7,1.1-2.3c0.5-0.4,1.1-0.6,1.7-0.6
					c1.4,0.1,2.5,1.6,2.3,3.3c-0.1,0.9-0.5,1.7-1.1,2.3c-0.4,0.3-0.8,0.5-1.3,0.6C54.9,80.5,54.7,80.5,54.6,80.5z M53.5,75.1
					c-0.6,0.5-1,1.3-1.1,2.1l0,0c-0.1,1.6,0.8,3,2.2,3.1c0.6,0.1,1.1-0.1,1.6-0.5c0.6-0.5,1-1.3,1.1-2.1c0.1-1.6-0.8-3-2.2-3.1
					c-0.1,0-0.3,0-0.4,0C54.3,74.6,53.8,74.8,53.5,75.1z"/>
			</g>
		</g>
		<g>
			<g>
				<path class="st10" d="M59.2,77.7C59.2,77.7,59.2,77.7,59.2,77.7c0.1-0.1,0.1-0.1,0-0.1c0,0-0.9-0.5-2.3-0.2c0,0-0.1,0.1-0.1,0.1
					c0,0,0.1,0.1,0.1,0.1C58.3,77.2,59.1,77.7,59.2,77.7C59.2,77.7,59.2,77.7,59.2,77.7z"/>
			</g>
		</g>
		<g>
			<path class="st7" d="M59.5,81.1c0,0-2.1,0.3-4.4-0.3c0,0,0,2.1,2.4,2.1C58.9,82.8,59.5,81.1,59.5,81.1z"/>
		</g>
		<g>
			<path class="st10" d="M59.5,81.1c0,0-0.5,0.5-1.7,0.6c-1.2,0.1-2.7-0.9-2.7-0.9S57.8,81.2,59.5,81.1z"/>
		</g>
		<g>
			<g>
				<path class="st7" d="M56.2,76.4C56.2,76.4,56.3,76.3,56.2,76.4c0.1-0.2,0.1-0.2,0-0.3c0,0-1.1-0.4-1.8,0.6c0,0.1,0,0.2,0,0.2
					c0.1,0,0.1,0,0.2,0C55.2,76.4,56.1,76.4,56.2,76.4C56.1,76.4,56.2,76.4,56.2,76.4z"/>
			</g>
		</g>
		<g>
			<path class="st7" d="M55.2,78.1c0,0.3,0.2,0.6,0.5,0.6c0.2,0,0.4-0.3,0.4-0.6c0-0.3-0.2-0.6-0.5-0.6
				C55.4,77.4,55.2,77.7,55.2,78.1z"/>
		</g>
		<g>
			<g>
				<path class="st7" d="M61.3,76.7c0,0,0.1,0,0.1-0.1c0-0.1,0-0.2,0-0.2c0,0-0.8-0.8-1.9-0.1c-0.1,0-0.1,0.1-0.1,0.2
					c0,0.1,0.1,0.1,0.2,0.1C60.4,76.3,61.2,76.6,61.3,76.7C61.3,76.6,61.3,76.7,61.3,76.7z"/>
			</g>
		</g>
		<g>
			<path class="st7" d="M59.8,77.8c-0.1,0.3,0,0.7,0.2,0.7c0.2,0.1,0.5-0.1,0.6-0.4c0.1-0.3,0-0.7-0.2-0.7
				C60.2,77.3,59.9,77.5,59.8,77.8z"/>
		</g>
		<g>
			<g>
				<g>
					<path class="st7" d="M76,209.7l-0.4,0c-0.3,0-0.5-0.5-0.5-1.1l3.1-75.4l5.8-2.9l-7.1,78C76.9,209.1,76.5,209.8,76,209.7z"/>
				</g>
			</g>
			<g>
				<g>
					<path class="st7" d="M164.6,209.7l0.4,0c0.3,0,0.5-0.5,0.5-1.1l-3.1-75.4l-5.8-2.9l7.1,78C163.7,209.1,164.1,209.8,164.6,209.7
						z"/>
				</g>
			</g>
			<g>
				<g>
					<ellipse class="st13" cx="117.9" cy="136.7" rx="52.9" ry="6.8"/>
				</g>
				<g>
					<rect x="65.1" y="133.5" class="st13" width="105.7" height="3.2"/>
				</g>
				<g>
					<ellipse class="st3" cx="117.9" cy="133.5" rx="52.9" ry="6.8"/>
				</g>
				<g>
					<path class="st7" d="M155.8,138.5C155.8,138.5,155.8,138.5,155.8,138.5c4.5-0.6,8-1.3,10.6-2c0.1,0,0.2-0.1,0.1-0.2
						c0-0.1-0.1-0.2-0.2-0.1c-2.5,0.7-6.1,1.4-10.5,2c-0.1,0-0.2,0.1-0.2,0.2C155.6,138.4,155.7,138.5,155.8,138.5z"/>
				</g>
				<g>
					<path class="st7" d="M74,137.5c0.1,0,0.2-0.1,0.2-0.1c0-0.1,0-0.2-0.1-0.2c-0.1,0-5.2-1.1-7.1-2c-0.1,0-0.2,0-0.3,0.1
						c0,0.1,0,0.2,0.1,0.3C68.8,136.5,73.8,137.5,74,137.5C74,137.5,74,137.5,74,137.5z"/>
				</g>
			</g>
		</g>
		<g>
			<g>
				<g>
					<path class="st9" d="M71.5,126.4c0,0,6.4-2.4,8.5-1.5c2.1,0.9,4.1,3.6,2.7,3.3c-1.4-0.3-3.1-1.1-3.1-1.1s3.6,1.9,2.8,2.6
						s-3.9-1.1-3.9-1.1s4.1,2.7,3.1,3c-1,0.4-4.1-1.7-4.1-1.7s3.7,2.6,2.6,3c-1.1,0.4-3-2.2-3.9-1.5c-0.8,0.6-2.8,3.5-4.9,1.4
						L71.5,126.4z"/>
				</g>
			</g>
			<g>
				<g>
					<path class="st9" d="M45.4,126.7c7.2,6.3,14.3,7.5,25.8,6.1l0.3-6.4c-8.4,1-14.2-3.4-19.1-7.7c-6.9-6-8.9-15.3-9.5-19.5
						c-0.1-0.4-0.3-0.7-0.7-0.9c-1.3-0.5-4.4-1.2-9.1,0.2c-0.4,0.1-0.7,0.5-0.7,1C32.8,107.4,36.3,118.8,45.4,126.7z"/>
				</g>
			</g>
			<g class="st14">
				<path class="st15" d="M46.7,124.5c-0.6-0.1-1.3-0.4-1.8-1h0c-0.9-1-0.9-2.3-0.2-3c0.3-0.3,0.7-0.4,1.1-0.3
					c0.6,0.1,1.3,0.4,1.8,1c0.9,1,0.9,2.3,0.2,3c-0.3,0.2-0.6,0.3-1,0.3C46.8,124.5,46.7,124.5,46.7,124.5z M45,120.8
					c-0.6,0.5-0.5,1.6,0.2,2.4h0c0.4,0.5,1,0.8,1.5,0.9c0.3,0,0.6-0.1,0.8-0.2c0.6-0.5,0.5-1.6-0.2-2.4c-0.4-0.5-1-0.8-1.5-0.9
					c0,0-0.1,0-0.1,0C45.4,120.5,45.1,120.6,45,120.8z"/>
			</g>
		</g>
		<g>
			<g>
				<path class="st7" d="M83.8,134h21.6c0.5,0,0.9-0.3,1-0.7l4.5-13.4c0.2-0.7-0.3-1.4-1-1.4H89.1c-0.9,0-1.8,0.6-2.1,1.5l-4.2,12.6
					C82.6,133.3,83.1,134,83.8,134z"/>
			</g>
			<g>
				<path class="st7" d="M85.2,134h21.6c0.5,0,0.9-0.3,1-0.7l4.5-13.4c0.2-0.7-0.3-1.4-1-1.4H90.5c-0.9,0-1.8,0.6-2.1,1.5l-4.2,12.6
					C83.9,133.3,84.4,134,85.2,134z"/>
			</g>
			<g>
				<path class="st5" d="M100.3,125.8c0-0.5-0.6-0.7-1.1-0.7c-0.5,0-1.3,0.6-1.3,1.3c0,0.8,0.6,0.9,1.1,0.9
					C99.5,127.2,100.3,126.4,100.3,125.8z"/>
			</g>
			<g>
				<path class="st7" d="M77.2,132.1h29.5v1.9H76.6c-0.4,0-0.6-0.3-0.6-0.6l0,0C76,132.6,76.5,132.1,77.2,132.1z"/>
			</g>
			<g>
				<path class="st8" d="M86.7,125.3c0,0,1.1-4,1.8-5.2c0.7-1.2,1.5-1.5,1.5-1.5l0-0.1c0,0-0.9,0.3-1.6,1.5
					c-0.7,1.2-1.7,5.1-1.8,5.3L86.7,125.3z"/>
			</g>
			<g>
				<path class="st8" d="M83.5,132.1c0.8,0,1-0.4,1-0.4l1.7-5l-0.1,0l-1.7,5c0,0,0,0,0,0c0,0-0.2,0.3-0.9,0.3L83.5,132.1L83.5,132.1
					z"/>
			</g>
		</g>
	</g>
</g>
</svg>
