<?xml version="1.0" encoding="utf-8"?>
<!-- Generator: Adobe Illustrator 24.3.0, SVG Export Plug-In . SVG Version: 6.00 Build 0)  -->
<svg version="1.1" id="Layer_1" xmlns="http://www.w3.org/2000/svg" xmlns:xlink="http://www.w3.org/1999/xlink" x="0px" y="0px"
	 viewBox="0 0 3000 2000" style="enable-background:new 0 0 3000 2000;" xml:space="preserve">
<style type="text/css">
	.st0{opacity:0.3;fill:#F2CC8F;}
	.st1{fill:#F2CC8F;}
	.st2{fill:#6C301E;}
	.st3{fill:#FFFFFF;}
	.st4{fill:#3F4D79;}
	.st5{fill:#FFB000;}
	.st6{fill:#FFB7D5;}
	.st7{fill:none;}
	.st8{fill:none;stroke:#3F4D79;stroke-width:1.9126;stroke-linecap:round;stroke-miterlimit:10;}
	.st9{fill:#E2A854;}
	.st10{fill:#33364D;}
	.st11{fill:#3F405A;}
	.st12{fill:#FCE7E2;}
	.st13{fill:#E57281;}
	.st14{fill:#3C4564;}
	.st15{fill:#F1921B;}
	.st16{fill:#2F3A5B;}
	.st17{fill:#F4DEBE;}
	.st18{fill:#E6E6FF;}
	.st19{clip-path:url(#SVGID_2_);fill:#F0F0FF;}
	.st20{clip-path:url(#SVGID_4_);fill:#F0F0FF;}
	.st21{clip-path:url(#SVGID_6_);fill:#F0F0FF;}
	.st22{clip-path:url(#SVGID_8_);fill:#F0F0FF;}
	.st23{clip-path:url(#SVGID_10_);fill:#F0F0FF;}
	.st24{clip-path:url(#SVGID_12_);fill:#F0F0FF;}
</style>
<path class="st0" d="M2952.3,875.5C2769,812.4,2656.9-149.7,1890.8,370.9c-673.4,457.7-655.6-218.4-1236.6,79.2
	C277,643.4,234.6,864.5,286.5,975.2c56.7,121-169.3,265.7-400.7,365.1c-362.9,155.9-96.1,703.7,246.8,706.3
	c342.9,2.6,2861.9-5.2,2861.9-5.2S3680.1,1125.9,2952.3,875.5z"/>
<g id="pc_1_">
	<g>
		<rect x="2129.8" y="1390.9" class="st1" width="104" height="188.2"/>
		<path class="st2" d="M2581.9,1431.8h-800.3c-7.3,0-13.3-5.9-13.3-13.3v-478c0-7.3,5.9-13.3,13.3-13.3h800.3
			c7.3,0,13.3,5.9,13.3,13.3v478C2595.1,1425.9,2589.2,1431.8,2581.9,1431.8z"/>
		<g>
			<rect x="1805" y="962.2" class="st3" width="753.8" height="399"/>
			<path class="st4" d="M2560.4,1362.8h-756.9V960.6h756.9V1362.8z M1806.6,1359.6h750.7V963.7h-750.7L1806.6,1359.6L1806.6,1359.6z
				"/>
		</g>
		<g>
			<rect x="2261.8" y="1068.5" class="st4" width="15.9" height="86.8"/>
			<rect x="2291.5" y="1095.5" class="st4" width="15.9" height="59.8"/>
			<rect x="2322.4" y="1080.8" class="st4" width="15.9" height="74.5"/>
			<rect x="2353.2" y="1041.4" class="st4" width="15.9" height="113.9"/>
		</g>
		<g>
			<path class="st4" d="M2532.9,1180.3h-291.6c-4.6,0-8.4-3.8-8.4-8.4v-171.5c0-4.6,3.8-8.4,8.4-8.4h291.6c4.6,0,8.4,3.8,8.4,8.4
				v171.5C2541.3,1176.5,2537.5,1180.3,2532.9,1180.3z M2241.3,993.6c-3.8,0-6.8,3.1-6.8,6.8v171.5c0,3.8,3.1,6.8,6.8,6.8h291.6
				c3.8,0,6.8-3.1,6.8-6.8v-171.5c0-3.8-3.1-6.8-6.8-6.8L2241.3,993.6L2241.3,993.6z"/>
			<rect x="2233.7" y="1018.6" class="st4" width="306.8" height="1.6"/>
			<path class="st5" d="M2249.2,1006.9c0,1.6-1.3,3-3,3s-3-1.3-3-3c0-1.6,1.3-3,3-3S2249.2,1005.3,2249.2,1006.9z"/>
			<path class="st4" d="M2259,1006.9c0,1.6-1.3,3-3,3c-1.6,0-3-1.3-3-3c0-1.6,1.3-3,3-3C2257.7,1004,2259,1005.3,2259,1006.9z"/>
			<path class="st4" d="M2267.7,1006.9c0,1.6-1.3,3-3,3c-1.6,0-3-1.3-3-3c0-1.6,1.3-3,3-3C2266.4,1004,2267.7,1005.3,2267.7,1006.9z
				"/>
		</g>
		<g>
			<circle class="st6" cx="2458.8" cy="1103.5" r="50.8"/>
			<polygon class="st4" points="2509.6,1106.6 2455.7,1106.6 2455.7,1052.7 2461.9,1052.7 2461.9,1100.4 2509.6,1100.4 			"/>
		</g>
		<g>
			<g>
				<g>
					<path class="st3" d="M2193,1264.3h-340.6c-4.9,0-8.9-4-8.9-8.9v-200.3c0-4.9,4-8.9,8.9-8.9H2193c4.9,0,8.9,4,8.9,8.9v200.3
						C2201.9,1260.4,2197.9,1264.3,2193,1264.3z"/>
					<path class="st4" d="M2193,1265.1h-340.6c-5.3,0-9.7-4.3-9.7-9.7v-200.3c0-5.3,4.3-9.7,9.7-9.7H2193c5.3,0,9.7,4.3,9.7,9.7
						v200.3C2202.7,1260.8,2198.3,1265.1,2193,1265.1z M1852.4,1047c-4.5,0-8.1,3.6-8.1,8.1v200.3c0,4.5,3.6,8.1,8.1,8.1H2193
						c4.5,0,8.1-3.6,8.1-8.1v-200.3c0-4.5-3.6-8.1-8.1-8.1H1852.4L1852.4,1047z"/>
				</g>
				<g>
					<line class="st7" x1="1843.5" y1="1077.2" x2="2201.9" y2="1077.2"/>
					<rect x="1843.5" y="1076.4" class="st4" width="358.4" height="1.6"/>
				</g>
			</g>
			<g>
				<path class="st5" d="M1864.2,1063.2c0,1.9-1.5,3.5-3.5,3.5s-3.5-1.5-3.5-3.5c0-1.9,1.5-3.5,3.5-3.5
					C1862.6,1059.8,1864.2,1061.3,1864.2,1063.2z"/>
				<path class="st4" d="M1875.6,1063.2c0,1.9-1.5,3.5-3.5,3.5c-1.9,0-3.5-1.5-3.5-3.5c0-1.9,1.5-3.5,3.5-3.5
					C1874.1,1059.8,1875.6,1061.3,1875.6,1063.2z"/>
				<path class="st4" d="M1885.8,1063.2c0,1.9-1.5,3.5-3.5,3.5c-1.9,0-3.5-1.5-3.5-3.5c0-1.9,1.5-3.5,3.5-3.5
					C1884.3,1059.8,1885.8,1061.3,1885.8,1063.2z"/>
			</g>
			<path class="st2" d="M1983.3,1128.9v76.2c0,7.2,7.9,11.6,14,7.7l60.5-38.1c5.7-3.6,5.7-11.9,0-15.5l-60.5-38.1
				C1991.2,1117.3,1983.3,1121.7,1983.3,1128.9z"/>
		</g>
		<ellipse class="st1" cx="2178.6" cy="1397.7" rx="23.4" ry="23.4"/>
		<g>
			<g>
				<g>
					<g>
						<path class="st3" d="M2485.6,1321.1h-195.1c-2.8,0-5.1-2.3-5.1-5.1v-114.8c0-2.8,2.3-5.1,5.1-5.1h195.1c2.8,0,5.1,2.3,5.1,5.1
							V1316C2490.6,1318.8,2488.4,1321.1,2485.6,1321.1z"/>
						<path class="st4" d="M2485.6,1321.9h-195.1c-3.2,0-5.9-2.6-5.9-5.9v-114.8c0-3.2,2.6-5.9,5.9-5.9h195.1c3.2,0,5.9,2.6,5.9,5.9
							V1316C2491.4,1319.2,2488.8,1321.9,2485.6,1321.9z M2290.4,1196.9c-2.4,0-4.3,1.9-4.3,4.3V1316c0,2.4,1.9,4.3,4.3,4.3h195.1
							c2.4,0,4.3-1.9,4.3-4.3v-114.8c0-2.4-1.9-4.3-4.3-4.3L2290.4,1196.9L2290.4,1196.9z"/>
					</g>
					<g>
						<line class="st7" x1="2285.3" y1="1213.9" x2="2490.6" y2="1213.9"/>
						<rect x="2285.3" y="1213.1" class="st4" width="205.3" height="1.6"/>
					</g>
				</g>
				<g>
					<path class="st5" d="M2297.2,1205.9c0,1.1-0.9,2-2,2s-2-0.9-2-2s0.9-2,2-2S2297.2,1204.8,2297.2,1205.9z"/>
					<path class="st4" d="M2303.7,1205.9c0,1.1-0.9,2-2,2s-2-0.9-2-2s0.9-2,2-2C2302.9,1203.9,2303.7,1204.8,2303.7,1205.9z"/>
					<path class="st4" d="M2309.6,1205.9c0,1.1-0.9,2-2,2s-2-0.9-2-2s0.9-2,2-2S2309.6,1204.8,2309.6,1205.9z"/>
				</g>
			</g>
			<g>
				<g>
					<path class="st3" d="M2299.8,1252.3c5.3,0,5.3,24.9,10.6,24.9s5.3-24.9,10.6-24.9s5.3,24.9,10.7,24.9c5.3,0,5.3-24.9,10.7-24.9
						c5.3,0,5.3,24.9,10.7,24.9c5.3,0,5.3-24.9,10.7-24.9c5.3,0,5.3,24.9,10.7,24.9c5.3,0,5.3-24.9,10.7-24.9
						c5.3,0,5.3,24.9,10.6,24.9s5.3-24.9,10.7-24.9c5.3,0,5.3,24.9,10.7,24.9c5.3,0,5.3-24.9,10.7-24.9c5.3,0,5.3,24.9,10.7,24.9
						c5.3,0,5.3-24.9,10.7-24.9c5.3,0,5.3,24.9,10.7,24.9s5.4-24.9,10.7-24.9c5.4,0,5.4,24.9,10.7,24.9"/>
					<path class="st4" d="M2481.1,1278c-3.3,0-4.6-6.1-6.1-13.1c-1.1-5.3-2.5-11.9-4.6-11.9c-2,0-3.5,6.6-4.6,11.9
						c-1.5,7-2.8,13.1-6.1,13.1s-4.6-6.1-6.1-13.1c-1.1-5.3-2.5-11.9-4.6-11.9c-2,0-3.4,6.6-4.6,11.9c-1.5,7-2.8,13.1-6.1,13.1
						s-4.6-6.1-6.1-13.1c-1.1-5.3-2.5-11.9-4.6-11.9c-2,0-3.4,6.6-4.6,11.9c-1.5,7-2.8,13.1-6.1,13.1s-4.6-6.1-6.1-13.1
						c-1.1-5.3-2.5-11.9-4.6-11.9c-2,0-3.4,6.6-4.6,11.9c-1.5,7-2.8,13.1-6.1,13.1s-4.6-6.1-6.1-13.1c-1.1-5.3-2.5-11.9-4.6-11.9
						c-2,0-3.4,6.6-4.6,11.9c-1.5,7-2.8,13.1-6.1,13.1s-4.6-6.1-6.1-13.1c-1.1-5.3-2.5-11.9-4.6-11.9c-2,0-3.4,6.6-4.6,11.9
						c-1.5,7-2.8,13.1-6.1,13.1s-4.6-6.1-6.1-13.1c-1.1-5.3-2.5-11.9-4.6-11.9c-2,0-3.4,6.6-4.6,11.9c-1.5,7-2.8,13.1-6.1,13.1
						s-4.6-6.1-6.1-13.1c-1.1-5.3-2.5-11.9-4.6-11.9c-2,0-3.4,6.6-4.6,11.9c-1.5,7-2.8,13.1-6.1,13.1s-4.6-6.1-6.1-13.1
						c-1.1-5.3-2.5-11.9-4.6-11.9v-1.6c3.3,0,4.6,6.1,6.1,13.1c1.1,5.3,2.5,11.9,4.6,11.9c2,0,3.4-6.6,4.6-11.9
						c1.5-7,2.8-13.1,6.1-13.1s4.6,6.1,6.1,13.1c1.1,5.3,2.5,11.9,4.6,11.9c2,0,3.4-6.6,4.6-11.9c1.5-7,2.8-13.1,6.1-13.1
						s4.6,6.1,6.1,13.1c1.1,5.3,2.5,11.9,4.6,11.9c2,0,3.4-6.6,4.6-11.9c1.5-7,2.8-13.1,6.1-13.1s4.6,6.1,6.1,13.1
						c1.1,5.3,2.5,11.9,4.6,11.9c2,0,3.4-6.6,4.6-11.9c1.5-7,2.8-13.1,6.1-13.1s4.6,6.1,6.1,13.1c1.1,5.3,2.5,11.9,4.6,11.9
						c2,0,3.4-6.6,4.6-11.9c1.5-7,2.8-13.1,6.1-13.1s4.6,6.1,6.1,13.1c1.1,5.3,2.5,11.9,4.6,11.9c2,0,3.4-6.6,4.6-11.9
						c1.5-7,2.8-13.1,6.1-13.1s4.6,6.1,6.1,13.1c1.1,5.3,2.5,11.9,4.6,11.9c2,0,3.4-6.6,4.6-11.9c1.5-7,2.8-13.1,6.1-13.1
						s4.6,6.1,6.1,13.1c1.1,5.3,2.5,11.9,4.6,11.9c2,0,3.5-6.6,4.6-11.9c1.5-7,2.8-13.1,6.1-13.1s4.6,6.1,6.1,13.1
						c1.1,5.3,2.5,11.9,4.6,11.9V1278L2481.1,1278z"/>
				</g>
				<path class="st6" d="M2457.6,1253.3c0,4.8-3.9,8.6-8.6,8.6s-8.6-3.9-8.6-8.6c0-4.8,3.9-8.6,8.6-8.6S2457.6,1248.6,2457.6,1253.3
					z"/>
			</g>
		</g>
	</g>
	<rect x="1961.7" y="1563.4" class="st2" width="433.5" height="15.7"/>
</g>
<path class="st8" d="M428.2,1045.4"/>
<path class="st8" d="M458.5,1170.5"/>
<g id="all_1_">
	<g id="Cabinet_1_">
		<rect x="653.3" y="1579.1" class="st1" width="1951.8" height="892"/>
		<rect x="2337.2" y="1579.1" class="st9" width="268" height="892"/>
		<g>
			<g>
				<g>
					<ellipse class="st2" cx="877.9" cy="1675.1" rx="42.9" ry="42.9"/>
					<g>
						<rect x="869.8" y="1624.6" class="st9" width="16" height="33.4"/>
					</g>
				</g>
			</g>
			<g>
				<g>
					<circle class="st2" cx="1065" cy="1675.2" r="42.9"/>
					<g>
						
							<rect x="1072.3" y="1643.2" transform="matrix(0.7071 -0.7071 0.7071 0.7071 -848.5832 1253.6471)" class="st9" width="33.4" height="16"/>
					</g>
				</g>
			</g>
			<g>
				<g>
					<ellipse class="st2" cx="1258.9" cy="1671.3" rx="42.9" ry="42.9"/>
					<g>
						<rect x="1208.4" y="1663.3" class="st9" width="33.4" height="16"/>
					</g>
				</g>
			</g>
			<g>
				<g>
					<ellipse class="st2" cx="1441" cy="1672.3" rx="42.9" ry="42.9"/>
					<g>
						<rect x="1458.4" y="1664.4" class="st9" width="33.4" height="16"/>
					</g>
				</g>
			</g>
		</g>
		<g>
			<g>
				<rect x="749.4" y="1748.6" class="st2" width="849.5" height="663"/>
				<g>
					<g>
						<rect x="804.3" y="1819.5" class="st9" width="303.6" height="3.7"/>
						<rect x="804.3" y="1925.5" class="st9" width="303.6" height="3.7"/>
						<rect x="804.3" y="2031.5" class="st9" width="303.6" height="3.7"/>
						<rect x="804.3" y="2137.4" class="st9" width="303.6" height="3.7"/>
						<rect x="804.3" y="2243.4" class="st9" width="303.6" height="3.7"/>
						<rect x="804.3" y="2349.4" class="st9" width="303.6" height="3.7"/>
					</g>
				</g>
			</g>
			<g>
				<g>
					<path class="st9" d="M1542.8,2366.3h-370v-546.7h370V2366.3L1542.8,2366.3z M1176.4,2362.7h362.8v-539.5h-362.8L1176.4,2362.7
						L1176.4,2362.7z"/>
				</g>
			</g>
			<g>
				<g>
					<g>
						<rect x="1324.4" y="2045.8" class="st9" width="27" height="94.4"/>
						<rect x="1364.2" y="2045.8" class="st9" width="27" height="94.4"/>
					</g>
				</g>
				<rect x="1334.8" y="1845.1" class="st9" width="6.2" height="215.1"/>
				<rect x="1334.8" y="2140.1" class="st9" width="6.2" height="200.8"/>
				<rect x="1374.6" y="1845" class="st9" width="6.2" height="215.1"/>
				<rect x="1374.6" y="2140" class="st9" width="6.2" height="200.8"/>
			</g>
		</g>
		<g>
			<g>
				<rect x="1688.9" y="1647.3" class="st2" width="593.8" height="140.2"/>
				<circle class="st9" cx="1985.8" cy="1717.4" r="19.9"/>
			</g>
			<g>
				<rect x="1688.9" y="1811.5" class="st2" width="593.8" height="140.2"/>
				<ellipse class="st9" cx="1985.9" cy="1881.6" rx="19.9" ry="19.9"/>
			</g>
			<g>
				<path class="st4" d="M1968.2,2414.7h-276.3v-411.1h276.3V2414.7z M1698.1,2408.5H1962v-398.7h-263.9V2408.5z"/>
				<ellipse class="st4" cx="1922.8" cy="2199.5" rx="21.2" ry="21.4"/>
				<g>
					<path class="st4" d="M2285.8,2414.7h-276.3v-411.1h276.3V2414.7z M2015.7,2408.5h263.9v-398.7h-263.9L2015.7,2408.5
						L2015.7,2408.5z"/>
					<ellipse class="st4" cx="2056.8" cy="2199.5" rx="21.2" ry="21.4"/>
				</g>
			</g>
		</g>
	</g>
	<g>
		<path class="st2" d="M2776,2471.1h-304.8v-433.6c0-84.2,68.2-152.4,152.4-152.4l0,0c84.2,0,152.4,68.2,152.4,152.4L2776,2471.1
			L2776,2471.1z"/>
		<rect x="2549.7" y="1778.6" class="st1" width="161.2" height="142.6"/>
		<g>
			<g>
				<rect x="2549.7" y="1778.6" class="st2" width="30.3" height="149.4"/>
				<rect x="2680.6" y="1778.6" class="st2" width="30.3" height="149.4"/>
			</g>
		</g>
		<polygon class="st9" points="2656.3,1860.8 2604.2,1860.8 2604.2,1885.1 2616.5,1885.1 2616.5,1921.2 2643.9,1921.2 
			2643.9,1885.1 2656.3,1885.1 		"/>
		<g>
			<path class="st2" d="M2549.7,1867.1h-72.3c-12.1,0-21.9-9.8-21.9-21.9v-112.4c0-5-4.1-9.2-9.1-9.2h-30.5v-12.5h30.4
				c11.9,0,21.6,9.7,21.6,21.6v112.4c0,5.2,4.2,9.4,9.4,9.4h72.3v12.6H2549.7z"/>
		</g>
	</g>
	<g id="Pot_1_">
		<rect x="762.1" y="1546.6" class="st9" width="288.8" height="31.4"/>
		<path class="st2" d="M1068.9,1369.3h-24.7v-24H768.7v24h-24v42.8h24v86.5c0,27.1,22,49.1,49.1,49.1h177.5
			c27.1,0,49.1-22,49.1-49.1v-86.5h24.7L1068.9,1369.3L1068.9,1369.3z M751.4,1405.5V1376h17.3v29.5H751.4z M1062.3,1405.5h-18V1376
			h18V1405.5z"/>
	</g>
</g>
<g id="Tab_Browser_1_">
	<g>
		<polygon class="st10" points="717.4,833 717.4,980.3 571.7,833.5 		"/>
		<g>
			<line class="st7" x1="488.5" y1="298" x2="1312.6" y2="298"/>
			<rect x="488.5" y="296.4" class="st4" width="824.1" height="3.3"/>
		</g>
		<g>
			<g>
				<path class="st11" d="M1310.4,296.4v491.4c-0.1,25-20.3,45.2-45.3,45.2H533.8c-25,0-45.3-20.3-45.3-45.3V296.4h-1.6v491.4
					c0,25.9,21,46.9,46.9,46.9h731.3c25.9,0,46.9-21.1,46.9-46.9V296.4H1310.4z"/>
				<path class="st11" d="M1308.7,787.8c0,24-19.6,43.6-43.6,43.6H533.8c-24,0-43.6-19.6-43.6-43.6V296.4h-1.7v491.3
					c0,25,20.3,45.3,45.3,45.3h731.3c25,0,45.2-20.2,45.3-45.2V296.4h-1.7L1308.7,787.8L1308.7,787.8z"/>
			</g>
		</g>
	</g>
	<g>
		<g>
			<g>
				<g>
					<rect x="821.4" y="387" class="st12" width="290.3" height="16.4"/>
					<rect x="821.4" y="414.9" class="st12" width="290.3" height="16.4"/>
					<rect x="821.4" y="442.8" class="st12" width="128.9" height="16.4"/>
				</g>
				<circle class="st1" cx="687.4" cy="421.4" r="54.3"/>
			</g>
			<g>
				<g>
					<polygon class="st2" points="687.4,450.4 652.4,409.3 666.5,397.4 687.5,422 747.3,352.3 761.3,364.3 					"/>
				</g>
			</g>
		</g>
		<g>
			<g>
				<g>
					<rect x="821.4" y="544.1" class="st12" width="290.3" height="16.4"/>
					<rect x="821.4" y="572" class="st12" width="290.3" height="16.4"/>
					<rect x="821.4" y="600" class="st12" width="128.9" height="16.4"/>
				</g>
				<circle class="st1" cx="687.4" cy="578.5" r="54.3"/>
			</g>
			<g>
				<polygon class="st2" points="687.4,607.5 652.4,566.5 666.5,554.5 687.5,579.1 747.3,509.4 761.3,521.4 				"/>
			</g>
		</g>
		<g>
			<g>
				<g>
					<rect x="821.4" y="695.9" class="st12" width="290.3" height="16.4"/>
					<rect x="821.4" y="723.9" class="st12" width="290.3" height="16.4"/>
					<rect x="821.4" y="751.8" class="st12" width="128.9" height="16.4"/>
				</g>
				<circle class="st1" cx="687.4" cy="730.4" r="54.3"/>
			</g>
			<g>
				<polygon class="st2" points="687.4,759.3 652.4,718.3 666.5,706.3 687.5,730.9 747.3,661.2 761.3,673.2 				"/>
			</g>
		</g>
	</g>
</g>
<g>
	<g>
		<g>
			<g>
				<g>
					<g>
						<g>
							
								<rect x="146.9" y="2284.6" transform="matrix(0.2138 -0.9769 0.9769 0.2138 -2116.4661 2017.5283)" class="st13" width="96.5" height="78"/>
						</g>
						<g>
							<path class="st4" d="M150,2344.4c19.8,7.9,52.6,17.4,75.9,5.6l93.1,69.6c13.3,9.9,19.5,26.7,16,42.8l0,0l-219.1-48l12.9-58.8
								C130.8,2346.1,141,2340.8,150,2344.4z"/>
						</g>
					</g>
					<g>
						<path class="st14" d="M451.1,1332.1c0,0-57.5,496.6-210.8,987.7l-85.5-18.7l84.6-749.4c0,0-91.2-157.1-39.5-274.6
							L451.1,1332.1z"/>
					</g>
				</g>
				<g>
					<g>
						<g>
							<rect x="395.4" y="2308.7" class="st13" width="78" height="96.5"/>
						</g>
						<g>
							<path class="st4" d="M394.8,2386.7c21,3.5,55.1,5.7,75.3-10.8l105.8,48.1c15.1,6.8,24.8,21.9,24.8,38.4l0,0H376.4v-60.2
								C376.4,2392.4,385.2,2385.1,394.8,2386.7z"/>
						</g>
					</g>
					<g>
						<path class="st4" d="M468.9,1329.9c0,0,55,338.5,15.1,1009.9h-97.4L309,1589.7c0,0-122.7-134-97.3-259.8L468.9,1329.9
							L468.9,1329.9z"/>
					</g>
				</g>
			</g>
			<g>
				<g>
					
						<rect x="262.6" y="2391.7" transform="matrix(0.6025 -0.7981 0.7981 0.6025 -1800.6184 1177.9001)" class="st15" width="39.2" height="10"/>
				</g>
				<g>
					
						<rect x="239.3" y="2374.1" transform="matrix(0.6025 -0.7981 0.7981 0.6025 -1795.8314 1152.3029)" class="st15" width="39.2" height="10"/>
				</g>
			</g>
			<g>
				<g>
					
						<rect x="523.4" y="2407.5" transform="matrix(0.4154 -0.9096 0.9096 0.4154 -1877.0339 1904.1996)" class="st15" width="39.2" height="10"/>
				</g>
				<g>
					
						<rect x="496.8" y="2395.4" transform="matrix(0.4154 -0.9096 0.9096 0.4154 -1881.6307 1872.974)" class="st15" width="39.2" height="10"/>
				</g>
			</g>
		</g>
		<g>
			<g>
				<path class="st2" d="M249.8,734.8c-20.1,13.8-26.4,40.5-42.1,59c-14.3,16.8-35.9,26.5-48.8,44.4c-12.3,17.1-14.9,39-22.2,58.7
					c-6.8,18.3-18.1,34.9-32.5,48.1c-10,9.1-21.4,16.7-30.1,27s-14.4,24.6-10,37.4c6.3,18,28.4,24.2,47.3,26.4
					c31.5,3.7,63.5,3.8,95,0.2c20.9-2.3,43-6.9,57.9-21.7c15.5-15.4,20.1-38.5,32.5-56.4c8.8-12.7,21.3-22.5,28.9-35.9
					c6.4-11.5,8.9-24.9,15.5-36.2c10.5-17.8,30.4-28.5,41.2-46.1c10.4-17,11-38.4,7.6-58.1c-3-17.2-9.2-34.6-22.1-46.4
					c-18.2-16.6-32.7-7.4-52.8-6.6C291.8,729.5,271.5,719.8,249.8,734.8z"/>
			</g>
			<path class="st13" d="M370.2,901l-9.9-91.9c-0.5-4.3-4.1-7.6-8.5-7.6h-50c-16.5,0-30,13.4-30,30V845c-1.5-0.5-3.2-0.8-4.9-0.8
				c-8.7,0-15.7,7-15.7,15.7s7,15.7,15.7,15.7c1.3,0,2.5-0.2,3.7-0.5L260.2,990h78v-73.8l13.7,2.1c8.9,1.4,16.9-4.8,18.2-13.3
				C370.4,903.6,370.3,902.3,370.2,901z"/>
			<g>
				<g>
					<g>
						<path class="st16" d="M348.4,840.2c0,3.8,1.1,6.8,2.4,6.8s2.4-3.1,2.4-6.8s-1.1-6.8-2.4-6.8S348.4,836.4,348.4,840.2z"/>
					</g>
				</g>
				<g>
					<g>
						<path class="st16" d="M322.6,840.2c0,3.8,1.1,6.8,2.4,6.8s2.4-3.1,2.4-6.8s-1.1-6.8-2.4-6.8S322.6,836.4,322.6,840.2z"/>
					</g>
				</g>
				<g>
					<g>
						<path class="st16" d="M339.5,838.6l9.8,30.6c0.7,2.3-1,4.7-3.4,4.7h-2.8c-1.5,0-2.8-1.2-2.8-2.7l-1.7-32.4
							C338.5,838.2,339.3,838,339.5,838.6z"/>
					</g>
				</g>
				<path class="st16" d="M359.4,892.3c-0.5-0.6-1.4-0.6-2-0.1c-0.4,0.3-8.9,7.6-24.9-3l1.9-3c0.4-0.6,0.2-1.5-0.4-1.9
					s-1.5-0.2-1.9,0.4l-5.8,8.9c-0.4,0.6-0.2,1.5,0.4,1.9c0.2,0.2,0.5,0.2,0.8,0.2c0.5,0,0.9-0.2,1.2-0.6l2.4-3.6
					c7.2,4.7,13.1,6.2,17.6,6.2c6.8,0,10.5-3.2,10.7-3.4C359.8,893.8,359.9,892.9,359.4,892.3z"/>
				<g>
					<g>
						<polygon class="st16" points="338.3,916.2 310.5,910.3 338.3,938.1 						"/>
					</g>
				</g>
				<g>
					<g>
						<path class="st16" d="M270.9,869.8c-0.8,0-1.4-0.6-1.4-1.4v-13.8c0-0.7-0.6-1.3-1.3-1.3h-4.6c-0.8,0-1.4-0.6-1.4-1.4
							c0-0.8,0.6-1.4,1.4-1.4h4.6c2.3,0,4.1,1.8,4.1,4.1v13.8C272.3,869.1,271.7,869.8,270.9,869.8z"/>
					</g>
				</g>
			</g>
			<path class="st2" d="M379.8,791.1c-3.3-6-8.5-10.7-13.9-14.9c-3.7-2.9-7.7-5.7-12.1-7.3c-4.5-1.6-9.6-1.8-13.8,0.3
				c-4,2.1-6.8,6-9,9.9c-2.2,3.8-4.5,7.9-3.7,12.3c0.1,0.6,0.3,1.2,0.4,1.8c-71.1-11.9-79.6,29.6-79.6,29.6l23.7,21.2
				c21.2-3.9,35.3-10.1,44.7-16.8c-5.9,5.8-14,11.9-25,17.9c-1,0.6-1.4,1.8-0.8,2.8c0.4,0.7,1.1,1.1,1.8,1.1c0.3,0,0.7-0.1,1-0.3
				c25.5-13.9,36.1-28.5,40.5-38.7c2,3.1,4.3,6.1,6.7,8.9c4,4.7,8.3,9.2,13.4,12.7c5.1,3.4,11.1,5.8,17.3,5.7c2.5,0,5.1-0.6,6.9-2.3
				c0.9-0.9,1.5-2,2-3.1c2-4.4,2.9-9.3,3.3-14.1C384.5,808.7,384.2,799.2,379.8,791.1z"/>
		</g>
		<g>
			<g>
				<g>
					<path class="st17" d="M918.8,1150.9l-14.8,2.4c-1.4-0.8-2.8-1.6-4.2-2.4c-1.2-0.7-2.4-1.4-3.6-2.1l-0.1-0.1l0,0
						c-1.6-0.9-3.3-1.7-5.1-2c-3.4-0.4-6.7,1.2-9.7,2.7c-6.1,3.3-12,6.9-18,10.4v0.1l-317.6-78.5l-17,86.8l328.8,31.9l0.1-0.3
						l45-0.2c2.4,0,4.5-1.5,5.3-3.7l15.1-40.3C923.9,1153,921.6,1150.3,918.8,1150.9z"/>
					<g>
						<g>
							<path class="st17" d="M903.1,1164.6c-0.3-0.2-0.5-0.5-0.5-0.8c0-0.6,0.4-1.1,1-1.2l15.8-1.2c0.6,0,1.1,0.4,1.2,1
								c0,0.6-0.4,1.1-1,1.2l-15.8,1.2C903.5,1164.8,903.3,1164.7,903.1,1164.6z"/>
						</g>
						<g>
							<path class="st17" d="M895.6,1177.8c-0.3-0.2-0.5-0.5-0.5-0.9c0-0.6,0.4-1.1,1-1.1l19.1-0.9c0.6,0,1.1,0.4,1.1,1
								s-0.4,1.1-1,1.1l-19.1,0.9C896,1178,895.8,1177.9,895.6,1177.8z"/>
						</g>
						<g>
							<path class="st17" d="M888.6,1189.7c-0.3-0.2-0.5-0.5-0.5-0.9c0-0.6,0.5-1.1,1.1-1.1l20.9-0.5c0.6,0,1.1,0.5,1.1,1.1
								s-0.5,1.1-1.1,1.1l-20.9,0.5C888.9,1189.8,888.7,1189.8,888.6,1189.7z"/>
						</g>
					</g>
					<g>
						<path class="st17" d="M896.1,1148.7"/>
					</g>
				</g>
				<polygon class="st2" points="858.5,1345.3 841.4,1345.2 891.5,1132.5 905.7,1135.7 				"/>
				<path class="st17" d="M885.6,1147.7c0.7-0.4,1.4-0.6,2.2-0.7c4-0.7,17.3-2.4,21.9,5.4l-3,4.6l-23.4,9.2c-4.5,1.8-9.5-1-10.4-5.8
					l0,0c-0.6-3.3,1-6.7,4-8.2L885.6,1147.7z"/>
				<path class="st17" d="M881.2,1168.3c-0.6,0-1.2-0.4-1.5-1c-0.3-0.8,0.1-1.7,0.9-2l23.1-8.8c0.8-0.3,1.7,0.1,2,0.9
					s-0.1,1.7-0.9,2l-23.1,8.8C881.6,1168.2,881.4,1168.3,881.2,1168.3z"/>
			</g>
		</g>
		<g>
			<g>
				<path class="st1" d="M548.2,1072.4L391.8,964.5v0.1c-11.7-9.6-26.6-14-46.5-14H235.5c-23.5,0-44.6,9.9-59.4,25.6l0,0
					L39.6,1120.9l120.1,59.6l-0.8,196c0,0,12.9,51.1,162,46.3s178.9-79.3,178.9-79.3l-41.2-172.9l70.2,12.1L548.2,1072.4z"/>
				<g>
					<g>
						<path class="st2" d="M230.1,1017.6l181,0.2c4.8,0,8.9,3.2,10.2,7.9l103.5,396.8c5.4,20.5-11.1,40.2-32.2,38.5l-142.7-11.1
							c-73.2-5.7-130.4-65.7-132.5-139.2l3.9-284.5C221.3,1021.4,225.3,1017.6,230.1,1017.6z"/>
						<path class="st4" d="M241.7,1056.8c-1.2,0-2.3-1-2.3-2.2l-6.2-103.8c-0.1-1.3,0.9-2.4,2.2-2.5s2.4,0.9,2.5,2.2l6.2,103.8
							c0.1,1.3-0.9,2.4-2.2,2.5C241.8,1056.8,241.8,1056.8,241.7,1056.8z"/>
						
							<ellipse transform="matrix(0.9951 -9.854098e-02 9.854098e-02 0.9951 -103.2265 28.9236)" class="st4" cx="241.2" cy="1059.5" rx="8.4" ry="8.4"/>
						<path class="st4" d="M404.4,1053.4c-1,0-1.9-0.6-2.2-1.6l-34.1-97.4c-0.4-1.2,0.2-2.6,1.4-3c1.2-0.4,2.6,0.2,3,1.4l34.1,97.4
							c0.4,1.2-0.2,2.6-1.4,3C405,1053.4,404.7,1053.4,404.4,1053.4z"/>
						<path class="st4" d="M412.8,1052.8c0,4.6-3.8,8.4-8.4,8.4s-8.4-3.8-8.4-8.4s3.8-8.4,8.4-8.4
							C409.1,1044.4,412.8,1048.1,412.8,1052.8z"/>
						<path class="st4" d="M221,1311.2c-0.2,0-0.3,0-0.5-0.1l-61.4-13.5c-1.3-0.3-2.1-1.5-1.8-2.8s1.5-2.1,2.8-1.8l61.4,13.5
							c1.3,0.3,2.1,1.5,1.8,2.8C223,1310.4,222.1,1311.2,221,1311.2z"/>
					</g>
					<path class="st4" d="M409.9,1347.3h-28.7c-42,0-79.1-28.3-90.2-68.9l-9.4-62.9l1,0.1l169.1,10.4l9.5,55.2
						c4,15.9,0.6,32.6-9.6,45.6C441.7,1339.8,426.4,1347.3,409.9,1347.3z M283.6,1217.3l9.1,60.7c10.8,39.8,47.2,67.6,88.5,67.6
						h28.7c16,0,30.8-7.2,40.6-19.8c9.8-12.6,13.2-28.7,9.2-44.2l-9.3-54L283.6,1217.3z"/>
				</g>
			</g>
			<path class="st4" d="M159.6,1182c-0.4,0-0.8-0.2-1.1-0.5c-0.6-0.6-0.6-1.6,0.1-2.2l53.1-49.8c0.6-0.6,1.6-0.6,2.2,0.1
				c0.6,0.6,0.6,1.6-0.1,2.2l-53.1,49.8C160.4,1181.9,160,1182,159.6,1182z"/>
		</g>
	</g>
	<g>
		<g>
			<g>
				<path class="st17" d="M378.2,1252.6l3.9-10.1l-40.3,13l-220.9-50.3l29.4-29.4l-77.4-38.4l-54.1,67.2l-3,3.8
					c-15.9,19.8-3.8,49.4,21.4,52.3l297,34.6h52c4.4,0,8.5-2.5,10.5-6.4l20.2-39.4L378.2,1252.6z"/>
			</g>
			<g>
				<path class="st17" d="M376.3,1264.1c-0.6,0-1-0.4-1.1-1c0-0.6,0.4-1.1,1-1.1l34.5-1.8c0.6-0.1,1.1,0.4,1.1,1s-0.4,1.1-1,1.1
					L376.3,1264.1L376.3,1264.1z"/>
			</g>
			<g>
				<path class="st17" d="M371,1276.3c-0.6,0-1-0.4-1.1-1c0-0.6,0.4-1.1,1-1.1l34.5-1.8c0.6-0.1,1.1,0.4,1.1,1s-0.4,1.1-1,1.1
					L371,1276.3L371,1276.3z"/>
			</g>
			<g>
				<path class="st17" d="M364.1,1287.1c-0.6,0-1-0.4-1.1-1c0-0.6,0.4-1.1,1-1.1l34.5-1.8c0.6,0,1.1,0.4,1.1,1s-0.4,1.1-1,1.1
					L364.1,1287.1C364.2,1287.1,364.1,1287.1,364.1,1287.1z"/>
			</g>
		</g>
		<polygon class="st2" points="72.9,1137.4 150.3,1175.8 139.3,1186.8 59,1154.7 		"/>
	</g>
</g>
<g>
	<g>
		<g>
			<g>
				<g>
					<path class="st2" d="M1019.3,1132.3l-34.7-5.8c-4.5-0.8-8.8,2.3-9.6,6.8l-13.6,82.2c-0.8,4.5,2.3,8.8,6.8,9.6l7,1.2l-7.5,45.4
						l20.7,3.4l7.5-45.4l7,1.2c4.5,0.8,8.8-2.3,9.6-6.8l13.6-82.2C1026.8,1137.3,1023.8,1133,1019.3,1132.3z"/>
					<g>
						
							<rect x="974.2" y="1263.5" transform="matrix(0.1637 -0.9865 0.9865 0.1637 -442.0497 2031.9528)" class="st2" width="6.5" height="26.5"/>
					</g>
				</g>
			</g>
			<path class="st13" d="M973.1,1144.6l20.3,10.6c2.9,1.5,4.3,4.9,3.2,8l-10.8,31.2c-1.5,4.4-5.6,5.4-10,4.1l-10.7-5L973.1,1144.6z"
				/>
			<path class="st4" d="M990.9,1168.3c-0.2,0-0.4,0-0.6-0.1l-19.1-9.9c-0.7-0.3-0.9-1.1-0.6-1.8c0.3-0.7,1.1-0.9,1.8-0.6l19.1,9.9
				c0.7,0.3,0.9,1.1,0.6,1.8C991.8,1168,991.4,1168.3,990.9,1168.3z"/>
			<path class="st4" d="M985.9,1178.8c-0.2,0-0.4,0-0.6-0.1l-16.3-8.4c-0.7-0.3-0.9-1.1-0.6-1.8c0.3-0.7,1.1-0.9,1.8-0.6l16.3,8.4
				c0.7,0.3,0.9,1.1,0.6,1.8C986.9,1178.5,986.4,1178.8,985.9,1178.8z"/>
			<path class="st4" d="M982.3,1190.2c-0.2,0-0.4,0-0.6-0.1l-14.4-7.4c-0.7-0.3-0.9-1.1-0.6-1.8c0.3-0.7,1.1-0.9,1.8-0.6l14.4,7.4
				c0.7,0.3,0.9,1.1,0.6,1.8C983.2,1189.9,982.8,1190.2,982.3,1190.2z"/>
		</g>
		<path class="st17" d="M1219.2,1226.4l-19.3,12l-166.1-62.6l-10.1-19.7l-2.5,15l0,0l-6,36.2l169.1,95.6c13,6.9,28.5,6.7,41.3-0.5
			l24.8-15.2L1219.2,1226.4z"/>
	</g>
	<g>
		<g>
			<g>
				<path class="st2" d="M1420.9,996.7c-9.1-18.9-28.7-31.3-49.2-35.4c-19.7-4-40.3-1.2-59.7,4.3c-3.5-9.4-19.8-26.9-23.2-29.8
					c-11.5-9.9-25.2-16.4-39-17.9c-7.2-0.7-14.5-0.2-20.8,2.8c-6,2.8-10.9,7.6-15.1,12.9c-28,35.5-25.8,92.7-50.1,131.5
					c22.7,4.1,43-9.6,58.3-25.9c15.3-16.3,28.2-35.9,46.8-47.6c3.2-2,6.5-3.7,9.8-5.4c-4.9,8.6-5.6,19.1-4.3,28.8
					c0.6,4.2,1,11.8,3.8,15.1c3.5,4.2,12.2,5.9,17,8.2c18.3,8.5,32.3,23.9,48.5,35.8c16.3,11.9,37.9,20.4,56.4,12.4
					c11-4.7,19.2-14.8,23.5-26s5-23.5,4.1-35.4C1427,1015.4,1425.2,1005.5,1420.9,996.7z"/>
				<path class="st2" d="M1503.9,944c-4.6-6.3-10.1-12.1-16.8-16.1c-7.1-4.1-15.3-6-23.4-6.5c-15.6-0.9-31.3,3.5-44.6,11.7
					c-5,3.1-34.2,26.9-26.6,32.6c15.1,10.9,32.8,17.7,47.7,28.8c20.8,15.4,34.8,38,51.7,57.5c16.9,19.5,39.5,37.3,65.4,37
					C1530.8,1044.6,1534.7,985.8,1503.9,944z"/>
			</g>
			<path class="st2" d="M1287.6,979.4c-0.8,0-1.6-0.3-2.3-1c-1.2-1.2-1.1-3.2,0.1-4.4c6.3-6,24.4-11.1,26.4-11.6
				c1.7-0.5,3.4,0.5,3.8,2.2c0.5,1.7-0.5,3.4-2.2,3.8c-5.1,1.4-19.4,5.9-23.8,10.1C1289.2,979.1,1288.4,979.4,1287.6,979.4z"/>
			<path class="st2" d="M1404.6,979.6c-0.5,0-1.1-0.1-1.6-0.5l-16.6-10c-1.5-0.9-1.9-2.8-1.1-4.3s2.8-1.9,4.3-1.1l16.6,10
				c1.5,0.9,1.9,2.8,1.1,4.3C1406.7,979.1,1405.6,979.6,1404.6,979.6z"/>
		</g>
		<g>
			<g>
				<path class="st13" d="M1385.7,1095.1l-61.1,25.5c-6.7,2.8-14.3-0.5-17-7c-0.4-1-0.6-2.1-0.8-3.1l-10-74.8
					c-0.5-3.5,1.8-6.8,5.2-7.7l39.7-9.7c13.1-3.2,26.3,4.8,29.6,17.9L1385.7,1095.1z"/>
			</g>
			<g>
				<polygon class="st13" points="1411.3,1159.5 1349.4,1174.7 1324.6,1073.5 1377.3,1060.6 				"/>
			</g>
			<g>
				<path class="st13" d="M1393.1,1054.6c1.7,6.9-2.5,13.8-9.4,15.5s-13.8-2.5-15.5-9.4s2.5-13.8,9.4-15.5
					C1384.4,1043.6,1391.4,1047.8,1393.1,1054.6z"/>
			</g>
			<g>
				<g>
					<path class="st16" d="M1312.3,1058c0.7,3,0.5,5.6-0.6,5.9s-2.5-2-3.2-5s-0.5-5.6,0.6-5.9
						C1310.1,1052.8,1311.5,1055,1312.3,1058z"/>
				</g>
			</g>
			<g>
				<g>
					<path class="st16" d="M1332.7,1053c0.7,3,0.5,5.6-0.6,5.9s-2.5-2-3.2-5s-0.5-5.6,0.6-5.9C1330.5,1047.8,1332,1050,1332.7,1053z
						"/>
				</g>
			</g>
			<g>
				<g>
					<path class="st16" d="M1319,1055l-1.8,26.2c-0.1,2,1.7,3.5,3.6,3.1l2.2-0.5c1.2-0.3,2-1.5,1.7-2.7l-4.9-26
						C1319.7,1054.5,1319.1,1054.5,1319,1055z"/>
				</g>
			</g>
			<g>
				<g>
					<path class="st16" d="M1323.4,1103.6c3.7-0.9,8.2-3.3,13.1-8.7c0.4-0.5,0.4-1.2-0.1-1.6s-1.2-0.4-1.6,0.1
						c-10.8,11.9-19.2,7.8-19.5,7.6c-0.6-0.3-1.2-0.1-1.5,0.5s-0.1,1.2,0.5,1.5C1314.4,1103.1,1318,1104.9,1323.4,1103.6z"/>
				</g>
			</g>
			<g>
				<g>
					<path class="st16" d="M1339.7,1098c0.2-0.1,0.4-0.2,0.6-0.3c0.4-0.5,0.4-1.2-0.1-1.6l-6.3-6c-0.5-0.4-1.2-0.4-1.6,0.1
						s-0.4,1.2,0.1,1.6l6.3,6C1339,1098,1339.4,1098.1,1339.7,1098z"/>
				</g>
			</g>
			<g>
				<g>
					<polygon class="st16" points="1335.1,1116.2 1356,1106.2 1339.3,1133.6 					"/>
				</g>
			</g>
			<g>
				<g>
					<path class="st16" d="M1379.4,1066.3c0.6-0.1,1-0.8,0.8-1.4l-2.7-10.9c-0.1-0.6,0.2-1.1,0.8-1.3l3.7-0.9c0.6-0.1,1-0.8,0.8-1.4
						s-0.8-1-1.4-0.8l-3.7,0.9c-1.8,0.4-2.9,2.2-2.4,4l2.7,10.9C1378.2,1066.1,1378.8,1066.5,1379.4,1066.3z"/>
				</g>
			</g>
			<path class="st2" d="M1319.6,1016.8c0-0.5,0-1,0-1.5c-0.2-3.7-2.8-6.5-5.3-9c-2.6-2.7-5.5-5.2-9.1-6.1c-3.8-0.9-7.8,0.3-11,2.4
				s-5.8,5.1-8.2,8.1c-3.5,4.4-6.7,9.1-8.1,14.5c-1.9,7.2-0.3,14.9,2.2,21.9c1.3,3.7,2.9,7.5,5.4,10.6c0.6,0.8,1.3,1.6,2.2,2.1
				c1.7,1,3.9,0.9,5.9,0.5c4.9-1.1,9.2-4.1,12.6-7.9c3.4-3.7,5.9-8.1,8.1-12.6c1.4-2.7,2.6-5.5,3.6-8.3c5.5,7.3,16.7,16.7,39.6,22.8
				c0.3,0.1,0.6,0.1,0.8,0c0.6-0.1,1.1-0.6,1.2-1.2c0.2-0.9-0.3-1.8-1.2-2.1c-9.9-2.6-17.5-5.9-23.3-9.3c8.7,3.5,21.1,5.7,38.7,4.6
				l14.6-21.4C1388.4,1024.8,1373.6,993.5,1319.6,1016.8z"/>
		</g>
	</g>
	<g>
		<rect x="1251.2" y="1486.3" class="st4" width="224.4" height="92.8"/>
		<g>
			<g>
				<g>
					<path id="XMLID_1_" class="st18" d="M1466,1340.3l92.2-48.5l-88.4-140.4c-5.7-9-14-16.2-23.9-20.2c-10.1-4-21.3-5.7-32.9-4.3
						l-39.5,7.7c-4.8,0.9-9.5,2.2-14.1,3.6v-0.1c-41.3,8.9-151.5,66-151.5,66l48.8,97.4l-19.3,169.4c0,0,31.4,57.5,152.7,46.7
						c121.3-10.7,106-70.8,106-70.8L1466,1340.3z"/>
				</g>
				<g>
					<g>
						<g>
							<defs>
								<path id="SVGID_1_" d="M1466,1340.3l92.2-48.5l-88.4-140.4c-5.7-9-14-16.2-23.9-20.2c-10.1-4-21.3-5.7-32.9-4.3l-39.5,7.7
									c-4.8,0.9-9.5,2.2-14.1,3.6v-0.1c-41.3,8.9-151.5,66-151.5,66l48.8,97.4l-19.3,169.4c0,0,31.4,57.5,152.7,46.7
									c121.3-10.7,106-70.8,106-70.8L1466,1340.3z"/>
							</defs>
							<clipPath id="SVGID_2_">
								<use xlink:href="#SVGID_1_"  style="overflow:visible;"/>
							</clipPath>
							<path class="st19" d="M1199.9,1214.1l-1.8-12.3c97-14.2,194.8-32.2,290.5-53.5l2.7,12.2
								C1395.3,1181.8,1297.2,1199.9,1199.9,1214.1z"/>
						</g>
					</g>
				</g>
				<g>
					<g>
						<g>
							<defs>
								<path id="SVGID_3_" d="M1466,1340.3l92.2-48.5l-88.4-140.4c-5.7-9-14-16.2-23.9-20.2c-10.1-4-21.3-5.7-32.9-4.3l-39.5,7.7
									c-4.8,0.9-9.5,2.2-14.1,3.6v-0.1c-41.3,8.9-151.5,66-151.5,66l48.8,97.4l-19.3,169.4c0,0,31.4,57.5,152.7,46.7
									c121.3-10.7,106-70.8,106-70.8L1466,1340.3z"/>
							</defs>
							<clipPath id="SVGID_4_">
								<use xlink:href="#SVGID_3_"  style="overflow:visible;"/>
							</clipPath>
							<path class="st20" d="M1214.7,1249.3c-2.6,0-5.2,0-7.8-0.1l0.2-12.5c74.8,1.1,149.6-14,221.8-28.6c29.3-5.9,59.5-12,86-26.1
								l5.9,11c-28.1,15-59.3,21.3-89.5,27.3C1361,1234.7,1288.2,1249.3,1214.7,1249.3z"/>
						</g>
					</g>
				</g>
				<g>
					<g>
						<g>
							<defs>
								<path id="SVGID_5_" d="M1466,1340.3l92.2-48.5l-88.4-140.4c-5.7-9-14-16.2-23.9-20.2c-10.1-4-21.3-5.7-32.9-4.3l-39.5,7.7
									c-4.8,0.9-9.5,2.2-14.1,3.6v-0.1c-41.3,8.9-151.5,66-151.5,66l48.8,97.4l-19.3,169.4c0,0,31.4,57.5,152.7,46.7
									c121.3-10.7,106-70.8,106-70.8L1466,1340.3z"/>
							</defs>
							<clipPath id="SVGID_6_">
								<use xlink:href="#SVGID_5_"  style="overflow:visible;"/>
							</clipPath>
							<path class="st21" d="M1208.5,1316.8l-1.2-12.4c112.1-11,221.3-39.2,324.7-83.8l4.9,11.5
								C1432.4,1277.1,1321.9,1305.6,1208.5,1316.8z"/>
						</g>
					</g>
				</g>
				<g>
					<g>
						<g>
							<defs>
								<path id="SVGID_7_" d="M1466,1340.3l92.2-48.5l-88.4-140.4c-5.7-9-14-16.2-23.9-20.2c-10.1-4-21.3-5.7-32.9-4.3l-39.5,7.7
									c-4.8,0.9-9.5,2.2-14.1,3.6v-0.1c-41.3,8.9-151.5,66-151.5,66l48.8,97.4l-19.3,169.4c0,0,31.4,57.5,152.7,46.7
									c121.3-10.7,106-70.8,106-70.8L1466,1340.3z"/>
							</defs>
							<clipPath id="SVGID_8_">
								<use xlink:href="#SVGID_7_"  style="overflow:visible;"/>
							</clipPath>
							<path class="st22" d="M1235.7,1359l-1.3-12.4c71.8-7.8,140.9-27.5,199.1-45.7c49.6-15.5,90.4-30.2,128.5-51.1l6,10.9
								c-39,21.4-80.5,36.3-130.8,52.1C1378.5,1331.2,1308.6,1351.1,1235.7,1359z"/>
						</g>
					</g>
				</g>
				<g>
					<g>
						<g>
							<defs>
								<path id="SVGID_9_" d="M1466,1340.3l92.2-48.5l-88.4-140.4c-5.7-9-14-16.2-23.9-20.2c-10.1-4-21.3-5.7-32.9-4.3l-39.5,7.7
									c-4.8,0.9-9.5,2.2-14.1,3.6v-0.1c-41.3,8.9-151.5,66-151.5,66l48.8,97.4l-19.3,169.4c0,0,31.4,57.5,152.7,46.7
									c121.3-10.7,106-70.8,106-70.8L1466,1340.3z"/>
							</defs>
							<clipPath id="SVGID_10_">
								<use xlink:href="#SVGID_9_"  style="overflow:visible;"/>
							</clipPath>
							<path class="st23" d="M1238.7,1402.3l-1.1-12.4c17.1-1.5,34.7-2.7,51.6-3.9c66.5-4.6,135.3-9.3,197.2-34.2l4.7,11.6
								c-63.7,25.6-133.5,30.4-201,35C1273.1,1399.6,1255.7,1400.8,1238.7,1402.3z"/>
						</g>
					</g>
				</g>
				<g>
					<g>
						<g>
							<defs>
								<path id="SVGID_11_" d="M1466,1340.3l92.2-48.5l-88.4-140.4c-5.7-9-14-16.2-23.9-20.2c-10.1-4-21.3-5.7-32.9-4.3l-39.5,7.7
									c-4.8,0.9-9.5,2.2-14.1,3.6v-0.1c-41.3,8.9-151.5,66-151.5,66l48.8,97.4l-19.3,169.4c0,0,31.4,57.5,152.7,46.7
									c121.3-10.7,106-70.8,106-70.8L1466,1340.3z"/>
							</defs>
							<clipPath id="SVGID_12_">
								<use xlink:href="#SVGID_11_"  style="overflow:visible;"/>
							</clipPath>
							<path class="st24" d="M1342.5,1452.4c-41.4,0-80-3.1-117.1-9.2l2-12.3c79.4,13,165.7,11.9,271.7-3.5
								c24.7-3.6,48.6-7.9,68.3-20.4l6.7,10.5c-21.8,13.9-47.1,18.5-73.3,22.3C1443,1448.2,1390.8,1452.4,1342.5,1452.4z"/>
						</g>
					</g>
				</g>
			</g>
			
				<rect x="1446.9" y="1234.5" transform="matrix(0.9467 -0.3222 0.3222 0.9467 -338.0411 535.4225)" class="st16" width="3.1" height="108.8"/>
			
				<rect x="1219.6" y="1256.3" transform="matrix(0.1521 -0.9884 0.9884 0.1521 -171.6617 2315.5227)" class="st16" width="88.2" height="3.1"/>
		</g>
	</g>
	<g>
		<g>
			<path class="st9" d="M1174.4,1537.6L1174.4,1537.6c-30.4-3.6-52.2-31.1-48.7-61.6l2.3-19.9l110.2,12.9l-2.3,19.9
				C1232.4,1519.4,1204.8,1541.2,1174.4,1537.6z"/>
			
				<rect x="1179" y="1418.7" transform="matrix(0.1161 -0.9932 0.9932 0.1161 -419.7622 2476.6443)" class="st4" width="5.3" height="111"/>
		</g>
		<g>
			<g>
				<g>
					<path class="st17" d="M1571.2,1423.3l-0.3-1.4l-27.9-122.1l-67.3,35.4l21.3,63.4l-219.4,55.9l-33.4-6.5
						c-2.4-0.5-4.9,0.2-6.8,1.7l-11.9,9.8l0,0l-11.5,0.7c-2.6,0.2-4.1,3.1-2.8,5.3l19,31.3c2,3.3,5.8,5.1,9.7,4.5l45.2-7.2
						l260.6-34.5C1563.2,1457.6,1575.1,1440.6,1571.2,1423.3z"/>
					<g>
						<polygon class="st2" points="1475.6,1335.3 1542.9,1299.8 1550.3,1332.1 1486.4,1367.3 						"/>
					</g>
				</g>
				<g>
					<path class="st17" d="M1217.4,1469.6c-0.6,0-1.1-0.4-1.2-1c-0.1-0.7,0.4-1.3,1-1.4l23.2-3.4c0.7-0.1,1.3,0.4,1.4,1
						c0.1,0.7-0.4,1.3-1,1.4l-23.2,3.4C1217.5,1469.6,1217.5,1469.6,1217.4,1469.6z"/>
					<path class="st17" d="M1223,1483.1c-0.6,0-1.1-0.4-1.2-1c-0.1-0.7,0.4-1.3,1-1.4l23.2-3.4c0.7-0.1,1.3,0.4,1.4,1
						c0.1,0.7-0.4,1.3-1,1.4l-23.2,3.4C1223.1,1483.1,1223,1483.1,1223,1483.1z"/>
					<path class="st17" d="M1229,1495.7c-0.6,0-1.1-0.4-1.2-1c-0.1-0.7,0.4-1.3,1-1.4l23.2-3.4c0.7-0.1,1.3,0.4,1.4,1
						c0.1,0.7-0.4,1.3-1,1.4l-23.2,3.4C1229.1,1495.7,1229.1,1495.7,1229,1495.7z"/>
				</g>
			</g>
		</g>
	</g>
</g>
</svg>
