<?xml version="1.0" encoding="utf-8"?>
<!-- Generator: Adobe Illustrator 24.3.0, SVG Export Plug-In . SVG Version: 6.00 Build 0)  -->
<svg version="1.1" id="Layer_1" xmlns="http://www.w3.org/2000/svg" xmlns:xlink="http://www.w3.org/1999/xlink" x="0px" y="0px"
	 viewBox="0 0 500 500" style="enable-background:new 0 0 500 500;" xml:space="preserve">
<style type="text/css">
	.st0{fill:#FFF5F2;}
	.st1{fill:#E07A5F;}
	.st2{fill:#231F20;}
	.st3{fill:#33364D;}
	.st4{fill:#B57842;}
	.st5{fill:#F2CC8F;}
	.st6{fill:#A66F1F;}
	.st7{fill:#3D405B;}
	.st8{fill:none;}
	.st9{fill:#C2A373;}
	.st10{fill:#97602F;}
	.st11{fill:#6C301E;}
	.st12{fill:#96332B;}
	.st13{fill:#3B1411;}
	.st14{fill:#E07A5F;stroke:#E07A5F;stroke-miterlimit:10;}
	.st15{fill:#EFADA0;}
</style>
<g id="OBJECTS">
	<g>
		<g>
			<g>
				<g>
					<path class="st0" d="M183.5,48.7h-28.3c-5.9,0-10.6,4.8-10.6,10.6v25.1c0,5.9,4.8,10.6,10.6,10.6h28.3
						c5.9,0,10.6-4.8,10.6-10.6V59.3C194.1,53.4,189.3,48.7,183.5,48.7z"/>
				</g>
			</g>
			<g>
				<g>
					<path class="st1" d="M180.7,64.8l0.9,5c0.3,1.4-0.1,2.9-1.1,4c-0.9,1.1-2.3,1.8-3.8,1.8h-2.5v4.8c0,1.5-1.2,2.7-2.7,2.7
						c-1,0-2-0.6-2.4-1.6l-2.8-6.2l-3.2-1.4V60.7h12.7C178.2,60.7,180.2,62.4,180.7,64.8z M165.1,72.6l2.7,1.2l3.1,6.8
						c0.1,0.3,0.4,0.4,0.6,0.4c0.4,0,0.7-0.3,0.7-0.7v-6.8h4.5c0.9,0,1.7-0.4,2.3-1.1c0.6-0.7,0.8-1.6,0.6-2.4l-0.9-5
						c-0.3-1.4-1.5-2.4-2.9-2.4h-10.7L165.1,72.6L165.1,72.6z"/>
				</g>
				<g>
					<path class="st1" d="M165.1,74.2H157V60.7h8.1V74.2z M158.9,72.2h4.2v-9.6h-4.2V72.2z"/>
				</g>
			</g>
		</g>
		<g>
			<g>
				<g>
					<path class="st0" d="M429.2,148.2h-19c-3.9,0-7.1,3.2-7.1,7.1v16.9c0,3.9,3.2,7.1,7.1,7.1h19c3.9,0,7.1-3.2,7.1-7.1v-16.9
						C436.3,151.4,433.1,148.2,429.2,148.2z"/>
				</g>
			</g>
			<g>
				<g>
					<path class="st1" d="M427.3,159l0.6,3.3c0.2,1-0.1,2-0.7,2.7c-0.6,0.8-1.6,1.2-2.5,1.2H423v3.3c0,1-0.8,1.8-1.8,1.8
						c-0.7,0-1.3-0.4-1.6-1.1l-1.9-4.2l-2.2-1v-8.8h8.5C425.6,156.2,427,157.4,427.3,159z M416.8,164.2l1.8,0.8l2.1,4.6
						c0.1,0.2,0.2,0.3,0.4,0.3c0.3,0,0.5-0.2,0.5-0.5v-4.6h3c0.6,0,1.2-0.3,1.5-0.7s0.5-1.1,0.4-1.6l-0.6-3.3c-0.2-0.9-1-1.6-2-1.6
						h-7.2L416.8,164.2L416.8,164.2z"/>
				</g>
				<g>
					<path class="st1" d="M416.8,165.3h-5.5v-9h5.5V165.3z M412.7,164h2.8v-6.4h-2.8V164z"/>
				</g>
			</g>
		</g>
		<g>
			<g>
				<g>
					<path class="st0" d="M342.5,32.8h-13.9c-2.9,0-5.2,2.3-5.2,5.2v12.4c0,2.9,2.3,5.2,5.2,5.2h13.9c2.9,0,5.2-2.3,5.2-5.2V38.1
						C347.7,35.2,345.4,32.8,342.5,32.8z"/>
				</g>
			</g>
			<g>
				<g>
					<path class="st1" d="M341.1,40.7l0.4,2.4c0.1,0.7-0.1,1.4-0.5,2s-1.1,0.9-1.9,0.9h-1.2v2.4c0,0.7-0.6,1.3-1.3,1.3
						c-0.5,0-1-0.3-1.2-0.8l-1.4-3l-1.6-0.7v-6.5h6.2C339.9,38.7,340.9,39.6,341.1,40.7z M333.4,44.6l1.4,0.6l1.5,3.4
						c0.1,0.1,0.2,0.2,0.3,0.2c0.2,0,0.4-0.2,0.4-0.4v-3.3h2.2c0.4,0,0.8-0.2,1.1-0.5c0.3-0.3,0.4-0.8,0.3-1.2l-0.5-2.4
						c-0.1-0.7-0.7-1.2-1.4-1.2h-5.3L333.4,44.6L333.4,44.6z"/>
				</g>
				<g>
					<path class="st1" d="M333.4,45.4h-4v-6.6h4V45.4z M330.4,44.4h2.1v-4.7h-2.1V44.4z"/>
				</g>
			</g>
		</g>
		<g>
			<g>
				<g>
					<rect x="119.6" y="353.3" class="st2" width="9" height="99.6"/>
					<path class="st2" d="M74.3,463.7L74.3,463.7h99.6l0,0c0-5.9-4.8-10.7-10.7-10.7H85C79.1,452.9,74.3,457.7,74.3,463.7z"/>
					<path class="st2" d="M172.5,357.6H75.6c-5.3,0-9.6-4.3-9.6-9.6v-0.3c0-5.3,4.3-9.6,9.6-9.6h96.9c5.3,0,9.6,4.3,9.6,9.6v0.3
						C182,353.3,177.7,357.6,172.5,357.6z"/>
				</g>
				<path class="st3" d="M117.8,357.6H75.6c-5.3,0-9.6-4.3-9.6-9.6v-0.3c0-5.3,4.3-9.6,9.6-9.6h42.1c5.3,0,9.6,4.3,9.6,9.6v0.3
					C127.3,353.3,123,357.6,117.8,357.6z"/>
			</g>
			<g>
				<path class="st2" d="M110.2,297.7l0.5,22.8c0.3,12.1,10.3,21.6,22.3,21.3l73.3-1.3v-35.2h-46.2l-1.2-7L110.2,297.7z"/>
				<path class="st2" d="M219.6,438.3h-23.4l-2.3-133l24.5-0.4c9.6-0.2,17.2,8.3,16,17.9L219.6,438.3z"/>
			</g>
			<g>
				<g>
					<path class="st4" d="M155.6,434.3c0,2.7,0,5.3,0.1,7.8H170l0.8-7.8H155.6z"/>
					<g>
						<path class="st5" d="M154.7,441l16.8-0.5c4.7,5.3,17.5,11.9,19.1,19.1h-39.7C151.5,453.2,152.7,447,154.7,441z"/>
						<path class="st6" d="M190.6,459.5c0.2,0.7,0.3,1.4,0.4,2.1c0.2,1.1-0.5,2.1-1.6,2.1h-37.2c-0.9,0-1.7-0.9-1.6-1.9
							c0.1-0.8,0.1-1.5,0.2-2.3L190.6,459.5L190.6,459.5z"/>
					</g>
				</g>
				<path class="st7" d="M91.5,298.7l0.5,22.8c0.3,12.1,10.3,21.6,22.3,21.3l47.8-1.3v-35.2h-20.6l-1.2-7L91.5,298.7z"/>
				<path class="st7" d="M175.4,439.3H152l-2.3-133l24.5-0.4c9.6-0.2,17.2,8.3,16,17.9L175.4,439.3z"/>
				<path class="st2" d="M163.3,327.3c-5.9,3.4-10.7,8.7-13.5,14.9c-0.3,0.6,0.6,1.1,0.9,0.5c2.7-6.1,7.3-11.2,13.1-14.6
					C164.4,327.9,163.9,327,163.3,327.3z"/>
				<path class="st2" d="M143.3,305.2c-7.5,3-14.1,7.7-19.3,13.9c-0.4,0.5,0.3,1.2,0.7,0.7c5-6,11.5-10.7,18.8-13.6
					C144.2,305.9,143.9,304.9,143.3,305.2z"/>
				<path class="st2" d="M122,306.7c-0.1,2-2.2,2.9-3.8,3.5c-1.7,0.6-3.4,1.2-5.1,2c-3.2,1.6-6.2,3.7-8.7,6.3
					c-0.5,0.5,0.3,1.2,0.7,0.7c2.7-2.7,6-5,9.5-6.6c1.8-0.8,3.7-1.3,5.4-2.1c1.5-0.7,2.8-2,2.9-3.8C123.1,306,122.1,306,122,306.7z"
					/>
				<path class="st2" d="M173,430.1h-16.5c-0.7,0-0.7,1,0,1H173C173.7,431.2,173.7,430.1,173,430.1z"/>
			</g>
			<g>
				<path class="st2" d="M133.7,287H74.8c-3.5,0-6.4-2.9-6.4-6.4l-5.1-54.4c0-3.5,2.9-6.4,6.4-6.4h58.9c3.5,0,6.4,2.9,6.4,6.4
					l5.1,54.4C140,284.2,137.2,287,133.7,287z"/>
				<path class="st3" d="M73.8,287L73.8,287c-3,0-5.3-2.4-5.3-5.3l-5.1-56.5c0-3,2.4-5.3,5.3-5.3l0,0c3,0,5.3,2.4,5.3,5.3l5.1,56.5
					C79.1,284.6,76.7,287,73.8,287z"/>
			</g>
			<g>
				<g>
					<line class="st8" x1="188.2" y1="268.5" x2="170.6" y2="463.7"/>
					
						<rect x="81.4" y="364.8" transform="matrix(8.989560e-02 -0.996 0.996 8.989560e-02 -201.3372 511.8761)" class="st2" width="196" height="2.6"/>
				</g>
				<g>
					<line class="st8" x1="303.1" y1="268.5" x2="320.8" y2="463.7"/>
					
						<rect x="310.7" y="268.1" transform="matrix(0.996 -8.989560e-02 8.989560e-02 0.996 -31.6477 29.528)" class="st2" width="2.6" height="196"/>
				</g>
			</g>
			<g>
				<path class="st4" d="M201.4,434.3c0,2.7,0,5.3,0.1,7.8h14.3l0.8-7.8H201.4z"/>
				<g>
					<path class="st5" d="M200.5,441l16.8-0.5c4.7,5.3,32.8,11.9,34.4,19.1h-55C197.3,453.2,198.5,447,200.5,441z"/>
					<path class="st6" d="M251.7,459.5c0.2,0.7,0.3,1.4,0.4,2.1c0.2,1.1-0.5,2.1-1.6,2.1h-52.5c-0.9,0-1.7-0.9-1.6-1.9
						c0.1-0.8,0.1-1.5,0.2-2.3L251.7,459.5L251.7,459.5z"/>
				</g>
			</g>
			<polygon class="st9" points="166,203.5 153.1,179.5 138,205.8 143.4,221.4 			"/>
			<g>
				<path class="st10" d="M176.9,222.5c-2.6-7.3-6.8-12.4-10.9-19c-8.8,1.2-15.5,6.1-22,12.1c3.1,9.4,7.9,18.6,15.4,25.1
					c17.7,15.2,20.6,4.9,20.9,3.8l-3.3-22.1C177,222.5,176.9,222.5,176.9,222.5z"/>
				<path class="st10" d="M173.8,181.3c0,0-8.2,29.8-10.6,49.2c-0.1,0-0.1,0-0.2,0l17.3,14.1c6.1-21.7,4.9-37.9,2.8-60.7
					C180,182.9,176.9,182.3,173.8,181.3z"/>
			</g>
			<g>
				<path class="st10" d="M161.3,215.2c-0.9-3.5-1.3-7-1.1-10.3c-6.1,2.1-11.2,6.1-16.2,10.7c3.1,9.4,7.9,18.6,15.4,25.1
					c17.7,15.2,20.6,4.9,20.9,3.8l-1.2-7.9C170.6,232.9,163.8,225.6,161.3,215.2z"/>
				<path class="st11" d="M176.9,222.5c-2.6-7.3-6.8-12.4-10.9-19c-2,0.3-4,0.8-5.8,1.4c-0.2,3.3,0.2,6.8,1.1,10.3
					c2.5,10.5,9.4,17.8,17.9,21.5l-2.1-14.2C177,222.5,176.9,222.5,176.9,222.5z"/>
				<path class="st10" d="M164.3,223.1c-0.4,2.6-0.8,5-1.1,7.4c-0.1,0-0.1,0-0.2,0l17.3,14.1c0.7-2.3,1.2-4.6,1.7-6.8
					C174.7,235.3,168.2,230.4,164.3,223.1z"/>
				<path class="st10" d="M183.1,183.9c-3-1-6.2-1.6-9.3-2.6c0,0-6.4,23.1-9.5,41.9c3.9,7.2,10.3,12.2,17.7,14.6
					C186.1,219.3,185,204.2,183.1,183.9z"/>
			</g>
			<path class="st12" d="M102.3,138.1c-1.4-4-1.6-8.7,0.2-12.6c1.5-3.2,4.2-5.5,7-7.3c6.1-3.8,13.4-5.4,20.5-4.4
				c5.4,0.7,10.9,3.1,14.5,7.6s5,11.2,2.6,16.5c-1.8,3.9-5.2,6.5-8,9.6c-2.5,2.8-4.4,6.1-6.8,9c-2.4,2.9-5.4,5.4-8.9,6.1
				c-2.4,0.4-4.8-0.3-6.9-1.7c-1.2-0.9-2-2-2.5-3.5c-0.6-1.8-1.2-3.5-2.2-5.2c-1.4-2.3-3.4-4.1-5-6.3c-1.6-2.1-3-4.4-4-6.9
				C102.5,138.7,102.4,138.4,102.3,138.1z"/>
			<path class="st13" d="M104.2,140.2c-1.3-3.7-1.4-8,0.2-11.5c1.4-2.9,3.8-5,6.4-6.6c5.6-3.5,12.3-4.9,18.7-4.1
				c5,0.7,9.9,2.8,13.2,6.9c3.3,4.1,4.6,10.2,2.4,15.1c-1.6,3.5-4.8,5.9-7.3,8.8c-2.3,2.6-4.1,5.6-6.2,8.2c-2.2,2.6-4.9,4.9-8.2,5.5
				c-2.2,0.4-4.4-0.2-6.3-1.5c-1.1-0.8-1.8-1.8-2.3-3.2c-0.6-1.6-1.1-3.2-2-4.7c-1.3-2.1-3.1-3.8-4.6-5.7c-1.4-1.9-2.7-4-3.6-6.3
				C104.5,140.8,104.3,140.5,104.2,140.2z"/>
			<path class="st5" d="M155.3,185.8c-0.2-4.7-3.2-8.7-7.5-10.5c-9.1-3.8-19.4-5.1-29.3-4.5c-9.1,0.6-18.1,2.7-26.8,5.4
				c-5.7,1.8-8.2,7.5-8.2,13.5c-0.2,41.4,7.6,68.7,6.2,102.9c-0.1,2.2,0.1,29.4,2.3,28.9c8.1-1.8-0.4-16.6,65.5-20.6
				c4.8-0.3,1-5.5,1-10.3C158.7,256.4,157.1,219.6,155.3,185.8z"/>
			<path class="st9" d="M143.4,294.5c-8.1,0.8-16.3-0.7-23.7-4c-6.8-3.1-12.8-7.9-17.4-13.8c-2.5-3.3-4.6-6.9-6.2-10.7
				c-0.2-0.6-1.1-0.1-0.8,0.4c2.9,7,7.5,13.2,13.3,18.1c6.1,5.2,13.5,8.7,21.4,10.3c4.6,0.9,9.2,1.1,13.8,0.7
				C144.2,295.4,144,294.5,143.4,294.5z"/>
			<path class="st9" d="M128.4,180.6c-6.4,1.8-13.7,0.1-18.6-4.5c-0.4-0.4-1.1,0.2-0.7,0.6c5.1,4.8,12.7,6.7,19.5,4.8
				C129.2,181.3,129,180.4,128.4,180.6z"/>
			<g>
				<g>
					<g>
						<g>
							<path class="st4" d="M112.3,149.1c0.6,7.6,0.4,15.3-0.5,22.9c-0.2,1.5,0.5,3,1.7,3.9c3.5,2.4,7.9,3.5,12.1,2.9
								c2.1-0.3,3.6-2.3,3.4-4.4c-0.4-4.9-0.5-9.6-0.4-14.7C124.5,154.4,118.7,151.2,112.3,149.1z"/>
						</g>
						<g>
							<path class="st11" d="M128.7,159.7c-4.2-5.3-10-8.5-16.4-10.6c0.3,3.2,0.4,6.5,0.3,9.8c2.9,7.9,8.1,15.5,15.2,18.8
								c0.8-0.8,1.3-2,1.2-3.3C128.7,169.5,128.6,164.8,128.7,159.7z"/>
						</g>
						<g>
							<path class="st4" d="M139.3,136.7c1.4,10.6-3,30.3-8.8,29.7c-7.9-1.1-15.2-7.4-17.3-15.2c0,0.1-0.9,0.6-1.8,0.6
								c-0.9-0.1-2.1-1.1-2.6-1.9c-1-1.4-1.9-3.7-0.9-5.3c1.2-2,4-2.4,5.2-0.1c-0.1-3.9,1.2-7.5,2.5-11.1c0.4-1.1,1.3-2.1,2.5-2.5
								c5.6-2,12.5-2,18.1-0.3c1.1,0.4,2,1.2,2.3,2.3C138.8,134.3,139.1,135.7,139.3,136.7z"/>
							<path class="st13" d="M127.9,137.4c-1.7-2.2-6.4-0.7-8.2,0.7c-0.3,0.3-0.7,0.6-0.7,1c0,0.2,0.1,0.4,0.4,0.5
								c0.5,0.2,1-0.3,1.5-0.5c0.6-0.3,1.2-0.5,1.9-0.7c0.8-0.2,1.6-0.2,2.4-0.1c0.8,0.1,1.5,0.4,2.3,0.3
								C128.2,138.5,128.2,137.8,127.9,137.4z"/>
							<path class="st13" d="M125.4,141.2c0-0.1-0.1-0.2-0.2-0.3c-0.1-0.1-0.2-0.2-0.3-0.2c-0.1-0.1-0.3-0.1-0.4-0.1
								c-0.1,0-0.2,0-0.3,0c-0.2,0.1-0.3,0.1-0.5,0.3c-0.1,0.1-0.1,0.1-0.2,0.2c-0.1,0.2-0.1,0.3-0.1,0.5v0.1c0,0.1,0,0.3,0.1,0.4
								c0,0.1,0.1,0.2,0.2,0.3c0.1,0.1,0.2,0.2,0.3,0.2c0.1,0.1,0.3,0.1,0.4,0.1l0.3,0c0.2-0.1,0.3-0.1,0.5-0.3
								c0.1-0.1,0.1-0.1,0.2-0.2c0.1-0.2,0.1-0.3,0.1-0.5v-0.1C125.5,141.4,125.5,141.3,125.4,141.2z"/>
							<path class="st13" d="M136.8,141.8c0-0.1-0.1-0.2-0.2-0.3c-0.1-0.1-0.2-0.2-0.3-0.2c-0.1-0.1-0.3-0.1-0.4-0.1
								c-0.1,0-0.2,0-0.3,0c-0.2,0.1-0.3,0.1-0.5,0.3c-0.1,0.1-0.1,0.1-0.2,0.2c-0.1,0.2-0.1,0.3-0.1,0.5v0.1c0,0.1,0,0.3,0.1,0.4
								c0,0.1,0.1,0.2,0.2,0.3c0.1,0.1,0.2,0.2,0.3,0.2c0.1,0.1,0.3,0.1,0.4,0.1l0.3,0c0.2-0.1,0.3-0.1,0.5-0.3
								c0.1-0.1,0.1-0.1,0.2-0.2c0.1-0.2,0.1-0.3,0.1-0.5v-0.1C136.9,142.1,136.9,142,136.8,141.8z"/>
							<path class="st13" d="M138.9,138.9c-0.4-0.8-1.3-1.2-2.1-1.4c-0.8-0.2-1.7-0.3-2.5,0c-0.4,0.1-0.6,0.5-0.6,0.9
								c0.1,0.6,0.6,0.7,1.1,0.7c0.7,0,1.3,0.1,2,0.4c0.4,0.2,2.6,1.3,2.2-0.1C139,139.1,139,139,138.9,138.9z"/>
							<path class="st11" d="M125.5,158.4c0.3,0.1,0.7,0,1,0c0.3,0,0.7,0,0.9,0.1c0.3,0,0.6,0.1,0.9,0.2c0.3,0.1,0.6,0.2,1,0.2
								c0.4,0,0.5-0.4,0.3-0.7c-0.2-0.3-0.6-0.4-1-0.5c-0.3-0.1-0.7-0.2-1-0.2c-0.4-0.1-0.7-0.1-1.1-0.1c-0.4,0-0.8,0-1.2,0.2
								C125,157.7,125.1,158.3,125.5,158.4z"/>
							<path class="st11" d="M112.1,148.5c-0.3,0.1-0.8-0.1-0.9-0.4c0-0.2,0.1-0.4,0.2-0.5c0.1-0.1,0.3-0.2,0.5-0.2
								c0.3,0,0.5-0.3,0.4-0.5c-0.3-1.1-1.2-2.3-2.5-2.1c-0.6,0.1-1.1,0.4-1.3,0.9c-0.1,0.2-0.1,0.5-0.1,0.8c0,0.2,0.2,0.5,0.4,0.3
								c0.1-0.1,0.1-0.3,0.1-0.4c0-0.2,0.1-0.3,0.2-0.4c0.2-0.3,0.5-0.4,0.8-0.4c0.7,0.1,1.1,0.6,1.3,1.2c-0.6,0.3-1,0.9-0.8,1.6
								c0.2,0.7,1,1.2,1.7,1C112.8,149.1,112.6,148.4,112.1,148.5z"/>
						</g>
					</g>
				</g>
				<path class="st11" d="M133.9,148c-0.7-1.1-1.2-2.2-1.6-3.4c-0.2-0.6-1.1-0.4-0.9,0.2c0.3,1,0.7,2,1.2,2.9
					c0.3,0.5,0.6,0.9,0.9,1.4c0.3,0.4,0.7,0.8,0.9,1.2c0.2,0.4,0.5,0.9,0.2,1.3c-0.2,0.4-0.7,0.6-1.1,0.8c-1,0.5-2.2,0.7-3.3,0.7
					c-0.6,0-0.6,0.9,0,0.9c1.3,0,2.5-0.2,3.7-0.7c1-0.4,1.9-1.1,1.8-2.3C135.5,149.8,134.5,148.9,133.9,148z"/>
				<path class="st13" d="M124.4,155.4c2.4-0.6,5.1,0.2,6.7,2.1c0.4,0.5,1.1-0.2,0.7-0.6c-1.9-2.1-4.9-3.1-7.6-2.4
					C123.6,154.6,123.8,155.5,124.4,155.4z"/>
			</g>
			<g>
				<g>
					<g>
						<path class="st4" d="M175.4,243.7c-20.7,11.1-35.3,18.5-58.7,21.2c-4.3,0.5-8.5-1.3-11.1-4.8c-6-8-10.9-16.7-13.2-26.3
							c7-5.4,14.2-9.8,23-10.2c3.5,6.9,5.1,10.9,7,18.4v0c0.5-0.1,0.9-0.3,1.4-0.4c19-5.1,50.2-7.4,50.2-7.4
							C174.4,237.3,175.1,240.5,175.4,243.7z"/>
						<path class="st11" d="M116.3,225c-0.2-0.5-0.5-1-0.8-1.5c-8.9,0.4-16,4.8-23,10.2c0.5,2.3,1.2,4.6,2.1,6.8
							C99.8,233,107.4,227.2,116.3,225z"/>
						<path class="st4" d="M174.2,234.2c0,0-31.3,2.3-50.2,7.4c-0.5,0.1-1,0.3-1.4,0.4v0c-1.8-7-3.2-10.9-6.2-16.9
							c-8.9,2.2-16.5,7.9-21.7,15.5c2.6,7,6.6,13.5,11.1,19.5c2.6,3.4,6.8,5.3,11.1,4.8c23.3-2.6,38-10.1,58.7-21.2
							C175.1,240.5,174.4,237.3,174.2,234.2z"/>
						<g>
							<path class="st4" d="M174.2,234.2l22.3,5.5l-3.7,7.5l-0.6,0.1c-5.8,0.9-11.8-0.4-16.8-3.6l0,0L174.2,234.2z"/>
							<path class="st4" d="M191.5,244.8c-1.5-1.3-3.7,0.9-2.2,2.2c1.8,1.5,0.4,4.1-1.8,3.4c-1.9-0.6-2.7,2.3-0.8,3
								c2.2,0.7,4.7-0.2,5.9-2.1C193.8,249.1,193.3,246.3,191.5,244.8z"/>
							<path class="st4" d="M190.3,242c-1.9-0.7-2.7,2.3-0.8,3c3.6,1.3,4.9,5,3.5,8.4c-0.7,1.8,2.2,2.6,3,0.8
								C198.1,249.2,195.4,243.8,190.3,242z"/>
							<path class="st4" d="M201,252.7c-0.6-3.6-5.5-15.9-10.9-11.3c-1.5,1.3,0.7,3.4,2.2,2.2c0.8-0.7,3.6,3.7,3.9,4.3
								c1,1.8,1.5,3.7,1.9,5.6C198.4,255.4,201.3,254.6,201,252.7z"/>
							<path class="st4" d="M203.7,247.4c-1.1-6-7.2-9.5-13-7.4c-1.8,0.7-1,3.6,0.8,3c4.3-1.6,8.4,0.8,9.2,5.3
								C201.1,250.2,204,249.4,203.7,247.4z"/>
						</g>
					</g>
					<path class="st9" d="M116.1,223.2c-7.1,0.5-14,2.9-19.9,6.9c-1.6,1.1-3.2,2.4-4.7,3.8c-0.5,0.5,0.2,1.2,0.7,0.7
						c6.4-6.1,14.9-9.9,23.8-10.4C116.8,224.2,116.8,223.2,116.1,223.2z"/>
					<path class="st9" d="M116.2,218.9c-0.5-1.8-1.1-3.6-1.6-5.4c-1.1-3.6-2.2-7.2-3.2-10.9c-0.2-0.6-1.2-0.4-1,0.3
						c1,3.5,2.1,6.9,3.1,10.4c0.5,1.7,1,3.4,1.5,5.1c0.5,1.6,0.9,3.4,0.4,5.1c-0.2,0.6,0.8,0.9,1,0.3
						C116.9,222.1,116.7,220.5,116.2,218.9z"/>
					<path class="st9" d="M114.9,205.8c-0.2,2.9-0.3,5.9-0.5,8.8c0,0.7,1,0.7,1,0c0.2-2.9,0.3-5.9,0.5-8.8
						C116,205.2,115,205.2,114.9,205.8z"/>
					<path class="st9" d="M92,234.4c-1.7-3.7-3.5-7.5-5.2-11.2c-0.3-0.6-1.2-0.1-0.9,0.5c1.7,3.7,3.5,7.5,5.2,11.2
						C91.4,235.5,92.3,235,92,234.4z"/>
				</g>
				<path class="st11" d="M123.9,241.5c-1.5,2.2-2.4,4.8-2.8,7.4c0,0.3-0.4,0.4-0.6,0.4c-0.3-0.1-0.4-0.4-0.4-0.6
					c0.4-2.4,1.2-4.7,2.4-6.8v0C123,241.8,123.4,241.7,123.9,241.5z"/>
			</g>
			<g>
				<path class="st11" d="M174.4,180.5c-0.5-1.8-0.4-3.8,0.3-5.6c0.7-1.8,2-3.3,3.6-4.2c0.5-1.9,1.5-3.9,2.7-5.4
					c0.4-0.5,0.9-1.1,1.6-1.3s1.5-0.1,1.9,0.4c0.6,0.8,0.1,1.9-0.3,2.7c-2.1,4.2-3.1,8.8-3.1,13.4"/>
				<g>
					<path class="st10" d="M181.8,188.7l13.1-18l-5.5-3.6l-0.5,0.2c-0.8,0.3-1.6,0.6-2.4,0.9c-6,2.2-10.6,7-12.6,13.1l0,0
						L181.8,188.7z"/>
				</g>
				<path class="st10" d="M200.1,164.3c-5.4,2.4-10.2,5.6-14.5,9.6c-1.4,1.4,0.7,3.5,2.2,2.2c4.1-3.9,8.7-6.9,13.9-9.1
					C203.4,166.2,201.9,163.5,200.1,164.3z"/>
				<path class="st10" d="M201,161.2c-5.4,2.4-10.2,5.6-14.5,9.6c-1.4,1.4,0.7,3.5,2.2,2.2c4.1-3.9,8.7-6.9,13.9-9.1
					C204.4,163.1,202.8,160.4,201,161.2z"/>
				<path class="st10" d="M198.8,160c-5.4,2.4-10.2,5.6-14.5,9.6c-1.4,1.4,0.7,3.5,2.2,2.2c4.1-3.9,8.7-6.9,13.9-9.1
					C202.1,161.8,200.6,159.2,198.8,160z"/>
				<path class="st10" d="M192.1,160.1c-4.8,3.3-9,7.4-12.4,12.2c-1.2,1.6,1.4,3.3,2.5,1.7c3.3-4.6,7.3-8.4,11.9-11.6
					C195.7,161.3,193.7,159,192.1,160.1z"/>
			</g>
			<g>
				<rect x="189" y="264.3" class="st2" width="127.2" height="4.3"/>
				<rect x="47.9" y="264.3" class="st7" width="141.1" height="4.3"/>
			</g>
			<g>
				<g>
					<line class="st8" x1="63.2" y1="268.5" x2="45.6" y2="463.7"/>
					
						<rect x="-43.5" y="364.8" transform="matrix(8.989560e-02 -0.996 0.996 8.989560e-02 -315.0916 387.407)" class="st2" width="196" height="2.6"/>
				</g>
				<g>
					<line class="st8" x1="178.2" y1="268.5" x2="195.8" y2="463.7"/>
					
						<rect x="185.7" y="268.1" transform="matrix(0.996 -8.989560e-02 8.989560e-02 0.996 -32.1542 18.2926)" class="st2" width="2.6" height="196"/>
				</g>
			</g>
			<g>
				<g>
					<polygon class="st7" points="289.5,212.5 209.8,212.5 198.8,261.7 278.5,261.7 					"/>
				</g>
				<g>
					<polygon class="st2" points="292.5,212.5 212.7,212.5 201.7,261.7 281.5,261.7 					"/>
				</g>
				<g>
					<rect x="149.8" y="261.7" class="st7" width="49.5" height="2.6"/>
					<rect x="199.2" y="261.7" class="st2" width="82.3" height="2.6"/>
				</g>
			</g>
		</g>
		<g>
			<g>
				<path class="st0" d="M353.3,169.7H236.1c-5.8,0-10.6-4.7-10.6-10.6v-42.7c0-5.8,4.7-10.6,10.6-10.6h117.2
					c5.8,0,10.6,4.7,10.6,10.6v42.7C363.8,164.9,359.1,169.7,353.3,169.7z"/>
				<g>
					<line class="st14" x1="275.1" y1="143.7" x2="357" y2="143.7"/>
					<line class="st14" x1="275.1" y1="148.8" x2="357" y2="148.8"/>
					<line class="st14" x1="275.1" y1="153.8" x2="357" y2="153.8"/>
					<line class="st14" x1="275.1" y1="158.9" x2="320.5" y2="158.9"/>
				</g>
				<g>
					<polygon class="st1" points="336.8,119.2 338.4,122.6 342.2,123.2 339.5,125.8 340.1,129.5 336.8,127.8 333.4,129.5 
						334.1,125.8 331.4,123.2 335.1,122.6 					"/>
					<polygon class="st1" points="352.7,119.2 354.3,122.6 358.1,123.2 355.4,125.8 356,129.5 352.7,127.8 349.3,129.5 350,125.8 
						347.2,123.2 351,122.6 					"/>
					<polygon class="st1" points="318.7,119.2 320.4,122.6 324.1,123.2 321.4,125.8 322,129.5 318.7,127.8 315.4,129.5 316,125.8 
						313.3,123.2 317,122.6 					"/>
					<polygon class="st1" points="300.6,119.2 302.3,122.6 306,123.2 303.3,125.8 304,129.5 300.6,127.8 297.3,129.5 297.9,125.8 
						295.2,123.2 299,122.6 					"/>
					<polygon class="st15" points="282.6,119.2 284.2,122.6 288,123.2 285.3,125.8 285.9,129.5 282.6,127.8 279.2,129.5 
						279.9,125.8 277.2,123.2 280.9,122.6 					"/>
				</g>
				<path class="st1" d="M261.1,142.4h-17.8c-3.3,0-6-2.7-6-6v-17.2c0-3.3,2.7-6,6-6h17.8c3.3,0,6,2.7,6,6v17.2
					C267,139.7,264.4,142.4,261.1,142.4z"/>
			</g>
			<polygon class="st0" points="273.8,164.2 270.8,193.7 283.5,165.6 			"/>
		</g>
		<g>
			<g>
				<g>
					<path class="st0" d="M456.1,261.8H338.9c-5.8,0-10.6-4.7-10.6-10.6v-42.7c0-5.8,4.7-10.6,10.6-10.6h117.2
						c5.8,0,10.6,4.7,10.6,10.6v42.7C466.6,257.1,461.9,261.8,456.1,261.8z"/>
					<g>
						<line class="st14" x1="377.9" y1="235.8" x2="459.8" y2="235.8"/>
						<line class="st14" x1="377.9" y1="240.9" x2="459.8" y2="240.9"/>
						<line class="st14" x1="377.9" y1="246" x2="399.7" y2="246"/>
					</g>
					<g>
						<polygon class="st1" points="439.3,211.4 441,214.8 444.7,215.3 442,218 442.7,221.7 439.3,219.9 436,221.7 436.6,218 
							433.9,215.3 437.7,214.8 						"/>
						<polygon class="st1" points="455.8,211.4 457.5,214.8 461.2,215.3 458.5,218 459.1,221.7 455.8,219.9 452.5,221.7 453.1,218 
							450.4,215.3 454.1,214.8 						"/>
						<polygon class="st1" points="421.3,211.4 423,214.8 426.7,215.3 424,218 424.7,221.7 421.3,219.9 418,221.7 418.6,218 
							416,215.3 419.7,214.8 						"/>
						<polygon class="st15" points="403.4,211.4 405,214.8 408.7,215.3 406,218 406.7,221.7 403.4,219.9 400,221.7 400.7,218 
							398,215.3 401.7,214.8 						"/>
						<polygon class="st15" points="385.4,211.4 387,214.8 390.8,215.3 388.1,218 388.7,221.7 385.4,219.9 382,221.7 382.7,218 
							380,215.3 383.7,214.8 						"/>
					</g>
					<path class="st1" d="M363.9,234.5h-17.8c-3.3,0-6-2.7-6-6v-17.2c0-3.3,2.7-6,6-6h17.8c3.3,0,6,2.7,6,6v17.2
						C369.9,231.8,367.2,234.5,363.9,234.5z"/>
				</g>
			</g>
			<polygon class="st0" points="334.3,237.3 301.9,244.5 337.6,246.6 			"/>
		</g>
	</g>
</g>
</svg>
