<?xml version="1.0" encoding="utf-8"?>
<!-- Generator: Adobe Illustrator 24.3.0, SVG Export Plug-In . SVG Version: 6.00 Build 0)  -->
<svg version="1.1" id="Layer_1" xmlns="http://www.w3.org/2000/svg" xmlns:xlink="http://www.w3.org/1999/xlink" x="0px" y="0px"
	 viewBox="0 0 3710 3710" style="enable-background:new 0 0 3710 3710;" xml:space="preserve">
<style type="text/css">
	.st0{opacity:0.3;fill:#F4F7FA;enable-background:new    ;}
	.st1{opacity:0.5;}
	.st2{fill:#FFD7AB;}
	.st3{fill:url(#SVGID_1_);}
	.st4{fill:url(#SVGID_2_);}
	.st5{fill:#FFF2E2;}
	.st6{fill:url(#SVGID_3_);}
	.st7{fill:#FFFFFF;}
	.st8{fill:#F4925D;}
	.st9{opacity:0.3;fill:#FFD7AB;enable-background:new    ;}
	.st10{clip-path:url(#SVGID_5_);}
	.st11{fill:#F4F7FA;}
	.st12{fill:url(#SVGID_6_);}
	.st13{fill:url(#SVGID_7_);}
	.st14{fill:url(#SVGID_8_);}
	.st15{fill:url(#SVGID_9_);}
	.st16{fill:url(#SVGID_10_);}
	.st17{fill:url(#SVGID_11_);}
	.st18{fill:url(#SVGID_12_);}
	.st19{fill:url(#SVGID_13_);}
	.st20{fill:url(#SVGID_14_);}
	.st21{fill:url(#SVGID_15_);}
	.st22{fill:url(#SVGID_16_);}
	.st23{fill:url(#SVGID_17_);}
	.st24{fill:#26264F;}
	.st25{fill:url(#SVGID_18_);}
	.st26{fill:url(#SVGID_19_);}
</style>
<g id="Background">
</g>
<g id="Illustration">
	<g>
		<path class="st0" d="M3622.6,1548.9c-71.8-470-129.4-794.8-388.7-972.8c-437.3-300.2-925.8,187.1-1545.3-139.9
			c-305-161-316.5-347.7-574.8-372.5C656.7,19.9,282.5,565.4,250,612.2C52.9,896.4-12.9,1242.9,67,1573.3
			c51.9,214.6,87,436.7,77.3,657.2c-16.7,383.8-7.1,742,365.3,970.9c332.5,204.4,751.1,384.6,1150.3,416.2
			c271.3,21.5,575.6-13.3,837.2-83.9C3829.9,3173.6,3721.3,2195.1,3622.6,1548.9z"/>
		<g class="st1">
			<g>
				<path class="st2" d="M2825.9,894.4l-33.8-163.3c-5.4-26.1-30.7-42.9-56.6-37.6l-92,18.8c-16.5-42-36.3-82-59.3-119.5l69.9-62.3
					c19.7-17.5,21.4-47.8,3.9-67.6l-109.3-123.7c-17.4-19.7-47.5-21.6-67.1-4.1l-70.3,62.5c-34.5-27.4-71.2-51.8-109.8-72.8
					l29.9-89.5c8.3-24.9-5.1-51.9-29.9-60.2l-155.2-52c-24.8-8.3-51.6,5.1-60,30l-30.2,89.7c-42.7-6.3-86.3-8.8-130.5-7.4L1907,142
					c-5.1-25.7-30-42.2-55.6-37l-160.2,32.7c-25.6,5.2-42.3,30.3-37.3,55.9l18.4,94.1c-41,16.2-80.1,35.7-116.8,58.4l-62.8-72.1
					c-17.1-19.7-47-21.5-66.7-4.1l-123.5,108.8c-19.8,17.4-21.9,47.5-4.9,67.3l63.3,73.1c-27.2,34.2-51.5,70.7-72.6,109.1
					l-91.7-31.2c-24.7-8.4-51.8,5.1-60.4,30.1l-54.1,157c-8.7,25.2,4.4,52.4,29.1,60.9l92,31.4c-6.8,42.9-9.9,86.9-9.2,131.4
					l-96.2,19.6c-25.8,5.3-42.8,30.7-38,56.9l30.6,164c4.9,26.3,29.9,43.3,55.8,38l96.5-19.7c15.6,41.7,34.5,81.6,56.5,119.1
					l-74.2,66c-20,17.8-22.2,48.6-5,68.9l108.3,126.8c17.3,20.3,47.7,22.3,67.7,4.5l74.2-66.2c34,28,70.4,52.9,108.7,74.4L1547,1755
					c-8.6,25.7,4.7,53.6,29.8,62.3l157.3,54.5c25.2,8.7,52.6-5.1,61.2-30.8l31.4-94.2c43.2,6.9,87.3,9.7,132,8.8l19,97.5
					c5.2,26.7,30.6,44,56.8,38.7l163.4-33.3c26.1-5.3,43-31.3,37.7-58l-19.2-96.7c41.9-16.5,81.8-36.3,119.3-59.5l63.7,73.5
					c17.7,20.4,48.2,22.4,68.1,4.5l124.6-112c19.9-17.9,21.7-48.9,4-69.2l-63.5-72.9c27.7-35.2,52.2-72.9,73.4-112.4l90.4,30.9
					c25.3,8.6,52.5-5.1,60.8-30.7l51.9-159.5c8.3-25.5-5.4-53-30.6-61.6l-89.5-30.4c6.4-44,8.8-88.9,7.4-134.3l92.3-18.8
					C2814.8,946.1,2831.4,920.6,2825.9,894.4z M2038.9,1470.2c-262.7,53.6-517.1-119.3-567.8-384.7
					c-50.4-263.8,119.6-519.4,379.5-572.4s513.5,116.2,566.8,379.5C2470.9,1157.4,2301.6,1416.7,2038.9,1470.2z"/>
				<path class="st2" d="M3578.9,2155.3l-23.7-114.6c-3.8-18.3-21.5-30.1-39.7-26.4l-64.6,13.2c-11.6-29.5-25.4-57.5-41.6-83.9
					l49-43.7c13.8-12.3,15-33.5,2.7-47.4l-76.7-86.8c-12.2-13.8-33.3-15.1-47.1-2.9l-49.4,43.9c-24.2-19.2-49.9-36.3-77.1-51
					l21-62.8c5.8-17.5-3.6-36.4-21-42.2l-108.8-36.5c-17.4-5.8-36.2,3.6-42.1,21l-21.2,63c-30-4.4-60.6-6.2-91.5-5.2l-13-65.4
					c-3.6-18-21-29.6-39-26l-112.4,22.9c-18,3.7-29.7,21.2-26.2,39.3l12.9,66c-28.7,11.4-56.2,25-81.9,40.9l-44-50.6
					c-12-13.8-33-15.1-46.8-2.9l-86.6,76.4c-13.9,12.2-15.4,33.4-3.4,47.2l44.4,51.3c-19.1,24-36.2,49.6-50.9,76.6l-64.3-21.9
					c-17.3-5.9-36.3,3.6-42.4,21.1l-38,110.1c-6.1,17.6,3.1,36.8,20.4,42.7l64.5,22.1c-4.8,30.1-6.9,61-6.5,92.2l-67.5,13.8
					c-18.1,3.7-30,21.6-26.6,39.9l21.5,115.1c3.4,18.4,21,30.4,39.1,26.7l67.7-13.8c10.9,29.3,24.2,57.2,39.7,83.6l-52.1,46.3
					c-14,12.5-15.6,34.1-3.5,48.3l75.9,89c12.2,14.3,33.4,15.7,47.5,3.1l52.1-46.4c23.9,19.6,49.4,37.1,76.3,52.2l-22.4,66.6
					c-6.1,18,3.3,37.6,20.9,43.7l110.4,38.3c17.7,6.1,36.9-3.6,42.9-21.6l22-66.1c30.3,4.8,61.2,6.8,92.6,6.2l13.4,68.4
					c3.7,18.7,21.5,30.9,39.8,27.1l114.7-23.4c18.3-3.7,30.2-22,26.5-40.7l-13.4-67.8c29.4-11.5,57.4-25.5,83.7-41.7l44.7,51.6
					c12.4,14.3,33.8,15.7,47.8,3.1l87.4-78.6c14-12.6,15.2-34.3,2.8-48.6l-44.5-51.1c19.4-24.7,36.6-51.1,51.5-78.9l63.4,21.7
					c17.7,6.1,36.8-3.6,42.7-21.5l36.4-111.9c5.8-17.9-3.8-37.2-21.5-43.2l-62.8-21.3c4.5-30.8,6.2-62.4,5.2-94.2l64.8-13.2
					C3571.1,2191.6,3582.7,2173.7,3578.9,2155.3z M3026.8,2559.3c-184.3,37.6-362.8-83.7-398.3-269.9
					c-35.4-185.1,83.9-364.4,266.2-401.6s360.3,81.6,397.6,266.2C3329.9,2339.8,3211.1,2521.7,3026.8,2559.3z"/>
			</g>
		</g>
		<g>
			<g>
				<g>
					<g>
						
							<linearGradient id="SVGID_1_" gradientUnits="userSpaceOnUse" x1="1092.7072" y1="1909.2162" x2="525.3595" y2="1847.324" gradientTransform="matrix(1 0 0 -1 0 3710)">
							<stop  offset="0" style="stop-color:#444B8C"/>
							<stop  offset="0.9964" style="stop-color:#26264F"/>
						</linearGradient>
						<path class="st3" d="M1770.2,371.4l345.6,2872.9c5.2,43.1-24.5,81.7-66.1,85.8l-1439.6,158c-88.2,5.5-136.5-39.6-141.9-85.4
							L105.3,348.4c-5.4-45.5,37.9-86.8,126.4-86.8l1452.7,30.6C1726.5,292.9,1765,328.6,1770.2,371.4z"/>
						
							<linearGradient id="SVGID_2_" gradientUnits="userSpaceOnUse" x1="1592.5537" y1="3339.2959" x2="189.6668" y2="-1436.7207" gradientTransform="matrix(1 0 0 -1 0 3710)">
							<stop  offset="0" style="stop-color:#444B8C"/>
							<stop  offset="0.9964" style="stop-color:#26264F"/>
						</linearGradient>
						<path class="st4" d="M1834.9,366.5l347.5,2887.2c5.2,43.3-24.6,82.1-66.3,86.3L623.7,3488.6c-46.8,4.7-89.7-29.2-95.1-75.2
							l-365-3070.2c-5.4-45.8,28.9-82.6,76.2-81.8l1509,25.5C1791.1,287.6,1829.8,323.4,1834.9,366.5z"/>
						<path class="st5" d="M1806.6,525.7l322.1,2677.1c4.9,40.4-23,76.6-62.1,80.4L663,3419.7c-43.5,4.2-83.4-27.4-88.5-70.2
							L237.3,513.4c-5.1-42.6,26.8-77.1,70.8-76.7l1418,15.1C1765.6,452.2,1801.8,485.5,1806.6,525.7z"/>
						
							<linearGradient id="SVGID_3_" gradientUnits="userSpaceOnUse" x1="1066.8658" y1="3456.9343" x2="-581.9076" y2="-1008.4928" gradientTransform="matrix(1 0 0 -1 0 3710)">
							<stop  offset="0" style="stop-color:#311944"/>
							<stop  offset="1" style="stop-color:#893976"/>
						</linearGradient>
						<path class="st6" d="M1053.9,364.5c1.8,15.4-9.2,27.7-24.7,27.5s-29.5-12.8-31.4-28.2c-1.8-15.4,9.2-27.7,24.7-27.5
							C1038.1,336.5,1052.1,349.1,1053.9,364.5z"/>
						<g class="st1">
							<path class="st7" d="M1564,2322.7c-287.4-531.3-716.6-690.3-845.9-1237.8c-69.9-296-22.3-579.2,57.9-814.4l-536.2-9
								c-47.3-0.8-81.7,36-76.2,81.8l364.9,3070.1c5.5,46,48.4,79.9,95.1,75.2l1173.2-116.8C1805.6,2895.7,1692,2559.6,1564,2322.7z
								"/>
						</g>
					</g>
				</g>
				<g>
					<path class="st8" d="M2467.2,1350.9l-1879.1,56.6c-47.7,1.4-90.9-33.2-96.3-77.4l-83.4-681.9c-5.4-44.2,29.2-80,77.1-79.9
						l1886.1,0.6c41.5,0,79.1,33.2,84.1,74.1l77.2,631.6C2537.9,1315.5,2508.5,1349.7,2467.2,1350.9z"/>
					<path class="st2" d="M2681.1,3099.6L817.6,3284c-47.3,4.7-90.2-27.3-95.6-71.5l-83.4-681.9c-5.4-44.2,28.9-82.6,76.4-85.8
						l1870.5-127.2c41.1-2.8,78.4,28.1,83.4,69l77.2,631.6C2751.1,3059.1,2722,3095.5,2681.1,3099.6z"/>
					<g>
						<g>
							<path class="st9" d="M2574.1,2225.2L702.8,2345.7c-47.5,3.1-90.6-30.3-96-74.4l-83.4-681.9c-5.4-44.2,29-81.3,76.7-82.9
								l1878.3-63.3c41.3-1.4,78.7,30.6,83.7,71.6l77.2,631.6C2644.5,2187.3,2615.3,2222.6,2574.1,2225.2z"/>
						</g>
					</g>
				</g>
			</g>
			<g>
				<g>
					<g>
						<path class="st7" d="M912.5,1280.8c-162.1,3.5-305.5-122.9-317.9-282.4c-12.5-160.1,111.9-290.8,275.3-290.8
							c161.4,0,300.4,127.8,311.5,284.4C1192.5,1148,1072.6,1277.3,912.5,1280.8z M871.4,727.4c-152.1,0.1-267.8,121.8-256.2,270.8
							c11.5,148.5,144.9,266.3,295.9,263.1c149.2-3.1,261-123.6,250.7-269.1C1151.3,846.3,1021.8,727.3,871.4,727.4z"/>
					</g>
					<g>
						<g>
							<defs>
								<path id="SVGID_4_" d="M1171.6,992.1c10.7,151-104.9,275.6-259.8,279c-156.8,3.4-294.9-118.5-306.9-272.8
									c-12-154.8,107.7-280.8,265.8-280.8C1026.8,717.4,1160.8,840.6,1171.6,992.1z"/>
							</defs>
							<clipPath id="SVGID_5_">
								<use xlink:href="#SVGID_4_"  style="overflow:visible;"/>
							</clipPath>
							<g class="st10">
								<g>
									<path class="st7" d="M856.4,946.3c4.7,63.4-26.7,115.1-70.3,115.7c-43.8,0.6-83.3-50.5-88.2-114.3s26.8-115.8,70.8-116
										C812.4,831.5,851.6,882.8,856.4,946.3z"/>
									<path class="st7" d="M802.8,1041c-12.2,0.2-24.5,0.3-36.7,0.5c6.6,129.2,13.1,257.4,19.8,387.5c0.4,7.7,3.8,13.1,9.8,18.4
										s13.7,7.2,21.7,7c7.1-0.2,13.6-3.7,18.2-8.7c4.6-5,7-8,6.4-14.9C828.8,1300.1,815.8,1169.9,802.8,1041z"/>
								</g>
								<g>
									<path class="st7" d="M1020.4,1038.3c-12,0.2-24.1,0.3-36.1,0.5c6.2,128.1,12.4,255.2,18.7,384.3c0.4,7.6,3.7,13,9.6,18.3
										c5.9,5.3,13.5,7.2,21.3,7c7-0.2,13.4-3.6,17.9-8.6s6.9-7.9,6.3-14.7C1045.5,1295.2,1032.9,1166.1,1020.4,1038.3z"/>
									<path class="st7" d="M1051.4,833.9l-17.2,0.1l8.9,123.1l-18.5,0.2l-9-123.1l-18.6,0.1l9,123.2l-18.6,0.2l-9-123.3
										l-18.6,0.1l9.1,123.4l-18.6,0.2l-9.1-123.5l-19.5,0.1c0,0-7.2,125.9,0.1,183.8c0.9,7.1,5.9,14.1,12.2,19
										c11.7,9.2,34.9,22,71,21.5c35.7-0.5,56.4-13.6,66.6-23.1c5.5-5.1,8.1-12.3,7.9-19.4
										C1078.3,958.8,1051.4,833.9,1051.4,833.9z"/>
								</g>
							</g>
						</g>
					</g>
				</g>
				<g>
					<path class="st11" d="M2365.1,779.9L1365,782.8c-17.5,0.1-30.7,14.2-29.5,31.7l5.6,81.2c1.2,17.4,16.3,31.4,33.8,31.3
						l998.1-8.5c16.1-0.1,28.4-13.8,27.5-30.5l-4.4-77.8C2395.1,793.4,2381.3,779.9,2365.1,779.9z"/>
					<path class="st11" d="M1804.4,998.4l-436.3,5c-10.8,0.1-19,8.9-18.2,19.7l1.7,23.9c0.7,10.7,10.1,19.3,20.9,19.2l435.9-6.1
						c10.4-0.1,18.3-8.8,17.7-19.4l-1.5-23.5C1823.9,1006.8,1814.9,998.3,1804.4,998.4z"/>
					<path class="st11" d="M1812.6,1126.3l-435.5,7.2c-10.8,0.2-18.9,9-18.2,19.7l1.6,23.9c0.7,10.7,10.1,19.2,20.9,19l435.1-8.2
						c10.4-0.2,18.3-8.9,17.6-19.4l-1.5-23.4C1832,1134.5,1823,1126.1,1812.6,1126.3z"/>
				</g>
			</g>
			<g>
				<g>
					<g>
						<g>
							<path class="st7" d="M1040.6,2181.6c-158.4,9-298.2-109.5-310.1-264.8c-11.9-155.9,109.8-287.8,269.4-293.4
								c157.8-5.6,293.3,114.4,303.9,267C1314.5,2042.3,1197.1,2172.7,1040.6,2181.6z M1001.4,1642.6
								c-148.6,5.4-261.8,128.2-250.8,273.2c11,144.6,141.1,255,288.6,246.7c145.8-8.2,255.3-129.7,245.4-271.4
								C1274.7,1749.1,1148.3,1637.3,1001.4,1642.6z"/>
						</g>
						<path class="st7" d="M1207.2,1870.7c-13.1-57.3-34.9-86.3-50-100.7c-8.3-7.9-19.4-11.6-30.8-11.3h-2.1
							c-16.7,0.4-32.9,4.3-47,12.6l-4.9,3.4c-15.5,9.2-33.4,14.8-52.1,15.2l-5.4,0.1l-4.2,0.1c-4.7,0.1-9.5-0.1-14.2-0.7
							c-14.1-1.6-28-6-40.8-12.3l-5.5-2.5c-15.8-7.8-33.3-11.4-50.9-11l-2.2,0.1c-12.1,0.3-23.4,4.6-31,13.2
							c-14.1,15.7-33.2,47.5-38.6,108.2c-5,57.4,0.3,92.7,5.7,112.5c3.4,12.3,13,22.3,25.7,26.9l0.4,0.1c14.2,5.2,30.2,2.8,41.7-6.2
							l45.7-34.7c17.3-13.5,38.8-20.5,61.2-21.6l12.6-0.7l27.3-1.3c22-1.1,43.8,3.8,62.3,15.3l47.9,29.4c11.9,7.4,26.9,7.8,39.2,1.4
							l0.4-0.3c10.9-5.7,18.2-16.2,19.6-28.2C1219.4,1958.7,1219.5,1924.7,1207.2,1870.7z M885,1870.4c-9.4,0.3-17.5-6.5-18.2-15.2
							c-0.7-8.8,6.4-16.1,15.8-16.4c9.4-0.3,17.4,6.5,18.1,15.3C901.4,1862.7,894.4,1870.1,885,1870.4z M922.3,1930.5
							c-14.4,0.6-27-9.9-28-23.4c-1-13.6,9.9-25,24.4-25.6c14.4-0.5,26.9,10,27.8,23.4C947.6,1918.4,936.7,1929.8,922.3,1930.5z
							 M999.6,1923.6c-4.3,0.2-8-3-8.3-7c-0.3-4.1,2.9-7.5,7.2-7.7s8,3,8.3,7C1007.2,1920,1003.9,1923.4,999.6,1923.6z
							 M1040.6,1921.9c-4.2,0.2-7.9-3-8.2-7c-0.3-4.1,2.9-7.5,7.2-7.7c4.2-0.2,7.9,3,8.2,7C1048,1918.3,1044.8,1921.7,1040.6,1921.9
							z M1169.9,1868.7c0.3,4.2-3,8.4-7.4,8.5l-22.1,0.8l1.4,19.8c0.3,4.2-2.6,8.7-7,8.9l-8,0.3c-4.4,0.2-8.7-4-9-8.2l-1.4-19.9
							l-23.9,0.9c-4.4,0.2-8.6-3.7-8.9-8l-0.6-8.1c-0.3-4,3.2-6.6,7.4-6.7l24.3-0.9l-1.5-21.3c-0.3-4.2,3.4-7.3,7.8-7.4l8.2-0.3
							c4.4-0.1,7.8,2.7,8.1,6.9l1.5,21.3l22.1-0.8c4.4-0.2,8.1,2.3,8.4,6.5L1169.9,1868.7z"/>
					</g>
				</g>
				<g>
					<path class="st11" d="M2430.6,1643.5l-980.8,37.5c-17.2,0.7-30.1,15-29,32l5.4,79.2c1.2,17,16,30.1,33.1,29.4l978.8-42.8
						c15.8-0.7,27.9-14.5,27-30.8l-4.2-76C2460,1655.7,2446.5,1642.9,2430.6,1643.5z"/>
					<path class="st11" d="M1880.3,1876.7l-427.8,19.9c-10.6,0.5-18.6,9.4-17.9,19.9l1.6,23.4c0.7,10.5,9.9,18.6,20.5,18l427.4-21
						c10.2-0.5,18-9.2,17.3-19.5l-1.4-22.9C1899.4,1884.2,1890.6,1876.2,1880.3,1876.7z"/>
					<path class="st11" d="M1888.2,2001.5l-427,22c-10.6,0.5-18.6,9.5-17.9,19.9l1.6,23.3c0.7,10.4,9.9,18.5,20.4,17.9l426.6-23
						c10.2-0.6,18-9.3,17.3-19.6l-1.4-22.9C1907.2,2008.8,1898.4,2000.9,1888.2,2001.5z"/>
				</g>
			</g>
			<g>
				<g>
					<g>
						<g>
							<path class="st7" d="M1154.8,3120.6c-154.8,14.3-291.2-96.6-302.5-247.8C841,2721,960,2588,1116,2576.9
								c154.2-10.9,286.5,101.5,296.6,250.1C1422.7,2975.1,1307.7,3106.5,1154.8,3120.6z M1117.4,2595.7
								c-145.2,10.4-256,134.2-245.4,275.4c10.5,140.7,137.4,244.1,281.6,230.9c142.5-13,249.7-135.5,240.3-273.5
								C1384.3,2690.1,1261,2585.4,1117.4,2595.7z"/>
						</g>
						<g>
							<path class="st7" d="M1255.3,2917.7c-92.8,7.9-173.9-59.3-180.4-150.2c-1.9-26.8,2.9-52.7,13-76
								c-70.7,24.7-119.2,92.9-113.6,168.9c6.7,91.1,88.3,158.1,181.8,149.9c65.5-5.8,119.4-47,143.3-102.3
								C1285.5,2913,1270.8,2916.4,1255.3,2917.7z"/>
							<g>
								<g>
									<path class="st7" d="M1215.6,2839.9l-46.4,3.8l-0.7-9.2l24.7-38.3l-25.6,2l-0.8-11.9l43.9-3.5l0.7,10.1l-24,37.2l27.4-2.2
										L1215.6,2839.9z"/>
								</g>
								<g>
									<path class="st7" d="M1289.1,2759.2l-66.7,5.2l-0.9-13.3l35.6-55.1l-36.9,2.8l-1.2-17.2l63.1-4.8l1,14.6l-34.6,53.6
										l39.4-3.1L1289.1,2759.2z"/>
								</g>
							</g>
						</g>
					</g>
				</g>
				<g>
					<path class="st11" d="M2496.9,2548.1L1536,2619c-16.8,1.2-29.5,15.7-28.4,32.3l5.1,77.2c1.1,16.6,15.6,28.9,32.4,27.6l959-76
						c15.5-1.2,27.4-15.1,26.5-31l-4-74.2C2525.7,2558.9,2512.5,2546.9,2496.9,2548.1z"/>
					<path class="st11" d="M1957.4,2795.3l-419,34.4c-10.4,0.9-18.2,9.8-17.6,20.1l1.5,22.8c0.7,10.2,9.6,17.8,20,16.9l418.6-35.3
						c10-0.8,17.6-9.7,17-19.7l-1.4-22.4C1976,2801.9,1967.4,2794.4,1957.4,2795.3z"/>
					<path class="st11" d="M1964.8,2917l-418.2,36.4c-10.4,0.9-18.2,9.9-17.5,20.1l1.5,22.7c0.7,10.2,9.6,17.7,20,16.8l417.9-37.3
						c10-0.9,17.6-9.7,17-19.7l-1.4-22.3C1983.5,2923.5,1974.8,2916.1,1964.8,2917z"/>
				</g>
			</g>
		</g>
		<g>
			<g>
				
					<linearGradient id="SVGID_6_" gradientUnits="userSpaceOnUse" x1="2308.3118" y1="1825.3903" x2="2621.9756" y2="1103.4653" gradientTransform="matrix(1 0 0 -1 0 3710)">
					<stop  offset="3.597120e-03" style="stop-color:#E38DDD"/>
					<stop  offset="1" style="stop-color:#9571F6"/>
				</linearGradient>
				<path class="st12" d="M2669.8,2707c0,0,60.9-344.9-156.4-487.1l-95.1,186.3c0,0,107.1,18.2,150.2,130.4
					c43.1,112.2,68.4,184.1,68.4,184.1L2669.8,2707z"/>
				
					<linearGradient id="SVGID_7_" gradientUnits="userSpaceOnUse" x1="1731.8657" y1="1968.6964" x2="1809.9126" y2="1789.0648" gradientTransform="matrix(1 0 0 -1 0 3710)">
					<stop  offset="0" style="stop-color:#FFC444"/>
					<stop  offset="0.9964" style="stop-color:#F36F56"/>
				</linearGradient>
				<path class="st13" d="M1794.1,1866.2c0,0-15.3-79.8-30.6-103.6c-15.3-23.8-43.8-39.1-43.8-39.1s-5.9,9.8,13,30.4
					s3.1,22.6,0,29.2s3.6,30.4,17.2,38.9s18.7,54.8,18.7,54.8L1794.1,1866.2z"/>
				
					<linearGradient id="SVGID_8_" gradientUnits="userSpaceOnUse" x1="1931.4329" y1="1839.636" x2="2248.04" y2="1110.9365" gradientTransform="matrix(1 0 0 -1 0 3710)">
					<stop  offset="3.597120e-03" style="stop-color:#E38DDD"/>
					<stop  offset="1" style="stop-color:#9571F6"/>
				</linearGradient>
				<path class="st14" d="M1750,1856c16.4-2.8,32.8-5.7,49.2-8.5c58.7,108.9,127.6,178.9,174.4,219.6c55.4,48,91.1,79,149.9,94.6
					c86.8,23,161.8-4,171.5,20.4c4.8,11.9-11.8,24.8-38.2,56.5c-77,92.1-69.7,141.7-112.1,155.4c-35,11.3-70.2-13-129.9-55.6
					c-54.3-38.8-122.4-87.3-180-180C1757.7,2034,1749.9,1911.8,1750,1856z"/>
				
					<linearGradient id="SVGID_9_" gradientUnits="userSpaceOnUse" x1="4934.6416" y1="-156.4169" x2="4984.5225" y2="-200.7861" gradientTransform="matrix(0.9902 -0.14 -0.14 -0.9902 -2401.4932 4121.0093)">
					<stop  offset="0" style="stop-color:#444B8C"/>
					<stop  offset="0.9964" style="stop-color:#26264F"/>
				</linearGradient>
				<path class="st15" d="M2520.7,3607.6c1.4-7.8,26.7-14.9,39.2-4.4c6.2,5.2,10.5,15.7,6.9,20.5c-1.3,1.7,4,4.8-1.1,4.8
					C2548.7,3628.7,2519.3,3615.4,2520.7,3607.6z"/>
				
					<linearGradient id="SVGID_10_" gradientUnits="userSpaceOnUse" x1="4057.4915" y1="-200.8282" x2="4057.4915" y2="-113.9302" gradientTransform="matrix(0.9902 -0.14 -0.14 -0.9902 -1485.292 3991.4934)">
					<stop  offset="0" style="stop-color:#FFC444"/>
					<stop  offset="0.9964" style="stop-color:#F36F56"/>
				</linearGradient>
				<path class="st16" d="M2547.2,3610.4l26-3.7c-12-14.5-9.8-60.6-9.8-60.6l-27.6,6.2c0,0,3.1,12.7,8.5,31.3
					C2546.1,3590,2546.9,3600,2547.2,3610.4z"/>
				
					<linearGradient id="SVGID_11_" gradientUnits="userSpaceOnUse" x1="4939.6973" y1="-150.735" x2="4989.5776" y2="-195.1034" gradientTransform="matrix(0.9902 -0.14 -0.14 -0.9902 -2401.4932 4121.0093)">
					<stop  offset="0" style="stop-color:#444B8C"/>
					<stop  offset="0.9964" style="stop-color:#26264F"/>
				</linearGradient>
				<path class="st17" d="M2544.9,3607.2c0,0,31.3-7.2,34.7-1s6,22.8-13.8,22.3C2545.9,3628,2543.1,3612.5,2544.9,3607.2z"/>
				
					<linearGradient id="SVGID_12_" gradientUnits="userSpaceOnUse" x1="4762.7363" y1="97.4161" x2="4812.6196" y2="53.045" gradientTransform="matrix(1 0 0 -1 -2609.0793 3710)">
					<stop  offset="0" style="stop-color:#444B8C"/>
					<stop  offset="0.9964" style="stop-color:#26264F"/>
				</linearGradient>
				<path class="st18" d="M2164.4,3636.9c2.5-7.5,28.5-11,39.4,1.1c5.4,6,8.2,17.1,4,21.3c-1.5,1.5,3.3,5.3-1.7,4.6
					C2189.1,3661.7,2161.9,3644.4,2164.4,3636.9z"/>
				
					<linearGradient id="SVGID_13_" gradientUnits="userSpaceOnUse" x1="3885.4692" y1="52.9451" x2="3885.4692" y2="139.8464" gradientTransform="matrix(1 0 0 -1 -1683.7692 3710)">
					<stop  offset="0" style="stop-color:#FFC444"/>
					<stop  offset="0.9964" style="stop-color:#F36F56"/>
				</linearGradient>
				<path class="st19" d="M2190.2,3643.4h26.2c-9.9-16-1.2-61.4-1.2-61.4l-28.2,2.2c0,0,1.3,13,4,32.2
					C2191.9,3623.1,2191.3,3633.1,2190.2,3643.4z"/>
				
					<linearGradient id="SVGID_14_" gradientUnits="userSpaceOnUse" x1="679.1329" y1="13.1128" x2="353.8579" y2="1326.4064" gradientTransform="matrix(-1 0 0 -1 2876.6677 3710)">
					<stop  offset="0" style="stop-color:#444B8C"/>
					<stop  offset="0.9964" style="stop-color:#26264F"/>
				</linearGradient>
				<path class="st20" d="M2122.2,2651.5c-12.1,40.1-29.5,104.9-40.7,186.1c-31.9,231.8,35.9,239.1,23.2,496
					c-4,82,71,271,77.6,275.2c3.2,0.3,6.7,0.5,10.4,0.4c6.5-0.2,15.7-1.2,26.4-4.4c11.9-2,54.8-118.2,44.8-187.2
					c-7-48.9-5-101.3-0.9-206.2c0.7-17,44.1-330.6,44.1-330.6l0,0c13.2,116.1,28.4,214.7,41.6,291.2
					c42.4,245.7,180.1,394.4,187.3,396.8c1.4,0.6,14.3,5.3,24.9-1.7c4.7-3.1,6.3-7.1,6.3-7.1c3.7-2.9-1.1-245.3-43.1-427.7
					c-61-264.8-34.4-326.7-53.7-445C2453.8,2584.9,2122.2,2651.5,2122.2,2651.5z"/>
				
					<linearGradient id="SVGID_15_" gradientUnits="userSpaceOnUse" x1="2022.5984" y1="1915.8126" x2="2371.3469" y2="1113.1364" gradientTransform="matrix(1 0 0 -1 0 3710)">
					<stop  offset="3.597120e-03" style="stop-color:#E38DDD"/>
					<stop  offset="1" style="stop-color:#9571F6"/>
				</linearGradient>
				<path class="st21" d="M2368.5,2171.3c-40.5-1.2-133.5-15.5-184.8,30.6c-0.9,0.8,9.6,6.4,4.4,12.5c-4.8,5.6-21.3,25.3-36.2,51.9
					c-10.8,19.3-20.6,41.7-30.4,75.2c-17.4,59.1-22.3,109.3-24,131.3c-9.4,123.2-0.1,180.1,8.4,218.7
					c36.6,18.8,130.9,52.4,243.3,35.7c51.3-7.6,92.4-24.7,121.3-40c-29.2-88.3-6.3-135.5,4.5-179.1c15.4-62.1,15.6-57.4,28.3-106.7
					c20.9-81.4,24.3-164.6,10-181.6C2474.6,2174,2404.8,2172.4,2368.5,2171.3z"/>
				
					<linearGradient id="SVGID_16_" gradientUnits="userSpaceOnUse" x1="4767.75" y1="103.0508" x2="4817.6328" y2="58.68" gradientTransform="matrix(1 0 0 -1 -2609.0793 3710)">
					<stop  offset="0" style="stop-color:#444B8C"/>
					<stop  offset="0.9964" style="stop-color:#26264F"/>
				</linearGradient>
				<path class="st22" d="M2188.4,3639.9c0,0,32-2.8,34.4,3.9c2.5,6.6,2.8,23.4-16.8,20.1
					C2186.4,3660.6,2185.9,3644.9,2188.4,3639.9z"/>
				<g>
					
						<linearGradient id="SVGID_17_" gradientUnits="userSpaceOnUse" x1="7208.8618" y1="1594.3688" x2="7536.415" y2="1182.2648" gradientTransform="matrix(-0.9208 -0.3901 0.3901 -0.9208 8526.4453 6340.0742)">
						<stop  offset="0" style="stop-color:#FFC444"/>
						<stop  offset="0.9964" style="stop-color:#F36F56"/>
					</linearGradient>
					<path class="st23" d="M2418.4,2134.1c19.8-14.6,24.1-39.1,25-44.4c3.7-22.2,3.2-26.1,1.2-31.9l-2.9-7.8c0,0-0.2-0.4-0.5-0.8
						c-2.6-4.1-14.6-14-17.5-15.4c-9.3-4.5-43,21.3-76.2,69c-1.7,1.5-3.4,3-5.1,4.5c-6.9,6.3-49.8,55.7-57.9,58
						c-60.2,17.2-82.1,14.4-68.5,26.7c16,14.5,206,3.2,207.9-8.8c0.8-5.3-17.7-9.8-34.7-14.9c-17.5-5.3-19.9-22.4-15.2-30.3
						C2378.5,2138.8,2403.8,2144.8,2418.4,2134.1z"/>
					<path class="st24" d="M2468.3,2049.7c-11.1,14.2-29.6,24.1-34.9,23.9c-0.7,0-4.7,0-9.5,1.6c-0.7,0.2-1.3,0.5-2.1,1
						c-10.1,6.5-4,28.1-9.9,30c-4.3,1.4-10.9-10.1-14-8.4c-2.9,1.5,1.3,12.7-2.1,14.5c-2.6,1.4-6-4.4-11.7-3.5
						c-2.8,0.4-3.4,2.1-8.9,5.8c-3.1,2.1-6.8,4.2-9.2,5.1c-11.4,4.5-27.7-3.3-27.7-8.7c0-1.5,1.2-1.8,2.9-5.5c0,0,1.5-3.4,2.1-8.3
						c0.8-7-3.4-15.8-6.5-26.3c-5.7-19.4-3-30.1-2-33.6c0.4-1.2,0.7-2.2,0.9-2.8c4.8-13.1,16.7-28.5,28.8-34.3
						c20.2-9.7,32.1,11.7,58.9,7.3c30.9-5,40.1-37.6,51.4-33.2C2487.2,1979,2488.9,2023.5,2468.3,2049.7z"/>
					
						<linearGradient id="SVGID_18_" gradientUnits="userSpaceOnUse" x1="7224.2012" y1="1594.0979" x2="7494.3335" y2="1254.2372" gradientTransform="matrix(-0.9208 -0.3901 0.3901 -0.9208 8526.4453 6340.0742)">
						<stop  offset="0" style="stop-color:#FFC444"/>
						<stop  offset="0.9964" style="stop-color:#F36F56"/>
					</linearGradient>
					<path class="st25" d="M2409.4,2099c0.2-7.5-9.4-7.8-14.2-1.6c-4.9,6.2-3.9,17.3,2.9,20.6
						C2404.9,2121.2,2409.1,2109,2409.4,2099z"/>
				</g>
				
					<linearGradient id="SVGID_19_" gradientUnits="userSpaceOnUse" x1="2702.2593" y1="1049.0197" x2="2620.0132" y2="917.4262" gradientTransform="matrix(1 0 0 -1 0 3710)">
					<stop  offset="0" style="stop-color:#FFC444"/>
					<stop  offset="0.9964" style="stop-color:#F36F56"/>
				</linearGradient>
				<path class="st26" d="M2669.8,2707c0,0-1.7,7.3,11,13.7c12.8,6.4-3.2,23.7-3.2,23.7c-22.3,7.5-39.4,5.7-40.9-23.7L2669.8,2707z"
					/>
			</g>
		</g>
	</g>
</g>
</svg>
