<?xml version="1.0" encoding="utf-8"?>
<!-- Generator: Adobe Illustrator 24.3.0, SVG Export Plug-In . SVG Version: 6.00 Build 0)  -->
<svg version="1.1" id="Layer_1" xmlns="http://www.w3.org/2000/svg" xmlns:xlink="http://www.w3.org/1999/xlink" x="0px" y="0px"
	 viewBox="0 0 500 500" style="enable-background:new 0 0 500 500;" xml:space="preserve">
<style type="text/css">
	.st0{fill-rule:evenodd;clip-rule:evenodd;fill:#FFD7AB;}
	.st1{fill-rule:evenodd;clip-rule:evenodd;fill:#32082F;}
	.st2{fill-rule:evenodd;clip-rule:evenodd;fill:#F1DACF;}
	.st3{fill-rule:evenodd;clip-rule:evenodd;fill:#E1B199;}
	.st4{fill-rule:evenodd;clip-rule:evenodd;fill:#FFFFFF;}
	.st5{fill-rule:evenodd;clip-rule:evenodd;fill:#FFFDF6;}
	.st6{fill-rule:evenodd;clip-rule:evenodd;fill:#999A9A;}
	.st7{fill-rule:evenodd;clip-rule:evenodd;fill:#AFB0B0;}
	.st8{fill-rule:evenodd;clip-rule:evenodd;fill:#F7E2CD;}
	.st9{fill-rule:evenodd;clip-rule:evenodd;fill:#F2CC8F;}
	.st10{fill-rule:evenodd;clip-rule:evenodd;fill:#E2AA91;}
	.st11{fill-rule:evenodd;clip-rule:evenodd;fill:#E6B59F;}
	.st12{fill-rule:evenodd;clip-rule:evenodd;fill:#CF7866;}
	.st13{fill-rule:evenodd;clip-rule:evenodd;fill:#6C301E;}
	.st14{fill:#32082F;}
</style>
<g id="OBJECTS">
	<path class="st0" d="M73.6,170.1c34.1,0,61.8-27.8,61.8-61.8c0-34.1-27.8-61.8-61.8-61.8c-34.1,0-61.8,27.8-61.8,61.8
		C11.8,142.3,39.6,170.1,73.6,170.1z"/>
	<g>
		<path class="st1" d="M152.4,50.7h186.9c19.1,0,34.7,15.6,34.7,34.7v348.9c0,19.1-15.6,34.7-34.7,34.7H152.4
			c-19.1,0-34.7-15.6-34.7-34.7V85.4C117.7,66.3,133.3,50.7,152.4,50.7z"/>
		<path class="st2" d="M152.4,63.5h186.9c12,0,21.9,9.8,21.9,21.9v348.9c0,12-9.8,21.9-21.9,21.9H152.4c-12,0-21.9-9.8-21.9-21.9
			V85.4C130.5,73.3,140.4,63.5,152.4,63.5z"/>
		<path class="st3" d="M152.4,63.5h186.9c11.6,0,21.2,9.2,21.8,20.6H130.6C131.2,72.7,140.8,63.5,152.4,63.5z"/>
		<g>
			<path class="st4" d="M301.1,73.1c0-0.5,0.4-1,1-1c0.5,0,1,0.4,1,1v6.1c0,0.5-0.4,1-1,1c-0.5,0-1-0.4-1-1V73.1z"/>
			<path class="st4" d="M307.1,71.3c0-0.5,0.4-1,1-1c0.5,0,1,0.4,1,1v8c0,0.5-0.4,1-1,1c-0.5,0-1-0.4-1-1V71.3z"/>
			<path class="st4" d="M313.1,69.4c0-0.5,0.4-1,1-1c0.5,0,1,0.4,1,1v9.8c0,0.5-0.4,1-1,1c-0.5,0-1-0.4-1-1V69.4z"/>
		</g>
		<g>
			<path class="st4" d="M320.5,70.1h16.2c0.8,0,1.4,0.6,1.4,1.4v7.1c0,0.8-0.6,1.4-1.4,1.4h-16.2c-0.8,0-1.4-0.6-1.4-1.4v-7.1
				C319.1,70.7,319.8,70.1,320.5,70.1z"/>
			<rect x="337.8" y="71.8" class="st4" width="3" height="6.2"/>
			<g>
				<rect x="320.6" y="71.5" class="st3" width="2.7" height="7.1"/>
				<rect x="324.4" y="71.5" class="st3" width="2.7" height="7.1"/>
				<rect x="328.1" y="71.5" class="st3" width="2.7" height="7.1"/>
			</g>
		</g>
		<g>
			<path class="st5" d="M207.7,299.8h131.9c3.5,0,6.4,2.9,6.4,6.4v27.1c0,3.5-2.9,6.4-6.4,6.4H207.7c-3.5,0-6.4-2.9-6.4-6.4v-27.1
				C201.3,302.7,204.2,299.8,207.7,299.8z"/>
			<g>
				<path class="st6" d="M217.3,311.4c-0.5,0-1-0.4-1-1c0-0.5,0.4-1,1-1H330c0.5,0,1,0.4,1,1c0,0.5-0.4,1-1,1H217.3z"/>
				<path class="st6" d="M217.3,320.8c-0.5,0-1-0.4-1-1c0-0.5,0.4-1,1-1H330c0.5,0,1,0.4,1,1c0,0.5-0.4,1-1,1H217.3z"/>
				<path class="st6" d="M217.3,330.1c-0.5,0-1-0.4-1-1c0-0.5,0.4-1,1-1H330c0.5,0,1,0.4,1,1c0,0.5-0.4,1-1,1H217.3z"/>
			</g>
		</g>
		<g>
			<path class="st4" d="M152.1,357.5h135.6c3.5,0,6.4,2.9,6.4,6.4V391c0,3.5-2.9,6.4-6.4,6.4H152.1c-3.5,0-6.4-2.9-6.4-6.4v-27.1
				C145.7,360.4,148.6,357.5,152.1,357.5z"/>
			<g>
				<path class="st6" d="M165.4,369.1c-0.5,0-1-0.4-1-1c0-0.5,0.4-1,1-1h108.9c0.5,0,1,0.4,1,1c0,0.5-0.4,1-1,1H165.4z"/>
				<path class="st6" d="M165.4,378.5c-0.5,0-1-0.4-1-1c0-0.5,0.4-1,1-1h108.9c0.5,0,1,0.4,1,1c0,0.5-0.4,1-1,1H165.4z"/>
				<path class="st6" d="M165.4,387.8c-0.5,0-1-0.4-1-1s0.4-1,1-1h108.9c0.5,0,1,0.4,1,1c0,0.5-0.4,1-1,1H165.4z"/>
			</g>
		</g>
		<g>
			<path class="st4" d="M156.8,420.5H304c6.1,0,11.1,5,11.1,11.1l0,0c0,6.1-5,11.1-11.1,11.1H156.8c-6.1,0-11.1-5-11.1-11.1l0,0
				C145.7,425.5,150.7,420.5,156.8,420.5z"/>
			<path class="st4" d="M334.9,420.5h-2c-6.1,0-11.1,5-11.1,11.1l0,0c0,6.1,5,11.1,11.1,11.1h2c6.1,0,11.1-5,11.1-11.1l0,0
				C346,425.5,341,420.5,334.9,420.5z"/>
			<g>
				<path class="st6" d="M340.2,426.2c-9.4,6.6-9.4,6.6-9.4,6.6l-5.1-2.9L340.2,426.2z"/>
				<path class="st6" d="M340.7,426.9c-9.4,6.6-9.4,6.6-9.4,6.6l1,5.8L340.7,426.9z"/>
			</g>
			<path class="st6" d="M166.4,434.1c1.3,0,2.4-1.1,2.4-2.4s-1.1-2.4-2.4-2.4s-2.4,1.1-2.4,2.4S165,434.1,166.4,434.1z"/>
			<path class="st6" d="M181.1,434.1c1.3,0,2.4-1.1,2.4-2.4s-1.1-2.4-2.4-2.4c-1.3,0-2.4,1.1-2.4,2.4
				C178.7,433,179.8,434.1,181.1,434.1z"/>
			<path class="st6" d="M195.9,434.1c1.3,0,2.4-1.1,2.4-2.4s-1.1-2.4-2.4-2.4c-1.3,0-2.4,1.1-2.4,2.4S194.6,434.1,195.9,434.1z"/>
		</g>
		<g>
			<path class="st5" d="M167.9,342.1c12.3,0,22.3-10,22.3-22.3s-10-22.3-22.3-22.3s-22.3,10-22.3,22.3
				C145.7,332,155.7,342.1,167.9,342.1z"/>
			<g>
				<path class="st6" d="M167.9,322.1c3.9,0,7.2-3.2,7.2-7.2c0-3.9-3.2-7.2-7.2-7.2s-7.2,3.2-7.2,7.2S164,322.1,167.9,322.1z"/>
				<path class="st6" d="M164.8,321.1h6.2c3.6,0,6.6,3,6.6,6.6v4.2h-19.3v-4.2C158.2,324.1,161.2,321.1,164.8,321.1z"/>
			</g>
		</g>
		<g>
			<path class="st4" d="M323.8,399.7c12.3,0,22.3-10,22.3-22.3s-10-22.3-22.3-22.3s-22.3,10-22.3,22.3S311.5,399.7,323.8,399.7z"/>
			<g>
				<path class="st6" d="M323.8,380.4c3.9,0,7.2-3.2,7.2-7.2c0-3.9-3.2-7.2-7.2-7.2s-7.2,3.2-7.2,7.2
					C316.6,377.2,319.8,380.4,323.8,380.4z"/>
				<path class="st6" d="M320.7,379.5h6.2c3.6,0,6.6,3,6.6,6.6v4.2h-19.3V386C314.1,382.4,317.1,379.5,320.7,379.5z"/>
				<g>
					<path class="st6" d="M316.9,375c0,0.3-0.3,0.5-0.6,0.5c-0.3,0-0.6-0.2-0.6-0.5v-3.9c0-1.9,0.9-3.6,2.3-4.9c1.4-1.2,3.4-2,5.6-2
						s4.1,0.8,5.6,2c1.4,1.3,2.3,3,2.3,4.9v3.8c0,0.3-0.2,0.5-0.6,0.5c-0.3,0-0.6-0.2-0.6-0.5v-3.8c0-1.6-0.8-3.1-2-4.1
						c-1.2-1.1-2.9-1.7-4.8-1.7s-3.6,0.7-4.8,1.7c-1.2,1.1-2,2.5-2,4.1L316.9,375L316.9,375z"/>
					<path class="st6" d="M317.1,369.5L317.1,369.5L317.1,369.5v6.4l0,0l0,0c-1.7,0-3-1.4-3-3v-0.4
						C314,370.9,315.4,369.5,317.1,369.5z"/>
					<path class="st6" d="M330.5,369.5L330.5,369.5C330.4,369.5,330.4,369.5,330.5,369.5v6.4l0,0l0,0c1.7,0,3-1.4,3-3v-0.4
						C333.5,370.9,332.1,369.5,330.5,369.5z"/>
				</g>
			</g>
		</g>
	</g>
	<g>
		<g>
			<path class="st0" d="M425.1,126.8h53.1c6.7,0,12.1,5.4,12.1,12.1v40c0,6.7-5.4,12.1-12.1,12.1h-53.1c-6.7,0-12.1-5.4-12.1-12.1
				v-40C413,132.3,418.4,126.8,425.1,126.8z"/>
			<polygon class="st0" points="439.9,202.6 467.2,187.7 443.6,187 			"/>
		</g>
	</g>
	<polygon class="st0" points="384.9,70 405.8,31.1 423.6,45.6 	"/>
	<polygon class="st0" points="386.2,75.5 425.7,82.4 416.7,99 	"/>
	<ellipse class="st0" cx="245.9" cy="190.2" rx="88.4" ry="88.4"/>
	<path class="st1" d="M245.8,79.9c3.3,0,6-2.7,6-6s-2.7-6-6-6s-6,2.7-6,6C239.9,77.2,242.5,79.9,245.8,79.9z"/>
	<path class="st4" d="M247.1,73.9c1,0,1.9-0.9,1.9-1.9s-0.9-1.9-1.9-1.9s-1.9,0.9-1.9,1.9C245.2,73,246,73.9,247.1,73.9z"/>
	<g>
		<g>
			<path class="st1" d="M35.1,102.7l58-14.7c2.6-0.6,5.2,0.9,5.8,3.5l9.1,36c0.6,2.6-0.9,5.2-3.5,5.8l-58,14.7
				c-2.6,0.6-5.2-0.9-5.8-3.5l-9.1-36C31,106,32.6,103.3,35.1,102.7z"/>
			<path class="st4" d="M37.3,96.8l58-14.7c2.6-0.6,5.2,0.9,5.8,3.5l9.1,36c0.6,2.6-0.9,5.2-3.5,5.8l-58,14.7
				c-2.6,0.6-5.2-0.9-5.8-3.5l-9.1-36C33.2,100.1,34.7,97.5,37.3,96.8z"/>
			<path class="st7" d="M48.7,138.7c-0.3,0.4-1,0.5-1.4,0.1c-0.4-0.3-0.5-1-0.1-1.4l22.6-28.1c0.3-0.4,0.8-0.5,1.2-0.3l33.3,14.2
				c0.5,0.2,0.7,0.8,0.5,1.3s-0.8,0.7-1.3,0.5l-32.6-13.9L48.7,138.7z"/>
			<polygon class="st4" points="71.8,114.7 83.2,100.4 94.6,86 66.3,93.1 38.1,100.3 54.9,107.5 			"/>
			<path class="st7" d="M38.1,101.7c-0.5-0.2-0.7-0.8-0.5-1.3s0.8-0.7,1.3-0.5l32.6,13.7l22.1-27.8c0.3-0.4,1-0.5,1.4-0.2
				s0.5,1,0.2,1.4l-22.6,28.3l0,0c-0.3,0.3-0.7,0.5-1.1,0.3L38.1,101.7z"/>
		</g>
		<path class="st8" d="M95.6,69.7c6.7-1.7,13.5,2.4,15.2,9.1s-2.4,13.5-9.1,15.2c-6.7,1.8-13.5-2.3-15.2-9
			C84.8,78.2,88.8,71.4,95.6,69.7z"/>
	</g>
	<g>
		<g>
			<path class="st8" d="M100.8,200.8c-3.2,23.6-35.2,20.1-34.9-1.6c0.2-20.3,28.6-24.5,34.3-5.2C100.9,196.5,101,198.2,100.8,200.8z
				"/>
			<path class="st8" d="M107.5,228.7c-3.3,14.6-23.3,6.8-17.9-5.2C93.4,214.8,108,216.6,107.5,228.7z"/>
			<path class="st8" d="M456.4,245.5c-22,9.3-35.2-20-16.4-30.8c17.6-10.1,35.6,12.1,21.9,26.8C460.2,243.4,458.7,244.3,456.4,245.5
				z"/>
			<path class="st8" d="M435.9,265.4c-14.3,4.7-17.7-16.6-4.6-18.1C440.6,246.2,446.5,259.7,435.9,265.4z"/>
			<path class="st8" d="M414,299.1c-14.3,4.7-17.7-16.6-4.6-18.1C418.7,279.9,424.6,293.4,414,299.1z"/>
		</g>
	</g>
	<polygon class="st0" points="381.2,67.3 369.8,23.6 389.1,25.6 	"/>
	<g>
		<g>
			<path class="st1" d="M205.1,172.1c-10.4,8.4-20,22.9-11.2,32.4s-4.9,6.2-7.8,21.8c-3,15.6,2.2,34.7,52.6,29s71.5-14,68.6-32.8
				c-2.9-18.9-16.2-21.2-16.1-23.8c0.1-2.7,12.2-6.2,7.8-17.4c-4.4-11.2-20.5-18.3-22.9-19.5C273.7,160.5,215.5,163.8,205.1,172.1z"
				/>
			<path class="st9" d="M184.9,254.2c1.6-6.7,4-12.8,7.8-16.9c3.8-4,9.5-7.3,14.8-8.1s10.1,0.8,15.4-0.7c10.4-2.9,31.1-5.9,46.9-0.9
				c3.2,1,16,2.2,19.2,3.4c10.5,4.1,16.5,12.5,19.9,21.2c-16,16.3-38.3,26.4-63,26.4C222.2,278.6,200.7,269.3,184.9,254.2z"/>
			<path class="st1" d="M282.4,270.7c0-2.6-0.1-5.4-0.3-8.4c-0.2-2.5,0.1-5.9,0.7-9.5c0.7-4.5,1.8-9.5,2.8-13.6
				c0.1-0.4,0.5-0.7,0.9-0.6c0.4,0.1,0.6,0.5,0.5,0.9c-1,4.1-2.1,9-2.8,13.4c-0.5,3.5-0.8,6.7-0.7,9.2c0.2,2.8,0.3,5.4,0.3,7.9
				C283.4,270.2,282.9,270.5,282.4,270.7z"/>
		</g>
		<g>
			<path class="st10" d="M230.2,207.5c-0.7,0,2,18.1,2,18.1l-11.1,2.8c13.5,18.6,37,17.5,49.2-0.7l-11.1-2.8l1.8-19
				C261,205.9,230.8,207.5,230.2,207.5z"/>
			<path class="st1" d="M231,219.1c2.6,1.4,5.5,2.4,8.9,2.9c7.4,1,15-0.9,20.6-6.4l1.3-12.3c0,0-31.6,1.6-32.3,1.6
				C229,204.8,230.2,213.8,231,219.1z"/>
			<path class="st1" d="M245,136.8c10.5-8.9,23.1-6.3,33.4,4.6c7.5,8,14,21.7,10.7,29.9c-4.5,11.1-18.6,19.2-21.8,17.3
				C267.4,188.6,234.5,145.7,245,136.8z"/>
			<path class="st11" d="M222.7,170c-1.4,2.3-6,31,10.4,42.4c7,4.8,16.3,5.3,23.9,1.9c8.9-4,16.6-14.1,16.3-35.9
				c-0.4-30.6-31-36.6-40.2-29.9C223.9,155.3,224.2,167.4,222.7,170z"/>
			<path class="st11" d="M268.8,161c-6.1-10.3-17.1-14.7-25.7-14.9c-6.7,1.9-12.8,6.3-16.2,13.8c9.7-5.7,22.1-2.4,22.1-2.4
				S259.6,155.3,268.8,161z"/>
			<path class="st12" d="M267.8,159.4c-6.1-9.1-16.2-13-24.4-13.3c-7.7,2.2-13.4,5.8-14.4,6.4c-0.1,0.1-0.1,0.1-0.2,0.2l-1.7,8.5
				c11.2-11.5,22.2-4.1,22.2-4.1S259.5,153.2,267.8,159.4z"/>
			<path class="st1" d="M215.6,175l7.9,9c-2-12,11.7-47.2,26-26.4c9.3-14.8,21.6,3.1,24.4,13.9c0,0,4.2-24-3.6-30
				c-7.8-6-12.2-0.4-12.2-0.4s-6.3-13.3-23.6-10.9c-12.1,1.7-26.4,18.5-27.2,29.8C206.5,171.4,215.6,175,215.6,175z"/>
			<g>
				<path class="st12" d="M251.1,204.8c-2.4,0.5-4.9,0.3-7.3-0.8v0.1c-0.2,1.9,1.2,3.6,3,3.8l0.5,0.1c1.9,0.2,3.6-1.2,3.8-3
					C251.1,204.9,251.1,204.8,251.1,204.8z"/>
				<path class="st1" d="M239.3,193.9c0-0.3,0.2-0.6,0.5-0.6s0.6,0.2,0.7,0.5c0.3,2.3,1.5,4.1,3.2,5.3c1.2,0.8,2.6,1.3,4,1.5
					s2.9,0,4.2-0.7c1.9-0.9,3.6-2.6,4.5-5.3c0.1-0.3,0.4-0.5,0.8-0.4s0.5,0.4,0.4,0.7c-1,3.1-2.9,5-5.1,6c-1.6,0.7-3.3,1-4.9,0.8
					c-1.6-0.2-3.2-0.8-4.6-1.7C241.1,198.6,239.7,196.5,239.3,193.9z"/>
				<path class="st12" d="M239.5,186.3c0.6-5.2-11.3-6.5-11.9-1.3C227,190.2,238.9,191.5,239.5,186.3z"/>
				<path class="st12" d="M269.7,189.6c0.6-5.2-11.3-6.5-11.9-1.3C257.3,193.5,269.1,194.8,269.7,189.6z"/>
				<path class="st1" d="M260.4,168.5c-0.6,0.1-1.2-0.2-1.4-0.8c-0.1-0.6,0.2-1.2,0.8-1.4c0,0,4.6-1.1,7.6,2.5
					c0.4,0.5,0.3,1.2-0.2,1.6c-0.5,0.4-1.2,0.3-1.6-0.2C263.6,167.7,260.4,168.5,260.4,168.5z"/>
				<path class="st1" d="M234,167.5c-0.4,0.5-1.2,0.5-1.6,0c-0.5-0.4-0.5-1.2,0-1.6c0,0,3.2-3.4,7.7-2c0.6,0.2,0.9,0.8,0.7,1.4
					c-0.2,0.6-0.8,0.9-1.4,0.7C236.3,165.1,234,167.5,234,167.5z"/>
				<path class="st12" d="M253.1,187.7c-2.4,0.5-4.9,0.3-7.3-0.8v0.1c-0.2,1.9,1.2,3.6,3,3.8l0.5,0.1c1.9,0.2,3.6-1.2,3.8-3
					C253.1,187.7,253.1,187.7,253.1,187.7z"/>
				<path class="st1" d="M232.6,175.8c0.3-1.9,2-3.2,3.8-2.9c1.9,0.3,3.2,2,2.9,3.8l-0.1,0.5c-0.3,1.9-2,3.2-3.8,2.9
					c-1.9-0.3-3.2-2-2.9-3.8L232.6,175.8z"/>
				<path class="st4" d="M236.7,174c0.1-0.7,0.8-1.2,1.5-1.1c0.7,0.1,1.2,0.8,1.1,1.5v0.2c-0.1,0.7-0.8,1.2-1.5,1.1
					c-0.7-0.1-1.2-0.8-1.1-1.5V174z"/>
				<path class="st1" d="M258.2,177.3c0.3-1.9,2-3.2,3.8-2.9c1.9,0.3,3.2,2,2.9,3.8l-0.1,0.5c-0.3,1.9-2,3.2-3.8,2.9
					c-1.9-0.3-3.2-2-2.9-3.8L258.2,177.3z"/>
				<path class="st4" d="M262.3,175.4c0.1-0.7,0.8-1.2,1.5-1.1c0.7,0.1,1.2,0.8,1.1,1.5v0.2c-0.1,0.7-0.8,1.2-1.5,1.1
					c-0.7-0.1-1.2-0.8-1.1-1.5V175.4z"/>
			</g>
			<g>
				<g>
					<path class="st1" d="M220.6,187.8c0-0.6,0.4-1.1,1-1.2c0.6-0.1,1.1,0.3,1.1,0.9c1.4,22.2,19.1,17.3,19.2,17.3
						c0.6-0.2,1.1,0.2,1.2,0.8c0.1,0.6-0.3,1.2-0.9,1.3C242.2,206.9,222.1,212.4,220.6,187.8z"/>
					<path class="st1" d="M236.4,206.5c0.2-1.4,1.5-2.5,2.9-2.4l4.6,0.2c1.4,0.1,2.4,1.3,2.2,2.7s-1.5,2.5-2.9,2.4l-4.6-0.2
						C237.3,209.1,236.3,207.9,236.4,206.5z"/>
				</g>
				<g>
					<path class="st5" d="M214.7,177.3c-0.1-0.4-0.1-0.7-0.1-0.9c-1.3-8.7-0.4-17.9,4-25.6c4.5-7.7,12.5-13.6,25.2-15.8
						c0.4-0.1,0.7-0.1,1-0.2c5.5-0.8,10.7-0.4,15.3,1.1c6.2,2,11.4,5.8,15.4,10.8c3.9,5,6.6,11.1,7.6,17.8c1,6.2,0.5,12.9-1.7,19.6
						l-4.3-1.4c1.9-6,2.3-11.9,1.5-17.5c-0.9-5.9-3.2-11.3-6.7-15.6c-3.4-4.3-7.9-7.6-13.2-9.3c-4-1.3-8.4-1.7-13.2-0.9
						c-0.4,0.1-0.6,0.1-0.9,0.1c-11.3,1.9-18.2,7.1-22.1,13.6c-3.9,6.6-4.6,14.8-3.4,22.6c0,0.3,0.1,0.6,0.1,0.8L214.7,177.3z"/>
					<path class="st5" d="M282.7,175.4c-5.3-1.7-6.7,7.5-8.9,16.3c-2.2,8.8-5.9,15-0.6,16.6c5.3,1.7,13-5.2,15.2-14
						C290.6,185.6,288,177.1,282.7,175.4z"/>
					<path class="st5" d="M218.3,170.8c6.6-1.1,8.2,33,1.7,34c-5.6,0.9-10.8-7.1-11.2-16.1C208.4,179.8,212.8,171.7,218.3,170.8z"/>
					<path class="st13" d="M216.5,204.2c-4.1-2.1-7.3-8.5-7.7-15.5c-0.3-6.2,1.7-12,4.8-15.2c2.1,0,3.8,2.2,4.6,10.2
						C219.2,192.8,219.3,200.8,216.5,204.2z"/>
					<path class="st13" d="M284.7,178.4c-0.7,8.4-3.8,21-8.9,30.1c5-0.6,10.8-6.7,12.6-14.2c1.7-7,0.4-13.7-2.8-17.1
						c-0.3-0.3-0.5-0.5-0.8-0.7C284.8,177.2,284.8,177.8,284.7,178.4z"/>
				</g>
			</g>
		</g>
		<g>
			<path class="st11" d="M219.5,228.4c-4.4-0.2-6.1,3.1-11.3,3c-4.2,8.9-10.6,20.1-14.3,30.4c7.2,5.2,15.1,9.3,23.7,12.2
				C221.5,259.6,219.4,236.9,219.5,228.4z"/>
			<g>
				<path class="st11" d="M208.5,237c-1.5-28.2-2.3-21.5,15.5-44.3c0,0,0.9,1.5-0.1,4.8s-1,3.3-1,3.3l2.5-3c0,0,2.2,3.3,0.7,5.3
					c-1.4,2-1.6,2.3-1.6,2.3s2.8-1.6,3-0.3c0.2,1.4-2.1,5.4-2.1,5.4s2.8-0.1,1.9,2.4c-0.9,2.5-6.5,9.6-6.5,9.6s1.5,5.9,1.1,8.8
					c-0.4,2.9-2.7,7.3-2.7,7.3L208.5,237z"/>
				<path class="st12" d="M222.6,200.4c0.1-0.1,0.3-0.2,0.5-0.1c0.1,0.1,0.2,0.3,0.1,0.5l-5.4,6.7c-0.1,0.1-0.3,0.2-0.5,0.1
					c-0.1-0.1-0.2-0.3-0.1-0.5L222.6,200.4z"/>
				<path class="st12" d="M224.3,204.8c0.1-0.1,0.3-0.2,0.5-0.1c0.1,0.1,0.2,0.3,0.1,0.5l-5.4,6.7c-0.1,0.1-0.3,0.2-0.5,0.1
					c-0.1-0.1-0.2-0.3-0.1-0.5L224.3,204.8z"/>
				<path class="st12" d="M225.1,210.2c0.1-0.1,0.3-0.2,0.5-0.1c0.1,0.1,0.2,0.3,0.1,0.5l-5.4,6.7c-0.1,0.1-0.3,0.2-0.5,0.1
					c-0.1-0.1-0.2-0.3-0.1-0.5L225.1,210.2z"/>
			</g>
		</g>
	</g>
</g>
<g id="TEXTS">
	<g>
		<g>
			<g>
				<path class="st14" d="M448.5,168.6V167c0-1.5,0.1-2.9,0.4-4s0.8-2.1,1.5-3.1s1.7-2,3-3.1c1.5-1.3,2.7-2.3,3.6-3.2
					s1.5-1.8,1.9-2.6c0.4-0.9,0.6-2,0.6-3.2c0-2-0.6-3.5-1.9-4.6s-3.1-1.6-5.5-1.6c-1.9,0-3.6,0.2-5.1,0.7s-2.9,1.1-4.3,1.7
					l-1.7-3.9c1.6-0.8,3.3-1.5,5.1-2c1.9-0.5,3.9-0.8,6.2-0.8c3.7,0,6.6,0.9,8.6,2.8c2,1.8,3.1,4.4,3.1,7.6c0,1.8-0.3,3.3-0.9,4.6
					s-1.4,2.4-2.5,3.5s-2.3,2.2-3.8,3.3c-1.3,1.1-2.2,2-2.9,2.9c-0.7,0.8-1.1,1.7-1.4,2.5c-0.3,0.9-0.4,1.9-0.4,3.1v1L448.5,168.6
					L448.5,168.6z M447.2,177.3c0-1.3,0.3-2.3,1-2.9c0.6-0.6,1.5-0.9,2.5-0.9c0.9,0,1.8,0.3,2.4,0.9c0.7,0.6,1,1.5,1,2.9
					c0,1.3-0.3,2.3-1,2.9c-0.7,0.6-1.5,0.9-2.4,0.9c-1,0-1.8-0.3-2.5-0.9S447.2,178.6,447.2,177.3z"/>
			</g>
		</g>
		<g>
			<g>
				<path class="st14" d="M98.8,80.4c0.9,0,1.7,0.2,2.4,0.5c0.7,0.3,1.2,0.8,1.6,1.4s0.6,1.3,0.6,2.2c0,0.9-0.2,1.7-0.6,2.4
					c-0.4,0.7-1,1.2-1.7,1.6c-0.8,0.4-1.7,0.5-2.7,0.5c-0.7,0-1.4-0.1-2-0.2s-1.1-0.3-1.5-0.6v-1.5c0.5,0.3,1,0.5,1.6,0.7
					s1.3,0.2,1.9,0.2c0.7,0,1.3-0.1,1.8-0.3c0.5-0.2,0.9-0.6,1.2-1c0.3-0.5,0.4-1,0.4-1.7c0-0.9-0.3-1.6-0.8-2.1
					c-0.6-0.5-1.4-0.7-2.6-0.7c-0.4,0-0.8,0-1.3,0.1S96.3,82,96,82.1l-0.8-0.5l0.5-6.4h6.8v1.4H97l-0.3,4.1c0.2,0,0.5-0.1,0.9-0.2
					C97.9,80.4,98.3,80.4,98.8,80.4z"/>
			</g>
		</g>
	</g>
</g>
</svg>
