<?xml version="1.0" encoding="utf-8"?>
<!-- Generator: Adobe Illustrator 24.3.0, SVG Export Plug-In . SVG Version: 6.00 Build 0)  -->
<svg version="1.1" id="Layer_1" xmlns="http://www.w3.org/2000/svg" xmlns:xlink="http://www.w3.org/1999/xlink" x="0px" y="0px"
	 viewBox="0 0 3000 2000" style="enable-background:new 0 0 3000 2000;" xml:space="preserve">
<style type="text/css">
	.st0{opacity:0.3;fill:#F2CC8F;}
	.st1{fill:#C65447;}
	.st2{fill:#E57970;}
	.st3{fill:#1C468A;}
	.st4{fill:#FFF5F2;}
	.st5{fill:#6C301E;}
	.st6{opacity:0.2;fill:#F2CC8F;enable-background:new    ;}
	.st7{fill:#163560;}
	.st8{fill:#A86337;}
	.st9{opacity:0.6;fill:#DCEBF9;enable-background:new    ;}
	.st10{fill:#365DA4;}
	.st11{fill:#F2CC8F;}
	.st12{fill:#B77446;}
	.st13{fill:#FFFFFF;}
	.st14{fill:#3D405B;}
	.st15{fill:#285493;}
	.st16{fill:#C45446;}
	.st17{fill:#E49963;}
	.st18{fill:#A8D29F;}
	.st19{fill:#82B378;}
	.st20{fill:#231F20;}
	.st21{fill:#F4BE61;}
	.st22{fill:#EE9849;}
	.st23{fill:#66A357;}
	.st24{fill:#E37970;}
	.st25{fill:#33364D;}
</style>
<path class="st0" d="M3090.8,950.4c-183.3-63.1-295.5-1025.2-1061.5-504.6c-673.4,457.7-655.6-218.4-1236.6,79.2
	C415.6,718.3,373.2,939.4,425,1050.1c56.7,121-169.3,265.7-400.7,365.1c-362.9,155.9-96.1,703.7,246.8,706.3
	c342.9,2.6,2861.9-5.2,2861.9-5.2S3818.6,1200.8,3090.8,950.4z"/>
<rect x="1163" y="830.5" class="st1" width="108.9" height="136.1"/>
<ellipse transform="matrix(0.1602 -0.9871 0.9871 0.1602 128.5601 1962.3549)" class="st2" cx="1217.5" cy="905.6" rx="27.4" ry="27.4"/>
<g>
	<path class="st1" d="M1219.5,921.3c-4.4-6-2.1-15-0.9-19.8c0.9-3.7-1.4-7.6-3-9.7c0.7-0.2,1.4-0.3,2.1-0.3
		c5.6,0,10.1,6.7,10.1,15.1C1227.7,913.9,1224.1,920,1219.5,921.3z"/>
	<path class="st1" d="M1213.3,892.9c2.2,2.3,4.9,6.1,3.4,9.6c-2.4,5.9-1.7,13.4-0.6,18.8c-4.9-1.1-8.6-7.3-8.6-14.9
		C1207.5,900.5,1209.9,895.4,1213.3,892.9z"/>
</g>
<rect x="1163" y="856.3" class="st2" width="108.9" height="2.1"/>
<rect x="433.8" y="631.6" class="st3" width="460.7" height="22.3"/>
<rect x="973.4" y="965.9" class="st3" width="424.3" height="22.3"/>
<g>
	<rect x="1492.1" y="497" class="st4" width="794.1" height="364.1"/>
	<g>
		<g>
			<path class="st5" d="M1527.5,527.1h11.2l12.4,20l12.4-20h11.2v47.3h-10.3v-30.9l-13.3,20.2h-0.3l-13.2-20v30.7h-10.2V527.1z"/>
			<path class="st5" d="M1586.2,527.1h35.7v9.3h-25.3v9.6h22.3v9.3h-22.3v9.9h25.7v9.3h-36V527.1z"/>
			<path class="st5" d="M1631.5,527.1h9.6l22.2,29.1v-29.1h10.3v47.3h-8.9l-22.9-30.1v30.1h-10.3L1631.5,527.1L1631.5,527.1z"/>
			<path class="st5" d="M1684.1,554.1v-27h10.4v26.8c0,7.7,3.9,11.7,10.2,11.7c6.4,0,10.2-3.9,10.2-11.4v-27.1h10.4v26.7
				c0,14.3-8,21.4-20.8,21.4C1691.9,575.1,1684.1,568.1,1684.1,554.1z"/>
		</g>
	</g>
	<g>
		<g>
			<path class="st6" d="M1675.9,606.5h-141.7c-4.1,0-7.4,3.3-7.4,7.4v8.3c0,4.1,3.3,7.4,7.4,7.4h141.7c4.1,0,7.4-3.3,7.4-7.4v-8.3
				C1683.3,609.9,1680,606.5,1675.9,606.5z"/>
			<path class="st6" d="M1718.7,606.5h-2.2c-6.4,0-11.6,5.2-11.6,11.6l0,0c0,6.4,5.2,11.6,11.6,11.6h2.2c6.4,0,11.6-5.2,11.6-11.6
				l0,0C1730.3,611.7,1725,606.5,1718.7,606.5z"/>
			<path class="st6" d="M1675.9,655.7h-141.7c-4.1,0-7.4,3.3-7.4,7.4v8.3c0,4.1,3.3,7.4,7.4,7.4h141.7c4.1,0,7.4-3.3,7.4-7.4v-8.3
				C1683.3,659,1680,655.7,1675.9,655.7z"/>
			<path class="st6" d="M1718.7,655.7h-2.2c-6.4,0-11.6,5.2-11.6,11.6c0,6.4,5.2,11.6,11.6,11.6h2.2c6.4,0,11.6-5.2,11.6-11.6
				C1730.3,660.9,1725,655.7,1718.7,655.7z"/>
			<path class="st6" d="M1675.9,705.3h-141.7c-4.1,0-7.4,3.3-7.4,7.4v8.3c0,4.1,3.3,7.4,7.4,7.4h141.7c4.1,0,7.4-3.3,7.4-7.4v-8.3
				C1683.3,708.6,1680,705.3,1675.9,705.3z"/>
			<path class="st6" d="M1718.7,705.3h-2.2c-6.4,0-11.6,5.2-11.6,11.6s5.2,11.6,11.6,11.6h2.2c6.4,0,11.6-5.2,11.6-11.6
				C1730.3,710.5,1725,705.3,1718.7,705.3z"/>
			<path class="st6" d="M1675.9,754.9h-141.7c-4.1,0-7.4,3.3-7.4,7.4v8.3c0,4.1,3.3,7.4,7.4,7.4h141.7c4.1,0,7.4-3.3,7.4-7.4v-8.3
				C1683.3,758.2,1680,754.9,1675.9,754.9z"/>
			<path class="st6" d="M1718.7,754.9h-2.2c-6.4,0-11.6,5.2-11.6,11.6l0,0c0,6.4,5.2,11.6,11.6,11.6h2.2c6.4,0,11.6-5.2,11.6-11.6
				l0,0C1730.3,760.1,1725,754.9,1718.7,754.9z"/>
			<path class="st6" d="M1675.9,804.4h-141.7c-4.1,0-7.4,3.3-7.4,7.4v8.3c0,4.1,3.3,7.4,7.4,7.4h141.7c4.1,0,7.4-3.3,7.4-7.4v-8.3
				C1683.3,807.8,1680,804.4,1675.9,804.4z"/>
			<path class="st6" d="M1718.7,804.4h-2.2c-6.4,0-11.6,5.2-11.6,11.6s5.2,11.6,11.6,11.6h2.2c6.4,0,11.6-5.2,11.6-11.6
				S1725,804.4,1718.7,804.4z"/>
			<path class="st6" d="M1945.9,606.5h-141.7c-4.1,0-7.4,3.3-7.4,7.4v8.3c0,4.1,3.3,7.4,7.4,7.4h141.7c4.1,0,7.4-3.3,7.4-7.4v-8.3
				C1953.3,609.9,1949.9,606.5,1945.9,606.5z"/>
			<path class="st6" d="M1988.6,606.5h-2.2c-6.4,0-11.6,5.2-11.6,11.6l0,0c0,6.4,5.2,11.6,11.6,11.6h2.2c6.4,0,11.6-5.2,11.6-11.6
				l0,0C2000.2,611.7,1995,606.5,1988.6,606.5z"/>
			<path class="st6" d="M1945.9,655.7h-141.7c-4.1,0-7.4,3.3-7.4,7.4v8.3c0,4.1,3.3,7.4,7.4,7.4h141.7c4.1,0,7.4-3.3,7.4-7.4v-8.3
				C1953.3,659,1949.9,655.7,1945.9,655.7z"/>
			<path class="st6" d="M1988.6,655.7h-2.2c-6.4,0-11.6,5.2-11.6,11.6c0,6.4,5.2,11.6,11.6,11.6h2.2c6.4,0,11.6-5.2,11.6-11.6
				C2000.2,660.9,1995,655.7,1988.6,655.7z"/>
			<path class="st6" d="M1945.9,705.3h-141.7c-4.1,0-7.4,3.3-7.4,7.4v8.3c0,4.1,3.3,7.4,7.4,7.4h141.7c4.1,0,7.4-3.3,7.4-7.4v-8.3
				C1953.3,708.6,1949.9,705.3,1945.9,705.3z"/>
			<path class="st6" d="M1988.6,705.3h-2.2c-6.4,0-11.6,5.2-11.6,11.6s5.2,11.6,11.6,11.6h2.2c6.4,0,11.6-5.2,11.6-11.6
				C2000.2,710.5,1995,705.3,1988.6,705.3z"/>
			<path class="st6" d="M1945.9,754.9h-141.7c-4.1,0-7.4,3.3-7.4,7.4v8.3c0,4.1,3.3,7.4,7.4,7.4h141.7c4.1,0,7.4-3.3,7.4-7.4v-8.3
				C1953.3,758.2,1949.9,754.9,1945.9,754.9z"/>
			<path class="st6" d="M1988.6,754.9h-2.2c-6.4,0-11.6,5.2-11.6,11.6l0,0c0,6.4,5.2,11.6,11.6,11.6h2.2c6.4,0,11.6-5.2,11.6-11.6
				l0,0C2000.2,760.1,1995,754.9,1988.6,754.9z"/>
			<path class="st6" d="M1945.9,804.4h-141.7c-4.1,0-7.4,3.3-7.4,7.4v8.3c0,4.1,3.3,7.4,7.4,7.4h141.7c4.1,0,7.4-3.3,7.4-7.4v-8.3
				C1953.3,807.8,1949.9,804.4,1945.9,804.4z"/>
			<path class="st6" d="M1988.6,804.4h-2.2c-6.4,0-11.6,5.2-11.6,11.6s5.2,11.6,11.6,11.6h2.2c6.4,0,11.6-5.2,11.6-11.6
				S1995,804.4,1988.6,804.4z"/>
			<path class="st6" d="M2197.2,606.5h-141.7c-4.1,0-7.4,3.3-7.4,7.4v8.3c0,4.1,3.3,7.4,7.4,7.4h141.7c4.1,0,7.4-3.3,7.4-7.4v-8.3
				C2204.6,609.9,2201.3,606.5,2197.2,606.5z"/>
			<path class="st6" d="M2240,606.5h-2.2c-6.4,0-11.6,5.2-11.6,11.6l0,0c0,6.4,5.2,11.6,11.6,11.6h2.2c6.4,0,11.6-5.2,11.6-11.6l0,0
				C2251.5,611.7,2246.3,606.5,2240,606.5z"/>
			<path class="st6" d="M2197.2,655.7h-141.7c-4.1,0-7.4,3.3-7.4,7.4v8.3c0,4.1,3.3,7.4,7.4,7.4h141.7c4.1,0,7.4-3.3,7.4-7.4v-8.3
				C2204.6,659,2201.3,655.7,2197.2,655.7z"/>
			<path class="st6" d="M2240,655.7h-2.2c-6.4,0-11.6,5.2-11.6,11.6c0,6.4,5.2,11.6,11.6,11.6h2.2c6.4,0,11.6-5.2,11.6-11.6
				C2251.5,660.9,2246.3,655.7,2240,655.7z"/>
			<path class="st6" d="M2197.2,705.3h-141.7c-4.1,0-7.4,3.3-7.4,7.4v8.3c0,4.1,3.3,7.4,7.4,7.4h141.7c4.1,0,7.4-3.3,7.4-7.4v-8.3
				C2204.6,708.6,2201.3,705.3,2197.2,705.3z"/>
			<path class="st6" d="M2240,705.3h-2.2c-6.4,0-11.6,5.2-11.6,11.6s5.2,11.6,11.6,11.6h2.2c6.4,0,11.6-5.2,11.6-11.6
				C2251.5,710.5,2246.3,705.3,2240,705.3z"/>
			<path class="st6" d="M2197.2,754.9h-141.7c-4.1,0-7.4,3.3-7.4,7.4v8.3c0,4.1,3.3,7.4,7.4,7.4h141.7c4.1,0,7.4-3.3,7.4-7.4v-8.3
				C2204.6,758.2,2201.3,754.9,2197.2,754.9z"/>
			<path class="st6" d="M2240,754.9h-2.2c-6.4,0-11.6,5.2-11.6,11.6l0,0c0,6.4,5.2,11.6,11.6,11.6h2.2c6.4,0,11.6-5.2,11.6-11.6l0,0
				C2251.5,760.1,2246.3,754.9,2240,754.9z"/>
			<path class="st6" d="M2197.2,804.4h-141.7c-4.1,0-7.4,3.3-7.4,7.4v8.3c0,4.1,3.3,7.4,7.4,7.4h141.7c4.1,0,7.4-3.3,7.4-7.4v-8.3
				C2204.6,807.8,2201.3,804.4,2197.2,804.4z"/>
			<path class="st6" d="M2240,804.4h-2.2c-6.4,0-11.6,5.2-11.6,11.6s5.2,11.6,11.6,11.6h2.2c6.4,0,11.6-5.2,11.6-11.6
				S2246.3,804.4,2240,804.4z"/>
		</g>
	</g>
</g>
<path class="st7" d="M1427.1,658.4c0,0-5.5-11.2-32.8-8.1c-27.4,3.1-35.1,27.7-36.3,44c-1.3,16.4-59.5,212.4-50.5,265.4l103.5-45.6
	L1427.1,658.4z"/>
<path class="st1" d="M1435,660.3c0,0-29.2-9.8-44.6,4.7c-15.4,14.6-6.7,33.9-6.7,33.9L1435,660.3z"/>
<path class="st7" d="M1527.2,717.8c0,0-0.5-64.4-104.1-56.9c-17.6,1.3-33.6,11.3-41.6,27.1c-11.7,22.8-16.7,62.9,20.9,127.1
	L1527.2,717.8z"/>
<path class="st8" d="M1396,906.8l23.3,91.2l67.4,3.3l33.6-50.3c-31.4-23.8-35.8-65.5-35.4-90.2c0-0.2,0-0.5,0-0.7
	c0.3-11.6,1.6-19.4,1.6-19.4l-47.8-14.6l-36.4-11.1c3.4,27.8,3.1,47.9,1.6,62C1401.6,899.2,1396,906.8,1396,906.8z"/>
<g>
	<polygon class="st3" points="1968.6,1272.6 2035.2,1272.6 2056.7,1343.3 2039.8,1343.3 2039.8,1382.6 1999.4,1382.6 1999.4,1343.3 
		1983.5,1343.3 	"/>
	<g>
		<polygon class="st9" points="2029.9,1279.4 1979,1279.4 1990.3,1336.5 2046.4,1336.5 		"/>
		<g>
			<path class="st3" d="M1987.7,1286.1h39.9c0.7,0,1.3,0.6,1.3,1.3c0,0.7-0.6,1.3-1.3,1.3h-39.9c-0.7,0-1.3-0.6-1.3-1.3
				C1986.4,1286.7,1987,1286.1,1987.7,1286.1z"/>
			<path class="st3" d="M1988.4,1291h40.1c0.7,0,1.3,0.6,1.3,1.3c0,0.7-0.6,1.3-1.3,1.3h-40.1c-0.7,0-1.3-0.6-1.3-1.3
				C1987.1,1291.5,1987.7,1291,1988.4,1291z"/>
			<path class="st3" d="M1998.6,1328.9h39.9c0.7,0,1.3,0.6,1.3,1.3s-0.6,1.3-1.3,1.3h-39.9c-0.7,0-1.3-0.6-1.3-1.3
				C1997.3,1329.5,1997.9,1328.9,1998.6,1328.9z"/>
		</g>
	</g>
</g>
<polygon class="st10" points="1979,1158.5 1710.1,1158.5 1667.1,1332 1932.9,1332 "/>
<path class="st11" d="M1318.4,927c11.7-21.7,74.7-22,74.7-22c6.1,7.3,40.1,29.9,80.9,30.6c28.7,0.5,17.5-27.3,17.5-27.3
	c1.4,0.2,7.6-1.2,9-0.7c8.7,2.8,14.8,8.8,19,14.4c-0.3-5.3-0.4-8.5-0.4-8.5s59.8,16.3,145.6,161.9c2.5,4.3,9.8,3.6,26.6,0.3
	c21.4-4.2,65.2-3.6,131.3-13.3c0,0,2.3,1.6,2.9,8.9c1.4,15.9,3,20.7,3,20.7s-43.5,20.5-89.7,35.1c-16.4,5.2-33.5,10-49.8,13.7
	c-15.2,3.4-29.7,5.8-42.3,6.4c0,0-34.1-13.1-74.1-47.5c3.3,23.2,4.9,39.8,4.8,41.7c-1.7,21.6,0.8,55,0.8,55s-173.4,47.3-224.4,23
	c-8.4-4-13.5-10-14-18.4c-5-94.5-27.1-171.1-29.3-224.1C1309.3,956.6,1311.4,939.9,1318.4,927z"/>
<path class="st11" d="M1392,1030.2c-31-9.6-62.1,14.8-60,47.2c2.1,31.9,4.6,69.1,7.5,123.3c0.4,8.4,5.5,14.4,14,18.4l49.6-103
	L1392,1030.2L1392,1030.2z"/>
<polygon class="st10" points="1906.6,1214.6 1788.3,1214.6 1743,1382.6 1867.5,1382.6 "/>
<path class="st5" d="M1314.7,1367.3l23.6-171.9c0.3-2.5,1.4-4.8,3-6.8c29.7-37.4,32.8-154.1,32.8-198.7c0-9.6,7.5-17.3,16.8-17.4
	c-0.7-2.1-14.3-43.4-26.9-64.1c-2.3-3.8,0-8.7,4.4-9.4l0,0c2.3-0.3,4.6,0.6,5.9,2.5c6.8,9.5,27.3,39.7,36.6,71.1h-6.4l5.7,0
	c0.5,0,1,0,1.4,0.1c53,6.5,98.1,3.3,125.1-0.1h-4c0,0-11.7-35.6-23.6-58.5c-2.6-5.1,2.3-10.8,7.7-8.8c0.1,0,0.1,0,0.2,0.1
	c1.3,0.4,2.3,1.3,3.1,2.4c8.9,12.9,24.1,36.3,32.1,63c6.4,0.5,11.8,5.6,12.3,12.5l6.9,80.8l9.5,110.6c3.4,24.5,2.6,152.5,2.2,194.8
	c-0.1,7.5-6,13.6-13.4,13.6H1328C1319.9,1383,1313.6,1375.6,1314.7,1367.3z"/>
<polygon class="st3" points="1788.3,1214.6 1780.3,1214.6 1730.5,1382.6 1744,1382.6 "/>
<polygon class="st3" points="1710.1,1158.5 1705.4,1158.5 1661.9,1332 1667.1,1332 "/>
<path class="st12" d="M1503,862.2c0,0-102.8,4.7-104.7-59.4c-1.9-64.1-16.5-106.6,49-112.3c65.6-5.7,79.1,18.4,84.9,39.6
	C1538.1,751.3,1529.7,859.3,1503,862.2z"/>
<path class="st7" d="M1438.4,684c0,0,17.6-5.6,45.8-5.6c28.2,0,61.5,21,65.6,54.3c4.1,33.3-17,46.1-17,46.1
	c4.9-35.5-40.9-63-40.9-63l-0.4-0.2c-17.8,7.5-49.9,17.9-52.9,37.6c-4.6,30.7-40.6,42.5-40.6,42.5S1367.2,681.2,1438.4,684z"/>
<path class="st13" d="M1515.4,827.3c0,0-0.7,6.5-16.6,7.4c0,0-13.3,0.7-13.7-6.3C1485,828.4,1497.2,822,1515.4,827.3z"/>
<rect x="308.4" y="1382.1" class="st14" width="1649.5" height="732.3"/>
<g>
	<path class="st12" d="M2303.5,2099.6c-1.3,15.8-23.5,15.8-48.7,12.6c-25.2-3.1-18.6,3.3-53.9,3.6c-35.4,0.2-47.5-11.5-49.1-16.6
		c-1.5-4.5,15.6-8.1,33.8-12.4c2.3-0.5,4.6-1.1,6.9-1.7c20.6-5.1,38.4-16.2,52-33.6c15.3-19.7,29.4-109.1,29.4-109.1l55.2,10.3
		c0,0-32.2,76.7-35.5,101.8c-1.5,11.3,6.5,18.8,8.4,28.7C2303,2088.6,2304,2094.1,2303.5,2099.6z"/>
	<path class="st10" d="M2151.7,2099.2c1.3,4,9.3,12.3,30.4,15.4h39.3c13.5-1.8,14.8-4.7,33.3-2.4c25.2,3.1,47.5,3.1,48.7-12.7
		c0.5-5.5-0.5-11-1.5-16.4c-16.4,1.7-40.7,11.4-64.4,13.6c-29.1,2.7-51.8-9.7-51.8-9.7l-0.2-0.3
		C2167.3,2091.1,2150.2,2094.7,2151.7,2099.2z"/>
	<g>
		<path class="st10" d="M2254.1,2006.8c0,0,14.5,9.6,28.1,12c20.4,3.7,29.9-0.4,29.9-0.4s98.2-246.4,92.6-329.7
			c-0.1-2-0.2-4.1-0.2-6.4c-0.2-14.4,1.9-33.7,5.5-55.9c1.3-8.1,2.8-16.6,4.5-25.4c3.9-20.5,8.8-42.7,14.2-65.3
			c2.3-9.9,4.8-20,7.3-30c24.7-98.5,54.8-195.6,54.8-195.6s-177.1-57.9-187.1-3.8c-3.8,20.8-16.6,103.8-10.9,230.8
			c4.7,102.2,1.6,181.9-7.2,274.5C2277.8,1892.8,2264.5,1962.7,2254.1,2006.8z"/>
	</g>
	<path class="st15" d="M2404.4,1682.3c-0.2-14.4,1.9-33.7,5.5-55.9c1.3-8.1,2.8-16.6,4.5-25.4c3.9-20.5,8.8-42.7,14.2-65.3
		c2.3-9.9,4.8-20,7.3-30c-3.5-30.1-6.3-50.7-6.3-50.7S2356,1555,2404.4,1682.3z"/>
	<path class="st12" d="M2375.2,2099.2c1.2,3.8,8.3,11.3,26.5,14.8h47.4c9.8-1.7,12.7-3.7,29.1-1.7c25.2,3.1,47.5,3.1,48.7-12.7
		c0.5-5.5-0.5-11-1.5-16.4c-1.9-9.9-8.4-17.3-8.4-28.7c0-33.8,7.8-95.2,7.8-95.2l-51.9,18.6c0,0,11.7,61.1-5,73.7
		c-17.7,13.3-31.4,28.6-52,33.6c-2.3,0.6-4.6,1.1-6.9,1.7C2390.7,2091.1,2373.7,2094.7,2375.2,2099.2z"/>
	<path class="st10" d="M2375.2,2099.2c1.2,3.8,8.3,11.3,26.5,14.8h47.4c9.8-1.7,12.7-3.7,29.1-1.7c25.2,3.1,47.5,3.1,48.7-12.7
		c0.5-5.5-0.5-11-1.5-16.4c-16.4,1.7-40.7,11.4-64.4,13.6c-29.1,2.7-51.8-9.7-51.8-9.7l-0.2-0.3
		C2390.7,2091.1,2373.7,2094.7,2375.2,2099.2z"/>
	<path class="st10" d="M2384,1290.9c0,0,57.6,287.2,67.4,443.5c9.7,156.3,21.9,285.7,21.9,285.7s12.6,4.5,27,3.7
		c15.2-0.9,27.3-5.6,27.3-5.6s57.1-235.2,38.2-329.3c-18.9-94.1-3.2-181,5.9-259.1c13-112-37.1-164-72.1-199.5
		C2464.3,1194.5,2384,1290.9,2384,1290.9z"/>
	<path class="st16" d="M2343.2,764.8c-5.7-46.8,8.9-121.6,102.2-109.6c93.3,12,122.7,103.7,103.9,144.5
		c-18.8,40.8,27.1,50.6,41.5,94.5c12.4,37.7,16.7,84.5,36.7,105.4c64.6,67.7-62,171.8-138.4,149.8c-139.1-40-157-45.9-152-155.2
		c2.5-56,46.1-77.7,18.4-93.9C2288.8,861.2,2356.2,870.6,2343.2,764.8z"/>
	<path class="st17" d="M2363.7,885.8c1.4,0,12.6-3.4,31.4-5.2c9.2-27.6,4.2-56.5,4.2-56.5l69.4-21.1c3.3,73.2,9.9,82.9,11.3,84.1
		c14.4,3.4,29.8,8.2,46,14.8c0,0-44.3,253.6-25.3,302c19,48.4,26.3,91.4,26.3,91.4l-206.6,2.6c0,0,2.9-166.1-6.6-224.9
		C2304.3,1014.1,2363.7,885.8,2363.7,885.8z"/>
	<path class="st17" d="M2381.1,828.8c0,0,83.1,16.7,92.7-35.2s26.8-84.7-25.9-97.6c-52.7-12.9-66.7,5-74.1,21.6
		C2366.5,734.1,2359.8,823.1,2381.1,828.8z"/>
	<path class="st18" d="M2020.6,1056.4c0.6-7.2,2.9-8.9,2.9-8.9c66,9.7,109.8,9.2,131.3,13.3c16.8,3.3,23.7,3.7,26.6-0.3
		c91.2-128.3,155.8-168.6,155.8-168.6s6.9-4.1,33.8-7.8c0,0,3.9,48.8,28.9,52.9c43.4,7.1,78.3-32.6,88.5-48.6
		c0,0,49.8,12.6,64.4,29.2c10.5,12,9.1,40.6,6,58.6c-1,5.7-2.2,10.4-3.2,13.1c-3.1,8.2-14.7,68-20.1,91.8c-0.1,0.6-0.2,1.2-0.4,1.7
		c-0.4,1.6-0.7,3-1,4.2c0,0,0,0.1,0,0.1c-0.3,1.3-0.6,2.3-0.8,2.9c-0.1,0.4-0.2,0.8-0.4,1.2c0,0,0,0,0,0.1
		c-7.7,24.5-12.3,49.4-9.6,80.1c0.3,3.6,1.1,7.9,2.4,12.8c6.9,35.6,35.8,105.7,41.8,137.9c-3.4,7.3-11.3,13-20.8,17.6
		c-12.4,6-27.7,10-39.8,12.8c-9.4,2.2-23.9,4.6-40.5,6.5c-8.8,1-18.3,1.8-28,2.4c-1.4,0.1-2.7,0.2-4.1,0.2
		c-62.2,3.1-131.9,1.6-141-28c-4.4-14.2,13-99.6,15.3-124.9c4-44.6-2.5-105.6-5.5-152.8c-51.1,56.3-103.8,76.5-103.8,76.5
		c-12.6-0.6-27.1-3-42.3-6.4c-16.3-3.6-33.4-8.5-49.8-13.7c-46.3-14.6-89.7-35.1-89.7-35.1S2019.2,1072.4,2020.6,1056.4z"/>
	<path class="st16" d="M2372.9,686.7c41-40.4,82.3-26.6,82.3-26.6s20.7,23.5,34.8,39.3c24.6,27.7-21.5,114.3-21.5,114.3
		s6.5-53.3-20.8-83.2c-13-14.2-19.5-25.7-22.7-33.8c-5.1,4.1-10.7,7.5-16.6,9.6c-26.5,9.3-41,51.8-41,51.8
		C2357.9,738.3,2355.2,704.1,2372.9,686.7z"/>
	<path class="st13" d="M2407,803.2c0,0-2.2,6.2-17.9,3.4c0,0-13.1-2.3-11.9-9.3C2377.2,797.3,2390.6,793.9,2407,803.2z"/>
	<path class="st19" d="M2390.4,1266.1c11.8,40,18.6,72.9,48.2,95.1c9.6-0.6,19.1-1.4,28-2.4c16.7-1.9,31.1-4.3,40.5-6.5
		c12.1-2.8,27.4-6.8,39.8-12.8c9.5-4.6,17.3-10.3,20.8-17.6c-6-32.2-34.8-102.3-41.8-137.9c-0.7-3.5-1.2-6.6-1.4-9.3
		c-2.6-31.9,1.6-58,8.6-83.6c0,0,0,0,0-0.1c0.4-1.4,0.8-2.7,1.1-4.1c0,0,0-0.1,0-0.1c0.2-0.9,0.6-2.3,1-4.2c0.1-0.5,0.2-1.1,0.4-1.7
		c4.7-22.6,17.2-93.4,20.3-102.6c1-2.9,2.1-7.9,3.1-14.1l-24.9-23.9c0,0-142.7,60.9-174.1,145
		C2328.7,1169.6,2373.4,1208.8,2390.4,1266.1z"/>
	<path class="st19" d="M2107.4,1112.2c31.6,10,66,18.8,92.1,20c0,0,53.4-20.5,104.8-77.6c2.2-9.7,4.3-26-7.5-21.3
		c-16.5,6.6-77.5,84.9-100.6,86.6C2179.7,1121.1,2132.7,1115.5,2107.4,1112.2z"/>
	<path class="st18" d="M2220.1,1089.9c0,0,70.3,35.3,131.3,50c17.6,4.2,34.5,7.2,48.9,7.9c0,0,65.6-20.2,115.6-90.3
		c96.7-135.4,22-150,22-150s-64.6,40.3-155.8,168.6c-3.2,4.5-11.2,3.5-32-0.7c-22.2-4.5-66.3-3.9-127.2-12.9c0,0-1,2.3-1.6,9.5
		C2220,1087.8,2220.1,1089.9,2220.1,1089.9z"/>
	<path class="st17" d="M1948.4,1036.4c7.9-7.4,45-2.8,58.9,4.2c5.3,2.7,11.1,4.8,16.1,6.4c65,9.4,110.1,9.7,131.3,13.9
		c4.5,13.2,9,35.9,2.4,65c-16.3-3.6-33.4-8.5-49.8-13.7c-44.1-14-85.7-33.3-89.5-35c-6.6-1-15.5-1.9-27.3-2.2
		C1956.7,1074,1940.5,1043.9,1948.4,1036.4z"/>
	<path class="st17" d="M2134.8,1046.5c8.4-7.9,48.1-3,62.9,4.5c8.7,4.3,18.4,7.3,25,9.1c0-0.1,0-0.1,0-0.1
		c60.9,8.9,105.3,10.9,127.5,15.4c-6.9,15-12.2,38.1,1.2,64.6c-58.2-14-126.5-45.1-132.5-47.9c-6.8-1.7-19-3.8-39-4.4
		C2143.8,1086.6,2126.4,1054.4,2134.8,1046.5z"/>
</g>
<path class="st11" d="M1651.8,1100.1c0,0-70.3,35.3-131.3,50c-17.5,4.2-34.5,7.2-48.9,7.9c0,0-65.6-20.2-115.6-90.3
	c-96.7-135.4-22-150-22-150s64.6,40.3,155.8,168.6c3.2,4.5,11.2,3.5,32-0.7c22.2-4.5,66.3-3.9,127.2-12.9c0,0,1,2.3,1.6,9.5
	C1651.9,1098,1651.8,1100.1,1651.8,1100.1z"/>
<path class="st8" d="M1691.1,1075.7c21.2-4.1,66.4-4.5,131.3-13.9c5.1-1.6,10.8-3.7,16.1-6.4c13.9-7,51-11.6,58.9-4.2
	c7.9,7.4-8.4,37.6-42.2,38.5c-11.9,0.3-20.8,1.2-27.3,2.2c-3.8,1.8-45.4,21-89.5,35c-16.4,5.2-33.5,10-49.8,13.7
	C1682.2,1111.6,1686.7,1088.9,1691.1,1075.7z"/>
<g>
	<g>
		<polygon class="st1" points="1675.6,989.4 1676.4,1007.6 1678,1045.8 1678.8,1063.3 1727.2,1063.3 1728.3,1045.8 1730.7,1007.6 
			1731.8,989.4 		"/>
		<polygon class="st2" points="1674.6,977 1732,977 1734.3,989.4 1673,989.4 		"/>
		<polygon class="st2" points="1676.4,1007.6 1678,1045.8 1728.3,1045.8 1730.7,1007.6 		"/>
	</g>
	<g>
		<polygon class="st1" points="1763.4,989.4 1764.2,1007.6 1765.8,1045.8 1766.6,1063.3 1815,1063.3 1816.1,1045.8 1818.5,1007.6 
			1819.6,989.4 		"/>
		<polygon class="st2" points="1762.5,977 1819.8,977 1822.2,989.4 1760.8,989.4 		"/>
		<polygon class="st2" points="1764.2,1007.6 1765.8,1045.8 1816.1,1045.8 1818.5,1007.6 		"/>
	</g>
	<rect x="1627.3" y="1063.3" class="st3" width="242.8" height="12.8"/>
</g>
<path class="st12" d="M1520.5,1150.1c13.4-26.5,8.2-49.6,1.2-64.6c22.2-4.5,66.6-6.4,127.5-15.4c0,0,0,0,0,0.1
	c6.6-1.7,16.3-4.7,25-9.1c14.9-7.4,54.5-12.4,62.9-4.5c8.4,7.9-8.9,40.1-45.1,41.1c-20,0.5-32.1,2.6-39,4.4
	C1647,1104.9,1578.7,1136.1,1520.5,1150.1z"/>
<path class="st20" d="M2139.8,1382.1c27.6,0,50.2,25,50.2,55.7l0,0c0,30.6-22.6,55.7-50.2,55.7H131.9c-30.7,0-55.7-24.9-55.7-55.7
	l0,0c0-30.7,24.9-55.7,55.7-55.7L2139.8,1382.1L2139.8,1382.1z"/>
<rect x="460.8" y="495.5" class="st21" width="108.9" height="136.1"/>
<rect x="607.7" y="495.5" class="st1" width="108.9" height="136.1"/>
<rect x="749.2" y="495.5" class="st18" width="108.9" height="136.1"/>
<circle class="st2" cx="513.4" cy="565" r="41.6"/>
<ellipse class="st2" cx="662.2" cy="570.6" rx="27.4" ry="27.4"/>
<circle class="st1" cx="807.9" cy="568.4" r="38.2"/>
<g>
	<path class="st18" d="M810.2,587.2c-5.5-7.6-2.7-19-1.2-25c1.1-4.7-1.8-9.6-3.7-12.2c0.8-0.3,1.7-0.4,2.6-0.4c7,0,12.7,8.5,12.7,19
		C820.6,577.8,816.1,585.5,810.2,587.2z"/>
	<path class="st18" d="M802.4,551.4c2.8,2.9,6.2,7.7,4.3,12.1c-3,7.4-2.1,16.9-0.7,23.7c-6.1-1.3-10.9-9.2-10.9-18.8
		C795.2,560.9,798.1,554.4,802.4,551.4z"/>
</g>
<g>
	<path class="st1" d="M664.2,586.3c-4.4-6-2.1-15-0.9-19.8c0.9-3.7-1.4-7.6-3-9.7c0.7-0.2,1.4-0.3,2.1-0.3c5.6,0,10.1,6.7,10.1,15.1
		C672.4,578.9,668.9,585,664.2,586.3z"/>
	<path class="st1" d="M658,557.9c2.2,2.3,4.9,6.1,3.4,9.6c-2.4,5.9-1.7,13.4-0.6,18.8c-4.9-1.1-8.6-7.3-8.6-14.9
		C652.3,565.5,654.6,560.4,658,557.9z"/>
</g>
<g>
	<path class="st21" d="M515.8,584.9c-5.8-8-2.8-20.2-1.2-26.6c1.2-4.9-1.9-10.2-4-13c0.9-0.3,1.8-0.4,2.8-0.4
		c7.5,0,13.5,9,13.5,20.2C526.9,575,522.1,583.2,515.8,584.9z"/>
	<path class="st21" d="M507.5,546.9c2.9,3.1,6.6,8.2,4.6,12.9c-3.2,7.9-2.2,17.9-0.8,25.2c-6.5-1.4-11.5-9.8-11.5-20
		C499.8,557.1,503,550.2,507.5,546.9z"/>
</g>
<rect x="460.8" y="506.5" class="st22" width="108.9" height="2.1"/>
<rect x="607.7" y="521.3" class="st2" width="108.9" height="2.1"/>
<rect x="749.2" y="502" class="st23" width="108.9" height="2.1"/>
<rect x="1027.6" y="830.5" class="st18" width="108.9" height="136.1"/>
<ellipse transform="matrix(0.8112 -0.5847 0.5847 0.8112 -323.1576 805.6875)" class="st1" cx="1086.3" cy="903.4" rx="38.2" ry="38.2"/>
<g>
	<path class="st18" d="M1088.6,922.2c-5.5-7.6-2.7-19-1.2-25c1.1-4.7-1.8-9.6-3.7-12.2c0.8-0.3,1.7-0.4,2.6-0.4
		c7,0,12.7,8.5,12.7,19C1099,912.8,1094.5,920.5,1088.6,922.2z"/>
	<path class="st18" d="M1080.8,886.4c2.8,2.9,6.2,7.7,4.3,12.1c-3,7.4-2.1,16.9-0.7,23.7c-6.1-1.3-10.9-9.2-10.9-18.8
		C1073.6,895.9,1076.5,889.4,1080.8,886.4z"/>
</g>
<rect x="1027.6" y="837" class="st23" width="108.9" height="2.1"/>
<g>
	<g>
		<polygon class="st1" points="745,924.6 744.2,906.4 742.5,868.3 741.7,850.7 693.3,850.7 692.2,868.3 689.9,906.4 688.7,924.6 		
			"/>
		<polygon class="st2" points="745.9,937 688.6,937 686.2,924.6 747.5,924.6 		"/>
		<polygon class="st2" points="744.2,906.4 742.5,868.3 692.2,868.3 689.9,906.4 		"/>
	</g>
	<g>
		<polygon class="st1" points="745,911.2 744.2,892.9 742.5,854.8 741.7,837.2 693.3,837.2 692.2,854.8 689.9,892.9 688.7,911.2 		
			"/>
		<polygon class="st2" points="745.9,923.5 688.6,923.5 686.2,911.2 747.5,911.2 		"/>
		<polygon class="st2" points="744.2,892.9 742.5,854.8 692.2,854.8 689.9,892.9 		"/>
	</g>
	<g>
		<polygon class="st1" points="745,897.4 744.2,879.1 742.5,841 741.7,823.4 693.3,823.4 692.2,841 689.9,879.1 688.7,897.4 		"/>
		<polygon class="st2" points="745.9,909.7 688.6,909.7 686.2,897.4 747.5,897.4 		"/>
		<polygon class="st2" points="744.2,879.1 742.5,841 692.2,841 689.9,879.1 		"/>
	</g>
	<g>
		<polygon class="st1" points="745,883.5 744.2,865.3 742.5,827.1 741.7,809.6 693.3,809.6 692.2,827.1 689.9,865.3 688.7,883.5 		
			"/>
		<polygon class="st2" points="745.9,895.9 688.6,895.9 686.2,883.5 747.5,883.5 		"/>
		<polygon class="st2" points="744.2,865.3 742.5,827.1 692.2,827.1 689.9,865.3 		"/>
	</g>
	<g>
		<polygon class="st1" points="745,869.6 744.2,851.4 742.5,813.2 741.7,795.7 693.3,795.7 692.2,813.2 689.9,851.4 688.7,869.6 		
			"/>
		<polygon class="st2" points="745.9,881.9 688.6,881.9 686.2,869.6 747.5,869.6 		"/>
		<polygon class="st2" points="744.2,851.4 742.5,813.2 692.2,813.2 689.9,851.4 		"/>
	</g>
	<g>
		<polygon class="st1" points="745,855.8 744.2,837.6 742.5,799.4 741.7,781.9 693.3,781.9 692.2,799.4 689.9,837.6 688.7,855.8 		
			"/>
		<polygon class="st2" points="745.9,868.1 688.6,868.1 686.2,855.8 747.5,855.8 		"/>
		<polygon class="st2" points="744.2,837.6 742.5,799.4 692.2,799.4 689.9,837.6 		"/>
	</g>
	<g>
		<polygon class="st1" points="679.4,924.6 678.6,906.4 676.9,868.3 676.1,850.7 627.7,850.7 626.6,868.3 624.2,906.4 623.1,924.6 
					"/>
		<polygon class="st2" points="680.3,937 622.9,937 620.6,924.6 681.9,924.6 		"/>
		<polygon class="st2" points="678.6,906.4 676.9,868.3 626.6,868.3 624.2,906.4 		"/>
	</g>
	<g>
		<polygon class="st1" points="679.4,910.7 678.6,892.5 676.9,854.3 676.1,836.8 627.7,836.8 626.6,854.3 624.2,892.5 623.1,910.7 
					"/>
		<polygon class="st2" points="680.3,923 622.9,923 620.6,910.7 681.9,910.7 		"/>
		<polygon class="st2" points="678.6,892.5 676.9,854.3 626.6,854.3 624.2,892.5 		"/>
	</g>
	<g>
		<polygon class="st1" points="679.4,896.9 678.6,878.7 676.9,840.5 676.1,823 627.7,823 626.6,840.5 624.2,878.7 623.1,896.9 		"/>
		<polygon class="st2" points="680.3,909.3 622.9,909.3 620.6,896.9 681.9,896.9 		"/>
		<polygon class="st2" points="678.6,878.7 676.9,840.5 626.6,840.5 624.2,878.7 		"/>
	</g>
	<g>
		<g>
			<rect x="373.5" y="1058.2" class="st10" width="444.2" height="305.4"/>
			<rect x="357.7" y="1030.4" class="st7" width="474.8" height="55.5"/>
			<rect x="357.7" y="1326.6" class="st7" width="474.8" height="55.5"/>
			<path class="st7" d="M741.3,1086v29l83.6,31.5c6.7,2.5,10,10.1,7.3,16.7c-2.7,6.6-10.3,9.8-16.9,6.9l-75.8-32.8
				c-4.4,14.6-17.1,25.6-32.5,27.7v11.2c0,2.8-2.3,5-5,5c-2.8,0-5-2.3-5-5v-11c-19.8-2.3-35.1-19-35.1-39.4V1086H741.3z"/>
			<path class="st7" d="M449.8,1086v29l-83.6,31.5c-6.7,2.5-10,10.1-7.3,16.7c2.7,6.6,10.3,9.8,16.9,6.9l75.8-32.8
				c4.4,14.6,17.1,25.6,32.5,27.7v11.2c0,2.8,2.3,5,5,5s5-2.3,5-5v-11c19.8-2.3,35.1-19,35.1-39.4V1086H449.8z"/>
			<rect x="415.7" y="937" class="st10" width="358.8" height="93.5"/>
		</g>
		<g>
			<path class="st16" d="M647.8,1299.5c6,7.2,25.2,11.9,25.2,11.9l0,0c7.5,8.5,18.4,13.8,30.5,13.8c22.4,0,40.6-18.3,40.6-40.6
				v-15.8c0-1.7-0.1-3.4-0.3-5.1h-80.6c-0.2,1.7-0.3,3.4-0.3,5.1v7.8c-5.4-1.1-12.8-2-16.6,0.3
				C639.8,1280.7,641.8,1292.3,647.8,1299.5z M652.5,1281.8c3.2-0.6,7.6,1.6,10.4,5.5c0.3,4.7,1.4,9.2,3.2,13.4
				c-4.5-1.1-13.7-3.9-15.7-9.2C647.9,1284.8,649.7,1282.3,652.5,1281.8z"/>
			<path class="st24" d="M737.2,1263.6h-10.9c0.2,1.7,0.3,3.4,0.3,5.1v15.8c0,20.5-15.4,37.6-35.2,40.2c1.8,0.3,3.6,0.4,5.5,0.4
				c22.3,0,40.6-18.3,40.6-40.6v-15.8C737.5,1267,737.4,1265.3,737.2,1263.6z"/>
			<rect x="686.9" y="1321.6" class="st16" width="33.2" height="5"/>
		</g>
		<g>
			<path class="st16" d="M433.1,1299.5c6,7.2,25.2,11.9,25.2,11.9l0,0c7.5,8.5,18.4,13.8,30.5,13.8c22.4,0,40.6-18.3,40.6-40.6
				v-15.8c0-1.7-0.1-3.4-0.3-5.1h-80.6c-0.2,1.7-0.3,3.4-0.3,5.1v7.8c-5.4-1.1-12.8-2-16.6,0.3
				C425.1,1280.7,427.1,1292.3,433.1,1299.5z M437.8,1281.8c3.2-0.6,7.6,1.6,10.4,5.5c0.3,4.7,1.4,9.2,3.2,13.4
				c-4.5-1.1-13.7-3.9-15.7-9.2C433.2,1284.8,435,1282.3,437.8,1281.8z"/>
			<path class="st24" d="M522.5,1263.6h-10.9c0.2,1.7,0.3,3.4,0.3,5.1v15.8c0,20.5-15.4,37.6-35.2,40.2c1.8,0.3,3.6,0.4,5.5,0.4
				c22.3,0,40.6-18.3,40.6-40.6v-15.8C522.8,1267,522.7,1265.3,522.5,1263.6z"/>
			<rect x="472.2" y="1321.6" class="st16" width="33.2" height="5"/>
		</g>
	</g>
	<rect x="804.2" y="1037.2" class="st10" width="9.4" height="41.7"/>
	<rect x="786.6" y="1037.2" class="st10" width="9.4" height="41.7"/>
	<rect x="769.8" y="1037.2" class="st10" width="9.4" height="41.7"/>
</g>
<polygon class="st25" points="1957.8,1493.4 1408.2,1493.4 308.4,2055 308.4,2114.4 1957.8,1595.6 "/>
<polygon class="st25" points="308.4,2114.4 1957.8,1682.3 1957.8,1775.5 "/>
<polygon class="st25" points="308.4,2055 1124.5,1493.4 805.3,1493.4 "/>
</svg>
